<svg width="77" height="84" viewBox="0 0 77 84" fill="none" xmlns="http://www.w3.org/2000/svg">
<path d="M30.5352 7.0911C29.1467 8.40167 29.8492 10.1985 30.374 10.9331C31.4071 10.712 33.5405 10.1868 33.8092 9.85504C34.1452 9.44037 34.3592 8.35141 34.0971 8.102C33.8875 7.90248 33.2277 8.44955 32.924 8.74802C32.779 8.76666 32.2264 8.41304 31.1764 6.84952C29.864 4.89513 30.2936 6.44986 30.5352 7.0911Z" fill="#8C91AF"/>
<path d="M44.4073 6.28246C40.9761 3.36886 38.5012 5.01827 37.6926 6.20718C36.5151 7.69115 34.0659 10.5049 33.6895 9.88804C33.3131 9.27119 31.3511 10.2768 30.4172 10.8567C30.3338 11.9525 30.0829 15.004 29.7463 18.444C29.3255 22.744 32.7553 23.2765 32.882 25.3655C33.0088 27.4545 34.2395 30.9762 35.5189 32.811C33.5315 34.0039 36.0873 39.9914 37.8373 42.5973C39.5872 45.2032 43.2436 45.1582 44.5591 44.7946C44.0052 45.7715 41.0674 63.5241 39.6677 72.2782C39.7183 77.585 40.6507 86.8747 43.9759 81.579C48.1324 74.9593 48.21 46.3602 51.5497 39.5801C54.8895 32.8 49.8583 25.3082 49.7898 24.3616C49.7213 23.4151 47.8116 18.6007 46.8729 17.7659C46.1219 17.0981 45.9619 14.3918 45.9757 13.1222C46.8826 12.0563 47.8386 9.19605 44.4073 6.28246Z" fill="#AF7C42"/>
<path d="M44.4073 6.28246C40.9761 3.36886 38.5012 5.01827 37.6926 6.20718C36.5151 7.69115 34.0659 10.5049 33.6895 9.88804C33.3131 9.27119 31.3511 10.2768 30.4172 10.8567C30.3338 11.9525 30.0829 15.004 29.7463 18.444C29.3255 22.744 32.7553 23.2765 32.882 25.3655C33.0088 27.4545 34.2395 30.9762 35.5189 32.811C33.5315 34.0039 36.0873 39.9914 37.8373 42.5973C39.5872 45.2032 43.2436 45.1582 44.5591 44.7946C44.0052 45.7715 41.0674 63.5241 39.6677 72.2782C39.7183 77.585 40.6507 86.8747 43.9759 81.579C48.1324 74.9593 48.21 46.3602 51.5497 39.5801C54.8895 32.8 49.8583 25.3082 49.7898 24.3616C49.7213 23.4151 47.8116 18.6007 46.8729 17.7659C46.1219 17.0981 45.9619 14.3918 45.9757 13.1222C46.8826 12.0563 47.8386 9.19605 44.4073 6.28246Z" fill="url(#paint0_linear)"/>
<path d="M44.4073 6.28246C40.9761 3.36886 38.5012 5.01827 37.6926 6.20718C36.5151 7.69115 34.0659 10.5049 33.6895 9.88804C33.3131 9.27119 31.3511 10.2768 30.4172 10.8567C30.3338 11.9525 30.0829 15.004 29.7463 18.444C29.3255 22.744 32.7553 23.2765 32.882 25.3655C33.0088 27.4545 34.2395 30.9762 35.5189 32.811C33.5315 34.0039 36.0873 39.9914 37.8373 42.5973C39.5872 45.2032 43.2436 45.1582 44.5591 44.7946C44.0052 45.7715 41.0674 63.5241 39.6677 72.2782C39.7183 77.585 40.6507 86.8747 43.9759 81.579C48.1324 74.9593 48.21 46.3602 51.5497 39.5801C54.8895 32.8 49.8583 25.3082 49.7898 24.3616C49.7213 23.4151 47.8116 18.6007 46.8729 17.7659C46.1219 17.0981 45.9619 14.3918 45.9757 13.1222C46.8826 12.0563 47.8386 9.19605 44.4073 6.28246Z" stroke="#9A7244" stroke-width="0.5"/>
<path d="M41.3862 10.7218C41.3352 11.0963 40.0804 12.9063 39.4594 13.7645L39.9071 14.22C40.2567 13.5441 41.1294 12.0285 41.8237 11.3732C42.6915 10.5541 43.9127 11.2465 44.2967 12.1702C44.6039 12.9092 45.5441 13.1127 45.9758 13.1222C44.7818 16.1769 41.1543 21.3416 36.1966 17.5625C31.2389 13.7835 33.2639 9.98293 34.8961 8.55502C35.5072 7.16742 36.8632 6.42383 37.8123 6.17412C37.7919 6.56595 37.8385 7.47992 38.1885 8.00109C40.7991 7.66581 41.4499 10.2536 41.3862 10.7218Z" fill="#AAA1A6"/>
<path d="M35.124 12.5167C34.4044 10.8389 34.4641 9.53602 34.8961 8.55502M34.8961 8.55502C35.5072 7.16742 36.8632 6.42383 37.8123 6.17412C37.7919 6.56595 37.8385 7.47992 38.1885 8.00109C40.7991 7.66581 41.4499 10.2536 41.3862 10.7218C41.3352 11.0963 40.0804 12.9063 39.4594 13.7645L39.9071 14.22C40.2567 13.5441 41.1294 12.0285 41.8237 11.3732C42.6915 10.5541 43.9127 11.2465 44.2967 12.1702C44.6039 12.9092 45.5441 13.1127 45.9758 13.1222C44.7818 16.1769 41.1543 21.3416 36.1966 17.5625C31.2389 13.7835 33.2639 9.98293 34.8961 8.55502Z" stroke="#E8E6E7" stroke-width="0.2"/>
<path d="M36.575 10.3136C36.4793 13.1506 37.1976 18.1098 40.8357 15.2507" stroke="#E8E6E7" stroke-width="0.2"/>
<path d="M39.5789 13.7314C39.1499 13.4209 38.3934 13.261 38.8001 15.1052C39.3878 15.1359 40.9527 14.5103 39.5789 13.7314Z" fill="#614142"/>
<circle cx="39.2413" cy="10.4135" r="0.5" transform="rotate(29.5515 39.2413 10.4135)" fill="#874221" stroke="#282828" stroke-width="0.579247"/>
<circle cx="39.2414" cy="10.4135" r="0.43868" transform="rotate(29.5515 39.2414 10.4135)" fill="#030020"/>
<circle cx="39.4807" cy="10.3474" r="0.263208" transform="rotate(29.5515 39.4807 10.3474)" fill="white"/>
<circle cx="42.7647" cy="12.9154" r="0.5" transform="rotate(29.5515 42.7647 12.9154)" fill="#874221" stroke="#282828" stroke-width="0.403775"/>
<circle cx="42.7648" cy="12.9154" r="0.350944" transform="rotate(29.5515 42.7648 12.9154)" fill="#030020"/>
<circle cx="43.0038" cy="12.8493" r="0.175472" transform="rotate(29.5515 43.0038 12.8493)" fill="white"/>
<defs>
<linearGradient id="paint0_linear" x1="44.6063" y1="84.5586" x2="37.8719" y2="1.26598" gradientUnits="userSpaceOnUse">
<stop stop-color="white" stop-opacity="0.23"/>
<stop offset="1" stop-color="white" stop-opacity="0"/>
</linearGradient>
</defs>
</svg>
