<svg width="69" height="73" viewBox="0 0 69 73" fill="none" xmlns="http://www.w3.org/2000/svg">
<path d="M6.65011 34.9937C12.4203 35.0986 18.0552 38.7494 20.1513 40.5618C20.22 40.906 20.5285 42.3286 21.2132 45.265C23.2307 51.405 29.2423 53.6314 31.9959 53.9772C22.6476 65.9193 8.39393 41.8739 6.65011 34.9937Z" fill="#B75800"/>
<ellipse cx="40.7574" cy="38.9309" rx="15.9426" ry="19.516" transform="rotate(-22.5883 40.7574 38.9309)" fill="#282828"/>
<path d="M30.083 53.4936C17.1872 49.6891 19.5499 33.9595 22.3115 26.5835L46.029 16.7166C62.4458 29.1636 63.3713 38.0076 58.7641 43.5713C54.1569 49.1349 49.1836 47.5569 47.0299 42.201C45.3069 37.9163 49.9025 34.8533 52.4156 33.8574C49.4509 26.8739 45.4415 26.3637 43.7567 26.9654C39.2759 33.3695 34.7421 30.3434 30.6232 32.4292C27.328 34.0977 28.848 40.3872 30.0199 43.3233C36.3471 41.6437 38.9705 43.9661 39.4913 45.3372C41.7284 49.6413 42.9788 57.2982 30.083 53.4936Z" fill="#282828" stroke="#B75800"/>
<path d="M20.1511 40.5617C20.4573 38.2868 26.4032 34.9781 29.3378 33.6081C33.411 32.2864 42.3171 29.1032 45.3559 26.9442C49.1545 24.2455 53.3315 26.758 55.8105 25.7266C50.3233 19.4195 46.357 16.9834 45.0598 16.5537C38.6718 18.7638 25.3809 23.6668 23.3209 25.5975C20.7458 28.011 20.2013 35.8432 20.1511 40.5617Z" fill="#B75800"/>
<circle cx="21.8353" cy="15.9896" r="5.22259" transform="rotate(-22.5883 21.8353 15.9896)" fill="white"/>
<circle cx="38.5856" cy="9.02137" r="5.22259" transform="rotate(-22.5883 38.5856 9.02137)" fill="white"/>
<circle cx="34.1539" cy="21.8057" r="12.3503" transform="rotate(-22.5883 34.1539 21.8057)" fill="#B75800" stroke="#282828"/>
<circle cx="36.901" cy="28.5126" r="5.22259" transform="rotate(-22.5883 36.901 28.5126)" fill="white"/>
<circle cx="30.8555" cy="18.4366" r="1.03268" transform="rotate(-22.5883 30.8555 18.4366)" fill="white"/>
<circle cx="34.2879" cy="17.0086" r="1.03268" transform="rotate(-22.5883 34.2879 17.0086)" fill="white"/>
<path d="M37.2 28.9489C38.3006 30.0059 40.7985 31.1382 41.9846 27.2109" stroke="#282828"/>
<path d="M37.2 28.9489C37.1434 30.4874 36.0923 33.0961 32.3407 31.2229" stroke="#282828"/>
<path d="M37.944 27.9642C37.5751 28.6797 36.7444 29.0252 35.977 28.7825C34.508 28.3179 34.418 26.2732 35.8406 25.6814C37.2631 25.0896 38.65 26.5948 37.944 27.9642Z" fill="#282828"/>
<circle cx="29.3644" cy="22.4587" r="2.04257" transform="rotate(-22.5883 29.3644 22.4587)" fill="#B75800" stroke="white"/>
<circle cx="37.9933" cy="18.8688" r="2.04257" transform="rotate(-22.5883 37.9933 18.8688)" fill="#B75800" stroke="white"/>
<path d="M40.2829 53.5476C41.9419 54.4572 43.1854 55.7034 43.8667 56.9595C44.5509 58.221 44.6401 59.4262 44.1381 60.3417C43.6362 61.2572 42.5722 61.8302 41.1406 61.9318C39.7153 62.0329 37.9959 61.6547 36.3369 60.7452C34.6779 59.8356 33.4344 58.5894 32.7531 57.3334C32.0689 56.0719 31.9797 54.8666 32.4816 53.9511C32.9836 53.0356 34.0476 52.4626 35.4791 52.361C36.9045 52.2599 38.6239 52.6381 40.2829 53.5476Z" fill="#282828" stroke="#B75800"/>
<path d="M52.1315 48.6183C51.6071 50.4362 51.6145 52.1967 52.0251 53.5653C52.4375 54.9399 53.2295 55.8527 54.2327 56.1421C55.2359 56.4315 56.3924 56.0807 57.4735 55.1369C58.55 54.1972 59.4938 52.711 60.0182 50.8932C60.5425 49.0754 60.5352 47.3148 60.1245 45.9462C59.7121 44.5716 58.9201 43.6588 57.9169 43.3694C56.9137 43.0801 55.7572 43.4309 54.6761 44.3747C53.5996 45.3143 52.6558 46.8005 52.1315 48.6183Z" fill="#282828" stroke="#B75800"/>
<path d="M31.2599 33.9269C30.3836 32.6809 29.8594 28.7681 29.9768 27.0788C28.6313 27.7877 25.5686 28.9574 25.0341 30.2535C26.8282 32.4152 29.5284 33.5288 31.2599 33.9269Z" fill="white"/>
<path d="M44.7992 28.2944C44.5331 26.7945 42.1274 23.6644 40.8464 22.5569C42.2977 22.1022 45.2863 20.7545 46.5824 21.289C46.851 24.0854 45.7374 26.7856 44.7992 28.2944Z" fill="white"/>
</svg>
