<svg width="90" height="97" viewBox="0 0 90 97" fill="none" xmlns="http://www.w3.org/2000/svg">
<mask id="path-1-inside-1" fill="white">
<path fill-rule="evenodd" clip-rule="evenodd" d="M31.8449 55.3414L30.3225 55.6927L28.6097 56.2197L26.7067 56.8345C26.7067 56.8345 26.6388 57.0462 26.5598 57.098C25.3066 57.8752 25.3066 57.8752 25.3066 57.8752C24.7042 58.1315 24.1377 58.5912 24.1377 58.5912L23.4766 59.733L22.5616 60.8748C10.576 53.0733 7.59907 34.8102 10.5894 17.4906C11.7832 10.5761 23.5349 7.58316 16.6141 0.563057C14.9786 -1.09587 11.2117 1.28812 10.1319 2.85054C6.57516 7.99693 4.64255 12.9156 4.64255 12.9156C4.64255 12.9156 0.936624 23.3376 2.35434 34.4182C3.75472 45.3632 8.8068 54.9852 12.4196 59.5807C12.447 59.6156 13.9257 61.6056 13.9565 61.6416C14.7505 62.568 16.5371 64.6133 16.5371 64.6133L18.9016 67.4827L18.8092 68.6918L18.5238 70.5363V71.6781L18.4286 74.6644L18.5238 76.5088L18.6189 78.9681L18.9044 80.5491L19.0947 82.3057L19.285 83.8867L19.6656 85.6433L18.5238 85.292L16.2402 84.6772H14.7177L13.1002 84.765L11.8632 85.3798L10.8166 86.346L10.0554 87.2243L9.57961 88.4539L9.38931 90.0349L9.29416 92.4063L9.48446 93.7238L10.436 95.2169L11.1972 95.8318L12.2438 96.2709L13.9565 96.7101L16.4305 96.8857L18.1432 96.7979L20.6171 96.6222L23.2813 96.0953L26.0407 95.4804L26.6791 95.8318H27.2776H28.5091L30.7966 95.3926L34.3084 95.1291L36.7441 94.9328L40.6939 94.7778L49.1623 94.4265L50.9702 94.5143L53.4441 94.4265L55.8229 94.5143L64.2913 95.2169L67.4313 95.6561L69.4294 95.9196L70.6664 96.0953L71.9985 95.8318L72.7597 95.3926L75.9948 96.0953L78.2785 96.4466L80.9427 96.7101L83.2263 96.7979H85.2245L87.1275 96.2709L88.3644 95.6561L89.3159 94.6021L89.7917 93.4603L89.982 92.1428L89.7917 89.2444L89.1256 87.1364L87.9838 85.7311L86.842 85.0285L85.5099 84.6772H84.1778L82.4651 84.765L81.2281 85.2041L79.6106 85.6433L79.896 84.0623L80.5621 79.9343L80.7524 76.3332L80.8475 72.8199L80.6572 70.2728L79.8009 66.1447L78.4688 63.0706L77.5173 61.2262L75.5191 58.9425L73.9967 57.8007L71.1422 56.3076L67.3361 55.5171L66.7652 55.9562L63.8155 57.2737L59.1532 57.8885L59.058 58.5912L58.4871 62.368L57.6308 64.8273L56.4889 67.023L55.1568 68.604L54.1102 69.5702L52.8732 70.3606L50.4944 70.8876H49.0672L47.2593 70.6241L45.9272 69.9215L43.8339 68.1648L42.6921 66.3204L41.8357 64.1246L41.0745 60.8748L40.7891 57.8885L38.3151 57.7129L34.8897 57.098L32.6061 56.0441L31.8449 55.3414Z"/>
</mask>
<path fill-rule="evenodd" clip-rule="evenodd" d="M31.8449 55.3414L30.3225 55.6927L28.6097 56.2197L26.7067 56.8345C26.7067 56.8345 26.6388 57.0462 26.5598 57.098C25.3066 57.8752 25.3066 57.8752 25.3066 57.8752C24.7042 58.1315 24.1377 58.5912 24.1377 58.5912L23.4766 59.733L22.5616 60.8748C10.576 53.0733 7.59907 34.8102 10.5894 17.4906C11.7832 10.5761 23.5349 7.58316 16.6141 0.563057C14.9786 -1.09587 11.2117 1.28812 10.1319 2.85054C6.57516 7.99693 4.64255 12.9156 4.64255 12.9156C4.64255 12.9156 0.936624 23.3376 2.35434 34.4182C3.75472 45.3632 8.8068 54.9852 12.4196 59.5807C12.447 59.6156 13.9257 61.6056 13.9565 61.6416C14.7505 62.568 16.5371 64.6133 16.5371 64.6133L18.9016 67.4827L18.8092 68.6918L18.5238 70.5363V71.6781L18.4286 74.6644L18.5238 76.5088L18.6189 78.9681L18.9044 80.5491L19.0947 82.3057L19.285 83.8867L19.6656 85.6433L18.5238 85.292L16.2402 84.6772H14.7177L13.1002 84.765L11.8632 85.3798L10.8166 86.346L10.0554 87.2243L9.57961 88.4539L9.38931 90.0349L9.29416 92.4063L9.48446 93.7238L10.436 95.2169L11.1972 95.8318L12.2438 96.2709L13.9565 96.7101L16.4305 96.8857L18.1432 96.7979L20.6171 96.6222L23.2813 96.0953L26.0407 95.4804L26.6791 95.8318H27.2776H28.5091L30.7966 95.3926L34.3084 95.1291L36.7441 94.9328L40.6939 94.7778L49.1623 94.4265L50.9702 94.5143L53.4441 94.4265L55.8229 94.5143L64.2913 95.2169L67.4313 95.6561L69.4294 95.9196L70.6664 96.0953L71.9985 95.8318L72.7597 95.3926L75.9948 96.0953L78.2785 96.4466L80.9427 96.7101L83.2263 96.7979H85.2245L87.1275 96.2709L88.3644 95.6561L89.3159 94.6021L89.7917 93.4603L89.982 92.1428L89.7917 89.2444L89.1256 87.1364L87.9838 85.7311L86.842 85.0285L85.5099 84.6772H84.1778L82.4651 84.765L81.2281 85.2041L79.6106 85.6433L79.896 84.0623L80.5621 79.9343L80.7524 76.3332L80.8475 72.8199L80.6572 70.2728L79.8009 66.1447L78.4688 63.0706L77.5173 61.2262L75.5191 58.9425L73.9967 57.8007L71.1422 56.3076L67.3361 55.5171L66.7652 55.9562L63.8155 57.2737L59.1532 57.8885L59.058 58.5912L58.4871 62.368L57.6308 64.8273L56.4889 67.023L55.1568 68.604L54.1102 69.5702L52.8732 70.3606L50.4944 70.8876H49.0672L47.2593 70.6241L45.9272 69.9215L43.8339 68.1648L42.6921 66.3204L41.8357 64.1246L41.0745 60.8748L40.7891 57.8885L38.3151 57.7129L34.8897 57.098L32.6061 56.0441L31.8449 55.3414Z" fill="#E3954F"/>
<path d="M4.64255 12.9156C4.22433 12.6416 4.22421 12.6417 4.22406 12.642C4.22397 12.6421 4.22379 12.6424 4.2236 12.6427C4.22322 12.6433 4.22272 12.644 4.22208 12.645C4.22081 12.647 4.21901 12.6497 4.21671 12.6533C4.2121 12.6604 4.20546 12.6707 4.19687 12.6841C4.17969 12.7109 4.15473 12.7501 4.12271 12.8013C4.05868 12.9035 3.96641 13.0534 3.85172 13.2463C3.6224 13.6321 3.3032 14.1908 2.94089 14.8863C2.21698 16.2762 1.3174 18.2195 0.619847 20.4282C-0.765904 24.8159 -1.40019 30.4052 1.95966 34.7251L2.74902 34.1112C-0.29596 30.1961 0.213857 25.0341 1.57342 20.7293C2.24852 18.5917 3.12191 16.7035 3.82779 15.3483C4.18038 14.6714 4.49028 14.1292 4.71134 13.7572C4.82185 13.5713 4.91008 13.4281 4.97027 13.332C5.00036 13.2839 5.02343 13.2476 5.03875 13.2237C5.04642 13.2118 5.05215 13.2029 5.05585 13.1972C5.0577 13.1943 5.05904 13.1923 5.05987 13.191C5.06028 13.1904 5.06056 13.1899 5.06071 13.1897C5.06079 13.1896 5.06081 13.1896 5.06084 13.1895C5.06083 13.1895 5.06078 13.1896 4.64255 12.9156ZM31.8449 55.3414L32.5232 54.6066L32.1349 54.2482L31.62 54.367L31.8449 55.3414ZM30.3225 55.6927L30.0976 54.7183L30.0627 54.7264L30.0284 54.737L30.3225 55.6927ZM28.6097 56.2197L28.3156 55.2639L28.3023 55.2682L28.6097 56.2197ZM26.7067 56.8345L26.3993 55.883L25.9114 56.0406L25.7546 56.5288L26.7067 56.8345ZM26.5598 57.098L27.0868 57.9479L27.0977 57.9412L27.1084 57.9341L26.5598 57.098ZM25.3066 57.8752V56.8752H25.1027L24.915 56.955L25.3066 57.8752ZM24.1377 58.5912L23.5076 57.8147L23.3645 57.9307L23.2722 58.0901L24.1377 58.5912ZM23.4766 59.733L24.2569 60.3583L24.3042 60.2994L24.342 60.2341L23.4766 59.733ZM22.5616 60.8748L22.0161 61.7129L22.7754 62.2072L23.3419 61.5002L22.5616 60.8748ZM10.5894 17.4906L11.5748 17.6607L10.5894 17.4906ZM16.6141 0.563057L15.9019 1.26511L16.6141 0.563057ZM10.1319 2.85054L10.9545 3.41908L10.1319 2.85054ZM4.64255 12.9156L3.71182 12.5499L3.70583 12.5651L3.70035 12.5806L4.64255 12.9156ZM12.4196 59.5807L13.2057 58.9627L12.4196 59.5807ZM16.5371 64.6133L17.3088 63.9773L17.2997 63.9662L17.2902 63.9554L16.5371 64.6133ZM18.9016 67.4827L19.8987 67.5589L19.9293 67.1575L19.6733 66.8468L18.9016 67.4827ZM18.8092 68.6918L19.7975 68.8448L19.8034 68.8066L19.8063 68.768L18.8092 68.6918ZM18.5238 70.5363L17.5355 70.3834L17.5238 70.4594V70.5363H18.5238ZM18.5238 71.6781L19.5233 71.71L19.5238 71.694V71.6781H18.5238ZM18.4286 74.6644L17.4291 74.6325L17.4278 74.6742L17.4299 74.7159L18.4286 74.6644ZM18.5238 76.5088L19.5231 76.4702L19.5224 76.4573L18.5238 76.5088ZM18.6189 78.9681L17.6197 79.0068L17.6224 79.0768L17.6348 79.1458L18.6189 78.9681ZM18.9044 80.5491L19.8986 80.4414L19.8947 80.4062L19.8885 80.3714L18.9044 80.5491ZM19.0947 82.3057L18.1004 82.4134L18.1018 82.4252L19.0947 82.3057ZM19.285 83.8867L18.2921 84.0062L18.2977 84.0527L18.3077 84.0984L19.285 83.8867ZM19.6656 85.6433L19.3715 86.5991L21.0048 87.1016L20.6429 85.4315L19.6656 85.6433ZM18.5238 85.292L18.8179 84.3362L18.8009 84.331L18.7837 84.3264L18.5238 85.292ZM16.2402 84.6772L16.5001 83.7115L16.3724 83.6772H16.2402V84.6772ZM14.7177 84.6772V83.6772H14.6906L14.6635 83.6786L14.7177 84.6772ZM13.1002 84.765L13.046 83.7665L12.8399 83.7776L12.6551 83.8695L13.1002 84.765ZM11.8632 85.3798L11.4181 84.4843L11.29 84.548L11.1849 84.645L11.8632 85.3798ZM10.8166 86.346L10.1383 85.6112L10.0974 85.6489L10.0609 85.691L10.8166 86.346ZM10.0554 87.2243L9.29967 86.5693L9.18559 86.701L9.12273 86.8634L10.0554 87.2243ZM9.57961 88.4539L8.64698 88.0931L8.60175 88.21L8.58678 88.3344L9.57961 88.4539ZM9.38931 90.0349L8.39647 89.9154L8.39171 89.9549L8.39011 89.9948L9.38931 90.0349ZM9.29416 92.4063L8.29496 92.3662L8.29127 92.4582L8.30443 92.5493L9.29416 92.4063ZM9.48446 93.7238L8.49473 93.8668L8.52549 94.0797L8.64114 94.2612L9.48446 93.7238ZM10.436 95.2169L9.59264 95.7543L9.68048 95.8922L9.80763 95.9949L10.436 95.2169ZM11.1972 95.8318L10.5688 96.6097L10.6793 96.6989L10.8103 96.7539L11.1972 95.8318ZM12.2438 96.2709L11.8569 97.193L11.9245 97.2214L11.9954 97.2396L12.2438 96.2709ZM13.9565 96.7101L13.7082 97.6787L13.7956 97.7012L13.8857 97.7076L13.9565 96.7101ZM16.4305 96.8857L16.3596 97.8832L16.4206 97.8876L16.4817 97.8844L16.4305 96.8857ZM18.1432 96.7979L18.1944 97.7966L18.2042 97.7961L18.214 97.7954L18.1432 96.7979ZM20.6171 96.6222L20.6879 97.6197L20.75 97.6153L20.8111 97.6032L20.6171 96.6222ZM23.2813 96.0953L23.4754 97.0762L23.4871 97.0739L23.4988 97.0713L23.2813 96.0953ZM26.0407 95.4804L26.5228 94.6043L26.1919 94.4222L25.8232 94.5044L26.0407 95.4804ZM26.6791 95.8318L26.197 96.7079L26.4221 96.8318H26.6791V95.8318ZM28.5091 95.8318V96.8318H28.6042L28.6976 96.8138L28.5091 95.8318ZM30.7966 95.3926L30.7218 94.3954L30.6645 94.3997L30.6081 94.4105L30.7966 95.3926ZM34.3084 95.1291L34.3832 96.1263L34.3887 96.1259L34.3084 95.1291ZM36.7441 94.9328L36.7049 93.9336L36.6843 93.9344L36.6638 93.936L36.7441 94.9328ZM40.6939 94.7778L40.7331 95.777L40.7354 95.7769L40.6939 94.7778ZM49.1623 94.4265L49.2109 93.4276L49.1659 93.4254L49.1209 93.4273L49.1623 94.4265ZM50.9702 94.5143L50.9217 95.5131L50.9637 95.5152L51.0057 95.5137L50.9702 94.5143ZM53.4441 94.4265L53.481 93.4271L53.4448 93.4258L53.4086 93.4271L53.4441 94.4265ZM55.8229 94.5143L55.9056 93.5177L55.8827 93.5158L55.8598 93.515L55.8229 94.5143ZM64.2913 95.2169L64.4298 94.2266L64.402 94.2227L64.374 94.2204L64.2913 95.2169ZM67.4313 95.6561L67.2928 96.6465L67.3005 96.6475L67.4313 95.6561ZM69.4294 95.9196L69.57 94.9295L69.5602 94.9282L69.4294 95.9196ZM70.6664 96.0953L70.5258 97.0853L70.6939 97.1092L70.8604 97.0762L70.6664 96.0953ZM71.9985 95.8318L72.1926 96.8127L72.3549 96.7806L72.4982 96.6979L71.9985 95.8318ZM72.7597 95.3926L72.972 94.4154L72.5945 94.3334L72.26 94.5264L72.7597 95.3926ZM75.9948 96.0953L75.7826 97.0725L75.8125 97.079L75.8428 97.0836L75.9948 96.0953ZM78.2785 96.4466L78.1264 97.435L78.1531 97.4391L78.18 97.4417L78.2785 96.4466ZM80.9427 96.7101L80.8443 97.7052L80.8742 97.7082L80.9042 97.7093L80.9427 96.7101ZM83.2263 96.7979L83.1879 97.7972L83.2071 97.7979H83.2263V96.7979ZM85.2245 96.7979V97.7979H85.3604L85.4913 97.7616L85.2245 96.7979ZM87.1275 96.2709L87.3943 97.2346L87.4867 97.2091L87.5726 97.1664L87.1275 96.2709ZM88.3644 95.6561L88.8095 96.5516L88.9795 96.4671L89.1067 96.3262L88.3644 95.6561ZM89.3159 94.6021L90.0582 95.2722L90.1731 95.145L90.239 94.9867L89.3159 94.6021ZM89.7917 93.4603L90.7148 93.8449L90.7634 93.7283L90.7814 93.6033L89.7917 93.4603ZM89.982 92.1428L90.9717 92.2858L90.9867 92.182L90.9799 92.0773L89.982 92.1428ZM89.7917 89.2444L90.7896 89.1789L90.7816 89.0583L90.7452 88.9431L89.7917 89.2444ZM89.1256 87.1364L90.0792 86.8351L90.0218 86.6536L89.9018 86.5058L89.1256 87.1364ZM87.9838 85.7311L88.7599 85.1005L88.6527 84.9686L88.5079 84.8795L87.9838 85.7311ZM86.842 85.0285L87.3661 84.1768L87.2401 84.0993L87.097 84.0615L86.842 85.0285ZM85.5099 84.6772L85.7649 83.7102L85.6396 83.6772H85.5099V84.6772ZM84.1778 84.6772V83.6772H84.1522L84.1266 83.6785L84.1778 84.6772ZM82.4651 84.765L82.4139 83.7663L82.2681 83.7738L82.1305 83.8226L82.4651 84.765ZM81.2281 85.2041L81.4901 86.1692L81.5268 86.1592L81.5627 86.1465L81.2281 85.2041ZM79.6106 85.6433L78.6265 85.4656L78.3453 87.023L79.8726 86.6084L79.6106 85.6433ZM79.896 84.0623L80.8801 84.24L80.8818 84.2309L80.8832 84.2216L79.896 84.0623ZM80.5621 79.9343L81.5493 80.0936L81.5578 80.0406L81.5607 79.987L80.5621 79.9343ZM80.7524 76.3332L81.751 76.3859L81.7517 76.3731L81.752 76.3603L80.7524 76.3332ZM80.8475 72.8199L81.8472 72.847L81.8485 72.7961L81.8447 72.7454L80.8475 72.8199ZM80.6572 70.2728L81.6544 70.1983L81.6496 70.1334L81.6364 70.0697L80.6572 70.2728ZM79.8009 66.1447L80.78 65.9416L80.7592 65.8412L80.7184 65.7471L79.8009 66.1447ZM78.4688 63.0706L79.3863 62.673L79.3729 62.6421L79.3575 62.6122L78.4688 63.0706ZM77.5173 61.2262L78.406 60.7677L78.3501 60.6594L78.2698 60.5677L77.5173 61.2262ZM75.5191 58.9425L76.2717 58.284L76.2028 58.2053L76.1191 58.1425L75.5191 58.9425ZM73.9967 57.8007L74.5967 57.0007L74.5319 56.9521L74.4602 56.9146L73.9967 57.8007ZM71.1422 56.3076L71.6056 55.4215L71.4821 55.3568L71.3455 55.3285L71.1422 56.3076ZM67.3361 55.5171L67.5395 54.538L67.0902 54.4447L66.7264 54.7244L67.3361 55.5171ZM66.7652 55.9562L67.173 56.8693L67.2811 56.821L67.3749 56.7489L66.7652 55.9562ZM63.8155 57.2737L63.9463 58.2651L64.0905 58.2461L64.2234 58.1868L63.8155 57.2737ZM59.1532 57.8885L59.0224 56.8971L58.2648 56.997L58.1622 57.7543L59.1532 57.8885ZM59.058 58.5912L60.0468 58.7407L60.0479 58.733L60.049 58.7254L59.058 58.5912ZM58.4871 62.368L59.4315 62.6968L59.462 62.6092L59.4759 62.5174L58.4871 62.368ZM57.6308 64.8273L58.518 65.2886L58.5513 65.2244L58.5751 65.1561L57.6308 64.8273ZM56.4889 67.023L57.2537 67.6674L57.325 67.5827L57.3762 67.4844L56.4889 67.023ZM55.1568 68.604L55.8351 69.3388L55.8812 69.2963L55.9216 69.2484L55.1568 68.604ZM54.1102 69.5702L54.6487 70.4128L54.7233 70.3651L54.7884 70.305L54.1102 69.5702ZM52.8732 70.3606L53.0895 71.337L53.2624 71.2987L53.4117 71.2033L52.8732 70.3606ZM50.4944 70.8876V71.8876H50.6039L50.7107 71.864L50.4944 70.8876ZM49.0672 70.8876L48.923 71.8772L48.9947 71.8876H49.0672V70.8876ZM47.2593 70.6241L46.7928 71.5086L46.9449 71.5889L47.1151 71.6137L47.2593 70.6241ZM45.9272 69.9215L45.2844 70.6875L45.3662 70.7562L45.4607 70.806L45.9272 69.9215ZM43.8339 68.1648L42.9836 68.6912L43.0681 68.8277L43.1911 68.9309L43.8339 68.1648ZM42.6921 66.3204L41.7604 66.6837L41.7937 66.769L41.8418 66.8467L42.6921 66.3204ZM41.8357 64.1246L40.8621 64.3527L40.8783 64.4218L40.9041 64.4879L41.8357 64.1246ZM41.0745 60.8748L40.079 60.97L40.0855 61.0372L40.1009 61.1029L41.0745 60.8748ZM40.7891 57.8885L41.7845 57.7934L41.704 56.951L40.8599 56.891L40.7891 57.8885ZM38.3151 57.7129L38.1385 58.6971L38.191 58.7066L38.2443 58.7104L38.3151 57.7129ZM34.8897 57.098L34.4706 58.006L34.587 58.0597L34.713 58.0823L34.8897 57.098ZM32.6061 56.0441L31.9278 56.7789L32.0438 56.8859L32.187 56.952L32.6061 56.0441ZM13.9565 61.6416L14.7159 60.9909L13.9565 61.6416ZM2.35434 34.4182L1.36243 34.5451L2.35434 34.4182ZM31.62 54.367L30.0976 54.7183L30.5473 56.6671L32.0697 56.3158L31.62 54.367ZM30.0284 54.737L28.3157 55.264L28.9038 57.1755L30.6166 56.6485L30.0284 54.737ZM28.3023 55.2682L26.3993 55.883L27.0142 57.7861L28.9172 57.1713L28.3023 55.2682ZM26.7067 56.8345C25.7546 56.5288 25.7547 56.5287 25.7547 56.5285C25.7547 56.5285 25.7548 56.5284 25.7548 56.5283C25.7548 56.5281 25.7549 56.528 25.7549 56.5278C25.755 56.5275 25.7551 56.5272 25.7552 56.5269C25.7554 56.5263 25.7556 56.5258 25.7558 56.5253C25.7561 56.5243 25.7564 56.5235 25.7566 56.5228C25.757 56.5214 25.7573 56.5206 25.7574 56.5203C25.7576 56.5197 25.7573 56.5207 25.7565 56.5228C25.7545 56.5282 25.7526 56.5329 25.7518 56.5347C25.7494 56.5399 25.7564 56.5229 25.7754 56.4934C25.7815 56.484 25.854 56.3651 26.0112 56.262L27.1084 57.9341C27.305 57.8051 27.4157 57.6403 27.4567 57.5766C27.5107 57.4928 27.5495 57.4132 27.574 57.359C27.6 57.3014 27.62 57.25 27.6333 57.214C27.6401 57.1955 27.6457 57.1796 27.6499 57.1672C27.652 57.161 27.6539 57.1556 27.6553 57.1511C27.6561 57.1488 27.6567 57.1468 27.6573 57.145C27.6576 57.1441 27.6579 57.1433 27.6582 57.1425C27.6583 57.1421 27.6584 57.1417 27.6585 57.1414C27.6586 57.1412 27.6586 57.141 27.6587 57.1408C27.6587 57.1407 27.6588 57.1406 27.6588 57.1406C27.6588 57.1404 27.6589 57.1403 26.7067 56.8345ZM26.0328 56.2482C25.4062 56.6367 25.0929 56.831 24.9362 56.9282C24.8579 56.9767 24.8188 57.001 24.7992 57.0132C24.7894 57.0192 24.7845 57.0223 24.782 57.0238C24.7808 57.0245 24.7802 57.0249 24.7799 57.0251C24.7798 57.0252 24.7797 57.0252 24.7797 57.0252C24.7797 57.0253 24.7797 57.0252 24.7797 57.0252C24.7797 57.0252 24.7798 57.0252 24.7799 57.0251C24.7799 57.0251 24.78 57.0251 24.7801 57.025C24.7803 57.0249 24.7805 57.0247 24.7807 57.0246C25.0332 56.9133 25.3066 56.8752 25.3066 57.8752C25.3066 58.8752 25.58 58.8371 25.8325 58.7257C25.8327 58.7256 25.8329 58.7254 25.8331 58.7254C25.8332 58.7253 25.8333 58.7252 25.8333 58.7252C25.8334 58.7252 25.8335 58.7251 25.8335 58.7251C25.8335 58.7251 25.8336 58.7251 25.8336 58.725C25.8336 58.725 25.8337 58.725 25.8339 58.7249C25.8342 58.7247 25.8348 58.7243 25.836 58.7235C25.8385 58.722 25.8434 58.719 25.8532 58.7129C25.8728 58.7007 25.9119 58.6765 25.9903 58.6279C26.1469 58.5307 26.4602 58.3365 27.0868 57.9479L26.0328 56.2482ZM24.915 56.955C24.5302 57.1188 24.1779 57.3371 23.9353 57.5014C23.8107 57.5859 23.7073 57.6613 23.6339 57.7166C23.5971 57.7444 23.5675 57.7673 23.5461 57.784C23.5354 57.7924 23.5268 57.7993 23.5203 57.8044C23.5171 57.807 23.5144 57.8091 23.5123 57.8109C23.5112 57.8117 23.5103 57.8125 23.5095 57.8131C23.5091 57.8134 23.5088 57.8137 23.5084 57.814C23.5083 57.8141 23.5081 57.8142 23.508 57.8143C23.5079 57.8144 23.5078 57.8145 23.5078 57.8145C23.5077 57.8146 23.5076 57.8147 24.1377 58.5912C24.7677 59.3677 24.7677 59.3678 24.7676 59.3679C24.7675 59.3679 24.7675 59.368 24.7674 59.368C24.7673 59.3681 24.7672 59.3682 24.7671 59.3682C24.7669 59.3684 24.7668 59.3685 24.7666 59.3686C24.7664 59.3688 24.7663 59.3689 24.7663 59.3689C24.7664 59.3688 24.7669 59.3684 24.768 59.3675C24.7701 59.3658 24.7743 59.3625 24.7803 59.3578C24.7922 59.3484 24.8116 59.3334 24.8373 59.3141C24.8889 59.2752 24.9648 59.2197 25.0571 59.1572C25.2484 59.0276 25.4806 58.8879 25.6981 58.7953L24.915 56.955ZM23.2722 58.0901L22.6112 59.232L24.342 60.2341L25.0031 59.0922L23.2722 58.0901ZM22.6962 59.1077L21.7812 60.2495L23.3419 61.5002L24.2569 60.3583L22.6962 59.1077ZM11.5748 17.6607C11.8284 16.192 12.6528 14.8737 13.7687 13.5645C14.3241 12.9129 14.9333 12.2841 15.5584 11.6478C16.1752 11.0201 16.8153 10.3772 17.3908 9.73223C18.5227 8.46384 19.5719 7.01279 19.7546 5.30357C19.9451 3.52245 19.1773 1.73868 17.3262 -0.138996L15.9019 1.26511C17.5112 2.89748 17.8698 4.12037 17.766 5.0909C17.6545 6.13333 16.9888 7.17894 15.8986 8.40061C15.3631 9.00065 14.7654 9.6012 14.1317 10.2462C13.5064 10.8827 12.8526 11.5561 12.2466 12.2671C11.0395 13.6832 9.94729 15.3319 9.60396 17.3205L11.5748 17.6607ZM17.3262 -0.138996C16.6746 -0.799978 15.8365 -1.01825 15.0387 -0.9988C14.2578 -0.979763 13.4628 -0.736075 12.7499 -0.411142C11.3448 0.229288 9.97436 1.31958 9.30923 2.282L10.9545 3.41908C11.3692 2.81908 12.4222 1.93617 13.5793 1.40873C14.1476 1.14973 14.6684 1.01082 15.0875 1.00061C15.4898 0.9908 15.7358 1.09663 15.9019 1.26511L17.3262 -0.138996ZM9.30923 2.282C7.49604 4.90558 6.09989 7.46627 5.15735 9.3691C4.68558 10.3215 4.32616 11.1118 4.08384 11.6661C3.96265 11.9433 3.87066 12.1616 3.80848 12.312C3.77738 12.3871 3.75373 12.4453 3.7376 12.4853C3.72953 12.5054 3.72335 12.5208 3.71905 12.5317C3.7169 12.5371 3.71522 12.5413 3.71401 12.5443C3.71341 12.5459 3.71293 12.5471 3.71256 12.548C3.71238 12.5485 3.71223 12.5489 3.7121 12.5492C3.71204 12.5493 3.71197 12.5495 3.71194 12.5496C3.71188 12.5498 3.71182 12.5499 4.64255 12.9156C5.57329 13.2813 5.57325 13.2814 5.57321 13.2815C5.57321 13.2815 5.57318 13.2816 5.57318 13.2816C5.57318 13.2816 5.5732 13.2815 5.57325 13.2814C5.57336 13.2811 5.57358 13.2805 5.57392 13.2797C5.5746 13.278 5.57575 13.2751 5.57737 13.271C5.5806 13.2629 5.5857 13.2501 5.59265 13.2329C5.60657 13.1983 5.62791 13.1458 5.65661 13.0764C5.714 12.9377 5.80079 12.7316 5.91636 12.4672C6.14755 11.9384 6.49358 11.1773 6.94954 10.2568C7.86249 8.41373 9.211 5.94189 10.9545 3.41908L9.30923 2.282ZM15.7653 65.2492L18.1298 68.1187L19.6733 66.8468L17.3088 63.9773L15.7653 65.2492ZM17.9045 67.4066L17.8121 68.6157L19.8063 68.768L19.8987 67.5589L17.9045 67.4066ZM17.821 68.5389L17.5355 70.3834L19.512 70.6892L19.7975 68.8448L17.821 68.5389ZM17.5238 70.5363V71.6781H19.5238V70.5363H17.5238ZM17.5243 71.6463L17.4291 74.6325L19.4281 74.6962L19.5233 71.71L17.5243 71.6463ZM17.4299 74.7159L17.5251 76.5604L19.5224 76.4573L19.4273 74.6129L17.4299 74.7159ZM17.5245 76.5475L17.6197 79.0068L19.6182 78.9295L19.523 76.4702L17.5245 76.5475ZM17.6348 79.1458L17.9203 80.7268L19.8885 80.3714L19.603 78.7904L17.6348 79.1458ZM17.9102 80.6568L18.1005 82.4134L20.0889 82.198L19.8986 80.4414L17.9102 80.6568ZM18.1018 82.4252L18.2921 84.0062L20.2778 83.7672L20.0875 82.1862L18.1018 82.4252ZM18.3077 84.0984L18.6883 85.8551L20.6429 85.4315L20.2623 83.6749L18.3077 84.0984ZM19.9597 84.6875L18.8179 84.3362L18.2297 86.2477L19.3715 86.5991L19.9597 84.6875ZM18.7837 84.3264L16.5001 83.7115L15.9802 85.6428L18.2638 86.2576L18.7837 84.3264ZM16.2402 83.6772H14.7177V85.6772H16.2402V83.6772ZM14.6635 83.6786L13.046 83.7665L13.1544 85.7635L14.772 85.6757L14.6635 83.6786ZM12.6551 83.8695L11.4181 84.4843L12.3083 86.2753L13.5453 85.6605L12.6551 83.8695ZM11.1849 84.645L10.1383 85.6112L11.4948 87.0808L12.5415 86.1146L11.1849 84.645ZM10.0609 85.691L9.29967 86.5693L10.811 87.8792L11.5723 87.0009L10.0609 85.691ZM9.12273 86.8634L8.64698 88.0931L10.5122 88.8148L10.988 87.5851L9.12273 86.8634ZM8.58678 88.3344L8.39647 89.9154L10.3821 90.1544L10.5724 88.5734L8.58678 88.3344ZM8.39011 89.9948L8.29496 92.3662L10.2934 92.4464L10.3885 90.075L8.39011 89.9948ZM8.30443 92.5493L8.49473 93.8668L10.4742 93.5808L10.2839 92.2634L8.30443 92.5493ZM8.64114 94.2612L9.59264 95.7543L11.2793 94.6795L10.3278 93.1864L8.64114 94.2612ZM9.80763 95.9949L10.5688 96.6097L11.8255 95.0538L11.0643 94.439L9.80763 95.9949ZM10.8103 96.7539L11.8569 97.193L12.6307 95.3488L11.5841 94.9096L10.8103 96.7539ZM11.9954 97.2396L13.7082 97.6787L14.2049 95.7414L12.4922 95.3022L11.9954 97.2396ZM13.8857 97.7076L16.3596 97.8832L16.5013 95.8882L14.0274 95.7126L13.8857 97.7076ZM16.4817 97.8844L18.1944 97.7966L18.092 95.7992L16.3792 95.887L16.4817 97.8844ZM18.214 97.7954L20.6879 97.6197L20.5463 95.6247L18.0723 95.8004L18.214 97.7954ZM20.8111 97.6032L23.4754 97.0762L23.0873 95.1143L20.423 95.6412L20.8111 97.6032ZM23.4988 97.0713L26.2582 96.4565L25.8232 94.5044L23.0638 95.1192L23.4988 97.0713ZM25.5586 96.3565L26.197 96.7079L27.1612 94.9557L26.5228 94.6043L25.5586 96.3565ZM26.6791 96.8318H27.2776V94.8318H26.6791V96.8318ZM27.2776 96.8318H28.5091V94.8318H27.2776V96.8318ZM28.6976 96.8138L30.9852 96.3747L30.6081 94.4105L28.3206 94.8497L28.6976 96.8138ZM30.8714 96.3898L34.3832 96.1263L34.2336 94.1319L30.7218 94.3954L30.8714 96.3898ZM34.3887 96.1259L36.8245 95.9296L36.6638 93.936L34.2281 94.1323L34.3887 96.1259ZM36.7834 95.932L40.7331 95.777L40.6547 93.7785L36.7049 93.9336L36.7834 95.932ZM40.7354 95.7769L49.2038 95.4256L49.1209 93.4273L40.6525 93.7786L40.7354 95.7769ZM49.1138 95.4253L50.9217 95.5131L51.0187 93.5155L49.2109 93.4276L49.1138 95.4253ZM51.0057 95.5137L53.4796 95.4258L53.4086 93.4271L50.9347 93.5149L51.0057 95.5137ZM53.4072 95.4258L55.786 95.5136L55.8598 93.515L53.481 93.4271L53.4072 95.4258ZM55.7402 95.5109L64.2086 96.2135L64.374 94.2204L55.9056 93.5177L55.7402 95.5109ZM64.1528 96.2073L67.2928 96.6464L67.5698 94.6657L64.4298 94.2266L64.1528 96.2073ZM67.3005 96.6475L69.2987 96.911L69.5602 94.9282L67.562 94.6647L67.3005 96.6475ZM69.2888 96.9097L70.5258 97.0853L70.807 95.1052L69.57 94.9295L69.2888 96.9097ZM70.8604 97.0762L72.1926 96.8127L71.8045 94.8508L70.4724 95.1143L70.8604 97.0762ZM72.4982 96.6979L73.2594 96.2588L72.26 94.5264L71.4988 94.9656L72.4982 96.6979ZM72.5475 96.3698L75.7826 97.0725L76.2071 95.118L72.972 94.4154L72.5475 96.3698ZM75.8428 97.0836L78.1264 97.435L78.4305 95.4582L76.1469 95.1069L75.8428 97.0836ZM78.18 97.4417L80.8443 97.7052L81.0411 95.7149L78.3769 95.4514L78.18 97.4417ZM80.9042 97.7093L83.1879 97.7972L83.2647 95.7986L80.9811 95.7108L80.9042 97.7093ZM83.2263 97.7979H85.2245V95.7979H83.2263V97.7979ZM85.4913 97.7616L87.3943 97.2346L86.8606 95.3072L84.9576 95.8342L85.4913 97.7616ZM87.5726 97.1664L88.8095 96.5516L87.9193 94.7606L86.6824 95.3754L87.5726 97.1664ZM89.1067 96.3262L90.0582 95.2722L88.5737 93.932L87.6222 94.986L89.1067 96.3262ZM90.239 94.9867L90.7148 93.8449L88.8686 93.0757L88.3929 94.2175L90.239 94.9867ZM90.7814 93.6033L90.9717 92.2858L88.9923 91.9999L88.802 93.3174L90.7814 93.6033ZM90.9799 92.0773L90.7896 89.1789L88.7938 89.3099L88.9841 92.2083L90.9799 92.0773ZM90.7452 88.9431L90.0792 86.8351L88.1721 87.4377L88.8382 89.5457L90.7452 88.9431ZM89.9018 86.5058L88.7599 85.1005L87.2077 86.3617L88.3495 87.767L89.9018 86.5058ZM88.5079 84.8795L87.3661 84.1768L86.3179 85.8801L87.4597 86.5828L88.5079 84.8795ZM87.097 84.0615L85.7649 83.7102L85.2549 85.6441L86.587 85.9954L87.097 84.0615ZM85.5099 83.6772H84.1778V85.6772H85.5099V83.6772ZM84.1266 83.6785L82.4139 83.7663L82.5163 85.7637L84.229 85.6758L84.1266 83.6785ZM82.1305 83.8226L80.8936 84.2618L81.5627 86.1465L82.7997 85.7074L82.1305 83.8226ZM80.9661 84.2391L79.3486 84.6782L79.8726 86.6084L81.4901 86.1692L80.9661 84.2391ZM80.5947 85.821L80.8801 84.24L78.9119 83.8847L78.6265 85.4656L80.5947 85.821ZM80.8832 84.2216L81.5493 80.0936L79.5748 79.775L78.9088 83.9031L80.8832 84.2216ZM81.5607 79.987L81.751 76.3859L79.7538 76.2804L79.5635 79.8815L81.5607 79.987ZM81.752 76.3603L81.8472 72.847L79.8479 72.7928L79.7527 76.3061L81.752 76.3603ZM81.8447 72.7454L81.6544 70.1983L79.66 70.3473L79.8503 72.8944L81.8447 72.7454ZM81.6364 70.0697L80.78 65.9416L78.8217 66.3478L79.6781 70.4759L81.6364 70.0697ZM80.7184 65.7471L79.3863 62.673L77.5512 63.4682L78.8833 66.5423L80.7184 65.7471ZM79.3575 62.6122L78.406 60.7677L76.6285 61.6846L77.58 63.5291L79.3575 62.6122ZM78.2698 60.5677L76.2717 58.284L74.7665 59.601L76.7647 61.8847L78.2698 60.5677ZM76.1191 58.1425L74.5967 57.0007L73.3967 58.6007L74.9191 59.7425L76.1191 58.1425ZM74.4602 56.9146L71.6056 55.4215L70.6786 57.1937L73.5332 58.6868L74.4602 56.9146ZM71.3455 55.3285L67.5395 54.538L67.1328 56.4962L70.9388 57.2867L71.3455 55.3285ZM66.7264 54.7244L66.1555 55.1636L67.3749 56.7489L67.9458 56.3097L66.7264 54.7244ZM66.3574 55.0432L63.4077 56.3606L64.2234 58.1868L67.173 56.8693L66.3574 55.0432ZM63.6848 56.2823L59.0224 56.8971L59.2839 58.8799L63.9463 58.2651L63.6848 56.2823ZM58.1622 57.7543L58.0671 58.457L60.049 58.7254L60.1441 58.0227L58.1622 57.7543ZM58.0692 58.4417L57.4983 62.2185L59.4759 62.5174L60.0468 58.7407L58.0692 58.4417ZM57.5427 62.0391L56.6864 64.4984L58.5751 65.1561L59.4315 62.6968L57.5427 62.0391ZM56.7435 64.3659L55.6017 66.5617L57.3762 67.4844L58.518 65.2886L56.7435 64.3659ZM55.7242 66.3787L54.3921 67.9596L55.9216 69.2484L57.2537 67.6674L55.7242 66.3787ZM54.4785 67.8692L53.4319 68.8354L54.7884 70.305L55.8351 69.3388L54.4785 67.8692ZM53.5717 68.7275L52.3347 69.518L53.4117 71.2033L54.6487 70.4128L53.5717 68.7275ZM52.6569 69.3843L50.2782 69.9113L50.7107 71.864L53.0895 71.337L52.6569 69.3843ZM50.4944 69.8876H49.0672V71.8876H50.4944V69.8876ZM49.2114 69.8981L47.4035 69.6346L47.1151 71.6137L48.923 71.8772L49.2114 69.8981ZM47.7259 69.7396L46.3937 69.037L45.4607 70.806L46.7928 71.5086L47.7259 69.7396ZM46.57 69.1555L44.4767 67.3988L43.1911 68.9309L45.2844 70.6875L46.57 69.1555ZM44.6842 67.6385L43.5423 65.794L41.8418 66.8467L42.9836 68.6912L44.6842 67.6385ZM43.6237 65.957L42.7674 63.7613L40.9041 64.4879L41.7604 66.6837L43.6237 65.957ZM42.8094 63.8965L42.0482 60.6468L40.1009 61.1029L40.8621 64.3527L42.8094 63.8965ZM42.07 60.7797L41.7845 57.7934L39.7936 57.9837L40.079 60.97L42.07 60.7797ZM40.8599 56.891L38.386 56.7154L38.2443 58.7104L40.7182 58.886L40.8599 56.891ZM38.4918 56.7286L35.0664 56.1138L34.713 58.0823L38.1385 58.6971L38.4918 56.7286ZM35.3088 56.1901L33.0251 55.1361L32.187 56.952L34.4706 58.006L35.3088 56.1901ZM33.2844 55.3093L32.5232 54.6066L31.1666 56.0762L31.9278 56.7789L33.2844 55.3093ZM11.6334 60.1988C11.6295 60.1938 11.7126 60.3051 11.8648 60.5096C12.0081 60.7019 12.1957 60.9542 12.3847 61.2079C12.5731 61.4611 12.762 61.7147 12.9058 61.9073C13.026 62.0684 13.1603 62.2492 13.1972 62.2923L14.7159 60.9909C14.7374 61.0159 14.6753 60.9345 14.5087 60.7112C14.3657 60.5196 14.1774 60.2667 13.9889 60.0136C13.6223 59.5212 13.2303 58.9939 13.2057 58.9627L11.6334 60.1988ZM13.1972 62.2923C13.5971 62.7589 14.2446 63.5046 14.7903 64.1314C15.0635 64.4453 15.3119 64.7302 15.492 64.9366C15.582 65.0398 15.655 65.1234 15.7054 65.1812C15.7307 65.2101 15.7503 65.2326 15.7636 65.2478C15.7703 65.2555 15.7753 65.2613 15.7788 65.2652C15.7805 65.2672 15.7818 65.2686 15.7826 65.2696C15.7831 65.2701 15.7834 65.2705 15.7836 65.2708C15.7837 65.2709 15.7838 65.271 15.7839 65.271C15.7839 65.2711 15.7839 65.2711 15.7839 65.2711C15.7839 65.2711 15.7839 65.2711 16.5371 64.6133C17.2902 63.9554 17.2902 63.9554 17.2902 63.9553C17.2902 63.9553 17.2901 63.9553 17.2901 63.9553C17.2901 63.9552 17.29 63.9551 17.2899 63.955C17.2897 63.9548 17.2893 63.9544 17.2889 63.9539C17.2881 63.9529 17.2868 63.9515 17.2851 63.9495C17.2817 63.9456 17.2766 63.9399 17.27 63.9323C17.2568 63.9171 17.2372 63.8947 17.2121 63.8659C17.1617 63.8082 17.0889 63.7248 16.9991 63.6218C16.8193 63.4158 16.5714 63.1315 16.2988 62.8183C15.7527 62.1909 15.11 61.4507 14.7159 60.9909L13.1972 62.2923ZM23.1071 60.0367C17.3935 56.3177 13.7613 50.0626 11.9313 42.5163C10.1018 34.9718 10.0974 26.2179 11.5748 17.6607L9.60396 17.3205C8.09109 26.0829 8.07991 35.1204 9.98767 42.9877C11.895 50.8533 15.744 57.6304 22.0161 61.7129L23.1071 60.0367ZM4.64255 12.9156C3.70035 12.5806 3.70026 12.5808 3.70016 12.5811C3.7001 12.5812 3.69999 12.5816 3.69988 12.5819C3.69967 12.5825 3.6994 12.5832 3.69908 12.5842C3.69843 12.586 3.69756 12.5884 3.69647 12.5915C3.69429 12.5977 3.69124 12.6064 3.68735 12.6176C3.67958 12.64 3.66845 12.6723 3.65423 12.7143C3.6258 12.7981 3.58502 12.9205 3.53406 13.079C3.43216 13.396 3.28948 13.8577 3.12339 14.445C2.79134 15.6192 2.36502 17.2977 1.98398 19.3271C1.22336 23.3781 0.635774 28.8657 1.36243 34.5451L3.34626 34.2912C2.65519 28.89 3.21171 23.6263 3.94963 19.6962C4.31786 17.735 4.72941 16.1155 5.04791 14.9893C5.2071 14.4264 5.34288 13.9873 5.4381 13.6911C5.48571 13.543 5.52317 13.4306 5.54833 13.3564C5.56091 13.3193 5.57042 13.2918 5.57658 13.274C5.57966 13.2652 5.5819 13.2587 5.58328 13.2548C5.58396 13.2529 5.58443 13.2516 5.58468 13.2508C5.58481 13.2505 5.58488 13.2503 5.58489 13.2503C5.58489 13.2502 5.58486 13.2503 5.58487 13.2503C5.58482 13.2505 5.58476 13.2506 4.64255 12.9156ZM1.36243 34.5451C2.78801 45.6871 7.92051 55.4759 11.6334 60.1988L13.2057 58.9627C9.69309 54.4946 4.72143 45.0393 3.34626 34.2912L1.36243 34.5451Z" fill="black" mask="url(#path-1-inside-1)"/>
<path d="M65.4496 62.896C65.4496 62.896 65.1223 82.637 60.0308 88.6139C62.5875 86.7624 74.0589 83.7366 73.8162 90.8079C73.5736 97.8792 69.6844 94.9328 67.3969 94.9328C63.8934 94.3583 50.3093 93.5911 49.5557 94.1357V71.586" stroke="black" stroke-linecap="round" stroke-linejoin="round"/>
<path d="M33.2196 62.896C33.2196 62.896 33.5469 82.637 38.6384 88.6139C36.0817 86.7624 24.6103 83.7366 24.853 90.8079C25.0956 97.8792 28.9848 94.9328 31.2723 94.9328C34.7758 94.3583 48.3599 93.5911 49.1135 94.1357V71.586" stroke="black" stroke-linecap="round" stroke-linejoin="round"/>
<path d="M21.1893 11.2101C26.6793 10.1121 36.2868 16.5476 40.4043 19.9026C36.8968 24.1726 29.0583 33.0786 25.7643 34.5426C21.6468 36.3726 14.3267 12.5826 21.1893 11.2101Z" fill="#E3954F" stroke="black"/>
<path d="M78.8342 11.2101C73.3442 10.1121 63.7366 16.5476 59.6191 19.9026C63.1266 24.1726 70.9652 33.0786 74.2592 34.5426C78.3767 36.3726 85.6967 12.5826 78.8342 11.2101Z" fill="#E3954F" stroke="black"/>
<circle cx="50.0116" cy="44.6076" r="26.4926" fill="#E3964F" stroke="black"/>
<circle cx="39.9466" cy="39.1176" r="4.11751" fill="#282828"/>
<circle cx="60.9918" cy="39.1176" r="4.11751" fill="#282828"/>
<path d="M55.8678 61.5352C56.9658 61.3355 57.6063 59.622 57.7893 58.7902C56.6913 59.5887 55.5018 59.1229 55.0443 58.7902C55.3188 59.2893 55.8678 60.537 55.8678 61.5352Z" fill="white"/>
<path d="M45.0707 61.5352C43.9727 61.3355 43.3322 59.622 43.1492 58.7902C44.2472 59.5887 45.4367 59.1229 45.8942 58.7902C45.6197 59.2893 45.0707 60.537 45.0707 61.5352Z" fill="white"/>
<path d="M50.4692 54.2151C52.0064 57.541 56.7205 62.3081 63.2793 54.7694" stroke="#282828"/>
<path d="M50.4692 54.2151C48.932 57.541 44.2179 62.3081 37.6592 54.7694" stroke="#282828"/>
<path d="M51.0877 54.6431C50.7248 54.9288 50.2135 54.9288 49.8506 54.6431L44.0207 50.0533C43.275 49.4662 43.6901 48.2676 44.6393 48.2676L56.299 48.2676C57.2482 48.2676 57.6633 49.4662 56.9176 50.0533L51.0877 54.6431Z" fill="#282828"/>
<path d="M21.1892 15.785C24.0867 16.395 30.8882 18.6215 34.9142 22.6476" stroke="#282828"/>
<path d="M78.834 15.785C75.9365 16.395 69.135 18.6215 65.1089 22.6476" stroke="#282828"/>
<path d="M30.3391 19.4451C28.5091 19.5976 24.5746 20.9091 23.4766 24.9351" stroke="#282828"/>
<path d="M69.6841 19.4451C71.5141 19.5976 75.4486 20.9091 76.5466 24.9351" stroke="#282828"/>
<path d="M44.9792 53.3001C41.55 50.9082 33.8211 46.8421 30.3391 49.7123" stroke="#454545" stroke-width="0.5"/>
<path d="M42.8179 53.9758C39.7336 53.1024 33.1589 52.1243 31.5351 55.1993" stroke="#454545" stroke-width="0.5"/>
<path d="M45.0623 55.8073C42.1289 55.5438 35.8411 55.6758 34.1572 58.3121" stroke="#454545" stroke-width="0.5"/>
<path d="M55.127 53.3001C58.5562 50.9082 66.2851 46.8421 69.7671 49.7123" stroke="#454545" stroke-width="0.5"/>
<path d="M57.2883 53.9758C60.3726 53.1024 66.9473 52.1243 68.5711 55.1993" stroke="#454545" stroke-width="0.5"/>
<path d="M55.0439 55.8073C57.9773 55.5438 64.2651 55.6758 65.949 58.3121" stroke="#454545" stroke-width="0.5"/>
<path d="M19.3591 67.9403C20.4266 65.3478 22.7446 60.9862 23.4766 60.6202" stroke="black"/>
</svg>
