<svg width="53" height="53" viewBox="0 0 53 53" fill="none" xmlns="http://www.w3.org/2000/svg">
<circle cx="26.5" cy="26.5" r="26.5" fill="#F9F9F9"/>
<ellipse cx="26.5001" cy="29.68" rx="24.38" ry="21.9067" fill="#078EC8" fill-opacity="0.37"/>
<path d="M36.3933 10.2466C34.6266 12.0133 31.9269 13.4266 26.8533 13.4266C21.7796 13.4266 17.3134 12.0029 17.3134 10.2466C14.4866 9.53998 21.7796 7.77332 26.8533 7.77332C31.9269 7.77332 39.2199 9.89332 36.3933 10.2466Z" fill="#D5E9F2"/>
<path d="M37.66 7.42C37.66 9.0266 36.5602 10.5691 34.593 11.7371C32.6367 12.8987 29.9014 13.6333 26.8533 13.6333C23.8052 13.6333 21.0699 12.8987 19.1135 11.7371C17.1464 10.5691 16.0466 9.0266 16.0466 7.42C16.0466 5.8134 17.1464 4.27089 19.1135 3.10288C21.0699 1.94128 23.8052 1.20667 26.8533 1.20667C29.9014 1.20667 32.6367 1.94128 34.593 3.10288C36.5602 4.27089 37.66 5.8134 37.66 7.42Z" stroke="#E7E7E7"/>
<path d="M20.4934 35.3332C16.2534 37.8772 13.0734 36.3932 12.0134 35.3332C11.7779 34.9799 11.5187 34.0613 12.3667 33.2132C16.3241 29.8212 19.669 31.7999 20.8467 33.2132C21.2001 32.9777 22.1894 32.3652 23.3201 31.7999C24.4507 33.2132 23.7912 36.1577 23.3201 37.4532C22.7312 36.9821 21.3414 35.8986 20.4934 35.3332Z" fill="#EC6D25"/>
<path d="M16.6067 35.6867C17.3134 35.4512 18.3734 34.8387 16.96 34.2734C17.6667 33.92 18.3734 33.2134 16.6067 33.2134" stroke="#A34A18" stroke-width="0.5"/>
<circle cx="13.7801" cy="33.5667" r="0.353333" fill="#282828"/>
<path d="M36.977 42.1529C32.737 44.6969 29.557 43.2129 28.497 42.1529C28.2615 41.7996 28.0024 40.881 28.8504 40.0329C32.8077 36.6409 36.1526 38.6196 37.3304 40.0329C37.6837 39.7974 38.673 39.1849 39.8037 38.6196C40.9344 40.0329 40.2748 42.9774 39.8037 44.2729C39.2148 43.8018 37.825 42.7183 36.977 42.1529Z" fill="#86AD73"/>
<path d="M33.0906 42.5063C33.7972 42.2707 34.8572 41.6583 33.4439 41.093C34.1506 40.7396 34.8572 40.033 33.0906 40.033" stroke="#416B2C" stroke-width="0.5"/>
<circle cx="30.2637" cy="40.3863" r="0.353333" fill="#282828"/>
<path d="M30.3042 26.6062C34.5442 29.1502 37.7242 27.6662 38.7842 26.6062C39.0198 26.2529 39.2789 25.3342 38.4309 24.4862C34.4735 21.0942 31.1286 23.0728 29.9509 24.4862C29.5975 24.2506 28.6082 23.6382 27.4775 23.0728C26.3469 24.4862 27.0064 27.4306 27.4775 28.7262C28.0664 28.2551 29.4562 27.1715 30.3042 26.6062Z" fill="#EAAECE"/>
<path d="M34.1909 26.9597C33.4843 26.7241 32.4243 26.1117 33.8376 25.5463C33.1309 25.193 32.4243 24.4863 34.1909 24.4863" stroke="#B8608F" stroke-width="0.5"/>
<circle r="0.353333" transform="matrix(-1 0 0 1 37.0175 24.8397)" fill="#282828"/>
</svg>
