<svg width="100" height="43" viewBox="0 0 100 43" fill="none" xmlns="http://www.w3.org/2000/svg">
<path d="M83.9537 8.56746C82.3561 12.7287 74.8243 21.3433 71.4008 24.1722C70.2597 24.811 64.3257 25.4315 66.8362 28.2787C69.3468 31.1259 84.7085 22.8946 89.7932 18.6968C92.5622 19.5368 95.9037 18.8898 98.2183 14.8641C102.783 6.92485 85.9508 3.36588 83.9537 8.56746Z" fill="#225C21"/>
<path d="M84.8096 13.769C84.9502 15.6583 87.1012 17.8803 89.7932 18.6968M89.7932 18.6968C92.5622 19.5368 95.9037 18.8898 98.2183 14.8641C102.783 6.92485 85.9508 3.36588 83.9537 8.56746C82.3561 12.7287 74.8243 21.3433 71.4008 24.1722C70.2597 24.811 64.3257 25.4315 66.8362 28.2787C69.3468 31.1259 84.7085 22.8946 89.7932 18.6968Z" stroke="#397838"/>
<path d="M28.8203 36.4678C24.8068 33.5246 27.4829 31.6739 29.8241 27.103C31.4753 26.3003 34.7105 27.6604 36.1217 28.4408C36.7906 29.7787 35.7872 27.772 35.1183 31.7855C40.4697 31.2503 41.7528 36.0219 42.1988 37.8057C39.4116 38.5861 32.8339 39.4111 28.8203 36.4678Z" fill="#1B461A"/>
<path d="M57.5838 35.7989C53.5703 32.8557 56.2463 31.005 58.5876 26.434C60.2387 25.6313 63.4739 26.9915 64.8851 27.7719C65.554 29.1097 64.5507 27.103 63.8818 31.1165C69.2331 30.5814 70.5162 35.353 70.9622 37.1367C68.175 37.9171 61.5973 38.7421 57.5838 35.7989Z" fill="#1B461A"/>
<path d="M20.1243 38.2294C16.1108 35.2862 18.7869 33.4355 21.1281 28.8646C22.7792 28.0619 26.0144 29.422 27.4257 30.2024C28.0946 31.5403 27.0912 29.5336 26.4223 33.5471C31.7736 33.0119 33.0568 37.7835 33.5027 39.5673C30.7155 40.3477 24.1378 41.1727 20.1243 38.2294Z" fill="#225C21"/>
<path d="M55.352 39.5825C50.7065 37.7962 52.8029 35.3079 53.8619 30.2826C55.2444 29.0746 58.7232 29.5377 60.2898 29.9202C61.2865 31.0355 59.7915 29.3626 60.1997 33.4109C65.2229 31.4896 67.7137 35.757 68.6123 37.3611C66.1278 38.8459 59.9974 41.3688 55.352 39.5825Z" fill="#225C21"/>
<path d="M1.096 22.0645C4.57459 25.3955 7.48999 26.0262 12.0134 23.7203C12.8786 23.6227 15.1304 23.4634 17.2151 23.6075C8.55862 34.582 2.86216 27.1516 1.096 22.0645Z" fill="#225C21"/>
<path d="M8.36149 24.1822C7.82636 20.4362 11.4831 20.3916 13.3784 20.8376L12.0406 22.8444C13.0439 24.1822 22.0743 26.8579 24.4156 27.5268C26.021 28.3295 37.125 28.9761 42.4764 29.1991C45.9325 28.8647 54.1825 27.9951 59.5338 27.1924C65.1527 26.6572 71.2399 24.0707 73.5811 22.8444C73.4696 22.7329 73.1797 22.3092 72.9122 21.5065C74.9189 18.8309 80.2703 21.841 78.2635 24.1822C72.2433 30.8713 48.1622 31.8748 41.473 32.2092C34.7838 32.5437 9.03041 28.8646 8.36149 24.1822Z" fill="#E3954F"/>
<path d="M12.0405 22.8444C21.8513 6.45591 47.8946 -16.488 73.5811 22.8444C68.8986 26.858 31.4392 34.5505 12.0405 22.8444Z" fill="#E3954F"/>
<path d="M34.7837 2.77686C34.7837 3.11132 44.8175 6.79037 49.4999 2.10794C48.4965 1.77348 41.8073 -0.567739 34.7837 2.77686Z" fill="#CE6C12"/>
<path d="M53.8479 27.8613C53.8479 26.8286 40.4695 11.4727 31.4391 28.53C32.777 28.8646 41.1384 29.5336 53.8479 27.8613Z" fill="#CE6C12"/>
<path d="M29.0981 28.1957C29.3405 27.3807 23.171 11.5033 12.0407 22.8444C13.0179 23.4225 18.6758 26.5321 29.0981 28.1957Z" fill="#CE6C12"/>
<path d="M56.8581 27.8613C56.6156 27.0463 62.6684 11.5033 73.7987 22.8444C72.8215 23.4225 67.2803 26.1977 56.8581 27.8613Z" fill="#CE6C12"/>
<path d="M18.7296 14.1485C18.9289 14.4171 29.4324 14.8174 30.1013 4.78363C29.0962 5.11285 23.7467 7.79371 18.7296 14.1485Z" fill="#CE6C12"/>
<path d="M67.0851 14.1485C66.8858 14.4171 56.3823 14.8174 55.7134 4.78363C56.7185 5.11285 62.068 7.79371 67.0851 14.1485Z" fill="#CE6C12"/>
<path d="M12.0405 22.8444C21.8513 6.45591 47.8946 -16.488 73.5811 22.8444C68.8986 26.858 31.4392 34.5505 12.0405 22.8444Z" stroke="#EAAC75"/>
<circle cx="91.9762" cy="10.4694" r="1.6723" fill="#282828"/>
</svg>
