<svg width="56" height="102" viewBox="0 0 56 102" fill="none" xmlns="http://www.w3.org/2000/svg">
<path d="M16.4896 101.19C17.3784 101.19 25.758 90.1445 25.885 89.8906C22.4316 89.5859 17.9286 88.0285 16.1087 87.2244C12.6807 89.3828 5.5453 94.3344 4.42802 96.8737C3.03141 100.048 15.6009 101.19 16.4896 101.19Z" fill="#FCA352"/>
<path d="M39.851 101.19C38.9622 101.19 30.5826 90.1445 30.4556 89.8906C33.909 89.5859 38.412 88.0285 40.2319 87.2244C43.6599 89.3828 50.7953 94.3344 51.9126 96.8737C53.3092 100.048 40.7397 101.19 39.851 101.19Z" fill="#FCA352"/>
<path d="M46.7072 82.5268C31.9793 95.8326 15.4739 88.3248 9.12573 82.7807L10.4369 33.5534L43.2039 32.2427L46.7072 82.5268Z" fill="white" stroke="#272727"/>
<circle cx="28.0435" cy="19.9334" r="19.9334" fill="#272727"/>
<circle cx="20.8065" cy="16.5053" r="3.555" fill="white"/>
<path d="M21.8838 15.428C22.1452 15.6894 22.3026 16.0369 22.3268 16.4057C22.351 16.7746 22.2403 17.1396 22.0152 17.4329C21.7902 17.7261 21.4663 17.9276 21.1037 17.9997C20.7412 18.0718 20.3648 18.0096 20.0447 17.8248C19.7246 17.64 19.4826 17.3451 19.3638 16.9951C19.245 16.6451 19.2575 16.2638 19.3989 15.9223C19.5404 15.5808 19.8011 15.3024 20.1327 15.1389C20.4642 14.9754 20.8438 14.938 21.2008 15.0337L20.8065 16.5054L21.8838 15.428Z" fill="#272727"/>
<circle cx="35.2803" cy="16.5053" r="3.555" fill="white"/>
<path d="M36.5997 15.7435C36.7856 16.0655 36.8473 16.4444 36.7733 16.8087C36.6992 17.1731 36.4945 17.4978 36.1976 17.7217C35.9008 17.9456 35.5323 18.0532 35.1616 18.0242C34.7909 17.9953 34.4436 17.8318 34.1851 17.5645C33.9266 17.2973 33.7748 16.9447 33.7582 16.5733C33.7416 16.2018 33.8614 15.8372 34.095 15.5479C34.3287 15.2587 34.66 15.0649 35.0266 15.003C35.3933 14.9411 35.7699 15.0154 36.0855 15.2119L35.2802 16.5053L36.5997 15.7435Z" fill="#272727"/>
<path d="M27.6625 17.775L34.2598 21.2031H21.0653L27.6625 17.775Z" fill="#FCA352"/>
<path d="M27.6627 24.6311L21.0654 21.2031L34.2599 21.2031L27.6627 24.6311Z" fill="#E09149"/>
<path d="M9.03901 25.1389C4.63758 34.8728 -2.69249 59.3939 3.19865 79.6066C9.08979 99.8193 13.4404 65.4289 14.8793 45.7071" stroke="#272727"/>
<path d="M3.19865 79.6066C-2.69249 59.3939 4.63758 34.8728 9.03901 25.1389C14.1465 29.1171 23.6504 37.1243 20.8064 37.3275C17.9624 37.5306 15.67 42.9986 14.8793 45.7071C13.4404 65.4289 9.08979 99.8193 3.19865 79.6066Z" fill="#272727" stroke="#272727"/>
<path d="M52.6468 79.6066C58.538 59.3939 51.2079 34.8728 46.8065 25.1389C41.699 29.1171 32.195 37.1243 35.039 37.3275C37.883 37.5306 40.1754 42.9986 40.9661 45.7071C42.405 65.4289 46.7557 99.8193 52.6468 79.6066Z" fill="#272727" stroke="#272727"/>
<path d="M46.961 25.1389C51.3624 34.8728 58.6925 59.3939 52.8014 79.6066C46.9102 99.8193 42.5596 65.4289 41.1207 45.7071" stroke="#272727"/>
</svg>
