<svg width="134" height="205" viewBox="0 0 134 205" fill="none" xmlns="http://www.w3.org/2000/svg">
<path d="M14.9187 151.398L9.10411 152.839L10.8136 147.098L14.9187 151.398Z" fill="white" stroke="#393939" stroke-width="0.2"/>
<path d="M12.8629 148.465L6.4267 148.445L10.12 143.174L12.8629 148.465Z" fill="white" stroke="#393939" stroke-width="0.2"/>
<path d="M19.384 152.759L14.9589 156.763L13.7302 150.923L19.384 152.759Z" fill="white" stroke="#393939" stroke-width="0.2"/>
<path d="M24.3415 150.409L22.5361 156.118L18.5311 151.667L24.3415 150.409Z" fill="white" stroke="#393939" stroke-width="0.2"/>
<path d="M36.9716 196.835L32.5131 199.294L31.6534 194.275L36.9716 196.835Z" fill="white" stroke="#393939" stroke-width="0.2"/>
<path d="M44.9142 199.535L40.9177 202.313L39.3152 197.717L44.9142 199.535Z" fill="white" stroke="#393939" stroke-width="0.2"/>
<path d="M54.2816 199.877L51.3764 204.109L48.3773 199.943L54.2816 199.877Z" fill="white" stroke="#393939" stroke-width="0.2"/>
<path d="M94.2976 196.835L98.7562 199.294L99.6159 194.275L94.2976 196.835Z" fill="white" stroke="#393939" stroke-width="0.2"/>
<path d="M86.3553 199.535L90.3518 202.313L91.9544 197.717L86.3553 199.535Z" fill="white" stroke="#393939" stroke-width="0.2"/>
<path d="M76.9877 199.877L79.8929 204.109L82.892 199.943L76.9877 199.877Z" fill="white" stroke="#393939" stroke-width="0.2"/>
<path d="M113.89 116.206C113.89 150.148 92.4623 177.44 66.2734 177.44C40.0844 177.44 18.657 150.148 18.657 116.206C18.657 82.2638 40.0844 54.9714 66.2734 54.9714C92.4623 54.9714 113.89 82.2638 113.89 116.206Z" fill="white" stroke="#C2E2F0"/>
<path d="M28.0302 145.37L29.4732 151.383L23.625 149.372L28.0302 145.37Z" fill="white" stroke="#393939" stroke-width="0.2"/>
<path d="M118.309 151.497L124.418 153.211L122.422 147.189L118.309 151.497Z" fill="white" stroke="#393939" stroke-width="0.2"/>
<path d="M120.42 148.549L127.304 148.755L123.168 143.248L120.42 148.549Z" fill="white" stroke="#393939" stroke-width="0.2"/>
<path d="M113.771 152.838L118.273 157.068L119.432 151L113.771 152.838Z" fill="white" stroke="#393939" stroke-width="0.2"/>
<path d="M109.493 149.972L110.147 155.844L114.929 152.374L109.493 149.972Z" fill="white" stroke="#393939" stroke-width="0.2"/>
<path d="M105.118 145.354L103.716 151.322L109.522 149.356L105.118 145.354Z" fill="white" stroke="#393939" stroke-width="0.2"/>
<path d="M42.7078 115.78C39.7045 127.386 35.1908 137.406 30.3386 144.223C27.9114 147.633 25.4153 150.22 23.0019 151.809C20.5884 153.399 18.3066 153.961 16.2628 153.433C14.219 152.904 12.4966 151.305 11.157 148.744C9.81742 146.184 8.88929 142.711 8.42092 138.551C7.48459 130.236 8.39761 119.285 11.4009 107.678C14.4043 96.0723 18.9179 86.0526 23.7702 79.2352C26.1974 75.825 28.6934 73.2384 31.1069 71.6491C33.5203 70.0597 35.8022 69.4968 37.846 70.0257C39.8898 70.5545 41.6122 72.1536 42.9517 74.7142C44.2913 77.2747 45.2195 80.7473 45.6878 84.9068C46.6242 93.2222 45.7111 104.174 42.7078 115.78Z" fill="white" stroke="#C2E2F0"/>
<path d="M91.2922 115.78C94.2955 127.386 98.8092 137.406 103.661 144.223C106.089 147.633 108.585 150.22 110.998 151.809C113.412 153.399 115.693 153.961 117.737 153.433C119.781 152.904 121.503 151.305 122.843 148.744C124.183 146.184 125.111 142.711 125.579 138.551C126.515 130.236 125.602 119.285 122.599 107.678C119.596 96.0723 115.082 86.0526 110.23 79.2352C107.803 75.825 105.307 73.2384 102.893 71.6491C100.48 70.0597 98.1978 69.4968 96.154 70.0257C94.1102 70.5545 92.3878 72.1536 91.0483 74.7142C89.7087 77.2747 88.7805 80.7473 88.3122 84.9068C87.3758 93.2222 88.2889 104.174 91.2922 115.78Z" fill="white" stroke="#C2E2F0"/>
<circle cx="35.4062" cy="17.2493" r="16.7493" fill="white" stroke="#C2E2F0"/>
<circle cx="98.9563" cy="17.2493" r="16.7493" fill="white" stroke="#C2E2F0"/>
<circle cx="67.1812" cy="50.8399" r="37.63" fill="white" stroke="#C2E2F0"/>
<ellipse cx="53" cy="40.5" rx="5" ry="4.5" fill="#282828"/>
<circle cx="82.5" cy="40.5" r="4.5" fill="#282828"/>
<path d="M68 62C70.28 67.0888 77.272 74.3827 87 62.8481" stroke="#282828"/>
<path d="M68 62C65.6 67.0888 58.24 74.3827 48 62.8481" stroke="#282828"/>
<path d="M68.7898 62.9116C68.0448 63.5403 66.9552 63.5403 66.2102 62.9116L54.7941 53.2785C53.3692 52.0761 54.2194 49.75 56.0839 49.75L78.9161 49.75C80.7805 49.75 81.6308 52.0761 80.2059 53.2785L68.7898 62.9116Z" fill="#282828"/>
<path d="M32.6829 195.189C25.4201 190.831 35.1038 175.821 40.8536 168.861C45.2114 173.945 57.053 176.895 62.5 177.5C61.8948 183.855 60.4632 196.642 59.0106 198.82C57.1949 201.544 41.7615 200.636 32.6829 195.189Z" fill="white" stroke="#C2E2F0"/>
<path d="M98.9563 195.189C106.219 190.831 96.5353 175.821 90.7856 168.861C86.4277 173.945 74.447 176.895 69 177.5C69.6052 183.855 71.176 196.642 72.6286 198.82C74.4443 201.544 89.8777 200.636 98.9563 195.189Z" fill="white" stroke="#C2E2F0"/>
</svg>
