<svg width="65" height="70" viewBox="0 0 65 70" fill="none" xmlns="http://www.w3.org/2000/svg">
<path d="M49.2581 68.387C48.5481 67.7023 44.3607 67.5882 42.3557 67.6167H41.0738C40.022 67.9876 38.4115 68.5924 40.3836 68.0446C42.8487 67.36 47.0888 68.387 49.2581 68.387Z" fill="#683A0F" stroke="black"/>
<path d="M28.8707 28.258C31.4514 27.8451 32.7847 21.5483 33.1288 18.4515C43.1503 19.1397 63.2707 20.6451 63.5804 21.1612C63.9675 21.8064 63.8384 24.7741 63.8384 26.3225C64.2255 27.7419 63.1933 37.4193 62.5481 40.7741C62.032 45.8064 58.9352 52.516 57.3868 55.6128C53.0513 63.3548 46.7202 66.4085 44.0965 66.9677C43.4513 67.1827 42.178 67.6128 42.032 67.6128C41.7739 67.6128 39.8384 67.9999 36.6126 68.1289C26.161 67.9999 11.8385 61.0322 10.6772 60.387C14.161 58.3225 14.4191 56.9031 14.2901 56.9031C12.8707 57.6773 10.2901 58.3225 8.61265 58.0644C6.93523 57.8064 6.4191 56.258 6.29007 55.8709C5.38684 56.6451 2.16104 57.6773 1.25781 57.9354C4.48362 55.8709 5.12878 53.1612 5.51589 51.8709C5.41266 50.0128 7.27933 47.3117 8.22557 46.1935C19.4514 33.6773 27.1933 29.1612 28.8707 28.258Z" fill="#FFFEFE"/>
<circle cx="48.871" cy="16.129" r="15.629" fill="white" stroke="#C2E2F0"/>
<path d="M48.8709 25.9578L47.8652 22.4739L49.8766 22.4739L48.8709 25.9578Z" fill="#282828"/>
<path d="M37.3899 17.0598C37.7072 16.2139 37.1786 16.1082 37.7072 16.0025C37.859 15.9721 38.5681 16.2118 39.5047 16.5914C40.2907 16.91 41.2368 17.3272 42.1481 17.7662C43.409 18.3736 43.1229 18.1585 43.7341 18.6458C40.6678 19.9329 40.5619 19.5974 39.8219 19.5974C38.6162 19.5974 37.3195 18.3991 37.3899 17.0598Z" fill="#B7A92D"/>
<path d="M39.5044 16.637C39.9626 18.082 41.1327 20.3377 42.1478 17.8C41.3865 17.3771 40.0683 16.8484 39.5044 16.637Z" fill="black"/>
<path d="M44.7915 21.1835C45.1087 21.113 45.7219 20.7817 45.6373 20.0204C45.6227 19.8882 43.9889 18.849 43.7341 18.6458M43.7341 18.6458C40.6678 19.9329 40.5619 19.5974 39.8219 19.5974C38.6162 19.5974 37.3195 18.3991 37.3899 17.0598C37.7072 16.2139 37.1786 16.1082 37.7072 16.0025C37.859 15.9721 38.5681 16.2118 39.5047 16.5914M43.7341 18.6458C43.1229 18.1585 43.409 18.3736 42.1481 17.7662M39.5047 16.5914C40.2907 16.91 41.2368 17.3272 42.1481 17.7662M39.5047 16.5914C39.9629 18.0644 41.133 20.3614 42.1481 17.7662" stroke="black"/>
<path d="M59.8361 17.0598C59.5189 16.2139 60.0475 16.1082 59.5188 16.0025C59.3671 15.9721 58.658 16.2118 57.7214 16.5914C56.9354 16.91 55.9893 17.3272 55.078 17.7662C53.8171 18.3736 54.1032 18.1585 53.492 18.6458C56.5583 19.9329 56.6642 19.5974 57.4042 19.5974C58.6099 19.5974 59.9066 18.3991 59.8361 17.0598Z" fill="#B7A92D"/>
<path d="M57.7214 16.637C57.2633 18.082 56.0931 20.3377 55.0781 17.8C55.8394 17.3771 57.1575 16.8484 57.7214 16.637Z" fill="black"/>
<path d="M52.4346 21.1835C52.1174 21.113 51.5041 20.7817 51.5887 20.0204C51.6034 19.8882 53.2372 18.849 53.492 18.6458M53.492 18.6458C56.5583 19.9329 56.6642 19.5974 57.4042 19.5974C58.6099 19.5974 59.9066 18.3991 59.8361 17.0598C59.5189 16.2139 60.0475 16.1082 59.5188 16.0025C59.3671 15.9721 58.658 16.2118 57.7214 16.5914M53.492 18.6458C54.1032 18.1585 53.8171 18.3736 55.078 17.7662M57.7214 16.5914C56.9354 16.91 55.9893 17.3272 55.078 17.7662M57.7214 16.5914C57.2632 18.0644 56.093 20.3614 55.078 17.7662" stroke="black"/>
<line x1="37.9904" y1="14.1928" x2="37.2163" y2="12.9025" stroke="#C2E2F0"/>
<line y1="-0.5" x2="1.50476" y2="-0.5" transform="matrix(0.514496 -0.857493 -0.857493 -0.514496 58.0325 13.9355)" stroke="#C2E2F0"/>
<line x1="39.5675" y1="11.6547" x2="38.7933" y2="10.6225" stroke="#C2E2F0"/>
<line x1="48.5" y1="19.871" x2="48.5" y2="18.5807" stroke="#C2E2F0"/>
<line x1="57.2988" y1="11.1365" x2="57.6985" y2="9.90964" stroke="#C2E2F0"/>
<path d="M33.129 18.4515C32.871 21.4623 31.4774 27.7419 29 28.258C26.591 28.7599 13.875 39.3345 8.28487 46.1935M26.2903 36.387C24.8684 38.8096 23.3417 40.9978 21.7627 42.9677M6.29032 55.9177C4.15802 57.0238 2.32611 57.7185 1 58.0644C2.50538 57.2042 5.54193 54.5548 5.64516 50.8386C5.67382 49.807 6.68894 48.1517 8.28487 46.1935M6.29032 55.9177C6.75968 57.6965 8.98968 59.416 14.2903 56.8582M6.29032 55.9177C8.84448 54.5928 11.8297 52.6776 14.8928 50.0644M23.6358 49.9683C21.9937 51.4188 20.526 52.6502 19.1935 53.6794M14.2903 56.8582C16.7038 58.4236 22.6193 59.5455 30.2903 54.9173M14.2903 56.8582C15.7312 56.1629 17.33 55.1188 19.1935 53.6794M37.6452 49.0322C37.0024 49.6749 36.3666 50.2763 35.7384 50.8386M30.2903 54.9173C34.7204 55.7083 44.5097 55.1999 48.2258 46.8386M30.2903 54.9173C32.0235 53.8717 33.8462 52.5325 35.7384 50.8386M8.28487 46.1935C8.22217 48.387 9.85161 50.9677 16.871 43.7419M14.8928 50.0644C15.2511 51.8709 18.5742 53.7548 29 46.8386M14.8928 50.0644C17.1885 48.106 19.528 45.7555 21.7627 42.9677M19.1935 53.6794C19.9677 56.1303 23.0129 59.1225 29 51.4838M35.7384 50.8386C36.331 52.215 38.8839 53.3418 44.3548 46.8386M21.7627 42.9677C21.8525 45.2042 23.6839 48.1031 30.2903 41.8064" stroke="#C2E2F0"/>
<path d="M63.7096 21.6775C64.8279 39.0968 60.0709 72.671 31.0645 67.613C23.3225 65.9613 14.1612 62.1076 10.5483 60.3872C11.6666 59.785 14.0064 58.2452 14.4193 56.9033" stroke="#C2E2F0"/>
<path d="M47.5807 69.2903C46.6517 68.258 41.1721 68.086 38.5484 68.129H36.871C35.4947 68.6881 33.3871 69.5999 35.9678 68.7741C39.1936 67.7419 44.742 69.2903 47.5807 69.2903Z" fill="#683A0F" stroke="black"/>
<path d="M38.6774 9.41937C37.8602 8.00002 37.0516 5.67744 40.3548 7.74195" stroke="#C2E2F0"/>
<path d="M39.7987 24.1183C38.4807 25.0905 36.2642 26.1562 37.9426 22.641" stroke="#C2E2F0"/>
<path d="M58.3674 9.31981C58.9305 7.78186 59.3311 5.35539 56.4284 7.95312" stroke="#C2E2F0"/>
<path d="M56.6969 24.4321C58.2085 25.0626 60.6149 25.57 58.1479 22.5554" stroke="#C2E2F0"/>
<path d="M49.8864 5.63196C49.4606 4.05048 48.39 1.8364 47.5141 5.63196" stroke="#C2E2F0"/>
<path d="M47.7321 4.9855C46.582 3.80136 44.5575 2.39008 45.6613 6.21803" stroke="#C2E2F0"/>
<path d="M52.0835 5.94459C52.3057 4.30882 52.1059 1.80187 49.7744 5.03233" stroke="#C2E2F0"/>
</svg>
