<svg width="96" height="22" viewBox="0 0 96 22" fill="none" xmlns="http://www.w3.org/2000/svg">
<path d="M0.621094 1.05078L0.703125 0.996094C1.70573 1.10547 3.4375 1.2513 5.89844 1.43359C6.20833 1.57943 7.55729 1.77083 9.94531 2.00781C10.875 2.22656 11.3398 2.47266 11.3398 2.74609C11.2669 3.0013 10.9661 3.44792 10.4375 4.08594C10.4375 4.14062 10.0182 4.69661 9.17969 5.75391C9.17969 5.91797 8.6875 6.44661 7.70312 7.33984L7.40234 7.75V7.83203C7.67578 7.83203 8.26823 7.74089 9.17969 7.55859C9.48958 7.55859 10.2643 7.93229 11.5039 8.67969C11.832 9.04427 12.1602 9.75521 12.4883 10.8125V11.1133C12.4883 13.5378 12.2786 15.0417 11.8594 15.625C11.513 16.6276 10.5651 17.6667 9.01562 18.7422C8.06771 19.1979 6.68229 19.6263 4.85938 20.0273C4.64062 20.1003 4.27604 20.1367 3.76562 20.1367H3.57422L3.41016 20.1914C2.57161 20.1914 1.86979 20 1.30469 19.6172V19.5352C1.35938 19.4987 1.54167 19.125 1.85156 18.4141H1.90625H2.48047H2.78125C4.33073 18.4141 5.51562 18.0039 6.33594 17.1836L8.6875 15.6797C9.58073 14.8776 10.0729 14.3034 10.1641 13.957C10.5286 13.3737 10.7109 12.4167 10.7109 11.0859C10.6927 10.9036 10.6654 10.8125 10.6289 10.8125L10.7109 10.5938C10.7109 10.2292 10.5286 9.9375 10.1641 9.71875C10.0182 9.35417 9.73568 9.17188 9.31641 9.17188H8.63281C8.26823 9.17188 8.08594 9.21745 8.08594 9.30859V9.36328C8.83333 9.36328 9.41667 9.54557 9.83594 9.91016V9.96484L9.75391 10.0195C9.58984 10.0195 9.36198 9.89193 9.07031 9.63672L8.82422 9.60938C7.45703 9.60938 5.78906 10.0742 3.82031 11.0039L3.54688 11.168L3.41016 11.1133V10.8945C3.41016 10.7669 3.31901 10.612 3.13672 10.4297V10.4023C3.13672 10.3477 3.34635 9.85547 3.76562 8.92578C3.83854 8.61589 4.0026 8.30599 4.25781 7.99609L5.37891 6.30078C5.79818 5.38932 6.19922 4.83333 6.58203 4.63281C6.74609 4.45052 6.82812 4.27734 6.82812 4.11328V4.03125C6.6276 3.88542 6.45443 3.8125 6.30859 3.8125L1.19531 3.70312C1.03125 3.70312 0.93099 3.54818 0.894531 3.23828V3.12891L0.921875 3.01953V2.91016C0.867188 2.76432 0.766927 2.14453 0.621094 1.05078ZM1.74219 1.35156L1.63281 1.46094V1.73438H1.6875H2.04297H2.09766L2.78125 1.78906L2.89062 1.67969C2.5625 1.46094 2.17969 1.35156 1.74219 1.35156ZM0.976562 1.78906C1.01302 1.88021 1.08594 1.92578 1.19531 1.92578L1.25 1.84375V1.78906L1.16797 1.67969H1.05859C1.00391 1.67969 0.976562 1.71615 0.976562 1.78906ZM4.42188 1.87109H4.33984V1.92578H4.36719L4.42188 1.87109ZM9.61719 2.22656H9.01562C9.01562 2.33594 9.1888 2.39974 9.53516 2.41797H9.58984L9.69922 2.33594V2.30859L9.61719 2.22656ZM3.32812 2.39062C4.29427 2.5 5.36068 2.55469 6.52734 2.55469H6.85547C6.85547 2.42708 6.1901 2.33594 4.85938 2.28125H4.12109C3.59245 2.28125 3.32812 2.31771 3.32812 2.39062ZM1.90625 2.39062L1.79688 2.41797C1.79688 2.58203 2.2526 2.69141 3.16406 2.74609L3.21875 2.71875V2.66406C2.98177 2.48177 2.58984 2.39062 2.04297 2.39062H1.90625ZM10.5195 2.71875V2.74609C10.5378 2.81901 10.6107 2.85547 10.7383 2.85547H10.8477C10.9206 2.85547 10.9844 2.81901 11.0391 2.74609C11.0391 2.63672 10.9297 2.58203 10.7109 2.58203C10.638 2.61849 10.5742 2.66406 10.5195 2.71875ZM3.68359 2.63672L3.65625 2.66406V2.69141C3.65625 2.78255 3.97526 2.82812 4.61328 2.82812H5.59766C5.59766 2.71875 4.95964 2.65495 3.68359 2.63672ZM7.04688 2.85547H6.33594V2.91016L7.70312 3.12891L9.07031 3.01953V2.96484C8.72396 2.89193 8.04948 2.85547 7.04688 2.85547ZM1.35938 3.07422V3.12891C1.35938 3.27474 1.73307 3.34766 2.48047 3.34766H3.60156V3.26562C3.60156 3.19271 3.20964 3.14714 2.42578 3.12891C2.42578 3.03776 2.19792 2.98307 1.74219 2.96484H1.63281C1.46875 2.96484 1.3776 3.0013 1.35938 3.07422ZM4.64062 3.26562H4.06641C4.06641 3.35677 4.30339 3.40234 4.77734 3.40234H4.85938C4.85938 3.3112 4.78646 3.26562 4.64062 3.26562ZM9.94531 3.62109L9.69922 3.8125C9.75391 4.06771 9.84505 4.19531 9.97266 4.19531C10.1003 4.04948 10.1641 3.92188 10.1641 3.8125V3.67578L10.1094 3.62109H9.94531ZM7.40234 4.00391L7.34766 4.08594V4.14062H7.51172L7.56641 4.08594V4.00391H7.40234ZM7.56641 4.60547V4.6875H7.62109C7.83984 4.6875 8.01302 4.52344 8.14062 4.19531L8.08594 4.16797H8.05859C7.73047 4.25911 7.56641 4.40495 7.56641 4.60547ZM9.61719 4.55078H9.48047V4.63281H9.5625L9.61719 4.60547V4.55078ZM9.34375 4.79688H9.28906V4.87891H9.34375V4.79688ZM7.70312 6.51953L7.67578 6.60156L7.73047 6.68359C8.11328 6.59245 8.49609 6.28255 8.87891 5.75391L9.01562 5.39844L8.98828 5.37109H8.82422C8.60547 5.37109 8.23177 5.75391 7.70312 6.51953ZM6.25391 6.57422H6.30859C6.58203 6.41016 6.71875 6.22786 6.71875 6.02734V6H6.66406C6.39062 6.07292 6.25391 6.26432 6.25391 6.57422ZM6.82812 6.46484V6.57422H6.91016C7.03776 6.46484 7.10156 6.36458 7.10156 6.27344L7.07422 6.24609C7.0013 6.28255 6.91927 6.35547 6.82812 6.46484ZM7.53906 6.875L7.45703 6.95703V7.09375H7.53906L7.59375 7.03906V6.875H7.53906ZM4.64062 7.83203V7.88672L4.69531 7.94141H4.94141L5.46094 7.53125L5.48828 7.36719V7.3125L5.43359 7.25781H5.37891C5.08724 7.33073 4.84115 7.52214 4.64062 7.83203ZM7.10156 8.73438V8.76172H7.12891L8.25 8.40625C9.14323 8.4974 9.68099 8.57031 9.86328 8.625C9.95443 8.625 10.0091 8.58854 10.0273 8.51562H10.0547C10.5104 8.86198 10.8659 9.03516 11.1211 9.03516H11.2305L11.2578 8.95312V8.92578C11.2578 8.72526 10.6289 8.47005 9.37109 8.16016C9.31641 8.16016 9.26172 8.08724 9.20703 7.94141L9.07031 7.83203H8.98828C8.55078 7.83203 8.09505 8.05078 7.62109 8.48828C7.29297 8.57943 7.11979 8.66146 7.10156 8.73438ZM6.60938 7.94141H6.58203V8.05078L6.60938 8.07812H6.71875V8.05078L6.60938 7.94141ZM4.25781 8.76172V8.84375H4.28516C4.52214 8.71615 4.69531 8.50651 4.80469 8.21484H4.75C4.58594 8.30599 4.42188 8.48828 4.25781 8.76172ZM5.13281 8.84375V9.00781H5.24219C5.46094 9.00781 5.625 8.83464 5.73438 8.48828L5.65234 8.40625C5.47005 8.47917 5.29688 8.625 5.13281 8.84375ZM5.35156 9.71875V9.74609H5.43359C6.65495 9.45443 7.26562 9.24479 7.26562 9.11719V9.08984H7.18359C6.60026 9.14453 5.98958 9.35417 5.35156 9.71875ZM4.06641 9.80078V9.88281L4.09375 9.91016V9.96484C4.69531 9.85547 5.15104 9.68229 5.46094 9.44531V9.41797L5.37891 9.30859C4.75911 9.4362 4.32161 9.60026 4.06641 9.80078ZM11.1484 9.30859H10.8477V9.36328C10.9388 9.61849 11.0664 9.74609 11.2305 9.74609H11.4219C11.6042 9.74609 11.7135 9.70052 11.75 9.60938C11.5859 9.40885 11.3854 9.30859 11.1484 9.30859ZM11.5312 10.0469L11.5039 10.1289V10.1562C11.5039 10.3021 11.6497 10.5755 11.9414 10.9766L11.9141 11.4961V12.125C11.9141 12.3255 11.9505 12.4349 12.0234 12.4531H12.0781L12.1328 11.8516V10.8945C12.1328 10.5846 11.9688 10.3021 11.6406 10.0469H11.5312ZM3.60156 10.375V10.4023L3.65625 10.4844H3.90234C4.06641 10.4844 4.15755 10.4479 4.17578 10.375V10.293C4.13932 10.2018 4.06641 10.1562 3.95703 10.1562H3.90234C3.79297 10.1562 3.69271 10.2292 3.60156 10.375ZM10.3555 10.375V10.293L10.5195 10.4844H10.4648L10.3555 10.375ZM11.0117 11.0312H10.957V11.0859L11.0117 11.168H11.0664V11.0859L11.0117 11.0312ZM10.8477 12.5352V12.6445L10.9023 12.7266C11.1211 12.362 11.2305 12.043 11.2305 11.7695V11.4414H11.1484C10.9479 11.6784 10.8477 12.043 10.8477 12.5352ZM12.0781 12.7266L11.8047 13.2461C11.8229 13.319 11.8685 13.3737 11.9414 13.4102H11.9961C12.1237 13.3555 12.1875 13.237 12.1875 13.0547C12.1693 12.8359 12.1328 12.7266 12.0781 12.7266ZM11.0117 14.0391V14.0938H11.1211L11.2578 13.9297V13.7656H11.1758C11.0664 13.8385 11.0117 13.9297 11.0117 14.0391ZM10.7656 14.9414L10.8477 14.9688L11.3945 14.6133V14.5586L11.3125 14.5039H11.2578C11.112 14.5039 10.9479 14.6497 10.7656 14.9414ZM9.58984 15.7891H9.69922C9.88151 15.7891 10.0729 15.6797 10.2734 15.4609V15.4062L10.1641 15.1055L10.2734 14.832C10.1094 14.832 9.94531 15.0417 9.78125 15.4609C9.65365 15.5885 9.58984 15.6979 9.58984 15.7891ZM11.5039 15.0234L11.4219 15.1055V15.1328H11.5312V15.0234H11.5039ZM10.5195 15.8984V15.9531L10.7109 15.9805H10.9023C11.1758 15.9622 11.3125 15.8529 11.3125 15.6523C11.276 15.5612 11.2122 15.5156 11.1211 15.5156C10.9388 15.5156 10.7383 15.6432 10.5195 15.8984ZM6.25391 17.7031H6.33594C7.97656 17.0104 8.79688 16.5091 8.79688 16.1992H8.63281C8.25 16.3451 7.59375 16.737 6.66406 17.375C6.39062 17.5573 6.25391 17.6667 6.25391 17.7031ZM10.5742 16.582V16.6094H10.7109C10.7656 16.6094 10.8294 16.5273 10.9023 16.3633L10.8477 16.3086C10.6654 16.3633 10.5742 16.4544 10.5742 16.582ZM10.2734 16.3633L10.1641 16.4727V16.5H10.3008L10.3828 16.4453L10.3008 16.3633H10.2734ZM9.5625 17.457H9.58984C9.77214 17.457 9.98177 17.3659 10.2188 17.1836C10.2188 17.1289 10.1823 17.1016 10.1094 17.1016C9.74479 17.1927 9.5625 17.3112 9.5625 17.457ZM7.45703 17.9219V17.9766H7.51172C7.89453 17.8672 8.08594 17.7669 8.08594 17.6758V17.6484H8.05859C7.83984 17.6484 7.63932 17.7396 7.45703 17.9219ZM9.17969 17.8945L9.07031 17.9766V18.0586H9.26172L9.34375 17.9492V17.8945H9.17969ZM2.72656 18.7422L2.80859 18.8242H3.27344L3.38281 18.7422C3.38281 18.6875 3.28255 18.6602 3.08203 18.6602C2.84505 18.6602 2.72656 18.6875 2.72656 18.7422ZM5.24219 18.6602L5.1875 18.7422V18.8242C5.33333 18.8242 5.42448 18.7786 5.46094 18.6875V18.6602H5.24219ZM7.45703 19.0156L7.51172 19.0703H7.53906C7.88542 18.9609 8.10417 18.8607 8.19531 18.7695L8.14062 18.6602H7.97656C7.63021 18.7331 7.45703 18.8516 7.45703 19.0156ZM2.15234 18.8789L2.04297 18.9609V19.0156H2.31641L2.39844 18.9609L2.31641 18.8789H2.15234ZM4.36719 19.4531L3.41016 19.5352L2.80859 19.3984H2.58984C2.20703 19.4349 2.01562 19.5078 2.01562 19.6172V19.6445C2.01562 19.7357 2.59896 19.8177 3.76562 19.8906C4.25781 19.8906 4.99609 19.6901 5.98047 19.2891L6.03516 19.2617V19.1523H5.98047C5.76172 19.1523 5.22396 19.2526 4.36719 19.4531ZM20.5547 1.1875L21.1562 1.10547C21.7578 1.10547 22.6966 1.32422 23.9727 1.76172C24.6471 2.10807 24.9844 2.33594 24.9844 2.44531C25.6042 3.0651 25.9141 3.54818 25.9141 3.89453L26.3516 5.50781C26.1693 6.20052 25.7773 7.19401 25.1758 8.48828C24.4102 9.1263 23.2799 9.88281 21.7852 10.7578C20.5638 11.888 19.7617 12.4714 19.3789 12.5078L18.2305 13.5469C16.5898 14.9688 15.7513 15.7161 15.7148 15.7891C15.5508 16.1354 15.4049 16.582 15.2773 17.1289V17.1836C15.2773 17.3294 15.724 17.4297 16.6172 17.4844V17.5938L15.7422 17.6484V17.7578C17.3281 18.0312 18.3945 18.168 18.9414 18.168C18.9049 18.1133 18.2487 17.931 16.9727 17.6211V17.5391H17C17.3464 17.5391 18.0755 17.6758 19.1875 17.9492L20.7188 18.0586L22.0312 17.9219H22.7148C23.918 17.9948 24.5742 18.1589 24.6836 18.4141L25.5039 18.6602L25.668 18.7695V18.8789L25.2305 18.9883V19.0156L25.3398 19.1523H25.3945L25.7773 19.0977V19.1523C25.7409 19.9544 25.6862 20.3555 25.6133 20.3555L22.4141 20.2461H21.7578C21.3021 20.2461 20.6823 20.2917 19.8984 20.3828C17.1458 20.0547 15.2318 19.8906 14.1562 19.8906C13.8281 19.8177 13.6641 19.6536 13.6641 19.3984C13.5365 19.0703 13.4727 18.6602 13.4727 18.168V17.3477C13.4727 15.7617 13.6549 14.7591 14.0195 14.3398L14.7031 13.9023C14.8125 13.7018 14.8672 13.5378 14.8672 13.4102C16.0339 12.4622 16.6536 11.9883 16.7266 11.9883C17.2188 11.806 17.8932 11.3411 18.75 10.5938H18.8867C18.6497 10.8854 18.4583 11.0312 18.3125 11.0312V11.1406H18.4766C18.7135 11.013 18.9505 10.8125 19.1875 10.5391V10.4844H19.0781V10.4023L21.0469 9.17188C22.0495 8.47917 22.8424 7.84115 23.4258 7.25781C23.8633 6.76562 24.1458 6.11849 24.2734 5.31641C24.2734 4.60547 23.9727 4.06771 23.3711 3.70312C23.1706 3.63021 22.3503 3.52995 20.9102 3.40234C20.9102 3.38411 20.7643 3.36589 20.4727 3.34766C19.8529 3.34766 19.2695 3.71224 18.7227 4.44141C18.5768 4.76953 18.5039 5.01562 18.5039 5.17969V5.37109H18.5586C18.5586 5.53516 18.2578 5.65365 17.6562 5.72656L16.5078 5.89062V5.91797L16.3438 5.89062H16.125L15.4414 5.97266L15.3867 5.86328C15.6419 4.60547 15.9245 3.82161 16.2344 3.51172C17.2734 2.5638 18.0026 2.07161 18.4219 2.03516C18.7318 1.76172 19.4427 1.47917 20.5547 1.1875ZM21.6484 1.37891H21.375V1.43359L21.5391 1.65234H21.7852L21.8945 1.51562V1.48828C21.8763 1.41536 21.7943 1.37891 21.6484 1.37891ZM19.8984 1.78906V1.84375H19.9258C20.6732 1.84375 21.0469 1.76172 21.0469 1.59766L20.9102 1.48828H20.582C20.1263 1.59766 19.8984 1.69792 19.8984 1.78906ZM23.3164 1.67969H23.2891V1.73438C23.2891 1.84375 23.526 1.95312 24 2.0625V2.03516C24 1.92578 23.7721 1.80729 23.3164 1.67969ZM18.8867 2.19922V2.28125H19.2422L19.3516 2.17188V2.14453L19.1875 2.11719C18.987 2.15365 18.8867 2.18099 18.8867 2.19922ZM19.2695 3.23828L19.1875 3.34766V3.40234H19.3516L19.4336 3.29297V3.23828H19.2695ZM24.0273 3.29297L23.9727 3.34766V3.40234C24.0456 3.52995 24.1458 3.59375 24.2734 3.59375H24.3008C24.3555 3.59375 24.3828 3.55729 24.3828 3.48438C24.3828 3.39323 24.2826 3.32943 24.082 3.29297H24.0273ZM24.4375 3.70312V3.75781C24.7656 3.79427 24.9297 3.9401 24.9297 4.19531L25.0938 4.38672V4.19531C25.0938 3.79427 24.9661 3.59375 24.7109 3.59375C24.5469 3.59375 24.4557 3.63021 24.4375 3.70312ZM18.3945 4.25L18.4492 4.30469H18.4766C18.75 4.15885 18.8867 4.01302 18.8867 3.86719V3.83984H18.7773C18.7044 3.83984 18.5768 3.97656 18.3945 4.25ZM17.6289 4.98828H17.4922V5.09766L17.6016 5.125H17.6289V4.98828ZM25.6133 5.91797L25.5039 6.05469V6.13672H25.5586L25.6406 6.05469V5.91797H25.6133ZM24.9844 7.01172H24.8477V7.14844C24.9753 7.14844 25.0391 7.20312 25.0391 7.3125H25.1211V7.14844L24.9844 7.01172ZM24.4922 7.99609L24.5195 8.05078V8.07812C24.6289 8.02344 24.7383 7.91406 24.8477 7.75V7.69531H24.793C24.6654 7.76823 24.5651 7.86849 24.4922 7.99609ZM23.7539 8.54297H23.8086L24.1094 8.48828C24.1094 8.34245 24.0456 8.26953 23.918 8.26953C23.8086 8.28776 23.7539 8.37891 23.7539 8.54297ZM23.6992 9.0625V9.11719C24.0456 9.08073 24.3646 8.88932 24.6562 8.54297L24.6016 8.48828C24.1823 8.70703 23.8815 8.89844 23.6992 9.0625ZM22.4688 9.58203L22.3867 9.60938V9.71875H22.4414L22.5234 9.63672L22.4688 9.60938V9.58203ZM18.2031 12.8633V12.9453H18.2852C18.3945 12.9453 18.6406 12.7812 19.0234 12.4531C19.1146 12.4531 19.2057 12.3438 19.2969 12.125L19.3516 12.0977V12.0156H19.2695C19.0508 12.0156 18.6953 12.2982 18.2031 12.8633ZM16.4805 12.7266V12.8086H16.5078C16.7448 12.8086 16.9362 12.6263 17.082 12.2617H16.9453C16.6354 12.5169 16.4805 12.6719 16.4805 12.7266ZM15.5781 13.2188H15.2227L15.25 13.4922C14.9948 13.7474 14.8672 13.9115 14.8672 13.9844H14.9766C15.3047 13.8021 15.5326 13.5742 15.6602 13.3008V13.2461L15.5781 13.2188ZM17.6289 13.4922L17.4922 13.5742V13.6562H17.6016L17.7109 13.5469V13.4922H17.6289ZM15.4414 15.0508V15.1602H15.5234C15.724 15.0143 15.8242 14.8685 15.8242 14.7227V14.6953H15.7422C15.5417 14.8047 15.4414 14.9232 15.4414 15.0508ZM14.7031 17.9766L14.6211 18.0586V18.168L14.7031 18.2773L14.7578 18.168V18.0586L14.7031 17.9766ZM15.4414 18.0586L15.332 18.1406L15.3867 18.168H15.7422V18.0859L15.5508 18.0586H15.4414ZM22.8789 18.2773L22.6875 18.3047V18.332L22.7969 18.4414H23.1523L23.2344 18.3867V18.3047L22.8789 18.2773ZM13.9648 18.8242L13.8555 18.8789V18.9062L13.9375 18.9883H13.9648L14.0469 18.9062L13.9648 18.8242ZM14.5391 19.3984V19.4258L14.7578 19.4531C15.0312 19.4167 15.168 19.3802 15.168 19.3438L15.1406 19.2891H14.7578C14.612 19.3255 14.5391 19.362 14.5391 19.3984ZM23.3984 19.6992H23.6992C23.9544 19.6628 24.082 19.6172 24.082 19.5625L24 19.4531H23.8359C23.7448 19.4531 23.599 19.5352 23.3984 19.6992ZM24.3828 19.8633L24.4922 19.918H24.793C25.0664 19.918 25.2031 19.8724 25.2031 19.7812V19.7539C25.2031 19.6992 25.1667 19.6719 25.0938 19.6719C24.6562 19.6901 24.4193 19.7539 24.3828 19.8633ZM35.5117 10.3203H35.6484C35.7578 10.3203 35.8672 11.0404 35.9766 12.4805H36.0039C36.0039 12.681 35.0742 12.8451 33.2148 12.9727C31.0638 13.3919 29.724 13.6016 29.1953 13.6016V13.5469C29.1953 13.401 29.9518 13.2279 31.4648 13.0273C32.1393 12.8633 32.4766 12.7448 32.4766 12.6719V12.6445H32.2031C30.0521 12.7721 28.9766 13.0729 28.9766 13.5469L28.7578 13.6562C28.138 13.6562 27.8281 13.0091 27.8281 11.7148C27.8281 11.3685 28.5391 11.1224 29.9609 10.9766C29.9609 10.9219 30.0521 10.8945 30.2344 10.8945L30.7812 11.0039H31.0547L35.5117 10.3203ZM34.9648 10.7852L34.8008 10.8125V10.8945H35.0469L35.1836 10.8398V10.7852H34.9648ZM33.5977 11.1133H33.9258C34.1081 11.1133 34.2083 11.0768 34.2266 11.0039V10.9766H34.1719C33.7891 11.013 33.5977 11.0586 33.5977 11.1133ZM32.1484 11.3867V11.4414C32.349 11.4414 32.4583 11.3867 32.4766 11.2773H32.3398C32.2122 11.2773 32.1484 11.3138 32.1484 11.3867ZM33.8984 11.6875H34.5C35.0833 11.651 35.4023 11.569 35.457 11.4414V11.3867L35.3203 11.332C34.3724 11.4596 33.8984 11.5781 33.8984 11.6875ZM30.8359 11.6055V11.7148H30.8633C31.2461 11.7148 31.5378 11.6419 31.7383 11.4961V11.4414H31.6836C31.4648 11.4414 31.1823 11.4961 30.8359 11.6055ZM28.4023 11.6055L28.293 11.7148V12.0703L28.3477 12.125H28.4023C28.457 12.125 28.4935 12.0065 28.5117 11.7695V11.6875L28.457 11.6055H28.4023ZM29.1953 11.6055L29.1133 11.7148V11.7695H29.25L29.3047 11.6875V11.6055H29.1953ZM33.3789 11.7148H33.3242V11.7695H33.4336L33.3789 11.7148ZM33.0234 12.5352V12.5625H33.0781C34.7005 12.5078 35.5117 12.4349 35.5117 12.3438V12.2891C35.4753 12.2344 35.4206 12.1797 35.3477 12.125H35.3203C34.6823 12.125 33.9167 12.2617 33.0234 12.5352ZM28.3477 12.3711L28.293 12.4531V12.5078H28.3477L28.4297 12.4531V12.3711H28.3477ZM44.3164 1.1875L44.918 1.10547C45.5195 1.10547 46.4583 1.32422 47.7344 1.76172C48.4089 2.10807 48.7461 2.33594 48.7461 2.44531C49.3659 3.0651 49.6758 3.54818 49.6758 3.89453L50.1133 5.50781C49.931 6.20052 49.5391 7.19401 48.9375 8.48828C48.1719 9.1263 47.0417 9.88281 45.5469 10.7578C44.3255 11.888 43.5234 12.4714 43.1406 12.5078L41.9922 13.5469C40.3516 14.9688 39.513 15.7161 39.4766 15.7891C39.3125 16.1354 39.1667 16.582 39.0391 17.1289V17.1836C39.0391 17.3294 39.4857 17.4297 40.3789 17.4844V17.5938L39.5039 17.6484V17.7578C41.0898 18.0312 42.1562 18.168 42.7031 18.168C42.6667 18.1133 42.0104 17.931 40.7344 17.6211V17.5391H40.7617C41.1081 17.5391 41.8372 17.6758 42.9492 17.9492L44.4805 18.0586L45.793 17.9219H46.4766C47.6797 17.9948 48.3359 18.1589 48.4453 18.4141L49.2656 18.6602L49.4297 18.7695V18.8789L48.9922 18.9883V19.0156L49.1016 19.1523H49.1562L49.5391 19.0977V19.1523C49.5026 19.9544 49.4479 20.3555 49.375 20.3555L46.1758 20.2461H45.5195C45.0638 20.2461 44.444 20.2917 43.6602 20.3828C40.9076 20.0547 38.9935 19.8906 37.918 19.8906C37.5898 19.8177 37.4258 19.6536 37.4258 19.3984C37.2982 19.0703 37.2344 18.6602 37.2344 18.168V17.3477C37.2344 15.7617 37.4167 14.7591 37.7812 14.3398L38.4648 13.9023C38.5742 13.7018 38.6289 13.5378 38.6289 13.4102C39.7956 12.4622 40.4154 11.9883 40.4883 11.9883C40.9805 11.806 41.6549 11.3411 42.5117 10.5938H42.6484C42.4115 10.8854 42.2201 11.0312 42.0742 11.0312V11.1406H42.2383C42.4753 11.013 42.7122 10.8125 42.9492 10.5391V10.4844H42.8398V10.4023L44.8086 9.17188C45.8112 8.47917 46.6042 7.84115 47.1875 7.25781C47.625 6.76562 47.9076 6.11849 48.0352 5.31641C48.0352 4.60547 47.7344 4.06771 47.1328 3.70312C46.9323 3.63021 46.112 3.52995 44.6719 3.40234C44.6719 3.38411 44.526 3.36589 44.2344 3.34766C43.6146 3.34766 43.0312 3.71224 42.4844 4.44141C42.3385 4.76953 42.2656 5.01562 42.2656 5.17969V5.37109H42.3203C42.3203 5.53516 42.0195 5.65365 41.418 5.72656L40.2695 5.89062V5.91797L40.1055 5.89062H39.8867L39.2031 5.97266L39.1484 5.86328C39.4036 4.60547 39.6862 3.82161 39.9961 3.51172C41.0352 2.5638 41.7643 2.07161 42.1836 2.03516C42.4935 1.76172 43.2044 1.47917 44.3164 1.1875ZM45.4102 1.37891H45.1367V1.43359L45.3008 1.65234H45.5469L45.6562 1.51562V1.48828C45.638 1.41536 45.556 1.37891 45.4102 1.37891ZM43.6602 1.78906V1.84375H43.6875C44.4349 1.84375 44.8086 1.76172 44.8086 1.59766L44.6719 1.48828H44.3438C43.888 1.59766 43.6602 1.69792 43.6602 1.78906ZM47.0781 1.67969H47.0508V1.73438C47.0508 1.84375 47.2878 1.95312 47.7617 2.0625V2.03516C47.7617 1.92578 47.5339 1.80729 47.0781 1.67969ZM42.6484 2.19922V2.28125H43.0039L43.1133 2.17188V2.14453L42.9492 2.11719C42.7487 2.15365 42.6484 2.18099 42.6484 2.19922ZM43.0312 3.23828L42.9492 3.34766V3.40234H43.1133L43.1953 3.29297V3.23828H43.0312ZM47.7891 3.29297L47.7344 3.34766V3.40234C47.8073 3.52995 47.9076 3.59375 48.0352 3.59375H48.0625C48.1172 3.59375 48.1445 3.55729 48.1445 3.48438C48.1445 3.39323 48.0443 3.32943 47.8438 3.29297H47.7891ZM48.1992 3.70312V3.75781C48.5273 3.79427 48.6914 3.9401 48.6914 4.19531L48.8555 4.38672V4.19531C48.8555 3.79427 48.7279 3.59375 48.4727 3.59375C48.3086 3.59375 48.2174 3.63021 48.1992 3.70312ZM42.1562 4.25L42.2109 4.30469H42.2383C42.5117 4.15885 42.6484 4.01302 42.6484 3.86719V3.83984H42.5391C42.4661 3.83984 42.3385 3.97656 42.1562 4.25ZM41.3906 4.98828H41.2539V5.09766L41.3633 5.125H41.3906V4.98828ZM49.375 5.91797L49.2656 6.05469V6.13672H49.3203L49.4023 6.05469V5.91797H49.375ZM48.7461 7.01172H48.6094V7.14844C48.737 7.14844 48.8008 7.20312 48.8008 7.3125H48.8828V7.14844L48.7461 7.01172ZM48.2539 7.99609L48.2812 8.05078V8.07812C48.3906 8.02344 48.5 7.91406 48.6094 7.75V7.69531H48.5547C48.4271 7.76823 48.3268 7.86849 48.2539 7.99609ZM47.5156 8.54297H47.5703L47.8711 8.48828C47.8711 8.34245 47.8073 8.26953 47.6797 8.26953C47.5703 8.28776 47.5156 8.37891 47.5156 8.54297ZM47.4609 9.0625V9.11719C47.8073 9.08073 48.1263 8.88932 48.418 8.54297L48.3633 8.48828C47.944 8.70703 47.6432 8.89844 47.4609 9.0625ZM46.2305 9.58203L46.1484 9.60938V9.71875H46.2031L46.2852 9.63672L46.2305 9.60938V9.58203ZM41.9648 12.8633V12.9453H42.0469C42.1562 12.9453 42.4023 12.7812 42.7852 12.4531C42.8763 12.4531 42.9674 12.3438 43.0586 12.125L43.1133 12.0977V12.0156H43.0312C42.8125 12.0156 42.457 12.2982 41.9648 12.8633ZM40.2422 12.7266V12.8086H40.2695C40.5065 12.8086 40.6979 12.6263 40.8438 12.2617H40.707C40.3971 12.5169 40.2422 12.6719 40.2422 12.7266ZM39.3398 13.2188H38.9844L39.0117 13.4922C38.7565 13.7474 38.6289 13.9115 38.6289 13.9844H38.7383C39.0664 13.8021 39.2943 13.5742 39.4219 13.3008V13.2461L39.3398 13.2188ZM41.3906 13.4922L41.2539 13.5742V13.6562H41.3633L41.4727 13.5469V13.4922H41.3906ZM39.2031 15.0508V15.1602H39.2852C39.4857 15.0143 39.5859 14.8685 39.5859 14.7227V14.6953H39.5039C39.3034 14.8047 39.2031 14.9232 39.2031 15.0508ZM38.4648 17.9766L38.3828 18.0586V18.168L38.4648 18.2773L38.5195 18.168V18.0586L38.4648 17.9766ZM39.2031 18.0586L39.0938 18.1406L39.1484 18.168H39.5039V18.0859L39.3125 18.0586H39.2031ZM46.6406 18.2773L46.4492 18.3047V18.332L46.5586 18.4414H46.9141L46.9961 18.3867V18.3047L46.6406 18.2773ZM37.7266 18.8242L37.6172 18.8789V18.9062L37.6992 18.9883H37.7266L37.8086 18.9062L37.7266 18.8242ZM38.3008 19.3984V19.4258L38.5195 19.4531C38.793 19.4167 38.9297 19.3802 38.9297 19.3438L38.9023 19.2891H38.5195C38.3737 19.3255 38.3008 19.362 38.3008 19.3984ZM47.1602 19.6992H47.4609C47.7161 19.6628 47.8438 19.6172 47.8438 19.5625L47.7617 19.4531H47.5977C47.5065 19.4531 47.3607 19.5352 47.1602 19.6992ZM48.1445 19.8633L48.2539 19.918H48.5547C48.8281 19.918 48.9648 19.8724 48.9648 19.7812V19.7539C48.9648 19.6992 48.9284 19.6719 48.8555 19.6719C48.418 19.6901 48.181 19.7539 48.1445 19.8633ZM57.3594 0.667969H57.5781C57.7786 0.667969 58.1068 0.813802 58.5625 1.10547C59.3464 1.39714 59.7383 1.71615 59.7383 2.0625C60.3216 3.32031 60.6133 4.25911 60.6133 4.87891C60.5768 5.04297 60.513 5.53516 60.4219 6.35547C60.112 7.17578 59.7201 7.88672 59.2461 8.48828C60.7773 9.76432 61.6341 10.7305 61.8164 11.3867C61.8164 11.4961 62.0534 11.9245 62.5273 12.6719L62.4453 14.4766L62.418 14.5859H62.3359V14.3125C62.3359 14.1302 62.3086 14.0391 62.2539 14.0391H62.1719C62.0625 14.0391 61.9805 14.2578 61.9258 14.6953C61.9805 14.9323 62.0352 15.0508 62.0898 15.0508H62.1445C62.2539 15.0508 62.3177 14.9323 62.3359 14.6953H62.418C62.418 15.2786 62.2539 15.8164 61.9258 16.3086L61.8164 16.1172H61.707L61.5977 16.1992V16.3359L61.7344 16.4727L61.707 16.6641L61.8164 16.9375C61.8164 17.0833 61.625 17.2839 61.2422 17.5391V17.4844L61.3242 17.375V17.3477L61.2422 17.2656H61.0781C60.7682 17.4297 60.5312 17.7487 60.3672 18.2227L60.5039 18.2773L61.1328 17.7852V17.8125C60.7135 18.4505 60.2852 18.8333 59.8477 18.9609C59.5924 19.1979 59.2279 19.4258 58.7539 19.6445C58.4258 19.918 57.7695 20.1641 56.7852 20.3828C56.7852 20.4193 56.6758 20.4375 56.457 20.4375C56.0378 20.4375 55.2904 20.2188 54.2148 19.7812C53.5586 19.7812 52.7383 18.6875 51.7539 16.5C51.6992 16.5 51.6263 16.181 51.5352 15.543V15.0508C51.5352 13.9388 51.7174 13.0182 52.082 12.2891C52.2826 11.3594 52.5195 10.8945 52.793 10.8945C52.793 10.694 53.0391 10.3021 53.5312 9.71875L53.832 9.36328V9.28125C53.6497 9.28125 53.0664 8.69792 52.082 7.53125C51.5352 5.94531 51.2617 4.9974 51.2617 4.6875C51.4076 4.57812 51.4805 4.40495 51.4805 4.16797L51.6719 4.25H51.6992C51.7904 4.21354 51.8359 4.13151 51.8359 4.00391V3.83984L51.7266 3.70312H51.6719L51.5898 3.92188L51.4805 3.89453V3.83984C51.6628 3.22005 52.0182 2.74609 52.5469 2.41797C52.7292 1.90755 53.112 1.54297 53.6953 1.32422C54.7891 0.886719 56.0104 0.667969 57.3594 0.667969ZM52.793 2.80078L52.8477 2.82812H52.875C53.0208 2.82812 53.5677 2.36328 54.5156 1.43359C54.5885 1.43359 54.625 1.39714 54.625 1.32422H54.5703C54.2057 1.32422 53.7044 1.625 53.0664 2.22656C52.9388 2.39062 52.8477 2.58203 52.793 2.80078ZM56.293 1.65234V1.73438L57.8789 2.17188V1.67969H57.9609V1.65234L58.5625 1.84375H58.6445C58.6445 1.60677 58.2161 1.48828 57.3594 1.48828C57.2135 1.45182 57.0221 1.43359 56.7852 1.43359C56.6029 1.43359 56.4388 1.50651 56.293 1.65234ZM54.0781 2.39062H54.1602C54.5977 2.17188 54.8164 1.9987 54.8164 1.87109H54.707C54.4154 1.98047 54.2057 2.15365 54.0781 2.39062ZM53.5312 5.23438V5.37109C53.5677 6.04557 54.1419 7.04818 55.2539 8.37891L55.6094 8.625H55.6367L55.9648 8.54297H56.2109C56.7943 8.54297 57.487 8.32422 58.2891 7.88672C58.5807 7.72266 58.8997 7.28516 59.2461 6.57422C59.3737 6.30078 59.5104 6.16406 59.6562 6.16406L59.6016 5.89062L59.7656 5.28906V5.125C59.7656 5.10677 59.6927 5.07943 59.5469 5.04297L58.8633 3.23828C58.7539 3.03776 58.4714 2.90104 58.0156 2.82812C57.8333 2.60938 57.1497 2.33594 55.9648 2.00781C55.582 2.00781 54.8438 2.47266 53.75 3.40234C53.6042 3.78516 53.5312 4.39583 53.5312 5.23438ZM58.8906 2.11719H58.6445V2.14453C58.6992 2.27214 58.7995 2.33594 58.9453 2.33594H58.9727L59.0547 2.28125C59 2.20833 58.9453 2.15365 58.8906 2.11719ZM59.4102 2.60938V2.66406C59.5378 2.99219 59.6745 3.15625 59.8203 3.15625V3.01953C59.7109 2.74609 59.5742 2.60938 59.4102 2.60938ZM51.8086 3.40234V3.56641H51.8359C52.0911 3.47526 52.2188 3.29297 52.2188 3.01953V2.88281H52.1094C52.0182 2.88281 51.918 3.05599 51.8086 3.40234ZM51.9727 4.71484C51.9727 5.0612 52 5.23438 52.0547 5.23438H52.082C52.2643 5.23438 52.3828 5.11589 52.4375 4.87891V4.52344C52.4375 3.9401 52.5469 3.51172 52.7656 3.23828V3.01953H52.5195C52.4102 3.01953 52.3281 3.30208 52.2734 3.86719C52.2005 3.86719 52.1003 4.14974 51.9727 4.71484ZM59.6289 3.40234H59.4922V3.51172L59.4102 3.8125L59.6562 4.25C59.6562 4.41406 59.6927 4.53255 59.7656 4.60547L59.7383 4.79688V4.82422H59.7656L59.8477 4.71484V4.25C59.8477 3.6849 59.7747 3.40234 59.6289 3.40234ZM53.0664 4.76953L53.1484 4.82422C53.2031 4.73307 53.2305 4.64193 53.2305 4.55078H53.2031C53.112 4.58724 53.0664 4.66016 53.0664 4.76953ZM52.793 5.45312C52.9023 6.3099 53.1758 7.01172 53.6133 7.55859C54.1602 8.14193 54.5247 8.47005 54.707 8.54297H54.8164C54.8164 8.50651 54.5521 8.11458 54.0234 7.36719C53.4583 6.36458 53.1576 5.69922 53.1211 5.37109L52.957 5.23438H52.9297C52.8385 5.27083 52.793 5.34375 52.793 5.45312ZM60.2305 5.31641L60.1211 5.23438C59.9935 5.59896 59.9297 5.89062 59.9297 6.10938L59.957 6.13672H60.0391C60.1667 6.11849 60.2305 6 60.2305 5.78125V5.31641ZM51.8633 5.72656C51.9544 6.29167 52.2188 6.94792 52.6562 7.69531C52.7109 7.69531 52.875 7.90495 53.1484 8.32422C53.5312 8.77995 53.8867 9.00781 54.2148 9.00781H54.4062V8.95312C54.4062 8.89844 53.9596 8.47917 53.0664 7.69531C52.7018 7.27604 52.5195 6.99349 52.5195 6.84766C52.3919 6.68359 52.2734 6.22786 52.1641 5.48047L52.1094 5.45312H51.9727C51.8997 5.47135 51.8633 5.5625 51.8633 5.72656ZM58.4805 8.24219V8.26953H58.5352C58.8268 8.26953 59.2096 7.89583 59.6836 7.14844L59.7656 6.79297V6.60156L59.6836 6.46484C59.556 6.5013 59.3464 6.86589 59.0547 7.55859C58.9271 7.75911 58.7357 7.98698 58.4805 8.24219ZM57.2773 8.67969L57.332 8.73438H57.4688C57.5781 8.73438 57.7148 8.67969 57.8789 8.57031V8.48828C57.6237 8.48828 57.4232 8.55208 57.2773 8.67969ZM58.8633 8.76172L58.7539 8.81641C58.9909 8.94401 59.2096 9.00781 59.4102 9.00781L59.4375 8.95312V8.84375L59.3555 8.76172H58.8633ZM58.3711 9.11719L58.043 9.22656V9.28125C58.0794 9.35417 58.4805 9.52734 59.2461 9.80078C59.6107 10.0742 59.8385 10.2109 59.9297 10.2109V10.0469C59.4922 9.42708 58.9727 9.11719 58.3711 9.11719ZM54.8438 9.22656H54.6797V9.30859C54.6797 9.38151 54.8255 9.42708 55.1172 9.44531H55.3633L55.418 9.36328C55.418 9.27214 55.2266 9.22656 54.8438 9.22656ZM56.293 9.22656H55.9375V9.30859L55.9922 9.36328H56.1016C56.3932 9.36328 56.6576 9.33594 56.8945 9.28125V9.22656H56.293ZM52.5469 11.5781H52.6562C52.7839 11.5781 53.3125 11.0951 54.2422 10.1289C54.3333 10.1289 54.4609 10.0195 54.625 9.80078V9.77344C54.5885 9.66406 54.4883 9.60938 54.3242 9.60938H54.2148C53.9232 9.60938 53.5221 9.97396 53.0117 10.7031C52.9935 10.7031 52.9388 10.8307 52.8477 11.0859C52.6471 11.2865 52.5469 11.4505 52.5469 11.5781ZM53.75 12.125L53.8047 12.1797V12.207L53.9688 12.1797L54.0234 12.2617C53.4948 13.3737 53.2305 14.0664 53.2305 14.3398V14.4219C53.2305 16.2812 53.5404 17.4388 54.1602 17.8945C54.9076 18.6055 55.5365 18.9609 56.0469 18.9609H56.293L56.375 18.8789C56.3568 18.8424 56.0195 18.6784 55.3633 18.3867C54.7982 18.0404 54.4245 17.7578 54.2422 17.5391V17.4844H54.2969L55.7188 18.3047C56.849 18.6875 57.569 18.8789 57.8789 18.8789H57.9609C58.1068 18.8789 58.4076 18.6602 58.8633 18.2227V18.3867C59.3737 18.2044 59.793 17.8034 60.1211 17.1836L60.2305 16.8008V16.7461L59.8477 16.9375V16.9102C60.2852 16.2904 60.5039 15.862 60.5039 15.625C60.5039 14.8776 60.4128 14.2214 60.2305 13.6562V13.3555C60.2305 13.1367 60.1576 12.6354 60.0117 11.8516V11.8242L60.0938 11.7695L60.3398 11.9336V11.8789V11.7695C60.3398 11.569 60.2669 11.4232 60.1211 11.332H60.0391V11.6055H59.957C59.8841 11.5872 59.7656 11.3229 59.6016 10.8125C59.0547 10.0651 58.2982 9.69141 57.332 9.69141C55.4544 10.0195 54.5156 10.4297 54.5156 10.9219C54.5156 11.487 54.2604 11.888 53.75 12.125ZM53.0117 11.9883C53.1393 11.9883 53.2669 11.8971 53.3945 11.7148V11.6602H53.3398C53.1393 11.6602 53.0299 11.7695 53.0117 11.9883ZM52.4375 13.5742C52.4375 13.6654 52.5469 13.7292 52.7656 13.7656C52.9479 13.7656 53.0938 13.5833 53.2031 13.2188V13.0547C53.2031 13 53.0938 12.9727 52.875 12.9727L52.8477 12.9453V12.8906C52.8477 12.8359 52.9388 12.8086 53.1211 12.8086C53.194 12.8086 53.2852 12.6901 53.3945 12.4531V12.3984L53.3398 12.3438C53.2122 12.3438 53.0846 12.3802 52.957 12.4531V12.3984V12.3711V12.3438V12.1797H52.7656C52.5469 12.1797 52.4375 12.6445 52.4375 13.5742ZM61.2148 12.5352C61.2513 12.9727 61.306 13.2005 61.3789 13.2188C61.4336 13.2188 61.4701 13.1094 61.4883 12.8906C61.4336 12.599 61.3698 12.4531 61.2969 12.4531C61.2422 12.4531 61.2148 12.4805 61.2148 12.5352ZM60.8047 13.8477V13.957L60.8594 14.2578L60.7773 14.3672V14.5039C60.7773 14.6497 60.8229 14.7227 60.9141 14.7227H61.0508C61.1784 14.668 61.2422 14.5768 61.2422 14.4492V14.3398C61.1328 13.6836 61.0417 13.3555 60.9688 13.3555H60.9141C60.8411 13.3555 60.8047 13.5195 60.8047 13.8477ZM51.8633 15.8984C52.319 16.8828 52.6562 17.5026 52.875 17.7578H52.9297V17.7031L52.3281 15.1328C52.2552 14.8594 52.2188 14.5586 52.2188 14.2305L52.2734 13.6836L52.2461 13.6562H52.1094C52 13.6562 51.918 14.4036 51.8633 15.8984ZM61.9258 15.5156L61.9805 15.543H62.0078C62.099 15.5065 62.1445 15.4336 62.1445 15.3242H62.0898C62.0352 15.3242 61.9805 15.388 61.9258 15.5156ZM61.2969 16.6094L61.1875 16.6914V16.8555H61.2148L61.3242 16.7461V16.6094H61.2969ZM59.3281 17.5391L59.4375 17.4023H59.4922V17.4844L59.3555 17.6211H59.3281V17.5391ZM59.1094 17.8945V17.8125H59.2188V17.8945H59.1094ZM53.4766 18.0859H53.3945V18.4688C53.3945 18.7969 53.6497 19.0247 54.1602 19.1523H54.2148L54.2969 19.0977C54.151 18.7695 53.8776 18.4323 53.4766 18.0859ZM56.8945 18.9883L56.6484 19.0156V19.0977L56.6758 19.1523H56.9766C57.0859 19.1523 57.1497 19.125 57.168 19.0703V19.0156L57.0039 18.9883H56.8945ZM54.7617 19.2891L54.6797 19.3438V19.3984C54.9531 19.7448 55.5 19.918 56.3203 19.918C56.5573 19.8997 56.6758 19.8724 56.6758 19.8359V19.7539C56.457 19.7539 55.8555 19.599 54.8711 19.2891H54.7617ZM57.0859 19.6992V19.7812H57.1133C57.3685 19.7812 57.651 19.6628 57.9609 19.4258V19.3711H57.9336C57.3685 19.4987 57.0859 19.6081 57.0859 19.6992ZM73.4102 13.9844L73.5195 14.0117C73.6289 14.0482 73.6198 14.7773 73.4922 16.1992H73.5195C73.5013 16.3815 72.5625 16.3815 70.7031 16.1992C68.625 16.3268 67.2669 16.3359 66.6289 16.2266V16.1992C66.6471 16.0352 67.4401 15.9714 69.0078 16.0078C69.6458 15.9896 69.9831 15.9349 70.0195 15.8438L70.0469 15.8164L69.7734 15.7617C67.6224 15.5794 66.5104 15.707 66.4375 16.1445L66.2188 16.1992C65.599 16.1263 65.3893 15.4427 65.5898 14.1484C65.6445 13.8203 66.3828 13.6836 67.8047 13.7383C67.8047 13.7018 67.9049 13.7018 68.1055 13.7383L68.625 13.9297L68.8711 13.957L73.4102 13.9844ZM72.7812 14.3398L72.6172 14.3672L72.5898 14.4492L72.8359 14.4766H73L73.0273 14.3945L72.7812 14.3398ZM71.3594 14.4766L71.7148 14.5312C71.8789 14.5677 71.9883 14.5404 72.043 14.4492V14.4219H71.9609C71.5781 14.4036 71.3776 14.4219 71.3594 14.4766ZM69.8828 14.4766V14.5586H69.9375C70.1016 14.5951 70.2018 14.5677 70.2383 14.4766V14.4492H70.1289C70.0013 14.431 69.9193 14.4401 69.8828 14.4766ZM71.5781 15.0781L72.1523 15.1875C72.7539 15.2422 73.0911 15.2057 73.1641 15.0781V15.0234L73.0273 14.9688C72.0977 14.9505 71.6146 14.987 71.5781 15.0781ZM68.5703 14.5312L68.543 14.6406H68.5977C68.9987 14.6953 69.2995 14.6589 69.5 14.5312V14.5039L69.4453 14.4766C69.2812 14.4583 68.9896 14.4766 68.5703 14.5312ZM66.1367 14.1484L66.0547 14.2305L65.9727 14.5586L66.0547 14.6406V14.668C66.1094 14.668 66.1823 14.5586 66.2734 14.3398V14.2305L66.2461 14.1484H66.1367ZM66.9844 14.2578L66.8477 14.3672L66.8203 14.3945L66.9844 14.4219L67.0391 14.3672L67.0664 14.2852L66.9844 14.2578ZM71.0586 15.0234H70.9766V15.0781L71.1406 15.1328L71.0586 15.0234ZM70.5938 15.7891V15.8164H70.6211C72.2253 16.0169 73.0456 16.0716 73.082 15.9805V15.9531C73.082 15.8984 73.0365 15.8255 72.9453 15.7344H72.918C72.3529 15.6615 71.5781 15.6797 70.5938 15.7891ZM66 14.8867L65.918 14.9414V15.0234H65.9727L66.0547 14.9688V14.9141L66 14.8867ZM73.6289 10.5938L73.7383 10.6211C73.8841 10.6393 73.8021 11.3503 73.4922 12.7539L73.5195 12.7812C73.4648 12.9635 72.5352 12.8906 70.7305 12.5625C68.6523 12.4531 67.2852 12.3255 66.6289 12.1797L66.6562 12.0977C66.7109 11.9518 67.4948 11.9792 69.0078 12.1797C69.6823 12.2161 70.0378 12.1888 70.0742 12.0977V12.0703L69.8281 12.0156C67.6953 11.5964 66.5742 11.6055 66.4648 12.043L66.2461 12.0977C65.6445 11.9518 65.5078 11.2591 65.8359 10.0195C65.9089 9.69141 66.6562 9.61849 68.0781 9.80078C68.0964 9.78255 68.1966 9.78255 68.3789 9.80078L68.8711 10.0469L69.0898 10.1016L73.6289 10.5938ZM72.9453 10.8945H72.7812L72.7539 10.9492L73 11.0312H73.1914V10.9766L72.9453 10.8945ZM71.5508 10.8945L71.8789 10.9766C72.0612 11.013 72.1706 10.9857 72.207 10.8945L72.1523 10.8672C71.7513 10.8125 71.5508 10.8216 71.5508 10.8945ZM70.0742 10.7578V10.8125C70.2565 10.8672 70.375 10.8581 70.4297 10.7852L70.457 10.7305L70.293 10.7031C70.1836 10.6849 70.1107 10.7031 70.0742 10.7578ZM71.7148 11.4961L72.2617 11.6328C72.8268 11.7604 73.1549 11.7695 73.2461 11.6602L73.2734 11.5781L73.1641 11.5234C72.2344 11.4141 71.7513 11.4049 71.7148 11.4961ZM68.7617 10.6484L68.7344 10.7578L68.7617 10.7852C69.0898 10.8581 69.3997 10.849 69.6914 10.7578V10.7305L69.6367 10.7031C69.418 10.6484 69.1263 10.6302 68.7617 10.6484ZM66.3828 10.0469L66.2734 10.1016L66.1641 10.457L66.2461 10.5391C66.3008 10.5391 66.3828 10.4388 66.4922 10.2383L66.5195 10.1289L66.4375 10.0469H66.3828ZM67.2031 10.2383L67.0391 10.293V10.3477L67.2031 10.4023L67.2852 10.3203V10.293L67.2031 10.2383ZM71.1953 11.3867H71.1406L71.1133 11.4414L71.25 11.4961L71.1953 11.3867ZM70.6758 12.0977L70.6484 12.1523H70.6758C72.2617 12.5169 73.0729 12.6445 73.1094 12.5352L73.1367 12.5078C73.1367 12.4349 73.082 12.3529 72.9727 12.2617H72.9453C72.3802 12.1341 71.6237 12.0794 70.6758 12.0977ZM66.1641 10.7852H66.0547V10.8945H66.1367L66.2188 10.8398L66.2461 10.7852H66.1641ZM87.5195 0.859375V0.503906V0.476562C88.5221 0.585938 89.0234 0.740885 89.0234 0.941406C88.8594 1.94401 88.5404 4.55078 88.0664 8.76172C87.957 9.67318 87.8021 10.3659 87.6016 10.8398C87.1458 11.4596 86.8633 12.2435 86.7539 13.1914C86.8815 13.2826 87.6198 13.3828 88.9688 13.4922C89.4062 13.6562 89.7435 13.7383 89.9805 13.7383H90.2812L91.6758 13.6016H92.3047V13.5742C92.1953 12.4622 92.1042 10.3385 92.0312 7.20312C91.9583 6.80208 91.8763 6.57422 91.7852 6.51953C91.7852 6.42839 92.0859 6.33724 92.6875 6.24609C92.6875 6.19141 92.7695 6.15495 92.9336 6.13672C93.1706 6.13672 93.3164 6.22786 93.3711 6.41016L93.207 6.84766C93.5352 7.3763 93.6992 9.07161 93.6992 11.9336C93.6992 12.9544 93.7721 13.4648 93.918 13.4648H94C94.7109 13.4648 95.1849 13.3919 95.4219 13.2461L95.6133 13.3555L95.5859 13.6016V13.8203L95.6953 14.0117L95.668 14.2852C95.668 14.832 95.4674 15.1693 95.0664 15.2969C94.6654 15.4062 94.4648 15.5156 94.4648 15.625H94C93.9453 15.625 93.918 15.6523 93.918 15.707C94.0638 16.9648 94.1367 18.1406 94.1367 19.2344C94.2279 19.6354 94.2734 20.0456 94.2734 20.4648L94.4922 20.5742V20.6289C94.4922 20.7565 93.918 21.0026 92.7695 21.3672C92.6237 21.2396 92.4323 21.1758 92.1953 21.1758L92.1406 21.1211C92.3411 19.7721 92.4414 18.7878 92.4414 18.168C92.4414 16.3086 92.3229 15.3789 92.0859 15.3789L90.9375 15.3242H88.6133L87.793 15.4062C85.168 15.3698 83.8555 15.2422 83.8555 15.0234C83.8008 15.0234 83.7734 15.0052 83.7734 14.9688C84.3568 14.4219 84.6484 14.0117 84.6484 13.7383C84.9219 13.1003 85.0586 12.444 85.0586 11.7695C85.5508 10.4023 85.9062 8.50651 86.125 6.08203C86.125 5.77214 86.3164 4.48698 86.6992 2.22656C86.6992 1.91667 86.7904 1.48828 86.9727 0.941406H87C87.1094 1.05078 87.2096 1.10547 87.3008 1.10547H87.4375L87.5195 0.996094V0.859375ZM87.3281 2.11719V2.17188C87.3464 2.40885 87.3828 2.52734 87.4375 2.52734H87.4922V2.41797C87.4922 2.32682 87.5651 2.15365 87.7109 1.89844L87.793 1.46094V1.43359L87.7656 1.35156H87.6562C87.4375 1.35156 87.3281 1.60677 87.3281 2.11719ZM87.9297 3.42969V3.51172L88.0117 3.59375C88.0846 3.53906 88.1211 3.45703 88.1211 3.34766V3.12891H88.0938C88.0391 3.12891 87.9844 3.22917 87.9297 3.42969ZM86.4258 6.16406V6.19141L86.5352 6.27344H86.5625L86.7539 6.24609V6.08203L86.6445 5.86328L86.8359 4.90625H86.8086C86.5534 5.45312 86.4258 5.8724 86.4258 6.16406ZM87.5195 8.625V8.78906H87.6016C87.7109 8.7526 87.7656 8.67057 87.7656 8.54297V8.35156H87.6562C87.5651 8.40625 87.5195 8.4974 87.5195 8.625ZM86.4258 10.9766V11.0039C86.6445 11.0039 86.7539 10.8581 86.7539 10.5664V10.4297L86.7266 10.4023V10.375C86.599 10.375 86.4987 10.5755 86.4258 10.9766ZM92.7148 10.5391L92.6328 10.4844V10.5117V10.7031H92.7148V10.5391ZM86.4805 11.1133H86.3164V11.25H86.4258L86.4805 11.168V11.1133ZM92.6328 11.2773V11.6602C92.6328 11.7878 92.6602 11.8516 92.7148 11.8516L92.7695 11.7695V11.5781C92.7695 11.4141 92.724 11.3138 92.6328 11.2773ZM85.9336 12.6172L85.8516 12.6719V12.7266H85.9336L86.0156 12.6445V12.6172H85.9336ZM85.5234 13.7383L85.6055 13.8477H85.6875L86.0977 13.7656V13.7383C86.0612 13.6471 85.9792 13.6016 85.8516 13.6016H85.7422C85.6328 13.6016 85.5599 13.6471 85.5234 13.7383ZM95.1211 13.7383L94.3281 13.8203V13.875C94.3828 13.9479 94.5742 14.0026 94.9023 14.0391C95.0482 14.0391 95.1576 13.9753 95.2305 13.8477V13.7656C95.2305 13.7474 95.194 13.7383 95.1211 13.7383ZM86.9727 13.875L87.0273 13.957L87.6562 13.875V13.8477C87.6562 13.7747 87.5104 13.7383 87.2188 13.7383C87.0547 13.7565 86.9727 13.8021 86.9727 13.875ZM88.6406 14.6133C89.0417 14.7227 90.099 14.7773 91.8125 14.7773C92.1042 14.7773 92.3047 14.6953 92.4141 14.5312C92.4141 14.513 92.2591 14.4857 91.9492 14.4492C89.7435 14.4674 88.6406 14.5221 88.6406 14.6133ZM93.8906 14.4492L93.8086 14.5039V14.5586L94 14.7227L93.8633 14.9414V14.9688C93.8815 15.0234 93.9727 15.0508 94.1367 15.0508H94.3828C94.638 15.0508 94.8932 15.0234 95.1484 14.9688C95.1484 14.9323 94.9297 14.8503 94.4922 14.7227C94.4193 14.5404 94.2552 14.4492 94 14.4492H93.8906ZM92.8242 16.0898V16.1992L92.9062 16.2539L92.9336 16.1992V15.8984C92.8607 15.9167 92.8242 15.9805 92.8242 16.0898ZM93.5078 19.3711C93.526 19.5534 93.5716 19.6445 93.6445 19.6445L93.6992 19.6172V19.2891C93.6992 19.1432 93.6719 19.0521 93.6172 19.0156C93.5443 19.0156 93.5078 19.1341 93.5078 19.3711ZM92.7422 20.3828V20.4375H92.7695C92.8789 20.3828 92.9336 20.2826 92.9336 20.1367C92.806 20.1549 92.7422 20.237 92.7422 20.3828Z" fill="white"/>
</svg>
