<svg width="77" height="23" viewBox="0 0 77 23" fill="none" xmlns="http://www.w3.org/2000/svg">
<path d="M4.67578 0.273438C5.71484 0.382812 6.23438 0.53776 6.23438 0.738281C6.23438 0.920573 6.29818 1.01172 6.42578 1.01172L6.50781 1.09375L6.20703 1.33984V1.44922H6.28906C6.38021 1.33984 6.45312 1.28516 6.50781 1.28516C6.59896 1.28516 6.64453 1.39453 6.64453 1.61328L6.89062 9.10547C6.70833 9.88932 6.61719 11.4388 6.61719 13.7539V13.8633C6.61719 15.2669 6.65365 16.1784 6.72656 16.5977C6.58073 16.6523 6.50781 16.7708 6.50781 16.9531C6.50781 17.1901 6.55339 17.3086 6.64453 17.3086H6.72656V17.1172H6.78125C6.8724 17.1172 6.96354 17.5456 7.05469 18.4023L7 18.4297H6.89062C6.74479 18.2656 6.61719 18.1836 6.50781 18.1836V18.2383V18.3477C6.50781 18.6211 6.74479 18.7578 7.21875 18.7578C9.9349 18.612 11.293 18.6211 11.293 18.7852V18.8125C11.293 18.849 11.1562 18.9128 10.8828 19.0039L10.8555 19.0586V19.0859C10.8919 19.1224 11.056 19.1862 11.3477 19.2773C11.4206 19.3503 11.457 19.4505 11.457 19.5781C11.2747 20.5807 11.056 21.082 10.8008 21.082L10.2812 21.1367L8.85938 20.9727L7.98438 21.0273C3.09896 21.1003 0.65625 21.0456 0.65625 20.8633C0.510417 20.6628 0.4375 20.5169 0.4375 20.4258V20.3984L0.710938 19.4688L0.601562 19.2773C0.601562 19.0039 0.792969 18.8216 1.17578 18.7305L1.50391 18.6484L4.07422 18.5664C4.29297 18.5664 4.42057 18.4297 4.45703 18.1562V17.8828C4.45703 16.388 4.40234 15.1302 4.29297 14.1094C4.45703 8.71354 4.63021 6.01562 4.8125 6.01562L4.83984 5.66016C4.76693 4.11068 4.63932 3.33594 4.45703 3.33594C3.65495 3.86458 3.11719 4.38411 2.84375 4.89453L2.67969 4.97656C1.64062 4.59375 0.97526 4.22917 0.683594 3.88281C0.647135 3.88281 0.610677 3.75521 0.574219 3.5L0.628906 3.41797L0.820312 3.44531H1.01172C1.3763 3.44531 2.16016 2.81641 3.36328 1.55859C3.72786 1.23047 4.01953 0.856771 4.23828 0.4375C4.42057 0.328125 4.56641 0.273438 4.67578 0.273438ZM5.00391 1.20312V1.23047L5.03125 1.28516H5.08594C5.25 1.28516 5.34115 1.25781 5.35938 1.20312V1.17578L5.27734 1.09375H5.19531C5.06771 1.11198 5.00391 1.14844 5.00391 1.20312ZM4.18359 1.20312L4.07422 1.28516L4.15625 1.36719H4.23828L4.40234 1.33984V1.25781L4.32031 1.20312H4.18359ZM6.28906 1.77734L6.23438 1.85938V1.94141L6.28906 1.96875L6.37109 1.94141V1.85938L6.28906 1.77734ZM2.24219 4.04688V4.12891H2.26953C2.54297 4.12891 2.82552 3.95573 3.11719 3.60938C4.10156 2.69792 4.59375 2.14193 4.59375 1.94141H4.51172C3.49089 2.79818 2.73438 3.5 2.24219 4.04688ZM5.55078 2.70703V2.73438L5.6875 2.84375L5.76953 2.81641V2.54297L5.74219 2.48828V2.46094C5.61458 2.47917 5.55078 2.5612 5.55078 2.70703ZM5.44141 2.70703H5.33203L5.14062 3.17188V3.30859L5.25 3.41797H5.41406C5.52344 3.41797 5.58724 3.38151 5.60547 3.30859V3.22656C5.60547 3.17188 5.51432 3.10807 5.33203 3.03516H5.27734V2.92578C5.38672 2.83464 5.44141 2.76172 5.44141 2.70703ZM1.69531 3.66406V3.71875H1.80469C2.00521 3.71875 2.17839 3.58203 2.32422 3.30859L2.29688 3.25391H2.26953C2.01432 3.36328 1.82292 3.5 1.69531 3.66406ZM5.74219 4.64844L5.82422 6.53516H5.87891C5.98828 6.22526 6.04297 5.77865 6.04297 5.19531V4.40234C6.04297 3.80078 6.00651 3.5 5.93359 3.5C5.82422 3.5 5.76042 3.88281 5.74219 4.64844ZM5.74219 8.77734V9.07812L5.82422 9.59766H5.87891C6.02474 9.59766 6.09766 9.06901 6.09766 8.01172V7.84766L6.01562 7.76562C5.83333 7.83854 5.74219 8.17578 5.74219 8.77734ZM4.94922 13.7812H4.86719V13.918H4.94922V13.7812ZM5.82422 15.9688V15.9961V16.1875L5.93359 16.2695H5.98828L6.04297 16.2148V16.1328C6.00651 16.1328 5.93359 16.0781 5.82422 15.9688ZM6.01562 16.8164H5.98828C5.87891 17.1263 5.82422 17.5091 5.82422 17.9648V18.1836C5.82422 18.4023 5.91536 18.5482 6.09766 18.6211H6.15234C6.20703 18.6211 6.23438 18.5664 6.23438 18.457C6.21615 17.3633 6.14323 16.8164 6.01562 16.8164ZM4.86719 17.5L4.75781 17.6641L4.8125 17.7734H4.83984L4.94922 17.6641V17.6094L4.86719 17.5ZM5.33203 17.9648L5.25 18.0469V18.2383L5.33203 18.3203H5.41406V18.0469L5.33203 17.9648ZM1.85938 18.9219H1.61328V18.9766L1.72266 19.0859H1.77734L1.85938 18.9766V18.9219ZM1.80469 19.5781L1.03906 19.6602V19.7695L1.12109 19.8789H1.17578C1.35807 19.8789 1.56771 19.7786 1.80469 19.5781ZM7.10938 19.4688V19.5781L8.96875 19.2773H9.13281V19.168C8.71354 19.1133 8.03906 19.2135 7.10938 19.4688ZM2.67969 19.7695L2.07812 19.8516V19.9609H2.24219H2.48828C2.94401 19.9609 3.17188 19.9245 3.17188 19.8516L3.08984 19.7695H2.67969ZM4.83984 19.7148L4.8125 19.7695V19.7969C4.88542 19.8698 4.95833 19.9062 5.03125 19.9062V19.8516C4.99479 19.7604 4.93099 19.7148 4.83984 19.7148ZM4.34766 19.7695L4.29297 19.8516L4.34766 19.9062H4.45703L4.53906 19.8516V19.7695H4.34766ZM5.41406 19.9062L5.27734 19.9883V20.043C5.27734 20.1159 5.5599 20.1523 6.125 20.1523H6.15234C6.29818 20.1523 6.37109 20.0977 6.37109 19.9883C6.29818 19.9336 6.21615 19.9062 6.125 19.9062H5.41406ZM10.5547 20.1797V20.2891L10.6641 20.3984C10.8646 20.3984 10.9648 20.2526 10.9648 19.9609V19.7422L10.9102 19.6602H10.8008C10.6367 19.7878 10.5547 19.9609 10.5547 20.1797ZM6.89062 20.207C6.78125 20.3893 6.58984 20.4805 6.31641 20.4805V20.5352C6.31641 20.6081 6.59896 20.6536 7.16406 20.6719H7.21875C7.54688 20.4167 7.77474 20.1979 7.90234 20.0156C7.88411 19.9609 7.80208 19.9518 7.65625 19.9883C7.51042 20.0065 7.25521 20.0794 6.89062 20.207ZM8.85938 19.9609L8.25781 20.0156V20.0703C8.25781 20.125 8.52214 20.1523 9.05078 20.1523L9.07812 20.125V20.0977C9.04167 20.0065 8.96875 19.9609 8.85938 19.9609ZM9.48828 19.9609L9.40625 20.0156L9.43359 20.125H9.48828L9.57031 20.0703V20.0156L9.48828 19.9609ZM8.20312 20.3438H8.09375V20.3984H8.20312V20.3438ZM10.0898 20.7539V20.7812C10.0898 20.8177 10.1719 20.8542 10.3359 20.8906C10.5182 20.8724 10.6094 20.8268 10.6094 20.7539V20.6992L10.5 20.6172H10.3906C10.2266 20.6172 10.1263 20.6628 10.0898 20.7539ZM14.957 1.85938V1.50391V1.47656C15.9596 1.58594 16.4609 1.74089 16.4609 1.94141C16.2969 2.94401 15.9779 5.55078 15.5039 9.76172C15.3945 10.6732 15.2396 11.3659 15.0391 11.8398C14.5833 12.4596 14.3008 13.2435 14.1914 14.1914C14.319 14.2826 15.0573 14.3828 16.4062 14.4922C16.8438 14.6562 17.181 14.7383 17.418 14.7383H17.7188L19.1133 14.6016H19.7422V14.5742C19.6328 13.4622 19.5417 11.3385 19.4688 8.20312C19.3958 7.80208 19.3138 7.57422 19.2227 7.51953C19.2227 7.42839 19.5234 7.33724 20.125 7.24609C20.125 7.19141 20.207 7.15495 20.3711 7.13672C20.6081 7.13672 20.7539 7.22786 20.8086 7.41016L20.6445 7.84766C20.9727 8.3763 21.1367 10.0716 21.1367 12.9336C21.1367 13.9544 21.2096 14.4648 21.3555 14.4648H21.4375C22.1484 14.4648 22.6224 14.3919 22.8594 14.2461L23.0508 14.3555L23.0234 14.6016V14.8203L23.1328 15.0117L23.1055 15.2852C23.1055 15.832 22.9049 16.1693 22.5039 16.2969C22.1029 16.4062 21.9023 16.5156 21.9023 16.625H21.4375C21.3828 16.625 21.3555 16.6523 21.3555 16.707C21.5013 17.9648 21.5742 19.1406 21.5742 20.2344C21.6654 20.6354 21.7109 21.0456 21.7109 21.4648L21.9297 21.5742V21.6289C21.9297 21.7565 21.3555 22.0026 20.207 22.3672C20.0612 22.2396 19.8698 22.1758 19.6328 22.1758L19.5781 22.1211C19.7786 20.7721 19.8789 19.7878 19.8789 19.168C19.8789 17.3086 19.7604 16.3789 19.5234 16.3789L18.375 16.3242H16.0508L15.2305 16.4062C12.6055 16.3698 11.293 16.2422 11.293 16.0234C11.2383 16.0234 11.2109 16.0052 11.2109 15.9688C11.7943 15.4219 12.0859 15.0117 12.0859 14.7383C12.3594 14.1003 12.4961 13.444 12.4961 12.7695C12.9883 11.4023 13.3438 9.50651 13.5625 7.08203C13.5625 6.77214 13.7539 5.48698 14.1367 3.22656C14.1367 2.91667 14.2279 2.48828 14.4102 1.94141H14.4375C14.5469 2.05078 14.6471 2.10547 14.7383 2.10547H14.875L14.957 1.99609V1.85938ZM14.7656 3.11719V3.17188C14.7839 3.40885 14.8203 3.52734 14.875 3.52734H14.9297V3.41797C14.9297 3.32682 15.0026 3.15365 15.1484 2.89844L15.2305 2.46094V2.43359L15.2031 2.35156H15.0938C14.875 2.35156 14.7656 2.60677 14.7656 3.11719ZM15.3672 4.42969V4.51172L15.4492 4.59375C15.5221 4.53906 15.5586 4.45703 15.5586 4.34766V4.12891H15.5312C15.4766 4.12891 15.4219 4.22917 15.3672 4.42969ZM13.8633 7.16406V7.19141L13.9727 7.27344H14L14.1914 7.24609V7.08203L14.082 6.86328L14.2734 5.90625H14.2461C13.9909 6.45312 13.8633 6.8724 13.8633 7.16406ZM14.957 9.625V9.78906H15.0391C15.1484 9.7526 15.2031 9.67057 15.2031 9.54297V9.35156H15.0938C15.0026 9.40625 14.957 9.4974 14.957 9.625ZM13.8633 11.9766V12.0039C14.082 12.0039 14.1914 11.8581 14.1914 11.5664V11.4297L14.1641 11.4023V11.375C14.0365 11.375 13.9362 11.5755 13.8633 11.9766ZM20.1523 11.5391L20.0703 11.4844V11.5117V11.7031H20.1523V11.5391ZM13.918 12.1133H13.7539V12.25H13.8633L13.918 12.168V12.1133ZM20.0703 12.2773V12.6602C20.0703 12.7878 20.0977 12.8516 20.1523 12.8516L20.207 12.7695V12.5781C20.207 12.4141 20.1615 12.3138 20.0703 12.2773ZM13.3711 13.6172L13.2891 13.6719V13.7266H13.3711L13.4531 13.6445V13.6172H13.3711ZM12.9609 14.7383L13.043 14.8477H13.125L13.5352 14.7656V14.7383C13.4987 14.6471 13.4167 14.6016 13.2891 14.6016H13.1797C13.0703 14.6016 12.9974 14.6471 12.9609 14.7383ZM22.5586 14.7383L21.7656 14.8203V14.875C21.8203 14.9479 22.0117 15.0026 22.3398 15.0391C22.4857 15.0391 22.5951 14.9753 22.668 14.8477V14.7656C22.668 14.7474 22.6315 14.7383 22.5586 14.7383ZM14.4102 14.875L14.4648 14.957L15.0938 14.875V14.8477C15.0938 14.7747 14.9479 14.7383 14.6562 14.7383C14.4922 14.7565 14.4102 14.8021 14.4102 14.875ZM16.0781 15.6133C16.4792 15.7227 17.5365 15.7773 19.25 15.7773C19.5417 15.7773 19.7422 15.6953 19.8516 15.5312C19.8516 15.513 19.6966 15.4857 19.3867 15.4492C17.181 15.4674 16.0781 15.5221 16.0781 15.6133ZM21.3281 15.4492L21.2461 15.5039V15.5586L21.4375 15.7227L21.3008 15.9414V15.9688C21.319 16.0234 21.4102 16.0508 21.5742 16.0508H21.8203C22.0755 16.0508 22.3307 16.0234 22.5859 15.9688C22.5859 15.9323 22.3672 15.8503 21.9297 15.7227C21.8568 15.5404 21.6927 15.4492 21.4375 15.4492H21.3281ZM20.2617 17.0898V17.1992L20.3438 17.2539L20.3711 17.1992V16.8984C20.2982 16.9167 20.2617 16.9805 20.2617 17.0898ZM20.9453 20.3711C20.9635 20.5534 21.0091 20.6445 21.082 20.6445L21.1367 20.6172V20.2891C21.1367 20.1432 21.1094 20.0521 21.0547 20.0156C20.9818 20.0156 20.9453 20.1341 20.9453 20.3711ZM20.1797 21.3828V21.4375H20.207C20.3164 21.3828 20.3711 21.2826 20.3711 21.1367C20.2435 21.1549 20.1797 21.237 20.1797 21.3828ZM33.0039 11.3203H33.1406C33.25 11.3203 33.3594 12.0404 33.4688 13.4805H33.4961C33.4961 13.681 32.5664 13.8451 30.707 13.9727C28.556 14.3919 27.2161 14.6016 26.6875 14.6016V14.5469C26.6875 14.401 27.444 14.2279 28.957 14.0273C29.6315 13.8633 29.9688 13.7448 29.9688 13.6719V13.6445H29.6953C27.5443 13.7721 26.4688 14.0729 26.4688 14.5469L26.25 14.6562C25.6302 14.6562 25.3203 14.0091 25.3203 12.7148C25.3203 12.3685 26.0312 12.1224 27.4531 11.9766C27.4531 11.9219 27.5443 11.8945 27.7266 11.8945L28.2734 12.0039H28.5469L33.0039 11.3203ZM32.457 11.7852L32.293 11.8125V11.8945H32.5391L32.6758 11.8398V11.7852H32.457ZM31.0898 12.1133H31.418C31.6003 12.1133 31.7005 12.0768 31.7188 12.0039V11.9766H31.6641C31.2812 12.013 31.0898 12.0586 31.0898 12.1133ZM29.6406 12.3867V12.4414C29.8411 12.4414 29.9505 12.3867 29.9688 12.2773H29.832C29.7044 12.2773 29.6406 12.3138 29.6406 12.3867ZM31.3906 12.6875H31.9922C32.5755 12.651 32.8945 12.569 32.9492 12.4414V12.3867L32.8125 12.332C31.8646 12.4596 31.3906 12.5781 31.3906 12.6875ZM28.3281 12.6055V12.7148H28.3555C28.7383 12.7148 29.0299 12.6419 29.2305 12.4961V12.4414H29.1758C28.957 12.4414 28.6745 12.4961 28.3281 12.6055ZM25.8945 12.6055L25.7852 12.7148V13.0703L25.8398 13.125H25.8945C25.9492 13.125 25.9857 13.0065 26.0039 12.7695V12.6875L25.9492 12.6055H25.8945ZM26.6875 12.6055L26.6055 12.7148V12.7695H26.7422L26.7969 12.6875V12.6055H26.6875ZM30.8711 12.7148H30.8164V12.7695H30.9258L30.8711 12.7148ZM30.5156 13.5352V13.5625H30.5703C32.1927 13.5078 33.0039 13.4349 33.0039 13.3438V13.2891C32.9674 13.2344 32.9128 13.1797 32.8398 13.125H32.8125C32.1745 13.125 31.4089 13.2617 30.5156 13.5352ZM25.8398 13.3711L25.7852 13.4531V13.5078H25.8398L25.9219 13.4531V13.3711H25.8398ZM35.5195 1.20312C38.6185 1.45833 41.2617 1.6224 43.4492 1.69531C43.8138 1.84115 44.1875 1.96875 44.5703 2.07812H44.7344L44.7617 2.05078C44.8893 2.06901 44.9531 2.10547 44.9531 2.16016V2.24219C44.6432 2.4974 44.4883 3.14453 44.4883 4.18359V4.34766C44.4883 4.47526 44.5794 4.60286 44.7617 4.73047V4.75781L44.0508 7.10938C42.9023 8.71354 41.8633 10.3177 40.9336 11.9219C39.931 13.2526 39.2565 14.3099 38.9102 15.0938L38.8828 15.4492L39.0195 17.8008L38.7461 20.7266C38.7461 20.8359 38.4089 20.9453 37.7344 21.0547L37.4883 20.9453H37.1875L37.3789 20.7266V20.6719L37.3242 20.6172H37.2422C37.0599 20.6172 36.8958 20.6536 36.75 20.7266C36.5859 20.7266 36.5039 20.5443 36.5039 20.1797V19.2773L36.5312 17.1992L36.5039 16.2148C36.7044 15.3216 36.9961 14.5833 37.3789 14C37.8346 13.526 38.0625 13.1068 38.0625 12.7422C38.1354 12.7422 38.2083 12.6055 38.2812 12.332L39.5938 10.3906C40.3229 9.22396 40.9336 8.02995 41.4258 6.80859L41.5625 6.61719V6.53516L41.5078 6.48047L42.4102 4.12891V4.07422C42.1732 4.07422 41.6263 3.94661 40.7695 3.69141C40.1497 3.69141 39.5299 3.63672 38.9102 3.52734L38.3359 3.71875C37.0781 3.57292 36.3034 3.5 36.0117 3.5H35.793C35.5742 3.5 35.4648 3.51823 35.4648 3.55469C35.1549 3.55469 34.9271 3.18099 34.7812 2.43359C34.7448 2.43359 34.7266 2.36979 34.7266 2.24219C34.8177 1.8776 34.9635 1.69531 35.1641 1.69531L35.5195 1.72266V1.69531L35.2188 1.39453V1.36719C35.2188 1.3125 35.319 1.25781 35.5195 1.20312ZM36.4219 1.85938H36.0117V1.94141L36.2852 2.24219V2.26953H35.7109L35.6289 2.35156V2.40625L35.7383 2.48828H35.9023L36.2852 2.43359C37.069 2.57943 37.6797 2.65234 38.1172 2.65234H38.8555C38.8555 2.5612 38.5273 2.47917 37.8711 2.40625V2.32422C40.1133 2.47005 41.6263 2.63411 42.4102 2.81641H42.6016C42.638 2.81641 42.6562 2.77083 42.6562 2.67969C42.6562 2.42448 41.918 2.26953 40.4414 2.21484L36.4219 1.85938ZM39.7305 2.54297V2.67969L40.0312 2.73438H40.2227V2.67969C40.2227 2.60677 40.0586 2.5612 39.7305 2.54297ZM43.5859 2.54297C43.276 2.54297 43.1211 2.58854 43.1211 2.67969C43.1211 2.77083 43.3216 2.81641 43.7227 2.81641H43.7773L43.8867 2.67969V2.59766L43.6953 2.54297H43.5859ZM35.7656 2.92578L35.7109 3.00781C35.7109 3.11719 35.9388 3.17188 36.3945 3.17188H36.832C36.6133 3.00781 36.2669 2.92578 35.793 2.92578H35.7656ZM39.457 2.95312C39.457 3.02604 40.1589 3.13542 41.5625 3.28125L42.1641 3.44531H42.4102L42.5195 3.33594C42.5195 3.08073 41.4987 2.95312 39.457 2.95312ZM43.5859 3.22656L43.4492 3.36328V3.41797H43.5859L43.6406 3.22656H43.5859ZM43.0938 4.07422C43.1302 4.16536 43.1576 4.21094 43.1758 4.21094H43.2578L43.3945 4.07422V3.91016L43.3125 3.88281H43.1758C43.1211 3.91927 43.0938 3.98307 43.0938 4.07422ZM43.5859 4.73047V4.75781C43.5859 4.9401 43.6315 5.04948 43.7227 5.08594H43.8047C43.8958 5.08594 43.9414 4.77604 43.9414 4.15625L43.8867 4.04688C43.7773 4.11979 43.6771 4.34766 43.5859 4.73047ZM42.793 4.48438H42.7656L42.793 4.64844H42.9023V4.56641L42.793 4.48438ZM43.668 5.41406H43.5312V5.44141L43.4766 6.20703L43.5312 6.26172H43.5859C43.6224 6.26172 43.6862 6.07943 43.7773 5.71484V5.60547L43.668 5.41406ZM42.1914 5.63281H42.0547V5.71484L41.6719 6.83594V6.86328H41.7266C42.0547 6.37109 42.2279 6.00651 42.2461 5.76953V5.6875L42.1914 5.63281ZM40.5234 9.76172V9.81641H40.6875C40.8698 9.81641 41.1432 9.46094 41.5078 8.75C42.2734 7.51042 42.6562 6.79948 42.6562 6.61719V6.5625L42.6016 6.48047H42.4922C42.3646 6.58984 42.0182 7.11849 41.4531 8.06641C40.8333 9.03255 40.5234 9.59766 40.5234 9.76172ZM42.6016 7.84766H42.5742C42.0638 8.6862 41.8086 9.17839 41.8086 9.32422H41.8906C42.3828 8.75911 42.6289 8.26693 42.6289 7.84766H42.6016ZM41.3711 10.0625V10.1172C41.3893 10.1172 41.526 9.96224 41.7812 9.65234V9.57031H41.6992C41.4805 9.7526 41.3711 9.91667 41.3711 10.0625ZM40.7695 11.1016H40.8242C41.0794 10.8099 41.207 10.5729 41.207 10.3906V10.3359H41.1797C41.0339 10.3359 40.8971 10.5911 40.7695 11.1016ZM39.9219 12.0859V12.1953H40.0312L40.1953 11.8125L40.1406 11.7852C40.0312 11.7852 39.9583 11.8854 39.9219 12.0859ZM38.6641 12.1953V12.3047H38.7188C38.9922 12.1224 39.1289 11.9766 39.1289 11.8672H39.0742C38.9466 11.9036 38.8099 12.013 38.6641 12.1953ZM38.7461 13.0156H38.8008C38.8919 13.0156 38.9648 12.9518 39.0195 12.8242L38.9648 12.7695C38.819 12.806 38.7461 12.888 38.7461 13.0156ZM38.5273 13.2617L38.4453 13.3711V13.4531H38.4727L38.6094 13.3438V13.2617H38.5273ZM37.4883 14.5742H37.5156C37.8073 14.3919 37.9531 14.2461 37.9531 14.1367H37.9258C37.6341 14.2643 37.4883 14.4102 37.4883 14.5742ZM37.9531 14.957L37.8438 15.0664V15.0938H37.9805L38.0078 14.9844L37.9805 14.957H37.9531ZM37.8438 15.6406V16.1055C37.9896 16.5794 38.0625 16.862 38.0625 16.9531L38.1719 17.0078H38.1992C38.2539 17.0078 38.2995 16.8802 38.3359 16.625L38.1992 15.9414L38.2812 15.3672H38.2539L38.2266 15.3398C37.9714 15.431 37.8438 15.5312 37.8438 15.6406ZM37.3789 15.9961H37.2695V16.1055L37.3789 16.0234V15.9961ZM38.0078 18.4023H37.9258V18.4844C37.9258 18.6484 37.9714 18.7487 38.0625 18.7852H38.1172L38.1992 18.7031V18.6758C38.1992 18.5482 38.1354 18.457 38.0078 18.4023ZM37.7344 19.6602L37.6797 19.7695V19.8242H37.7344L37.7891 19.7695V19.6602H37.7344ZM36.9688 19.9609L36.832 20.0703V20.1797C36.8867 20.3073 37.0052 20.3711 37.1875 20.3711H37.5156C37.6797 20.3711 37.7708 20.3346 37.7891 20.2617C37.7891 20.0612 37.5885 19.9609 37.1875 19.9609H36.9688ZM38.2812 20.3438L38.2266 20.3984L38.2539 20.4531H38.3633V20.3438H38.2812ZM55.5352 14.9844L55.6445 15.0117C55.7539 15.0482 55.7448 15.7773 55.6172 17.1992H55.6445C55.6263 17.3815 54.6875 17.3815 52.8281 17.1992C50.75 17.3268 49.3919 17.3359 48.7539 17.2266V17.1992C48.7721 17.0352 49.5651 16.9714 51.1328 17.0078C51.7708 16.9896 52.1081 16.9349 52.1445 16.8438L52.1719 16.8164L51.8984 16.7617C49.7474 16.5794 48.6354 16.707 48.5625 17.1445L48.3438 17.1992C47.724 17.1263 47.5143 16.4427 47.7148 15.1484C47.7695 14.8203 48.5078 14.6836 49.9297 14.7383C49.9297 14.7018 50.0299 14.7018 50.2305 14.7383L50.75 14.9297L50.9961 14.957L55.5352 14.9844ZM54.9062 15.3398L54.7422 15.3672L54.7148 15.4492L54.9609 15.4766H55.125L55.1523 15.3945L54.9062 15.3398ZM53.4844 15.4766L53.8398 15.5312C54.0039 15.5677 54.1133 15.5404 54.168 15.4492V15.4219H54.0859C53.7031 15.4036 53.5026 15.4219 53.4844 15.4766ZM52.0078 15.4766V15.5586H52.0625C52.2266 15.5951 52.3268 15.5677 52.3633 15.4766V15.4492H52.2539C52.1263 15.431 52.0443 15.4401 52.0078 15.4766ZM53.7031 16.0781L54.2773 16.1875C54.8789 16.2422 55.2161 16.2057 55.2891 16.0781V16.0234L55.1523 15.9688C54.2227 15.9505 53.7396 15.987 53.7031 16.0781ZM50.6953 15.5312L50.668 15.6406H50.7227C51.1237 15.6953 51.4245 15.6589 51.625 15.5312V15.5039L51.5703 15.4766C51.4062 15.4583 51.1146 15.4766 50.6953 15.5312ZM48.2617 15.1484L48.1797 15.2305L48.0977 15.5586L48.1797 15.6406V15.668C48.2344 15.668 48.3073 15.5586 48.3984 15.3398V15.2305L48.3711 15.1484H48.2617ZM49.1094 15.2578L48.9727 15.3672L48.9453 15.3945L49.1094 15.4219L49.1641 15.3672L49.1914 15.2852L49.1094 15.2578ZM53.1836 16.0234H53.1016V16.0781L53.2656 16.1328L53.1836 16.0234ZM52.7188 16.7891V16.8164H52.7461C54.3503 17.0169 55.1706 17.0716 55.207 16.9805V16.9531C55.207 16.8984 55.1615 16.8255 55.0703 16.7344H55.043C54.4779 16.6615 53.7031 16.6797 52.7188 16.7891ZM48.125 15.8867L48.043 15.9414V16.0234H48.0977L48.1797 15.9688V15.9141L48.125 15.8867ZM55.7539 11.5938L55.8633 11.6211C56.0091 11.6393 55.9271 12.3503 55.6172 13.7539L55.6445 13.7812C55.5898 13.9635 54.6602 13.8906 52.8555 13.5625C50.7773 13.4531 49.4102 13.3255 48.7539 13.1797L48.7812 13.0977C48.8359 12.9518 49.6198 12.9792 51.1328 13.1797C51.8073 13.2161 52.1628 13.1888 52.1992 13.0977V13.0703L51.9531 13.0156C49.8203 12.5964 48.6992 12.6055 48.5898 13.043L48.3711 13.0977C47.7695 12.9518 47.6328 12.2591 47.9609 11.0195C48.0339 10.6914 48.7812 10.6185 50.2031 10.8008C50.2214 10.7826 50.3216 10.7826 50.5039 10.8008L50.9961 11.0469L51.2148 11.1016L55.7539 11.5938ZM55.0703 11.8945H54.9062L54.8789 11.9492L55.125 12.0312H55.3164V11.9766L55.0703 11.8945ZM53.6758 11.8945L54.0039 11.9766C54.1862 12.013 54.2956 11.9857 54.332 11.8945L54.2773 11.8672C53.8763 11.8125 53.6758 11.8216 53.6758 11.8945ZM52.1992 11.7578V11.8125C52.3815 11.8672 52.5 11.8581 52.5547 11.7852L52.582 11.7305L52.418 11.7031C52.3086 11.6849 52.2357 11.7031 52.1992 11.7578ZM53.8398 12.4961L54.3867 12.6328C54.9518 12.7604 55.2799 12.7695 55.3711 12.6602L55.3984 12.5781L55.2891 12.5234C54.3594 12.4141 53.8763 12.4049 53.8398 12.4961ZM50.8867 11.6484L50.8594 11.7578L50.8867 11.7852C51.2148 11.8581 51.5247 11.849 51.8164 11.7578V11.7305L51.7617 11.7031C51.543 11.6484 51.2513 11.6302 50.8867 11.6484ZM48.5078 11.0469L48.3984 11.1016L48.2891 11.457L48.3711 11.5391C48.4258 11.5391 48.5078 11.4388 48.6172 11.2383L48.6445 11.1289L48.5625 11.0469H48.5078ZM49.3281 11.2383L49.1641 11.293V11.3477L49.3281 11.4023L49.4102 11.3203V11.293L49.3281 11.2383ZM53.3203 12.3867H53.2656L53.2383 12.4414L53.375 12.4961L53.3203 12.3867ZM52.8008 13.0977L52.7734 13.1523H52.8008C54.3867 13.5169 55.1979 13.6445 55.2344 13.5352L55.2617 13.5078C55.2617 13.4349 55.207 13.3529 55.0977 13.2617H55.0703C54.5052 13.1341 53.7487 13.0794 52.8008 13.0977ZM48.2891 11.7852H48.1797V11.8945H48.2617L48.3438 11.8398L48.3711 11.7852H48.2891ZM67.1836 1.20312C70.2826 1.45833 72.9258 1.6224 75.1133 1.69531C75.4779 1.84115 75.8516 1.96875 76.2344 2.07812H76.3984L76.4258 2.05078C76.5534 2.06901 76.6172 2.10547 76.6172 2.16016V2.24219C76.3073 2.4974 76.1523 3.14453 76.1523 4.18359V4.34766C76.1523 4.47526 76.2435 4.60286 76.4258 4.73047V4.75781L75.7148 7.10938C74.5664 8.71354 73.5273 10.3177 72.5977 11.9219C71.5951 13.2526 70.9206 14.3099 70.5742 15.0938L70.5469 15.4492L70.6836 17.8008L70.4102 20.7266C70.4102 20.8359 70.0729 20.9453 69.3984 21.0547L69.1523 20.9453H68.8516L69.043 20.7266V20.6719L68.9883 20.6172H68.9062C68.724 20.6172 68.5599 20.6536 68.4141 20.7266C68.25 20.7266 68.168 20.5443 68.168 20.1797V19.2773L68.1953 17.1992L68.168 16.2148C68.3685 15.3216 68.6602 14.5833 69.043 14C69.4987 13.526 69.7266 13.1068 69.7266 12.7422C69.7995 12.7422 69.8724 12.6055 69.9453 12.332L71.2578 10.3906C71.987 9.22396 72.5977 8.02995 73.0898 6.80859L73.2266 6.61719V6.53516L73.1719 6.48047L74.0742 4.12891V4.07422C73.8372 4.07422 73.2904 3.94661 72.4336 3.69141C71.8138 3.69141 71.194 3.63672 70.5742 3.52734L70 3.71875C68.7422 3.57292 67.9674 3.5 67.6758 3.5H67.457C67.2383 3.5 67.1289 3.51823 67.1289 3.55469C66.819 3.55469 66.5911 3.18099 66.4453 2.43359C66.4089 2.43359 66.3906 2.36979 66.3906 2.24219C66.4818 1.8776 66.6276 1.69531 66.8281 1.69531L67.1836 1.72266V1.69531L66.8828 1.39453V1.36719C66.8828 1.3125 66.9831 1.25781 67.1836 1.20312ZM68.0859 1.85938H67.6758V1.94141L67.9492 2.24219V2.26953H67.375L67.293 2.35156V2.40625L67.4023 2.48828H67.5664L67.9492 2.43359C68.7331 2.57943 69.3438 2.65234 69.7812 2.65234H70.5195C70.5195 2.5612 70.1914 2.47917 69.5352 2.40625V2.32422C71.7773 2.47005 73.2904 2.63411 74.0742 2.81641H74.2656C74.3021 2.81641 74.3203 2.77083 74.3203 2.67969C74.3203 2.42448 73.582 2.26953 72.1055 2.21484L68.0859 1.85938ZM71.3945 2.54297V2.67969L71.6953 2.73438H71.8867V2.67969C71.8867 2.60677 71.7227 2.5612 71.3945 2.54297ZM75.25 2.54297C74.9401 2.54297 74.7852 2.58854 74.7852 2.67969C74.7852 2.77083 74.9857 2.81641 75.3867 2.81641H75.4414L75.5508 2.67969V2.59766L75.3594 2.54297H75.25ZM67.4297 2.92578L67.375 3.00781C67.375 3.11719 67.6029 3.17188 68.0586 3.17188H68.4961C68.2773 3.00781 67.931 2.92578 67.457 2.92578H67.4297ZM71.1211 2.95312C71.1211 3.02604 71.8229 3.13542 73.2266 3.28125L73.8281 3.44531H74.0742L74.1836 3.33594C74.1836 3.08073 73.1628 2.95312 71.1211 2.95312ZM75.25 3.22656L75.1133 3.36328V3.41797H75.25L75.3047 3.22656H75.25ZM74.7578 4.07422C74.7943 4.16536 74.8216 4.21094 74.8398 4.21094H74.9219L75.0586 4.07422V3.91016L74.9766 3.88281H74.8398C74.7852 3.91927 74.7578 3.98307 74.7578 4.07422ZM75.25 4.73047V4.75781C75.25 4.9401 75.2956 5.04948 75.3867 5.08594H75.4688C75.5599 5.08594 75.6055 4.77604 75.6055 4.15625L75.5508 4.04688C75.4414 4.11979 75.3411 4.34766 75.25 4.73047ZM74.457 4.48438H74.4297L74.457 4.64844H74.5664V4.56641L74.457 4.48438ZM75.332 5.41406H75.1953V5.44141L75.1406 6.20703L75.1953 6.26172H75.25C75.2865 6.26172 75.3503 6.07943 75.4414 5.71484V5.60547L75.332 5.41406ZM73.8555 5.63281H73.7188V5.71484L73.3359 6.83594V6.86328H73.3906C73.7188 6.37109 73.8919 6.00651 73.9102 5.76953V5.6875L73.8555 5.63281ZM72.1875 9.76172V9.81641H72.3516C72.5339 9.81641 72.8073 9.46094 73.1719 8.75C73.9375 7.51042 74.3203 6.79948 74.3203 6.61719V6.5625L74.2656 6.48047H74.1562C74.0286 6.58984 73.6823 7.11849 73.1172 8.06641C72.4974 9.03255 72.1875 9.59766 72.1875 9.76172ZM74.2656 7.84766H74.2383C73.7279 8.6862 73.4727 9.17839 73.4727 9.32422H73.5547C74.0469 8.75911 74.293 8.26693 74.293 7.84766H74.2656ZM73.0352 10.0625V10.1172C73.0534 10.1172 73.1901 9.96224 73.4453 9.65234V9.57031H73.3633C73.1445 9.7526 73.0352 9.91667 73.0352 10.0625ZM72.4336 11.1016H72.4883C72.7435 10.8099 72.8711 10.5729 72.8711 10.3906V10.3359H72.8438C72.6979 10.3359 72.5612 10.5911 72.4336 11.1016ZM71.5859 12.0859V12.1953H71.6953L71.8594 11.8125L71.8047 11.7852C71.6953 11.7852 71.6224 11.8854 71.5859 12.0859ZM70.3281 12.1953V12.3047H70.3828C70.6562 12.1224 70.793 11.9766 70.793 11.8672H70.7383C70.6107 11.9036 70.474 12.013 70.3281 12.1953ZM70.4102 13.0156H70.4648C70.556 13.0156 70.6289 12.9518 70.6836 12.8242L70.6289 12.7695C70.4831 12.806 70.4102 12.888 70.4102 13.0156ZM70.1914 13.2617L70.1094 13.3711V13.4531H70.1367L70.2734 13.3438V13.2617H70.1914ZM69.1523 14.5742H69.1797C69.4714 14.3919 69.6172 14.2461 69.6172 14.1367H69.5898C69.2982 14.2643 69.1523 14.4102 69.1523 14.5742ZM69.6172 14.957L69.5078 15.0664V15.0938H69.6445L69.6719 14.9844L69.6445 14.957H69.6172ZM69.5078 15.6406V16.1055C69.6536 16.5794 69.7266 16.862 69.7266 16.9531L69.8359 17.0078H69.8633C69.918 17.0078 69.9635 16.8802 70 16.625L69.8633 15.9414L69.9453 15.3672H69.918L69.8906 15.3398C69.6354 15.431 69.5078 15.5312 69.5078 15.6406ZM69.043 15.9961H68.9336V16.1055L69.043 16.0234V15.9961ZM69.6719 18.4023H69.5898V18.4844C69.5898 18.6484 69.6354 18.7487 69.7266 18.7852H69.7812L69.8633 18.7031V18.6758C69.8633 18.5482 69.7995 18.457 69.6719 18.4023ZM69.3984 19.6602L69.3438 19.7695V19.8242H69.3984L69.4531 19.7695V19.6602H69.3984ZM68.6328 19.9609L68.4961 20.0703V20.1797C68.5508 20.3073 68.6693 20.3711 68.8516 20.3711H69.1797C69.3438 20.3711 69.4349 20.3346 69.4531 20.2617C69.4531 20.0612 69.2526 19.9609 68.8516 19.9609H68.6328ZM69.9453 20.3438L69.8906 20.3984L69.918 20.4531H70.0273V20.3438H69.9453Z" fill="white"/>
</svg>
