<svg width="77" height="22" viewBox="0 0 77 22" fill="none" xmlns="http://www.w3.org/2000/svg">
<path d="M4.30664 0.273438C5.3457 0.382812 5.86523 0.53776 5.86523 0.738281C5.86523 0.920573 5.92904 1.01172 6.05664 1.01172L6.13867 1.09375L5.83789 1.33984V1.44922H5.91992C6.01107 1.33984 6.08398 1.28516 6.13867 1.28516C6.22982 1.28516 6.27539 1.39453 6.27539 1.61328L6.52148 9.10547C6.33919 9.88932 6.24805 11.4388 6.24805 13.7539V13.8633C6.24805 15.2669 6.28451 16.1784 6.35742 16.5977C6.21159 16.6523 6.13867 16.7708 6.13867 16.9531C6.13867 17.1901 6.18424 17.3086 6.27539 17.3086H6.35742V17.1172H6.41211C6.50326 17.1172 6.5944 17.5456 6.68555 18.4023L6.63086 18.4297H6.52148C6.37565 18.2656 6.24805 18.1836 6.13867 18.1836V18.2383V18.3477C6.13867 18.6211 6.37565 18.7578 6.84961 18.7578C9.56576 18.612 10.9238 18.6211 10.9238 18.7852V18.8125C10.9238 18.849 10.7871 18.9128 10.5137 19.0039L10.4863 19.0586V19.0859C10.5228 19.1224 10.6868 19.1862 10.9785 19.2773C11.0514 19.3503 11.0879 19.4505 11.0879 19.5781C10.9056 20.5807 10.6868 21.082 10.4316 21.082L9.91211 21.1367L8.49023 20.9727L7.61523 21.0273C2.72982 21.1003 0.287109 21.0456 0.287109 20.8633C0.141276 20.6628 0.0683594 20.5169 0.0683594 20.4258V20.3984L0.341797 19.4688L0.232422 19.2773C0.232422 19.0039 0.423828 18.8216 0.806641 18.7305L1.13477 18.6484L3.70508 18.5664C3.92383 18.5664 4.05143 18.4297 4.08789 18.1562V17.8828C4.08789 16.388 4.0332 15.1302 3.92383 14.1094C4.08789 8.71354 4.26107 6.01562 4.44336 6.01562L4.4707 5.66016C4.39779 4.11068 4.27018 3.33594 4.08789 3.33594C3.28581 3.86458 2.74805 4.38411 2.47461 4.89453L2.31055 4.97656C1.27148 4.59375 0.60612 4.22917 0.314453 3.88281C0.277995 3.88281 0.241536 3.75521 0.205078 3.5L0.259766 3.41797L0.451172 3.44531H0.642578C1.00716 3.44531 1.79102 2.81641 2.99414 1.55859C3.35872 1.23047 3.65039 0.856771 3.86914 0.4375C4.05143 0.328125 4.19727 0.273438 4.30664 0.273438ZM4.63477 1.20312V1.23047L4.66211 1.28516H4.7168C4.88086 1.28516 4.97201 1.25781 4.99023 1.20312V1.17578L4.9082 1.09375H4.82617C4.69857 1.11198 4.63477 1.14844 4.63477 1.20312ZM3.81445 1.20312L3.70508 1.28516L3.78711 1.36719H3.86914L4.0332 1.33984V1.25781L3.95117 1.20312H3.81445ZM5.91992 1.77734L5.86523 1.85938V1.94141L5.91992 1.96875L6.00195 1.94141V1.85938L5.91992 1.77734ZM1.87305 4.04688V4.12891H1.90039C2.17383 4.12891 2.45638 3.95573 2.74805 3.60938C3.73242 2.69792 4.22461 2.14193 4.22461 1.94141H4.14258C3.12174 2.79818 2.36523 3.5 1.87305 4.04688ZM5.18164 2.70703V2.73438L5.31836 2.84375L5.40039 2.81641V2.54297L5.37305 2.48828V2.46094C5.24544 2.47917 5.18164 2.5612 5.18164 2.70703ZM5.07227 2.70703H4.96289L4.77148 3.17188V3.30859L4.88086 3.41797H5.04492C5.1543 3.41797 5.2181 3.38151 5.23633 3.30859V3.22656C5.23633 3.17188 5.14518 3.10807 4.96289 3.03516H4.9082V2.92578C5.01758 2.83464 5.07227 2.76172 5.07227 2.70703ZM1.32617 3.66406V3.71875H1.43555C1.63607 3.71875 1.80924 3.58203 1.95508 3.30859L1.92773 3.25391H1.90039C1.64518 3.36328 1.45378 3.5 1.32617 3.66406ZM5.37305 4.64844L5.45508 6.53516H5.50977C5.61914 6.22526 5.67383 5.77865 5.67383 5.19531V4.40234C5.67383 3.80078 5.63737 3.5 5.56445 3.5C5.45508 3.5 5.39128 3.88281 5.37305 4.64844ZM5.37305 8.77734V9.07812L5.45508 9.59766H5.50977C5.6556 9.59766 5.72852 9.06901 5.72852 8.01172V7.84766L5.64648 7.76562C5.46419 7.83854 5.37305 8.17578 5.37305 8.77734ZM4.58008 13.7812H4.49805V13.918H4.58008V13.7812ZM5.45508 15.9688V15.9961V16.1875L5.56445 16.2695H5.61914L5.67383 16.2148V16.1328C5.63737 16.1328 5.56445 16.0781 5.45508 15.9688ZM5.64648 16.8164H5.61914C5.50977 17.1263 5.45508 17.5091 5.45508 17.9648V18.1836C5.45508 18.4023 5.54622 18.5482 5.72852 18.6211H5.7832C5.83789 18.6211 5.86523 18.5664 5.86523 18.457C5.84701 17.3633 5.77409 16.8164 5.64648 16.8164ZM4.49805 17.5L4.38867 17.6641L4.44336 17.7734H4.4707L4.58008 17.6641V17.6094L4.49805 17.5ZM4.96289 17.9648L4.88086 18.0469V18.2383L4.96289 18.3203H5.04492V18.0469L4.96289 17.9648ZM1.49023 18.9219H1.24414V18.9766L1.35352 19.0859H1.4082L1.49023 18.9766V18.9219ZM1.43555 19.5781L0.669922 19.6602V19.7695L0.751953 19.8789H0.806641C0.988932 19.8789 1.19857 19.7786 1.43555 19.5781ZM6.74023 19.4688V19.5781L8.59961 19.2773H8.76367V19.168C8.3444 19.1133 7.66992 19.2135 6.74023 19.4688ZM2.31055 19.7695L1.70898 19.8516V19.9609H1.87305H2.11914C2.57487 19.9609 2.80273 19.9245 2.80273 19.8516L2.7207 19.7695H2.31055ZM4.4707 19.7148L4.44336 19.7695V19.7969C4.51628 19.8698 4.58919 19.9062 4.66211 19.9062V19.8516C4.62565 19.7604 4.56185 19.7148 4.4707 19.7148ZM3.97852 19.7695L3.92383 19.8516L3.97852 19.9062H4.08789L4.16992 19.8516V19.7695H3.97852ZM5.04492 19.9062L4.9082 19.9883V20.043C4.9082 20.1159 5.19076 20.1523 5.75586 20.1523H5.7832C5.92904 20.1523 6.00195 20.0977 6.00195 19.9883C5.92904 19.9336 5.84701 19.9062 5.75586 19.9062H5.04492ZM10.1855 20.1797V20.2891L10.2949 20.3984C10.4954 20.3984 10.5957 20.2526 10.5957 19.9609V19.7422L10.541 19.6602H10.4316C10.2676 19.7878 10.1855 19.9609 10.1855 20.1797ZM6.52148 20.207C6.41211 20.3893 6.2207 20.4805 5.94727 20.4805V20.5352C5.94727 20.6081 6.22982 20.6536 6.79492 20.6719H6.84961C7.17773 20.4167 7.4056 20.1979 7.5332 20.0156C7.51497 19.9609 7.43294 19.9518 7.28711 19.9883C7.14128 20.0065 6.88607 20.0794 6.52148 20.207ZM8.49023 19.9609L7.88867 20.0156V20.0703C7.88867 20.125 8.15299 20.1523 8.68164 20.1523L8.70898 20.125V20.0977C8.67253 20.0065 8.59961 19.9609 8.49023 19.9609ZM9.11914 19.9609L9.03711 20.0156L9.06445 20.125H9.11914L9.20117 20.0703V20.0156L9.11914 19.9609ZM7.83398 20.3438H7.72461V20.3984H7.83398V20.3438ZM9.7207 20.7539V20.7812C9.7207 20.8177 9.80273 20.8542 9.9668 20.8906C10.1491 20.8724 10.2402 20.8268 10.2402 20.7539V20.6992L10.1309 20.6172H10.0215C9.85742 20.6172 9.75716 20.6628 9.7207 20.7539ZM18.416 2.1875L19.0176 2.10547C19.6191 2.10547 20.5579 2.32422 21.834 2.76172C22.5085 3.10807 22.8457 3.33594 22.8457 3.44531C23.4655 4.0651 23.7754 4.54818 23.7754 4.89453L24.2129 6.50781C24.0306 7.20052 23.6387 8.19401 23.0371 9.48828C22.2715 10.1263 21.1413 10.8828 19.6465 11.7578C18.4251 12.888 17.623 13.4714 17.2402 13.5078L16.0918 14.5469C14.4512 15.9688 13.6126 16.7161 13.5762 16.7891C13.4121 17.1354 13.2663 17.582 13.1387 18.1289V18.1836C13.1387 18.3294 13.5853 18.4297 14.4785 18.4844V18.5938L13.6035 18.6484V18.7578C15.1895 19.0312 16.2559 19.168 16.8027 19.168C16.7663 19.1133 16.11 18.931 14.834 18.6211V18.5391H14.8613C15.2077 18.5391 15.9368 18.6758 17.0488 18.9492L18.5801 19.0586L19.8926 18.9219H20.5762C21.7793 18.9948 22.4355 19.1589 22.5449 19.4141L23.3652 19.6602L23.5293 19.7695V19.8789L23.0918 19.9883V20.0156L23.2012 20.1523H23.2559L23.6387 20.0977V20.1523C23.6022 20.9544 23.5475 21.3555 23.4746 21.3555L20.2754 21.2461H19.6191C19.1634 21.2461 18.5436 21.2917 17.7598 21.3828C15.0072 21.0547 13.0931 20.8906 12.0176 20.8906C11.6895 20.8177 11.5254 20.6536 11.5254 20.3984C11.3978 20.0703 11.334 19.6602 11.334 19.168V18.3477C11.334 16.7617 11.5163 15.7591 11.8809 15.3398L12.5645 14.9023C12.6738 14.7018 12.7285 14.5378 12.7285 14.4102C13.8952 13.4622 14.515 12.9883 14.5879 12.9883C15.0801 12.806 15.7546 12.3411 16.6113 11.5938H16.748C16.5111 11.8854 16.3197 12.0312 16.1738 12.0312V12.1406H16.3379C16.5749 12.013 16.8118 11.8125 17.0488 11.5391V11.4844H16.9395V11.4023L18.9082 10.1719C19.9108 9.47917 20.7038 8.84115 21.2871 8.25781C21.7246 7.76562 22.0072 7.11849 22.1348 6.31641C22.1348 5.60547 21.834 5.06771 21.2324 4.70312C21.0319 4.63021 20.2116 4.52995 18.7715 4.40234C18.7715 4.38411 18.6257 4.36589 18.334 4.34766C17.7142 4.34766 17.1309 4.71224 16.584 5.44141C16.4382 5.76953 16.3652 6.01562 16.3652 6.17969V6.37109H16.4199C16.4199 6.53516 16.1191 6.65365 15.5176 6.72656L14.3691 6.89062V6.91797L14.2051 6.89062H13.9863L13.3027 6.97266L13.248 6.86328C13.5033 5.60547 13.7858 4.82161 14.0957 4.51172C15.1348 3.5638 15.8639 3.07161 16.2832 3.03516C16.5931 2.76172 17.304 2.47917 18.416 2.1875ZM19.5098 2.37891H19.2363V2.43359L19.4004 2.65234H19.6465L19.7559 2.51562V2.48828C19.7376 2.41536 19.6556 2.37891 19.5098 2.37891ZM17.7598 2.78906V2.84375H17.7871C18.5345 2.84375 18.9082 2.76172 18.9082 2.59766L18.7715 2.48828H18.4434C17.9876 2.59766 17.7598 2.69792 17.7598 2.78906ZM21.1777 2.67969H21.1504V2.73438C21.1504 2.84375 21.3874 2.95312 21.8613 3.0625V3.03516C21.8613 2.92578 21.6335 2.80729 21.1777 2.67969ZM16.748 3.19922V3.28125H17.1035L17.2129 3.17188V3.14453L17.0488 3.11719C16.8483 3.15365 16.748 3.18099 16.748 3.19922ZM17.1309 4.23828L17.0488 4.34766V4.40234H17.2129L17.2949 4.29297V4.23828H17.1309ZM21.8887 4.29297L21.834 4.34766V4.40234C21.9069 4.52995 22.0072 4.59375 22.1348 4.59375H22.1621C22.2168 4.59375 22.2441 4.55729 22.2441 4.48438C22.2441 4.39323 22.1439 4.32943 21.9434 4.29297H21.8887ZM22.2988 4.70312V4.75781C22.627 4.79427 22.791 4.9401 22.791 5.19531L22.9551 5.38672V5.19531C22.9551 4.79427 22.8275 4.59375 22.5723 4.59375C22.4082 4.59375 22.3171 4.63021 22.2988 4.70312ZM16.2559 5.25L16.3105 5.30469H16.3379C16.6113 5.15885 16.748 5.01302 16.748 4.86719V4.83984H16.6387C16.5658 4.83984 16.4382 4.97656 16.2559 5.25ZM15.4902 5.98828H15.3535V6.09766L15.4629 6.125H15.4902V5.98828ZM23.4746 6.91797L23.3652 7.05469V7.13672H23.4199L23.502 7.05469V6.91797H23.4746ZM22.8457 8.01172H22.709V8.14844C22.8366 8.14844 22.9004 8.20312 22.9004 8.3125H22.9824V8.14844L22.8457 8.01172ZM22.3535 8.99609L22.3809 9.05078V9.07812C22.4902 9.02344 22.5996 8.91406 22.709 8.75V8.69531H22.6543C22.5267 8.76823 22.4264 8.86849 22.3535 8.99609ZM21.6152 9.54297H21.6699L21.9707 9.48828C21.9707 9.34245 21.9069 9.26953 21.7793 9.26953C21.6699 9.28776 21.6152 9.37891 21.6152 9.54297ZM21.5605 10.0625V10.1172C21.9069 10.0807 22.2259 9.88932 22.5176 9.54297L22.4629 9.48828C22.0436 9.70703 21.7428 9.89844 21.5605 10.0625ZM20.3301 10.582L20.248 10.6094V10.7188H20.3027L20.3848 10.6367L20.3301 10.6094V10.582ZM16.0645 13.8633V13.9453H16.1465C16.2559 13.9453 16.502 13.7812 16.8848 13.4531C16.9759 13.4531 17.0671 13.3438 17.1582 13.125L17.2129 13.0977V13.0156H17.1309C16.9121 13.0156 16.5566 13.2982 16.0645 13.8633ZM14.3418 13.7266V13.8086H14.3691C14.6061 13.8086 14.7975 13.6263 14.9434 13.2617H14.8066C14.4967 13.5169 14.3418 13.6719 14.3418 13.7266ZM13.4395 14.2188H13.084L13.1113 14.4922C12.8561 14.7474 12.7285 14.9115 12.7285 14.9844H12.8379C13.166 14.8021 13.3939 14.5742 13.5215 14.3008V14.2461L13.4395 14.2188ZM15.4902 14.4922L15.3535 14.5742V14.6562H15.4629L15.5723 14.5469V14.4922H15.4902ZM13.3027 16.0508V16.1602H13.3848C13.5853 16.0143 13.6855 15.8685 13.6855 15.7227V15.6953H13.6035C13.403 15.8047 13.3027 15.9232 13.3027 16.0508ZM12.5645 18.9766L12.4824 19.0586V19.168L12.5645 19.2773L12.6191 19.168V19.0586L12.5645 18.9766ZM13.3027 19.0586L13.1934 19.1406L13.248 19.168H13.6035V19.0859L13.4121 19.0586H13.3027ZM20.7402 19.2773L20.5488 19.3047V19.332L20.6582 19.4414H21.0137L21.0957 19.3867V19.3047L20.7402 19.2773ZM11.8262 19.8242L11.7168 19.8789V19.9062L11.7988 19.9883H11.8262L11.9082 19.9062L11.8262 19.8242ZM12.4004 20.3984V20.4258L12.6191 20.4531C12.8926 20.4167 13.0293 20.3802 13.0293 20.3438L13.002 20.2891H12.6191C12.4733 20.3255 12.4004 20.362 12.4004 20.3984ZM21.2598 20.6992H21.5605C21.8158 20.6628 21.9434 20.6172 21.9434 20.5625L21.8613 20.4531H21.6973C21.6061 20.4531 21.4603 20.5352 21.2598 20.6992ZM22.2441 20.8633L22.3535 20.918H22.6543C22.9277 20.918 23.0645 20.8724 23.0645 20.7812V20.7539C23.0645 20.6992 23.028 20.6719 22.9551 20.6719C22.5176 20.6901 22.2806 20.7539 22.2441 20.8633ZM33.373 11.3203H33.5098C33.6191 11.3203 33.7285 12.0404 33.8379 13.4805H33.8652C33.8652 13.681 32.9355 13.8451 31.0762 13.9727C28.9251 14.3919 27.5853 14.6016 27.0566 14.6016V14.5469C27.0566 14.401 27.8132 14.2279 29.3262 14.0273C30.0007 13.8633 30.3379 13.7448 30.3379 13.6719V13.6445H30.0645C27.9134 13.7721 26.8379 14.0729 26.8379 14.5469L26.6191 14.6562C25.9993 14.6562 25.6895 14.0091 25.6895 12.7148C25.6895 12.3685 26.4004 12.1224 27.8223 11.9766C27.8223 11.9219 27.9134 11.8945 28.0957 11.8945L28.6426 12.0039H28.916L33.373 11.3203ZM32.8262 11.7852L32.6621 11.8125V11.8945H32.9082L33.0449 11.8398V11.7852H32.8262ZM31.459 12.1133H31.7871C31.9694 12.1133 32.0697 12.0768 32.0879 12.0039V11.9766H32.0332C31.6504 12.013 31.459 12.0586 31.459 12.1133ZM30.0098 12.3867V12.4414C30.2103 12.4414 30.3197 12.3867 30.3379 12.2773H30.2012C30.0736 12.2773 30.0098 12.3138 30.0098 12.3867ZM31.7598 12.6875H32.3613C32.9447 12.651 33.2637 12.569 33.3184 12.4414V12.3867L33.1816 12.332C32.2337 12.4596 31.7598 12.5781 31.7598 12.6875ZM28.6973 12.6055V12.7148H28.7246C29.1074 12.7148 29.3991 12.6419 29.5996 12.4961V12.4414H29.5449C29.3262 12.4414 29.0436 12.4961 28.6973 12.6055ZM26.2637 12.6055L26.1543 12.7148V13.0703L26.209 13.125H26.2637C26.3184 13.125 26.3548 13.0065 26.373 12.7695V12.6875L26.3184 12.6055H26.2637ZM27.0566 12.6055L26.9746 12.7148V12.7695H27.1113L27.166 12.6875V12.6055H27.0566ZM31.2402 12.7148H31.1855V12.7695H31.2949L31.2402 12.7148ZM30.8848 13.5352V13.5625H30.9395C32.5618 13.5078 33.373 13.4349 33.373 13.3438V13.2891C33.3366 13.2344 33.2819 13.1797 33.209 13.125H33.1816C32.5436 13.125 31.778 13.2617 30.8848 13.5352ZM26.209 13.3711L26.1543 13.4531V13.5078H26.209L26.291 13.4531V13.3711H26.209ZM43.1895 3.28125C44.3743 3.28125 45.0579 3.3724 45.2402 3.55469C45.0944 3.66406 45.0215 3.76432 45.0215 3.85547V3.91016L45.1309 4.48438V4.51172C45.1309 5.07682 45.0215 5.35938 44.8027 5.35938L44.3926 5.22266H44.2832L43.0527 5.38672L42.6426 5.35938C42.4056 5.3776 41.7676 5.86979 40.7285 6.83594L40.5645 7.08203C40.1816 7.30078 39.8991 7.59245 39.7168 7.95703C39.4798 8.19401 39.1699 8.6862 38.7871 9.43359C38.7324 9.43359 38.6595 9.58854 38.5684 9.89844C38.1126 10.2083 37.821 10.5638 37.6934 10.9648C37.5658 11.0924 37.2741 11.5482 36.8184 12.332C36.5632 12.6602 36.3809 12.9609 36.2715 13.2344L36.1621 13.3438V13.3711H36.2988C36.3717 13.3711 36.5267 13.1797 36.7637 12.7969C36.8366 12.7969 37.2832 12.5234 38.1035 11.9766C39.2155 11.3568 39.9629 11.0469 40.3457 11.0469C41.0566 11.0469 41.9316 11.3021 42.9707 11.8125C43.9186 12.7057 44.4473 13.3164 44.5566 13.6445C44.8483 13.8451 45.0579 14.3646 45.1855 15.2031C44.8939 16.7161 44.5749 17.7734 44.2285 18.375C43.2624 19.651 42.7793 20.3255 42.7793 20.3984L42.834 20.5625C42.3783 20.9453 42.0319 21.1732 41.7949 21.2461C40.0814 21.1549 39.1061 21.0911 38.8691 21.0547C38.5228 20.8359 38.0853 20.6536 37.5566 20.5078L36.3809 19.6602C35.597 18.694 35.2051 17.6185 35.2051 16.4336C35.1322 16.3607 35.0684 15.7318 35.0137 14.5469C35.0137 14.1458 35.2324 13.3893 35.6699 12.2773C35.6699 11.931 35.8887 11.3112 36.3262 10.418C36.5449 9.2513 37.3105 7.90234 38.623 6.37109C40.3548 4.62109 41.3118 3.74609 41.4941 3.74609C42.2233 3.4362 42.7884 3.28125 43.1895 3.28125ZM44.748 3.66406H44.584V3.71875L44.7207 3.82812H44.748L44.8027 3.74609V3.71875L44.748 3.66406ZM37.0098 9.43359V9.54297H37.0918C37.1465 9.54297 37.1738 9.47005 37.1738 9.32422C37.6842 8.8138 38.1764 8.08464 38.6504 7.13672C40.1816 5.49609 41.1751 4.63021 41.6309 4.53906C42.3053 4.21094 42.6426 3.94661 42.6426 3.74609V3.69141H42.5605C41.959 3.80078 41.3665 4.11068 40.7832 4.62109C39.5436 5.86068 38.696 6.75391 38.2402 7.30078C37.4564 8.3763 37.0462 9.08724 37.0098 9.43359ZM43.3535 4.07422V4.12891H43.791C43.9733 4.12891 44.1465 4.07422 44.3105 3.96484V3.80078L44.2285 3.69141H43.9824C43.8184 3.69141 43.6087 3.81901 43.3535 4.07422ZM44.4473 3.91016L44.3926 3.99219V4.01953L44.4473 4.12891H44.5566L44.6387 4.01953V3.99219L44.5566 3.91016H44.4473ZM40.8926 5.38672V5.49609H40.9473C41.3118 5.35026 41.7676 5.1224 42.3145 4.8125C42.5697 4.8125 42.7793 4.71224 42.9434 4.51172V4.48438H42.8613C42.6061 4.48438 41.9499 4.78516 40.8926 5.38672ZM43.1074 5.00391V5.11328H43.2715C43.9277 4.91276 44.2559 4.79427 44.2559 4.75781V4.67578L44.0645 4.64844C43.7728 4.64844 43.4538 4.76693 43.1074 5.00391ZM37.2832 9.78906L37.1738 9.84375L37.2285 9.95312H37.2559C37.3652 9.95312 37.6022 9.66146 37.9668 9.07812C38.4043 8.51302 38.86 7.96615 39.334 7.4375C39.4434 7.27344 40.0996 6.6901 41.3027 5.6875L41.4668 5.49609H41.4121C40.8288 5.49609 40.0632 5.95182 39.1152 6.86328C38.2767 8.08464 37.666 9.0599 37.2832 9.78906ZM36.5449 11.1289V11.293C36.7637 11.2383 36.873 11.1016 36.873 10.8828V10.8555H36.709C36.5996 10.9102 36.5449 11.0013 36.5449 11.1289ZM39.3887 11.8398V11.9219H39.5801C39.8353 11.776 40.446 11.6667 41.4121 11.5938V11.5664C41.2845 11.4388 41.0749 11.375 40.7832 11.375H40.5098C40.127 11.375 39.7533 11.5299 39.3887 11.8398ZM38.5957 12.332L38.0215 12.7695V12.8516C38.1673 12.8516 38.3952 12.6966 38.7051 12.3867V12.332H38.5957ZM43.3809 12.6055V12.7148C43.5814 13.2253 43.873 13.5716 44.2559 13.7539H44.4473V13.6719C43.9733 12.9792 43.6178 12.6237 43.3809 12.6055ZM40.5371 12.6602L40.4551 12.7148V12.7695H40.6191L40.7012 12.7148L40.6191 12.6602H40.5371ZM42.4785 12.8789H42.2324V12.9609L42.3145 13.0703H42.3691L42.4785 12.9609V12.8789ZM36.709 14.9297L36.6543 15.0117C36.6543 15.9596 37.028 17.263 37.7754 18.9219C38.7415 19.5417 39.4251 19.8516 39.8262 19.8516C41.1569 19.8516 42.1868 19.1042 42.916 17.6094L43.0254 16.9258C43.0254 15.3034 42.7702 14.2461 42.2598 13.7539C41.5671 13.2982 40.7194 13.0703 39.7168 13.0703C39.4434 13.1615 38.8236 13.5169 37.8574 14.1367C37.3652 14.2643 36.9824 14.5286 36.709 14.9297ZM43.2715 13.8086L42.834 13.8906V13.9727C43.071 14.1914 43.1895 14.401 43.1895 14.6016H43.2715L43.3262 14.0273V14L43.2715 13.8086ZM35.752 14.5469V14.6562C35.752 14.7109 35.7884 14.7383 35.8613 14.7383C36.0072 14.7383 36.2168 14.5924 36.4902 14.3008V14.2461L36.3809 14.1367C36.1257 14.1367 35.916 14.2734 35.752 14.5469ZM44.3379 14.9297L44.2832 14.9844V15.5039L44.4473 15.6406L44.5293 15.5586V15.2305C44.5293 15.0664 44.4837 14.9661 44.3926 14.9297H44.3379ZM43.5996 15.1484H43.4902L43.4355 15.2852V15.4766L43.4902 15.5312H43.5176C43.5905 15.5312 43.627 15.4219 43.627 15.2031L43.5996 15.1484ZM35.8887 15.5039C35.8887 15.6497 36.1074 16.2695 36.5449 17.3633H36.5723L36.627 17.3086C36.6087 16.7799 36.4538 16.0781 36.1621 15.2031C35.9798 15.2031 35.8887 15.3034 35.8887 15.5039ZM35.5332 16.1602H35.4238V16.4336L35.4785 16.5156H35.5879V16.3242L35.5332 16.1602ZM44.0645 16.2969L43.9551 16.4336V16.5156L43.9824 16.707H44.0098C44.1191 16.6523 44.1738 16.543 44.1738 16.3789L44.0645 16.2969ZM43.3535 16.5156L43.2715 16.625V16.6523L43.3809 16.7344H43.4629L43.5449 16.6523V16.625L43.4902 16.5156H43.3535ZM35.5879 16.707L35.4785 16.8164V17.0078C35.5879 17.6823 35.7155 18.0195 35.8613 18.0195L35.8887 17.9375V17.6367C35.8887 17.0169 35.7884 16.707 35.5879 16.707ZM43.627 17.1992H43.5449V17.2539L43.6543 17.3633H43.709V17.3086L43.627 17.1992ZM36.5723 18.0195H36.4629V18.1289L36.5996 18.2656H36.6543V18.1289L36.5723 18.0195ZM43.5996 18.1836L43.0527 18.9219V18.9766L43.1621 19.0586C43.5267 18.5846 43.709 18.293 43.709 18.1836H43.5996ZM36.0801 18.457L36.0527 18.5938C36.1074 18.6849 36.1439 18.7305 36.1621 18.7305H36.2168V18.7031C36.2168 18.5755 36.1712 18.4935 36.0801 18.457ZM36.873 18.7305L36.8184 18.8125V18.8945C37.0007 19.1862 37.1921 19.332 37.3926 19.332H37.4199V19.2773C37.4199 19.2044 37.2467 19.0221 36.9004 18.7305H36.873ZM42.3691 19.3867L41.4121 20.0703V20.0977L41.4941 20.1523C41.804 20.1523 42.1322 19.9245 42.4785 19.4688V19.3867H42.3691ZM38.2402 19.8516C38.2767 19.9609 38.3223 20.0339 38.377 20.0703H38.5137C38.6777 20.0703 38.778 20.0156 38.8145 19.9062V19.8789C38.8145 19.806 38.696 19.7604 38.459 19.7422H38.2949C38.2585 19.7422 38.2402 19.7786 38.2402 19.8516ZM39.1973 20.0156H39.1152V20.0977L39.1973 20.1523H39.252V20.0977L39.1973 20.0156ZM39.334 20.2891C39.4798 20.3802 39.6439 20.4258 39.8262 20.4258C40.0996 20.4258 40.3092 20.362 40.4551 20.2344V20.1797H39.7168C39.4616 20.1797 39.334 20.2161 39.334 20.2891ZM42.2871 20.2344L41.4668 20.6445V20.6992H41.5488C41.8587 20.6992 42.1322 20.5534 42.3691 20.2617V20.2344H42.2871ZM55.9043 14.9844L56.0137 15.0117C56.123 15.0482 56.1139 15.7773 55.9863 17.1992H56.0137C55.9954 17.3815 55.0566 17.3815 53.1973 17.1992C51.1191 17.3268 49.7611 17.3359 49.123 17.2266V17.1992C49.1413 17.0352 49.9342 16.9714 51.502 17.0078C52.14 16.9896 52.4772 16.9349 52.5137 16.8438L52.541 16.8164L52.2676 16.7617C50.1165 16.5794 49.0046 16.707 48.9316 17.1445L48.7129 17.1992C48.0931 17.1263 47.8835 16.4427 48.084 15.1484C48.1387 14.8203 48.877 14.6836 50.2988 14.7383C50.2988 14.7018 50.3991 14.7018 50.5996 14.7383L51.1191 14.9297L51.3652 14.957L55.9043 14.9844ZM55.2754 15.3398L55.1113 15.3672L55.084 15.4492L55.3301 15.4766H55.4941L55.5215 15.3945L55.2754 15.3398ZM53.8535 15.4766L54.209 15.5312C54.373 15.5677 54.4824 15.5404 54.5371 15.4492V15.4219H54.4551C54.0723 15.4036 53.8717 15.4219 53.8535 15.4766ZM52.377 15.4766V15.5586H52.4316C52.5957 15.5951 52.696 15.5677 52.7324 15.4766V15.4492H52.623C52.4954 15.431 52.4134 15.4401 52.377 15.4766ZM54.0723 16.0781L54.6465 16.1875C55.248 16.2422 55.5853 16.2057 55.6582 16.0781V16.0234L55.5215 15.9688C54.5918 15.9505 54.1087 15.987 54.0723 16.0781ZM51.0645 15.5312L51.0371 15.6406H51.0918C51.4928 15.6953 51.7936 15.6589 51.9941 15.5312V15.5039L51.9395 15.4766C51.7754 15.4583 51.4837 15.4766 51.0645 15.5312ZM48.6309 15.1484L48.5488 15.2305L48.4668 15.5586L48.5488 15.6406V15.668C48.6035 15.668 48.6764 15.5586 48.7676 15.3398V15.2305L48.7402 15.1484H48.6309ZM49.4785 15.2578L49.3418 15.3672L49.3145 15.3945L49.4785 15.4219L49.5332 15.3672L49.5605 15.2852L49.4785 15.2578ZM53.5527 16.0234H53.4707V16.0781L53.6348 16.1328L53.5527 16.0234ZM53.0879 16.7891V16.8164H53.1152C54.7194 17.0169 55.5397 17.0716 55.5762 16.9805V16.9531C55.5762 16.8984 55.5306 16.8255 55.4395 16.7344H55.4121C54.847 16.6615 54.0723 16.6797 53.0879 16.7891ZM48.4941 15.8867L48.4121 15.9414V16.0234H48.4668L48.5488 15.9688V15.9141L48.4941 15.8867ZM56.123 11.5938L56.2324 11.6211C56.3783 11.6393 56.2962 12.3503 55.9863 13.7539L56.0137 13.7812C55.959 13.9635 55.0293 13.8906 53.2246 13.5625C51.1465 13.4531 49.7793 13.3255 49.123 13.1797L49.1504 13.0977C49.2051 12.9518 49.9889 12.9792 51.502 13.1797C52.1764 13.2161 52.5319 13.1888 52.5684 13.0977V13.0703L52.3223 13.0156C50.1895 12.5964 49.0684 12.6055 48.959 13.043L48.7402 13.0977C48.1387 12.9518 48.002 12.2591 48.3301 11.0195C48.403 10.6914 49.1504 10.6185 50.5723 10.8008C50.5905 10.7826 50.6908 10.7826 50.873 10.8008L51.3652 11.0469L51.584 11.1016L56.123 11.5938ZM55.4395 11.8945H55.2754L55.248 11.9492L55.4941 12.0312H55.6855V11.9766L55.4395 11.8945ZM54.0449 11.8945L54.373 11.9766C54.5553 12.013 54.6647 11.9857 54.7012 11.8945L54.6465 11.8672C54.2454 11.8125 54.0449 11.8216 54.0449 11.8945ZM52.5684 11.7578V11.8125C52.7507 11.8672 52.8691 11.8581 52.9238 11.7852L52.9512 11.7305L52.7871 11.7031C52.6777 11.6849 52.6048 11.7031 52.5684 11.7578ZM54.209 12.4961L54.7559 12.6328C55.321 12.7604 55.6491 12.7695 55.7402 12.6602L55.7676 12.5781L55.6582 12.5234C54.7285 12.4141 54.2454 12.4049 54.209 12.4961ZM51.2559 11.6484L51.2285 11.7578L51.2559 11.7852C51.584 11.8581 51.8939 11.849 52.1855 11.7578V11.7305L52.1309 11.7031C51.9121 11.6484 51.6204 11.6302 51.2559 11.6484ZM48.877 11.0469L48.7676 11.1016L48.6582 11.457L48.7402 11.5391C48.7949 11.5391 48.877 11.4388 48.9863 11.2383L49.0137 11.1289L48.9316 11.0469H48.877ZM49.6973 11.2383L49.5332 11.293V11.3477L49.6973 11.4023L49.7793 11.3203V11.293L49.6973 11.2383ZM53.6895 12.3867H53.6348L53.6074 12.4414L53.7441 12.4961L53.6895 12.3867ZM53.1699 13.0977L53.1426 13.1523H53.1699C54.7559 13.5169 55.5671 13.6445 55.6035 13.5352L55.6309 13.5078C55.6309 13.4349 55.5762 13.3529 55.4668 13.2617H55.4395C54.8743 13.1341 54.1178 13.0794 53.1699 13.0977ZM48.6582 11.7852H48.5488V11.8945H48.6309L48.7129 11.8398L48.7402 11.7852H48.6582ZM74.8535 3.28125C76.0384 3.28125 76.722 3.3724 76.9043 3.55469C76.7585 3.66406 76.6855 3.76432 76.6855 3.85547V3.91016L76.7949 4.48438V4.51172C76.7949 5.07682 76.6855 5.35938 76.4668 5.35938L76.0566 5.22266H75.9473L74.7168 5.38672L74.3066 5.35938C74.0697 5.3776 73.4316 5.86979 72.3926 6.83594L72.2285 7.08203C71.8457 7.30078 71.5632 7.59245 71.3809 7.95703C71.1439 8.19401 70.834 8.6862 70.4512 9.43359C70.3965 9.43359 70.3236 9.58854 70.2324 9.89844C69.7767 10.2083 69.485 10.5638 69.3574 10.9648C69.2298 11.0924 68.9382 11.5482 68.4824 12.332C68.2272 12.6602 68.0449 12.9609 67.9355 13.2344L67.8262 13.3438V13.3711H67.9629C68.0358 13.3711 68.1908 13.1797 68.4277 12.7969C68.5007 12.7969 68.9473 12.5234 69.7676 11.9766C70.8796 11.3568 71.627 11.0469 72.0098 11.0469C72.7207 11.0469 73.5957 11.3021 74.6348 11.8125C75.5827 12.7057 76.1113 13.3164 76.2207 13.6445C76.5124 13.8451 76.722 14.3646 76.8496 15.2031C76.5579 16.7161 76.2389 17.7734 75.8926 18.375C74.9264 19.651 74.4434 20.3255 74.4434 20.3984L74.498 20.5625C74.0423 20.9453 73.696 21.1732 73.459 21.2461C71.7454 21.1549 70.7702 21.0911 70.5332 21.0547C70.1868 20.8359 69.7493 20.6536 69.2207 20.5078L68.0449 19.6602C67.2611 18.694 66.8691 17.6185 66.8691 16.4336C66.7962 16.3607 66.7324 15.7318 66.6777 14.5469C66.6777 14.1458 66.8965 13.3893 67.334 12.2773C67.334 11.931 67.5527 11.3112 67.9902 10.418C68.209 9.2513 68.9746 7.90234 70.2871 6.37109C72.0189 4.62109 72.9759 3.74609 73.1582 3.74609C73.8874 3.4362 74.4525 3.28125 74.8535 3.28125ZM76.4121 3.66406H76.248V3.71875L76.3848 3.82812H76.4121L76.4668 3.74609V3.71875L76.4121 3.66406ZM68.6738 9.43359V9.54297H68.7559C68.8105 9.54297 68.8379 9.47005 68.8379 9.32422C69.3483 8.8138 69.8405 8.08464 70.3145 7.13672C71.8457 5.49609 72.8392 4.63021 73.2949 4.53906C73.9694 4.21094 74.3066 3.94661 74.3066 3.74609V3.69141H74.2246C73.623 3.80078 73.0306 4.11068 72.4473 4.62109C71.2077 5.86068 70.36 6.75391 69.9043 7.30078C69.1204 8.3763 68.7103 9.08724 68.6738 9.43359ZM75.0176 4.07422V4.12891H75.4551C75.6374 4.12891 75.8105 4.07422 75.9746 3.96484V3.80078L75.8926 3.69141H75.6465C75.4824 3.69141 75.2728 3.81901 75.0176 4.07422ZM76.1113 3.91016L76.0566 3.99219V4.01953L76.1113 4.12891H76.2207L76.3027 4.01953V3.99219L76.2207 3.91016H76.1113ZM72.5566 5.38672V5.49609H72.6113C72.9759 5.35026 73.4316 5.1224 73.9785 4.8125C74.2337 4.8125 74.4434 4.71224 74.6074 4.51172V4.48438H74.5254C74.2702 4.48438 73.6139 4.78516 72.5566 5.38672ZM74.7715 5.00391V5.11328H74.9355C75.5918 4.91276 75.9199 4.79427 75.9199 4.75781V4.67578L75.7285 4.64844C75.4368 4.64844 75.1178 4.76693 74.7715 5.00391ZM68.9473 9.78906L68.8379 9.84375L68.8926 9.95312H68.9199C69.0293 9.95312 69.2663 9.66146 69.6309 9.07812C70.0684 8.51302 70.5241 7.96615 70.998 7.4375C71.1074 7.27344 71.7637 6.6901 72.9668 5.6875L73.1309 5.49609H73.0762C72.4928 5.49609 71.7272 5.95182 70.7793 6.86328C69.9408 8.08464 69.3301 9.0599 68.9473 9.78906ZM68.209 11.1289V11.293C68.4277 11.2383 68.5371 11.1016 68.5371 10.8828V10.8555H68.373C68.2637 10.9102 68.209 11.0013 68.209 11.1289ZM71.0527 11.8398V11.9219H71.2441C71.4993 11.776 72.11 11.6667 73.0762 11.5938V11.5664C72.9486 11.4388 72.7389 11.375 72.4473 11.375H72.1738C71.791 11.375 71.4173 11.5299 71.0527 11.8398ZM70.2598 12.332L69.6855 12.7695V12.8516C69.8314 12.8516 70.0592 12.6966 70.3691 12.3867V12.332H70.2598ZM75.0449 12.6055V12.7148C75.2454 13.2253 75.5371 13.5716 75.9199 13.7539H76.1113V13.6719C75.6374 12.9792 75.2819 12.6237 75.0449 12.6055ZM72.2012 12.6602L72.1191 12.7148V12.7695H72.2832L72.3652 12.7148L72.2832 12.6602H72.2012ZM74.1426 12.8789H73.8965V12.9609L73.9785 13.0703H74.0332L74.1426 12.9609V12.8789ZM68.373 14.9297L68.3184 15.0117C68.3184 15.9596 68.6921 17.263 69.4395 18.9219C70.4056 19.5417 71.0892 19.8516 71.4902 19.8516C72.821 19.8516 73.8509 19.1042 74.5801 17.6094L74.6895 16.9258C74.6895 15.3034 74.4342 14.2461 73.9238 13.7539C73.2311 13.2982 72.3835 13.0703 71.3809 13.0703C71.1074 13.1615 70.4876 13.5169 69.5215 14.1367C69.0293 14.2643 68.6465 14.5286 68.373 14.9297ZM74.9355 13.8086L74.498 13.8906V13.9727C74.735 14.1914 74.8535 14.401 74.8535 14.6016H74.9355L74.9902 14.0273V14L74.9355 13.8086ZM67.416 14.5469V14.6562C67.416 14.7109 67.4525 14.7383 67.5254 14.7383C67.6712 14.7383 67.8809 14.5924 68.1543 14.3008V14.2461L68.0449 14.1367C67.7897 14.1367 67.5801 14.2734 67.416 14.5469ZM76.002 14.9297L75.9473 14.9844V15.5039L76.1113 15.6406L76.1934 15.5586V15.2305C76.1934 15.0664 76.1478 14.9661 76.0566 14.9297H76.002ZM75.2637 15.1484H75.1543L75.0996 15.2852V15.4766L75.1543 15.5312H75.1816C75.2546 15.5312 75.291 15.4219 75.291 15.2031L75.2637 15.1484ZM67.5527 15.5039C67.5527 15.6497 67.7715 16.2695 68.209 17.3633H68.2363L68.291 17.3086C68.2728 16.7799 68.1178 16.0781 67.8262 15.2031C67.6439 15.2031 67.5527 15.3034 67.5527 15.5039ZM67.1973 16.1602H67.0879V16.4336L67.1426 16.5156H67.252V16.3242L67.1973 16.1602ZM75.7285 16.2969L75.6191 16.4336V16.5156L75.6465 16.707H75.6738C75.7832 16.6523 75.8379 16.543 75.8379 16.3789L75.7285 16.2969ZM75.0176 16.5156L74.9355 16.625V16.6523L75.0449 16.7344H75.127L75.209 16.6523V16.625L75.1543 16.5156H75.0176ZM67.252 16.707L67.1426 16.8164V17.0078C67.252 17.6823 67.3796 18.0195 67.5254 18.0195L67.5527 17.9375V17.6367C67.5527 17.0169 67.4525 16.707 67.252 16.707ZM75.291 17.1992H75.209V17.2539L75.3184 17.3633H75.373V17.3086L75.291 17.1992ZM68.2363 18.0195H68.127V18.1289L68.2637 18.2656H68.3184V18.1289L68.2363 18.0195ZM75.2637 18.1836L74.7168 18.9219V18.9766L74.8262 19.0586C75.1908 18.5846 75.373 18.293 75.373 18.1836H75.2637ZM67.7441 18.457L67.7168 18.5938C67.7715 18.6849 67.8079 18.7305 67.8262 18.7305H67.8809V18.7031C67.8809 18.5755 67.8353 18.4935 67.7441 18.457ZM68.5371 18.7305L68.4824 18.8125V18.8945C68.6647 19.1862 68.8561 19.332 69.0566 19.332H69.084V19.2773C69.084 19.2044 68.9108 19.0221 68.5645 18.7305H68.5371ZM74.0332 19.3867L73.0762 20.0703V20.0977L73.1582 20.1523C73.4681 20.1523 73.7962 19.9245 74.1426 19.4688V19.3867H74.0332ZM69.9043 19.8516C69.9408 19.9609 69.9863 20.0339 70.041 20.0703H70.1777C70.3418 20.0703 70.4421 20.0156 70.4785 19.9062V19.8789C70.4785 19.806 70.36 19.7604 70.123 19.7422H69.959C69.9225 19.7422 69.9043 19.7786 69.9043 19.8516ZM70.8613 20.0156H70.7793V20.0977L70.8613 20.1523H70.916V20.0977L70.8613 20.0156ZM70.998 20.2891C71.1439 20.3802 71.3079 20.4258 71.4902 20.4258C71.7637 20.4258 71.9733 20.362 72.1191 20.2344V20.1797H71.3809C71.1257 20.1797 70.998 20.2161 70.998 20.2891ZM73.9512 20.2344L73.1309 20.6445V20.6992H73.2129C73.5228 20.6992 73.7962 20.5534 74.0332 20.2617V20.2344H73.9512Z" fill="white"/>
</svg>
