<svg width="108" height="22" viewBox="0 0 108 22" fill="none" xmlns="http://www.w3.org/2000/svg">
<path d="M0.892578 2.05078L0.974609 1.99609C1.97721 2.10547 3.70898 2.2513 6.16992 2.43359C6.47982 2.57943 7.82878 2.77083 10.2168 3.00781C11.1465 3.22656 11.6113 3.47266 11.6113 3.74609C11.5384 4.0013 11.2376 4.44792 10.709 5.08594C10.709 5.14062 10.2897 5.69661 9.45117 6.75391C9.45117 6.91797 8.95898 7.44661 7.97461 8.33984L7.67383 8.75V8.83203C7.94727 8.83203 8.53971 8.74089 9.45117 8.55859C9.76107 8.55859 10.5358 8.93229 11.7754 9.67969C12.1035 10.0443 12.4316 10.7552 12.7598 11.8125V12.1133C12.7598 14.5378 12.5501 16.0417 12.1309 16.625C11.7845 17.6276 10.8366 18.6667 9.28711 19.7422C8.33919 20.1979 6.95378 20.6263 5.13086 21.0273C4.91211 21.1003 4.54753 21.1367 4.03711 21.1367H3.8457L3.68164 21.1914C2.8431 21.1914 2.14128 21 1.57617 20.6172V20.5352C1.63086 20.4987 1.81315 20.125 2.12305 19.4141H2.17773H2.75195H3.05273C4.60221 19.4141 5.78711 19.0039 6.60742 18.1836L8.95898 16.6797C9.85221 15.8776 10.3444 15.3034 10.4355 14.957C10.8001 14.3737 10.9824 13.4167 10.9824 12.0859C10.9642 11.9036 10.9368 11.8125 10.9004 11.8125L10.9824 11.5938C10.9824 11.2292 10.8001 10.9375 10.4355 10.7188C10.2897 10.3542 10.0072 10.1719 9.58789 10.1719H8.9043C8.53971 10.1719 8.35742 10.2174 8.35742 10.3086V10.3633C9.10482 10.3633 9.68815 10.5456 10.1074 10.9102V10.9648L10.0254 11.0195C9.86133 11.0195 9.63346 10.8919 9.3418 10.6367L9.0957 10.6094C7.72852 10.6094 6.06055 11.0742 4.0918 12.0039L3.81836 12.168L3.68164 12.1133V11.8945C3.68164 11.7669 3.59049 11.612 3.4082 11.4297V11.4023C3.4082 11.3477 3.61784 10.8555 4.03711 9.92578C4.11003 9.61589 4.27409 9.30599 4.5293 8.99609L5.65039 7.30078C6.06966 6.38932 6.4707 5.83333 6.85352 5.63281C7.01758 5.45052 7.09961 5.27734 7.09961 5.11328V5.03125C6.89909 4.88542 6.72591 4.8125 6.58008 4.8125L1.4668 4.70312C1.30273 4.70312 1.20247 4.54818 1.16602 4.23828V4.12891L1.19336 4.01953V3.91016C1.13867 3.76432 1.03841 3.14453 0.892578 2.05078ZM2.01367 2.35156L1.9043 2.46094V2.73438H1.95898H2.31445H2.36914L3.05273 2.78906L3.16211 2.67969C2.83398 2.46094 2.45117 2.35156 2.01367 2.35156ZM1.24805 2.78906C1.28451 2.88021 1.35742 2.92578 1.4668 2.92578L1.52148 2.84375V2.78906L1.43945 2.67969H1.33008C1.27539 2.67969 1.24805 2.71615 1.24805 2.78906ZM4.69336 2.87109H4.61133V2.92578H4.63867L4.69336 2.87109ZM9.88867 3.22656H9.28711C9.28711 3.33594 9.46029 3.39974 9.80664 3.41797H9.86133L9.9707 3.33594V3.30859L9.88867 3.22656ZM3.59961 3.39062C4.56576 3.5 5.63216 3.55469 6.79883 3.55469H7.12695C7.12695 3.42708 6.46159 3.33594 5.13086 3.28125H4.39258C3.86393 3.28125 3.59961 3.31771 3.59961 3.39062ZM2.17773 3.39062L2.06836 3.41797C2.06836 3.58203 2.52409 3.69141 3.43555 3.74609L3.49023 3.71875V3.66406C3.25326 3.48177 2.86133 3.39062 2.31445 3.39062H2.17773ZM10.791 3.71875V3.74609C10.8092 3.81901 10.8822 3.85547 11.0098 3.85547H11.1191C11.1921 3.85547 11.2559 3.81901 11.3105 3.74609C11.3105 3.63672 11.2012 3.58203 10.9824 3.58203C10.9095 3.61849 10.8457 3.66406 10.791 3.71875ZM3.95508 3.63672L3.92773 3.66406V3.69141C3.92773 3.78255 4.24674 3.82812 4.88477 3.82812H5.86914C5.86914 3.71875 5.23112 3.65495 3.95508 3.63672ZM7.31836 3.85547H6.60742V3.91016L7.97461 4.12891L9.3418 4.01953V3.96484C8.99544 3.89193 8.32096 3.85547 7.31836 3.85547ZM1.63086 4.07422V4.12891C1.63086 4.27474 2.00456 4.34766 2.75195 4.34766H3.87305V4.26562C3.87305 4.19271 3.48112 4.14714 2.69727 4.12891C2.69727 4.03776 2.4694 3.98307 2.01367 3.96484H1.9043C1.74023 3.96484 1.64909 4.0013 1.63086 4.07422ZM4.91211 4.26562H4.33789C4.33789 4.35677 4.57487 4.40234 5.04883 4.40234H5.13086C5.13086 4.3112 5.05794 4.26562 4.91211 4.26562ZM10.2168 4.62109L9.9707 4.8125C10.0254 5.06771 10.1165 5.19531 10.2441 5.19531C10.3717 5.04948 10.4355 4.92188 10.4355 4.8125V4.67578L10.3809 4.62109H10.2168ZM7.67383 5.00391L7.61914 5.08594V5.14062H7.7832L7.83789 5.08594V5.00391H7.67383ZM7.83789 5.60547V5.6875H7.89258C8.11133 5.6875 8.28451 5.52344 8.41211 5.19531L8.35742 5.16797H8.33008C8.00195 5.25911 7.83789 5.40495 7.83789 5.60547ZM9.88867 5.55078H9.75195V5.63281H9.83398L9.88867 5.60547V5.55078ZM9.61523 5.79688H9.56055V5.87891H9.61523V5.79688ZM7.97461 7.51953L7.94727 7.60156L8.00195 7.68359C8.38477 7.59245 8.76758 7.28255 9.15039 6.75391L9.28711 6.39844L9.25977 6.37109H9.0957C8.87695 6.37109 8.50326 6.75391 7.97461 7.51953ZM6.52539 7.57422H6.58008C6.85352 7.41016 6.99023 7.22786 6.99023 7.02734V7H6.93555C6.66211 7.07292 6.52539 7.26432 6.52539 7.57422ZM7.09961 7.46484V7.57422H7.18164C7.30924 7.46484 7.37305 7.36458 7.37305 7.27344L7.3457 7.24609C7.27279 7.28255 7.19076 7.35547 7.09961 7.46484ZM7.81055 7.875L7.72852 7.95703V8.09375H7.81055L7.86523 8.03906V7.875H7.81055ZM4.91211 8.83203V8.88672L4.9668 8.94141H5.21289L5.73242 8.53125L5.75977 8.36719V8.3125L5.70508 8.25781H5.65039C5.35872 8.33073 5.11263 8.52214 4.91211 8.83203ZM7.37305 9.73438V9.76172H7.40039L8.52148 9.40625C9.41471 9.4974 9.95247 9.57031 10.1348 9.625C10.2259 9.625 10.2806 9.58854 10.2988 9.51562H10.3262C10.7819 9.86198 11.1374 10.0352 11.3926 10.0352H11.502L11.5293 9.95312V9.92578C11.5293 9.72526 10.9004 9.47005 9.64258 9.16016C9.58789 9.16016 9.5332 9.08724 9.47852 8.94141L9.3418 8.83203H9.25977C8.82227 8.83203 8.36654 9.05078 7.89258 9.48828C7.56445 9.57943 7.39128 9.66146 7.37305 9.73438ZM6.88086 8.94141H6.85352V9.05078L6.88086 9.07812H6.99023V9.05078L6.88086 8.94141ZM4.5293 9.76172V9.84375H4.55664C4.79362 9.71615 4.9668 9.50651 5.07617 9.21484H5.02148C4.85742 9.30599 4.69336 9.48828 4.5293 9.76172ZM5.4043 9.84375V10.0078H5.51367C5.73242 10.0078 5.89648 9.83464 6.00586 9.48828L5.92383 9.40625C5.74154 9.47917 5.56836 9.625 5.4043 9.84375ZM5.62305 10.7188V10.7461H5.70508C6.92643 10.4544 7.53711 10.2448 7.53711 10.1172V10.0898H7.45508C6.87174 10.1445 6.26107 10.3542 5.62305 10.7188ZM4.33789 10.8008V10.8828L4.36523 10.9102V10.9648C4.9668 10.8555 5.42253 10.6823 5.73242 10.4453V10.418L5.65039 10.3086C5.0306 10.4362 4.5931 10.6003 4.33789 10.8008ZM11.4199 10.3086H11.1191V10.3633C11.2103 10.6185 11.3379 10.7461 11.502 10.7461H11.6934C11.8757 10.7461 11.985 10.7005 12.0215 10.6094C11.8574 10.4089 11.6569 10.3086 11.4199 10.3086ZM11.8027 11.0469L11.7754 11.1289V11.1562C11.7754 11.3021 11.9212 11.5755 12.2129 11.9766L12.1855 12.4961V13.125C12.1855 13.3255 12.222 13.4349 12.2949 13.4531H12.3496L12.4043 12.8516V11.8945C12.4043 11.5846 12.2402 11.3021 11.9121 11.0469H11.8027ZM3.87305 11.375V11.4023L3.92773 11.4844H4.17383C4.33789 11.4844 4.42904 11.4479 4.44727 11.375V11.293C4.41081 11.2018 4.33789 11.1562 4.22852 11.1562H4.17383C4.06445 11.1562 3.96419 11.2292 3.87305 11.375ZM10.627 11.375V11.293L10.791 11.4844H10.7363L10.627 11.375ZM11.2832 12.0312H11.2285V12.0859L11.2832 12.168H11.3379V12.0859L11.2832 12.0312ZM11.1191 13.5352V13.6445L11.1738 13.7266C11.3926 13.362 11.502 13.043 11.502 12.7695V12.4414H11.4199C11.2194 12.6784 11.1191 13.043 11.1191 13.5352ZM12.3496 13.7266L12.0762 14.2461C12.0944 14.319 12.14 14.3737 12.2129 14.4102H12.2676C12.3952 14.3555 12.459 14.237 12.459 14.0547C12.4408 13.8359 12.4043 13.7266 12.3496 13.7266ZM11.2832 15.0391V15.0938H11.3926L11.5293 14.9297V14.7656H11.4473C11.3379 14.8385 11.2832 14.9297 11.2832 15.0391ZM11.0371 15.9414L11.1191 15.9688L11.666 15.6133V15.5586L11.584 15.5039H11.5293C11.3835 15.5039 11.2194 15.6497 11.0371 15.9414ZM9.86133 16.7891H9.9707C10.153 16.7891 10.3444 16.6797 10.5449 16.4609V16.4062L10.4355 16.1055L10.5449 15.832C10.3809 15.832 10.2168 16.0417 10.0527 16.4609C9.92513 16.5885 9.86133 16.6979 9.86133 16.7891ZM11.7754 16.0234L11.6934 16.1055V16.1328H11.8027V16.0234H11.7754ZM10.791 16.8984V16.9531L10.9824 16.9805H11.1738C11.4473 16.9622 11.584 16.8529 11.584 16.6523C11.5475 16.5612 11.4837 16.5156 11.3926 16.5156C11.2103 16.5156 11.0098 16.6432 10.791 16.8984ZM6.52539 18.7031H6.60742C8.24805 18.0104 9.06836 17.5091 9.06836 17.1992H8.9043C8.52148 17.3451 7.86523 17.737 6.93555 18.375C6.66211 18.5573 6.52539 18.6667 6.52539 18.7031ZM10.8457 17.582V17.6094H10.9824C11.0371 17.6094 11.1009 17.5273 11.1738 17.3633L11.1191 17.3086C10.9368 17.3633 10.8457 17.4544 10.8457 17.582ZM10.5449 17.3633L10.4355 17.4727V17.5H10.5723L10.6543 17.4453L10.5723 17.3633H10.5449ZM9.83398 18.457H9.86133C10.0436 18.457 10.2533 18.3659 10.4902 18.1836C10.4902 18.1289 10.4538 18.1016 10.3809 18.1016C10.0163 18.1927 9.83398 18.3112 9.83398 18.457ZM7.72852 18.9219V18.9766H7.7832C8.16602 18.8672 8.35742 18.7669 8.35742 18.6758V18.6484H8.33008C8.11133 18.6484 7.91081 18.7396 7.72852 18.9219ZM9.45117 18.8945L9.3418 18.9766V19.0586H9.5332L9.61523 18.9492V18.8945H9.45117ZM2.99805 19.7422L3.08008 19.8242H3.54492L3.6543 19.7422C3.6543 19.6875 3.55404 19.6602 3.35352 19.6602C3.11654 19.6602 2.99805 19.6875 2.99805 19.7422ZM5.51367 19.6602L5.45898 19.7422V19.8242C5.60482 19.8242 5.69596 19.7786 5.73242 19.6875V19.6602H5.51367ZM7.72852 20.0156L7.7832 20.0703H7.81055C8.1569 19.9609 8.37565 19.8607 8.4668 19.7695L8.41211 19.6602H8.24805C7.90169 19.7331 7.72852 19.8516 7.72852 20.0156ZM2.42383 19.8789L2.31445 19.9609V20.0156H2.58789L2.66992 19.9609L2.58789 19.8789H2.42383ZM4.63867 20.4531L3.68164 20.5352L3.08008 20.3984H2.86133C2.47852 20.4349 2.28711 20.5078 2.28711 20.6172V20.6445C2.28711 20.7357 2.87044 20.8177 4.03711 20.8906C4.5293 20.8906 5.26758 20.6901 6.25195 20.2891L6.30664 20.2617V20.1523H6.25195C6.0332 20.1523 5.49544 20.2526 4.63867 20.4531ZM20.1426 3.74609H20.1973C23.0228 3.78255 24.4355 3.84635 24.4355 3.9375C24.4173 4.01042 24.3171 4.09245 24.1348 4.18359V4.32031L24.2441 4.62109L24.1348 5.00391V5.05859L24.1621 5.11328L24.0801 5.19531V5.22266L23.6973 4.94922H23.6152C23.6152 5.20443 23.3053 5.33203 22.6855 5.33203L22.002 5.22266C19.5775 5.40495 18.1191 5.54167 17.627 5.63281C17.4447 5.8151 17.2624 6.64453 17.0801 8.12109C16.8978 8.66797 16.8066 9.15104 16.8066 9.57031H16.8887V9.59766C17.3809 9.57943 17.627 9.48828 17.627 9.32422C17.4629 9.26953 17.3535 9.1875 17.2988 9.07812V9.02344C17.2988 8.65885 17.9551 8.43099 19.2676 8.33984H19.459C20.4251 8.33984 21.1178 8.64062 21.5371 9.24219C22.3027 9.71615 22.8861 10.1445 23.2871 10.5273L23.6152 10.8828V10.9102H23.5879L22.9863 10.5273H22.9043V10.5547C23.0684 10.974 23.2415 11.1927 23.4238 11.2109C23.4238 11.2656 23.4967 11.293 23.6426 11.293L23.916 11.2656C24.0436 11.375 24.1074 11.4753 24.1074 11.5664C23.9251 11.5846 23.834 11.6302 23.834 11.7031C23.8522 11.8307 24.0345 11.9948 24.3809 12.1953C24.5085 12.1953 24.5723 12.5508 24.5723 13.2617V14.2734C24.8639 14.9844 24.8548 15.6497 24.5449 16.2695L24.4902 16.2969H24.4082C24.2806 16.2422 24.1895 16.0872 24.1348 15.832C24.1712 15.6315 24.235 15.4948 24.3262 15.4219L24.2168 15.3398C23.9798 15.3398 23.7702 15.6497 23.5879 16.2695V16.3242C23.5879 16.3971 23.6882 16.4336 23.8887 16.4336V16.4609V16.543C23.4694 17.4544 22.959 18.1562 22.3574 18.6484C22.1934 18.7214 22.002 19.0404 21.7832 19.6055V19.6602C21.9473 19.6602 22.4121 19.2409 23.1777 18.4023C23.5059 17.8372 23.8704 17.3086 24.2715 16.8164L24.3262 16.8438V16.9258C23.9251 17.6367 23.515 18.2474 23.0957 18.7578C21.765 19.9609 20.5892 20.7174 19.5684 21.0273C17.5996 21.2279 16.3145 21.3281 15.7129 21.3281C15.5488 21.2552 14.9199 21.1914 13.8262 21.1367H13.7988V21.082L14.127 19.7695C14.127 19.3138 14.3822 19.0859 14.8926 19.0859L15.0293 19.0586C15.3757 19.2591 15.5579 19.3594 15.5762 19.3594H15.7129C15.8952 19.3594 16.196 19.332 16.6152 19.2773C17.0345 19.2227 17.2806 19.1953 17.3535 19.1953C17.9368 19.3958 18.985 19.0221 20.498 18.0742C21.5736 17.2174 22.248 16.5339 22.5215 16.0234C22.9408 15.4766 22.9954 14.8568 22.6855 14.1641C22.6855 12.888 22.4121 12.013 21.8652 11.5391C21.7012 11.2292 21.2272 10.9284 20.4434 10.6367C20.0241 10.3815 19.5957 10.2539 19.1582 10.2539H19.0488C18.429 10.2539 17.3626 10.5273 15.8496 11.0742L15.3848 11.1562L15.2754 11.0469V10.9375C15.3665 10.9375 15.4486 10.3815 15.5215 9.26953C15.7402 8.90495 15.9225 7.63802 16.0684 5.46875C16.0866 4.70312 16.1595 4.32031 16.2871 4.32031L16.3418 4.26562V4.21094L16.2871 3.9375H16.3418C16.4329 4.01042 16.6152 4.04688 16.8887 4.04688C17.1621 4.04688 18.2467 3.94661 20.1426 3.74609ZM23.1777 4.21094V4.26562C23.2142 4.35677 23.3236 4.40234 23.5059 4.40234H23.6152C23.7975 4.40234 23.8887 4.32031 23.8887 4.15625L23.7793 4.10156H23.4238C23.3145 4.10156 23.2324 4.13802 23.1777 4.21094ZM16.6152 4.73047L16.5332 4.86719V4.89453L16.6152 5.00391C18.8392 4.7487 19.9512 4.54818 19.9512 4.40234H19.8965C17.709 4.56641 16.6152 4.67578 16.6152 4.73047ZM21.5371 4.62109L20.7441 4.67578V4.78516L21.373 4.8125C21.6465 4.8125 21.7832 4.77604 21.7832 4.70312C21.7467 4.64844 21.6647 4.62109 21.5371 4.62109ZM16.7246 5.49609L16.6699 5.57812V6.37109L16.7246 6.42578C16.7793 6.29818 16.8066 6.11589 16.8066 5.87891V5.57812L16.752 5.49609H16.7246ZM16.6152 7.30078H16.5332V7.35547H16.6152V7.30078ZM19.459 9.07812V9.13281H19.5137H20.252C20.8717 9.13281 21.1816 9.10547 21.1816 9.05078C21.1816 8.95964 20.8262 8.89583 20.1152 8.85938L19.459 9.07812ZM18.3379 9.07812V9.13281L18.4746 9.24219H18.6113L18.9668 9.13281V9.05078L18.4746 8.99609C18.3835 9.03255 18.3379 9.0599 18.3379 9.07812ZM19.6504 9.70703C19.7051 9.87109 19.8965 9.95312 20.2246 9.95312H20.3887C20.4798 9.95312 20.571 9.89844 20.6621 9.78906V9.625C20.6439 9.57031 20.5527 9.54297 20.3887 9.54297H19.9785C19.8145 9.54297 19.7051 9.59766 19.6504 9.70703ZM17.2441 10.0352V10.0625L17.3535 10.1445C17.4993 10.1445 17.6087 10.0807 17.6816 9.95312V9.92578L17.5449 9.87109C17.3444 9.90755 17.2441 9.96224 17.2441 10.0352ZM15.8496 10.0898L15.7129 10.2266V10.5273L15.8223 10.6094H16.123V10.5273C16.123 10.3268 16.0501 10.181 15.9043 10.0898H15.8496ZM21.0176 10.1992H20.9902V10.3086L21.127 10.418H21.1816C21.1999 10.418 21.209 10.3815 21.209 10.3086C21.209 10.2357 21.1452 10.1992 21.0176 10.1992ZM23.2324 11.4297L22.9863 11.1562V11.2109C22.9863 11.3568 23.0501 11.4661 23.1777 11.5391H23.2324V11.4297ZM22.7129 11.6211H22.6855V11.7031L22.7949 11.7852H22.8223V11.7578L22.7129 11.6211ZM22.9863 12.0859L22.9043 12.0039V12.0859L22.959 12.168L22.9863 12.1133V12.0859ZM23.0684 12.4414H23.0137V12.5781L23.0957 12.6328H23.1504V12.5234L23.0684 12.4414ZM23.2871 13.043L23.1777 13.125V13.1797H23.3418L23.3965 13.125V13.043H23.2871ZM23.2871 13.5625H23.1777L23.1504 13.8086V13.9727L23.2871 13.8359V13.5625ZM23.9434 16.2148L23.998 16.1602H24.1348V16.2148L23.998 16.2969H23.9434V16.2148ZM24.2715 16.625L24.3809 16.5156L24.4902 16.543V16.5703L24.3809 16.707L24.2715 16.6523V16.625ZM18.2832 19.7695V19.8242C18.7572 19.6602 19.304 19.5234 19.9238 19.4141C20.3066 19.1953 20.498 19.013 20.498 18.8672L20.416 18.7578L21.8379 18.1836L21.8105 18.0195C22.2663 17.4909 22.4941 17.1536 22.4941 17.0078L22.4668 16.9805H22.4121C22.248 16.9805 21.4186 17.5911 19.9238 18.8125C19.6322 18.8125 19.0853 19.1315 18.2832 19.7695ZM16.752 20.6445V20.7266L16.8613 20.7539C17.0072 20.7539 17.791 20.7083 19.2129 20.6172C19.377 20.6172 19.8418 20.3711 20.6074 19.8789C20.8444 19.6966 20.9629 19.5417 20.9629 19.4141V19.3867L20.9355 19.3047H20.8262C20.5527 19.3047 20.1243 19.5599 19.541 20.0703C18.4473 20.3073 17.6816 20.4349 17.2441 20.4531C16.916 20.526 16.752 20.5898 16.752 20.6445ZM16.8613 19.6875L16.5332 19.7695V19.8516H16.8613L17.0254 19.7969V19.6875H16.8613ZM20.9355 19.9883L20.8809 20.0703V20.1523H20.9355L21.0176 20.0703V19.9883H20.9355ZM14.7012 20.4258L14.6191 20.4805C14.6374 20.5534 14.7012 20.5898 14.8105 20.5898C14.9928 20.5898 15.0931 20.5534 15.1113 20.4805L15.0293 20.4258H14.7012ZM15.3027 20.8086L15.3848 20.8633H15.4395C15.5853 20.8633 15.804 20.8086 16.0957 20.6992L16.3965 20.7266C16.5788 20.6719 16.6699 20.5807 16.6699 20.4531V20.4258H16.5332C15.7129 20.5534 15.3027 20.681 15.3027 20.8086ZM33.9512 11.3203H34.0879C34.1973 11.3203 34.3066 12.0404 34.416 13.4805H34.4434C34.4434 13.681 33.5137 13.8451 31.6543 13.9727C29.5033 14.3919 28.1634 14.6016 27.6348 14.6016V14.5469C27.6348 14.401 28.3913 14.2279 29.9043 14.0273C30.5788 13.8633 30.916 13.7448 30.916 13.6719V13.6445H30.6426C28.4915 13.7721 27.416 14.0729 27.416 14.5469L27.1973 14.6562C26.5775 14.6562 26.2676 14.0091 26.2676 12.7148C26.2676 12.3685 26.9785 12.1224 28.4004 11.9766C28.4004 11.9219 28.4915 11.8945 28.6738 11.8945L29.2207 12.0039H29.4941L33.9512 11.3203ZM33.4043 11.7852L33.2402 11.8125V11.8945H33.4863L33.623 11.8398V11.7852H33.4043ZM32.0371 12.1133H32.3652C32.5475 12.1133 32.6478 12.0768 32.666 12.0039V11.9766H32.6113C32.2285 12.013 32.0371 12.0586 32.0371 12.1133ZM30.5879 12.3867V12.4414C30.7884 12.4414 30.8978 12.3867 30.916 12.2773H30.7793C30.6517 12.2773 30.5879 12.3138 30.5879 12.3867ZM32.3379 12.6875H32.9395C33.5228 12.651 33.8418 12.569 33.8965 12.4414V12.3867L33.7598 12.332C32.8118 12.4596 32.3379 12.5781 32.3379 12.6875ZM29.2754 12.6055V12.7148H29.3027C29.6855 12.7148 29.9772 12.6419 30.1777 12.4961V12.4414H30.123C29.9043 12.4414 29.6217 12.4961 29.2754 12.6055ZM26.8418 12.6055L26.7324 12.7148V13.0703L26.7871 13.125H26.8418C26.8965 13.125 26.9329 13.0065 26.9512 12.7695V12.6875L26.8965 12.6055H26.8418ZM27.6348 12.6055L27.5527 12.7148V12.7695H27.6895L27.7441 12.6875V12.6055H27.6348ZM31.8184 12.7148H31.7637V12.7695H31.873L31.8184 12.7148ZM31.4629 13.5352V13.5625H31.5176C33.14 13.5078 33.9512 13.4349 33.9512 13.3438V13.2891C33.9147 13.2344 33.86 13.1797 33.7871 13.125H33.7598C33.1217 13.125 32.3561 13.2617 31.4629 13.5352ZM26.7871 13.3711L26.7324 13.4531V13.5078H26.7871L26.8691 13.4531V13.3711H26.7871ZM42.7559 2.1875L43.3574 2.10547C43.959 2.10547 44.8978 2.32422 46.1738 2.76172C46.8483 3.10807 47.1855 3.33594 47.1855 3.44531C47.8053 4.0651 48.1152 4.54818 48.1152 4.89453L48.5527 6.50781C48.3704 7.20052 47.9785 8.19401 47.377 9.48828C46.6113 10.1263 45.4811 10.8828 43.9863 11.7578C42.765 12.888 41.9629 13.4714 41.5801 13.5078L40.4316 14.5469C38.791 15.9688 37.9525 16.7161 37.916 16.7891C37.752 17.1354 37.6061 17.582 37.4785 18.1289V18.1836C37.4785 18.3294 37.9251 18.4297 38.8184 18.4844V18.5938L37.9434 18.6484V18.7578C39.5293 19.0312 40.5957 19.168 41.1426 19.168C41.1061 19.1133 40.4499 18.931 39.1738 18.6211V18.5391H39.2012C39.5475 18.5391 40.2767 18.6758 41.3887 18.9492L42.9199 19.0586L44.2324 18.9219H44.916C46.1191 18.9948 46.7754 19.1589 46.8848 19.4141L47.7051 19.6602L47.8691 19.7695V19.8789L47.4316 19.9883V20.0156L47.541 20.1523H47.5957L47.9785 20.0977V20.1523C47.9421 20.9544 47.8874 21.3555 47.8145 21.3555L44.6152 21.2461H43.959C43.5033 21.2461 42.8835 21.2917 42.0996 21.3828C39.347 21.0547 37.4329 20.8906 36.3574 20.8906C36.0293 20.8177 35.8652 20.6536 35.8652 20.3984C35.7376 20.0703 35.6738 19.6602 35.6738 19.168V18.3477C35.6738 16.7617 35.8561 15.7591 36.2207 15.3398L36.9043 14.9023C37.0137 14.7018 37.0684 14.5378 37.0684 14.4102C38.235 13.4622 38.8548 12.9883 38.9277 12.9883C39.4199 12.806 40.0944 12.3411 40.9512 11.5938H41.0879C40.8509 11.8854 40.6595 12.0312 40.5137 12.0312V12.1406H40.6777C40.9147 12.013 41.1517 11.8125 41.3887 11.5391V11.4844H41.2793V11.4023L43.248 10.1719C44.2507 9.47917 45.0436 8.84115 45.627 8.25781C46.0645 7.76562 46.347 7.11849 46.4746 6.31641C46.4746 5.60547 46.1738 5.06771 45.5723 4.70312C45.3717 4.63021 44.5514 4.52995 43.1113 4.40234C43.1113 4.38411 42.9655 4.36589 42.6738 4.34766C42.054 4.34766 41.4707 4.71224 40.9238 5.44141C40.778 5.76953 40.7051 6.01562 40.7051 6.17969V6.37109H40.7598C40.7598 6.53516 40.459 6.65365 39.8574 6.72656L38.709 6.89062V6.91797L38.5449 6.89062H38.3262L37.6426 6.97266L37.5879 6.86328C37.8431 5.60547 38.1257 4.82161 38.4355 4.51172C39.4746 3.5638 40.2038 3.07161 40.623 3.03516C40.9329 2.76172 41.6439 2.47917 42.7559 2.1875ZM43.8496 2.37891H43.5762V2.43359L43.7402 2.65234H43.9863L44.0957 2.51562V2.48828C44.0775 2.41536 43.9954 2.37891 43.8496 2.37891ZM42.0996 2.78906V2.84375H42.127C42.8743 2.84375 43.248 2.76172 43.248 2.59766L43.1113 2.48828H42.7832C42.3275 2.59766 42.0996 2.69792 42.0996 2.78906ZM45.5176 2.67969H45.4902V2.73438C45.4902 2.84375 45.7272 2.95312 46.2012 3.0625V3.03516C46.2012 2.92578 45.9733 2.80729 45.5176 2.67969ZM41.0879 3.19922V3.28125H41.4434L41.5527 3.17188V3.14453L41.3887 3.11719C41.1882 3.15365 41.0879 3.18099 41.0879 3.19922ZM41.4707 4.23828L41.3887 4.34766V4.40234H41.5527L41.6348 4.29297V4.23828H41.4707ZM46.2285 4.29297L46.1738 4.34766V4.40234C46.2467 4.52995 46.347 4.59375 46.4746 4.59375H46.502C46.5566 4.59375 46.584 4.55729 46.584 4.48438C46.584 4.39323 46.4837 4.32943 46.2832 4.29297H46.2285ZM46.6387 4.70312V4.75781C46.9668 4.79427 47.1309 4.9401 47.1309 5.19531L47.2949 5.38672V5.19531C47.2949 4.79427 47.1673 4.59375 46.9121 4.59375C46.748 4.59375 46.6569 4.63021 46.6387 4.70312ZM40.5957 5.25L40.6504 5.30469H40.6777C40.9512 5.15885 41.0879 5.01302 41.0879 4.86719V4.83984H40.9785C40.9056 4.83984 40.778 4.97656 40.5957 5.25ZM39.8301 5.98828H39.6934V6.09766L39.8027 6.125H39.8301V5.98828ZM47.8145 6.91797L47.7051 7.05469V7.13672H47.7598L47.8418 7.05469V6.91797H47.8145ZM47.1855 8.01172H47.0488V8.14844C47.1764 8.14844 47.2402 8.20312 47.2402 8.3125H47.3223V8.14844L47.1855 8.01172ZM46.6934 8.99609L46.7207 9.05078V9.07812C46.8301 9.02344 46.9395 8.91406 47.0488 8.75V8.69531H46.9941C46.8665 8.76823 46.7663 8.86849 46.6934 8.99609ZM45.9551 9.54297H46.0098L46.3105 9.48828C46.3105 9.34245 46.2467 9.26953 46.1191 9.26953C46.0098 9.28776 45.9551 9.37891 45.9551 9.54297ZM45.9004 10.0625V10.1172C46.2467 10.0807 46.5658 9.88932 46.8574 9.54297L46.8027 9.48828C46.3835 9.70703 46.0827 9.89844 45.9004 10.0625ZM44.6699 10.582L44.5879 10.6094V10.7188H44.6426L44.7246 10.6367L44.6699 10.6094V10.582ZM40.4043 13.8633V13.9453H40.4863C40.5957 13.9453 40.8418 13.7812 41.2246 13.4531C41.3158 13.4531 41.4069 13.3438 41.498 13.125L41.5527 13.0977V13.0156H41.4707C41.252 13.0156 40.8965 13.2982 40.4043 13.8633ZM38.6816 13.7266V13.8086H38.709C38.946 13.8086 39.1374 13.6263 39.2832 13.2617H39.1465C38.8366 13.5169 38.6816 13.6719 38.6816 13.7266ZM37.7793 14.2188H37.4238L37.4512 14.4922C37.196 14.7474 37.0684 14.9115 37.0684 14.9844H37.1777C37.5059 14.8021 37.7337 14.5742 37.8613 14.3008V14.2461L37.7793 14.2188ZM39.8301 14.4922L39.6934 14.5742V14.6562H39.8027L39.9121 14.5469V14.4922H39.8301ZM37.6426 16.0508V16.1602H37.7246C37.9251 16.0143 38.0254 15.8685 38.0254 15.7227V15.6953H37.9434C37.7428 15.8047 37.6426 15.9232 37.6426 16.0508ZM36.9043 18.9766L36.8223 19.0586V19.168L36.9043 19.2773L36.959 19.168V19.0586L36.9043 18.9766ZM37.6426 19.0586L37.5332 19.1406L37.5879 19.168H37.9434V19.0859L37.752 19.0586H37.6426ZM45.0801 19.2773L44.8887 19.3047V19.332L44.998 19.4414H45.3535L45.4355 19.3867V19.3047L45.0801 19.2773ZM36.166 19.8242L36.0566 19.8789V19.9062L36.1387 19.9883H36.166L36.248 19.9062L36.166 19.8242ZM36.7402 20.3984V20.4258L36.959 20.4531C37.2324 20.4167 37.3691 20.3802 37.3691 20.3438L37.3418 20.2891H36.959C36.8132 20.3255 36.7402 20.362 36.7402 20.3984ZM45.5996 20.6992H45.9004C46.1556 20.6628 46.2832 20.6172 46.2832 20.5625L46.2012 20.4531H46.0371C45.946 20.4531 45.8001 20.5352 45.5996 20.6992ZM46.584 20.8633L46.6934 20.918H46.9941C47.2676 20.918 47.4043 20.8724 47.4043 20.7812V20.7539C47.4043 20.6992 47.3678 20.6719 47.2949 20.6719C46.8574 20.6901 46.6204 20.7539 46.584 20.8633ZM56.0176 3.74609H56.0723C58.8978 3.78255 60.3105 3.84635 60.3105 3.9375C60.2923 4.01042 60.1921 4.09245 60.0098 4.18359V4.32031L60.1191 4.62109L60.0098 5.00391V5.05859L60.0371 5.11328L59.9551 5.19531V5.22266L59.5723 4.94922H59.4902C59.4902 5.20443 59.1803 5.33203 58.5605 5.33203L57.877 5.22266C55.4525 5.40495 53.9941 5.54167 53.502 5.63281C53.3197 5.8151 53.1374 6.64453 52.9551 8.12109C52.7728 8.66797 52.6816 9.15104 52.6816 9.57031H52.7637V9.59766C53.2559 9.57943 53.502 9.48828 53.502 9.32422C53.3379 9.26953 53.2285 9.1875 53.1738 9.07812V9.02344C53.1738 8.65885 53.8301 8.43099 55.1426 8.33984H55.334C56.3001 8.33984 56.9928 8.64062 57.4121 9.24219C58.1777 9.71615 58.7611 10.1445 59.1621 10.5273L59.4902 10.8828V10.9102H59.4629L58.8613 10.5273H58.7793V10.5547C58.9434 10.974 59.1165 11.1927 59.2988 11.2109C59.2988 11.2656 59.3717 11.293 59.5176 11.293L59.791 11.2656C59.9186 11.375 59.9824 11.4753 59.9824 11.5664C59.8001 11.5846 59.709 11.6302 59.709 11.7031C59.7272 11.8307 59.9095 11.9948 60.2559 12.1953C60.3835 12.1953 60.4473 12.5508 60.4473 13.2617V14.2734C60.7389 14.9844 60.7298 15.6497 60.4199 16.2695L60.3652 16.2969H60.2832C60.1556 16.2422 60.0645 16.0872 60.0098 15.832C60.0462 15.6315 60.11 15.4948 60.2012 15.4219L60.0918 15.3398C59.8548 15.3398 59.6452 15.6497 59.4629 16.2695V16.3242C59.4629 16.3971 59.5632 16.4336 59.7637 16.4336V16.4609V16.543C59.3444 17.4544 58.834 18.1562 58.2324 18.6484C58.0684 18.7214 57.877 19.0404 57.6582 19.6055V19.6602C57.8223 19.6602 58.2871 19.2409 59.0527 18.4023C59.3809 17.8372 59.7454 17.3086 60.1465 16.8164L60.2012 16.8438V16.9258C59.8001 17.6367 59.39 18.2474 58.9707 18.7578C57.64 19.9609 56.4642 20.7174 55.4434 21.0273C53.4746 21.2279 52.1895 21.3281 51.5879 21.3281C51.4238 21.2552 50.7949 21.1914 49.7012 21.1367H49.6738V21.082L50.002 19.7695C50.002 19.3138 50.2572 19.0859 50.7676 19.0859L50.9043 19.0586C51.2507 19.2591 51.4329 19.3594 51.4512 19.3594H51.5879C51.7702 19.3594 52.071 19.332 52.4902 19.2773C52.9095 19.2227 53.1556 19.1953 53.2285 19.1953C53.8118 19.3958 54.86 19.0221 56.373 18.0742C57.4486 17.2174 58.123 16.5339 58.3965 16.0234C58.8158 15.4766 58.8704 14.8568 58.5605 14.1641C58.5605 12.888 58.2871 12.013 57.7402 11.5391C57.5762 11.2292 57.1022 10.9284 56.3184 10.6367C55.8991 10.3815 55.4707 10.2539 55.0332 10.2539H54.9238C54.304 10.2539 53.2376 10.5273 51.7246 11.0742L51.2598 11.1562L51.1504 11.0469V10.9375C51.2415 10.9375 51.3236 10.3815 51.3965 9.26953C51.6152 8.90495 51.7975 7.63802 51.9434 5.46875C51.9616 4.70312 52.0345 4.32031 52.1621 4.32031L52.2168 4.26562V4.21094L52.1621 3.9375H52.2168C52.3079 4.01042 52.4902 4.04688 52.7637 4.04688C53.0371 4.04688 54.1217 3.94661 56.0176 3.74609ZM59.0527 4.21094V4.26562C59.0892 4.35677 59.1986 4.40234 59.3809 4.40234H59.4902C59.6725 4.40234 59.7637 4.32031 59.7637 4.15625L59.6543 4.10156H59.2988C59.1895 4.10156 59.1074 4.13802 59.0527 4.21094ZM52.4902 4.73047L52.4082 4.86719V4.89453L52.4902 5.00391C54.7142 4.7487 55.8262 4.54818 55.8262 4.40234H55.7715C53.584 4.56641 52.4902 4.67578 52.4902 4.73047ZM57.4121 4.62109L56.6191 4.67578V4.78516L57.248 4.8125C57.5215 4.8125 57.6582 4.77604 57.6582 4.70312C57.6217 4.64844 57.5397 4.62109 57.4121 4.62109ZM52.5996 5.49609L52.5449 5.57812V6.37109L52.5996 6.42578C52.6543 6.29818 52.6816 6.11589 52.6816 5.87891V5.57812L52.627 5.49609H52.5996ZM52.4902 7.30078H52.4082V7.35547H52.4902V7.30078ZM55.334 9.07812V9.13281H55.3887H56.127C56.7467 9.13281 57.0566 9.10547 57.0566 9.05078C57.0566 8.95964 56.7012 8.89583 55.9902 8.85938L55.334 9.07812ZM54.2129 9.07812V9.13281L54.3496 9.24219H54.4863L54.8418 9.13281V9.05078L54.3496 8.99609C54.2585 9.03255 54.2129 9.0599 54.2129 9.07812ZM55.5254 9.70703C55.5801 9.87109 55.7715 9.95312 56.0996 9.95312H56.2637C56.3548 9.95312 56.446 9.89844 56.5371 9.78906V9.625C56.5189 9.57031 56.4277 9.54297 56.2637 9.54297H55.8535C55.6895 9.54297 55.5801 9.59766 55.5254 9.70703ZM53.1191 10.0352V10.0625L53.2285 10.1445C53.3743 10.1445 53.4837 10.0807 53.5566 9.95312V9.92578L53.4199 9.87109C53.2194 9.90755 53.1191 9.96224 53.1191 10.0352ZM51.7246 10.0898L51.5879 10.2266V10.5273L51.6973 10.6094H51.998V10.5273C51.998 10.3268 51.9251 10.181 51.7793 10.0898H51.7246ZM56.8926 10.1992H56.8652V10.3086L57.002 10.418H57.0566C57.0749 10.418 57.084 10.3815 57.084 10.3086C57.084 10.2357 57.0202 10.1992 56.8926 10.1992ZM59.1074 11.4297L58.8613 11.1562V11.2109C58.8613 11.3568 58.9251 11.4661 59.0527 11.5391H59.1074V11.4297ZM58.5879 11.6211H58.5605V11.7031L58.6699 11.7852H58.6973V11.7578L58.5879 11.6211ZM58.8613 12.0859L58.7793 12.0039V12.0859L58.834 12.168L58.8613 12.1133V12.0859ZM58.9434 12.4414H58.8887V12.5781L58.9707 12.6328H59.0254V12.5234L58.9434 12.4414ZM59.1621 13.043L59.0527 13.125V13.1797H59.2168L59.2715 13.125V13.043H59.1621ZM59.1621 13.5625H59.0527L59.0254 13.8086V13.9727L59.1621 13.8359V13.5625ZM59.8184 16.2148L59.873 16.1602H60.0098V16.2148L59.873 16.2969H59.8184V16.2148ZM60.1465 16.625L60.2559 16.5156L60.3652 16.543V16.5703L60.2559 16.707L60.1465 16.6523V16.625ZM54.1582 19.7695V19.8242C54.6322 19.6602 55.179 19.5234 55.7988 19.4141C56.1816 19.1953 56.373 19.013 56.373 18.8672L56.291 18.7578L57.7129 18.1836L57.6855 18.0195C58.1413 17.4909 58.3691 17.1536 58.3691 17.0078L58.3418 16.9805H58.2871C58.123 16.9805 57.2936 17.5911 55.7988 18.8125C55.5072 18.8125 54.9603 19.1315 54.1582 19.7695ZM52.627 20.6445V20.7266L52.7363 20.7539C52.8822 20.7539 53.666 20.7083 55.0879 20.6172C55.252 20.6172 55.7168 20.3711 56.4824 19.8789C56.7194 19.6966 56.8379 19.5417 56.8379 19.4141V19.3867L56.8105 19.3047H56.7012C56.4277 19.3047 55.9993 19.5599 55.416 20.0703C54.3223 20.3073 53.5566 20.4349 53.1191 20.4531C52.791 20.526 52.627 20.5898 52.627 20.6445ZM52.7363 19.6875L52.4082 19.7695V19.8516H52.7363L52.9004 19.7969V19.6875H52.7363ZM56.8105 19.9883L56.7559 20.0703V20.1523H56.8105L56.8926 20.0703V19.9883H56.8105ZM50.5762 20.4258L50.4941 20.4805C50.5124 20.5534 50.5762 20.5898 50.6855 20.5898C50.8678 20.5898 50.9681 20.5534 50.9863 20.4805L50.9043 20.4258H50.5762ZM51.1777 20.8086L51.2598 20.8633H51.3145C51.4603 20.8633 51.679 20.8086 51.9707 20.6992L52.2715 20.7266C52.4538 20.6719 52.5449 20.5807 52.5449 20.4531V20.4258H52.4082C51.5879 20.5534 51.1777 20.681 51.1777 20.8086ZM71.3574 14.9844L71.4668 15.0117C71.5762 15.0482 71.5671 15.7773 71.4395 17.1992H71.4668C71.4486 17.3815 70.5098 17.3815 68.6504 17.1992C66.5723 17.3268 65.2142 17.3359 64.5762 17.2266V17.1992C64.5944 17.0352 65.3874 16.9714 66.9551 17.0078C67.5931 16.9896 67.9303 16.9349 67.9668 16.8438L67.9941 16.8164L67.7207 16.7617C65.5697 16.5794 64.4577 16.707 64.3848 17.1445L64.166 17.1992C63.5462 17.1263 63.3366 16.4427 63.5371 15.1484C63.5918 14.8203 64.3301 14.6836 65.752 14.7383C65.752 14.7018 65.8522 14.7018 66.0527 14.7383L66.5723 14.9297L66.8184 14.957L71.3574 14.9844ZM70.7285 15.3398L70.5645 15.3672L70.5371 15.4492L70.7832 15.4766H70.9473L70.9746 15.3945L70.7285 15.3398ZM69.3066 15.4766L69.6621 15.5312C69.8262 15.5677 69.9355 15.5404 69.9902 15.4492V15.4219H69.9082C69.5254 15.4036 69.3249 15.4219 69.3066 15.4766ZM67.8301 15.4766V15.5586H67.8848C68.0488 15.5951 68.1491 15.5677 68.1855 15.4766V15.4492H68.0762C67.9486 15.431 67.8665 15.4401 67.8301 15.4766ZM69.5254 16.0781L70.0996 16.1875C70.7012 16.2422 71.0384 16.2057 71.1113 16.0781V16.0234L70.9746 15.9688C70.0449 15.9505 69.5618 15.987 69.5254 16.0781ZM66.5176 15.5312L66.4902 15.6406H66.5449C66.946 15.6953 67.2467 15.6589 67.4473 15.5312V15.5039L67.3926 15.4766C67.2285 15.4583 66.9368 15.4766 66.5176 15.5312ZM64.084 15.1484L64.002 15.2305L63.9199 15.5586L64.002 15.6406V15.668C64.0566 15.668 64.1296 15.5586 64.2207 15.3398V15.2305L64.1934 15.1484H64.084ZM64.9316 15.2578L64.7949 15.3672L64.7676 15.3945L64.9316 15.4219L64.9863 15.3672L65.0137 15.2852L64.9316 15.2578ZM69.0059 16.0234H68.9238V16.0781L69.0879 16.1328L69.0059 16.0234ZM68.541 16.7891V16.8164H68.5684C70.1725 17.0169 70.9928 17.0716 71.0293 16.9805V16.9531C71.0293 16.8984 70.9837 16.8255 70.8926 16.7344H70.8652C70.3001 16.6615 69.5254 16.6797 68.541 16.7891ZM63.9473 15.8867L63.8652 15.9414V16.0234H63.9199L64.002 15.9688V15.9141L63.9473 15.8867ZM71.5762 11.5938L71.6855 11.6211C71.8314 11.6393 71.7493 12.3503 71.4395 13.7539L71.4668 13.7812C71.4121 13.9635 70.4824 13.8906 68.6777 13.5625C66.5996 13.4531 65.2324 13.3255 64.5762 13.1797L64.6035 13.0977C64.6582 12.9518 65.4421 12.9792 66.9551 13.1797C67.6296 13.2161 67.985 13.1888 68.0215 13.0977V13.0703L67.7754 13.0156C65.6426 12.5964 64.5215 12.6055 64.4121 13.043L64.1934 13.0977C63.5918 12.9518 63.4551 12.2591 63.7832 11.0195C63.8561 10.6914 64.6035 10.6185 66.0254 10.8008C66.0436 10.7826 66.1439 10.7826 66.3262 10.8008L66.8184 11.0469L67.0371 11.1016L71.5762 11.5938ZM70.8926 11.8945H70.7285L70.7012 11.9492L70.9473 12.0312H71.1387V11.9766L70.8926 11.8945ZM69.498 11.8945L69.8262 11.9766C70.0085 12.013 70.1178 11.9857 70.1543 11.8945L70.0996 11.8672C69.6986 11.8125 69.498 11.8216 69.498 11.8945ZM68.0215 11.7578V11.8125C68.2038 11.8672 68.3223 11.8581 68.377 11.7852L68.4043 11.7305L68.2402 11.7031C68.1309 11.6849 68.0579 11.7031 68.0215 11.7578ZM69.6621 12.4961L70.209 12.6328C70.7741 12.7604 71.1022 12.7695 71.1934 12.6602L71.2207 12.5781L71.1113 12.5234C70.1816 12.4141 69.6986 12.4049 69.6621 12.4961ZM66.709 11.6484L66.6816 11.7578L66.709 11.7852C67.0371 11.8581 67.347 11.849 67.6387 11.7578V11.7305L67.584 11.7031C67.3652 11.6484 67.0736 11.6302 66.709 11.6484ZM64.3301 11.0469L64.2207 11.1016L64.1113 11.457L64.1934 11.5391C64.248 11.5391 64.3301 11.4388 64.4395 11.2383L64.4668 11.1289L64.3848 11.0469H64.3301ZM65.1504 11.2383L64.9863 11.293V11.3477L65.1504 11.4023L65.2324 11.3203V11.293L65.1504 11.2383ZM69.1426 12.3867H69.0879L69.0605 12.4414L69.1973 12.4961L69.1426 12.3867ZM68.623 13.0977L68.5957 13.1523H68.623C70.209 13.5169 71.0202 13.6445 71.0566 13.5352L71.084 13.5078C71.084 13.4349 71.0293 13.3529 70.9199 13.2617H70.8926C70.3275 13.1341 69.571 13.0794 68.623 13.0977ZM64.1113 11.7852H64.002V11.8945H64.084L64.166 11.8398L64.1934 11.7852H64.1113ZM86.3691 0.273438C87.4082 0.382812 87.9277 0.53776 87.9277 0.738281C87.9277 0.920573 87.9915 1.01172 88.1191 1.01172L88.2012 1.09375L87.9004 1.33984V1.44922H87.9824C88.0736 1.33984 88.1465 1.28516 88.2012 1.28516C88.2923 1.28516 88.3379 1.39453 88.3379 1.61328L88.584 9.10547C88.4017 9.88932 88.3105 11.4388 88.3105 13.7539V13.8633C88.3105 15.2669 88.347 16.1784 88.4199 16.5977C88.2741 16.6523 88.2012 16.7708 88.2012 16.9531C88.2012 17.1901 88.2467 17.3086 88.3379 17.3086H88.4199V17.1172H88.4746C88.5658 17.1172 88.6569 17.5456 88.748 18.4023L88.6934 18.4297H88.584C88.4382 18.2656 88.3105 18.1836 88.2012 18.1836V18.2383V18.3477C88.2012 18.6211 88.4382 18.7578 88.9121 18.7578C91.6283 18.612 92.9863 18.6211 92.9863 18.7852V18.8125C92.9863 18.849 92.8496 18.9128 92.5762 19.0039L92.5488 19.0586V19.0859C92.5853 19.1224 92.7493 19.1862 93.041 19.2773C93.1139 19.3503 93.1504 19.4505 93.1504 19.5781C92.9681 20.5807 92.7493 21.082 92.4941 21.082L91.9746 21.1367L90.5527 20.9727L89.6777 21.0273C84.7923 21.1003 82.3496 21.0456 82.3496 20.8633C82.2038 20.6628 82.1309 20.5169 82.1309 20.4258V20.3984L82.4043 19.4688L82.2949 19.2773C82.2949 19.0039 82.4863 18.8216 82.8691 18.7305L83.1973 18.6484L85.7676 18.5664C85.9863 18.5664 86.1139 18.4297 86.1504 18.1562V17.8828C86.1504 16.388 86.0957 15.1302 85.9863 14.1094C86.1504 8.71354 86.3236 6.01562 86.5059 6.01562L86.5332 5.66016C86.4603 4.11068 86.3327 3.33594 86.1504 3.33594C85.3483 3.86458 84.8105 4.38411 84.5371 4.89453L84.373 4.97656C83.334 4.59375 82.6686 4.22917 82.377 3.88281C82.3405 3.88281 82.304 3.75521 82.2676 3.5L82.3223 3.41797L82.5137 3.44531H82.7051C83.0697 3.44531 83.8535 2.81641 85.0566 1.55859C85.4212 1.23047 85.7129 0.856771 85.9316 0.4375C86.1139 0.328125 86.2598 0.273438 86.3691 0.273438ZM86.6973 1.20312V1.23047L86.7246 1.28516H86.7793C86.9434 1.28516 87.0345 1.25781 87.0527 1.20312V1.17578L86.9707 1.09375H86.8887C86.7611 1.11198 86.6973 1.14844 86.6973 1.20312ZM85.877 1.20312L85.7676 1.28516L85.8496 1.36719H85.9316L86.0957 1.33984V1.25781L86.0137 1.20312H85.877ZM87.9824 1.77734L87.9277 1.85938V1.94141L87.9824 1.96875L88.0645 1.94141V1.85938L87.9824 1.77734ZM83.9355 4.04688V4.12891H83.9629C84.2363 4.12891 84.5189 3.95573 84.8105 3.60938C85.7949 2.69792 86.2871 2.14193 86.2871 1.94141H86.2051C85.1842 2.79818 84.4277 3.5 83.9355 4.04688ZM87.2441 2.70703V2.73438L87.3809 2.84375L87.4629 2.81641V2.54297L87.4355 2.48828V2.46094C87.3079 2.47917 87.2441 2.5612 87.2441 2.70703ZM87.1348 2.70703H87.0254L86.834 3.17188V3.30859L86.9434 3.41797H87.1074C87.2168 3.41797 87.2806 3.38151 87.2988 3.30859V3.22656C87.2988 3.17188 87.2077 3.10807 87.0254 3.03516H86.9707V2.92578C87.0801 2.83464 87.1348 2.76172 87.1348 2.70703ZM83.3887 3.66406V3.71875H83.498C83.6986 3.71875 83.8717 3.58203 84.0176 3.30859L83.9902 3.25391H83.9629C83.7077 3.36328 83.5163 3.5 83.3887 3.66406ZM87.4355 4.64844L87.5176 6.53516H87.5723C87.6816 6.22526 87.7363 5.77865 87.7363 5.19531V4.40234C87.7363 3.80078 87.6999 3.5 87.627 3.5C87.5176 3.5 87.4538 3.88281 87.4355 4.64844ZM87.4355 8.77734V9.07812L87.5176 9.59766H87.5723C87.7181 9.59766 87.791 9.06901 87.791 8.01172V7.84766L87.709 7.76562C87.5267 7.83854 87.4355 8.17578 87.4355 8.77734ZM86.6426 13.7812H86.5605V13.918H86.6426V13.7812ZM87.5176 15.9688V15.9961V16.1875L87.627 16.2695H87.6816L87.7363 16.2148V16.1328C87.6999 16.1328 87.627 16.0781 87.5176 15.9688ZM87.709 16.8164H87.6816C87.5723 17.1263 87.5176 17.5091 87.5176 17.9648V18.1836C87.5176 18.4023 87.6087 18.5482 87.791 18.6211H87.8457C87.9004 18.6211 87.9277 18.5664 87.9277 18.457C87.9095 17.3633 87.8366 16.8164 87.709 16.8164ZM86.5605 17.5L86.4512 17.6641L86.5059 17.7734H86.5332L86.6426 17.6641V17.6094L86.5605 17.5ZM87.0254 17.9648L86.9434 18.0469V18.2383L87.0254 18.3203H87.1074V18.0469L87.0254 17.9648ZM83.5527 18.9219H83.3066V18.9766L83.416 19.0859H83.4707L83.5527 18.9766V18.9219ZM83.498 19.5781L82.7324 19.6602V19.7695L82.8145 19.8789H82.8691C83.0514 19.8789 83.2611 19.7786 83.498 19.5781ZM88.8027 19.4688V19.5781L90.6621 19.2773H90.8262V19.168C90.4069 19.1133 89.7324 19.2135 88.8027 19.4688ZM84.373 19.7695L83.7715 19.8516V19.9609H83.9355H84.1816C84.6374 19.9609 84.8652 19.9245 84.8652 19.8516L84.7832 19.7695H84.373ZM86.5332 19.7148L86.5059 19.7695V19.7969C86.5788 19.8698 86.6517 19.9062 86.7246 19.9062V19.8516C86.6882 19.7604 86.6243 19.7148 86.5332 19.7148ZM86.041 19.7695L85.9863 19.8516L86.041 19.9062H86.1504L86.2324 19.8516V19.7695H86.041ZM87.1074 19.9062L86.9707 19.9883V20.043C86.9707 20.1159 87.2533 20.1523 87.8184 20.1523H87.8457C87.9915 20.1523 88.0645 20.0977 88.0645 19.9883C87.9915 19.9336 87.9095 19.9062 87.8184 19.9062H87.1074ZM92.248 20.1797V20.2891L92.3574 20.3984C92.5579 20.3984 92.6582 20.2526 92.6582 19.9609V19.7422L92.6035 19.6602H92.4941C92.3301 19.7878 92.248 19.9609 92.248 20.1797ZM88.584 20.207C88.4746 20.3893 88.2832 20.4805 88.0098 20.4805V20.5352C88.0098 20.6081 88.2923 20.6536 88.8574 20.6719H88.9121C89.2402 20.4167 89.4681 20.1979 89.5957 20.0156C89.5775 19.9609 89.4954 19.9518 89.3496 19.9883C89.2038 20.0065 88.9486 20.0794 88.584 20.207ZM90.5527 19.9609L89.9512 20.0156V20.0703C89.9512 20.125 90.2155 20.1523 90.7441 20.1523L90.7715 20.125V20.0977C90.735 20.0065 90.6621 19.9609 90.5527 19.9609ZM91.1816 19.9609L91.0996 20.0156L91.127 20.125H91.1816L91.2637 20.0703V20.0156L91.1816 19.9609ZM89.8965 20.3438H89.7871V20.3984H89.8965V20.3438ZM91.7832 20.7539V20.7812C91.7832 20.8177 91.8652 20.8542 92.0293 20.8906C92.2116 20.8724 92.3027 20.8268 92.3027 20.7539V20.6992L92.1934 20.6172H92.084C91.9199 20.6172 91.8197 20.6628 91.7832 20.7539ZM101.271 2.32422C102.529 2.32422 103.705 2.73438 104.799 3.55469L106.303 5.79688C106.594 6.17969 106.859 6.69922 107.096 7.35547C107.387 7.79297 107.652 8.65885 107.889 9.95312L107.943 10.6367C107.943 11.056 107.861 11.5299 107.697 12.0586V12.25C107.697 12.4688 107.779 12.5781 107.943 12.5781L107.889 13.6172V14.8477C107.889 15.3945 107.624 16.4792 107.096 18.1016C106.95 18.4297 106.695 18.6849 106.33 18.8672C106.002 19.1953 104.972 19.7878 103.24 20.6445C102.493 21.1732 101.773 21.4375 101.08 21.4375H101.053C99.1387 21.2734 98.1816 21.1185 98.1816 20.9727C97.6348 20.7721 97.015 20.2799 96.3223 19.4961V19.4141L96.4043 19.332H96.4863L96.5957 19.4141H96.6777V19.332C96.6413 19.1315 96.5501 19.0312 96.4043 19.0312H96.2402L96.2129 19.168C95.9759 19.0951 95.6934 18.6758 95.3652 17.9102C95.2376 17.7826 95.1374 17.582 95.0645 17.3086C94.5176 16.707 94.1257 14.7383 93.8887 11.4023V11.293C94.0163 9.52474 94.1348 8.64062 94.2441 8.64062C94.2624 7.94792 94.5358 6.9362 95.0645 5.60547C95.3014 5.36849 95.5202 5.00391 95.7207 4.51172C97.015 3.05339 98.8652 2.32422 101.271 2.32422ZM101.354 2.59766H100.779V2.65234C100.779 2.74349 101.016 2.83464 101.49 2.92578H101.9V2.78906C101.827 2.66146 101.645 2.59766 101.354 2.59766ZM102.611 2.78906L102.557 2.87109L102.939 2.95312H103.049L103.131 2.92578C103.131 2.83464 102.985 2.78906 102.693 2.78906H102.611ZM103.732 3.17188H103.705V3.19922C104.179 3.80078 104.589 4.13802 104.936 4.21094H104.963V4.15625C104.471 3.5 104.061 3.17188 103.732 3.17188ZM103.213 3.39062L103.131 3.44531C103.258 3.6276 103.395 3.71875 103.541 3.71875H103.732V3.66406C103.732 3.55469 103.587 3.46354 103.295 3.39062H103.213ZM101.955 3.41797H101.572V3.44531C101.773 3.59115 102.128 3.69141 102.639 3.74609L102.693 3.71875V3.66406C102.693 3.59115 102.447 3.50911 101.955 3.41797ZM95.6934 10.6367C95.7298 11.0924 95.7845 11.3841 95.8574 11.5117L95.748 11.9219V12.0859L96.3496 15.2031C96.7507 16.3698 97.2702 17.2995 97.9082 17.9922C98.9108 18.6484 99.6947 18.9766 100.26 18.9766C101.062 18.9766 102.119 18.7122 103.432 18.1836C105.054 17.1992 105.865 16.3516 105.865 15.6406C106.157 14.6562 106.394 13.4349 106.576 11.9766V10.582C106.576 9.23307 106.221 8.06641 105.51 7.08203C105.51 6.91797 104.972 6.35286 103.896 5.38672C103.186 4.51172 102.557 4.07422 102.01 4.07422L100.834 3.80078H100.588C99.5488 3.80078 98.7467 4.23828 98.1816 5.11328C97.7988 5.42318 97.4525 5.82422 97.1426 6.31641C96.9603 6.31641 96.5775 6.82682 95.9941 7.84766C95.7936 8.50391 95.6934 9.43359 95.6934 10.6367ZM96.6777 4.70312V4.8125C96.7689 4.8125 96.9238 4.65755 97.1426 4.34766V4.21094H97.1152C97.0059 4.21094 96.86 4.375 96.6777 4.70312ZM96.0762 5.14062H96.1582L96.2676 5.03125V4.97656C96.14 4.97656 96.0762 5.03125 96.0762 5.14062ZM96.8145 5.93359H96.9238C97.0879 5.84245 97.1882 5.74219 97.2246 5.63281V5.55078H97.0059C96.8783 5.6237 96.8145 5.7513 96.8145 5.93359ZM105.893 5.87891C105.893 6.22526 106.111 6.84505 106.549 7.73828C106.622 7.75651 106.822 8.17578 107.15 8.99609C107.15 9.08724 107.178 9.13281 107.232 9.13281L107.342 9.05078V8.94141C107.232 8.48568 106.886 7.60156 106.303 6.28906C106.12 6.01562 105.984 5.87891 105.893 5.87891ZM107.287 9.76172H107.232V9.81641L107.424 10.3086C107.424 10.3997 107.342 10.6003 107.178 10.9102V10.9648C107.178 11.1107 107.242 11.2201 107.369 11.293H107.451C107.506 11.293 107.579 11.0286 107.67 10.5C107.524 10.1172 107.396 9.87109 107.287 9.76172ZM94.4629 9.84375L94.3535 9.95312V10.0352L94.4629 10.1172L94.5723 10.0625V9.92578L94.4629 9.84375ZM94.4629 10.6094H94.3809L94.3262 11.0469V11.3203C94.4173 11.3203 94.4629 11.1107 94.4629 10.6914V10.6094ZM95.1738 11.7578H95.0645L95.0371 12.0039C95.0371 12.8789 95.2741 14.0547 95.748 15.5312L96.1582 16.0508H96.2129V16.0234C96.0671 15.5859 95.8392 14.5286 95.5293 12.8516C95.4199 12.7422 95.3014 12.3776 95.1738 11.7578ZM94.9277 15.5859H94.873V15.6953H94.9277V15.5859ZM106.412 17.8555V17.9102H106.494C106.713 17.9102 106.959 17.4271 107.232 16.4609V16.4336L107.178 16.3242C107.05 16.3242 106.795 16.8346 106.412 17.8555ZM95.2012 17.2539V17.3359C95.3652 17.3906 95.6022 17.7005 95.9121 18.2656L96.1582 18.4297H96.3223V18.4023C95.9759 17.6367 95.6934 17.1901 95.4746 17.0625H95.4473C95.3561 17.0807 95.2741 17.1445 95.2012 17.2539ZM98.7559 19.1406L97.3887 18.375V18.4297C97.9355 19.25 98.6191 19.6602 99.4395 19.6602C99.6582 19.6419 99.7676 19.6055 99.7676 19.5508C99.7311 19.4961 99.3939 19.3594 98.7559 19.1406ZM96.4863 18.4844H96.3223L96.2676 18.5938C96.2858 18.6667 96.3587 18.7031 96.4863 18.7031H96.541L96.5957 18.6484V18.5938L96.4863 18.4844ZM99.7949 19.7148L99.7676 19.7422C99.7676 19.8516 99.9316 19.9336 100.26 19.9883H100.479C100.679 19.9518 100.779 19.8607 100.779 19.7148H101.053C101.436 19.7148 102.229 19.4961 103.432 19.0586V19.0312L103.377 18.9766H103.158L102.01 19.2773C101.518 19.2773 100.779 19.4232 99.7949 19.7148ZM101.08 20.3711V20.3984L101.135 20.4531H101.572C102.447 20.2708 102.885 20.125 102.885 20.0156C103.195 19.9427 103.395 19.8242 103.486 19.6602V19.5781H103.432C102.374 19.8151 101.59 20.0794 101.08 20.3711ZM96.9238 19.7422H96.8965C96.8965 19.9062 97.0605 20.043 97.3887 20.1523H97.416C97.2155 19.8789 97.0514 19.7422 96.9238 19.7422ZM99.1387 20.2344V20.3711C99.7949 20.681 100.205 20.8359 100.369 20.8359H100.588V20.6719C100.023 20.3802 99.5397 20.2344 99.1387 20.2344Z" fill="white"/>
</svg>
