<svg width="285" height="194" viewBox="0 0 285 194" fill="none" xmlns="http://www.w3.org/2000/svg">
<path d="M66.1876 139.579C53.4548 141.79 40.0671 125.932 37.239 109.648C34.4108 93.3636 45.8447 103.851 58.5776 101.639C71.3104 99.4279 73.0107 89.6805 83.3487 101.639C86.1769 117.923 78.9205 137.368 66.1876 139.579Z" fill="#553320"/>
<ellipse rx="14.3261" ry="23.1861" transform="matrix(0.271733 0.962373 -0.994342 0.106224 59.8483 103.249)" fill="#6A9337"/>
<ellipse rx="4.5025" ry="6.04853" transform="matrix(0.271733 0.962373 -0.994342 0.106224 59.6262 102.461)" fill="#AAD079"/>
<ellipse rx="0.409318" ry="0.504045" transform="matrix(0.271733 0.962373 -0.994342 0.106224 52.443 100.794)" fill="#404040"/>
<ellipse rx="0.409318" ry="0.504045" transform="matrix(0.271733 0.962373 -0.994342 0.106224 64.134 109.284)" fill="#404040"/>
<ellipse rx="0.409318" ry="0.504045" transform="matrix(0.271733 0.962373 -0.994342 0.106224 58.6769 108.244)" fill="#404040"/>
<ellipse rx="0.409318" ry="0.504045" transform="matrix(0.271733 0.962373 -0.994342 0.106224 52.3307 104.052)" fill="#404040"/>
<ellipse rx="0.409318" ry="0.504045" transform="matrix(0.271733 0.962373 -0.994342 0.106224 66.029 105.023)" fill="#404040"/>
<ellipse rx="0.409318" ry="0.504045" transform="matrix(0.271733 0.962373 -0.994342 0.106224 67.1442 101.658)" fill="#404040"/>
<ellipse rx="0.409318" ry="0.504045" transform="matrix(0.271733 0.962373 -0.994342 0.106224 63.4665 106.92)" fill="#404040"/>
<ellipse rx="0.409318" ry="0.504045" transform="matrix(0.271733 0.962373 -0.994342 0.106224 61.6843 107.922)" fill="#404040"/>
<ellipse rx="0.409318" ry="0.504045" transform="matrix(0.271733 0.962373 -0.994342 0.106224 55.2253 106.989)" fill="#404040"/>
<ellipse rx="0.409318" ry="0.504045" transform="matrix(0.271733 0.962373 -0.994342 0.106224 56.7873 97.895)" fill="#404040"/>
<ellipse rx="0.409318" ry="0.504045" transform="matrix(0.271733 0.962373 -0.994342 0.106224 66.0314 97.7187)" fill="#404040"/>
<ellipse rx="0.409318" ry="0.504045" transform="matrix(0.271733 0.962373 -0.994342 0.106224 64.4718 99.5087)" fill="#404040"/>
<ellipse rx="0.409318" ry="0.504045" transform="matrix(0.271733 0.962373 -0.994342 0.106224 53.0002 99.1113)" fill="#404040"/>
<ellipse rx="0.409318" ry="0.504045" transform="matrix(0.271733 0.962373 -0.994342 0.106224 68.0334 104.81)" fill="#404040"/>
<ellipse rx="0.409318" ry="0.504045" transform="matrix(0.271733 0.962373 -0.994342 0.106224 61.5773 96.5715)" fill="#404040"/>
<ellipse rx="0.409318" ry="0.504045" transform="matrix(0.271733 0.962373 -0.994342 0.106224 55.34 96.4262)" fill="#404040"/>
<ellipse rx="0.409318" ry="0.504045" transform="matrix(0.271733 0.962373 -0.994342 0.106224 50.9958 99.3251)" fill="#404040"/>
<ellipse rx="0.409318" ry="0.504045" transform="matrix(0.271733 0.962373 -0.994342 0.106224 65.4714 106.706)" fill="#404040"/>
<ellipse rx="0.409318" ry="0.504045" transform="matrix(0.271733 0.962373 -0.994342 0.106224 55.8923 109.353)" fill="#404040"/>
<ellipse rx="0.409318" ry="0.504045" transform="matrix(0.271733 0.962373 -0.994342 0.106224 49.8805 102.691)" fill="#404040"/>
<ellipse rx="0.409318" ry="0.504045" transform="matrix(0.271733 0.962373 -0.994342 0.106224 51.9953 106.523)" fill="#404040"/>
<ellipse rx="0.409318" ry="0.504045" transform="matrix(0.271733 0.962373 -0.994342 0.106224 59.5719 96.7856)" fill="#404040"/>
<path d="M62.7999 128.599C62.7999 141.523 44.8843 151.999 28.3565 151.999C11.8286 151.999 6.8999 141.523 6.8999 128.599C6.8999 115.676 14.805 113.338 28.3565 105.199C44.8843 105.199 62.7999 115.676 62.7999 128.599Z" fill="#653E27"/>
<ellipse cx="25.75" cy="128.599" rx="22.75" ry="23.4" fill="#709B3A"/>
<ellipse cx="24.4498" cy="128.599" rx="7.15" ry="6.10435" fill="#B4DD7F"/>
<ellipse cx="20.5499" cy="135.212" rx="0.65" ry="0.508696" fill="#404040"/>
<ellipse cx="36.15" cy="126.056" rx="0.65" ry="0.508696" fill="#404040"/>
<ellipse cx="33.5499" cy="131.143" rx="0.65" ry="0.508696" fill="#404040"/>
<ellipse cx="25.7501" cy="136.23" rx="0.65" ry="0.508696" fill="#404040"/>
<ellipse cx="29.65" cy="123.004" rx="0.65" ry="0.508696" fill="#404040"/>
<ellipse cx="24.4498" cy="120.969" rx="0.65" ry="0.508696" fill="#404040"/>
<ellipse cx="32.2501" cy="126.056" rx="0.65" ry="0.508696" fill="#404040"/>
<ellipse cx="33.5499" cy="128.09" rx="0.65" ry="0.508696" fill="#404040"/>
<ellipse cx="30.9498" cy="134.195" rx="0.65" ry="0.508696" fill="#404040"/>
<ellipse cx="16.65" cy="130.125" rx="0.65" ry="0.508696" fill="#404040"/>
<ellipse cx="17.9498" cy="120.969" rx="0.65" ry="0.508696" fill="#404040"/>
<ellipse cx="20.5499" cy="123.004" rx="0.65" ry="0.508696" fill="#404040"/>
<ellipse cx="17.9498" cy="134.195" rx="0.65" ry="0.508696" fill="#404040"/>
<ellipse cx="29.65" cy="120.969" rx="0.65" ry="0.508696" fill="#404040"/>
<ellipse cx="15.3502" cy="125.038" rx="0.65" ry="0.508696" fill="#404040"/>
<ellipse cx="14.0499" cy="131.143" rx="0.65" ry="0.508696" fill="#404040"/>
<ellipse cx="17.9498" cy="136.23" rx="0.65" ry="0.508696" fill="#404040"/>
<ellipse cx="32.2501" cy="124.021" rx="0.65" ry="0.508696" fill="#404040"/>
<ellipse cx="34.8502" cy="134.195" rx="0.65" ry="0.508696" fill="#404040"/>
<ellipse cx="23.15" cy="138.265" rx="0.65" ry="0.508696" fill="#404040"/>
<ellipse cx="29.65" cy="137.247" rx="0.65" ry="0.508696" fill="#404040"/>
<ellipse cx="15.3502" cy="127.073" rx="0.65" ry="0.508696" fill="#404040"/>
<path d="M148.165 111.682C104.081 116.559 93.5447 80.0739 93.7871 61.2216C93.6591 57.6158 91.4201 50.8614 83.4888 52.69C85.7552 50.1789 93.3715 42.9866 103.703 40.8777C109.432 31.3466 122.213 17.3023 132.684 26.8639C138.809 20.895 154.478 12.3779 168.156 26.0617C173.646 21.1976 180.451 22.2846 184.214 24.14C180.508 27.0255 174.393 33.8504 179.587 38.0652C186.079 43.3336 203.27 105.586 148.165 111.682Z" fill="#61D62C"/>
<path d="M141.966 61.9781C129.708 41.416 111.718 39.2636 104.256 40.7576C119.744 16.4906 129.811 24.8896 132.4 26.5313C154.752 10.3575 166.242 24.0281 167.971 26.0968C166.88 26.3912 166.035 27.5944 161.482 38.1841C143.477 42.5754 145.269 57.8364 148.415 64.918C147.103 65.5971 143.977 65.9598 141.966 61.9781Z" fill="#52BA23"/>
<path d="M146.024 32.2148C138.67 35.6038 133.844 29.7166 132.35 26.3494C154.157 10.3229 166.753 24.4752 168.334 25.9986C165.028 27.4761 162.795 35.0995 161.398 38.5966C152.485 30.8613 152.136 31.7356 146.024 32.2148Z" fill="#409D15"/>
<path d="M135.904 83.5932C131.999 67.6803 137.568 72.4179 148.388 64.8173C140.977 44.5851 156.05 39.7369 161.504 38.2651C163.049 32.3254 165.442 28.4663 168.156 26.0617M142.317 62.5554C128.486 42.0762 114.588 38.656 103.703 40.8777M103.703 40.8777C93.3715 42.9866 85.7552 50.1789 83.4888 52.69C91.4201 50.8614 93.6591 57.6158 93.7871 61.2216C93.5447 80.0739 104.081 116.559 148.165 111.682C203.27 105.586 186.079 43.3336 179.587 38.0652C174.393 33.8504 180.508 27.0255 184.214 24.14C180.451 22.2846 173.646 21.1976 168.156 26.0617M103.703 40.8777C109.432 31.3466 122.213 17.3023 132.684 26.8639M157.712 35.778C149.413 26.7067 144.041 34.9823 137.243 32.9167C135.798 30.2947 134.267 28.3095 132.684 26.8639M132.684 26.8639C138.809 20.895 154.478 12.3779 168.156 26.0617" stroke="#4BAB20" stroke-width="5"/>
<path d="M104.591 63.6792C108.812 78.5966 122.464 106.635 143.304 99.4507" stroke="#86E35C" stroke-width="5"/>
<path d="M175.799 44.2659C181.944 52.4182 184.535 81.6921 172.879 93.4189" stroke="#86E35C" stroke-width="5"/>
<path d="M26.5773 49.0179C27.3884 47.1776 25.0392 41.2885 23.7631 38.574C30.7869 23.2631 37.8298 26.9173 42.4736 26.3544C45.8233 -0.878081 67.3498 22.8962 74.6155 24.1758C81.8812 25.4553 94.9538 35.0637 96.2228 57.7387C97.4919 80.4136 111.98 85.5636 117.441 89.0693C122.088 92.0529 133.798 95.2645 129.987 107.293C129.32 109.398 128.178 111.773 126.439 114.465C125.685 115.631 124.874 116.556 124.014 117.265C122.165 120.319 111.655 125.256 106.454 118.98C96.1821 98.6551 64.5713 90.9029 52.0686 96.5183C39.5658 102.134 23.1592 74.8469 14.7243 66.8706C8.71316 54.3307 20.2197 50.8793 26.7244 50.721C26.4781 49.9884 26.4101 49.3972 26.5773 49.0179Z" fill="#61D62C"/>
<path d="M98.1577 69.3239C87.0919 73.2375 79.8207 89.6297 77.5683 97.3366C83.7396 99.6447 97.7098 106.489 104.22 115.403C112.359 126.545 121.906 122.649 128.126 111.655C134.346 100.66 128.026 95.6763 120.698 90.7979C111.132 88.5044 100.662 74.5488 98.1577 69.3239Z" fill="#D3F3C4"/>
<path d="M16.0035 68.4138C7.08356 56.2402 19.1333 51.3409 26.2732 50.4129C33.088 58.6366 38.7155 66.7491 42.6798 77.6999C45.8513 86.4605 60.2313 85.6652 67.0248 84.1725C76.6098 92.6557 82.49 87.4179 84.2403 92.173C80.4114 92.1336 80.6417 96.4934 81.2355 98.6782C75.5898 97.1512 62.4335 94.4016 54.9738 95.619C46.9234 104.845 27.1533 83.6308 16.0035 68.4138Z" fill="#52BA23"/>
<path d="M100.415 72.9287C93.7168 69.4268 91.4738 74.6194 91.1895 77.6535C79.3275 46.6005 74.8321 45.5805 70.7694 44.2018C61.4 22.764 45.5209 26.0671 42.3549 25.7704C44.2884 13.6555 49.9495 12.1765 52.5384 12.9513C60.3134 16.6074 77.9177 25.4294 86.1347 31.469C95.7258 37.757 96.8034 64.6059 100.415 72.9287Z" fill="#3F9D15"/>
<path d="M90.7324 86.7927C99.2394 94.7092 117.506 110.38 122.517 109.732" stroke="#B8D3AC" stroke-width="3"/>
<path d="M42.4736 26.3544C45.8233 -0.878079 67.3497 22.8962 74.6155 24.1758C81.8812 25.4553 94.9538 35.0637 96.2228 57.7387C97.4919 80.4136 111.98 85.5636 117.441 89.0693C122.088 92.0529 133.798 95.2645 129.987 107.293M42.4736 26.3544C37.8298 26.9173 30.7869 23.2631 23.7631 38.574C25.0392 41.2885 27.3884 47.1776 26.5773 49.0179C26.4101 49.3972 26.4781 49.9884 26.7244 50.721M42.4736 26.3544C49.0404 24.4412 63.8525 25.2832 70.5665 43.9571C77.6468 47.2154 79.2668 46.9679 89.3725 75.4611C90.6589 78.7754 123.381 89.1898 129.987 107.293M26.7244 50.721C27.9719 54.4314 33.793 61.7672 36.7934 63.5485C40.3862 65.6816 38.5201 89.8595 64.4103 84.101C69.4868 83.1794 72.9502 93.0852 81.7058 89.1148C88.8669 92.3999 111.559 127.532 124.014 117.265M26.7244 50.721C20.2197 50.8793 8.71316 54.3307 14.7243 66.8706C23.1592 74.8469 39.5658 102.134 52.0686 96.5183C64.5713 90.9029 96.1821 98.6551 106.454 118.98C111.655 125.256 122.165 120.319 124.014 117.265M124.014 117.265C124.874 116.556 125.685 115.631 126.439 114.465C128.178 111.773 129.32 109.398 129.987 107.293" stroke="#4BAB20" stroke-width="3"/>
<path d="M41.0712 42.1601L52.3958 52.4949M82.1751 79.6716L70.2214 68.7626M70.2214 68.7626C68.6568 65.0747 65.8848 56.8947 67.3134 53.6782M70.2214 68.7626L63.7203 62.8297M52.3958 52.4949C49.0298 51.0195 41.1341 48.9548 36.4793 52.4987M52.3958 52.4949L63.7203 62.8297M63.7203 62.8297C60.3791 60.6056 52.7422 56.9438 48.9244 60.0894" stroke="#D2F3C4" stroke-width="3"/>
<path d="M243.595 54.7837C256.164 47.022 266.303 54.4031 269.801 59.0638C278.348 76.4192 261.441 84.6887 249.235 92.5363C238.758 101.176 225.906 93.9202 222.19 93.4248C218.473 92.9293 191.044 113.278 185.505 118.869C177.127 121.871 175.861 107.771 180.112 107.626C188.509 106.162 214.803 88.9946 218.118 86.3281C223.077 63.7328 227.883 64.4859 243.595 54.7837Z" fill="#378912"/>
<path d="M243.595 54.7837C256.164 47.022 266.303 54.4031 269.801 59.0638C278.348 76.4192 261.441 84.6887 249.235 92.5363C238.758 101.176 225.906 93.9202 222.19 93.4248C218.473 92.9293 191.044 113.278 185.505 118.869C177.127 121.871 175.861 107.771 180.112 107.626C188.509 106.162 214.803 88.9946 218.118 86.3281C223.077 63.7328 227.883 64.4859 243.595 54.7837Z" stroke="#2B6511" stroke-width="5"/>
<path d="M226.811 86.8505L231.785 83.6476M262.083 64.1393L248.517 72.8744M248.517 72.8744C247.934 69.3945 247.739 61.8975 251.621 59.7485M248.517 72.8744L242.638 76.6596M242.638 76.6596C245.277 79.0087 251.731 82.95 256.434 79.9219M242.638 76.6596L236.759 80.4448M236.759 80.4448C235.342 77.7899 233.621 71.6698 238.067 68.4277M236.759 80.4448L231.785 83.6476M231.785 83.6476C234.501 85.1304 240.991 87.8415 245.218 86.8241" stroke="#D2F3C4" stroke-width="3"/>
<path d="M194.427 25.2469C199.65 11.4282 212.186 11.0901 217.802 12.6483C235.162 21.184 226.813 38.0512 221.93 51.7164C218.901 64.9542 204.292 67.0468 201.045 68.9218C197.798 70.7968 188.482 103.655 187.504 111.464C182.699 118.954 173.093 108.555 176.373 105.847C182.132 99.5632 192.49 69.9186 193.489 65.7838C183.632 44.8557 187.899 42.5202 194.427 25.2469Z" fill="#378912"/>
<path d="M194.427 25.2469C199.65 11.4282 212.186 11.0901 217.802 12.6483C235.162 21.184 226.813 38.0512 221.93 51.7164C218.901 64.9542 204.292 67.0468 201.045 68.9218C197.798 70.7968 188.482 103.655 187.504 111.464C182.699 118.954 173.093 108.555 176.373 105.847C182.132 99.5632 192.49 69.9186 193.489 65.7838C183.632 44.8557 187.899 42.5202 194.427 25.2469Z" stroke="#2B6511" stroke-width="5"/>
<path d="M200.695 60.8934L202.682 55.3208M214.784 21.3784L209.365 36.5765M209.365 36.5765C206.78 34.175 202.051 28.3542 203.815 24.2832M209.365 36.5765L207.017 43.1623M207.017 43.1623C210.541 43.4133 218.059 42.598 219.938 37.3294M207.017 43.1623L204.669 49.7481M204.669 49.7481C201.926 48.5092 196.828 44.7109 198.373 39.429M204.669 49.7481L202.682 55.3208M202.682 55.3208C205.739 54.8382 212.534 53.0268 215.263 49.6413" stroke="#D2F3C4" stroke-width="3"/>
<path d="M228.042 31.8736C237.718 20.7115 249.599 24.7269 254.33 28.1299C267.671 42.1397 254.007 55.0819 244.702 66.2175C237.284 77.5926 222.852 74.507 219.157 75.1444C215.462 75.7817 195.364 103.395 191.747 110.385C184.65 115.753 179.229 102.675 183.243 101.267C190.819 97.3608 210.785 73.123 213.151 69.5882C211.134 46.543 215.946 45.8262 228.042 31.8736Z" fill="#3C9713"/>
<path d="M228.042 31.8736C237.718 20.7115 249.599 24.7269 254.33 28.1299C267.671 42.1397 254.007 55.0819 244.702 66.2175C237.284 77.5926 222.852 74.507 219.157 75.1444C215.462 75.7817 195.364 103.395 191.747 110.385C184.65 115.753 179.229 102.675 183.243 101.267C190.819 97.3608 210.785 73.123 213.151 69.5882C211.134 46.543 215.946 45.8262 228.042 31.8736Z" stroke="#2D6C11" stroke-width="5"/>
<path d="M221.603 67.4897L225.394 62.9472M248.481 35.279L238.143 47.6677M238.143 47.6677C236.547 44.5208 234.122 37.4244 237.184 34.214M238.143 47.6677L233.664 53.0362M233.664 53.0362C236.884 54.4897 244.221 56.3231 247.804 52.0284M233.664 53.0362L229.184 58.4047M229.184 58.4047C227.039 56.2943 223.567 50.9679 226.843 46.5455M229.184 58.4047L225.394 62.9472M225.394 62.9472C228.429 63.5508 235.432 64.1997 239.162 61.9659" stroke="#D2F3C4" stroke-width="3"/>
<path d="M185.511 43.7697C192.205 30.6006 204.704 31.6273 210.116 33.7867C226.447 44.159 216.313 60.0187 209.974 73.0721C205.524 85.9021 190.773 86.3943 187.342 87.9052C183.911 89.4162 171.077 121.067 169.257 128.723C163.666 135.647 155.247 124.265 158.802 121.929C165.21 116.309 178.729 87.9662 180.172 83.9644C172.648 62.0888 177.144 60.231 185.511 43.7697Z" fill="#4BBC18"/>
<path d="M185.511 43.7697C192.205 30.6006 204.704 31.6273 210.116 33.7867C226.447 44.159 216.313 60.0187 209.974 73.0721C205.524 85.9021 190.773 86.3943 187.342 87.9052C183.911 89.4162 171.077 121.067 169.257 128.723C163.666 135.647 155.247 124.265 158.802 121.929C165.21 116.309 178.729 87.9662 180.172 83.9644C172.648 62.0888 177.144 60.231 185.511 43.7697Z" stroke="#409719" stroke-width="5"/>
<path d="M187.867 79.8863L190.448 74.5627M206.168 42.1369L199.129 56.6559M199.129 56.6559C196.821 53.9877 192.752 47.6873 194.949 43.8322M199.129 56.6559L196.079 62.9475M196.079 62.9475C199.555 63.5801 207.117 63.5869 209.558 58.5537M196.079 62.9475L193.029 69.2391M193.029 69.2391C190.438 67.7094 185.782 63.3793 187.892 58.2967M193.029 69.2391L190.448 74.5627M190.448 74.5627C193.539 74.4153 200.491 73.3533 203.572 70.2845" stroke="#D2F3C4" stroke-width="3"/>
<path d="M218.995 68.8225C231.24 60.5585 241.669 67.5233 245.353 72.0387C254.595 89.034 238.037 97.9808 226.158 106.316C216.039 115.373 202.904 108.643 199.171 108.298C195.438 107.953 168.854 129.395 163.545 135.206C155.297 138.545 153.461 124.507 157.703 124.191C166.033 122.387 191.611 104.17 194.815 101.372C198.856 78.5945 203.688 79.1525 218.995 68.8225Z" fill="#46AF17"/>
<path d="M218.995 68.8225C231.24 60.5585 241.669 67.5233 245.353 72.0387C254.595 89.034 238.037 97.9808 226.158 106.316C216.039 115.373 202.904 108.643 199.171 108.298C195.438 107.953 168.854 129.395 163.545 135.206C155.297 138.545 153.461 124.507 157.703 124.191C166.033 122.387 191.611 104.17 194.815 101.372C198.856 78.5945 203.688 79.1525 218.995 68.8225Z" stroke="#378215" stroke-width="5"/>
<path d="M203.523 101.542L208.363 98.1406M237.847 77.4223L224.645 86.6991M224.645 86.6991C223.922 83.2457 223.424 75.7627 227.215 73.4584M224.645 86.6991L218.924 90.7191M218.924 90.7191C221.657 92.9596 228.265 96.6365 232.841 93.4205M218.924 90.7191L213.204 94.7391M213.204 94.7391C211.681 92.1438 209.713 86.0983 214.025 82.679M213.204 94.7391L208.363 98.1406M208.363 98.1406C211.137 99.5122 217.731 101.959 221.914 100.771" stroke="#D2F3C4" stroke-width="3"/>
<path d="M201.42 58.1185C211.096 46.9564 222.977 50.9718 227.708 54.3748C241.049 68.3846 227.385 81.3268 218.08 92.4624C210.662 103.837 196.23 100.752 192.535 101.389C188.84 102.027 168.741 129.64 165.125 136.63C158.028 141.998 152.607 128.92 156.621 127.512C164.197 123.606 184.162 99.3679 186.529 95.8331C184.512 72.7879 189.323 72.0711 201.42 58.1185Z" fill="#61D62C"/>
<path d="M201.42 58.1185C211.096 46.9564 222.977 50.9718 227.708 54.3748C241.049 68.3846 227.385 81.3268 218.08 92.4624C210.662 103.837 196.23 100.752 192.535 101.389C188.84 102.027 168.741 129.64 165.125 136.63C158.028 141.998 152.607 128.92 156.621 127.512C164.197 123.606 184.162 99.3679 186.529 95.8331C184.512 72.7879 189.323 72.0711 201.42 58.1185Z" stroke="#4BAB20" stroke-width="5"/>
<path d="M194.982 93.7346L198.772 89.1921M221.859 61.5239L211.522 73.9126M211.522 73.9126C209.926 70.7657 207.501 63.6693 210.563 60.4589M211.522 73.9126L207.042 79.2811M207.042 79.2811C210.263 80.7346 217.599 82.568 221.183 78.2733M207.042 79.2811L202.563 84.6495M202.563 84.6495C200.418 82.5392 196.946 77.2128 200.222 72.7904M202.563 84.6495L198.772 89.1921M198.772 89.1921C201.808 89.7957 208.81 90.4445 212.541 88.2108" stroke="#D2F3C4" stroke-width="3"/>
<path d="M72 89.5656C79.1643 107.938 93.9814 112.864 100.494 113.031C104.158 113.031 106.662 115.028 106.987 123.016C107.394 133.001 98.0319 133.999 89.8907 133.999C82.3848 133.999 62.2103 126.011 54.0691 107.04C45.9279 88.0679 69.1506 81.0783 72 89.5656Z" fill="#D62727"/>
<path d="M81.5 128.999C103.915 125.002 105.859 113.686 108.421 107.695C109.775 104.291 114.936 98.8489 122.478 101.499C131.907 104.812 132.022 121.357 125 129.999C120.267 135.825 111.137 151.448 90.4997 151.999C69.8623 152.55 73.9152 133.502 81.5 128.999Z" fill="#3AD213"/>
<path d="M81.5 128.999C103.915 125.002 105.859 113.686 108.421 107.695C109.775 104.291 114.936 98.8489 122.478 101.499C131.907 104.812 132.022 121.357 125 129.999C120.267 135.825 111.137 151.448 90.4997 151.999C69.8623 152.55 73.9152 133.502 81.5 128.999Z" fill="#3AD213"/>
<path d="M81.5 128.999C103.915 125.002 105.859 113.686 108.421 107.695C109.775 104.291 114.936 98.8489 122.478 101.499C131.907 104.812 132.022 121.357 125 129.999C120.267 135.825 111.137 151.448 90.4997 151.999C69.8623 152.55 73.9152 133.502 81.5 128.999Z" fill="#3AD213"/>
<path d="M81.5 128.999C103.915 125.002 105.859 113.686 108.421 107.695C109.775 104.291 114.936 98.8489 122.478 101.499C131.907 104.812 132.022 121.357 125 129.999C120.267 135.825 111.137 151.448 90.4997 151.999C69.8623 152.55 73.9152 133.502 81.5 128.999Z" fill="#3AD213"/>
<path d="M88.6723 160.084C76.8253 144.319 61.2291 143.565 54.9119 145.158C51.3836 146.145 48.4346 144.896 45.97 137.29C42.8892 127.784 51.6369 124.301 59.4775 122.109C66.7061 120.088 88.2864 122.348 101.236 138.427C114.185 154.505 93.7019 167.49 88.6723 160.084Z" fill="#80268E"/>
<path d="M132 32.5298H119.5C119.5 25.5298 124.2 11.5298 143 11.5298C161.8 11.5298 164.833 25.5298 164 32.5298V125.53H154V32.5298C154.667 28.8631 153.4 21.5298 143 21.5298C132.6 21.5298 131.333 28.8631 132 32.5298Z" fill="white" stroke="white"/>
<path d="M164.5 118.03L153.5 126.03V113.03L164.5 107.03V118.03Z" fill="#AF2222"/>
<path d="M164.5 96.0298L153.5 104.03V91.0298L164.5 85.0298V96.0298Z" fill="#AF2222"/>
<path d="M164.5 74.0298L153.5 82.0298V68.9014L164.5 63.0298V74.0298Z" fill="#AF2222"/>
<path d="M164.5 52.0298L153.5 60.0298V47.0298L164.5 41.0298V52.0298Z" fill="#AF2222"/>
<path d="M164.5 32.5298C162 34.0298 153.5 38.0298 153.5 38.0298V30.5298C153 26.5298 151.5 25.0298 151.5 25.0298C151.5 25.0298 160 20.5298 161.5 19.5298C162.5 20.5298 163.59 22.4013 164.25 24.5298C164.5 27.5298 165 29.5298 164.5 32.5298Z" fill="#AF2222"/>
<path d="M145 11.0298C146.074 13.7402 148.813 23.0996 148.813 23.0996C144 21.5298 140.5 21.5298 135.5 24.0298C135.5 24.0298 132.743 14.6723 132 13.0298C136 11.0298 142 11.0298 145 11.0298L145 11.0298Z" fill="#AF2222"/>
<path d="M132.5 29.0298L121.5 22.5298C119 26.0298 119 31.8631 119 33.0298H133C132.5 32.0298 132.333 30.0298 132.5 29.0298Z" fill="#AF2222"/>
<path d="M132.383 78.8382C133.398 87.999 139.688 95.6957 142.398 100.999C158.898 121.999 147.313 153.652 114.898 145.999C78.8984 137.499 99.1557 106.656 103.398 100.999C107.641 95.3421 104.806 80.9596 107.281 75.6562C117.888 55.8572 131.493 70.8096 132.383 78.8382Z" fill="#88D625"/>
<path d="M132.575 79.1685C133.59 88.3294 139.688 96.026 142.398 101.329C159.899 122.829 145.703 156.165 111.398 144.999C79.7284 134.691 99.3476 106.986 103.59 101.329C107.833 95.6725 104.998 81.2899 107.473 75.9865C118.079 56.1875 131.685 71.1399 132.575 79.1685Z" stroke="#578F0F"/>
<path d="M123.19 63.1469C120.141 59.6532 112.865 53.1669 108.149 55.1718C112.867 62.3226 114.52 68.5037 123.19 63.1469Z" fill="#608E24" stroke="#3A5B0F"/>
<path d="M121.061 62.6269C120.77 62.6269 120.189 64.0804 110.887 56.5222" stroke="#A2D163"/>
<path d="M131.368 57.9541C128.473 58.1131 123.071 66.5757 120.731 70.7871C120.625 66.1051 125.966 57.0646 128.058 55.498C130.672 53.5398 127.173 55.9162 131.368 57.9541Z" fill="#684029" stroke="#5D2607"/>
<path d="M172.877 155.797L184.566 87.1978L227.688 111.503L172.877 155.797Z" fill="#F2A761" stroke="#D38133"/>
<circle cx="217.448" cy="78.7551" r="19" transform="rotate(29.4067 217.448 78.7551)" fill="#E96A6A"/>
<circle cx="197.886" cy="84.9485" r="19" transform="rotate(29.4067 197.886 84.9485)" fill="#EE96E0"/>
<circle cx="222.279" cy="98.6965" r="19" transform="rotate(29.4067 222.279 98.6965)" fill="#78DF77"/>
<circle cx="123" cy="135.371" r="25" fill="#E2711F"/>
<path d="M126.001 109.147C122.952 105.653 115.676 99.1669 110.96 101.172C115.678 108.323 117.331 114.504 126.001 109.147Z" fill="#608E24" stroke="#3A5B0F"/>
<path d="M123.872 108.627C123.581 108.627 123 110.08 113.698 102.522" stroke="#A2D163"/>
<path d="M134.179 103.954C131.284 104.113 125.882 112.576 123.542 116.787C123.437 112.105 128.777 103.065 130.869 101.498C133.483 99.5398 129.984 101.916 134.179 103.954Z" fill="#608E24" stroke="#3A5B0F"/>
<path d="M94.6292 132.499C94.4625 127.332 92.7292 116.599 87.1292 114.999C86.1292 124.499 83.1292 130.999 94.6292 132.499Z" fill="#608E24" stroke="#3A5B0F"/>
<path d="M99.9558 118.773C97.0849 120.187 95.2589 131.118 94.7048 136.406C92.572 131.697 94.0852 120.206 95.5316 117.711C97.3396 114.591 94.8143 118.518 99.9558 118.773Z" fill="#684029" stroke="#5D2607"/>
<path d="M72.1296 132.999C57.1296 143.999 73.6296 170.499 79.6296 167.999C81.9157 167.047 84.7839 166.018 87.6294 165.293C93.1294 167.528 104.729 170.899 107.129 166.499C110.129 160.999 120.129 123.999 94.6294 132.999C92.1295 129.332 84.1296 124.199 72.1296 132.999Z" fill="#AE2C2C"/>
<path d="M96.1294 164.499C93.8599 164.063 90.7584 164.495 87.6294 165.293M87.6294 165.293C84.7839 166.018 81.9157 167.047 79.6296 167.999C73.6296 170.499 57.1296 143.999 72.1296 132.999C84.1296 124.199 92.1295 129.332 94.6294 132.999C120.129 123.999 110.129 160.999 107.129 166.499C104.729 170.899 93.1294 167.528 87.6294 165.293Z" stroke="#930D0D"/>
<path d="M232.689 115.003C224.726 108.579 212.897 94.4302 229.29 89.2261C249.781 82.7209 242.892 110.275 232.689 115.003Z" fill="#90D274"/>
<path d="M232.689 115.003C224.726 108.579 212.897 94.4302 229.29 89.2261C249.781 82.7209 242.892 110.275 232.689 115.003ZM232.689 115.003C235.787 121.688 182.941 140.453 172.075 146.515M232.689 115.003C233.267 109.18 233.885 96.9265 231.736 94.5033" stroke="#4BAB20" stroke-width="3"/>
<path d="M253.833 127.428C245.869 121.004 234.041 106.855 250.434 101.651C270.925 95.1455 264.035 122.699 253.833 127.428Z" fill="#90D274"/>
<path d="M253.833 127.428C245.869 121.004 234.041 106.855 250.434 101.651C270.925 95.1455 264.035 122.699 253.833 127.428ZM253.833 127.428C256.931 134.112 204.085 152.877 193.218 158.939M253.833 127.428C254.41 121.604 255.028 109.351 252.88 106.928" stroke="#4BAB20" stroke-width="3"/>
<path d="M255.447 130.911C255.202 141.14 258.352 159.311 272.919 150.166C291.127 138.736 265.65 126.183 255.447 130.911Z" fill="#90D274"/>
<path d="M255.447 130.911C255.202 141.14 258.352 159.311 272.919 150.166C291.127 138.736 265.65 126.183 255.447 130.911ZM255.447 130.911C252.349 124.227 203.873 152.42 192.224 156.794M255.447 130.911C260.264 134.235 270.013 141.683 270.473 144.889" stroke="#4BAB20" stroke-width="3"/>
<path d="M226.959 132.148C226.713 142.377 229.864 160.547 244.43 151.403C262.639 139.972 237.161 127.419 226.959 132.148Z" fill="#90D274"/>
<path d="M226.959 132.148C226.713 142.377 229.864 160.547 244.43 151.403C262.639 139.972 237.161 127.419 226.959 132.148ZM226.959 132.148C223.861 125.464 175.384 153.657 163.735 158.031M226.959 132.148C231.776 135.472 241.524 142.92 241.985 146.126" stroke="#4BAB20" stroke-width="3"/>
<path d="M228.667 115.812C228.421 126.041 231.572 144.212 246.138 135.067C264.347 123.637 238.869 111.084 228.667 115.812Z" fill="#90D274"/>
<path d="M228.667 115.812C228.421 126.041 231.572 144.212 246.138 135.067C264.347 123.637 238.869 111.084 228.667 115.812ZM228.667 115.812C225.569 109.128 177.093 137.322 165.443 141.695M228.667 115.812C233.484 119.136 243.232 126.584 243.693 129.79" stroke="#4BAB20" stroke-width="3"/>
<circle cx="184.876" cy="143.488" r="16" transform="rotate(-19.2875 184.876 143.488)" fill="#33A000"/>
<circle cx="151.038" cy="143.675" r="16" transform="rotate(-19.2875 151.038 143.675)" fill="#00A084"/>
<circle cx="167.321" cy="132.68" r="16" transform="rotate(-19.2875 167.321 132.68)" fill="#9937BC"/>
<circle cx="185.631" cy="151.7" r="16" transform="rotate(-19.2875 185.631 151.7)" fill="#EAAECE"/>
<circle cx="161.987" cy="156.795" r="16" transform="rotate(-19.2875 161.987 156.795)" fill="#B30D0D"/>
</svg>
