<svg width="48" height="56" viewBox="0 0 48 56" fill="none" xmlns="http://www.w3.org/2000/svg">
<path d="M29.6292 18.5C29.4625 13.3333 27.7292 2.6 22.1292 1C21.1292 10.5 18.1292 17 29.6292 18.5Z" fill="#608E24" stroke="#3A5B0F"/>
<path d="M34.9558 4.77418C32.0849 6.18771 30.2589 17.1186 29.7048 22.4073C27.572 17.6984 29.0852 6.20739 30.5316 3.7118C32.3396 0.59232 29.8143 4.51909 34.9558 4.77418Z" fill="#684029" stroke="#5D2607"/>
<path d="M7.12957 19C-7.87043 30 8.62957 56.5001 14.6296 54.0001C16.9157 53.0476 19.7839 52.0194 22.6294 51.2937C28.1294 53.5291 39.7294 56.9 42.1294 52.5C45.1294 47 55.1294 10.0001 29.6294 19C27.1295 15.3334 19.1296 10.2 7.12957 19Z" fill="#AE2C2C"/>
<path d="M31.1294 50.5C28.8599 50.0636 25.7584 50.4957 22.6294 51.2937M22.6294 51.2937C19.7839 52.0194 16.9157 53.0476 14.6296 54.0001C8.62957 56.5001 -7.87043 30 7.12957 19C19.1296 10.2 27.1295 15.3334 29.6294 19C55.1294 10.0001 45.1294 47 42.1294 52.5C39.7294 56.9 28.1294 53.5291 22.6294 51.2937Z" stroke="#930D0D"/>
</svg>
