<svg width="119" height="98" viewBox="0 0 119 98" fill="none" xmlns="http://www.w3.org/2000/svg">
<path d="M56.0706 94.4011C12.2384 87.6229 11.5731 49.6526 16.7195 31.5147C17.5354 28.0001 17.1338 20.8956 9 20.5944C11.8423 18.7606 21.0696 13.8013 31.5939 14.4574C39.6081 6.74819 55.6069 -3.48074 63.2254 8.47918C70.6939 4.31233 88.041 0.172395 97.6811 16.9475C104.249 13.682 110.535 16.5045 113.685 19.2764C109.355 21.0964 101.673 26.0922 105.589 31.5147C110.484 38.2929 110.861 102.874 56.0706 94.4011Z" fill="#61D62C"/>
<path d="M63.037 44.7988C56.5601 21.753 39.7528 14.9874 32.1587 14.4853C53.4346 -4.90778 60.9659 5.82428 63.037 8.08369C88.8318 -1.707 96.3631 14.4853 97.4928 16.933C96.3631 16.933 95.2334 17.8744 88.0786 26.912C69.5516 26.4601 67.3048 41.6608 68.4972 49.3176C67.0537 49.6314 63.9408 49.167 63.037 44.7988Z" fill="#52BA23"/>
<path d="M74.7106 17.1212C66.7274 18.4768 63.602 11.5354 63.0371 7.89531C88.267 -1.89538 96.7397 15.0501 97.8694 16.9329C94.292 17.4977 90.1498 24.2759 87.8904 27.2884C81.3005 17.4977 80.7357 18.2509 74.7106 17.1212Z" fill="#409D15"/>
<path d="M51.5519 64.0877C51.9284 47.7071 56.0706 53.7321 68.4973 49.2133C66.6145 27.7491 82.4302 26.9959 88.0787 26.9959C91.1184 21.6641 94.4341 18.5618 97.6811 16.9475M63.2254 45.4477C55.2081 22.0719 42.6813 15.1485 31.5939 14.4574M31.5939 14.4574C21.0696 13.8013 11.8423 18.7606 9 20.5944C17.1338 20.8956 17.5354 28.0001 16.7195 31.5147C11.5731 49.6526 12.2384 87.6229 56.0706 94.4011C110.861 102.874 110.484 38.2929 105.589 31.5147C101.673 26.0922 109.355 21.0964 113.685 19.2764C110.535 16.5045 104.249 13.682 97.6811 16.9475M31.5939 14.4574C39.6081 6.74819 55.6069 -3.48074 63.2254 8.47918M85.0662 23.6068C79.4177 12.6864 72.0747 19.2764 66.0496 15.5107C65.3375 12.6028 64.3772 10.2874 63.2254 8.47918M63.2254 8.47918C70.6939 4.31233 88.041 0.172395 97.6811 16.9475" stroke="#4BAB20" stroke-width="5"/>
<path d="M26.5103 36.7026C26.6985 52.2046 32.573 82.8319 54.5644 81.3256" stroke="#86E35C" stroke-width="5"/>
<path d="M100.317 36.5144C104.125 45.9861 98.9989 74.9241 84.6894 83.2085" stroke="#86E35C" stroke-width="5"/>
</svg>
