<svg width="46" height="118" viewBox="0 0 46 118" fill="none" xmlns="http://www.w3.org/2000/svg">
<path d="M13 23.5308H0.5C0.5 16.5308 5.2 2.53076 24 2.53076C42.8 2.53076 45.8333 16.5308 45 23.5308V116.531H35V23.5308C35.6667 19.8641 34.4 12.5308 24 12.5308C13.6 12.5308 12.3333 19.8641 13 23.5308Z" fill="white" stroke="white"/>
<path d="M45.5 109.031L34.5 117.031V104.031L45.5 98.0308V109.031Z" fill="#AF2222"/>
<path d="M45.5 87.0308L34.5 95.0308V82.0308L45.5 76.0308V87.0308Z" fill="#AF2222"/>
<path d="M45.5 65.0308L34.5 73.0308V59.9024L45.5 54.0308V65.0308Z" fill="#AF2222"/>
<path d="M45.5 43.0308L34.5 51.0308V38.0308L45.5 32.0308V43.0308Z" fill="#AF2222"/>
<path d="M45.5 23.5308C43 25.0308 34.5 29.0308 34.5 29.0308V21.5308C34 17.5308 32.5 16.0308 32.5 16.0308C32.5 16.0308 41 11.5308 42.5 10.5308C43.5 11.5308 44.5901 13.4022 45.25 15.5308C45.5 18.5308 46 20.5308 45.5 23.5308Z" fill="#AF2222"/>
<path d="M26 2.03076C27.074 4.74119 29.8129 14.1006 29.8129 14.1006C25 12.5307 21.5 12.5307 16.5 15.0308C16.5 15.0308 13.7427 5.67328 12.9996 4.03078C17 2.03076 23 2.03076 26 2.03076L26 2.03076Z" fill="#AF2222"/>
<path d="M13.5 20.0308L2.5 13.5308C0 17.0308 0 22.8641 0 24.0308H14C13.5 23.0308 13.3333 21.0308 13.5 20.0308Z" fill="#AF2222"/>
</svg>
