<svg width="443" height="316" viewBox="0 0 443 316" fill="none" xmlns="http://www.w3.org/2000/svg">
<rect x="1" y="1" width="441.21" height="313.678" rx="50" fill="#73ABC3"/>
<path d="M442 159.178H1V263.678C1 300.078 31 312.678 46 314.678H394.5C424.5 313.178 441 287.678 442 267.678V159.178Z" fill="#8CCA3C" stroke="#8CCA3C"/>
<path d="M179.5 62.678H1.5V47.678C1.5 15.678 32.5 2.17798 47.5 1.17798H173C173.833 6.34465 172.6 18.578 161 26.178C192.2 26.978 186.333 50.8446 179.5 62.678Z" fill="white" stroke="white"/>
<path d="M54.4193 109H33.5774C29.9368 106.643 33.5774 104.547 34.7605 104.547C33.5774 100.705 36.8538 100.531 38.6741 99.9196C43.2247 95.816 47.0472 99.3958 48.4124 100.531C50.8698 100.269 51.5979 103.325 51.5979 104.547C55.8209 104.966 55.2384 107.69 54.4193 109Z" fill="white"/>
<path d="M294.586 47H243.841C234.977 41.2137 243.841 36.0702 246.721 36.0702C243.841 26.6406 251.818 26.212 256.25 24.7118C267.33 14.6392 276.637 23.4259 279.961 26.212C285.944 25.569 287.717 33.0699 287.717 36.0702C297.999 37.0989 296.58 43.7854 294.586 47Z" fill="white"/>
<path d="M411.94 94H373.88C367.233 89.7138 373.88 85.9039 376.041 85.9039C373.88 78.919 379.863 78.6015 383.187 77.4902C391.497 70.0291 398.478 76.5377 400.971 78.6015C405.458 78.1252 406.787 83.6814 406.787 85.9039C414.499 86.6658 413.435 91.6188 411.94 94Z" fill="white"/>
<path d="M71 296.678L142.5 168.678L301.5 168.678L321 202.178L324 232.678L304.5 296.678L71 296.678Z" fill="#EDAEE3"/>
<path d="M88 264.678H117L102 296.678H71L88 264.678Z" fill="white"/>
<path d="M124.5 200.678H150L134 232.678H106.5L124.5 200.678Z" fill="white"/>
<path d="M164 168.678H186.5L176 200.678H150L164 168.678Z" fill="white"/>
<path d="M134 232.678H161.5L148 264.678H117L134 232.678Z" fill="white"/>
<path d="M148 264.678H175.5L164 296.678H132.5L148 264.678Z" fill="white"/>
<path d="M188.5 232.678H216L204.5 264.678H175.5L188.5 232.678Z" fill="white"/>
<path d="M212 168.678H239.5L228 200.678H199L212 168.678Z" fill="white"/>
<path d="M204.5 264.678H231.5L220 296.678H194L204.5 264.678Z" fill="white"/>
<path d="M228 200.678H255L243.5 232.678H216L228 200.678Z" fill="white"/>
<path d="M243.5 232.678H270.5L260.5 264.678H231.5L243.5 232.678Z" fill="white"/>
<path d="M267 168.678H294L282.5 200.678H255L267 168.678Z" fill="white"/>
<path d="M260.5 264.678H287L277 296.678H250L260.5 264.678Z" fill="white"/>
<path d="M282.5 200.678H309.5L298 232.678H270.5L282.5 200.678Z" fill="white"/>
<path d="M298 232.678H324L314 264.678H287L298 232.678Z" fill="white"/>
<path d="M314 190.678L320 200.678H309.5L314 190.678Z" fill="white"/>
<path d="M176 200.678H199L188 232.678H162L176 200.678Z" fill="white"/>
<g filter="url(#filter0_d)">
<rect x="324.993" y="277.884" width="111.22" height="26.4809" rx="2" transform="rotate(-22.7223 324.993 277.884)" fill="#68422D"/>
<path d="M359.62 285.686L354.677 273.882L358.309 272.361C359.347 271.927 360.372 271.774 361.385 271.902C362.401 272.023 363.32 272.42 364.142 273.092C364.961 273.759 365.6 274.641 366.06 275.738L366.287 276.281C366.747 277.378 366.928 278.449 366.832 279.493C366.741 280.535 366.383 281.463 365.759 282.277C365.134 283.091 364.307 283.717 363.277 284.155L359.62 285.686ZM357.934 274.834L361.234 282.714L362.41 282.221C363.361 281.823 363.958 281.208 364.2 280.376C364.443 279.544 364.327 278.547 363.853 277.386L363.592 276.762C363.09 275.562 362.461 274.758 361.705 274.35C360.948 273.937 360.091 273.931 359.134 274.331L357.934 274.834ZM377.755 271.469C378.242 272.631 378.463 273.736 378.419 274.784C378.375 275.831 378.069 276.753 377.5 277.55C376.938 278.345 376.162 278.95 375.173 279.364C374.194 279.773 373.223 279.904 372.259 279.755C371.294 279.606 370.419 279.185 369.633 278.491C368.845 277.792 368.211 276.877 367.73 275.744L367.485 275.16C366.999 273.998 366.779 272.89 366.826 271.834C366.877 270.771 367.184 269.845 367.75 269.056C368.318 268.259 369.094 267.655 370.078 267.243C371.061 266.831 372.034 266.703 372.995 266.859C373.959 267.008 374.835 267.439 375.622 268.151C376.413 268.855 377.05 269.786 377.535 270.942L377.755 271.469ZM375.067 271.966C374.548 270.729 373.933 269.881 373.22 269.423C372.508 268.966 371.741 268.909 370.919 269.253C370.103 269.595 369.607 270.177 369.431 271.001C369.253 271.819 369.418 272.842 369.926 274.071L370.167 274.647C370.672 275.852 371.285 276.694 372.007 277.174C372.728 277.653 373.505 277.718 374.337 277.369C375.153 277.028 375.647 276.446 375.818 275.625C375.986 274.799 375.816 273.771 375.308 272.542L375.067 271.966ZM389.502 268.551C389.942 269.86 389.89 271.057 389.347 272.142C388.81 273.224 387.849 274.055 386.465 274.635C384.952 275.268 383.548 275.259 382.252 274.608C380.96 273.948 379.941 272.73 379.196 270.952L378.894 270.23C378.419 269.095 378.2 268.011 378.238 266.979C378.276 265.947 378.569 265.046 379.117 264.277C379.668 263.5 380.435 262.905 381.419 262.493C382.781 261.923 384.031 261.828 385.169 262.209C386.307 262.59 387.217 263.413 387.899 264.677L385.466 265.696C385.088 264.959 384.644 264.497 384.133 264.31C383.627 264.116 383 264.175 382.254 264.487C381.444 264.827 380.958 265.373 380.797 266.127C380.639 266.873 380.811 267.858 381.311 269.084L381.685 269.976C382.219 271.252 382.801 272.104 383.432 272.532C384.067 272.958 384.801 272.997 385.634 272.648C386.385 272.334 386.873 271.929 387.098 271.435C387.326 270.933 387.317 270.311 387.07 269.57L389.502 268.551ZM397.705 263.725L393.035 265.68L394.359 268.842L399.839 266.547L400.658 268.501L392.745 271.814L387.802 260.011L395.698 256.704L396.523 258.674L391.059 260.962L392.237 263.775L396.907 261.82L397.705 263.725ZM406.908 262.243C406.716 261.784 406.407 261.501 405.981 261.393C405.552 261.28 404.86 261.265 403.904 261.348C402.945 261.426 402.164 261.435 401.562 261.376C399.918 261.213 398.839 260.518 398.326 259.291C398.059 258.654 397.999 258.011 398.148 257.365C398.299 256.711 398.651 256.103 399.204 255.541C399.762 254.977 400.46 254.52 401.297 254.169C402.14 253.816 402.956 253.655 403.745 253.687C404.531 253.714 405.221 253.929 405.817 254.335C406.417 254.737 406.866 255.293 407.162 256.001L404.73 257.019C404.504 256.479 404.158 256.131 403.693 255.976C403.226 255.816 402.684 255.865 402.068 256.123C401.474 256.372 401.065 256.693 400.841 257.085C400.616 257.472 400.589 257.87 400.761 258.281C400.922 258.665 401.248 258.906 401.741 259.005C402.238 259.101 402.91 259.106 403.757 259.018C405.315 258.855 406.539 258.949 407.429 259.3C408.319 259.651 408.957 260.287 409.342 261.205C409.77 262.227 409.719 263.191 409.191 264.099C408.66 265 407.741 265.725 406.433 266.273C405.525 266.653 404.629 266.835 403.745 266.817C402.859 266.795 402.097 266.577 401.461 266.164C400.829 265.748 400.354 265.16 400.035 264.398L402.475 263.376C403.021 264.678 404.072 265.004 405.628 264.352C406.207 264.11 406.609 263.804 406.836 263.436C407.061 263.063 407.085 262.665 406.908 262.243Z" fill="white"/>
</g>
<defs>
<filter id="filter0_d" x="320.993" y="234.924" width="120.816" height="75.3858" filterUnits="userSpaceOnUse" color-interpolation-filters="sRGB">
<feFlood flood-opacity="0" result="BackgroundImageFix"/>
<feColorMatrix in="SourceAlpha" type="matrix" values="0 0 0 0 0 0 0 0 0 0 0 0 0 0 0 0 0 0 127 0"/>
<feOffset dy="4"/>
<feGaussianBlur stdDeviation="2"/>
<feColorMatrix type="matrix" values="0 0 0 0 0 0 0 0 0 0 0 0 0 0 0 0 0 0 0.25 0"/>
<feBlend mode="normal" in2="BackgroundImageFix" result="effect1_dropShadow"/>
<feBlend mode="normal" in="SourceGraphic" in2="effect1_dropShadow" result="shape"/>
</filter>
</defs>
</svg>
