<svg width="82" height="132" viewBox="0 0 82 132" fill="none" xmlns="http://www.w3.org/2000/svg">
<path d="M22.8107 15.4057C24.6095 14.5063 26.5582 8.47288 27.3077 5.56857C42.4853 -1.73899 45.5765 5.56857 49.5114 8.09813C69.4667 -10.733 70.8721 21.308 75.6502 26.9293C80.4282 32.5505 84.3631 48.29 70.8721 66.559C57.3811 84.8281 65.2509 98.038 67.2183 104.221C68.8927 109.484 75.86 119.428 65.2509 126.259C63.3942 127.454 60.9992 128.554 57.9433 129.517C56.6184 129.934 55.4037 130.129 54.2895 130.126C50.9167 131.298 39.6742 128.393 39.6742 120.242C44.7333 98.0379 25.3401 71.8992 12.1301 68.2454C-1.07978 64.5916 3.69828 33.1126 2.29297 21.5891C5.66571 8.09808 16.7278 12.7824 21.8373 16.811C22.1151 16.0898 22.44 15.5911 22.8107 15.4057Z" fill="#61D62C"/>
<path d="M64.9696 76.7137C53.952 72.6664 37.894 80.6486 31.2422 85.1456C34.5212 90.8605 40.9107 105.045 40.2362 116.062C39.393 129.834 49.2302 132.926 61.0348 128.429C72.8394 123.932 71.153 116.062 68.6234 107.631C62.7211 99.7608 63.5643 82.3349 64.9696 76.7137Z" fill="#D3F3C4"/>
<path d="M2.29287 23.593C3.19227 8.52808 15.5965 12.4442 21.6862 16.2854C21.6862 26.9657 20.843 36.8029 16.9081 47.7644C13.7602 56.5335 25.34 65.0965 31.5233 68.2819C33.4908 80.9297 41.3605 80.6486 39.6741 85.4267C36.7511 82.9533 34.1466 86.4572 33.2097 88.5184C29.8369 83.7403 21.4613 73.2286 14.9407 69.4061C2.855 71.3736 1.16863 42.4242 2.29287 23.593Z" fill="#52BA23"/>
<path d="M64.4077 80.9297C61.4847 73.9593 56.4443 76.5264 54.2895 78.6812C64.9698 47.2022 62.1592 43.5485 59.9107 39.8946C66.3751 17.4096 52.041 9.82102 49.7925 7.57248C59.0113 -0.522111 64.314 1.95123 65.813 4.19973C69.4668 11.9758 77.3928 30.0012 79.8661 39.8946C83.2389 50.856 66.9373 72.2167 64.4077 80.9297Z" fill="#3F9D15"/>
<path d="M48.106 85.4268C49.605 96.9503 53.671 120.672 57.9431 123.37" stroke="#B8D3AC" stroke-width="3"/>
<path d="M49.5114 8.09813C69.4667 -10.733 70.8721 21.308 75.6502 26.9293C80.4282 32.5505 84.3631 48.29 70.8721 66.559C57.3811 84.8281 65.2509 98.038 67.2183 104.221C68.8927 109.484 75.86 119.428 65.2509 126.259M49.5114 8.09813C45.5765 5.56857 42.4853 -1.73899 27.3077 5.56857C26.5582 8.47288 24.6095 14.5063 22.8107 15.4057C22.44 15.5911 22.1151 16.0898 21.8373 16.811M49.5114 8.09813C55.7884 10.815 66.6562 20.9145 59.9107 39.577C63.2834 46.6036 64.6887 47.4467 54.2895 75.834C53.1652 79.2068 71.7153 108.104 65.2509 126.259M21.8373 16.811C20.4303 20.464 20.2318 29.8266 21.4054 33.1126C22.8107 37.0475 5.9469 54.4734 29.5561 66.559C34.053 69.0886 30.3992 78.9258 39.6742 81.4553C43.0921 88.554 38.1481 130.084 54.2895 130.126M21.8373 16.811C16.7278 12.7824 5.66571 8.09808 2.29297 21.5891C3.69828 33.1127 -1.07978 64.5916 12.1301 68.2454C25.3401 71.8992 44.7333 98.0379 39.6742 120.242C39.6742 128.393 50.9167 131.298 54.2895 130.126M54.2895 130.126C55.4037 130.129 56.6184 129.934 57.9433 129.517C60.9992 128.554 63.3942 127.454 65.2509 126.259" stroke="#4BAB20" stroke-width="3"/>
<path d="M38.3462 19.3732L40.4716 34.5566M46.0607 74.4833L43.8172 58.4564M43.8172 58.4564C44.9657 54.6185 48.0507 46.5513 51.203 44.9862M43.8172 58.4564L42.5971 49.74M40.4716 34.5566C38.8213 31.2729 34.0592 24.6451 28.2138 24.4038M40.4716 34.5566L42.5971 49.74M42.5971 49.74C41.4435 45.8956 37.8997 38.2032 32.953 38.1893" stroke="#D2F3C4" stroke-width="3"/>
</svg>
