<svg width="78" height="115" viewBox="0 0 78 115" fill="none" xmlns="http://www.w3.org/2000/svg">
<path d="M26.9984 33.6842C17.8214 38.2081 0.0102653 42.9905 2.18173 25.929C4.89606 4.60213 26.9984 22.4391 26.9984 33.6842Z" fill="#90D274"/>
<path d="M26.9984 33.6842C17.8214 38.2081 0.010266 42.9905 2.18173 25.929C4.89606 4.60213 26.9984 22.4391 26.9984 33.6842ZM26.9984 33.6842C34.3659 33.6842 29.1699 89.5218 30.1005 101.93M26.9984 33.6842C21.9575 30.7114 11.1002 24.9984 7.9981 25.929" stroke="#4BAB20" stroke-width="3"/>
<path d="M47.162 19.725C37.985 24.2489 20.1738 29.0313 22.3453 11.9698C25.0596 -9.3571 47.162 8.47991 47.162 19.725Z" fill="#90D274"/>
<path d="M47.162 19.725C37.985 24.2489 20.1738 29.0313 22.3453 11.9698C25.0596 -9.3571 47.162 8.47991 47.162 19.725ZM47.162 19.725C54.5294 19.725 49.3335 75.5625 50.2641 87.9709M47.162 19.725C42.1211 16.7522 31.2638 11.0392 28.1617 11.9698" stroke="#4BAB20" stroke-width="3"/>
<path d="M51.0016 19.725C60.1786 24.2489 77.9897 29.0313 75.8183 11.9698C73.1039 -9.3571 51.0016 8.47991 51.0016 19.725Z" fill="#90D274"/>
<path d="M51.0016 19.725C60.1786 24.2489 77.9897 29.0313 75.8183 11.9698C73.1039 -9.3571 51.0016 8.47991 51.0016 19.725ZM51.0016 19.725C43.6341 19.725 48.8301 75.5625 47.8995 87.9709M51.0016 19.725C56.0425 16.7522 66.8998 11.0392 70.0019 11.9698" stroke="#4BAB20" stroke-width="3"/>
<path d="M40.1441 46.0927C49.3211 50.6165 67.1323 55.3989 64.9608 38.3374C62.2465 17.0106 40.1441 34.8476 40.1441 46.0927Z" fill="#90D274"/>
<path d="M40.1441 46.0927C49.3211 50.6165 67.1323 55.3989 64.9608 38.3374C62.2465 17.0106 40.1441 34.8476 40.1441 46.0927ZM40.1441 46.0927C32.7767 46.0927 37.9727 101.93 37.042 114.339M40.1441 46.0927C45.185 43.1198 56.0424 37.4069 59.1445 38.3374" stroke="#4BAB20" stroke-width="3"/>
<path d="M26.0411 37.6742C35.2181 42.1981 53.0293 46.9805 50.8578 29.919C48.1435 8.59212 26.0411 26.4291 26.0411 37.6742Z" fill="#90D274"/>
<path d="M26.0411 37.6742C35.2181 42.1981 53.0293 46.9805 50.8578 29.919C48.1435 8.59212 26.0411 26.4291 26.0411 37.6742ZM26.0411 37.6742C18.6737 37.6742 23.8696 93.5118 22.939 105.92M26.0411 37.6742C31.082 34.7014 41.9394 28.9884 45.0414 29.919" stroke="#4BAB20" stroke-width="3"/>
</svg>
