<svg width="443" height="316" viewBox="0 0 443 316" fill="none" xmlns="http://www.w3.org/2000/svg">
<rect x="1" y="1" width="441.21" height="313.678" rx="50" fill="#73ABC3"/>
<path d="M442 159.178H1V263.678C1 300.078 31 312.678 46 314.678H394.5C424.5 313.178 441 287.678 442 267.678V159.178Z" fill="#8CCA3C" stroke="#8CCA3C"/>
<path d="M179.5 62.678H1.5V47.678C1.5 15.678 32.5 2.17798 47.5 1.17798H173C173.833 6.34465 172.6 18.578 161 26.178C192.2 26.978 186.333 50.8446 179.5 62.678Z" fill="white" stroke="white"/>
<path d="M256.435 104H200.252C190.438 97.3564 200.252 91.451 203.441 91.451C200.252 80.6244 209.084 80.1323 213.991 78.4098C226.258 66.845 236.562 76.9335 240.242 80.1323C246.866 79.3941 248.829 88.0062 248.829 91.451C260.213 92.6321 258.643 100.309 256.435 104Z" fill="white"/>
<path d="M373.435 57H317.252C307.438 50.3564 317.252 44.451 320.441 44.451C317.252 33.6244 326.084 33.1323 330.991 31.4098C343.258 19.845 353.562 29.9335 357.242 33.1323C363.866 32.3941 365.829 41.0062 365.829 44.451C377.213 45.6321 375.643 53.3091 373.435 57Z" fill="white"/>
<path d="M71 296.678L142.5 168.678L301.5 168.678L321 202.178L324 232.678L304.5 296.678L71 296.678Z" fill="#EBBE20"/>
<path d="M88 264.678H117L102 296.678H71L88 264.678Z" fill="white"/>
<path d="M124.5 200.678H150L134 232.678H106.5L124.5 200.678Z" fill="white"/>
<path d="M164 168.678H186.5L176 200.678H150L164 168.678Z" fill="white"/>
<path d="M134 232.678H161.5L148 264.678H117L134 232.678Z" fill="white"/>
<path d="M148 264.678H175.5L164 296.678H132.5L148 264.678Z" fill="white"/>
<path d="M188.5 232.678H216L204.5 264.678H175.5L188.5 232.678Z" fill="white"/>
<path d="M212 168.678H239.5L228 200.678H199L212 168.678Z" fill="white"/>
<path d="M204.5 264.678H231.5L220 296.678H194L204.5 264.678Z" fill="white"/>
<path d="M228 200.678H255L243.5 232.678H216L228 200.678Z" fill="white"/>
<path d="M243.5 232.678H270.5L260.5 264.678H231.5L243.5 232.678Z" fill="white"/>
<path d="M267 168.678H294L282.5 200.678H255L267 168.678Z" fill="white"/>
<path d="M260.5 264.678H287L277 296.678H250L260.5 264.678Z" fill="white"/>
<path d="M282.5 200.678H309.5L298 232.678H270.5L282.5 200.678Z" fill="white"/>
<path d="M298 232.678H324L314 264.678H287L298 232.678Z" fill="white"/>
<path d="M314 190.678L320 200.678H309.5L314 190.678Z" fill="white"/>
<path d="M176 200.678H199L188 232.678H162L176 200.678Z" fill="white"/>
<g filter="url(#filter0_d)">
<rect x="324.993" y="277.884" width="111.22" height="26.4809" rx="2" transform="rotate(-22.7223 324.993 277.884)" fill="#68422D"/>
<path d="M359.702 280.281L355.033 282.236L357.052 287.06L354.62 288.078L349.677 276.275L357.363 273.056L358.188 275.026L352.934 277.226L354.211 280.274L358.881 278.319L359.702 280.281ZM366.277 278.118L364.339 278.93L366.148 283.251L363.716 284.269L358.773 272.465L363.159 270.629C364.554 270.045 365.759 269.905 366.776 270.21C367.793 270.515 368.539 271.234 369.015 272.369C369.352 273.175 369.458 273.921 369.333 274.609C369.211 275.289 368.863 275.936 368.288 276.552L372.862 280.306L372.91 280.419L370.299 281.513L366.277 278.118ZM363.514 276.96L365.476 276.138C366.087 275.882 366.495 275.53 366.701 275.082C366.905 274.628 366.893 274.128 366.664 273.582C366.431 273.026 366.088 272.655 365.636 272.469C365.189 272.282 364.638 272.325 363.984 272.599L362.03 273.417L363.514 276.96ZM378.311 264.284L381.567 272.058C382.108 273.35 382.13 274.541 381.634 275.632C381.143 276.72 380.198 277.558 378.798 278.144C377.42 278.721 376.173 278.815 375.057 278.424C373.94 278.034 373.107 277.205 372.557 275.936L369.264 268.072L371.696 267.054L374.958 274.845C375.282 275.618 375.702 276.105 376.219 276.308C376.739 276.503 377.326 276.464 377.98 276.19C379.347 275.618 379.741 274.608 379.161 273.161L375.871 265.306L378.311 264.284ZM390.016 261.698L386.4 263.212L390.518 273.046L388.086 274.064L383.968 264.23L380.401 265.724L379.576 263.754L389.191 259.728L390.016 261.698ZM400.201 266.132L395.936 267.918L396.144 270.69L393.558 271.773L393.009 258.129L395.263 257.185L404.624 267.138L402.038 268.221L400.201 266.132ZM395.768 265.673L398.719 264.437L395.385 260.64L395.768 265.673ZM410.55 261.017C410.358 260.557 410.049 260.274 409.623 260.167C409.194 260.054 408.502 260.039 407.546 260.122C406.587 260.199 405.806 260.208 405.204 260.149C403.56 259.987 402.481 259.292 401.968 258.065C401.701 257.427 401.641 256.785 401.79 256.138C401.941 255.484 402.293 254.876 402.846 254.314C403.404 253.75 404.102 253.293 404.939 252.942C405.782 252.589 406.598 252.429 407.387 252.461C408.173 252.487 408.863 252.703 409.459 253.108C410.059 253.511 410.508 254.066 410.804 254.774L408.372 255.793C408.146 255.252 407.8 254.904 407.335 254.75C406.868 254.59 406.326 254.639 405.71 254.897C405.116 255.146 404.707 255.466 404.483 255.858C404.258 256.245 404.231 256.644 404.403 257.054C404.564 257.438 404.89 257.679 405.383 257.778C405.88 257.875 406.552 257.879 407.399 257.791C408.957 257.628 410.181 257.722 411.071 258.074C411.961 258.425 412.599 259.06 412.984 259.979C413.411 261 413.361 261.965 412.833 262.872C412.302 263.774 411.383 264.499 410.075 265.046C409.167 265.427 408.271 265.608 407.387 265.591C406.501 265.568 405.739 265.35 405.103 264.937C404.471 264.522 403.996 263.933 403.677 263.171L406.117 262.149C406.663 263.452 407.714 263.777 409.27 263.125C409.849 262.883 410.251 262.578 410.478 262.21C410.703 261.836 410.727 261.438 410.55 261.017Z" fill="white"/>
</g>
<defs>
<filter id="filter0_d" x="320.993" y="234.924" width="120.816" height="75.3858" filterUnits="userSpaceOnUse" color-interpolation-filters="sRGB">
<feFlood flood-opacity="0" result="BackgroundImageFix"/>
<feColorMatrix in="SourceAlpha" type="matrix" values="0 0 0 0 0 0 0 0 0 0 0 0 0 0 0 0 0 0 127 0"/>
<feOffset dy="4"/>
<feGaussianBlur stdDeviation="2"/>
<feColorMatrix type="matrix" values="0 0 0 0 0 0 0 0 0 0 0 0 0 0 0 0 0 0 0.25 0"/>
<feBlend mode="normal" in2="BackgroundImageFix" result="effect1_dropShadow"/>
<feBlend mode="normal" in="SourceGraphic" in2="effect1_dropShadow" result="shape"/>
</filter>
</defs>
</svg>
