<svg width="93" height="87" viewBox="0 0 93 87" fill="none" xmlns="http://www.w3.org/2000/svg">
<path d="M29 3.56636C36.1643 21.9389 50.9814 26.8649 57.4943 27.0313C61.1579 27.0313 63.6616 29.0284 63.9873 37.0165C64.3944 47.0016 55.0319 48.0001 46.8907 48.0001C39.3848 48.0001 19.2103 40.0119 11.0691 21.0403C2.92786 2.06865 26.1506 -4.92095 29 3.56636Z" fill="#D62727"/>
<path d="M38.5 43.0001C60.9152 39.0027 62.8586 27.6863 65.421 21.6962C66.7753 18.2922 71.9358 12.8496 79.4784 15.5001C88.9067 18.8132 89.0215 35.3582 82 44.0001C77.2668 49.8255 68.137 65.449 47.4997 66C26.8623 66.5511 30.9152 47.5029 38.5 43.0001Z" fill="#3AD213"/>
<path d="M38.5 43.0001C60.9152 39.0027 62.8586 27.6863 65.421 21.6962C66.7753 18.2922 71.9358 12.8496 79.4784 15.5001C88.9067 18.8132 89.0215 35.3582 82 44.0001C77.2668 49.8255 68.137 65.449 47.4997 66C26.8623 66.5511 30.9152 47.5029 38.5 43.0001Z" fill="#3AD213"/>
<path d="M38.5 43.0001C60.9152 39.0027 62.8586 27.6863 65.421 21.6962C66.7753 18.2922 71.9358 12.8496 79.4784 15.5001C88.9067 18.8132 89.0215 35.3582 82 44.0001C77.2668 49.8255 68.137 65.449 47.4997 66C26.8623 66.5511 30.9152 47.5029 38.5 43.0001Z" fill="#3AD213"/>
<path d="M38.5 43.0001C60.9152 39.0027 62.8586 27.6863 65.421 21.6962C66.7753 18.2922 71.9358 12.8496 79.4784 15.5001C88.9067 18.8132 89.0215 35.3582 82 44.0001C77.2668 49.8255 68.137 65.449 47.4997 66C26.8623 66.5511 30.9152 47.5029 38.5 43.0001Z" fill="#3AD213"/>
<path d="M45.6723 74.0844C33.8253 58.3197 18.2291 57.5655 11.9119 59.1591C8.38362 60.1456 5.43462 58.8965 2.96998 51.2911C-0.110827 41.7844 8.63693 38.3017 16.4775 36.1095C23.7061 34.0883 45.2864 36.3489 58.2355 52.4275C71.1847 68.5061 50.7019 81.4909 45.6723 74.0844Z" fill="#80268E"/>
</svg>
