<svg width="87" height="65" viewBox="0 0 87 65" fill="none" xmlns="http://www.w3.org/2000/svg">
<path d="M63.1876 52.5797C50.4548 54.7911 37.0671 38.9324 34.239 22.6484C31.4108 6.36432 42.8447 16.8514 55.5776 14.64C68.3104 12.4286 70.0107 2.68125 80.3487 14.6402C83.1769 30.9242 75.9205 50.3683 63.1876 52.5797Z" fill="#553320"/>
<ellipse rx="14.3261" ry="23.1861" transform="matrix(0.271733 0.962373 -0.994342 0.106224 56.8483 16.25)" fill="#6A9337"/>
<ellipse rx="4.5025" ry="6.04853" transform="matrix(0.271733 0.962373 -0.994342 0.106224 56.6262 15.4622)" fill="#AAD079"/>
<ellipse rx="0.409318" ry="0.504045" transform="matrix(0.271733 0.962373 -0.994342 0.106224 49.443 13.7944)" fill="#404040"/>
<ellipse rx="0.409318" ry="0.504045" transform="matrix(0.271733 0.962373 -0.994342 0.106224 61.134 22.2846)" fill="#404040"/>
<ellipse rx="0.409318" ry="0.504045" transform="matrix(0.271733 0.962373 -0.994342 0.106224 55.6769 21.2443)" fill="#404040"/>
<ellipse rx="0.409318" ry="0.504045" transform="matrix(0.271733 0.962373 -0.994342 0.106224 49.3307 17.0529)" fill="#404040"/>
<ellipse rx="0.409318" ry="0.504045" transform="matrix(0.271733 0.962373 -0.994342 0.106224 63.029 18.0241)" fill="#404040"/>
<ellipse rx="0.409318" ry="0.504045" transform="matrix(0.271733 0.962373 -0.994342 0.106224 64.1442 14.6589)" fill="#404040"/>
<ellipse rx="0.409318" ry="0.504045" transform="matrix(0.271733 0.962373 -0.994342 0.106224 60.4665 19.9211)" fill="#404040"/>
<ellipse rx="0.409318" ry="0.504045" transform="matrix(0.271733 0.962373 -0.994342 0.106224 58.6843 20.923)" fill="#404040"/>
<ellipse rx="0.409318" ry="0.504045" transform="matrix(0.271733 0.962373 -0.994342 0.106224 52.2253 19.9899)" fill="#404040"/>
<ellipse rx="0.409318" ry="0.504045" transform="matrix(0.271733 0.962373 -0.994342 0.106224 53.7873 10.8957)" fill="#404040"/>
<ellipse rx="0.409318" ry="0.504045" transform="matrix(0.271733 0.962373 -0.994342 0.106224 63.0314 10.7194)" fill="#404040"/>
<ellipse rx="0.409318" ry="0.504045" transform="matrix(0.271733 0.962373 -0.994342 0.106224 61.4718 12.5095)" fill="#404040"/>
<ellipse rx="0.409318" ry="0.504045" transform="matrix(0.271733 0.962373 -0.994342 0.106224 50.0002 12.112)" fill="#404040"/>
<ellipse rx="0.409318" ry="0.504045" transform="matrix(0.271733 0.962373 -0.994342 0.106224 65.0334 17.8103)" fill="#404040"/>
<ellipse rx="0.409318" ry="0.504045" transform="matrix(0.271733 0.962373 -0.994342 0.106224 58.5773 9.57221)" fill="#404040"/>
<ellipse rx="0.409318" ry="0.504045" transform="matrix(0.271733 0.962373 -0.994342 0.106224 52.34 9.42695)" fill="#404040"/>
<ellipse rx="0.409318" ry="0.504045" transform="matrix(0.271733 0.962373 -0.994342 0.106224 47.9958 12.3259)" fill="#404040"/>
<ellipse rx="0.409318" ry="0.504045" transform="matrix(0.271733 0.962373 -0.994342 0.106224 62.4714 19.7072)" fill="#404040"/>
<ellipse rx="0.409318" ry="0.504045" transform="matrix(0.271733 0.962373 -0.994342 0.106224 52.8923 22.3535)" fill="#404040"/>
<ellipse rx="0.409318" ry="0.504045" transform="matrix(0.271733 0.962373 -0.994342 0.106224 46.8805 15.6914)" fill="#404040"/>
<ellipse rx="0.409318" ry="0.504045" transform="matrix(0.271733 0.962373 -0.994342 0.106224 48.9953 19.5234)" fill="#404040"/>
<ellipse rx="0.409318" ry="0.504045" transform="matrix(0.271733 0.962373 -0.994342 0.106224 56.5719 9.78633)" fill="#404040"/>
<path d="M59.7999 41.5999C59.7999 54.5234 41.8843 64.9999 25.3565 64.9999C8.82865 64.9999 3.8999 54.5234 3.8999 41.5999C3.8999 28.6765 11.805 26.3391 25.3565 18.2C41.8843 18.2 59.7999 28.6765 59.7999 41.5999Z" fill="#653E27"/>
<ellipse cx="22.75" cy="41.5999" rx="22.75" ry="23.4" fill="#709B3A"/>
<ellipse cx="21.4498" cy="41.6002" rx="7.15" ry="6.10435" fill="#B4DD7F"/>
<ellipse cx="17.5499" cy="48.2128" rx="0.65" ry="0.508696" fill="#404040"/>
<ellipse cx="33.15" cy="39.0563" rx="0.65" ry="0.508696" fill="#404040"/>
<ellipse cx="30.5499" cy="44.1435" rx="0.65" ry="0.508696" fill="#404040"/>
<ellipse cx="22.7501" cy="49.2304" rx="0.65" ry="0.508696" fill="#404040"/>
<ellipse cx="26.65" cy="36.0045" rx="0.65" ry="0.508696" fill="#404040"/>
<ellipse cx="21.4498" cy="33.9694" rx="0.65" ry="0.508696" fill="#404040"/>
<ellipse cx="29.2501" cy="39.0563" rx="0.65" ry="0.508696" fill="#404040"/>
<ellipse cx="30.5499" cy="41.0912" rx="0.65" ry="0.508696" fill="#404040"/>
<ellipse cx="27.9498" cy="47.1957" rx="0.65" ry="0.508696" fill="#404040"/>
<ellipse cx="13.65" cy="43.1261" rx="0.65" ry="0.508696" fill="#404040"/>
<ellipse cx="14.9498" cy="33.9694" rx="0.65" ry="0.508696" fill="#404040"/>
<ellipse cx="17.5499" cy="36.0045" rx="0.65" ry="0.508696" fill="#404040"/>
<ellipse cx="14.9498" cy="47.1957" rx="0.65" ry="0.508696" fill="#404040"/>
<ellipse cx="26.65" cy="33.9694" rx="0.65" ry="0.508696" fill="#404040"/>
<ellipse cx="12.3502" cy="38.0392" rx="0.65" ry="0.508696" fill="#404040"/>
<ellipse cx="11.0499" cy="44.1435" rx="0.65" ry="0.508696" fill="#404040"/>
<ellipse cx="14.9498" cy="49.2304" rx="0.65" ry="0.508696" fill="#404040"/>
<ellipse cx="29.2501" cy="37.0216" rx="0.65" ry="0.508696" fill="#404040"/>
<ellipse cx="31.8502" cy="47.1957" rx="0.65" ry="0.508696" fill="#404040"/>
<ellipse cx="20.15" cy="51.2653" rx="0.65" ry="0.508696" fill="#404040"/>
<ellipse cx="26.65" cy="50.248" rx="0.65" ry="0.508696" fill="#404040"/>
<ellipse cx="12.3502" cy="40.0739" rx="0.65" ry="0.508696" fill="#404040"/>
</svg>
