<svg width="100" height="111" viewBox="0 0 100 111" fill="none" xmlns="http://www.w3.org/2000/svg">
<path d="M61.3832 27.8392C62.3984 37 68.6879 44.6967 71.3984 50C87.8984 71 76.3126 102.653 43.8984 95C7.89844 86.5 28.1557 55.6568 32.3983 50C36.6409 44.3431 33.8061 29.9605 36.2809 24.6572C46.8875 4.85818 60.4935 19.8106 61.3832 27.8392Z" fill="#88D625"/>
<path d="M61.5751 28.1695C62.5903 37.3303 68.6879 45.027 71.3984 50.3303C88.8986 71.8303 74.7027 105.166 40.3984 94C8.72843 83.6917 28.3476 55.9871 32.5902 50.3303C36.8328 44.6734 33.998 30.2909 36.4728 24.9875C47.0794 5.18851 60.6854 20.1409 61.5751 28.1695Z" stroke="#578F0F"/>
<path d="M52.1896 12.1479C49.141 8.65413 41.8648 2.16783 37.1491 4.17275C41.8665 11.3236 43.52 17.5047 52.1896 12.1479Z" fill="#608E24" stroke="#3A5B0F"/>
<path d="M50.0611 11.6278C49.7704 11.6278 49.189 13.0813 39.8867 5.52319" stroke="#A2D163"/>
<path d="M60.3681 6.95512C57.4734 7.11409 52.0708 15.5767 49.7314 19.7881C49.6255 15.1061 54.9662 6.06557 57.0577 4.49899C59.6721 2.54077 56.1732 4.9172 60.3681 6.95512Z" fill="#684029" stroke="#5D2607"/>
</svg>
