<svg width="202" height="201" viewBox="0 0 202 201" fill="none" xmlns="http://www.w3.org/2000/svg">
<path d="M112.252 57.5019C116.665 43.4037 129.16 42.3394 134.857 43.5696C152.683 51.0844 145.326 68.4073 141.243 82.3326C138.987 95.7237 124.523 98.6597 121.39 100.72C118.258 102.78 110.862 136.123 110.339 143.976C105.976 151.732 95.7828 141.907 98.9001 139.013C104.285 132.406 112.907 102.211 113.665 98.0251C102.611 77.7036 106.736 75.1247 112.252 57.5019Z" fill="#378912"/>
<path d="M112.252 57.5019C116.665 43.4037 129.16 42.3394 134.857 43.5696C152.683 51.0844 145.326 68.4073 141.243 82.3326C138.987 95.7237 124.523 98.6597 121.39 100.72C118.258 102.78 110.862 136.123 110.339 143.976C105.976 151.732 95.7828 141.907 98.9001 139.013C104.285 132.406 112.907 102.211 113.665 98.0251C102.611 77.7036 106.736 75.1247 112.252 57.5019Z" stroke="#2B6511" stroke-width="5"/>
<path d="M120.576 92.7255L122.236 87.047M132.35 52.4601L127.821 67.9468M127.821 67.9468C125.101 65.6992 120.043 60.1623 121.568 55.9959M127.821 67.9468L125.859 74.6577M125.859 74.6577C129.392 74.7039 136.85 73.4542 138.42 68.0855M125.859 74.6577L123.896 81.3686M123.896 81.3686C121.087 80.2907 115.777 76.7943 117.013 71.4317M123.896 81.3686L122.236 87.047M122.236 87.047C125.26 86.3881 131.939 84.1857 134.467 80.6478" stroke="#D2F3C4" stroke-width="3"/>
<path d="M55.7535 67.3914C50.6478 53.529 59.8986 45.0617 65.1622 42.5608C83.8711 37.638 88.6114 55.8518 93.8734 69.3754C100.256 81.3619 90.5881 92.513 89.3631 96.0566C88.1381 99.6001 102.622 130.53 106.999 137.071C108.275 145.878 94.2048 144.313 94.9087 140.118C95.144 131.598 83.5519 102.414 81.5981 98.6353C60.4414 89.2791 62.1355 84.7194 55.7535 67.3914Z" fill="#378912"/>
<path d="M55.7535 67.3914C50.6478 53.529 59.8986 45.0617 65.1622 42.5608C83.8711 37.638 88.6114 55.8518 93.8734 69.3754C100.256 81.3619 90.5881 92.513 89.3631 96.0566C88.1381 99.6001 102.622 130.53 106.999 137.071C108.275 145.878 94.2048 144.313 94.9087 140.118C95.144 131.598 83.5519 102.414 81.5981 98.6353C60.4414 89.2791 62.1355 84.7194 55.7535 67.3914Z" stroke="#2B6511" stroke-width="5"/>
<path d="M83.84 90.2198L81.6909 84.7077M68.6009 51.134L74.4621 66.167M74.4621 66.167C70.9358 66.0458 63.5499 64.7453 62.2162 60.5136M74.4621 66.167L77.0019 72.6813M77.0019 72.6813C79.8292 70.5624 84.9759 65.0216 82.944 59.8101M77.0019 72.6813L79.5418 79.1956M79.5418 79.1956C76.6581 80.0559 70.3178 80.5256 68.0253 75.5226M79.5418 79.1956L81.6909 84.7077M81.6909 84.7077C83.6844 82.3408 87.6325 76.5206 87.4766 72.1753" stroke="#D2F3C4" stroke-width="3"/>
<path d="M85.4928 50.3795C85.4928 35.6067 97.1 30.8583 102.904 30.3307C122.161 32.1773 120.314 50.9071 120.578 65.416C122.425 78.8698 109.498 85.9923 107.124 88.8941C104.75 91.7959 107.652 125.826 109.498 133.476C107.652 142.182 94.9894 135.85 97.0998 132.157C100.265 124.243 99.474 92.8512 98.9465 88.6303C82.3272 72.5385 85.4928 68.8454 85.4928 50.3795Z" fill="#3C9713"/>
<path d="M85.4928 50.3795C85.4928 35.6067 97.1 30.8583 102.904 30.3307C122.161 32.1773 120.314 50.9071 120.578 65.416C122.425 78.8698 109.498 85.9923 107.124 88.8941C104.75 91.7959 107.652 125.826 109.498 133.476C107.652 142.182 94.9894 135.85 97.0998 132.157C100.265 124.243 99.474 92.8512 98.9465 88.6303C82.3272 72.5385 85.4928 68.8454 85.4928 50.3795Z" stroke="#2D6C11" stroke-width="5"/>
<path d="M103.959 81.508L103.847 75.5928M103.167 39.564L103.472 55.6963M103.472 55.6963C100.205 54.3638 93.7233 50.5908 93.9343 46.1589M103.472 55.6963L103.604 62.687M103.604 62.687C106.989 61.6757 113.733 58.2551 113.628 52.6626M103.604 62.687L103.735 69.6776M103.735 69.6776C100.732 69.4882 94.6202 67.7377 94.1981 62.2507M103.735 69.6776L103.847 75.5928M103.847 75.5928C106.536 74.0608 112.252 69.9638 113.608 65.8323" stroke="#D2F3C4" stroke-width="3"/>
<path d="M61.1505 87.2273C57.582 72.892 67.6984 65.4805 73.2026 63.5666C92.3358 60.7066 95.0681 79.3278 98.8289 93.3434C103.871 105.953 93.0479 115.987 91.4449 119.376C89.842 122.765 100.878 155.087 104.518 162.064C104.829 170.958 91.0122 167.873 92.168 163.78C93.3281 155.335 84.9771 125.064 83.4456 121.095C63.4314 109.495 65.6111 105.146 61.1505 87.2273Z" fill="#4BBC18"/>
<path d="M61.1505 87.2273C57.582 72.892 67.6984 65.4805 73.2026 63.5666C92.3358 60.7066 95.0681 79.3278 98.8289 93.3434C103.871 105.953 93.0479 115.987 91.4449 119.376C89.842 122.765 100.878 155.087 104.518 162.064C104.829 170.958 91.0122 167.873 92.168 163.78C93.3281 155.335 84.9771 125.064 83.4456 121.095C63.4314 109.495 65.6111 105.146 61.1505 87.2273Z" stroke="#409719" stroke-width="5"/>
<path d="M86.5888 112.973L85.0516 107.26M75.6889 72.4622L79.8811 88.0432M79.8811 88.0432C76.389 87.5393 69.1882 85.4437 68.3224 81.0921M79.8811 88.0432L81.6978 94.795M81.6978 94.795C84.7387 92.9959 90.4572 88.0474 89.0038 82.646M81.6978 94.795L83.5145 101.547M83.5145 101.547C80.5544 102.088 74.2005 101.866 72.4655 96.6436M83.5145 101.547L85.0516 107.26M85.0516 107.26C87.2907 105.124 91.848 99.7672 92.1654 95.4306" stroke="#D2F3C4" stroke-width="3"/>
<path d="M102.861 84.2238C106.699 69.9585 119.142 68.3895 124.883 69.3881C142.999 76.1755 136.349 93.7819 132.833 107.861C131.12 121.332 116.787 124.851 113.741 127.036C110.694 129.222 104.653 162.837 104.448 170.704C100.403 178.63 89.8206 169.226 92.8182 166.208C97.9315 159.389 105.325 128.87 105.912 124.657C94.0455 104.799 98.0621 102.055 102.861 84.2238Z" fill="#46AF17"/>
<path d="M102.861 84.2238C106.699 69.9585 119.142 68.3895 124.883 69.3881C142.999 76.1755 136.349 93.7819 132.833 107.861C131.12 121.332 116.787 124.851 113.741 127.036C110.694 129.222 104.653 162.837 104.448 170.704C100.403 178.63 89.8206 169.226 92.8182 166.208C97.9315 159.389 105.325 128.87 105.912 124.657C94.0455 104.799 98.0621 102.055 102.861 84.2238Z" stroke="#378215" stroke-width="5"/>
<path d="M112.603 119.081L114.032 113.34M122.738 78.3725L118.84 94.0297M118.84 94.0297C116.031 91.894 110.753 86.5664 112.109 82.3416M118.84 94.0297L117.151 100.815M117.151 100.815C120.683 100.718 128.084 99.1673 129.436 93.7394M117.151 100.815L115.461 107.599M115.461 107.599C112.611 106.636 107.163 103.357 108.182 97.9491M115.461 107.599L114.032 113.34M114.032 113.34C117.027 112.56 123.611 110.089 125.994 106.451" stroke="#D2F3C4" stroke-width="3"/>
<path d="M82.5695 87.6485C82.5695 72.8758 94.1766 68.1274 99.9802 67.5998C119.238 69.4464 117.391 88.1761 117.655 102.685C119.501 116.139 106.575 123.261 104.201 126.163C101.827 129.065 104.729 163.095 106.575 170.745C104.728 179.451 92.0661 173.119 94.1765 169.426C97.3421 161.512 96.5507 130.12 96.0232 125.899C79.4039 109.808 82.5695 106.114 82.5695 87.6485Z" fill="#61D62C"/>
<path d="M82.5695 87.6485C82.5695 72.8758 94.1766 68.1274 99.9802 67.5998C119.238 69.4464 117.391 88.1761 117.655 102.685C119.501 116.139 106.575 123.261 104.201 126.163C101.827 129.065 104.729 163.095 106.575 170.745C104.728 179.451 92.0661 173.119 94.1765 169.426C97.3421 161.512 96.5507 130.12 96.0232 125.899C79.4039 109.808 82.5695 106.114 82.5695 87.6485Z" stroke="#4BAB20" stroke-width="5"/>
<path d="M101.036 118.777L100.924 112.861M100.244 76.8325L100.549 92.9648M100.549 92.9648C97.2818 91.6323 90.8004 87.8593 91.0115 83.4275M100.549 92.9648L100.681 99.9555M100.681 99.9555C104.066 98.9443 110.811 95.5237 110.705 89.9312M100.681 99.9555L100.813 106.946M100.813 106.946C97.8094 106.757 91.6973 105.006 91.2753 99.5192M100.813 106.946L100.924 112.861M100.924 112.861C103.613 111.329 109.329 107.232 110.685 103.101" stroke="#D2F3C4" stroke-width="3"/>
</svg>
