<svg width="443" height="316" viewBox="0 0 443 316" fill="none" xmlns="http://www.w3.org/2000/svg">
<rect x="1" y="1" width="441.21" height="313.678" rx="50" fill="#73ABC3"/>
<path d="M442 159.178H1V263.678C1 300.078 31 312.678 46 314.678H394.5C424.5 313.178 441 287.678 442 267.678V159.178Z" fill="#8CCA3C" stroke="#8CCA3C"/>
<path d="M179.5 62.678H1.5V47.678C1.5 15.678 32.5 2.17798 47.5 1.17798H173C173.833 6.34465 172.6 18.578 161 26.178C192.2 26.978 186.333 50.8446 179.5 62.678Z" fill="white" stroke="white"/>
<path d="M413.435 77.678H357.252C347.438 71.0344 357.252 65.129 360.441 65.129C357.252 54.3024 366.084 53.8102 370.991 52.0878C383.258 40.523 393.562 50.6115 397.242 53.8102C403.866 53.0721 405.829 61.6841 405.829 65.129C417.213 66.31 415.643 73.9871 413.435 77.678Z" fill="white"/>
<path d="M71 296.678L142.5 168.678L301.5 168.678L321 202.178L324 232.678L304.5 296.678L71 296.678Z" fill="#1D7C1C"/>
<path d="M88 264.678H117L102 296.678H71L88 264.678Z" fill="white"/>
<path d="M124.5 200.678H150L134 232.678H106.5L124.5 200.678Z" fill="white"/>
<path d="M164 168.678H186.5L176 200.678H150L164 168.678Z" fill="white"/>
<path d="M134 232.678H161.5L148 264.678H117L134 232.678Z" fill="white"/>
<path d="M148 264.678H175.5L164 296.678H132.5L148 264.678Z" fill="white"/>
<path d="M188.5 232.678H216L204.5 264.678H175.5L188.5 232.678Z" fill="white"/>
<path d="M212 168.678H239.5L228 200.678H199L212 168.678Z" fill="white"/>
<path d="M204.5 264.678H231.5L220 296.678H194L204.5 264.678Z" fill="white"/>
<path d="M228 200.678H255L243.5 232.678H216L228 200.678Z" fill="white"/>
<path d="M243.5 232.678H270.5L260.5 264.678H231.5L243.5 232.678Z" fill="white"/>
<path d="M267 168.678H294L282.5 200.678H255L267 168.678Z" fill="white"/>
<path d="M260.5 264.678H287L277 296.678H250L260.5 264.678Z" fill="white"/>
<path d="M282.5 200.678H309.5L298 232.678H270.5L282.5 200.678Z" fill="white"/>
<path d="M298 232.678H324L314 264.678H287L298 232.678Z" fill="white"/>
<path d="M314 190.678L320 200.678H309.5L314 190.678Z" fill="white"/>
<path d="M176 200.678H199L188 232.678H162L176 200.678Z" fill="white"/>
<g filter="url(#filter0_d)">
<rect x="324.993" y="277.884" width="111.22" height="26.4809" rx="2" transform="rotate(-22.7223 324.993 277.884)" fill="#68422D"/>
<path d="M350.756 285.381L349.714 275.384L352.422 274.25L353.255 287.775L350.717 288.838L341.68 278.748L344.38 277.618L350.756 285.381ZM363.443 277.496L358.774 279.451L360.098 282.613L365.578 280.318L366.396 282.272L358.484 285.585L353.541 273.782L361.437 270.475L362.262 272.445L356.798 274.733L357.976 277.546L362.645 275.591L363.443 277.496ZM376.537 276.272C376.319 276.979 375.871 277.646 375.194 278.273C374.514 278.895 373.687 279.409 372.714 279.816C371.693 280.244 370.703 280.398 369.744 280.279C368.789 280.152 367.923 279.752 367.146 279.08C366.375 278.406 365.744 277.498 365.253 276.357L364.917 275.554C364.424 274.376 364.194 273.275 364.229 272.25C364.267 271.218 364.563 270.319 365.119 269.552C365.678 268.778 366.46 268.181 367.465 267.76C368.865 267.174 370.1 267.05 371.17 267.39C372.237 267.724 373.111 268.499 373.791 269.713L371.424 270.704C371.033 270.074 370.585 269.68 370.081 269.523C369.582 269.364 369.008 269.42 368.36 269.691C367.533 270.037 367.033 270.612 366.861 271.414C366.689 272.217 366.857 273.233 367.366 274.462L367.682 275.216C368.2 276.454 368.826 277.29 369.561 277.726C370.296 278.161 371.118 278.189 372.026 277.808C372.939 277.426 373.509 276.959 373.735 276.407L372.883 274.372L370.67 275.298L369.92 273.507L374.565 271.562L376.537 276.272ZM384.1 268.846L379.43 270.801L380.754 273.963L386.234 271.668L387.052 273.622L379.14 276.935L374.197 265.131L382.093 261.825L382.918 263.795L377.454 266.083L378.632 268.896L383.302 266.94L384.1 268.846ZM393.409 259.402L389.793 260.916L393.911 270.749L391.479 271.768L387.361 261.934L383.794 263.428L382.969 261.458L392.584 257.432L393.409 259.402ZM403.594 263.836L399.329 265.622L399.537 268.393L396.951 269.476L396.402 255.833L398.656 254.889L408.017 264.842L405.431 265.925L403.594 263.836ZM399.161 263.377L402.112 262.141L398.778 258.344L399.161 263.377ZM411.706 263.298L409.274 264.316L404.331 252.512L406.763 251.494L411.706 263.298ZM418.791 256.69C418.599 256.231 418.29 255.948 417.864 255.84C417.435 255.727 416.743 255.712 415.787 255.795C414.828 255.873 414.047 255.882 413.445 255.823C411.801 255.66 410.722 254.965 410.209 253.739C409.942 253.101 409.882 252.459 410.031 251.812C410.182 251.158 410.534 250.55 411.087 249.988C411.645 249.424 412.343 248.967 413.18 248.616C414.023 248.263 414.839 248.102 415.628 248.134C416.414 248.161 417.104 248.377 417.7 248.782C418.3 249.184 418.749 249.74 419.045 250.448L416.613 251.466C416.387 250.926 416.041 250.578 415.576 250.424C415.109 250.263 414.567 250.312 413.951 250.57C413.357 250.819 412.948 251.14 412.724 251.532C412.499 251.919 412.472 252.317 412.644 252.728C412.805 253.112 413.131 253.353 413.624 253.452C414.121 253.548 414.793 253.553 415.64 253.465C417.198 253.302 418.422 253.396 419.312 253.747C420.202 254.099 420.84 254.734 421.225 255.652C421.653 256.674 421.602 257.638 421.074 258.546C420.543 259.448 419.624 260.172 418.316 260.72C417.408 261.1 416.512 261.282 415.628 261.264C414.742 261.242 413.98 261.024 413.344 260.611C412.712 260.195 412.237 259.607 411.918 258.845L414.358 257.823C414.904 259.125 415.955 259.451 417.511 258.799C418.09 258.557 418.492 258.251 418.719 257.883C418.944 257.51 418.968 257.112 418.791 256.69Z" fill="white"/>
</g>
<defs>
<filter id="filter0_d" x="320.993" y="234.924" width="120.816" height="75.3858" filterUnits="userSpaceOnUse" color-interpolation-filters="sRGB">
<feFlood flood-opacity="0" result="BackgroundImageFix"/>
<feColorMatrix in="SourceAlpha" type="matrix" values="0 0 0 0 0 0 0 0 0 0 0 0 0 0 0 0 0 0 127 0"/>
<feOffset dy="4"/>
<feGaussianBlur stdDeviation="2"/>
<feColorMatrix type="matrix" values="0 0 0 0 0 0 0 0 0 0 0 0 0 0 0 0 0 0 0.25 0"/>
<feBlend mode="normal" in2="BackgroundImageFix" result="effect1_dropShadow"/>
<feBlend mode="normal" in="SourceGraphic" in2="effect1_dropShadow" result="shape"/>
</filter>
</defs>
</svg>
