<svg width="80" height="23" viewBox="0 0 80 23" fill="none" xmlns="http://www.w3.org/2000/svg">
<path d="M3.80273 1.85938V1.50391V1.47656C4.80534 1.58594 5.30664 1.74089 5.30664 1.94141C5.14258 2.94401 4.82357 5.55078 4.34961 9.76172C4.24023 10.6732 4.08529 11.3659 3.88477 11.8398C3.42904 12.4596 3.14648 13.2435 3.03711 14.1914C3.16471 14.2826 3.90299 14.3828 5.25195 14.4922C5.68945 14.6562 6.02669 14.7383 6.26367 14.7383H6.56445L7.95898 14.6016H8.58789V14.5742C8.47852 13.4622 8.38737 11.3385 8.31445 8.20312C8.24154 7.80208 8.15951 7.57422 8.06836 7.51953C8.06836 7.42839 8.36914 7.33724 8.9707 7.24609C8.9707 7.19141 9.05273 7.15495 9.2168 7.13672C9.45378 7.13672 9.59961 7.22786 9.6543 7.41016L9.49023 7.84766C9.81836 8.3763 9.98242 10.0716 9.98242 12.9336C9.98242 13.9544 10.0553 14.4648 10.2012 14.4648H10.2832C10.9941 14.4648 11.4681 14.3919 11.7051 14.2461L11.8965 14.3555L11.8691 14.6016V14.8203L11.9785 15.0117L11.9512 15.2852C11.9512 15.832 11.7507 16.1693 11.3496 16.2969C10.9486 16.4062 10.748 16.5156 10.748 16.625H10.2832C10.2285 16.625 10.2012 16.6523 10.2012 16.707C10.347 17.9648 10.4199 19.1406 10.4199 20.2344C10.5111 20.6354 10.5566 21.0456 10.5566 21.4648L10.7754 21.5742V21.6289C10.7754 21.7565 10.2012 22.0026 9.05273 22.3672C8.9069 22.2396 8.71549 22.1758 8.47852 22.1758L8.42383 22.1211C8.62435 20.7721 8.72461 19.7878 8.72461 19.168C8.72461 17.3086 8.60612 16.3789 8.36914 16.3789L7.2207 16.3242H4.89648L4.07617 16.4062C1.45117 16.3698 0.138672 16.2422 0.138672 16.0234C0.0839844 16.0234 0.0566406 16.0052 0.0566406 15.9688C0.639974 15.4219 0.931641 15.0117 0.931641 14.7383C1.20508 14.1003 1.3418 13.444 1.3418 12.7695C1.83398 11.4023 2.18945 9.50651 2.4082 7.08203C2.4082 6.77214 2.59961 5.48698 2.98242 3.22656C2.98242 2.91667 3.07357 2.48828 3.25586 1.94141H3.2832C3.39258 2.05078 3.49284 2.10547 3.58398 2.10547H3.7207L3.80273 1.99609V1.85938ZM3.61133 3.11719V3.17188C3.62956 3.40885 3.66602 3.52734 3.7207 3.52734H3.77539V3.41797C3.77539 3.32682 3.84831 3.15365 3.99414 2.89844L4.07617 2.46094V2.43359L4.04883 2.35156H3.93945C3.7207 2.35156 3.61133 2.60677 3.61133 3.11719ZM4.21289 4.42969V4.51172L4.29492 4.59375C4.36784 4.53906 4.4043 4.45703 4.4043 4.34766V4.12891H4.37695C4.32227 4.12891 4.26758 4.22917 4.21289 4.42969ZM2.70898 7.16406V7.19141L2.81836 7.27344H2.8457L3.03711 7.24609V7.08203L2.92773 6.86328L3.11914 5.90625H3.0918C2.83659 6.45312 2.70898 6.8724 2.70898 7.16406ZM3.80273 9.625V9.78906H3.88477C3.99414 9.7526 4.04883 9.67057 4.04883 9.54297V9.35156H3.93945C3.84831 9.40625 3.80273 9.4974 3.80273 9.625ZM2.70898 11.9766V12.0039C2.92773 12.0039 3.03711 11.8581 3.03711 11.5664V11.4297L3.00977 11.4023V11.375C2.88216 11.375 2.7819 11.5755 2.70898 11.9766ZM8.99805 11.5391L8.91602 11.4844V11.5117V11.7031H8.99805V11.5391ZM2.76367 12.1133H2.59961V12.25H2.70898L2.76367 12.168V12.1133ZM8.91602 12.2773V12.6602C8.91602 12.7878 8.94336 12.8516 8.99805 12.8516L9.05273 12.7695V12.5781C9.05273 12.4141 9.00716 12.3138 8.91602 12.2773ZM2.2168 13.6172L2.13477 13.6719V13.7266H2.2168L2.29883 13.6445V13.6172H2.2168ZM1.80664 14.7383L1.88867 14.8477H1.9707L2.38086 14.7656V14.7383C2.3444 14.6471 2.26237 14.6016 2.13477 14.6016H2.02539C1.91602 14.6016 1.8431 14.6471 1.80664 14.7383ZM11.4043 14.7383L10.6113 14.8203V14.875C10.666 14.9479 10.8574 15.0026 11.1855 15.0391C11.3314 15.0391 11.4408 14.9753 11.5137 14.8477V14.7656C11.5137 14.7474 11.4772 14.7383 11.4043 14.7383ZM3.25586 14.875L3.31055 14.957L3.93945 14.875V14.8477C3.93945 14.7747 3.79362 14.7383 3.50195 14.7383C3.33789 14.7565 3.25586 14.8021 3.25586 14.875ZM4.92383 15.6133C5.32487 15.7227 6.38216 15.7773 8.0957 15.7773C8.38737 15.7773 8.58789 15.6953 8.69727 15.5312C8.69727 15.513 8.54232 15.4857 8.23242 15.4492C6.02669 15.4674 4.92383 15.5221 4.92383 15.6133ZM10.1738 15.4492L10.0918 15.5039V15.5586L10.2832 15.7227L10.1465 15.9414V15.9688C10.1647 16.0234 10.2559 16.0508 10.4199 16.0508H10.666C10.9212 16.0508 11.1764 16.0234 11.4316 15.9688C11.4316 15.9323 11.2129 15.8503 10.7754 15.7227C10.7025 15.5404 10.5384 15.4492 10.2832 15.4492H10.1738ZM9.10742 17.0898V17.1992L9.18945 17.2539L9.2168 17.1992V16.8984C9.14388 16.9167 9.10742 16.9805 9.10742 17.0898ZM9.79102 20.3711C9.80924 20.5534 9.85482 20.6445 9.92773 20.6445L9.98242 20.6172V20.2891C9.98242 20.1432 9.95508 20.0521 9.90039 20.0156C9.82747 20.0156 9.79102 20.1341 9.79102 20.3711ZM9.02539 21.3828V21.4375H9.05273C9.16211 21.3828 9.2168 21.2826 9.2168 21.1367C9.08919 21.1549 9.02539 21.237 9.02539 21.3828ZM20.5918 16.5156L20.5645 16.6797C20.528 16.7708 19.8171 16.7799 18.4316 16.707H18.4043C18.222 16.707 18.1764 15.8867 18.2676 14.2461C17.7572 14.319 17.3379 14.3555 17.0098 14.3555V14.2734C17.0098 14.1823 17.4382 14.0638 18.2949 13.918V13.8906C18.2767 13.8359 18.2676 13.7266 18.2676 13.5625C17.2832 13.7448 16.791 13.9818 16.791 14.2734L16.5996 14.3828C15.9616 14.3828 15.6426 13.7448 15.6426 12.4688C15.6426 12.1224 16.3535 11.8672 17.7754 11.7031C17.7754 11.6849 17.8757 11.6576 18.0762 11.6211L18.1582 11.6484C18.1217 10.737 18.1309 10.1263 18.1855 9.81641H18.2402C18.3861 9.85286 18.459 10.4818 18.459 11.7031L18.623 11.7305H18.7598C18.7962 10.3815 18.6322 9.67969 18.2676 9.625L18.1855 9.40625C18.2585 8.78646 18.9329 8.56771 20.209 8.75C20.5736 8.78646 20.7376 9.52474 20.7012 10.9648C20.7194 10.9648 20.7285 11.056 20.7285 11.2383L20.6465 11.4844L23.3535 11.0742H23.4902C23.6178 11.0742 23.7181 11.7943 23.791 13.2344H23.8184C23.8184 13.4167 22.8887 13.5716 21.0293 13.6992L20.5371 13.7812L20.5918 16.5156ZM20.8652 13.2617V13.3164H20.8926C22.5332 13.2617 23.3535 13.1797 23.3535 13.0703V13.043C23.3353 13.0065 23.2715 12.9518 23.1621 12.8789H23.1348C22.5514 12.8789 21.7949 13.0065 20.8652 13.2617ZM18.623 16.2695H18.6504C18.6868 16.2695 18.7507 16.224 18.8418 16.1328V16.1055C18.9147 15.5768 18.8874 14.9206 18.7598 14.1367C18.7415 14.1549 18.7142 14.1641 18.6777 14.1641C18.5501 15.5312 18.5319 16.2331 18.623 16.2695ZM19.4707 14.7383L19.3887 15.3398C19.334 15.9232 19.3704 16.2513 19.498 16.3242H19.5801L19.6348 16.2148C19.6165 15.2305 19.5618 14.7383 19.4707 14.7383ZM21.7129 12.4141H22.3145C22.8978 12.3776 23.2168 12.3047 23.2715 12.1953V12.1133L23.1348 12.0859C22.1868 12.2135 21.7129 12.3229 21.7129 12.4141ZM20.2363 9.29688L20.1543 9.16016L19.8262 9.13281L19.7441 9.1875V9.24219C19.7259 9.29688 19.8262 9.35156 20.0449 9.40625L20.1816 9.43359L20.2363 9.35156V9.29688ZM16.2168 12.3594L16.1074 12.4688V12.7969L16.1895 12.8789H16.2168C16.2715 12.8789 16.3079 12.7604 16.3262 12.5234V12.4141L16.2715 12.3594H16.2168ZM20.0449 14.5195L20.0176 14.8477C19.9811 15.0482 20.0176 15.1576 20.127 15.1758L20.1543 15.2031V15.1211C20.1725 14.7201 20.1361 14.5195 20.0449 14.5195ZM21.4395 11.8672H21.7402C21.9225 11.8672 22.0319 11.8216 22.0684 11.7305V11.7031H21.9863C21.6217 11.7578 21.4395 11.8125 21.4395 11.8672ZM22.8066 11.5391L22.6152 11.5664V11.6211H22.8613L23.0254 11.5938V11.5391H22.8066ZM20.209 15.9414V15.7227H20.1543L20.127 15.9688V16.1602H20.209V15.9414ZM20.1543 10.1172L20.0449 10.0078H20.0176L19.9902 10.1172L20.0449 10.2266H20.1543V10.1172ZM17.0098 12.3594L16.9277 12.4688V12.4961H17.0645L17.1465 12.4141V12.3594H17.0098ZM19.498 9.16016L19.4707 9.07812H19.3887L19.3613 9.13281L19.4434 9.24219H19.498V9.16016ZM16.1895 13.0977L16.1074 13.1797V13.2617H16.1895L16.2441 13.1797V13.0977H16.1895ZM18.7598 12.3047L18.6777 12.3594V12.4688H18.7598V12.3047ZM19.498 14.2461V14.1641H19.4707L19.4434 14.2734L19.498 14.2461ZM21.1934 12.4688H21.1387V12.5234H21.2754L21.1934 12.4688ZM19.9629 12.1133V12.1953H19.9902C19.972 12.1771 19.9629 12.1406 19.9629 12.0859V12.1133ZM18.7324 13.7812L18.7051 13.7539V13.8086C18.7051 13.8268 18.696 13.8451 18.6777 13.8633H18.7324V13.7812ZM20.0449 13.3711H20.0176L20.0449 13.3984V13.3711ZM26.3066 1.20312C29.4056 1.45833 32.0488 1.6224 34.2363 1.69531C34.6009 1.84115 34.9746 1.96875 35.3574 2.07812H35.5215L35.5488 2.05078C35.6764 2.06901 35.7402 2.10547 35.7402 2.16016V2.24219C35.4303 2.4974 35.2754 3.14453 35.2754 4.18359V4.34766C35.2754 4.47526 35.3665 4.60286 35.5488 4.73047V4.75781L34.8379 7.10938C33.6895 8.71354 32.6504 10.3177 31.7207 11.9219C30.7181 13.2526 30.0436 14.3099 29.6973 15.0938L29.6699 15.4492L29.8066 17.8008L29.5332 20.7266C29.5332 20.8359 29.196 20.9453 28.5215 21.0547L28.2754 20.9453H27.9746L28.166 20.7266V20.6719L28.1113 20.6172H28.0293C27.847 20.6172 27.6829 20.6536 27.5371 20.7266C27.373 20.7266 27.291 20.5443 27.291 20.1797V19.2773L27.3184 17.1992L27.291 16.2148C27.4915 15.3216 27.7832 14.5833 28.166 14C28.6217 13.526 28.8496 13.1068 28.8496 12.7422C28.9225 12.7422 28.9954 12.6055 29.0684 12.332L30.3809 10.3906C31.11 9.22396 31.7207 8.02995 32.2129 6.80859L32.3496 6.61719V6.53516L32.2949 6.48047L33.1973 4.12891V4.07422C32.9603 4.07422 32.4134 3.94661 31.5566 3.69141C30.9368 3.69141 30.3171 3.63672 29.6973 3.52734L29.123 3.71875C27.8652 3.57292 27.0905 3.5 26.7988 3.5H26.5801C26.3613 3.5 26.252 3.51823 26.252 3.55469C25.9421 3.55469 25.7142 3.18099 25.5684 2.43359C25.5319 2.43359 25.5137 2.36979 25.5137 2.24219C25.6048 1.8776 25.7507 1.69531 25.9512 1.69531L26.3066 1.72266V1.69531L26.0059 1.39453V1.36719C26.0059 1.3125 26.1061 1.25781 26.3066 1.20312ZM27.209 1.85938H26.7988V1.94141L27.0723 2.24219V2.26953H26.498L26.416 2.35156V2.40625L26.5254 2.48828H26.6895L27.0723 2.43359C27.8561 2.57943 28.4668 2.65234 28.9043 2.65234H29.6426C29.6426 2.5612 29.3145 2.47917 28.6582 2.40625V2.32422C30.9004 2.47005 32.4134 2.63411 33.1973 2.81641H33.3887C33.4251 2.81641 33.4434 2.77083 33.4434 2.67969C33.4434 2.42448 32.7051 2.26953 31.2285 2.21484L27.209 1.85938ZM30.5176 2.54297V2.67969L30.8184 2.73438H31.0098V2.67969C31.0098 2.60677 30.8457 2.5612 30.5176 2.54297ZM34.373 2.54297C34.0632 2.54297 33.9082 2.58854 33.9082 2.67969C33.9082 2.77083 34.1087 2.81641 34.5098 2.81641H34.5645L34.6738 2.67969V2.59766L34.4824 2.54297H34.373ZM26.5527 2.92578L26.498 3.00781C26.498 3.11719 26.7259 3.17188 27.1816 3.17188H27.6191C27.4004 3.00781 27.054 2.92578 26.5801 2.92578H26.5527ZM30.2441 2.95312C30.2441 3.02604 30.946 3.13542 32.3496 3.28125L32.9512 3.44531H33.1973L33.3066 3.33594C33.3066 3.08073 32.2858 2.95312 30.2441 2.95312ZM34.373 3.22656L34.2363 3.36328V3.41797H34.373L34.4277 3.22656H34.373ZM33.8809 4.07422C33.9173 4.16536 33.9447 4.21094 33.9629 4.21094H34.0449L34.1816 4.07422V3.91016L34.0996 3.88281H33.9629C33.9082 3.91927 33.8809 3.98307 33.8809 4.07422ZM34.373 4.73047V4.75781C34.373 4.9401 34.4186 5.04948 34.5098 5.08594H34.5918C34.6829 5.08594 34.7285 4.77604 34.7285 4.15625L34.6738 4.04688C34.5645 4.11979 34.4642 4.34766 34.373 4.73047ZM33.5801 4.48438H33.5527L33.5801 4.64844H33.6895V4.56641L33.5801 4.48438ZM34.4551 5.41406H34.3184V5.44141L34.2637 6.20703L34.3184 6.26172H34.373C34.4095 6.26172 34.4733 6.07943 34.5645 5.71484V5.60547L34.4551 5.41406ZM32.9785 5.63281H32.8418V5.71484L32.459 6.83594V6.86328H32.5137C32.8418 6.37109 33.015 6.00651 33.0332 5.76953V5.6875L32.9785 5.63281ZM31.3105 9.76172V9.81641H31.4746C31.6569 9.81641 31.9303 9.46094 32.2949 8.75C33.0605 7.51042 33.4434 6.79948 33.4434 6.61719V6.5625L33.3887 6.48047H33.2793C33.1517 6.58984 32.8053 7.11849 32.2402 8.06641C31.6204 9.03255 31.3105 9.59766 31.3105 9.76172ZM33.3887 7.84766H33.3613C32.8509 8.6862 32.5957 9.17839 32.5957 9.32422H32.6777C33.1699 8.75911 33.416 8.26693 33.416 7.84766H33.3887ZM32.1582 10.0625V10.1172C32.1764 10.1172 32.3132 9.96224 32.5684 9.65234V9.57031H32.4863C32.2676 9.7526 32.1582 9.91667 32.1582 10.0625ZM31.5566 11.1016H31.6113C31.8665 10.8099 31.9941 10.5729 31.9941 10.3906V10.3359H31.9668C31.821 10.3359 31.6842 10.5911 31.5566 11.1016ZM30.709 12.0859V12.1953H30.8184L30.9824 11.8125L30.9277 11.7852C30.8184 11.7852 30.7454 11.8854 30.709 12.0859ZM29.4512 12.1953V12.3047H29.5059C29.7793 12.1224 29.916 11.9766 29.916 11.8672H29.8613C29.7337 11.9036 29.597 12.013 29.4512 12.1953ZM29.5332 13.0156H29.5879C29.679 13.0156 29.752 12.9518 29.8066 12.8242L29.752 12.7695C29.6061 12.806 29.5332 12.888 29.5332 13.0156ZM29.3145 13.2617L29.2324 13.3711V13.4531H29.2598L29.3965 13.3438V13.2617H29.3145ZM28.2754 14.5742H28.3027C28.5944 14.3919 28.7402 14.2461 28.7402 14.1367H28.7129C28.4212 14.2643 28.2754 14.4102 28.2754 14.5742ZM28.7402 14.957L28.6309 15.0664V15.0938H28.7676L28.7949 14.9844L28.7676 14.957H28.7402ZM28.6309 15.6406V16.1055C28.7767 16.5794 28.8496 16.862 28.8496 16.9531L28.959 17.0078H28.9863C29.041 17.0078 29.0866 16.8802 29.123 16.625L28.9863 15.9414L29.0684 15.3672H29.041L29.0137 15.3398C28.7585 15.431 28.6309 15.5312 28.6309 15.6406ZM28.166 15.9961H28.0566V16.1055L28.166 16.0234V15.9961ZM28.7949 18.4023H28.7129V18.4844C28.7129 18.6484 28.7585 18.7487 28.8496 18.7852H28.9043L28.9863 18.7031V18.6758C28.9863 18.5482 28.9225 18.457 28.7949 18.4023ZM28.5215 19.6602L28.4668 19.7695V19.8242H28.5215L28.5762 19.7695V19.6602H28.5215ZM27.7559 19.9609L27.6191 20.0703V20.1797C27.6738 20.3073 27.7923 20.3711 27.9746 20.3711H28.3027C28.4668 20.3711 28.5579 20.3346 28.5762 20.2617C28.5762 20.0612 28.3757 19.9609 27.9746 19.9609H27.7559ZM29.0684 20.3438L29.0137 20.3984L29.041 20.4531H29.1504V20.3438H29.0684ZM46.3223 14.9844L46.4316 15.0117C46.541 15.0482 46.5319 15.7773 46.4043 17.1992H46.4316C46.4134 17.3815 45.4746 17.3815 43.6152 17.1992C41.5371 17.3268 40.179 17.3359 39.541 17.2266V17.1992C39.5592 17.0352 40.3522 16.9714 41.9199 17.0078C42.5579 16.9896 42.8952 16.9349 42.9316 16.8438L42.959 16.8164L42.6855 16.7617C40.5345 16.5794 39.4225 16.707 39.3496 17.1445L39.1309 17.1992C38.5111 17.1263 38.3014 16.4427 38.502 15.1484C38.5566 14.8203 39.2949 14.6836 40.7168 14.7383C40.7168 14.7018 40.8171 14.7018 41.0176 14.7383L41.5371 14.9297L41.7832 14.957L46.3223 14.9844ZM45.6934 15.3398L45.5293 15.3672L45.502 15.4492L45.748 15.4766H45.9121L45.9395 15.3945L45.6934 15.3398ZM44.2715 15.4766L44.627 15.5312C44.791 15.5677 44.9004 15.5404 44.9551 15.4492V15.4219H44.873C44.4902 15.4036 44.2897 15.4219 44.2715 15.4766ZM42.7949 15.4766V15.5586H42.8496C43.0137 15.5951 43.1139 15.5677 43.1504 15.4766V15.4492H43.041C42.9134 15.431 42.8314 15.4401 42.7949 15.4766ZM44.4902 16.0781L45.0645 16.1875C45.666 16.2422 46.0033 16.2057 46.0762 16.0781V16.0234L45.9395 15.9688C45.0098 15.9505 44.5267 15.987 44.4902 16.0781ZM41.4824 15.5312L41.4551 15.6406H41.5098C41.9108 15.6953 42.2116 15.6589 42.4121 15.5312V15.5039L42.3574 15.4766C42.1934 15.4583 41.9017 15.4766 41.4824 15.5312ZM39.0488 15.1484L38.9668 15.2305L38.8848 15.5586L38.9668 15.6406V15.668C39.0215 15.668 39.0944 15.5586 39.1855 15.3398V15.2305L39.1582 15.1484H39.0488ZM39.8965 15.2578L39.7598 15.3672L39.7324 15.3945L39.8965 15.4219L39.9512 15.3672L39.9785 15.2852L39.8965 15.2578ZM43.9707 16.0234H43.8887V16.0781L44.0527 16.1328L43.9707 16.0234ZM43.5059 16.7891V16.8164H43.5332C45.1374 17.0169 45.9577 17.0716 45.9941 16.9805V16.9531C45.9941 16.8984 45.9486 16.8255 45.8574 16.7344H45.8301C45.265 16.6615 44.4902 16.6797 43.5059 16.7891ZM38.9121 15.8867L38.8301 15.9414V16.0234H38.8848L38.9668 15.9688V15.9141L38.9121 15.8867ZM46.541 11.5938L46.6504 11.6211C46.7962 11.6393 46.7142 12.3503 46.4043 13.7539L46.4316 13.7812C46.377 13.9635 45.4473 13.8906 43.6426 13.5625C41.5645 13.4531 40.1973 13.3255 39.541 13.1797L39.5684 13.0977C39.623 12.9518 40.4069 12.9792 41.9199 13.1797C42.5944 13.2161 42.9499 13.1888 42.9863 13.0977V13.0703L42.7402 13.0156C40.6074 12.5964 39.4863 12.6055 39.377 13.043L39.1582 13.0977C38.5566 12.9518 38.4199 12.2591 38.748 11.0195C38.821 10.6914 39.5684 10.6185 40.9902 10.8008C41.0085 10.7826 41.1087 10.7826 41.291 10.8008L41.7832 11.0469L42.002 11.1016L46.541 11.5938ZM45.8574 11.8945H45.6934L45.666 11.9492L45.9121 12.0312H46.1035V11.9766L45.8574 11.8945ZM44.4629 11.8945L44.791 11.9766C44.9733 12.013 45.0827 11.9857 45.1191 11.8945L45.0645 11.8672C44.6634 11.8125 44.4629 11.8216 44.4629 11.8945ZM42.9863 11.7578V11.8125C43.1686 11.8672 43.2871 11.8581 43.3418 11.7852L43.3691 11.7305L43.2051 11.7031C43.0957 11.6849 43.0228 11.7031 42.9863 11.7578ZM44.627 12.4961L45.1738 12.6328C45.7389 12.7604 46.0671 12.7695 46.1582 12.6602L46.1855 12.5781L46.0762 12.5234C45.1465 12.4141 44.6634 12.4049 44.627 12.4961ZM41.6738 11.6484L41.6465 11.7578L41.6738 11.7852C42.002 11.8581 42.3118 11.849 42.6035 11.7578V11.7305L42.5488 11.7031C42.3301 11.6484 42.0384 11.6302 41.6738 11.6484ZM39.2949 11.0469L39.1855 11.1016L39.0762 11.457L39.1582 11.5391C39.2129 11.5391 39.2949 11.4388 39.4043 11.2383L39.4316 11.1289L39.3496 11.0469H39.2949ZM40.1152 11.2383L39.9512 11.293V11.3477L40.1152 11.4023L40.1973 11.3203V11.293L40.1152 11.2383ZM44.1074 12.3867H44.0527L44.0254 12.4414L44.1621 12.4961L44.1074 12.3867ZM43.5879 13.0977L43.5605 13.1523H43.5879C45.1738 13.5169 45.985 13.6445 46.0215 13.5352L46.0488 13.5078C46.0488 13.4349 45.9941 13.3529 45.8848 13.2617H45.8574C45.2923 13.1341 44.5358 13.0794 43.5879 13.0977ZM39.0762 11.7852H38.9668V11.8945H39.0488L39.1309 11.8398L39.1582 11.7852H39.0762ZM61.334 0.273438C62.373 0.382812 62.8926 0.53776 62.8926 0.738281C62.8926 0.920573 62.9564 1.01172 63.084 1.01172L63.166 1.09375L62.8652 1.33984V1.44922H62.9473C63.0384 1.33984 63.1113 1.28516 63.166 1.28516C63.2572 1.28516 63.3027 1.39453 63.3027 1.61328L63.5488 9.10547C63.3665 9.88932 63.2754 11.4388 63.2754 13.7539V13.8633C63.2754 15.2669 63.3118 16.1784 63.3848 16.5977C63.2389 16.6523 63.166 16.7708 63.166 16.9531C63.166 17.1901 63.2116 17.3086 63.3027 17.3086H63.3848V17.1172H63.4395C63.5306 17.1172 63.6217 17.5456 63.7129 18.4023L63.6582 18.4297H63.5488C63.403 18.2656 63.2754 18.1836 63.166 18.1836V18.2383V18.3477C63.166 18.6211 63.403 18.7578 63.877 18.7578C66.5931 18.612 67.9512 18.6211 67.9512 18.7852V18.8125C67.9512 18.849 67.8145 18.9128 67.541 19.0039L67.5137 19.0586V19.0859C67.5501 19.1224 67.7142 19.1862 68.0059 19.2773C68.0788 19.3503 68.1152 19.4505 68.1152 19.5781C67.9329 20.5807 67.7142 21.082 67.459 21.082L66.9395 21.1367L65.5176 20.9727L64.6426 21.0273C59.7572 21.1003 57.3145 21.0456 57.3145 20.8633C57.1686 20.6628 57.0957 20.5169 57.0957 20.4258V20.3984L57.3691 19.4688L57.2598 19.2773C57.2598 19.0039 57.4512 18.8216 57.834 18.7305L58.1621 18.6484L60.7324 18.5664C60.9512 18.5664 61.0788 18.4297 61.1152 18.1562V17.8828C61.1152 16.388 61.0605 15.1302 60.9512 14.1094C61.1152 8.71354 61.2884 6.01562 61.4707 6.01562L61.498 5.66016C61.4251 4.11068 61.2975 3.33594 61.1152 3.33594C60.3132 3.86458 59.7754 4.38411 59.502 4.89453L59.3379 4.97656C58.2988 4.59375 57.6335 4.22917 57.3418 3.88281C57.3053 3.88281 57.2689 3.75521 57.2324 3.5L57.2871 3.41797L57.4785 3.44531H57.6699C58.0345 3.44531 58.8184 2.81641 60.0215 1.55859C60.3861 1.23047 60.6777 0.856771 60.8965 0.4375C61.0788 0.328125 61.2246 0.273438 61.334 0.273438ZM61.6621 1.20312V1.23047L61.6895 1.28516H61.7441C61.9082 1.28516 61.9993 1.25781 62.0176 1.20312V1.17578L61.9355 1.09375H61.8535C61.7259 1.11198 61.6621 1.14844 61.6621 1.20312ZM60.8418 1.20312L60.7324 1.28516L60.8145 1.36719H60.8965L61.0605 1.33984V1.25781L60.9785 1.20312H60.8418ZM62.9473 1.77734L62.8926 1.85938V1.94141L62.9473 1.96875L63.0293 1.94141V1.85938L62.9473 1.77734ZM58.9004 4.04688V4.12891H58.9277C59.2012 4.12891 59.4837 3.95573 59.7754 3.60938C60.7598 2.69792 61.252 2.14193 61.252 1.94141H61.1699C60.1491 2.79818 59.3926 3.5 58.9004 4.04688ZM62.209 2.70703V2.73438L62.3457 2.84375L62.4277 2.81641V2.54297L62.4004 2.48828V2.46094C62.2728 2.47917 62.209 2.5612 62.209 2.70703ZM62.0996 2.70703H61.9902L61.7988 3.17188V3.30859L61.9082 3.41797H62.0723C62.1816 3.41797 62.2454 3.38151 62.2637 3.30859V3.22656C62.2637 3.17188 62.1725 3.10807 61.9902 3.03516H61.9355V2.92578C62.0449 2.83464 62.0996 2.76172 62.0996 2.70703ZM58.3535 3.66406V3.71875H58.4629C58.6634 3.71875 58.8366 3.58203 58.9824 3.30859L58.9551 3.25391H58.9277C58.6725 3.36328 58.4811 3.5 58.3535 3.66406ZM62.4004 4.64844L62.4824 6.53516H62.5371C62.6465 6.22526 62.7012 5.77865 62.7012 5.19531V4.40234C62.7012 3.80078 62.6647 3.5 62.5918 3.5C62.4824 3.5 62.4186 3.88281 62.4004 4.64844ZM62.4004 8.77734V9.07812L62.4824 9.59766H62.5371C62.6829 9.59766 62.7559 9.06901 62.7559 8.01172V7.84766L62.6738 7.76562C62.4915 7.83854 62.4004 8.17578 62.4004 8.77734ZM61.6074 13.7812H61.5254V13.918H61.6074V13.7812ZM62.4824 15.9688V15.9961V16.1875L62.5918 16.2695H62.6465L62.7012 16.2148V16.1328C62.6647 16.1328 62.5918 16.0781 62.4824 15.9688ZM62.6738 16.8164H62.6465C62.5371 17.1263 62.4824 17.5091 62.4824 17.9648V18.1836C62.4824 18.4023 62.5736 18.5482 62.7559 18.6211H62.8105C62.8652 18.6211 62.8926 18.5664 62.8926 18.457C62.8743 17.3633 62.8014 16.8164 62.6738 16.8164ZM61.5254 17.5L61.416 17.6641L61.4707 17.7734H61.498L61.6074 17.6641V17.6094L61.5254 17.5ZM61.9902 17.9648L61.9082 18.0469V18.2383L61.9902 18.3203H62.0723V18.0469L61.9902 17.9648ZM58.5176 18.9219H58.2715V18.9766L58.3809 19.0859H58.4355L58.5176 18.9766V18.9219ZM58.4629 19.5781L57.6973 19.6602V19.7695L57.7793 19.8789H57.834C58.0163 19.8789 58.2259 19.7786 58.4629 19.5781ZM63.7676 19.4688V19.5781L65.627 19.2773H65.791V19.168C65.3717 19.1133 64.6973 19.2135 63.7676 19.4688ZM59.3379 19.7695L58.7363 19.8516V19.9609H58.9004H59.1465C59.6022 19.9609 59.8301 19.9245 59.8301 19.8516L59.748 19.7695H59.3379ZM61.498 19.7148L61.4707 19.7695V19.7969C61.5436 19.8698 61.6165 19.9062 61.6895 19.9062V19.8516C61.653 19.7604 61.5892 19.7148 61.498 19.7148ZM61.0059 19.7695L60.9512 19.8516L61.0059 19.9062H61.1152L61.1973 19.8516V19.7695H61.0059ZM62.0723 19.9062L61.9355 19.9883V20.043C61.9355 20.1159 62.2181 20.1523 62.7832 20.1523H62.8105C62.9564 20.1523 63.0293 20.0977 63.0293 19.9883C62.9564 19.9336 62.8743 19.9062 62.7832 19.9062H62.0723ZM67.2129 20.1797V20.2891L67.3223 20.3984C67.5228 20.3984 67.623 20.2526 67.623 19.9609V19.7422L67.5684 19.6602H67.459C67.2949 19.7878 67.2129 19.9609 67.2129 20.1797ZM63.5488 20.207C63.4395 20.3893 63.248 20.4805 62.9746 20.4805V20.5352C62.9746 20.6081 63.2572 20.6536 63.8223 20.6719H63.877C64.2051 20.4167 64.4329 20.1979 64.5605 20.0156C64.5423 19.9609 64.4603 19.9518 64.3145 19.9883C64.1686 20.0065 63.9134 20.0794 63.5488 20.207ZM65.5176 19.9609L64.916 20.0156V20.0703C64.916 20.125 65.1803 20.1523 65.709 20.1523L65.7363 20.125V20.0977C65.6999 20.0065 65.627 19.9609 65.5176 19.9609ZM66.1465 19.9609L66.0645 20.0156L66.0918 20.125H66.1465L66.2285 20.0703V20.0156L66.1465 19.9609ZM64.8613 20.3438H64.752V20.3984H64.8613V20.3438ZM66.748 20.7539V20.7812C66.748 20.8177 66.8301 20.8542 66.9941 20.8906C67.1764 20.8724 67.2676 20.8268 67.2676 20.7539V20.6992L67.1582 20.6172H67.0488C66.8848 20.6172 66.7845 20.6628 66.748 20.7539ZM72.5176 0.273438C73.5566 0.382812 74.0762 0.53776 74.0762 0.738281C74.0762 0.920573 74.14 1.01172 74.2676 1.01172L74.3496 1.09375L74.0488 1.33984V1.44922H74.1309C74.222 1.33984 74.2949 1.28516 74.3496 1.28516C74.4408 1.28516 74.4863 1.39453 74.4863 1.61328L74.7324 9.10547C74.5501 9.88932 74.459 11.4388 74.459 13.7539V13.8633C74.459 15.2669 74.4954 16.1784 74.5684 16.5977C74.4225 16.6523 74.3496 16.7708 74.3496 16.9531C74.3496 17.1901 74.3952 17.3086 74.4863 17.3086H74.5684V17.1172H74.623C74.7142 17.1172 74.8053 17.5456 74.8965 18.4023L74.8418 18.4297H74.7324C74.5866 18.2656 74.459 18.1836 74.3496 18.1836V18.2383V18.3477C74.3496 18.6211 74.5866 18.7578 75.0605 18.7578C77.7767 18.612 79.1348 18.6211 79.1348 18.7852V18.8125C79.1348 18.849 78.998 18.9128 78.7246 19.0039L78.6973 19.0586V19.0859C78.7337 19.1224 78.8978 19.1862 79.1895 19.2773C79.2624 19.3503 79.2988 19.4505 79.2988 19.5781C79.1165 20.5807 78.8978 21.082 78.6426 21.082L78.123 21.1367L76.7012 20.9727L75.8262 21.0273C70.9408 21.1003 68.498 21.0456 68.498 20.8633C68.3522 20.6628 68.2793 20.5169 68.2793 20.4258V20.3984L68.5527 19.4688L68.4434 19.2773C68.4434 19.0039 68.6348 18.8216 69.0176 18.7305L69.3457 18.6484L71.916 18.5664C72.1348 18.5664 72.2624 18.4297 72.2988 18.1562V17.8828C72.2988 16.388 72.2441 15.1302 72.1348 14.1094C72.2988 8.71354 72.472 6.01562 72.6543 6.01562L72.6816 5.66016C72.6087 4.11068 72.4811 3.33594 72.2988 3.33594C71.4967 3.86458 70.959 4.38411 70.6855 4.89453L70.5215 4.97656C69.4824 4.59375 68.8171 4.22917 68.5254 3.88281C68.4889 3.88281 68.4525 3.75521 68.416 3.5L68.4707 3.41797L68.6621 3.44531H68.8535C69.2181 3.44531 70.002 2.81641 71.2051 1.55859C71.5697 1.23047 71.8613 0.856771 72.0801 0.4375C72.2624 0.328125 72.4082 0.273438 72.5176 0.273438ZM72.8457 1.20312V1.23047L72.873 1.28516H72.9277C73.0918 1.28516 73.1829 1.25781 73.2012 1.20312V1.17578L73.1191 1.09375H73.0371C72.9095 1.11198 72.8457 1.14844 72.8457 1.20312ZM72.0254 1.20312L71.916 1.28516L71.998 1.36719H72.0801L72.2441 1.33984V1.25781L72.1621 1.20312H72.0254ZM74.1309 1.77734L74.0762 1.85938V1.94141L74.1309 1.96875L74.2129 1.94141V1.85938L74.1309 1.77734ZM70.084 4.04688V4.12891H70.1113C70.3848 4.12891 70.6673 3.95573 70.959 3.60938C71.9434 2.69792 72.4355 2.14193 72.4355 1.94141H72.3535C71.3327 2.79818 70.5762 3.5 70.084 4.04688ZM73.3926 2.70703V2.73438L73.5293 2.84375L73.6113 2.81641V2.54297L73.584 2.48828V2.46094C73.4564 2.47917 73.3926 2.5612 73.3926 2.70703ZM73.2832 2.70703H73.1738L72.9824 3.17188V3.30859L73.0918 3.41797H73.2559C73.3652 3.41797 73.429 3.38151 73.4473 3.30859V3.22656C73.4473 3.17188 73.3561 3.10807 73.1738 3.03516H73.1191V2.92578C73.2285 2.83464 73.2832 2.76172 73.2832 2.70703ZM69.5371 3.66406V3.71875H69.6465C69.847 3.71875 70.0202 3.58203 70.166 3.30859L70.1387 3.25391H70.1113C69.8561 3.36328 69.6647 3.5 69.5371 3.66406ZM73.584 4.64844L73.666 6.53516H73.7207C73.8301 6.22526 73.8848 5.77865 73.8848 5.19531V4.40234C73.8848 3.80078 73.8483 3.5 73.7754 3.5C73.666 3.5 73.6022 3.88281 73.584 4.64844ZM73.584 8.77734V9.07812L73.666 9.59766H73.7207C73.8665 9.59766 73.9395 9.06901 73.9395 8.01172V7.84766L73.8574 7.76562C73.6751 7.83854 73.584 8.17578 73.584 8.77734ZM72.791 13.7812H72.709V13.918H72.791V13.7812ZM73.666 15.9688V15.9961V16.1875L73.7754 16.2695H73.8301L73.8848 16.2148V16.1328C73.8483 16.1328 73.7754 16.0781 73.666 15.9688ZM73.8574 16.8164H73.8301C73.7207 17.1263 73.666 17.5091 73.666 17.9648V18.1836C73.666 18.4023 73.7572 18.5482 73.9395 18.6211H73.9941C74.0488 18.6211 74.0762 18.5664 74.0762 18.457C74.0579 17.3633 73.985 16.8164 73.8574 16.8164ZM72.709 17.5L72.5996 17.6641L72.6543 17.7734H72.6816L72.791 17.6641V17.6094L72.709 17.5ZM73.1738 17.9648L73.0918 18.0469V18.2383L73.1738 18.3203H73.2559V18.0469L73.1738 17.9648ZM69.7012 18.9219H69.4551V18.9766L69.5645 19.0859H69.6191L69.7012 18.9766V18.9219ZM69.6465 19.5781L68.8809 19.6602V19.7695L68.9629 19.8789H69.0176C69.1999 19.8789 69.4095 19.7786 69.6465 19.5781ZM74.9512 19.4688V19.5781L76.8105 19.2773H76.9746V19.168C76.5553 19.1133 75.8809 19.2135 74.9512 19.4688ZM70.5215 19.7695L69.9199 19.8516V19.9609H70.084H70.3301C70.7858 19.9609 71.0137 19.9245 71.0137 19.8516L70.9316 19.7695H70.5215ZM72.6816 19.7148L72.6543 19.7695V19.7969C72.7272 19.8698 72.8001 19.9062 72.873 19.9062V19.8516C72.8366 19.7604 72.7728 19.7148 72.6816 19.7148ZM72.1895 19.7695L72.1348 19.8516L72.1895 19.9062H72.2988L72.3809 19.8516V19.7695H72.1895ZM73.2559 19.9062L73.1191 19.9883V20.043C73.1191 20.1159 73.4017 20.1523 73.9668 20.1523H73.9941C74.14 20.1523 74.2129 20.0977 74.2129 19.9883C74.14 19.9336 74.0579 19.9062 73.9668 19.9062H73.2559ZM78.3965 20.1797V20.2891L78.5059 20.3984C78.7064 20.3984 78.8066 20.2526 78.8066 19.9609V19.7422L78.752 19.6602H78.6426C78.4785 19.7878 78.3965 19.9609 78.3965 20.1797ZM74.7324 20.207C74.623 20.3893 74.4316 20.4805 74.1582 20.4805V20.5352C74.1582 20.6081 74.4408 20.6536 75.0059 20.6719H75.0605C75.3887 20.4167 75.6165 20.1979 75.7441 20.0156C75.7259 19.9609 75.6439 19.9518 75.498 19.9883C75.3522 20.0065 75.097 20.0794 74.7324 20.207ZM76.7012 19.9609L76.0996 20.0156V20.0703C76.0996 20.125 76.3639 20.1523 76.8926 20.1523L76.9199 20.125V20.0977C76.8835 20.0065 76.8105 19.9609 76.7012 19.9609ZM77.3301 19.9609L77.248 20.0156L77.2754 20.125H77.3301L77.4121 20.0703V20.0156L77.3301 19.9609ZM76.0449 20.3438H75.9355V20.3984H76.0449V20.3438ZM77.9316 20.7539V20.7812C77.9316 20.8177 78.0137 20.8542 78.1777 20.8906C78.36 20.8724 78.4512 20.8268 78.4512 20.7539V20.6992L78.3418 20.6172H78.2324C78.0684 20.6172 77.9681 20.6628 77.9316 20.7539Z" fill="white"/>
</svg>
