<svg width="79" height="22" viewBox="0 0 79 22" fill="none" xmlns="http://www.w3.org/2000/svg">
<path d="M1.17773 1.20312C4.27669 1.45833 6.91992 1.6224 9.10742 1.69531C9.47201 1.84115 9.8457 1.96875 10.2285 2.07812H10.3926L10.4199 2.05078C10.5475 2.06901 10.6113 2.10547 10.6113 2.16016V2.24219C10.3014 2.4974 10.1465 3.14453 10.1465 4.18359V4.34766C10.1465 4.47526 10.2376 4.60286 10.4199 4.73047V4.75781L9.70898 7.10938C8.56055 8.71354 7.52148 10.3177 6.5918 11.9219C5.58919 13.2526 4.91471 14.3099 4.56836 15.0938L4.54102 15.4492L4.67773 17.8008L4.4043 20.7266C4.4043 20.8359 4.06706 20.9453 3.39258 21.0547L3.14648 20.9453H2.8457L3.03711 20.7266V20.6719L2.98242 20.6172H2.90039C2.7181 20.6172 2.55404 20.6536 2.4082 20.7266C2.24414 20.7266 2.16211 20.5443 2.16211 20.1797V19.2773L2.18945 17.1992L2.16211 16.2148C2.36263 15.3216 2.6543 14.5833 3.03711 14C3.49284 13.526 3.7207 13.1068 3.7207 12.7422C3.79362 12.7422 3.86654 12.6055 3.93945 12.332L5.25195 10.3906C5.98112 9.22396 6.5918 8.02995 7.08398 6.80859L7.2207 6.61719V6.53516L7.16602 6.48047L8.06836 4.12891V4.07422C7.83138 4.07422 7.28451 3.94661 6.42773 3.69141C5.80794 3.69141 5.18815 3.63672 4.56836 3.52734L3.99414 3.71875C2.73633 3.57292 1.96159 3.5 1.66992 3.5H1.45117C1.23242 3.5 1.12305 3.51823 1.12305 3.55469C0.813151 3.55469 0.585286 3.18099 0.439453 2.43359C0.402995 2.43359 0.384766 2.36979 0.384766 2.24219C0.475911 1.8776 0.621745 1.69531 0.822266 1.69531L1.17773 1.72266V1.69531L0.876953 1.39453V1.36719C0.876953 1.3125 0.977214 1.25781 1.17773 1.20312ZM2.08008 1.85938H1.66992V1.94141L1.94336 2.24219V2.26953H1.36914L1.28711 2.35156V2.40625L1.39648 2.48828H1.56055L1.94336 2.43359C2.72721 2.57943 3.33789 2.65234 3.77539 2.65234H4.51367C4.51367 2.5612 4.18555 2.47917 3.5293 2.40625V2.32422C5.77148 2.47005 7.28451 2.63411 8.06836 2.81641H8.25977C8.29622 2.81641 8.31445 2.77083 8.31445 2.67969C8.31445 2.42448 7.57617 2.26953 6.09961 2.21484L2.08008 1.85938ZM5.38867 2.54297V2.67969L5.68945 2.73438H5.88086V2.67969C5.88086 2.60677 5.7168 2.5612 5.38867 2.54297ZM9.24414 2.54297C8.93424 2.54297 8.7793 2.58854 8.7793 2.67969C8.7793 2.77083 8.97982 2.81641 9.38086 2.81641H9.43555L9.54492 2.67969V2.59766L9.35352 2.54297H9.24414ZM1.42383 2.92578L1.36914 3.00781C1.36914 3.11719 1.59701 3.17188 2.05273 3.17188H2.49023C2.27148 3.00781 1.92513 2.92578 1.45117 2.92578H1.42383ZM5.11523 2.95312C5.11523 3.02604 5.81706 3.13542 7.2207 3.28125L7.82227 3.44531H8.06836L8.17773 3.33594C8.17773 3.08073 7.1569 2.95312 5.11523 2.95312ZM9.24414 3.22656L9.10742 3.36328V3.41797H9.24414L9.29883 3.22656H9.24414ZM8.75195 4.07422C8.78841 4.16536 8.81576 4.21094 8.83398 4.21094H8.91602L9.05273 4.07422V3.91016L8.9707 3.88281H8.83398C8.7793 3.91927 8.75195 3.98307 8.75195 4.07422ZM9.24414 4.73047V4.75781C9.24414 4.9401 9.28971 5.04948 9.38086 5.08594H9.46289C9.55404 5.08594 9.59961 4.77604 9.59961 4.15625L9.54492 4.04688C9.43555 4.11979 9.33529 4.34766 9.24414 4.73047ZM8.45117 4.48438H8.42383L8.45117 4.64844H8.56055V4.56641L8.45117 4.48438ZM9.32617 5.41406H9.18945V5.44141L9.13477 6.20703L9.18945 6.26172H9.24414C9.2806 6.26172 9.3444 6.07943 9.43555 5.71484V5.60547L9.32617 5.41406ZM7.84961 5.63281H7.71289V5.71484L7.33008 6.83594V6.86328H7.38477C7.71289 6.37109 7.88607 6.00651 7.9043 5.76953V5.6875L7.84961 5.63281ZM6.18164 9.76172V9.81641H6.3457C6.52799 9.81641 6.80143 9.46094 7.16602 8.75C7.93164 7.51042 8.31445 6.79948 8.31445 6.61719V6.5625L8.25977 6.48047H8.15039C8.02279 6.58984 7.67643 7.11849 7.11133 8.06641C6.49154 9.03255 6.18164 9.59766 6.18164 9.76172ZM8.25977 7.84766H8.23242C7.72201 8.6862 7.4668 9.17839 7.4668 9.32422H7.54883C8.04102 8.75911 8.28711 8.26693 8.28711 7.84766H8.25977ZM7.0293 10.0625V10.1172C7.04753 10.1172 7.18424 9.96224 7.43945 9.65234V9.57031H7.35742C7.13867 9.7526 7.0293 9.91667 7.0293 10.0625ZM6.42773 11.1016H6.48242C6.73763 10.8099 6.86523 10.5729 6.86523 10.3906V10.3359H6.83789C6.69206 10.3359 6.55534 10.5911 6.42773 11.1016ZM5.58008 12.0859V12.1953H5.68945L5.85352 11.8125L5.79883 11.7852C5.68945 11.7852 5.61654 11.8854 5.58008 12.0859ZM4.32227 12.1953V12.3047H4.37695C4.65039 12.1224 4.78711 11.9766 4.78711 11.8672H4.73242C4.60482 11.9036 4.4681 12.013 4.32227 12.1953ZM4.4043 13.0156H4.45898C4.55013 13.0156 4.62305 12.9518 4.67773 12.8242L4.62305 12.7695C4.47721 12.806 4.4043 12.888 4.4043 13.0156ZM4.18555 13.2617L4.10352 13.3711V13.4531H4.13086L4.26758 13.3438V13.2617H4.18555ZM3.14648 14.5742H3.17383C3.46549 14.3919 3.61133 14.2461 3.61133 14.1367H3.58398C3.29232 14.2643 3.14648 14.4102 3.14648 14.5742ZM3.61133 14.957L3.50195 15.0664V15.0938H3.63867L3.66602 14.9844L3.63867 14.957H3.61133ZM3.50195 15.6406V16.1055C3.64779 16.5794 3.7207 16.862 3.7207 16.9531L3.83008 17.0078H3.85742C3.91211 17.0078 3.95768 16.8802 3.99414 16.625L3.85742 15.9414L3.93945 15.3672H3.91211L3.88477 15.3398C3.62956 15.431 3.50195 15.5312 3.50195 15.6406ZM3.03711 15.9961H2.92773V16.1055L3.03711 16.0234V15.9961ZM3.66602 18.4023H3.58398V18.4844C3.58398 18.6484 3.62956 18.7487 3.7207 18.7852H3.77539L3.85742 18.7031V18.6758C3.85742 18.5482 3.79362 18.457 3.66602 18.4023ZM3.39258 19.6602L3.33789 19.7695V19.8242H3.39258L3.44727 19.7695V19.6602H3.39258ZM2.62695 19.9609L2.49023 20.0703V20.1797C2.54492 20.3073 2.66341 20.3711 2.8457 20.3711H3.17383C3.33789 20.3711 3.42904 20.3346 3.44727 20.2617C3.44727 20.0612 3.24674 19.9609 2.8457 19.9609H2.62695ZM3.93945 20.3438L3.88477 20.3984L3.91211 20.4531H4.02148V20.3438H3.93945ZM18.4043 16.5156L18.377 16.6797C18.3405 16.7708 17.6296 16.7799 16.2441 16.707H16.2168C16.0345 16.707 15.9889 15.8867 16.0801 14.2461C15.5697 14.319 15.1504 14.3555 14.8223 14.3555V14.2734C14.8223 14.1823 15.2507 14.0638 16.1074 13.918V13.8906C16.0892 13.8359 16.0801 13.7266 16.0801 13.5625C15.0957 13.7448 14.6035 13.9818 14.6035 14.2734L14.4121 14.3828C13.7741 14.3828 13.4551 13.7448 13.4551 12.4688C13.4551 12.1224 14.166 11.8672 15.5879 11.7031C15.5879 11.6849 15.6882 11.6576 15.8887 11.6211L15.9707 11.6484C15.9342 10.737 15.9434 10.1263 15.998 9.81641H16.0527C16.1986 9.85286 16.2715 10.4818 16.2715 11.7031L16.4355 11.7305H16.5723C16.6087 10.3815 16.4447 9.67969 16.0801 9.625L15.998 9.40625C16.071 8.78646 16.7454 8.56771 18.0215 8.75C18.3861 8.78646 18.5501 9.52474 18.5137 10.9648C18.5319 10.9648 18.541 11.056 18.541 11.2383L18.459 11.4844L21.166 11.0742H21.3027C21.4303 11.0742 21.5306 11.7943 21.6035 13.2344H21.6309C21.6309 13.4167 20.7012 13.5716 18.8418 13.6992L18.3496 13.7812L18.4043 16.5156ZM18.6777 13.2617V13.3164H18.7051C20.3457 13.2617 21.166 13.1797 21.166 13.0703V13.043C21.1478 13.0065 21.084 12.9518 20.9746 12.8789H20.9473C20.3639 12.8789 19.6074 13.0065 18.6777 13.2617ZM16.4355 16.2695H16.4629C16.4993 16.2695 16.5632 16.224 16.6543 16.1328V16.1055C16.7272 15.5768 16.6999 14.9206 16.5723 14.1367C16.554 14.1549 16.5267 14.1641 16.4902 14.1641C16.3626 15.5312 16.3444 16.2331 16.4355 16.2695ZM17.2832 14.7383L17.2012 15.3398C17.1465 15.9232 17.1829 16.2513 17.3105 16.3242H17.3926L17.4473 16.2148C17.429 15.2305 17.3743 14.7383 17.2832 14.7383ZM19.5254 12.4141H20.127C20.7103 12.3776 21.0293 12.3047 21.084 12.1953V12.1133L20.9473 12.0859C19.9993 12.2135 19.5254 12.3229 19.5254 12.4141ZM18.0488 9.29688L17.9668 9.16016L17.6387 9.13281L17.5566 9.1875V9.24219C17.5384 9.29688 17.6387 9.35156 17.8574 9.40625L17.9941 9.43359L18.0488 9.35156V9.29688ZM14.0293 12.3594L13.9199 12.4688V12.7969L14.002 12.8789H14.0293C14.084 12.8789 14.1204 12.7604 14.1387 12.5234V12.4141L14.084 12.3594H14.0293ZM17.8574 14.5195L17.8301 14.8477C17.7936 15.0482 17.8301 15.1576 17.9395 15.1758L17.9668 15.2031V15.1211C17.985 14.7201 17.9486 14.5195 17.8574 14.5195ZM19.252 11.8672H19.5527C19.735 11.8672 19.8444 11.8216 19.8809 11.7305V11.7031H19.7988C19.4342 11.7578 19.252 11.8125 19.252 11.8672ZM20.6191 11.5391L20.4277 11.5664V11.6211H20.6738L20.8379 11.5938V11.5391H20.6191ZM18.0215 15.9414V15.7227H17.9668L17.9395 15.9688V16.1602H18.0215V15.9414ZM17.9668 10.1172L17.8574 10.0078H17.8301L17.8027 10.1172L17.8574 10.2266H17.9668V10.1172ZM14.8223 12.3594L14.7402 12.4688V12.4961H14.877L14.959 12.4141V12.3594H14.8223ZM17.3105 9.16016L17.2832 9.07812H17.2012L17.1738 9.13281L17.2559 9.24219H17.3105V9.16016ZM14.002 13.0977L13.9199 13.1797V13.2617H14.002L14.0566 13.1797V13.0977H14.002ZM16.5723 12.3047L16.4902 12.3594V12.4688H16.5723V12.3047ZM17.3105 14.2461V14.1641H17.2832L17.2559 14.2734L17.3105 14.2461ZM19.0059 12.4688H18.9512V12.5234H19.0879L19.0059 12.4688ZM17.7754 12.1133V12.1953H17.8027C17.7845 12.1771 17.7754 12.1406 17.7754 12.0859V12.1133ZM16.5449 13.7812L16.5176 13.7539V13.8086C16.5176 13.8268 16.5085 13.8451 16.4902 13.8633H16.5449V13.7812ZM17.8574 13.3711H17.8301L17.8574 13.3984V13.3711ZM29.5059 1.66797H29.7246C29.9251 1.66797 30.2533 1.8138 30.709 2.10547C31.4928 2.39714 31.8848 2.71615 31.8848 3.0625C32.4681 4.32031 32.7598 5.25911 32.7598 5.87891C32.7233 6.04297 32.6595 6.53516 32.5684 7.35547C32.2585 8.17578 31.8665 8.88672 31.3926 9.48828C32.9238 10.7643 33.7806 11.7305 33.9629 12.3867C33.9629 12.4961 34.1999 12.9245 34.6738 13.6719L34.5918 15.4766L34.5645 15.5859H34.4824V15.3125C34.4824 15.1302 34.4551 15.0391 34.4004 15.0391H34.3184C34.209 15.0391 34.127 15.2578 34.0723 15.6953C34.127 15.9323 34.1816 16.0508 34.2363 16.0508H34.291C34.4004 16.0508 34.4642 15.9323 34.4824 15.6953H34.5645C34.5645 16.2786 34.4004 16.8164 34.0723 17.3086L33.9629 17.1172H33.8535L33.7441 17.1992V17.3359L33.8809 17.4727L33.8535 17.6641L33.9629 17.9375C33.9629 18.0833 33.7715 18.2839 33.3887 18.5391V18.4844L33.4707 18.375V18.3477L33.3887 18.2656H33.2246C32.9147 18.4297 32.6777 18.7487 32.5137 19.2227L32.6504 19.2773L33.2793 18.7852V18.8125C32.86 19.4505 32.4316 19.8333 31.9941 19.9609C31.7389 20.1979 31.3743 20.4258 30.9004 20.6445C30.5723 20.918 29.916 21.1641 28.9316 21.3828C28.9316 21.4193 28.8223 21.4375 28.6035 21.4375C28.1842 21.4375 27.4368 21.2188 26.3613 20.7812C25.7051 20.7812 24.8848 19.6875 23.9004 17.5C23.8457 17.5 23.7728 17.181 23.6816 16.543V16.0508C23.6816 14.9388 23.8639 14.0182 24.2285 13.2891C24.429 12.3594 24.666 11.8945 24.9395 11.8945C24.9395 11.694 25.1855 11.3021 25.6777 10.7188L25.9785 10.3633V10.2812C25.7962 10.2812 25.2129 9.69792 24.2285 8.53125C23.6816 6.94531 23.4082 5.9974 23.4082 5.6875C23.554 5.57812 23.627 5.40495 23.627 5.16797L23.8184 5.25H23.8457C23.9368 5.21354 23.9824 5.13151 23.9824 5.00391V4.83984L23.873 4.70312H23.8184L23.7363 4.92188L23.627 4.89453V4.83984C23.8092 4.22005 24.1647 3.74609 24.6934 3.41797C24.8757 2.90755 25.2585 2.54297 25.8418 2.32422C26.9355 1.88672 28.1569 1.66797 29.5059 1.66797ZM24.9395 3.80078L24.9941 3.82812H25.0215C25.1673 3.82812 25.7142 3.36328 26.6621 2.43359C26.735 2.43359 26.7715 2.39714 26.7715 2.32422H26.7168C26.3522 2.32422 25.8509 2.625 25.2129 3.22656C25.0853 3.39062 24.9941 3.58203 24.9395 3.80078ZM28.4395 2.65234V2.73438L30.0254 3.17188V2.67969H30.1074V2.65234L30.709 2.84375H30.791C30.791 2.60677 30.3626 2.48828 29.5059 2.48828C29.36 2.45182 29.1686 2.43359 28.9316 2.43359C28.7493 2.43359 28.5853 2.50651 28.4395 2.65234ZM26.2246 3.39062H26.3066C26.7441 3.17188 26.9629 2.9987 26.9629 2.87109H26.8535C26.5618 2.98047 26.3522 3.15365 26.2246 3.39062ZM25.6777 6.23438V6.37109C25.7142 7.04557 26.2884 8.04818 27.4004 9.37891L27.7559 9.625H27.7832L28.1113 9.54297H28.3574C28.9408 9.54297 29.6335 9.32422 30.4355 8.88672C30.7272 8.72266 31.0462 8.28516 31.3926 7.57422C31.5202 7.30078 31.6569 7.16406 31.8027 7.16406L31.748 6.89062L31.9121 6.28906V6.125C31.9121 6.10677 31.8392 6.07943 31.6934 6.04297L31.0098 4.23828C30.9004 4.03776 30.6178 3.90104 30.1621 3.82812C29.9798 3.60938 29.2962 3.33594 28.1113 3.00781C27.7285 3.00781 26.9902 3.47266 25.8965 4.40234C25.7507 4.78516 25.6777 5.39583 25.6777 6.23438ZM31.0371 3.11719H30.791V3.14453C30.8457 3.27214 30.946 3.33594 31.0918 3.33594H31.1191L31.2012 3.28125C31.1465 3.20833 31.0918 3.15365 31.0371 3.11719ZM31.5566 3.60938V3.66406C31.6842 3.99219 31.821 4.15625 31.9668 4.15625V4.01953C31.8574 3.74609 31.7207 3.60938 31.5566 3.60938ZM23.9551 4.40234V4.56641H23.9824C24.2376 4.47526 24.3652 4.29297 24.3652 4.01953V3.88281H24.2559C24.1647 3.88281 24.0645 4.05599 23.9551 4.40234ZM24.1191 5.71484C24.1191 6.0612 24.1465 6.23438 24.2012 6.23438H24.2285C24.4108 6.23438 24.5293 6.11589 24.584 5.87891V5.52344C24.584 4.9401 24.6934 4.51172 24.9121 4.23828V4.01953H24.666C24.5566 4.01953 24.4746 4.30208 24.4199 4.86719C24.347 4.86719 24.2467 5.14974 24.1191 5.71484ZM31.7754 4.40234H31.6387V4.51172L31.5566 4.8125L31.8027 5.25C31.8027 5.41406 31.8392 5.53255 31.9121 5.60547L31.8848 5.79688V5.82422H31.9121L31.9941 5.71484V5.25C31.9941 4.6849 31.9212 4.40234 31.7754 4.40234ZM25.2129 5.76953L25.2949 5.82422C25.3496 5.73307 25.377 5.64193 25.377 5.55078H25.3496C25.2585 5.58724 25.2129 5.66016 25.2129 5.76953ZM24.9395 6.45312C25.0488 7.3099 25.3223 8.01172 25.7598 8.55859C26.3066 9.14193 26.6712 9.47005 26.8535 9.54297H26.9629C26.9629 9.50651 26.6986 9.11458 26.1699 8.36719C25.6048 7.36458 25.304 6.69922 25.2676 6.37109L25.1035 6.23438H25.0762C24.985 6.27083 24.9395 6.34375 24.9395 6.45312ZM32.377 6.31641L32.2676 6.23438C32.14 6.59896 32.0762 6.89062 32.0762 7.10938L32.1035 7.13672H32.1855C32.3132 7.11849 32.377 7 32.377 6.78125V6.31641ZM24.0098 6.72656C24.1009 7.29167 24.3652 7.94792 24.8027 8.69531C24.8574 8.69531 25.0215 8.90495 25.2949 9.32422C25.6777 9.77995 26.0332 10.0078 26.3613 10.0078H26.5527V9.95312C26.5527 9.89844 26.1061 9.47917 25.2129 8.69531C24.8483 8.27604 24.666 7.99349 24.666 7.84766C24.5384 7.68359 24.4199 7.22786 24.3105 6.48047L24.2559 6.45312H24.1191C24.0462 6.47135 24.0098 6.5625 24.0098 6.72656ZM30.627 9.24219V9.26953H30.6816C30.9733 9.26953 31.3561 8.89583 31.8301 8.14844L31.9121 7.79297V7.60156L31.8301 7.46484C31.7025 7.5013 31.4928 7.86589 31.2012 8.55859C31.0736 8.75911 30.8822 8.98698 30.627 9.24219ZM29.4238 9.67969L29.4785 9.73438H29.6152C29.7246 9.73438 29.8613 9.67969 30.0254 9.57031V9.48828C29.7702 9.48828 29.5697 9.55208 29.4238 9.67969ZM31.0098 9.76172L30.9004 9.81641C31.1374 9.94401 31.3561 10.0078 31.5566 10.0078L31.584 9.95312V9.84375L31.502 9.76172H31.0098ZM30.5176 10.1172L30.1895 10.2266V10.2812C30.2259 10.3542 30.627 10.5273 31.3926 10.8008C31.7572 11.0742 31.985 11.2109 32.0762 11.2109V11.0469C31.6387 10.4271 31.1191 10.1172 30.5176 10.1172ZM26.9902 10.2266H26.8262V10.3086C26.8262 10.3815 26.972 10.4271 27.2637 10.4453H27.5098L27.5645 10.3633C27.5645 10.2721 27.373 10.2266 26.9902 10.2266ZM28.4395 10.2266H28.084V10.3086L28.1387 10.3633H28.248C28.5397 10.3633 28.804 10.3359 29.041 10.2812V10.2266H28.4395ZM24.6934 12.5781H24.8027C24.9303 12.5781 25.459 12.0951 26.3887 11.1289C26.4798 11.1289 26.6074 11.0195 26.7715 10.8008V10.7734C26.735 10.6641 26.6348 10.6094 26.4707 10.6094H26.3613C26.0697 10.6094 25.6686 10.974 25.1582 11.7031C25.14 11.7031 25.0853 11.8307 24.9941 12.0859C24.7936 12.2865 24.6934 12.4505 24.6934 12.5781ZM25.8965 13.125L25.9512 13.1797V13.207L26.1152 13.1797L26.1699 13.2617C25.6413 14.3737 25.377 15.0664 25.377 15.3398V15.4219C25.377 17.2812 25.6868 18.4388 26.3066 18.8945C27.054 19.6055 27.6829 19.9609 28.1934 19.9609H28.4395L28.5215 19.8789C28.5033 19.8424 28.166 19.6784 27.5098 19.3867C26.9447 19.0404 26.571 18.7578 26.3887 18.5391V18.4844H26.4434L27.8652 19.3047C28.9954 19.6875 29.7155 19.8789 30.0254 19.8789H30.1074C30.2533 19.8789 30.554 19.6602 31.0098 19.2227V19.3867C31.5202 19.2044 31.9395 18.8034 32.2676 18.1836L32.377 17.8008V17.7461L31.9941 17.9375V17.9102C32.4316 17.2904 32.6504 16.862 32.6504 16.625C32.6504 15.8776 32.5592 15.2214 32.377 14.6562V14.3555C32.377 14.1367 32.304 13.6354 32.1582 12.8516V12.8242L32.2402 12.7695L32.4863 12.9336V12.8789V12.7695C32.4863 12.569 32.4134 12.4232 32.2676 12.332H32.1855V12.6055H32.1035C32.0306 12.5872 31.9121 12.3229 31.748 11.8125C31.2012 11.0651 30.4447 10.6914 29.4785 10.6914C27.6009 11.0195 26.6621 11.4297 26.6621 11.9219C26.6621 12.487 26.4069 12.888 25.8965 13.125ZM25.1582 12.9883C25.2858 12.9883 25.4134 12.8971 25.541 12.7148V12.6602H25.4863C25.2858 12.6602 25.1764 12.7695 25.1582 12.9883ZM24.584 14.5742C24.584 14.6654 24.6934 14.7292 24.9121 14.7656C25.0944 14.7656 25.2402 14.5833 25.3496 14.2188V14.0547C25.3496 14 25.2402 13.9727 25.0215 13.9727L24.9941 13.9453V13.8906C24.9941 13.8359 25.0853 13.8086 25.2676 13.8086C25.3405 13.8086 25.4316 13.6901 25.541 13.4531V13.3984L25.4863 13.3438C25.3587 13.3438 25.2311 13.3802 25.1035 13.4531V13.3984V13.3711V13.3438V13.1797H24.9121C24.6934 13.1797 24.584 13.6445 24.584 14.5742ZM33.3613 13.5352C33.3978 13.9727 33.4525 14.2005 33.5254 14.2188C33.5801 14.2188 33.6165 14.1094 33.6348 13.8906C33.5801 13.599 33.5163 13.4531 33.4434 13.4531C33.3887 13.4531 33.3613 13.4805 33.3613 13.5352ZM32.9512 14.8477V14.957L33.0059 15.2578L32.9238 15.3672V15.5039C32.9238 15.6497 32.9694 15.7227 33.0605 15.7227H33.1973C33.3249 15.668 33.3887 15.5768 33.3887 15.4492V15.3398C33.2793 14.6836 33.1882 14.3555 33.1152 14.3555H33.0605C32.9876 14.3555 32.9512 14.5195 32.9512 14.8477ZM24.0098 16.8984C24.4655 17.8828 24.8027 18.5026 25.0215 18.7578H25.0762V18.7031L24.4746 16.1328C24.4017 15.8594 24.3652 15.5586 24.3652 15.2305L24.4199 14.6836L24.3926 14.6562H24.2559C24.1465 14.6562 24.0645 15.4036 24.0098 16.8984ZM34.0723 16.5156L34.127 16.543H34.1543C34.2454 16.5065 34.291 16.4336 34.291 16.3242H34.2363C34.1816 16.3242 34.127 16.388 34.0723 16.5156ZM33.4434 17.6094L33.334 17.6914V17.8555H33.3613L33.4707 17.7461V17.6094H33.4434ZM31.4746 18.5391L31.584 18.4023H31.6387V18.4844L31.502 18.6211H31.4746V18.5391ZM31.2559 18.8945V18.8125H31.3652V18.8945H31.2559ZM25.623 19.0859H25.541V19.4688C25.541 19.7969 25.7962 20.0247 26.3066 20.1523H26.3613L26.4434 20.0977C26.2975 19.7695 26.0241 19.4323 25.623 19.0859ZM29.041 19.9883L28.7949 20.0156V20.0977L28.8223 20.1523H29.123C29.2324 20.1523 29.2962 20.125 29.3145 20.0703V20.0156L29.1504 19.9883H29.041ZM26.9082 20.2891L26.8262 20.3438V20.3984C27.0996 20.7448 27.6465 20.918 28.4668 20.918C28.7038 20.8997 28.8223 20.8724 28.8223 20.8359V20.7539C28.6035 20.7539 28.002 20.599 27.0176 20.2891H26.9082ZM29.2324 20.6992V20.7812H29.2598C29.515 20.7812 29.7975 20.6628 30.1074 20.4258V20.3711H30.0801C29.515 20.4987 29.2324 20.6081 29.2324 20.6992ZM45.5566 14.9844L45.666 15.0117C45.7754 15.0482 45.7663 15.7773 45.6387 17.1992H45.666C45.6478 17.3815 44.709 17.3815 42.8496 17.1992C40.7715 17.3268 39.4134 17.3359 38.7754 17.2266V17.1992C38.7936 17.0352 39.5866 16.9714 41.1543 17.0078C41.7923 16.9896 42.1296 16.9349 42.166 16.8438L42.1934 16.8164L41.9199 16.7617C39.7689 16.5794 38.6569 16.707 38.584 17.1445L38.3652 17.1992C37.7454 17.1263 37.5358 16.4427 37.7363 15.1484C37.791 14.8203 38.5293 14.6836 39.9512 14.7383C39.9512 14.7018 40.0514 14.7018 40.252 14.7383L40.7715 14.9297L41.0176 14.957L45.5566 14.9844ZM44.9277 15.3398L44.7637 15.3672L44.7363 15.4492L44.9824 15.4766H45.1465L45.1738 15.3945L44.9277 15.3398ZM43.5059 15.4766L43.8613 15.5312C44.0254 15.5677 44.1348 15.5404 44.1895 15.4492V15.4219H44.1074C43.7246 15.4036 43.5241 15.4219 43.5059 15.4766ZM42.0293 15.4766V15.5586H42.084C42.248 15.5951 42.3483 15.5677 42.3848 15.4766V15.4492H42.2754C42.1478 15.431 42.0658 15.4401 42.0293 15.4766ZM43.7246 16.0781L44.2988 16.1875C44.9004 16.2422 45.2376 16.2057 45.3105 16.0781V16.0234L45.1738 15.9688C44.2441 15.9505 43.7611 15.987 43.7246 16.0781ZM40.7168 15.5312L40.6895 15.6406H40.7441C41.1452 15.6953 41.446 15.6589 41.6465 15.5312V15.5039L41.5918 15.4766C41.4277 15.4583 41.1361 15.4766 40.7168 15.5312ZM38.2832 15.1484L38.2012 15.2305L38.1191 15.5586L38.2012 15.6406V15.668C38.2559 15.668 38.3288 15.5586 38.4199 15.3398V15.2305L38.3926 15.1484H38.2832ZM39.1309 15.2578L38.9941 15.3672L38.9668 15.3945L39.1309 15.4219L39.1855 15.3672L39.2129 15.2852L39.1309 15.2578ZM43.2051 16.0234H43.123V16.0781L43.2871 16.1328L43.2051 16.0234ZM42.7402 16.7891V16.8164H42.7676C44.3717 17.0169 45.1921 17.0716 45.2285 16.9805V16.9531C45.2285 16.8984 45.1829 16.8255 45.0918 16.7344H45.0645C44.4993 16.6615 43.7246 16.6797 42.7402 16.7891ZM38.1465 15.8867L38.0645 15.9414V16.0234H38.1191L38.2012 15.9688V15.9141L38.1465 15.8867ZM45.7754 11.5938L45.8848 11.6211C46.0306 11.6393 45.9486 12.3503 45.6387 13.7539L45.666 13.7812C45.6113 13.9635 44.6816 13.8906 42.877 13.5625C40.7988 13.4531 39.4316 13.3255 38.7754 13.1797L38.8027 13.0977C38.8574 12.9518 39.6413 12.9792 41.1543 13.1797C41.8288 13.2161 42.1842 13.1888 42.2207 13.0977V13.0703L41.9746 13.0156C39.8418 12.5964 38.7207 12.6055 38.6113 13.043L38.3926 13.0977C37.791 12.9518 37.6543 12.2591 37.9824 11.0195C38.0553 10.6914 38.8027 10.6185 40.2246 10.8008C40.2428 10.7826 40.3431 10.7826 40.5254 10.8008L41.0176 11.0469L41.2363 11.1016L45.7754 11.5938ZM45.0918 11.8945H44.9277L44.9004 11.9492L45.1465 12.0312H45.3379V11.9766L45.0918 11.8945ZM43.6973 11.8945L44.0254 11.9766C44.2077 12.013 44.3171 11.9857 44.3535 11.8945L44.2988 11.8672C43.8978 11.8125 43.6973 11.8216 43.6973 11.8945ZM42.2207 11.7578V11.8125C42.403 11.8672 42.5215 11.8581 42.5762 11.7852L42.6035 11.7305L42.4395 11.7031C42.3301 11.6849 42.2572 11.7031 42.2207 11.7578ZM43.8613 12.4961L44.4082 12.6328C44.9733 12.7604 45.3014 12.7695 45.3926 12.6602L45.4199 12.5781L45.3105 12.5234C44.3809 12.4141 43.8978 12.4049 43.8613 12.4961ZM40.9082 11.6484L40.8809 11.7578L40.9082 11.7852C41.2363 11.8581 41.5462 11.849 41.8379 11.7578V11.7305L41.7832 11.7031C41.5645 11.6484 41.2728 11.6302 40.9082 11.6484ZM38.5293 11.0469L38.4199 11.1016L38.3105 11.457L38.3926 11.5391C38.4473 11.5391 38.5293 11.4388 38.6387 11.2383L38.666 11.1289L38.584 11.0469H38.5293ZM39.3496 11.2383L39.1855 11.293V11.3477L39.3496 11.4023L39.4316 11.3203V11.293L39.3496 11.2383ZM43.3418 12.3867H43.2871L43.2598 12.4414L43.3965 12.4961L43.3418 12.3867ZM42.8223 13.0977L42.7949 13.1523H42.8223C44.4082 13.5169 45.2194 13.6445 45.2559 13.5352L45.2832 13.5078C45.2832 13.4349 45.2285 13.3529 45.1191 13.2617H45.0918C44.5267 13.1341 43.7702 13.0794 42.8223 13.0977ZM38.3105 11.7852H38.2012V11.8945H38.2832L38.3652 11.8398L38.3926 11.7852H38.3105ZM60.5684 0.273438C61.6074 0.382812 62.127 0.53776 62.127 0.738281C62.127 0.920573 62.1908 1.01172 62.3184 1.01172L62.4004 1.09375L62.0996 1.33984V1.44922H62.1816C62.2728 1.33984 62.3457 1.28516 62.4004 1.28516C62.4915 1.28516 62.5371 1.39453 62.5371 1.61328L62.7832 9.10547C62.6009 9.88932 62.5098 11.4388 62.5098 13.7539V13.8633C62.5098 15.2669 62.5462 16.1784 62.6191 16.5977C62.4733 16.6523 62.4004 16.7708 62.4004 16.9531C62.4004 17.1901 62.446 17.3086 62.5371 17.3086H62.6191V17.1172H62.6738C62.765 17.1172 62.8561 17.5456 62.9473 18.4023L62.8926 18.4297H62.7832C62.6374 18.2656 62.5098 18.1836 62.4004 18.1836V18.2383V18.3477C62.4004 18.6211 62.6374 18.7578 63.1113 18.7578C65.8275 18.612 67.1855 18.6211 67.1855 18.7852V18.8125C67.1855 18.849 67.0488 18.9128 66.7754 19.0039L66.748 19.0586V19.0859C66.7845 19.1224 66.9486 19.1862 67.2402 19.2773C67.3132 19.3503 67.3496 19.4505 67.3496 19.5781C67.1673 20.5807 66.9486 21.082 66.6934 21.082L66.1738 21.1367L64.752 20.9727L63.877 21.0273C58.9915 21.1003 56.5488 21.0456 56.5488 20.8633C56.403 20.6628 56.3301 20.5169 56.3301 20.4258V20.3984L56.6035 19.4688L56.4941 19.2773C56.4941 19.0039 56.6855 18.8216 57.0684 18.7305L57.3965 18.6484L59.9668 18.5664C60.1855 18.5664 60.3132 18.4297 60.3496 18.1562V17.8828C60.3496 16.388 60.2949 15.1302 60.1855 14.1094C60.3496 8.71354 60.5228 6.01562 60.7051 6.01562L60.7324 5.66016C60.6595 4.11068 60.5319 3.33594 60.3496 3.33594C59.5475 3.86458 59.0098 4.38411 58.7363 4.89453L58.5723 4.97656C57.5332 4.59375 56.8678 4.22917 56.5762 3.88281C56.5397 3.88281 56.5033 3.75521 56.4668 3.5L56.5215 3.41797L56.7129 3.44531H56.9043C57.2689 3.44531 58.0527 2.81641 59.2559 1.55859C59.6204 1.23047 59.9121 0.856771 60.1309 0.4375C60.3132 0.328125 60.459 0.273438 60.5684 0.273438ZM60.8965 1.20312V1.23047L60.9238 1.28516H60.9785C61.1426 1.28516 61.2337 1.25781 61.252 1.20312V1.17578L61.1699 1.09375H61.0879C60.9603 1.11198 60.8965 1.14844 60.8965 1.20312ZM60.0762 1.20312L59.9668 1.28516L60.0488 1.36719H60.1309L60.2949 1.33984V1.25781L60.2129 1.20312H60.0762ZM62.1816 1.77734L62.127 1.85938V1.94141L62.1816 1.96875L62.2637 1.94141V1.85938L62.1816 1.77734ZM58.1348 4.04688V4.12891H58.1621C58.4355 4.12891 58.7181 3.95573 59.0098 3.60938C59.9941 2.69792 60.4863 2.14193 60.4863 1.94141H60.4043C59.3835 2.79818 58.627 3.5 58.1348 4.04688ZM61.4434 2.70703V2.73438L61.5801 2.84375L61.6621 2.81641V2.54297L61.6348 2.48828V2.46094C61.5072 2.47917 61.4434 2.5612 61.4434 2.70703ZM61.334 2.70703H61.2246L61.0332 3.17188V3.30859L61.1426 3.41797H61.3066C61.416 3.41797 61.4798 3.38151 61.498 3.30859V3.22656C61.498 3.17188 61.4069 3.10807 61.2246 3.03516H61.1699V2.92578C61.2793 2.83464 61.334 2.76172 61.334 2.70703ZM57.5879 3.66406V3.71875H57.6973C57.8978 3.71875 58.071 3.58203 58.2168 3.30859L58.1895 3.25391H58.1621C57.9069 3.36328 57.7155 3.5 57.5879 3.66406ZM61.6348 4.64844L61.7168 6.53516H61.7715C61.8809 6.22526 61.9355 5.77865 61.9355 5.19531V4.40234C61.9355 3.80078 61.8991 3.5 61.8262 3.5C61.7168 3.5 61.653 3.88281 61.6348 4.64844ZM61.6348 8.77734V9.07812L61.7168 9.59766H61.7715C61.9173 9.59766 61.9902 9.06901 61.9902 8.01172V7.84766L61.9082 7.76562C61.7259 7.83854 61.6348 8.17578 61.6348 8.77734ZM60.8418 13.7812H60.7598V13.918H60.8418V13.7812ZM61.7168 15.9688V15.9961V16.1875L61.8262 16.2695H61.8809L61.9355 16.2148V16.1328C61.8991 16.1328 61.8262 16.0781 61.7168 15.9688ZM61.9082 16.8164H61.8809C61.7715 17.1263 61.7168 17.5091 61.7168 17.9648V18.1836C61.7168 18.4023 61.8079 18.5482 61.9902 18.6211H62.0449C62.0996 18.6211 62.127 18.5664 62.127 18.457C62.1087 17.3633 62.0358 16.8164 61.9082 16.8164ZM60.7598 17.5L60.6504 17.6641L60.7051 17.7734H60.7324L60.8418 17.6641V17.6094L60.7598 17.5ZM61.2246 17.9648L61.1426 18.0469V18.2383L61.2246 18.3203H61.3066V18.0469L61.2246 17.9648ZM57.752 18.9219H57.5059V18.9766L57.6152 19.0859H57.6699L57.752 18.9766V18.9219ZM57.6973 19.5781L56.9316 19.6602V19.7695L57.0137 19.8789H57.0684C57.2507 19.8789 57.4603 19.7786 57.6973 19.5781ZM63.002 19.4688V19.5781L64.8613 19.2773H65.0254V19.168C64.6061 19.1133 63.9316 19.2135 63.002 19.4688ZM58.5723 19.7695L57.9707 19.8516V19.9609H58.1348H58.3809C58.8366 19.9609 59.0645 19.9245 59.0645 19.8516L58.9824 19.7695H58.5723ZM60.7324 19.7148L60.7051 19.7695V19.7969C60.778 19.8698 60.8509 19.9062 60.9238 19.9062V19.8516C60.8874 19.7604 60.8236 19.7148 60.7324 19.7148ZM60.2402 19.7695L60.1855 19.8516L60.2402 19.9062H60.3496L60.4316 19.8516V19.7695H60.2402ZM61.3066 19.9062L61.1699 19.9883V20.043C61.1699 20.1159 61.4525 20.1523 62.0176 20.1523H62.0449C62.1908 20.1523 62.2637 20.0977 62.2637 19.9883C62.1908 19.9336 62.1087 19.9062 62.0176 19.9062H61.3066ZM66.4473 20.1797V20.2891L66.5566 20.3984C66.7572 20.3984 66.8574 20.2526 66.8574 19.9609V19.7422L66.8027 19.6602H66.6934C66.5293 19.7878 66.4473 19.9609 66.4473 20.1797ZM62.7832 20.207C62.6738 20.3893 62.4824 20.4805 62.209 20.4805V20.5352C62.209 20.6081 62.4915 20.6536 63.0566 20.6719H63.1113C63.4395 20.4167 63.6673 20.1979 63.7949 20.0156C63.7767 19.9609 63.6947 19.9518 63.5488 19.9883C63.403 20.0065 63.1478 20.0794 62.7832 20.207ZM64.752 19.9609L64.1504 20.0156V20.0703C64.1504 20.125 64.4147 20.1523 64.9434 20.1523L64.9707 20.125V20.0977C64.9342 20.0065 64.8613 19.9609 64.752 19.9609ZM65.3809 19.9609L65.2988 20.0156L65.3262 20.125H65.3809L65.4629 20.0703V20.0156L65.3809 19.9609ZM64.0957 20.3438H63.9863V20.3984H64.0957V20.3438ZM65.9824 20.7539V20.7812C65.9824 20.8177 66.0645 20.8542 66.2285 20.8906C66.4108 20.8724 66.502 20.8268 66.502 20.7539V20.6992L66.3926 20.6172H66.2832C66.1191 20.6172 66.0189 20.6628 65.9824 20.7539ZM73.9941 3.74609H74.0488C76.8743 3.78255 78.2871 3.84635 78.2871 3.9375C78.2689 4.01042 78.1686 4.09245 77.9863 4.18359V4.32031L78.0957 4.62109L77.9863 5.00391V5.05859L78.0137 5.11328L77.9316 5.19531V5.22266L77.5488 4.94922H77.4668C77.4668 5.20443 77.1569 5.33203 76.5371 5.33203L75.8535 5.22266C73.429 5.40495 71.9707 5.54167 71.4785 5.63281C71.2962 5.8151 71.1139 6.64453 70.9316 8.12109C70.7493 8.66797 70.6582 9.15104 70.6582 9.57031H70.7402V9.59766C71.2324 9.57943 71.4785 9.48828 71.4785 9.32422C71.3145 9.26953 71.2051 9.1875 71.1504 9.07812V9.02344C71.1504 8.65885 71.8066 8.43099 73.1191 8.33984H73.3105C74.2767 8.33984 74.9694 8.64062 75.3887 9.24219C76.1543 9.71615 76.7376 10.1445 77.1387 10.5273L77.4668 10.8828V10.9102H77.4395L76.8379 10.5273H76.7559V10.5547C76.9199 10.974 77.0931 11.1927 77.2754 11.2109C77.2754 11.2656 77.3483 11.293 77.4941 11.293L77.7676 11.2656C77.8952 11.375 77.959 11.4753 77.959 11.5664C77.7767 11.5846 77.6855 11.6302 77.6855 11.7031C77.7038 11.8307 77.8861 11.9948 78.2324 12.1953C78.36 12.1953 78.4238 12.5508 78.4238 13.2617V14.2734C78.7155 14.9844 78.7064 15.6497 78.3965 16.2695L78.3418 16.2969H78.2598C78.1322 16.2422 78.041 16.0872 77.9863 15.832C78.0228 15.6315 78.0866 15.4948 78.1777 15.4219L78.0684 15.3398C77.8314 15.3398 77.6217 15.6497 77.4395 16.2695V16.3242C77.4395 16.3971 77.5397 16.4336 77.7402 16.4336V16.4609V16.543C77.321 17.4544 76.8105 18.1562 76.209 18.6484C76.0449 18.7214 75.8535 19.0404 75.6348 19.6055V19.6602C75.7988 19.6602 76.2637 19.2409 77.0293 18.4023C77.3574 17.8372 77.722 17.3086 78.123 16.8164L78.1777 16.8438V16.9258C77.7767 17.6367 77.3665 18.2474 76.9473 18.7578C75.6165 19.9609 74.4408 20.7174 73.4199 21.0273C71.4512 21.2279 70.166 21.3281 69.5645 21.3281C69.4004 21.2552 68.7715 21.1914 67.6777 21.1367H67.6504V21.082L67.9785 19.7695C67.9785 19.3138 68.2337 19.0859 68.7441 19.0859L68.8809 19.0586C69.2272 19.2591 69.4095 19.3594 69.4277 19.3594H69.5645C69.7467 19.3594 70.0475 19.332 70.4668 19.2773C70.8861 19.2227 71.1322 19.1953 71.2051 19.1953C71.7884 19.3958 72.8366 19.0221 74.3496 18.0742C75.4251 17.2174 76.0996 16.5339 76.373 16.0234C76.7923 15.4766 76.847 14.8568 76.5371 14.1641C76.5371 12.888 76.2637 12.013 75.7168 11.5391C75.5527 11.2292 75.0788 10.9284 74.2949 10.6367C73.8757 10.3815 73.4473 10.2539 73.0098 10.2539H72.9004C72.2806 10.2539 71.2142 10.5273 69.7012 11.0742L69.2363 11.1562L69.127 11.0469V10.9375C69.2181 10.9375 69.3001 10.3815 69.373 9.26953C69.5918 8.90495 69.7741 7.63802 69.9199 5.46875C69.9382 4.70312 70.0111 4.32031 70.1387 4.32031L70.1934 4.26562V4.21094L70.1387 3.9375H70.1934C70.2845 4.01042 70.4668 4.04688 70.7402 4.04688C71.0137 4.04688 72.0983 3.94661 73.9941 3.74609ZM77.0293 4.21094V4.26562C77.0658 4.35677 77.1751 4.40234 77.3574 4.40234H77.4668C77.6491 4.40234 77.7402 4.32031 77.7402 4.15625L77.6309 4.10156H77.2754C77.166 4.10156 77.084 4.13802 77.0293 4.21094ZM70.4668 4.73047L70.3848 4.86719V4.89453L70.4668 5.00391C72.6908 4.7487 73.8027 4.54818 73.8027 4.40234H73.748C71.5605 4.56641 70.4668 4.67578 70.4668 4.73047ZM75.3887 4.62109L74.5957 4.67578V4.78516L75.2246 4.8125C75.498 4.8125 75.6348 4.77604 75.6348 4.70312C75.5983 4.64844 75.5163 4.62109 75.3887 4.62109ZM70.5762 5.49609L70.5215 5.57812V6.37109L70.5762 6.42578C70.6309 6.29818 70.6582 6.11589 70.6582 5.87891V5.57812L70.6035 5.49609H70.5762ZM70.4668 7.30078H70.3848V7.35547H70.4668V7.30078ZM73.3105 9.07812V9.13281H73.3652H74.1035C74.7233 9.13281 75.0332 9.10547 75.0332 9.05078C75.0332 8.95964 74.6777 8.89583 73.9668 8.85938L73.3105 9.07812ZM72.1895 9.07812V9.13281L72.3262 9.24219H72.4629L72.8184 9.13281V9.05078L72.3262 8.99609C72.235 9.03255 72.1895 9.0599 72.1895 9.07812ZM73.502 9.70703C73.5566 9.87109 73.748 9.95312 74.0762 9.95312H74.2402C74.3314 9.95312 74.4225 9.89844 74.5137 9.78906V9.625C74.4954 9.57031 74.4043 9.54297 74.2402 9.54297H73.8301C73.666 9.54297 73.5566 9.59766 73.502 9.70703ZM71.0957 10.0352V10.0625L71.2051 10.1445C71.3509 10.1445 71.4603 10.0807 71.5332 9.95312V9.92578L71.3965 9.87109C71.196 9.90755 71.0957 9.96224 71.0957 10.0352ZM69.7012 10.0898L69.5645 10.2266V10.5273L69.6738 10.6094H69.9746V10.5273C69.9746 10.3268 69.9017 10.181 69.7559 10.0898H69.7012ZM74.8691 10.1992H74.8418V10.3086L74.9785 10.418H75.0332C75.0514 10.418 75.0605 10.3815 75.0605 10.3086C75.0605 10.2357 74.9967 10.1992 74.8691 10.1992ZM77.084 11.4297L76.8379 11.1562V11.2109C76.8379 11.3568 76.9017 11.4661 77.0293 11.5391H77.084V11.4297ZM76.5645 11.6211H76.5371V11.7031L76.6465 11.7852H76.6738V11.7578L76.5645 11.6211ZM76.8379 12.0859L76.7559 12.0039V12.0859L76.8105 12.168L76.8379 12.1133V12.0859ZM76.9199 12.4414H76.8652V12.5781L76.9473 12.6328H77.002V12.5234L76.9199 12.4414ZM77.1387 13.043L77.0293 13.125V13.1797H77.1934L77.248 13.125V13.043H77.1387ZM77.1387 13.5625H77.0293L77.002 13.8086V13.9727L77.1387 13.8359V13.5625ZM77.7949 16.2148L77.8496 16.1602H77.9863V16.2148L77.8496 16.2969H77.7949V16.2148ZM78.123 16.625L78.2324 16.5156L78.3418 16.543V16.5703L78.2324 16.707L78.123 16.6523V16.625ZM72.1348 19.7695V19.8242C72.6087 19.6602 73.1556 19.5234 73.7754 19.4141C74.1582 19.1953 74.3496 19.013 74.3496 18.8672L74.2676 18.7578L75.6895 18.1836L75.6621 18.0195C76.1178 17.4909 76.3457 17.1536 76.3457 17.0078L76.3184 16.9805H76.2637C76.0996 16.9805 75.2702 17.5911 73.7754 18.8125C73.4837 18.8125 72.9368 19.1315 72.1348 19.7695ZM70.6035 20.6445V20.7266L70.7129 20.7539C70.8587 20.7539 71.6426 20.7083 73.0645 20.6172C73.2285 20.6172 73.6934 20.3711 74.459 19.8789C74.696 19.6966 74.8145 19.5417 74.8145 19.4141V19.3867L74.7871 19.3047H74.6777C74.4043 19.3047 73.9759 19.5599 73.3926 20.0703C72.2988 20.3073 71.5332 20.4349 71.0957 20.4531C70.7676 20.526 70.6035 20.5898 70.6035 20.6445ZM70.7129 19.6875L70.3848 19.7695V19.8516H70.7129L70.877 19.7969V19.6875H70.7129ZM74.7871 19.9883L74.7324 20.0703V20.1523H74.7871L74.8691 20.0703V19.9883H74.7871ZM68.5527 20.4258L68.4707 20.4805C68.4889 20.5534 68.5527 20.5898 68.6621 20.5898C68.8444 20.5898 68.9447 20.5534 68.9629 20.4805L68.8809 20.4258H68.5527ZM69.1543 20.8086L69.2363 20.8633H69.291C69.4368 20.8633 69.6556 20.8086 69.9473 20.6992L70.248 20.7266C70.4303 20.6719 70.5215 20.5807 70.5215 20.4531V20.4258H70.3848C69.5645 20.5534 69.1543 20.681 69.1543 20.8086Z" fill="white"/>
</svg>
