<svg width="116" height="22" viewBox="0 0 116 22" fill="none" xmlns="http://www.w3.org/2000/svg">
<path d="M5.2207 0.273438C6.25977 0.382812 6.7793 0.53776 6.7793 0.738281C6.7793 0.920573 6.8431 1.01172 6.9707 1.01172L7.05273 1.09375L6.75195 1.33984V1.44922H6.83398C6.92513 1.33984 6.99805 1.28516 7.05273 1.28516C7.14388 1.28516 7.18945 1.39453 7.18945 1.61328L7.43555 9.10547C7.25326 9.88932 7.16211 11.4388 7.16211 13.7539V13.8633C7.16211 15.2669 7.19857 16.1784 7.27148 16.5977C7.12565 16.6523 7.05273 16.7708 7.05273 16.9531C7.05273 17.1901 7.09831 17.3086 7.18945 17.3086H7.27148V17.1172H7.32617C7.41732 17.1172 7.50846 17.5456 7.59961 18.4023L7.54492 18.4297H7.43555C7.28971 18.2656 7.16211 18.1836 7.05273 18.1836V18.2383V18.3477C7.05273 18.6211 7.28971 18.7578 7.76367 18.7578C10.4798 18.612 11.8379 18.6211 11.8379 18.7852V18.8125C11.8379 18.849 11.7012 18.9128 11.4277 19.0039L11.4004 19.0586V19.0859C11.4368 19.1224 11.6009 19.1862 11.8926 19.2773C11.9655 19.3503 12.002 19.4505 12.002 19.5781C11.8197 20.5807 11.6009 21.082 11.3457 21.082L10.8262 21.1367L9.4043 20.9727L8.5293 21.0273C3.64388 21.1003 1.20117 21.0456 1.20117 20.8633C1.05534 20.6628 0.982422 20.5169 0.982422 20.4258V20.3984L1.25586 19.4688L1.14648 19.2773C1.14648 19.0039 1.33789 18.8216 1.7207 18.7305L2.04883 18.6484L4.61914 18.5664C4.83789 18.5664 4.96549 18.4297 5.00195 18.1562V17.8828C5.00195 16.388 4.94727 15.1302 4.83789 14.1094C5.00195 8.71354 5.17513 6.01562 5.35742 6.01562L5.38477 5.66016C5.31185 4.11068 5.18424 3.33594 5.00195 3.33594C4.19987 3.86458 3.66211 4.38411 3.38867 4.89453L3.22461 4.97656C2.18555 4.59375 1.52018 4.22917 1.22852 3.88281C1.19206 3.88281 1.1556 3.75521 1.11914 3.5L1.17383 3.41797L1.36523 3.44531H1.55664C1.92122 3.44531 2.70508 2.81641 3.9082 1.55859C4.27279 1.23047 4.56445 0.856771 4.7832 0.4375C4.96549 0.328125 5.11133 0.273438 5.2207 0.273438ZM5.54883 1.20312V1.23047L5.57617 1.28516H5.63086C5.79492 1.28516 5.88607 1.25781 5.9043 1.20312V1.17578L5.82227 1.09375H5.74023C5.61263 1.11198 5.54883 1.14844 5.54883 1.20312ZM4.72852 1.20312L4.61914 1.28516L4.70117 1.36719H4.7832L4.94727 1.33984V1.25781L4.86523 1.20312H4.72852ZM6.83398 1.77734L6.7793 1.85938V1.94141L6.83398 1.96875L6.91602 1.94141V1.85938L6.83398 1.77734ZM2.78711 4.04688V4.12891H2.81445C3.08789 4.12891 3.37044 3.95573 3.66211 3.60938C4.64648 2.69792 5.13867 2.14193 5.13867 1.94141H5.05664C4.03581 2.79818 3.2793 3.5 2.78711 4.04688ZM6.0957 2.70703V2.73438L6.23242 2.84375L6.31445 2.81641V2.54297L6.28711 2.48828V2.46094C6.15951 2.47917 6.0957 2.5612 6.0957 2.70703ZM5.98633 2.70703H5.87695L5.68555 3.17188V3.30859L5.79492 3.41797H5.95898C6.06836 3.41797 6.13216 3.38151 6.15039 3.30859V3.22656C6.15039 3.17188 6.05924 3.10807 5.87695 3.03516H5.82227V2.92578C5.93164 2.83464 5.98633 2.76172 5.98633 2.70703ZM2.24023 3.66406V3.71875H2.34961C2.55013 3.71875 2.72331 3.58203 2.86914 3.30859L2.8418 3.25391H2.81445C2.55924 3.36328 2.36784 3.5 2.24023 3.66406ZM6.28711 4.64844L6.36914 6.53516H6.42383C6.5332 6.22526 6.58789 5.77865 6.58789 5.19531V4.40234C6.58789 3.80078 6.55143 3.5 6.47852 3.5C6.36914 3.5 6.30534 3.88281 6.28711 4.64844ZM6.28711 8.77734V9.07812L6.36914 9.59766H6.42383C6.56966 9.59766 6.64258 9.06901 6.64258 8.01172V7.84766L6.56055 7.76562C6.37826 7.83854 6.28711 8.17578 6.28711 8.77734ZM5.49414 13.7812H5.41211V13.918H5.49414V13.7812ZM6.36914 15.9688V15.9961V16.1875L6.47852 16.2695H6.5332L6.58789 16.2148V16.1328C6.55143 16.1328 6.47852 16.0781 6.36914 15.9688ZM6.56055 16.8164H6.5332C6.42383 17.1263 6.36914 17.5091 6.36914 17.9648V18.1836C6.36914 18.4023 6.46029 18.5482 6.64258 18.6211H6.69727C6.75195 18.6211 6.7793 18.5664 6.7793 18.457C6.76107 17.3633 6.68815 16.8164 6.56055 16.8164ZM5.41211 17.5L5.30273 17.6641L5.35742 17.7734H5.38477L5.49414 17.6641V17.6094L5.41211 17.5ZM5.87695 17.9648L5.79492 18.0469V18.2383L5.87695 18.3203H5.95898V18.0469L5.87695 17.9648ZM2.4043 18.9219H2.1582V18.9766L2.26758 19.0859H2.32227L2.4043 18.9766V18.9219ZM2.34961 19.5781L1.58398 19.6602V19.7695L1.66602 19.8789H1.7207C1.90299 19.8789 2.11263 19.7786 2.34961 19.5781ZM7.6543 19.4688V19.5781L9.51367 19.2773H9.67773V19.168C9.25846 19.1133 8.58398 19.2135 7.6543 19.4688ZM3.22461 19.7695L2.62305 19.8516V19.9609H2.78711H3.0332C3.48893 19.9609 3.7168 19.9245 3.7168 19.8516L3.63477 19.7695H3.22461ZM5.38477 19.7148L5.35742 19.7695V19.7969C5.43034 19.8698 5.50326 19.9062 5.57617 19.9062V19.8516C5.53971 19.7604 5.47591 19.7148 5.38477 19.7148ZM4.89258 19.7695L4.83789 19.8516L4.89258 19.9062H5.00195L5.08398 19.8516V19.7695H4.89258ZM5.95898 19.9062L5.82227 19.9883V20.043C5.82227 20.1159 6.10482 20.1523 6.66992 20.1523H6.69727C6.8431 20.1523 6.91602 20.0977 6.91602 19.9883C6.8431 19.9336 6.76107 19.9062 6.66992 19.9062H5.95898ZM11.0996 20.1797V20.2891L11.209 20.3984C11.4095 20.3984 11.5098 20.2526 11.5098 19.9609V19.7422L11.4551 19.6602H11.3457C11.1816 19.7878 11.0996 19.9609 11.0996 20.1797ZM7.43555 20.207C7.32617 20.3893 7.13477 20.4805 6.86133 20.4805V20.5352C6.86133 20.6081 7.14388 20.6536 7.70898 20.6719H7.76367C8.0918 20.4167 8.31966 20.1979 8.44727 20.0156C8.42904 19.9609 8.34701 19.9518 8.20117 19.9883C8.05534 20.0065 7.80013 20.0794 7.43555 20.207ZM9.4043 19.9609L8.80273 20.0156V20.0703C8.80273 20.125 9.06706 20.1523 9.5957 20.1523L9.62305 20.125V20.0977C9.58659 20.0065 9.51367 19.9609 9.4043 19.9609ZM10.0332 19.9609L9.95117 20.0156L9.97852 20.125H10.0332L10.1152 20.0703V20.0156L10.0332 19.9609ZM8.74805 20.3438H8.63867V20.3984H8.74805V20.3438ZM10.6348 20.7539V20.7812C10.6348 20.8177 10.7168 20.8542 10.8809 20.8906C11.0632 20.8724 11.1543 20.8268 11.1543 20.7539V20.6992L11.0449 20.6172H10.9355C10.7715 20.6172 10.6712 20.6628 10.6348 20.7539ZM20.123 2.32422C21.3809 2.32422 22.5566 2.73438 23.6504 3.55469L25.1543 5.79688C25.446 6.17969 25.7103 6.69922 25.9473 7.35547C26.2389 7.79297 26.5033 8.65885 26.7402 9.95312L26.7949 10.6367C26.7949 11.056 26.7129 11.5299 26.5488 12.0586V12.25C26.5488 12.4688 26.6309 12.5781 26.7949 12.5781L26.7402 13.6172V14.8477C26.7402 15.3945 26.4759 16.4792 25.9473 18.1016C25.8014 18.4297 25.5462 18.6849 25.1816 18.8672C24.8535 19.1953 23.8236 19.7878 22.0918 20.6445C21.3444 21.1732 20.6243 21.4375 19.9316 21.4375H19.9043C17.9902 21.2734 17.0332 21.1185 17.0332 20.9727C16.4863 20.7721 15.8665 20.2799 15.1738 19.4961V19.4141L15.2559 19.332H15.3379L15.4473 19.4141H15.5293V19.332C15.4928 19.1315 15.4017 19.0312 15.2559 19.0312H15.0918L15.0645 19.168C14.8275 19.0951 14.5449 18.6758 14.2168 17.9102C14.0892 17.7826 13.9889 17.582 13.916 17.3086C13.3691 16.707 12.9772 14.7383 12.7402 11.4023V11.293C12.8678 9.52474 12.9863 8.64062 13.0957 8.64062C13.1139 7.94792 13.3874 6.9362 13.916 5.60547C14.153 5.36849 14.3717 5.00391 14.5723 4.51172C15.8665 3.05339 17.7168 2.32422 20.123 2.32422ZM20.2051 2.59766H19.6309V2.65234C19.6309 2.74349 19.8678 2.83464 20.3418 2.92578H20.752V2.78906C20.679 2.66146 20.4967 2.59766 20.2051 2.59766ZM21.4629 2.78906L21.4082 2.87109L21.791 2.95312H21.9004L21.9824 2.92578C21.9824 2.83464 21.8366 2.78906 21.5449 2.78906H21.4629ZM22.584 3.17188H22.5566V3.19922C23.0306 3.80078 23.4408 4.13802 23.7871 4.21094H23.8145V4.15625C23.3223 3.5 22.9121 3.17188 22.584 3.17188ZM22.0645 3.39062L21.9824 3.44531C22.11 3.6276 22.2467 3.71875 22.3926 3.71875H22.584V3.66406C22.584 3.55469 22.4382 3.46354 22.1465 3.39062H22.0645ZM20.8066 3.41797H20.4238V3.44531C20.6243 3.59115 20.9798 3.69141 21.4902 3.74609L21.5449 3.71875V3.66406C21.5449 3.59115 21.2988 3.50911 20.8066 3.41797ZM14.5449 10.6367C14.5814 11.0924 14.6361 11.3841 14.709 11.5117L14.5996 11.9219V12.0859L15.2012 15.2031C15.6022 16.3698 16.1217 17.2995 16.7598 17.9922C17.7624 18.6484 18.5462 18.9766 19.1113 18.9766C19.9134 18.9766 20.9707 18.7122 22.2832 18.1836C23.9056 17.1992 24.7168 16.3516 24.7168 15.6406C25.0085 14.6562 25.2454 13.4349 25.4277 11.9766V10.582C25.4277 9.23307 25.0723 8.06641 24.3613 7.08203C24.3613 6.91797 23.8236 6.35286 22.748 5.38672C22.0371 4.51172 21.4082 4.07422 20.8613 4.07422L19.6855 3.80078H19.4395C18.4004 3.80078 17.5983 4.23828 17.0332 5.11328C16.6504 5.42318 16.304 5.82422 15.9941 6.31641C15.8118 6.31641 15.429 6.82682 14.8457 7.84766C14.6452 8.50391 14.5449 9.43359 14.5449 10.6367ZM15.5293 4.70312V4.8125C15.6204 4.8125 15.7754 4.65755 15.9941 4.34766V4.21094H15.9668C15.8574 4.21094 15.7116 4.375 15.5293 4.70312ZM14.9277 5.14062H15.0098L15.1191 5.03125V4.97656C14.9915 4.97656 14.9277 5.03125 14.9277 5.14062ZM15.666 5.93359H15.7754C15.9395 5.84245 16.0397 5.74219 16.0762 5.63281V5.55078H15.8574C15.7298 5.6237 15.666 5.7513 15.666 5.93359ZM24.7441 5.87891C24.7441 6.22526 24.9629 6.84505 25.4004 7.73828C25.4733 7.75651 25.6738 8.17578 26.002 8.99609C26.002 9.08724 26.0293 9.13281 26.084 9.13281L26.1934 9.05078V8.94141C26.084 8.48568 25.7376 7.60156 25.1543 6.28906C24.972 6.01562 24.8353 5.87891 24.7441 5.87891ZM26.1387 9.76172H26.084V9.81641L26.2754 10.3086C26.2754 10.3997 26.1934 10.6003 26.0293 10.9102V10.9648C26.0293 11.1107 26.0931 11.2201 26.2207 11.293H26.3027C26.3574 11.293 26.4303 11.0286 26.5215 10.5C26.3757 10.1172 26.248 9.87109 26.1387 9.76172ZM13.3145 9.84375L13.2051 9.95312V10.0352L13.3145 10.1172L13.4238 10.0625V9.92578L13.3145 9.84375ZM13.3145 10.6094H13.2324L13.1777 11.0469V11.3203C13.2689 11.3203 13.3145 11.1107 13.3145 10.6914V10.6094ZM14.0254 11.7578H13.916L13.8887 12.0039C13.8887 12.8789 14.1257 14.0547 14.5996 15.5312L15.0098 16.0508H15.0645V16.0234C14.9186 15.5859 14.6908 14.5286 14.3809 12.8516C14.2715 12.7422 14.153 12.3776 14.0254 11.7578ZM13.7793 15.5859H13.7246V15.6953H13.7793V15.5859ZM25.2637 17.8555V17.9102H25.3457C25.5645 17.9102 25.8105 17.4271 26.084 16.4609V16.4336L26.0293 16.3242C25.9017 16.3242 25.6465 16.8346 25.2637 17.8555ZM14.0527 17.2539V17.3359C14.2168 17.3906 14.4538 17.7005 14.7637 18.2656L15.0098 18.4297H15.1738V18.4023C14.8275 17.6367 14.5449 17.1901 14.3262 17.0625H14.2988C14.2077 17.0807 14.1257 17.1445 14.0527 17.2539ZM17.6074 19.1406L16.2402 18.375V18.4297C16.7871 19.25 17.4707 19.6602 18.291 19.6602C18.5098 19.6419 18.6191 19.6055 18.6191 19.5508C18.5827 19.4961 18.2454 19.3594 17.6074 19.1406ZM15.3379 18.4844H15.1738L15.1191 18.5938C15.1374 18.6667 15.2103 18.7031 15.3379 18.7031H15.3926L15.4473 18.6484V18.5938L15.3379 18.4844ZM18.6465 19.7148L18.6191 19.7422C18.6191 19.8516 18.7832 19.9336 19.1113 19.9883H19.3301C19.5306 19.9518 19.6309 19.8607 19.6309 19.7148H19.9043C20.2871 19.7148 21.0801 19.4961 22.2832 19.0586V19.0312L22.2285 18.9766H22.0098L20.8613 19.2773C20.3691 19.2773 19.6309 19.4232 18.6465 19.7148ZM19.9316 20.3711V20.3984L19.9863 20.4531H20.4238C21.2988 20.2708 21.7363 20.125 21.7363 20.0156C22.0462 19.9427 22.2467 19.8242 22.3379 19.6602V19.5781H22.2832C21.2259 19.8151 20.4421 20.0794 19.9316 20.3711ZM15.7754 19.7422H15.748C15.748 19.9062 15.9121 20.043 16.2402 20.1523H16.2676C16.0671 19.8789 15.903 19.7422 15.7754 19.7422ZM17.9902 20.2344V20.3711C18.6465 20.681 19.0566 20.8359 19.2207 20.8359H19.4395V20.6719C18.8743 20.3802 18.3913 20.2344 17.9902 20.2344ZM34.8887 16.5156L34.8613 16.6797C34.8249 16.7708 34.1139 16.7799 32.7285 16.707H32.7012C32.5189 16.707 32.4733 15.8867 32.5645 14.2461C32.054 14.319 31.6348 14.3555 31.3066 14.3555V14.2734C31.3066 14.1823 31.735 14.0638 32.5918 13.918V13.8906C32.5736 13.8359 32.5645 13.7266 32.5645 13.5625C31.5801 13.7448 31.0879 13.9818 31.0879 14.2734L30.8965 14.3828C30.2585 14.3828 29.9395 13.7448 29.9395 12.4688C29.9395 12.1224 30.6504 11.8672 32.0723 11.7031C32.0723 11.6849 32.1725 11.6576 32.373 11.6211L32.4551 11.6484C32.4186 10.737 32.4277 10.1263 32.4824 9.81641H32.5371C32.6829 9.85286 32.7559 10.4818 32.7559 11.7031L32.9199 11.7305H33.0566C33.0931 10.3815 32.929 9.67969 32.5645 9.625L32.4824 9.40625C32.5553 8.78646 33.2298 8.56771 34.5059 8.75C34.8704 8.78646 35.0345 9.52474 34.998 10.9648C35.0163 10.9648 35.0254 11.056 35.0254 11.2383L34.9434 11.4844L37.6504 11.0742H37.7871C37.9147 11.0742 38.015 11.7943 38.0879 13.2344H38.1152C38.1152 13.4167 37.1855 13.5716 35.3262 13.6992L34.834 13.7812L34.8887 16.5156ZM35.1621 13.2617V13.3164H35.1895C36.8301 13.2617 37.6504 13.1797 37.6504 13.0703V13.043C37.6322 13.0065 37.5684 12.9518 37.459 12.8789H37.4316C36.8483 12.8789 36.0918 13.0065 35.1621 13.2617ZM32.9199 16.2695H32.9473C32.9837 16.2695 33.0475 16.224 33.1387 16.1328V16.1055C33.2116 15.5768 33.1842 14.9206 33.0566 14.1367C33.0384 14.1549 33.0111 14.1641 32.9746 14.1641C32.847 15.5312 32.8288 16.2331 32.9199 16.2695ZM33.7676 14.7383L33.6855 15.3398C33.6309 15.9232 33.6673 16.2513 33.7949 16.3242H33.877L33.9316 16.2148C33.9134 15.2305 33.8587 14.7383 33.7676 14.7383ZM36.0098 12.4141H36.6113C37.1947 12.3776 37.5137 12.3047 37.5684 12.1953V12.1133L37.4316 12.0859C36.4837 12.2135 36.0098 12.3229 36.0098 12.4141ZM34.5332 9.29688L34.4512 9.16016L34.123 9.13281L34.041 9.1875V9.24219C34.0228 9.29688 34.123 9.35156 34.3418 9.40625L34.4785 9.43359L34.5332 9.35156V9.29688ZM30.5137 12.3594L30.4043 12.4688V12.7969L30.4863 12.8789H30.5137C30.5684 12.8789 30.6048 12.7604 30.623 12.5234V12.4141L30.5684 12.3594H30.5137ZM34.3418 14.5195L34.3145 14.8477C34.278 15.0482 34.3145 15.1576 34.4238 15.1758L34.4512 15.2031V15.1211C34.4694 14.7201 34.4329 14.5195 34.3418 14.5195ZM35.7363 11.8672H36.0371C36.2194 11.8672 36.3288 11.8216 36.3652 11.7305V11.7031H36.2832C35.9186 11.7578 35.7363 11.8125 35.7363 11.8672ZM37.1035 11.5391L36.9121 11.5664V11.6211H37.1582L37.3223 11.5938V11.5391H37.1035ZM34.5059 15.9414V15.7227H34.4512L34.4238 15.9688V16.1602H34.5059V15.9414ZM34.4512 10.1172L34.3418 10.0078H34.3145L34.2871 10.1172L34.3418 10.2266H34.4512V10.1172ZM31.3066 12.3594L31.2246 12.4688V12.4961H31.3613L31.4434 12.4141V12.3594H31.3066ZM33.7949 9.16016L33.7676 9.07812H33.6855L33.6582 9.13281L33.7402 9.24219H33.7949V9.16016ZM30.4863 13.0977L30.4043 13.1797V13.2617H30.4863L30.541 13.1797V13.0977H30.4863ZM33.0566 12.3047L32.9746 12.3594V12.4688H33.0566V12.3047ZM33.7949 14.2461V14.1641H33.7676L33.7402 14.2734L33.7949 14.2461ZM35.4902 12.4688H35.4355V12.5234H35.5723L35.4902 12.4688ZM34.2598 12.1133V12.1953H34.2871C34.2689 12.1771 34.2598 12.1406 34.2598 12.0859V12.1133ZM33.0293 13.7812L33.002 13.7539V13.8086C33.002 13.8268 32.9928 13.8451 32.9746 13.8633H33.0293V13.7812ZM34.3418 13.3711H34.3145L34.3418 13.3984V13.3711ZM43.9668 0.273438C45.0059 0.382812 45.5254 0.53776 45.5254 0.738281C45.5254 0.920573 45.5892 1.01172 45.7168 1.01172L45.7988 1.09375L45.498 1.33984V1.44922H45.5801C45.6712 1.33984 45.7441 1.28516 45.7988 1.28516C45.89 1.28516 45.9355 1.39453 45.9355 1.61328L46.1816 9.10547C45.9993 9.88932 45.9082 11.4388 45.9082 13.7539V13.8633C45.9082 15.2669 45.9447 16.1784 46.0176 16.5977C45.8717 16.6523 45.7988 16.7708 45.7988 16.9531C45.7988 17.1901 45.8444 17.3086 45.9355 17.3086H46.0176V17.1172H46.0723C46.1634 17.1172 46.2546 17.5456 46.3457 18.4023L46.291 18.4297H46.1816C46.0358 18.2656 45.9082 18.1836 45.7988 18.1836V18.2383V18.3477C45.7988 18.6211 46.0358 18.7578 46.5098 18.7578C49.2259 18.612 50.584 18.6211 50.584 18.7852V18.8125C50.584 18.849 50.4473 18.9128 50.1738 19.0039L50.1465 19.0586V19.0859C50.1829 19.1224 50.347 19.1862 50.6387 19.2773C50.7116 19.3503 50.748 19.4505 50.748 19.5781C50.5658 20.5807 50.347 21.082 50.0918 21.082L49.5723 21.1367L48.1504 20.9727L47.2754 21.0273C42.39 21.1003 39.9473 21.0456 39.9473 20.8633C39.8014 20.6628 39.7285 20.5169 39.7285 20.4258V20.3984L40.002 19.4688L39.8926 19.2773C39.8926 19.0039 40.084 18.8216 40.4668 18.7305L40.7949 18.6484L43.3652 18.5664C43.584 18.5664 43.7116 18.4297 43.748 18.1562V17.8828C43.748 16.388 43.6934 15.1302 43.584 14.1094C43.748 8.71354 43.9212 6.01562 44.1035 6.01562L44.1309 5.66016C44.0579 4.11068 43.9303 3.33594 43.748 3.33594C42.946 3.86458 42.4082 4.38411 42.1348 4.89453L41.9707 4.97656C40.9316 4.59375 40.2663 4.22917 39.9746 3.88281C39.9382 3.88281 39.9017 3.75521 39.8652 3.5L39.9199 3.41797L40.1113 3.44531H40.3027C40.6673 3.44531 41.4512 2.81641 42.6543 1.55859C43.0189 1.23047 43.3105 0.856771 43.5293 0.4375C43.7116 0.328125 43.8574 0.273438 43.9668 0.273438ZM44.2949 1.20312V1.23047L44.3223 1.28516H44.377C44.541 1.28516 44.6322 1.25781 44.6504 1.20312V1.17578L44.5684 1.09375H44.4863C44.3587 1.11198 44.2949 1.14844 44.2949 1.20312ZM43.4746 1.20312L43.3652 1.28516L43.4473 1.36719H43.5293L43.6934 1.33984V1.25781L43.6113 1.20312H43.4746ZM45.5801 1.77734L45.5254 1.85938V1.94141L45.5801 1.96875L45.6621 1.94141V1.85938L45.5801 1.77734ZM41.5332 4.04688V4.12891H41.5605C41.834 4.12891 42.1165 3.95573 42.4082 3.60938C43.3926 2.69792 43.8848 2.14193 43.8848 1.94141H43.8027C42.7819 2.79818 42.0254 3.5 41.5332 4.04688ZM44.8418 2.70703V2.73438L44.9785 2.84375L45.0605 2.81641V2.54297L45.0332 2.48828V2.46094C44.9056 2.47917 44.8418 2.5612 44.8418 2.70703ZM44.7324 2.70703H44.623L44.4316 3.17188V3.30859L44.541 3.41797H44.7051C44.8145 3.41797 44.8783 3.38151 44.8965 3.30859V3.22656C44.8965 3.17188 44.8053 3.10807 44.623 3.03516H44.5684V2.92578C44.6777 2.83464 44.7324 2.76172 44.7324 2.70703ZM40.9863 3.66406V3.71875H41.0957C41.2962 3.71875 41.4694 3.58203 41.6152 3.30859L41.5879 3.25391H41.5605C41.3053 3.36328 41.1139 3.5 40.9863 3.66406ZM45.0332 4.64844L45.1152 6.53516H45.1699C45.2793 6.22526 45.334 5.77865 45.334 5.19531V4.40234C45.334 3.80078 45.2975 3.5 45.2246 3.5C45.1152 3.5 45.0514 3.88281 45.0332 4.64844ZM45.0332 8.77734V9.07812L45.1152 9.59766H45.1699C45.3158 9.59766 45.3887 9.06901 45.3887 8.01172V7.84766L45.3066 7.76562C45.1243 7.83854 45.0332 8.17578 45.0332 8.77734ZM44.2402 13.7812H44.1582V13.918H44.2402V13.7812ZM45.1152 15.9688V15.9961V16.1875L45.2246 16.2695H45.2793L45.334 16.2148V16.1328C45.2975 16.1328 45.2246 16.0781 45.1152 15.9688ZM45.3066 16.8164H45.2793C45.1699 17.1263 45.1152 17.5091 45.1152 17.9648V18.1836C45.1152 18.4023 45.2064 18.5482 45.3887 18.6211H45.4434C45.498 18.6211 45.5254 18.5664 45.5254 18.457C45.5072 17.3633 45.4342 16.8164 45.3066 16.8164ZM44.1582 17.5L44.0488 17.6641L44.1035 17.7734H44.1309L44.2402 17.6641V17.6094L44.1582 17.5ZM44.623 17.9648L44.541 18.0469V18.2383L44.623 18.3203H44.7051V18.0469L44.623 17.9648ZM41.1504 18.9219H40.9043V18.9766L41.0137 19.0859H41.0684L41.1504 18.9766V18.9219ZM41.0957 19.5781L40.3301 19.6602V19.7695L40.4121 19.8789H40.4668C40.6491 19.8789 40.8587 19.7786 41.0957 19.5781ZM46.4004 19.4688V19.5781L48.2598 19.2773H48.4238V19.168C48.0046 19.1133 47.3301 19.2135 46.4004 19.4688ZM41.9707 19.7695L41.3691 19.8516V19.9609H41.5332H41.7793C42.235 19.9609 42.4629 19.9245 42.4629 19.8516L42.3809 19.7695H41.9707ZM44.1309 19.7148L44.1035 19.7695V19.7969C44.1764 19.8698 44.2493 19.9062 44.3223 19.9062V19.8516C44.2858 19.7604 44.222 19.7148 44.1309 19.7148ZM43.6387 19.7695L43.584 19.8516L43.6387 19.9062H43.748L43.8301 19.8516V19.7695H43.6387ZM44.7051 19.9062L44.5684 19.9883V20.043C44.5684 20.1159 44.8509 20.1523 45.416 20.1523H45.4434C45.5892 20.1523 45.6621 20.0977 45.6621 19.9883C45.5892 19.9336 45.5072 19.9062 45.416 19.9062H44.7051ZM49.8457 20.1797V20.2891L49.9551 20.3984C50.1556 20.3984 50.2559 20.2526 50.2559 19.9609V19.7422L50.2012 19.6602H50.0918C49.9277 19.7878 49.8457 19.9609 49.8457 20.1797ZM46.1816 20.207C46.0723 20.3893 45.8809 20.4805 45.6074 20.4805V20.5352C45.6074 20.6081 45.89 20.6536 46.4551 20.6719H46.5098C46.8379 20.4167 47.0658 20.1979 47.1934 20.0156C47.1751 19.9609 47.0931 19.9518 46.9473 19.9883C46.8014 20.0065 46.5462 20.0794 46.1816 20.207ZM48.1504 19.9609L47.5488 20.0156V20.0703C47.5488 20.125 47.8132 20.1523 48.3418 20.1523L48.3691 20.125V20.0977C48.3327 20.0065 48.2598 19.9609 48.1504 19.9609ZM48.7793 19.9609L48.6973 20.0156L48.7246 20.125H48.7793L48.8613 20.0703V20.0156L48.7793 19.9609ZM47.4941 20.3438H47.3848V20.3984H47.4941V20.3438ZM49.3809 20.7539V20.7812C49.3809 20.8177 49.4629 20.8542 49.627 20.8906C49.8092 20.8724 49.9004 20.8268 49.9004 20.7539V20.6992L49.791 20.6172H49.6816C49.5176 20.6172 49.4173 20.6628 49.3809 20.7539ZM58.8691 2.32422C60.127 2.32422 61.3027 2.73438 62.3965 3.55469L63.9004 5.79688C64.1921 6.17969 64.4564 6.69922 64.6934 7.35547C64.985 7.79297 65.2493 8.65885 65.4863 9.95312L65.541 10.6367C65.541 11.056 65.459 11.5299 65.2949 12.0586V12.25C65.2949 12.4688 65.377 12.5781 65.541 12.5781L65.4863 13.6172V14.8477C65.4863 15.3945 65.222 16.4792 64.6934 18.1016C64.5475 18.4297 64.2923 18.6849 63.9277 18.8672C63.5996 19.1953 62.5697 19.7878 60.8379 20.6445C60.0905 21.1732 59.3704 21.4375 58.6777 21.4375H58.6504C56.7363 21.2734 55.7793 21.1185 55.7793 20.9727C55.2324 20.7721 54.6126 20.2799 53.9199 19.4961V19.4141L54.002 19.332H54.084L54.1934 19.4141H54.2754V19.332C54.2389 19.1315 54.1478 19.0312 54.002 19.0312H53.8379L53.8105 19.168C53.5736 19.0951 53.291 18.6758 52.9629 17.9102C52.8353 17.7826 52.735 17.582 52.6621 17.3086C52.1152 16.707 51.7233 14.7383 51.4863 11.4023V11.293C51.6139 9.52474 51.7324 8.64062 51.8418 8.64062C51.86 7.94792 52.1335 6.9362 52.6621 5.60547C52.8991 5.36849 53.1178 5.00391 53.3184 4.51172C54.6126 3.05339 56.4629 2.32422 58.8691 2.32422ZM58.9512 2.59766H58.377V2.65234C58.377 2.74349 58.6139 2.83464 59.0879 2.92578H59.498V2.78906C59.4251 2.66146 59.2428 2.59766 58.9512 2.59766ZM60.209 2.78906L60.1543 2.87109L60.5371 2.95312H60.6465L60.7285 2.92578C60.7285 2.83464 60.5827 2.78906 60.291 2.78906H60.209ZM61.3301 3.17188H61.3027V3.19922C61.7767 3.80078 62.1868 4.13802 62.5332 4.21094H62.5605V4.15625C62.0684 3.5 61.6582 3.17188 61.3301 3.17188ZM60.8105 3.39062L60.7285 3.44531C60.8561 3.6276 60.9928 3.71875 61.1387 3.71875H61.3301V3.66406C61.3301 3.55469 61.1842 3.46354 60.8926 3.39062H60.8105ZM59.5527 3.41797H59.1699V3.44531C59.3704 3.59115 59.7259 3.69141 60.2363 3.74609L60.291 3.71875V3.66406C60.291 3.59115 60.0449 3.50911 59.5527 3.41797ZM53.291 10.6367C53.3275 11.0924 53.3822 11.3841 53.4551 11.5117L53.3457 11.9219V12.0859L53.9473 15.2031C54.3483 16.3698 54.8678 17.2995 55.5059 17.9922C56.5085 18.6484 57.2923 18.9766 57.8574 18.9766C58.6595 18.9766 59.7168 18.7122 61.0293 18.1836C62.6517 17.1992 63.4629 16.3516 63.4629 15.6406C63.7546 14.6562 63.9915 13.4349 64.1738 11.9766V10.582C64.1738 9.23307 63.8184 8.06641 63.1074 7.08203C63.1074 6.91797 62.5697 6.35286 61.4941 5.38672C60.7832 4.51172 60.1543 4.07422 59.6074 4.07422L58.4316 3.80078H58.1855C57.1465 3.80078 56.3444 4.23828 55.7793 5.11328C55.3965 5.42318 55.0501 5.82422 54.7402 6.31641C54.5579 6.31641 54.1751 6.82682 53.5918 7.84766C53.3913 8.50391 53.291 9.43359 53.291 10.6367ZM54.2754 4.70312V4.8125C54.3665 4.8125 54.5215 4.65755 54.7402 4.34766V4.21094H54.7129C54.6035 4.21094 54.4577 4.375 54.2754 4.70312ZM53.6738 5.14062H53.7559L53.8652 5.03125V4.97656C53.7376 4.97656 53.6738 5.03125 53.6738 5.14062ZM54.4121 5.93359H54.5215C54.6855 5.84245 54.7858 5.74219 54.8223 5.63281V5.55078H54.6035C54.4759 5.6237 54.4121 5.7513 54.4121 5.93359ZM63.4902 5.87891C63.4902 6.22526 63.709 6.84505 64.1465 7.73828C64.2194 7.75651 64.4199 8.17578 64.748 8.99609C64.748 9.08724 64.7754 9.13281 64.8301 9.13281L64.9395 9.05078V8.94141C64.8301 8.48568 64.4837 7.60156 63.9004 6.28906C63.7181 6.01562 63.5814 5.87891 63.4902 5.87891ZM64.8848 9.76172H64.8301V9.81641L65.0215 10.3086C65.0215 10.3997 64.9395 10.6003 64.7754 10.9102V10.9648C64.7754 11.1107 64.8392 11.2201 64.9668 11.293H65.0488C65.1035 11.293 65.1764 11.0286 65.2676 10.5C65.1217 10.1172 64.9941 9.87109 64.8848 9.76172ZM52.0605 9.84375L51.9512 9.95312V10.0352L52.0605 10.1172L52.1699 10.0625V9.92578L52.0605 9.84375ZM52.0605 10.6094H51.9785L51.9238 11.0469V11.3203C52.015 11.3203 52.0605 11.1107 52.0605 10.6914V10.6094ZM52.7715 11.7578H52.6621L52.6348 12.0039C52.6348 12.8789 52.8717 14.0547 53.3457 15.5312L53.7559 16.0508H53.8105V16.0234C53.6647 15.5859 53.4368 14.5286 53.127 12.8516C53.0176 12.7422 52.8991 12.3776 52.7715 11.7578ZM52.5254 15.5859H52.4707V15.6953H52.5254V15.5859ZM64.0098 17.8555V17.9102H64.0918C64.3105 17.9102 64.5566 17.4271 64.8301 16.4609V16.4336L64.7754 16.3242C64.6478 16.3242 64.3926 16.8346 64.0098 17.8555ZM52.7988 17.2539V17.3359C52.9629 17.3906 53.1999 17.7005 53.5098 18.2656L53.7559 18.4297H53.9199V18.4023C53.5736 17.6367 53.291 17.1901 53.0723 17.0625H53.0449C52.9538 17.0807 52.8717 17.1445 52.7988 17.2539ZM56.3535 19.1406L54.9863 18.375V18.4297C55.5332 19.25 56.2168 19.6602 57.0371 19.6602C57.2559 19.6419 57.3652 19.6055 57.3652 19.5508C57.3288 19.4961 56.9915 19.3594 56.3535 19.1406ZM54.084 18.4844H53.9199L53.8652 18.5938C53.8835 18.6667 53.9564 18.7031 54.084 18.7031H54.1387L54.1934 18.6484V18.5938L54.084 18.4844ZM57.3926 19.7148L57.3652 19.7422C57.3652 19.8516 57.5293 19.9336 57.8574 19.9883H58.0762C58.2767 19.9518 58.377 19.8607 58.377 19.7148H58.6504C59.0332 19.7148 59.8262 19.4961 61.0293 19.0586V19.0312L60.9746 18.9766H60.7559L59.6074 19.2773C59.1152 19.2773 58.377 19.4232 57.3926 19.7148ZM58.6777 20.3711V20.3984L58.7324 20.4531H59.1699C60.0449 20.2708 60.4824 20.125 60.4824 20.0156C60.7923 19.9427 60.9928 19.8242 61.084 19.6602V19.5781H61.0293C59.972 19.8151 59.1882 20.0794 58.6777 20.3711ZM54.5215 19.7422H54.4941C54.4941 19.9062 54.6582 20.043 54.9863 20.1523H55.0137C54.8132 19.8789 54.6491 19.7422 54.5215 19.7422ZM56.7363 20.2344V20.3711C57.3926 20.681 57.8027 20.8359 57.9668 20.8359H58.1855V20.6719C57.6204 20.3802 57.1374 20.2344 56.7363 20.2344ZM76.4238 14.9844L76.5332 15.0117C76.6426 15.0482 76.6335 15.7773 76.5059 17.1992H76.5332C76.515 17.3815 75.5762 17.3815 73.7168 17.1992C71.6387 17.3268 70.2806 17.3359 69.6426 17.2266V17.1992C69.6608 17.0352 70.4538 16.9714 72.0215 17.0078C72.6595 16.9896 72.9967 16.9349 73.0332 16.8438L73.0605 16.8164L72.7871 16.7617C70.6361 16.5794 69.5241 16.707 69.4512 17.1445L69.2324 17.1992C68.6126 17.1263 68.403 16.4427 68.6035 15.1484C68.6582 14.8203 69.3965 14.6836 70.8184 14.7383C70.8184 14.7018 70.9186 14.7018 71.1191 14.7383L71.6387 14.9297L71.8848 14.957L76.4238 14.9844ZM75.7949 15.3398L75.6309 15.3672L75.6035 15.4492L75.8496 15.4766H76.0137L76.041 15.3945L75.7949 15.3398ZM74.373 15.4766L74.7285 15.5312C74.8926 15.5677 75.002 15.5404 75.0566 15.4492V15.4219H74.9746C74.5918 15.4036 74.3913 15.4219 74.373 15.4766ZM72.8965 15.4766V15.5586H72.9512C73.1152 15.5951 73.2155 15.5677 73.252 15.4766V15.4492H73.1426C73.015 15.431 72.9329 15.4401 72.8965 15.4766ZM74.5918 16.0781L75.166 16.1875C75.7676 16.2422 76.1048 16.2057 76.1777 16.0781V16.0234L76.041 15.9688C75.1113 15.9505 74.6283 15.987 74.5918 16.0781ZM71.584 15.5312L71.5566 15.6406H71.6113C72.0124 15.6953 72.3132 15.6589 72.5137 15.5312V15.5039L72.459 15.4766C72.2949 15.4583 72.0033 15.4766 71.584 15.5312ZM69.1504 15.1484L69.0684 15.2305L68.9863 15.5586L69.0684 15.6406V15.668C69.123 15.668 69.196 15.5586 69.2871 15.3398V15.2305L69.2598 15.1484H69.1504ZM69.998 15.2578L69.8613 15.3672L69.834 15.3945L69.998 15.4219L70.0527 15.3672L70.0801 15.2852L69.998 15.2578ZM74.0723 16.0234H73.9902V16.0781L74.1543 16.1328L74.0723 16.0234ZM73.6074 16.7891V16.8164H73.6348C75.2389 17.0169 76.0592 17.0716 76.0957 16.9805V16.9531C76.0957 16.8984 76.0501 16.8255 75.959 16.7344H75.9316C75.3665 16.6615 74.5918 16.6797 73.6074 16.7891ZM69.0137 15.8867L68.9316 15.9414V16.0234H68.9863L69.0684 15.9688V15.9141L69.0137 15.8867ZM76.6426 11.5938L76.752 11.6211C76.8978 11.6393 76.8158 12.3503 76.5059 13.7539L76.5332 13.7812C76.4785 13.9635 75.5488 13.8906 73.7441 13.5625C71.666 13.4531 70.2988 13.3255 69.6426 13.1797L69.6699 13.0977C69.7246 12.9518 70.5085 12.9792 72.0215 13.1797C72.696 13.2161 73.0514 13.1888 73.0879 13.0977V13.0703L72.8418 13.0156C70.709 12.5964 69.5879 12.6055 69.4785 13.043L69.2598 13.0977C68.6582 12.9518 68.5215 12.2591 68.8496 11.0195C68.9225 10.6914 69.6699 10.6185 71.0918 10.8008C71.11 10.7826 71.2103 10.7826 71.3926 10.8008L71.8848 11.0469L72.1035 11.1016L76.6426 11.5938ZM75.959 11.8945H75.7949L75.7676 11.9492L76.0137 12.0312H76.2051V11.9766L75.959 11.8945ZM74.5645 11.8945L74.8926 11.9766C75.0749 12.013 75.1842 11.9857 75.2207 11.8945L75.166 11.8672C74.765 11.8125 74.5645 11.8216 74.5645 11.8945ZM73.0879 11.7578V11.8125C73.2702 11.8672 73.3887 11.8581 73.4434 11.7852L73.4707 11.7305L73.3066 11.7031C73.1973 11.6849 73.1243 11.7031 73.0879 11.7578ZM74.7285 12.4961L75.2754 12.6328C75.8405 12.7604 76.1686 12.7695 76.2598 12.6602L76.2871 12.5781L76.1777 12.5234C75.248 12.4141 74.765 12.4049 74.7285 12.4961ZM71.7754 11.6484L71.748 11.7578L71.7754 11.7852C72.1035 11.8581 72.4134 11.849 72.7051 11.7578V11.7305L72.6504 11.7031C72.4316 11.6484 72.14 11.6302 71.7754 11.6484ZM69.3965 11.0469L69.2871 11.1016L69.1777 11.457L69.2598 11.5391C69.3145 11.5391 69.3965 11.4388 69.5059 11.2383L69.5332 11.1289L69.4512 11.0469H69.3965ZM70.2168 11.2383L70.0527 11.293V11.3477L70.2168 11.4023L70.2988 11.3203V11.293L70.2168 11.2383ZM74.209 12.3867H74.1543L74.127 12.4414L74.2637 12.4961L74.209 12.3867ZM73.6895 13.0977L73.6621 13.1523H73.6895C75.2754 13.5169 76.0866 13.6445 76.123 13.5352L76.1504 13.5078C76.1504 13.4349 76.0957 13.3529 75.9863 13.2617H75.959C75.3939 13.1341 74.6374 13.0794 73.6895 13.0977ZM69.1777 11.7852H69.0684V11.8945H69.1504L69.2324 11.8398L69.2598 11.7852H69.1777ZM94.3613 2.1875L94.9629 2.10547C95.5645 2.10547 96.5033 2.32422 97.7793 2.76172C98.4538 3.10807 98.791 3.33594 98.791 3.44531C99.4108 4.0651 99.7207 4.54818 99.7207 4.89453L100.158 6.50781C99.9759 7.20052 99.584 8.19401 98.9824 9.48828C98.2168 10.1263 97.0866 10.8828 95.5918 11.7578C94.3704 12.888 93.5684 13.4714 93.1855 13.5078L92.0371 14.5469C90.3965 15.9688 89.5579 16.7161 89.5215 16.7891C89.3574 17.1354 89.2116 17.582 89.084 18.1289V18.1836C89.084 18.3294 89.5306 18.4297 90.4238 18.4844V18.5938L89.5488 18.6484V18.7578C91.1348 19.0312 92.2012 19.168 92.748 19.168C92.7116 19.1133 92.0553 18.931 90.7793 18.6211V18.5391H90.8066C91.153 18.5391 91.8822 18.6758 92.9941 18.9492L94.5254 19.0586L95.8379 18.9219H96.5215C97.7246 18.9948 98.3809 19.1589 98.4902 19.4141L99.3105 19.6602L99.4746 19.7695V19.8789L99.0371 19.9883V20.0156L99.1465 20.1523H99.2012L99.584 20.0977V20.1523C99.5475 20.9544 99.4928 21.3555 99.4199 21.3555L96.2207 21.2461H95.5645C95.1087 21.2461 94.4889 21.2917 93.7051 21.3828C90.9525 21.0547 89.0384 20.8906 87.9629 20.8906C87.6348 20.8177 87.4707 20.6536 87.4707 20.3984C87.3431 20.0703 87.2793 19.6602 87.2793 19.168V18.3477C87.2793 16.7617 87.4616 15.7591 87.8262 15.3398L88.5098 14.9023C88.6191 14.7018 88.6738 14.5378 88.6738 14.4102C89.8405 13.4622 90.4603 12.9883 90.5332 12.9883C91.0254 12.806 91.6999 12.3411 92.5566 11.5938H92.6934C92.4564 11.8854 92.265 12.0312 92.1191 12.0312V12.1406H92.2832C92.5202 12.013 92.7572 11.8125 92.9941 11.5391V11.4844H92.8848V11.4023L94.8535 10.1719C95.8561 9.47917 96.6491 8.84115 97.2324 8.25781C97.6699 7.76562 97.9525 7.11849 98.0801 6.31641C98.0801 5.60547 97.7793 5.06771 97.1777 4.70312C96.9772 4.63021 96.1569 4.52995 94.7168 4.40234C94.7168 4.38411 94.571 4.36589 94.2793 4.34766C93.6595 4.34766 93.0762 4.71224 92.5293 5.44141C92.3835 5.76953 92.3105 6.01562 92.3105 6.17969V6.37109H92.3652C92.3652 6.53516 92.0645 6.65365 91.4629 6.72656L90.3145 6.89062V6.91797L90.1504 6.89062H89.9316L89.248 6.97266L89.1934 6.86328C89.4486 5.60547 89.7311 4.82161 90.041 4.51172C91.0801 3.5638 91.8092 3.07161 92.2285 3.03516C92.5384 2.76172 93.2493 2.47917 94.3613 2.1875ZM95.4551 2.37891H95.1816V2.43359L95.3457 2.65234H95.5918L95.7012 2.51562V2.48828C95.6829 2.41536 95.6009 2.37891 95.4551 2.37891ZM93.7051 2.78906V2.84375H93.7324C94.4798 2.84375 94.8535 2.76172 94.8535 2.59766L94.7168 2.48828H94.3887C93.9329 2.59766 93.7051 2.69792 93.7051 2.78906ZM97.123 2.67969H97.0957V2.73438C97.0957 2.84375 97.3327 2.95312 97.8066 3.0625V3.03516C97.8066 2.92578 97.5788 2.80729 97.123 2.67969ZM92.6934 3.19922V3.28125H93.0488L93.1582 3.17188V3.14453L92.9941 3.11719C92.7936 3.15365 92.6934 3.18099 92.6934 3.19922ZM93.0762 4.23828L92.9941 4.34766V4.40234H93.1582L93.2402 4.29297V4.23828H93.0762ZM97.834 4.29297L97.7793 4.34766V4.40234C97.8522 4.52995 97.9525 4.59375 98.0801 4.59375H98.1074C98.1621 4.59375 98.1895 4.55729 98.1895 4.48438C98.1895 4.39323 98.0892 4.32943 97.8887 4.29297H97.834ZM98.2441 4.70312V4.75781C98.5723 4.79427 98.7363 4.9401 98.7363 5.19531L98.9004 5.38672V5.19531C98.9004 4.79427 98.7728 4.59375 98.5176 4.59375C98.3535 4.59375 98.2624 4.63021 98.2441 4.70312ZM92.2012 5.25L92.2559 5.30469H92.2832C92.5566 5.15885 92.6934 5.01302 92.6934 4.86719V4.83984H92.584C92.5111 4.83984 92.3835 4.97656 92.2012 5.25ZM91.4355 5.98828H91.2988V6.09766L91.4082 6.125H91.4355V5.98828ZM99.4199 6.91797L99.3105 7.05469V7.13672H99.3652L99.4473 7.05469V6.91797H99.4199ZM98.791 8.01172H98.6543V8.14844C98.7819 8.14844 98.8457 8.20312 98.8457 8.3125H98.9277V8.14844L98.791 8.01172ZM98.2988 8.99609L98.3262 9.05078V9.07812C98.4355 9.02344 98.5449 8.91406 98.6543 8.75V8.69531H98.5996C98.472 8.76823 98.3717 8.86849 98.2988 8.99609ZM97.5605 9.54297H97.6152L97.916 9.48828C97.916 9.34245 97.8522 9.26953 97.7246 9.26953C97.6152 9.28776 97.5605 9.37891 97.5605 9.54297ZM97.5059 10.0625V10.1172C97.8522 10.0807 98.1712 9.88932 98.4629 9.54297L98.4082 9.48828C97.9889 9.70703 97.6882 9.89844 97.5059 10.0625ZM96.2754 10.582L96.1934 10.6094V10.7188H96.248L96.3301 10.6367L96.2754 10.6094V10.582ZM92.0098 13.8633V13.9453H92.0918C92.2012 13.9453 92.4473 13.7812 92.8301 13.4531C92.9212 13.4531 93.0124 13.3438 93.1035 13.125L93.1582 13.0977V13.0156H93.0762C92.8574 13.0156 92.502 13.2982 92.0098 13.8633ZM90.2871 13.7266V13.8086H90.3145C90.5514 13.8086 90.7428 13.6263 90.8887 13.2617H90.752C90.4421 13.5169 90.2871 13.6719 90.2871 13.7266ZM89.3848 14.2188H89.0293L89.0566 14.4922C88.8014 14.7474 88.6738 14.9115 88.6738 14.9844H88.7832C89.1113 14.8021 89.3392 14.5742 89.4668 14.3008V14.2461L89.3848 14.2188ZM91.4355 14.4922L91.2988 14.5742V14.6562H91.4082L91.5176 14.5469V14.4922H91.4355ZM89.248 16.0508V16.1602H89.3301C89.5306 16.0143 89.6309 15.8685 89.6309 15.7227V15.6953H89.5488C89.3483 15.8047 89.248 15.9232 89.248 16.0508ZM88.5098 18.9766L88.4277 19.0586V19.168L88.5098 19.2773L88.5645 19.168V19.0586L88.5098 18.9766ZM89.248 19.0586L89.1387 19.1406L89.1934 19.168H89.5488V19.0859L89.3574 19.0586H89.248ZM96.6855 19.2773L96.4941 19.3047V19.332L96.6035 19.4414H96.959L97.041 19.3867V19.3047L96.6855 19.2773ZM87.7715 19.8242L87.6621 19.8789V19.9062L87.7441 19.9883H87.7715L87.8535 19.9062L87.7715 19.8242ZM88.3457 20.3984V20.4258L88.5645 20.4531C88.8379 20.4167 88.9746 20.3802 88.9746 20.3438L88.9473 20.2891H88.5645C88.4186 20.3255 88.3457 20.362 88.3457 20.3984ZM97.2051 20.6992H97.5059C97.7611 20.6628 97.8887 20.6172 97.8887 20.5625L97.8066 20.4531H97.6426C97.5514 20.4531 97.4056 20.5352 97.2051 20.6992ZM98.1895 20.8633L98.2988 20.918H98.5996C98.873 20.918 99.0098 20.8724 99.0098 20.7812V20.7539C99.0098 20.6992 98.9733 20.6719 98.9004 20.6719C98.4629 20.6901 98.2259 20.7539 98.1895 20.8633ZM109.1 2.32422C110.357 2.32422 111.533 2.73438 112.627 3.55469L114.131 5.79688C114.423 6.17969 114.687 6.69922 114.924 7.35547C115.215 7.79297 115.48 8.65885 115.717 9.95312L115.771 10.6367C115.771 11.056 115.689 11.5299 115.525 12.0586V12.25C115.525 12.4688 115.607 12.5781 115.771 12.5781L115.717 13.6172V14.8477C115.717 15.3945 115.452 16.4792 114.924 18.1016C114.778 18.4297 114.523 18.6849 114.158 18.8672C113.83 19.1953 112.8 19.7878 111.068 20.6445C110.321 21.1732 109.601 21.4375 108.908 21.4375H108.881C106.967 21.2734 106.01 21.1185 106.01 20.9727C105.463 20.7721 104.843 20.2799 104.15 19.4961V19.4141L104.232 19.332H104.314L104.424 19.4141H104.506V19.332C104.469 19.1315 104.378 19.0312 104.232 19.0312H104.068L104.041 19.168C103.804 19.0951 103.521 18.6758 103.193 17.9102C103.066 17.7826 102.965 17.582 102.893 17.3086C102.346 16.707 101.954 14.7383 101.717 11.4023V11.293C101.844 9.52474 101.963 8.64062 102.072 8.64062C102.09 7.94792 102.364 6.9362 102.893 5.60547C103.13 5.36849 103.348 5.00391 103.549 4.51172C104.843 3.05339 106.693 2.32422 109.1 2.32422ZM109.182 2.59766H108.607V2.65234C108.607 2.74349 108.844 2.83464 109.318 2.92578H109.729V2.78906C109.656 2.66146 109.473 2.59766 109.182 2.59766ZM110.439 2.78906L110.385 2.87109L110.768 2.95312H110.877L110.959 2.92578C110.959 2.83464 110.813 2.78906 110.521 2.78906H110.439ZM111.561 3.17188H111.533V3.19922C112.007 3.80078 112.417 4.13802 112.764 4.21094H112.791V4.15625C112.299 3.5 111.889 3.17188 111.561 3.17188ZM111.041 3.39062L110.959 3.44531C111.087 3.6276 111.223 3.71875 111.369 3.71875H111.561V3.66406C111.561 3.55469 111.415 3.46354 111.123 3.39062H111.041ZM109.783 3.41797H109.4V3.44531C109.601 3.59115 109.956 3.69141 110.467 3.74609L110.521 3.71875V3.66406C110.521 3.59115 110.275 3.50911 109.783 3.41797ZM103.521 10.6367C103.558 11.0924 103.613 11.3841 103.686 11.5117L103.576 11.9219V12.0859L104.178 15.2031C104.579 16.3698 105.098 17.2995 105.736 17.9922C106.739 18.6484 107.523 18.9766 108.088 18.9766C108.89 18.9766 109.947 18.7122 111.26 18.1836C112.882 17.1992 113.693 16.3516 113.693 15.6406C113.985 14.6562 114.222 13.4349 114.404 11.9766V10.582C114.404 9.23307 114.049 8.06641 113.338 7.08203C113.338 6.91797 112.8 6.35286 111.725 5.38672C111.014 4.51172 110.385 4.07422 109.838 4.07422L108.662 3.80078H108.416C107.377 3.80078 106.575 4.23828 106.01 5.11328C105.627 5.42318 105.281 5.82422 104.971 6.31641C104.788 6.31641 104.406 6.82682 103.822 7.84766C103.622 8.50391 103.521 9.43359 103.521 10.6367ZM104.506 4.70312V4.8125C104.597 4.8125 104.752 4.65755 104.971 4.34766V4.21094H104.943C104.834 4.21094 104.688 4.375 104.506 4.70312ZM103.904 5.14062H103.986L104.096 5.03125V4.97656C103.968 4.97656 103.904 5.03125 103.904 5.14062ZM104.643 5.93359H104.752C104.916 5.84245 105.016 5.74219 105.053 5.63281V5.55078H104.834C104.706 5.6237 104.643 5.7513 104.643 5.93359ZM113.721 5.87891C113.721 6.22526 113.939 6.84505 114.377 7.73828C114.45 7.75651 114.65 8.17578 114.979 8.99609C114.979 9.08724 115.006 9.13281 115.061 9.13281L115.17 9.05078V8.94141C115.061 8.48568 114.714 7.60156 114.131 6.28906C113.949 6.01562 113.812 5.87891 113.721 5.87891ZM115.115 9.76172H115.061V9.81641L115.252 10.3086C115.252 10.3997 115.17 10.6003 115.006 10.9102V10.9648C115.006 11.1107 115.07 11.2201 115.197 11.293H115.279C115.334 11.293 115.407 11.0286 115.498 10.5C115.352 10.1172 115.225 9.87109 115.115 9.76172ZM102.291 9.84375L102.182 9.95312V10.0352L102.291 10.1172L102.4 10.0625V9.92578L102.291 9.84375ZM102.291 10.6094H102.209L102.154 11.0469V11.3203C102.245 11.3203 102.291 11.1107 102.291 10.6914V10.6094ZM103.002 11.7578H102.893L102.865 12.0039C102.865 12.8789 103.102 14.0547 103.576 15.5312L103.986 16.0508H104.041V16.0234C103.895 15.5859 103.667 14.5286 103.357 12.8516C103.248 12.7422 103.13 12.3776 103.002 11.7578ZM102.756 15.5859H102.701V15.6953H102.756V15.5859ZM114.24 17.8555V17.9102H114.322C114.541 17.9102 114.787 17.4271 115.061 16.4609V16.4336L115.006 16.3242C114.878 16.3242 114.623 16.8346 114.24 17.8555ZM103.029 17.2539V17.3359C103.193 17.3906 103.43 17.7005 103.74 18.2656L103.986 18.4297H104.15V18.4023C103.804 17.6367 103.521 17.1901 103.303 17.0625H103.275C103.184 17.0807 103.102 17.1445 103.029 17.2539ZM106.584 19.1406L105.217 18.375V18.4297C105.764 19.25 106.447 19.6602 107.268 19.6602C107.486 19.6419 107.596 19.6055 107.596 19.5508C107.559 19.4961 107.222 19.3594 106.584 19.1406ZM104.314 18.4844H104.15L104.096 18.5938C104.114 18.6667 104.187 18.7031 104.314 18.7031H104.369L104.424 18.6484V18.5938L104.314 18.4844ZM107.623 19.7148L107.596 19.7422C107.596 19.8516 107.76 19.9336 108.088 19.9883H108.307C108.507 19.9518 108.607 19.8607 108.607 19.7148H108.881C109.264 19.7148 110.057 19.4961 111.26 19.0586V19.0312L111.205 18.9766H110.986L109.838 19.2773C109.346 19.2773 108.607 19.4232 107.623 19.7148ZM108.908 20.3711V20.3984L108.963 20.4531H109.4C110.275 20.2708 110.713 20.125 110.713 20.0156C111.023 19.9427 111.223 19.8242 111.314 19.6602V19.5781H111.26C110.202 19.8151 109.419 20.0794 108.908 20.3711ZM104.752 19.7422H104.725C104.725 19.9062 104.889 20.043 105.217 20.1523H105.244C105.044 19.8789 104.88 19.7422 104.752 19.7422ZM106.967 20.2344V20.3711C107.623 20.681 108.033 20.8359 108.197 20.8359H108.416V20.6719C107.851 20.3802 107.368 20.2344 106.967 20.2344Z" fill="white"/>
</svg>
