<svg width="69" height="22" viewBox="0 0 69 22" fill="none" xmlns="http://www.w3.org/2000/svg">
<path d="M4.92773 0.273438C5.9668 0.382812 6.48633 0.53776 6.48633 0.738281C6.48633 0.920573 6.55013 1.01172 6.67773 1.01172L6.75977 1.09375L6.45898 1.33984V1.44922H6.54102C6.63216 1.33984 6.70508 1.28516 6.75977 1.28516C6.85091 1.28516 6.89648 1.39453 6.89648 1.61328L7.14258 9.10547C6.96029 9.88932 6.86914 11.4388 6.86914 13.7539V13.8633C6.86914 15.2669 6.9056 16.1784 6.97852 16.5977C6.83268 16.6523 6.75977 16.7708 6.75977 16.9531C6.75977 17.1901 6.80534 17.3086 6.89648 17.3086H6.97852V17.1172H7.0332C7.12435 17.1172 7.21549 17.5456 7.30664 18.4023L7.25195 18.4297H7.14258C6.99674 18.2656 6.86914 18.1836 6.75977 18.1836V18.2383V18.3477C6.75977 18.6211 6.99674 18.7578 7.4707 18.7578C10.1868 18.612 11.5449 18.6211 11.5449 18.7852V18.8125C11.5449 18.849 11.4082 18.9128 11.1348 19.0039L11.1074 19.0586V19.0859C11.1439 19.1224 11.3079 19.1862 11.5996 19.2773C11.6725 19.3503 11.709 19.4505 11.709 19.5781C11.5267 20.5807 11.3079 21.082 11.0527 21.082L10.5332 21.1367L9.11133 20.9727L8.23633 21.0273C3.35091 21.1003 0.908203 21.0456 0.908203 20.8633C0.76237 20.6628 0.689453 20.5169 0.689453 20.4258V20.3984L0.962891 19.4688L0.853516 19.2773C0.853516 19.0039 1.04492 18.8216 1.42773 18.7305L1.75586 18.6484L4.32617 18.5664C4.54492 18.5664 4.67253 18.4297 4.70898 18.1562V17.8828C4.70898 16.388 4.6543 15.1302 4.54492 14.1094C4.70898 8.71354 4.88216 6.01562 5.06445 6.01562L5.0918 5.66016C5.01888 4.11068 4.89128 3.33594 4.70898 3.33594C3.9069 3.86458 3.36914 4.38411 3.0957 4.89453L2.93164 4.97656C1.89258 4.59375 1.22721 4.22917 0.935547 3.88281C0.899089 3.88281 0.86263 3.75521 0.826172 3.5L0.880859 3.41797L1.07227 3.44531H1.26367C1.62826 3.44531 2.41211 2.81641 3.61523 1.55859C3.97982 1.23047 4.27148 0.856771 4.49023 0.4375C4.67253 0.328125 4.81836 0.273438 4.92773 0.273438ZM5.25586 1.20312V1.23047L5.2832 1.28516H5.33789C5.50195 1.28516 5.5931 1.25781 5.61133 1.20312V1.17578L5.5293 1.09375H5.44727C5.31966 1.11198 5.25586 1.14844 5.25586 1.20312ZM4.43555 1.20312L4.32617 1.28516L4.4082 1.36719H4.49023L4.6543 1.33984V1.25781L4.57227 1.20312H4.43555ZM6.54102 1.77734L6.48633 1.85938V1.94141L6.54102 1.96875L6.62305 1.94141V1.85938L6.54102 1.77734ZM2.49414 4.04688V4.12891H2.52148C2.79492 4.12891 3.07747 3.95573 3.36914 3.60938C4.35352 2.69792 4.8457 2.14193 4.8457 1.94141H4.76367C3.74284 2.79818 2.98633 3.5 2.49414 4.04688ZM5.80273 2.70703V2.73438L5.93945 2.84375L6.02148 2.81641V2.54297L5.99414 2.48828V2.46094C5.86654 2.47917 5.80273 2.5612 5.80273 2.70703ZM5.69336 2.70703H5.58398L5.39258 3.17188V3.30859L5.50195 3.41797H5.66602C5.77539 3.41797 5.83919 3.38151 5.85742 3.30859V3.22656C5.85742 3.17188 5.76628 3.10807 5.58398 3.03516H5.5293V2.92578C5.63867 2.83464 5.69336 2.76172 5.69336 2.70703ZM1.94727 3.66406V3.71875H2.05664C2.25716 3.71875 2.43034 3.58203 2.57617 3.30859L2.54883 3.25391H2.52148C2.26628 3.36328 2.07487 3.5 1.94727 3.66406ZM5.99414 4.64844L6.07617 6.53516H6.13086C6.24023 6.22526 6.29492 5.77865 6.29492 5.19531V4.40234C6.29492 3.80078 6.25846 3.5 6.18555 3.5C6.07617 3.5 6.01237 3.88281 5.99414 4.64844ZM5.99414 8.77734V9.07812L6.07617 9.59766H6.13086C6.27669 9.59766 6.34961 9.06901 6.34961 8.01172V7.84766L6.26758 7.76562C6.08529 7.83854 5.99414 8.17578 5.99414 8.77734ZM5.20117 13.7812H5.11914V13.918H5.20117V13.7812ZM6.07617 15.9688V15.9961V16.1875L6.18555 16.2695H6.24023L6.29492 16.2148V16.1328C6.25846 16.1328 6.18555 16.0781 6.07617 15.9688ZM6.26758 16.8164H6.24023C6.13086 17.1263 6.07617 17.5091 6.07617 17.9648V18.1836C6.07617 18.4023 6.16732 18.5482 6.34961 18.6211H6.4043C6.45898 18.6211 6.48633 18.5664 6.48633 18.457C6.4681 17.3633 6.39518 16.8164 6.26758 16.8164ZM5.11914 17.5L5.00977 17.6641L5.06445 17.7734H5.0918L5.20117 17.6641V17.6094L5.11914 17.5ZM5.58398 17.9648L5.50195 18.0469V18.2383L5.58398 18.3203H5.66602V18.0469L5.58398 17.9648ZM2.11133 18.9219H1.86523V18.9766L1.97461 19.0859H2.0293L2.11133 18.9766V18.9219ZM2.05664 19.5781L1.29102 19.6602V19.7695L1.37305 19.8789H1.42773C1.61003 19.8789 1.81966 19.7786 2.05664 19.5781ZM7.36133 19.4688V19.5781L9.2207 19.2773H9.38477V19.168C8.96549 19.1133 8.29102 19.2135 7.36133 19.4688ZM2.93164 19.7695L2.33008 19.8516V19.9609H2.49414H2.74023C3.19596 19.9609 3.42383 19.9245 3.42383 19.8516L3.3418 19.7695H2.93164ZM5.0918 19.7148L5.06445 19.7695V19.7969C5.13737 19.8698 5.21029 19.9062 5.2832 19.9062V19.8516C5.24674 19.7604 5.18294 19.7148 5.0918 19.7148ZM4.59961 19.7695L4.54492 19.8516L4.59961 19.9062H4.70898L4.79102 19.8516V19.7695H4.59961ZM5.66602 19.9062L5.5293 19.9883V20.043C5.5293 20.1159 5.81185 20.1523 6.37695 20.1523H6.4043C6.55013 20.1523 6.62305 20.0977 6.62305 19.9883C6.55013 19.9336 6.4681 19.9062 6.37695 19.9062H5.66602ZM10.8066 20.1797V20.2891L10.916 20.3984C11.1165 20.3984 11.2168 20.2526 11.2168 19.9609V19.7422L11.1621 19.6602H11.0527C10.8887 19.7878 10.8066 19.9609 10.8066 20.1797ZM7.14258 20.207C7.0332 20.3893 6.8418 20.4805 6.56836 20.4805V20.5352C6.56836 20.6081 6.85091 20.6536 7.41602 20.6719H7.4707C7.79883 20.4167 8.02669 20.1979 8.1543 20.0156C8.13607 19.9609 8.05404 19.9518 7.9082 19.9883C7.76237 20.0065 7.50716 20.0794 7.14258 20.207ZM9.11133 19.9609L8.50977 20.0156V20.0703C8.50977 20.125 8.77409 20.1523 9.30273 20.1523L9.33008 20.125V20.0977C9.29362 20.0065 9.2207 19.9609 9.11133 19.9609ZM9.74023 19.9609L9.6582 20.0156L9.68555 20.125H9.74023L9.82227 20.0703V20.0156L9.74023 19.9609ZM8.45508 20.3438H8.3457V20.3984H8.45508V20.3438ZM10.3418 20.7539V20.7812C10.3418 20.8177 10.4238 20.8542 10.5879 20.8906C10.7702 20.8724 10.8613 20.8268 10.8613 20.7539V20.6992L10.752 20.6172H10.6426C10.4785 20.6172 10.3783 20.6628 10.3418 20.7539ZM18.791 16.5156L18.7637 16.6797C18.7272 16.7708 18.0163 16.7799 16.6309 16.707H16.6035C16.4212 16.707 16.3757 15.8867 16.4668 14.2461C15.9564 14.319 15.5371 14.3555 15.209 14.3555V14.2734C15.209 14.1823 15.6374 14.0638 16.4941 13.918V13.8906C16.4759 13.8359 16.4668 13.7266 16.4668 13.5625C15.4824 13.7448 14.9902 13.9818 14.9902 14.2734L14.7988 14.3828C14.1608 14.3828 13.8418 13.7448 13.8418 12.4688C13.8418 12.1224 14.5527 11.8672 15.9746 11.7031C15.9746 11.6849 16.0749 11.6576 16.2754 11.6211L16.3574 11.6484C16.321 10.737 16.3301 10.1263 16.3848 9.81641H16.4395C16.5853 9.85286 16.6582 10.4818 16.6582 11.7031L16.8223 11.7305H16.959C16.9954 10.3815 16.8314 9.67969 16.4668 9.625L16.3848 9.40625C16.4577 8.78646 17.1322 8.56771 18.4082 8.75C18.7728 8.78646 18.9368 9.52474 18.9004 10.9648C18.9186 10.9648 18.9277 11.056 18.9277 11.2383L18.8457 11.4844L21.5527 11.0742H21.6895C21.8171 11.0742 21.9173 11.7943 21.9902 13.2344H22.0176C22.0176 13.4167 21.0879 13.5716 19.2285 13.6992L18.7363 13.7812L18.791 16.5156ZM19.0645 13.2617V13.3164H19.0918C20.7324 13.2617 21.5527 13.1797 21.5527 13.0703V13.043C21.5345 13.0065 21.4707 12.9518 21.3613 12.8789H21.334C20.7507 12.8789 19.9941 13.0065 19.0645 13.2617ZM16.8223 16.2695H16.8496C16.8861 16.2695 16.9499 16.224 17.041 16.1328V16.1055C17.1139 15.5768 17.0866 14.9206 16.959 14.1367C16.9408 14.1549 16.9134 14.1641 16.877 14.1641C16.7493 15.5312 16.7311 16.2331 16.8223 16.2695ZM17.6699 14.7383L17.5879 15.3398C17.5332 15.9232 17.5697 16.2513 17.6973 16.3242H17.7793L17.834 16.2148C17.8158 15.2305 17.7611 14.7383 17.6699 14.7383ZM19.9121 12.4141H20.5137C21.097 12.3776 21.416 12.3047 21.4707 12.1953V12.1133L21.334 12.0859C20.3861 12.2135 19.9121 12.3229 19.9121 12.4141ZM18.4355 9.29688L18.3535 9.16016L18.0254 9.13281L17.9434 9.1875V9.24219C17.9251 9.29688 18.0254 9.35156 18.2441 9.40625L18.3809 9.43359L18.4355 9.35156V9.29688ZM14.416 12.3594L14.3066 12.4688V12.7969L14.3887 12.8789H14.416C14.4707 12.8789 14.5072 12.7604 14.5254 12.5234V12.4141L14.4707 12.3594H14.416ZM18.2441 14.5195L18.2168 14.8477C18.1803 15.0482 18.2168 15.1576 18.3262 15.1758L18.3535 15.2031V15.1211C18.3717 14.7201 18.3353 14.5195 18.2441 14.5195ZM19.6387 11.8672H19.9395C20.1217 11.8672 20.2311 11.8216 20.2676 11.7305V11.7031H20.1855C19.821 11.7578 19.6387 11.8125 19.6387 11.8672ZM21.0059 11.5391L20.8145 11.5664V11.6211H21.0605L21.2246 11.5938V11.5391H21.0059ZM18.4082 15.9414V15.7227H18.3535L18.3262 15.9688V16.1602H18.4082V15.9414ZM18.3535 10.1172L18.2441 10.0078H18.2168L18.1895 10.1172L18.2441 10.2266H18.3535V10.1172ZM15.209 12.3594L15.127 12.4688V12.4961H15.2637L15.3457 12.4141V12.3594H15.209ZM17.6973 9.16016L17.6699 9.07812H17.5879L17.5605 9.13281L17.6426 9.24219H17.6973V9.16016ZM14.3887 13.0977L14.3066 13.1797V13.2617H14.3887L14.4434 13.1797V13.0977H14.3887ZM16.959 12.3047L16.877 12.3594V12.4688H16.959V12.3047ZM17.6973 14.2461V14.1641H17.6699L17.6426 14.2734L17.6973 14.2461ZM19.3926 12.4688H19.3379V12.5234H19.4746L19.3926 12.4688ZM18.1621 12.1133V12.1953H18.1895C18.1712 12.1771 18.1621 12.1406 18.1621 12.0859V12.1133ZM16.9316 13.7812L16.9043 13.7539V13.8086C16.9043 13.8268 16.8952 13.8451 16.877 13.8633H16.9316V13.7812ZM18.2441 13.3711H18.2168L18.2441 13.3984V13.3711ZM27.8691 0.273438C28.9082 0.382812 29.4277 0.53776 29.4277 0.738281C29.4277 0.920573 29.4915 1.01172 29.6191 1.01172L29.7012 1.09375L29.4004 1.33984V1.44922H29.4824C29.5736 1.33984 29.6465 1.28516 29.7012 1.28516C29.7923 1.28516 29.8379 1.39453 29.8379 1.61328L30.084 9.10547C29.9017 9.88932 29.8105 11.4388 29.8105 13.7539V13.8633C29.8105 15.2669 29.847 16.1784 29.9199 16.5977C29.7741 16.6523 29.7012 16.7708 29.7012 16.9531C29.7012 17.1901 29.7467 17.3086 29.8379 17.3086H29.9199V17.1172H29.9746C30.0658 17.1172 30.1569 17.5456 30.248 18.4023L30.1934 18.4297H30.084C29.9382 18.2656 29.8105 18.1836 29.7012 18.1836V18.2383V18.3477C29.7012 18.6211 29.9382 18.7578 30.4121 18.7578C33.1283 18.612 34.4863 18.6211 34.4863 18.7852V18.8125C34.4863 18.849 34.3496 18.9128 34.0762 19.0039L34.0488 19.0586V19.0859C34.0853 19.1224 34.2493 19.1862 34.541 19.2773C34.6139 19.3503 34.6504 19.4505 34.6504 19.5781C34.4681 20.5807 34.2493 21.082 33.9941 21.082L33.4746 21.1367L32.0527 20.9727L31.1777 21.0273C26.2923 21.1003 23.8496 21.0456 23.8496 20.8633C23.7038 20.6628 23.6309 20.5169 23.6309 20.4258V20.3984L23.9043 19.4688L23.7949 19.2773C23.7949 19.0039 23.9863 18.8216 24.3691 18.7305L24.6973 18.6484L27.2676 18.5664C27.4863 18.5664 27.6139 18.4297 27.6504 18.1562V17.8828C27.6504 16.388 27.5957 15.1302 27.4863 14.1094C27.6504 8.71354 27.8236 6.01562 28.0059 6.01562L28.0332 5.66016C27.9603 4.11068 27.8327 3.33594 27.6504 3.33594C26.8483 3.86458 26.3105 4.38411 26.0371 4.89453L25.873 4.97656C24.834 4.59375 24.1686 4.22917 23.877 3.88281C23.8405 3.88281 23.804 3.75521 23.7676 3.5L23.8223 3.41797L24.0137 3.44531H24.2051C24.5697 3.44531 25.3535 2.81641 26.5566 1.55859C26.9212 1.23047 27.2129 0.856771 27.4316 0.4375C27.6139 0.328125 27.7598 0.273438 27.8691 0.273438ZM28.1973 1.20312V1.23047L28.2246 1.28516H28.2793C28.4434 1.28516 28.5345 1.25781 28.5527 1.20312V1.17578L28.4707 1.09375H28.3887C28.2611 1.11198 28.1973 1.14844 28.1973 1.20312ZM27.377 1.20312L27.2676 1.28516L27.3496 1.36719H27.4316L27.5957 1.33984V1.25781L27.5137 1.20312H27.377ZM29.4824 1.77734L29.4277 1.85938V1.94141L29.4824 1.96875L29.5645 1.94141V1.85938L29.4824 1.77734ZM25.4355 4.04688V4.12891H25.4629C25.7363 4.12891 26.0189 3.95573 26.3105 3.60938C27.2949 2.69792 27.7871 2.14193 27.7871 1.94141H27.7051C26.6842 2.79818 25.9277 3.5 25.4355 4.04688ZM28.7441 2.70703V2.73438L28.8809 2.84375L28.9629 2.81641V2.54297L28.9355 2.48828V2.46094C28.8079 2.47917 28.7441 2.5612 28.7441 2.70703ZM28.6348 2.70703H28.5254L28.334 3.17188V3.30859L28.4434 3.41797H28.6074C28.7168 3.41797 28.7806 3.38151 28.7988 3.30859V3.22656C28.7988 3.17188 28.7077 3.10807 28.5254 3.03516H28.4707V2.92578C28.5801 2.83464 28.6348 2.76172 28.6348 2.70703ZM24.8887 3.66406V3.71875H24.998C25.1986 3.71875 25.3717 3.58203 25.5176 3.30859L25.4902 3.25391H25.4629C25.2077 3.36328 25.0163 3.5 24.8887 3.66406ZM28.9355 4.64844L29.0176 6.53516H29.0723C29.1816 6.22526 29.2363 5.77865 29.2363 5.19531V4.40234C29.2363 3.80078 29.1999 3.5 29.127 3.5C29.0176 3.5 28.9538 3.88281 28.9355 4.64844ZM28.9355 8.77734V9.07812L29.0176 9.59766H29.0723C29.2181 9.59766 29.291 9.06901 29.291 8.01172V7.84766L29.209 7.76562C29.0267 7.83854 28.9355 8.17578 28.9355 8.77734ZM28.1426 13.7812H28.0605V13.918H28.1426V13.7812ZM29.0176 15.9688V15.9961V16.1875L29.127 16.2695H29.1816L29.2363 16.2148V16.1328C29.1999 16.1328 29.127 16.0781 29.0176 15.9688ZM29.209 16.8164H29.1816C29.0723 17.1263 29.0176 17.5091 29.0176 17.9648V18.1836C29.0176 18.4023 29.1087 18.5482 29.291 18.6211H29.3457C29.4004 18.6211 29.4277 18.5664 29.4277 18.457C29.4095 17.3633 29.3366 16.8164 29.209 16.8164ZM28.0605 17.5L27.9512 17.6641L28.0059 17.7734H28.0332L28.1426 17.6641V17.6094L28.0605 17.5ZM28.5254 17.9648L28.4434 18.0469V18.2383L28.5254 18.3203H28.6074V18.0469L28.5254 17.9648ZM25.0527 18.9219H24.8066V18.9766L24.916 19.0859H24.9707L25.0527 18.9766V18.9219ZM24.998 19.5781L24.2324 19.6602V19.7695L24.3145 19.8789H24.3691C24.5514 19.8789 24.7611 19.7786 24.998 19.5781ZM30.3027 19.4688V19.5781L32.1621 19.2773H32.3262V19.168C31.9069 19.1133 31.2324 19.2135 30.3027 19.4688ZM25.873 19.7695L25.2715 19.8516V19.9609H25.4355H25.6816C26.1374 19.9609 26.3652 19.9245 26.3652 19.8516L26.2832 19.7695H25.873ZM28.0332 19.7148L28.0059 19.7695V19.7969C28.0788 19.8698 28.1517 19.9062 28.2246 19.9062V19.8516C28.1882 19.7604 28.1243 19.7148 28.0332 19.7148ZM27.541 19.7695L27.4863 19.8516L27.541 19.9062H27.6504L27.7324 19.8516V19.7695H27.541ZM28.6074 19.9062L28.4707 19.9883V20.043C28.4707 20.1159 28.7533 20.1523 29.3184 20.1523H29.3457C29.4915 20.1523 29.5645 20.0977 29.5645 19.9883C29.4915 19.9336 29.4095 19.9062 29.3184 19.9062H28.6074ZM33.748 20.1797V20.2891L33.8574 20.3984C34.0579 20.3984 34.1582 20.2526 34.1582 19.9609V19.7422L34.1035 19.6602H33.9941C33.8301 19.7878 33.748 19.9609 33.748 20.1797ZM30.084 20.207C29.9746 20.3893 29.7832 20.4805 29.5098 20.4805V20.5352C29.5098 20.6081 29.7923 20.6536 30.3574 20.6719H30.4121C30.7402 20.4167 30.9681 20.1979 31.0957 20.0156C31.0775 19.9609 30.9954 19.9518 30.8496 19.9883C30.7038 20.0065 30.4486 20.0794 30.084 20.207ZM32.0527 19.9609L31.4512 20.0156V20.0703C31.4512 20.125 31.7155 20.1523 32.2441 20.1523L32.2715 20.125V20.0977C32.235 20.0065 32.1621 19.9609 32.0527 19.9609ZM32.6816 19.9609L32.5996 20.0156L32.627 20.125H32.6816L32.7637 20.0703V20.0156L32.6816 19.9609ZM31.3965 20.3438H31.2871V20.3984H31.3965V20.3438ZM33.2832 20.7539V20.7812C33.2832 20.8177 33.3652 20.8542 33.5293 20.8906C33.7116 20.8724 33.8027 20.8268 33.8027 20.7539V20.6992L33.6934 20.6172H33.584C33.4199 20.6172 33.3197 20.6628 33.2832 20.7539ZM44.5215 14.9844L44.6309 15.0117C44.7402 15.0482 44.7311 15.7773 44.6035 17.1992H44.6309C44.6126 17.3815 43.6738 17.3815 41.8145 17.1992C39.7363 17.3268 38.3783 17.3359 37.7402 17.2266V17.1992C37.7585 17.0352 38.5514 16.9714 40.1191 17.0078C40.7572 16.9896 41.0944 16.9349 41.1309 16.8438L41.1582 16.8164L40.8848 16.7617C38.7337 16.5794 37.6217 16.707 37.5488 17.1445L37.3301 17.1992C36.7103 17.1263 36.5007 16.4427 36.7012 15.1484C36.7559 14.8203 37.4941 14.6836 38.916 14.7383C38.916 14.7018 39.0163 14.7018 39.2168 14.7383L39.7363 14.9297L39.9824 14.957L44.5215 14.9844ZM43.8926 15.3398L43.7285 15.3672L43.7012 15.4492L43.9473 15.4766H44.1113L44.1387 15.3945L43.8926 15.3398ZM42.4707 15.4766L42.8262 15.5312C42.9902 15.5677 43.0996 15.5404 43.1543 15.4492V15.4219H43.0723C42.6895 15.4036 42.4889 15.4219 42.4707 15.4766ZM40.9941 15.4766V15.5586H41.0488C41.2129 15.5951 41.3132 15.5677 41.3496 15.4766V15.4492H41.2402C41.1126 15.431 41.0306 15.4401 40.9941 15.4766ZM42.6895 16.0781L43.2637 16.1875C43.8652 16.2422 44.2025 16.2057 44.2754 16.0781V16.0234L44.1387 15.9688C43.209 15.9505 42.7259 15.987 42.6895 16.0781ZM39.6816 15.5312L39.6543 15.6406H39.709C40.11 15.6953 40.4108 15.6589 40.6113 15.5312V15.5039L40.5566 15.4766C40.3926 15.4583 40.1009 15.4766 39.6816 15.5312ZM37.248 15.1484L37.166 15.2305L37.084 15.5586L37.166 15.6406V15.668C37.2207 15.668 37.2936 15.5586 37.3848 15.3398V15.2305L37.3574 15.1484H37.248ZM38.0957 15.2578L37.959 15.3672L37.9316 15.3945L38.0957 15.4219L38.1504 15.3672L38.1777 15.2852L38.0957 15.2578ZM42.1699 16.0234H42.0879V16.0781L42.252 16.1328L42.1699 16.0234ZM41.7051 16.7891V16.8164H41.7324C43.3366 17.0169 44.1569 17.0716 44.1934 16.9805V16.9531C44.1934 16.8984 44.1478 16.8255 44.0566 16.7344H44.0293C43.4642 16.6615 42.6895 16.6797 41.7051 16.7891ZM37.1113 15.8867L37.0293 15.9414V16.0234H37.084L37.166 15.9688V15.9141L37.1113 15.8867ZM44.7402 11.5938L44.8496 11.6211C44.9954 11.6393 44.9134 12.3503 44.6035 13.7539L44.6309 13.7812C44.5762 13.9635 43.6465 13.8906 41.8418 13.5625C39.7637 13.4531 38.3965 13.3255 37.7402 13.1797L37.7676 13.0977C37.8223 12.9518 38.6061 12.9792 40.1191 13.1797C40.7936 13.2161 41.1491 13.1888 41.1855 13.0977V13.0703L40.9395 13.0156C38.8066 12.5964 37.6855 12.6055 37.5762 13.043L37.3574 13.0977C36.7559 12.9518 36.6191 12.2591 36.9473 11.0195C37.0202 10.6914 37.7676 10.6185 39.1895 10.8008C39.2077 10.7826 39.3079 10.7826 39.4902 10.8008L39.9824 11.0469L40.2012 11.1016L44.7402 11.5938ZM44.0566 11.8945H43.8926L43.8652 11.9492L44.1113 12.0312H44.3027V11.9766L44.0566 11.8945ZM42.6621 11.8945L42.9902 11.9766C43.1725 12.013 43.2819 11.9857 43.3184 11.8945L43.2637 11.8672C42.8626 11.8125 42.6621 11.8216 42.6621 11.8945ZM41.1855 11.7578V11.8125C41.3678 11.8672 41.4863 11.8581 41.541 11.7852L41.5684 11.7305L41.4043 11.7031C41.2949 11.6849 41.222 11.7031 41.1855 11.7578ZM42.8262 12.4961L43.373 12.6328C43.9382 12.7604 44.2663 12.7695 44.3574 12.6602L44.3848 12.5781L44.2754 12.5234C43.3457 12.4141 42.8626 12.4049 42.8262 12.4961ZM39.873 11.6484L39.8457 11.7578L39.873 11.7852C40.2012 11.8581 40.5111 11.849 40.8027 11.7578V11.7305L40.748 11.7031C40.5293 11.6484 40.2376 11.6302 39.873 11.6484ZM37.4941 11.0469L37.3848 11.1016L37.2754 11.457L37.3574 11.5391C37.4121 11.5391 37.4941 11.4388 37.6035 11.2383L37.6309 11.1289L37.5488 11.0469H37.4941ZM38.3145 11.2383L38.1504 11.293V11.3477L38.3145 11.4023L38.3965 11.3203V11.293L38.3145 11.2383ZM42.3066 12.3867H42.252L42.2246 12.4414L42.3613 12.4961L42.3066 12.3867ZM41.7871 13.0977L41.7598 13.1523H41.7871C43.373 13.5169 44.1842 13.6445 44.2207 13.5352L44.248 13.5078C44.248 13.4349 44.1934 13.3529 44.084 13.2617H44.0566C43.4915 13.1341 42.735 13.0794 41.7871 13.0977ZM37.2754 11.7852H37.166V11.8945H37.248L37.3301 11.8398L37.3574 11.7852H37.2754ZM62.459 2.1875L63.0605 2.10547C63.6621 2.10547 64.6009 2.32422 65.877 2.76172C66.5514 3.10807 66.8887 3.33594 66.8887 3.44531C67.5085 4.0651 67.8184 4.54818 67.8184 4.89453L68.2559 6.50781C68.0736 7.20052 67.6816 8.19401 67.0801 9.48828C66.3145 10.1263 65.1842 10.8828 63.6895 11.7578C62.4681 12.888 61.666 13.4714 61.2832 13.5078L60.1348 14.5469C58.4941 15.9688 57.6556 16.7161 57.6191 16.7891C57.4551 17.1354 57.3092 17.582 57.1816 18.1289V18.1836C57.1816 18.3294 57.6283 18.4297 58.5215 18.4844V18.5938L57.6465 18.6484V18.7578C59.2324 19.0312 60.2988 19.168 60.8457 19.168C60.8092 19.1133 60.153 18.931 58.877 18.6211V18.5391H58.9043C59.2507 18.5391 59.9798 18.6758 61.0918 18.9492L62.623 19.0586L63.9355 18.9219H64.6191C65.8223 18.9948 66.4785 19.1589 66.5879 19.4141L67.4082 19.6602L67.5723 19.7695V19.8789L67.1348 19.9883V20.0156L67.2441 20.1523H67.2988L67.6816 20.0977V20.1523C67.6452 20.9544 67.5905 21.3555 67.5176 21.3555L64.3184 21.2461H63.6621C63.2064 21.2461 62.5866 21.2917 61.8027 21.3828C59.0501 21.0547 57.1361 20.8906 56.0605 20.8906C55.7324 20.8177 55.5684 20.6536 55.5684 20.3984C55.4408 20.0703 55.377 19.6602 55.377 19.168V18.3477C55.377 16.7617 55.5592 15.7591 55.9238 15.3398L56.6074 14.9023C56.7168 14.7018 56.7715 14.5378 56.7715 14.4102C57.9382 13.4622 58.5579 12.9883 58.6309 12.9883C59.123 12.806 59.7975 12.3411 60.6543 11.5938H60.791C60.554 11.8854 60.3626 12.0312 60.2168 12.0312V12.1406H60.3809C60.6178 12.013 60.8548 11.8125 61.0918 11.5391V11.4844H60.9824V11.4023L62.9512 10.1719C63.9538 9.47917 64.7467 8.84115 65.3301 8.25781C65.7676 7.76562 66.0501 7.11849 66.1777 6.31641C66.1777 5.60547 65.877 5.06771 65.2754 4.70312C65.0749 4.63021 64.2546 4.52995 62.8145 4.40234C62.8145 4.38411 62.6686 4.36589 62.377 4.34766C61.7572 4.34766 61.1738 4.71224 60.627 5.44141C60.4811 5.76953 60.4082 6.01562 60.4082 6.17969V6.37109H60.4629C60.4629 6.53516 60.1621 6.65365 59.5605 6.72656L58.4121 6.89062V6.91797L58.248 6.89062H58.0293L57.3457 6.97266L57.291 6.86328C57.5462 5.60547 57.8288 4.82161 58.1387 4.51172C59.1777 3.5638 59.9069 3.07161 60.3262 3.03516C60.6361 2.76172 61.347 2.47917 62.459 2.1875ZM63.5527 2.37891H63.2793V2.43359L63.4434 2.65234H63.6895L63.7988 2.51562V2.48828C63.7806 2.41536 63.6986 2.37891 63.5527 2.37891ZM61.8027 2.78906V2.84375H61.8301C62.5775 2.84375 62.9512 2.76172 62.9512 2.59766L62.8145 2.48828H62.4863C62.0306 2.59766 61.8027 2.69792 61.8027 2.78906ZM65.2207 2.67969H65.1934V2.73438C65.1934 2.84375 65.4303 2.95312 65.9043 3.0625V3.03516C65.9043 2.92578 65.6764 2.80729 65.2207 2.67969ZM60.791 3.19922V3.28125H61.1465L61.2559 3.17188V3.14453L61.0918 3.11719C60.8913 3.15365 60.791 3.18099 60.791 3.19922ZM61.1738 4.23828L61.0918 4.34766V4.40234H61.2559L61.3379 4.29297V4.23828H61.1738ZM65.9316 4.29297L65.877 4.34766V4.40234C65.9499 4.52995 66.0501 4.59375 66.1777 4.59375H66.2051C66.2598 4.59375 66.2871 4.55729 66.2871 4.48438C66.2871 4.39323 66.1868 4.32943 65.9863 4.29297H65.9316ZM66.3418 4.70312V4.75781C66.6699 4.79427 66.834 4.9401 66.834 5.19531L66.998 5.38672V5.19531C66.998 4.79427 66.8704 4.59375 66.6152 4.59375C66.4512 4.59375 66.36 4.63021 66.3418 4.70312ZM60.2988 5.25L60.3535 5.30469H60.3809C60.6543 5.15885 60.791 5.01302 60.791 4.86719V4.83984H60.6816C60.6087 4.83984 60.4811 4.97656 60.2988 5.25ZM59.5332 5.98828H59.3965V6.09766L59.5059 6.125H59.5332V5.98828ZM67.5176 6.91797L67.4082 7.05469V7.13672H67.4629L67.5449 7.05469V6.91797H67.5176ZM66.8887 8.01172H66.752V8.14844C66.8796 8.14844 66.9434 8.20312 66.9434 8.3125H67.0254V8.14844L66.8887 8.01172ZM66.3965 8.99609L66.4238 9.05078V9.07812C66.5332 9.02344 66.6426 8.91406 66.752 8.75V8.69531H66.6973C66.5697 8.76823 66.4694 8.86849 66.3965 8.99609ZM65.6582 9.54297H65.7129L66.0137 9.48828C66.0137 9.34245 65.9499 9.26953 65.8223 9.26953C65.7129 9.28776 65.6582 9.37891 65.6582 9.54297ZM65.6035 10.0625V10.1172C65.9499 10.0807 66.2689 9.88932 66.5605 9.54297L66.5059 9.48828C66.0866 9.70703 65.7858 9.89844 65.6035 10.0625ZM64.373 10.582L64.291 10.6094V10.7188H64.3457L64.4277 10.6367L64.373 10.6094V10.582ZM60.1074 13.8633V13.9453H60.1895C60.2988 13.9453 60.5449 13.7812 60.9277 13.4531C61.0189 13.4531 61.11 13.3438 61.2012 13.125L61.2559 13.0977V13.0156H61.1738C60.9551 13.0156 60.5996 13.2982 60.1074 13.8633ZM58.3848 13.7266V13.8086H58.4121C58.6491 13.8086 58.8405 13.6263 58.9863 13.2617H58.8496C58.5397 13.5169 58.3848 13.6719 58.3848 13.7266ZM57.4824 14.2188H57.127L57.1543 14.4922C56.8991 14.7474 56.7715 14.9115 56.7715 14.9844H56.8809C57.209 14.8021 57.4368 14.5742 57.5645 14.3008V14.2461L57.4824 14.2188ZM59.5332 14.4922L59.3965 14.5742V14.6562H59.5059L59.6152 14.5469V14.4922H59.5332ZM57.3457 16.0508V16.1602H57.4277C57.6283 16.0143 57.7285 15.8685 57.7285 15.7227V15.6953H57.6465C57.446 15.8047 57.3457 15.9232 57.3457 16.0508ZM56.6074 18.9766L56.5254 19.0586V19.168L56.6074 19.2773L56.6621 19.168V19.0586L56.6074 18.9766ZM57.3457 19.0586L57.2363 19.1406L57.291 19.168H57.6465V19.0859L57.4551 19.0586H57.3457ZM64.7832 19.2773L64.5918 19.3047V19.332L64.7012 19.4414H65.0566L65.1387 19.3867V19.3047L64.7832 19.2773ZM55.8691 19.8242L55.7598 19.8789V19.9062L55.8418 19.9883H55.8691L55.9512 19.9062L55.8691 19.8242ZM56.4434 20.3984V20.4258L56.6621 20.4531C56.9355 20.4167 57.0723 20.3802 57.0723 20.3438L57.0449 20.2891H56.6621C56.5163 20.3255 56.4434 20.362 56.4434 20.3984ZM65.3027 20.6992H65.6035C65.8587 20.6628 65.9863 20.6172 65.9863 20.5625L65.9043 20.4531H65.7402C65.6491 20.4531 65.5033 20.5352 65.3027 20.6992ZM66.2871 20.8633L66.3965 20.918H66.6973C66.9707 20.918 67.1074 20.8724 67.1074 20.7812V20.7539C67.1074 20.6992 67.071 20.6719 66.998 20.6719C66.5605 20.6901 66.3236 20.7539 66.2871 20.8633Z" fill="white"/>
</svg>
