<svg width="284" height="222" viewBox="0 0 284 222" fill="none" xmlns="http://www.w3.org/2000/svg">
<path d="M68.3122 114.249C76.4092 112.91 85.2302 116.564 88.6285 118.559C88.8132 119.023 89.6111 120.933 91.325 124.863C95.728 132.931 104.709 134.496 108.649 134.271C98.6507 153.38 72.523 123.422 68.3122 114.249Z" fill="#B75800"/>
<path d="M135.618 98.8881C143.874 111.591 142.072 127.197 131.88 133.822C121.688 140.446 106.694 135.757 98.4376 123.054C90.1808 110.351 91.9836 94.7447 102.175 88.1204C112.367 81.4961 127.361 86.1848 135.618 98.8881Z" fill="#282828" stroke="#282828"/>
<path d="M105.85 134.088C86.834 132.088 86.0872 109.481 88.0498 98.4536L118.679 78.5454C144.845 91.7252 148.417 103.856 143.406 112.824C138.396 121.791 131.034 120.865 126.642 113.929C123.129 108.381 128.768 102.913 132.026 100.873C126.081 91.8699 120.342 92.1889 118.141 93.4643C113.523 103.575 106.403 100.51 101.18 104.488C97.0011 107.671 100.747 116.075 103.142 119.88C111.558 115.901 115.825 118.474 116.907 120.257C121.144 125.7 124.865 136.087 105.85 134.088Z" fill="#282828" stroke="#B75800"/>
<path d="M88.6288 118.559C88.4713 115.299 95.9347 109.14 99.6861 106.468C105.042 103.57 116.678 96.8246 120.372 93.0225C124.99 88.2697 131.479 90.7078 134.68 88.627C125.381 81.2193 119.207 78.8337 117.282 78.5669C108.917 83.3032 91.5918 93.5834 89.208 96.8143C86.2281 100.853 87.4838 111.947 88.6288 118.559Z" fill="#B75800" stroke="#B75800"/>
<circle cx="84.6553" cy="83.7598" r="6.92695" transform="rotate(-33.0228 84.6553 83.7598)" fill="white" stroke="white"/>
<circle cx="106.287" cy="69.6999" r="6.92695" transform="rotate(-33.0228 106.287 69.6999)" fill="white" stroke="white"/>
<circle cx="103.382" cy="88.7213" r="17.7742" transform="rotate(-33.0228 103.382 88.7213)" fill="#B75800" stroke="#282828"/>
<circle cx="108.951" cy="97.3935" r="6.92695" transform="rotate(-33.0228 108.951 97.3935)" fill="white" stroke="white"/>
<circle cx="97.901" cy="84.8587" r="0.968555" transform="rotate(-33.0228 97.901 84.8587)" fill="white" stroke="white"/>
<circle cx="102.333" cy="81.9774" r="0.968555" transform="rotate(-33.0228 102.333 81.9774)" fill="white" stroke="white"/>
<path d="M109.481 97.9268C111.293 99.1217 115.078 100.062 115.725 94.2638" stroke="#282828"/>
<path d="M109.481 97.9268C109.799 100.093 109 104.012 103.271 102.359" stroke="#282828"/>
<path d="M108.083 97.5494L106.84 97.3943C105.452 97.221 105.036 95.4103 106.208 94.6481L107.814 93.6044C108.987 92.8422 110.472 93.958 110.067 95.2966L109.704 96.4955C109.493 97.1949 108.808 97.64 108.083 97.5494Z" fill="#282828" stroke="#282828"/>
<circle cx="96.8512" cy="90.8678" r="3.11575" transform="rotate(-33.0228 96.8512 90.8678)" fill="#B75800" stroke="white"/>
<circle cx="107.995" cy="83.6249" r="3.11575" transform="rotate(-33.0228 107.995 83.6249)" fill="#B75800" stroke="white"/>
<path d="M120.195 131.336C122.782 132.191 124.879 133.635 126.184 135.252C127.493 136.874 127.967 138.61 127.471 140.111C126.975 141.612 125.559 142.723 123.541 143.245C121.528 143.765 118.985 143.674 116.398 142.819C113.81 141.963 111.714 140.52 110.409 138.902C109.099 137.28 108.625 135.544 109.122 134.043C109.618 132.542 111.034 131.431 113.052 130.909C115.064 130.389 117.608 130.48 120.195 131.336Z" fill="#282828" stroke="#B75800"/>
<path d="M135.22 121.569C134.951 124.281 135.42 126.783 136.368 128.632C137.318 130.488 138.713 131.626 140.286 131.781C141.859 131.937 143.449 131.095 144.745 129.462C146.038 127.834 146.987 125.473 147.256 122.761C147.525 120.05 147.056 117.548 146.108 115.698C145.158 113.843 143.763 112.705 142.19 112.549C140.617 112.393 139.027 113.236 137.731 114.868C136.438 116.496 135.489 118.858 135.22 121.569Z" fill="#282828" stroke="#B75800"/>
<path d="M102.456 106.419C100.91 104.902 99.1689 99.5646 98.898 97.1718C97.1988 98.5097 93.2168 100.935 92.803 102.885C95.8689 105.446 99.9322 106.308 102.456 106.419Z" fill="white" stroke="white"/>
<path d="M119.941 95.0542C119.182 93.025 115.012 89.267 112.935 88.048C114.848 87.0383 118.68 84.3837 120.631 84.7975C121.726 88.6392 120.864 92.7024 119.941 95.0542Z" fill="white" stroke="white"/>
<path d="M101.25 114.256C98.6251 114.769 90.3649 112.886 86.563 111.88C85.9281 111.288 90.5144 105.741 92.8869 103.041C88.867 97.371 78.7658 89.5357 70.5202 103.557C60.2133 121.084 61.7569 123.29 62.2221 134.358C62.5943 143.213 70.922 146.237 75.0393 146.642C85.4373 149.452 92.0728 140.887 91.924 140.331C93.8663 141.359 107.115 136.142 105.525 132.877C104.254 130.264 98.84 131.373 96.2921 132.255C95.867 129.405 94.6081 126.532 93.7875 125.067C94.9878 125.102 101.633 118.797 102.731 119.336C103.828 119.876 109.157 121.544 110.327 121.469C111.264 121.408 110.833 120.394 110.501 119.895C111.04 120.102 111.553 120.1 111.859 119.629C112.702 118.332 110.307 116.949 110.271 116.816C112.572 117.51 111.871 116.504 111.735 115.614C111.578 114.584 104.532 113.615 101.25 114.256Z" fill="#A5A9A3"/>
<path d="M108.958 116.358C109.478 116.557 109.911 116.707 110.271 116.816M110.271 116.816C112.572 117.51 111.871 116.504 111.735 115.614C111.578 114.584 104.532 113.615 101.25 114.256C98.6251 114.769 90.3649 112.886 86.563 111.88C85.9281 111.288 90.5144 105.741 92.8869 103.041C88.867 97.371 78.7658 89.5357 70.5202 103.557C60.2133 121.084 61.7569 123.29 62.2221 134.358C62.5943 143.213 70.922 146.237 75.0393 146.642C85.4373 149.452 92.0728 140.887 91.924 140.331M110.271 116.816C110.307 116.949 112.702 118.332 111.859 119.629C111.553 120.1 111.04 120.102 110.501 119.895M108.746 118.677C109.159 119.087 109.85 119.644 110.501 119.895M110.501 119.895C110.833 120.394 111.264 121.408 110.327 121.469C109.157 121.544 103.828 119.876 102.731 119.336C101.633 118.797 94.9878 125.102 93.7875 125.067M93.7875 125.067C92.8761 125.04 87.6671 118.199 82.3763 122.03M93.7875 125.067C94.6081 126.532 95.867 129.405 96.2921 132.255M77.4563 129.443C79.0151 125.53 80.6998 123.244 82.3763 122.03M82.3763 122.03C79.9483 120.227 75.0724 116.102 74.9929 114.028M96.1791 136.214C96.5082 135.008 96.4978 133.634 96.2921 132.255M96.2921 132.255C98.84 131.373 104.254 130.264 105.525 132.877C107.115 136.142 93.8663 141.359 91.924 140.331M91.924 140.331C89.9816 139.304 88.6341 133.83 88.8185 133.185" stroke="black"/>
<path d="M97.9469 90.3738C100.924 101.484 95.8866 102.238 92.9959 101.226C92.9605 104.649 91.1962 111.663 84.4223 112.335C75.955 113.175 72.5243 106.593 71.8694 104.148C69.9647 103.706 61.3502 99.1082 64.3949 92.6959C67.4397 86.2836 76.3854 89.0067 76.7942 90.088C79.5779 88.3895 84.374 88.4539 86.4241 88.6984C89.0107 83.2424 97.1431 87.3742 97.9469 90.3738Z" fill="#A5A9A3"/>
<path d="M91.6324 94.8043C94.1912 98.3101 96.0566 95.7622 96.6695 94.05C94.8361 91.2072 96.2985 93.5541 94.5028 91.2965C91.5367 89.1144 89.5768 92.0211 89.3328 92.4437C91.1183 92.4415 91.7196 93.3521 91.9497 93.7667C92.1799 94.1813 91.8764 94.3817 91.6324 94.8043Z" fill="#C97A7A" fill-opacity="0.65"/>
<path d="M71.3866 97.0143C68.9664 99.0917 68.5736 98.9588 67.1867 97.7824C66.1092 95.0943 66.2798 95.2867 66.4388 94.1023C67.8389 91.7731 70.7514 92.4216 72.1047 92.5841C70.7237 94.096 70.7476 95.5185 70.7556 95.9926C70.7636 96.4668 70.964 96.7703 71.3866 97.0143Z" fill="#C97A7A" fill-opacity="0.65"/>
<path d="M86.4241 88.6984C89.0107 83.2424 97.1431 87.3742 97.9469 90.3738C100.924 101.484 95.8866 102.238 92.9959 101.226C92.9605 104.649 91.1962 111.663 84.4223 112.335C75.955 113.175 72.5243 106.593 71.8694 104.148C69.9647 103.706 61.3502 99.1082 64.3949 92.6959C67.4397 86.2836 76.3854 89.0067 76.7942 90.088M86.4241 88.6984C83.8375 94.1544 91.6781 95.8639 91.9577 94.241C92.1814 92.9427 90.301 92.5019 89.3328 92.4438C90.4642 90.5927 93.5273 88.3669 96.7291 94.2723M86.4241 88.6984C84.374 88.4539 79.5779 88.3895 76.7942 90.088M76.7942 90.088C77.203 91.1692 74.44 97.7441 71.7795 97.1472C69.6511 96.6696 71.1014 93.8758 72.0925 92.5385C69.4356 92.0597 64.6768 92.3108 66.897 97.1456" stroke="#282828"/>
<path d="M86.0984 107.48C86.4812 110.331 85.0995 110.566 84.3608 110.327C82.4943 110.827 81.898 109.876 81.8332 109.337C81.726 108.493 81.4802 106.598 81.3547 105.774C81.1979 104.745 82.041 103.447 83.515 103.171C84.6942 102.951 85.6081 104.317 85.9177 105.028C85.9898 105.445 86.1269 106.52 86.0984 107.48Z" fill="#282828"/>
<circle r="0.805114" transform="matrix(-0.965926 0.258819 0.258819 0.965926 87.9668 102.455)" fill="#392821"/>
<circle r="0.805114" transform="matrix(-0.965926 0.258819 0.258819 0.965926 78.0115 104.408)" fill="#392821"/>
<circle cx="71.5" cy="159.5" r="37.5" fill="#F9F9F9"/>
<ellipse cx="71.5" cy="164" rx="34.5" ry="31" fill="#078EC8" fill-opacity="0.37"/>
<path d="M85.4999 136.5C82.9999 139 79.1796 141 71.9999 141C64.8202 141 58.5001 138.985 58.5001 136.5C54.5 135.5 64.8202 133 71.9999 133C79.1796 133 89.4999 136 85.4999 136.5Z" fill="#D5E9F2"/>
<path d="M87.5 132.5C87.5 134.876 85.8749 137.115 83.0584 138.788C80.2527 140.453 76.3442 141.5 72 141.5C67.6558 141.5 63.7473 140.453 60.9416 138.788C58.1251 137.115 56.5 134.876 56.5 132.5C56.5 130.124 58.1251 127.885 60.9416 126.212C63.7473 124.547 67.6558 123.5 72 123.5C76.3442 123.5 80.2527 124.547 83.0584 126.212C85.8749 127.885 87.5 130.124 87.5 132.5Z" stroke="#E7E7E7"/>
<path d="M62.9999 172C56.9999 175.6 52.4999 173.5 50.9999 172C50.6666 171.5 50.2999 170.2 51.4999 169C57.0999 164.2 61.8333 167 63.4999 169C63.9999 168.667 65.3999 167.8 66.9999 167C68.5999 169 67.6666 173.167 66.9999 175C66.1666 174.333 64.1999 172.8 62.9999 172Z" fill="#EC6D25"/>
<path d="M57.5 172.5C58.5 172.167 60 171.3 58 170.5C59 170 60 169 57.5 169" stroke="#A34A18" stroke-width="0.5"/>
<circle cx="53.5" cy="169.5" r="0.5" fill="#282828"/>
<path d="M86.3261 181.65C80.3261 185.25 75.8261 183.15 74.3261 181.65C73.9928 181.15 73.6261 179.85 74.8261 178.65C80.4261 173.85 85.1594 176.65 86.8261 178.65C87.3261 178.317 88.7261 177.45 90.3261 176.65C91.9261 178.65 90.9928 182.817 90.3261 184.65C89.4928 183.984 87.5261 182.45 86.3261 181.65Z" fill="#86AD73"/>
<path d="M80.8262 182.15C81.8262 181.817 83.3262 180.95 81.3262 180.15C82.3262 179.65 83.3262 178.65 80.8262 178.65" stroke="#416B2C" stroke-width="0.5"/>
<circle cx="76.8262" cy="179.15" r="0.5" fill="#282828"/>
<path d="M76.8834 159.65C82.8834 163.25 87.3834 161.15 88.8834 159.65C89.2167 159.15 89.5834 157.85 88.3834 156.65C82.7834 151.85 78.05 154.65 76.3834 156.65C75.8834 156.317 74.4834 155.45 72.8834 154.65C71.2834 156.65 72.2167 160.817 72.8834 162.65C73.7167 161.984 75.6834 160.45 76.8834 159.65Z" fill="#EAAECE"/>
<path d="M82.3833 160.15C81.3833 159.817 79.8833 158.95 81.8833 158.15C80.8833 157.65 79.8833 156.65 82.3833 156.65" stroke="#B8608F" stroke-width="0.5"/>
<circle r="0.5" transform="matrix(-1 0 0 1 86.3833 157.15)" fill="#282828"/>
<path d="M164.258 68.387C163.548 67.7023 159.361 67.5882 157.356 67.6167H156.074C155.022 67.9876 153.411 68.5924 155.384 68.0446C157.849 67.36 162.089 68.387 164.258 68.387Z" fill="#683A0F" stroke="#282828"/>
<path d="M143.871 28.2581C146.451 27.8452 147.785 21.5484 148.129 18.4517C158.15 19.1398 178.271 20.6452 178.58 21.1613C178.967 21.8065 178.838 24.7742 178.838 26.3226C179.226 27.742 178.193 37.4194 177.548 40.7742C177.032 45.8065 173.935 52.5162 172.387 55.6129C168.051 63.3549 161.72 66.4086 159.097 66.9678C158.451 67.1828 157.178 67.6129 157.032 67.6129C156.774 67.6129 154.838 68 151.613 68.1291C141.161 68 126.838 61.0323 125.677 60.3871C129.161 58.3226 129.419 56.9033 129.29 56.9033C127.871 57.6775 125.29 58.3226 123.613 58.0646C121.935 57.8065 121.419 56.2581 121.29 55.871C120.387 56.6452 117.161 57.6775 116.258 57.9355C119.484 55.871 120.129 53.1613 120.516 51.871C120.413 50.0129 122.279 47.3119 123.226 46.1936C134.451 33.6775 142.193 29.1613 143.871 28.2581Z" fill="#FFFEFE"/>
<circle cx="163.871" cy="16.129" r="15.629" fill="white" stroke="#C2E2F0"/>
<path d="M163.871 25.9578L162.865 22.4739L164.877 22.4739L163.871 25.9578Z" fill="#282828"/>
<path d="M152.39 17.0599C152.707 16.2141 152.179 16.1083 152.707 16.0026C152.859 15.9722 153.568 16.2119 154.505 16.5915C155.291 16.9101 156.237 17.3273 157.148 17.7663C158.409 18.3737 158.123 18.1586 158.734 18.646C155.668 19.933 155.562 19.5976 154.822 19.5976C153.616 19.5976 152.319 18.3992 152.39 17.0599Z" fill="#B7A92D"/>
<path d="M154.504 16.637C154.963 18.082 156.133 20.3377 157.148 17.8C156.386 17.3771 155.068 16.8484 154.504 16.637Z" fill="#282828"/>
<path d="M159.791 21.1836C160.109 21.1131 160.722 20.7818 160.637 20.0205C160.623 19.8883 158.989 18.8491 158.734 18.646M158.734 18.646C155.668 19.933 155.562 19.5976 154.822 19.5976C153.616 19.5976 152.319 18.3992 152.39 17.0599C152.707 16.2141 152.179 16.1083 152.707 16.0026C152.859 15.9722 153.568 16.2119 154.505 16.5915M158.734 18.646C158.123 18.1586 158.409 18.3737 157.148 17.7663M154.505 16.5915C155.291 16.9101 156.237 17.3273 157.148 17.7663M154.505 16.5915C154.963 18.0645 156.133 20.3615 157.148 17.7663" stroke="#282828"/>
<path d="M174.836 17.0599C174.519 16.2141 175.048 16.1083 174.519 16.0026C174.367 15.9722 173.658 16.2119 172.721 16.5915C171.935 16.9101 170.989 17.3273 170.078 17.7663C168.817 18.3737 169.103 18.1586 168.492 18.646C171.558 19.933 171.664 19.5976 172.404 19.5976C173.61 19.5976 174.907 18.3992 174.836 17.0599Z" fill="#B7A92D"/>
<path d="M172.721 16.637C172.263 18.082 171.093 20.3377 170.078 17.8C170.839 17.3771 172.158 16.8484 172.721 16.637Z" fill="#282828"/>
<path d="M167.435 21.1836C167.117 21.1131 166.504 20.7818 166.589 20.0205C166.603 19.8883 168.237 18.8491 168.492 18.646M168.492 18.646C171.558 19.933 171.664 19.5976 172.404 19.5976C173.61 19.5976 174.907 18.3992 174.836 17.0599C174.519 16.2141 175.048 16.1083 174.519 16.0026C174.367 15.9722 173.658 16.2119 172.721 16.5915M168.492 18.646C169.103 18.1586 168.817 18.3737 170.078 17.7663M172.721 16.5915C171.935 16.9101 170.989 17.3273 170.078 17.7663M172.721 16.5915C172.263 18.0645 171.093 20.3615 170.078 17.7663" stroke="#282828"/>
<line x1="152.99" y1="14.1928" x2="152.216" y2="12.9025" stroke="#C2E2F0"/>
<line y1="-0.5" x2="1.50476" y2="-0.5" transform="matrix(0.514496 -0.857493 -0.857493 -0.514496 173.032 13.9355)" stroke="#C2E2F0"/>
<line x1="154.568" y1="11.6547" x2="153.793" y2="10.6225" stroke="#C2E2F0"/>
<line x1="163.5" y1="19.8711" x2="163.5" y2="18.5808" stroke="#C2E2F0"/>
<line x1="172.299" y1="11.1366" x2="172.698" y2="9.90977" stroke="#C2E2F0"/>
<path d="M148.129 18.4517C147.871 21.4624 146.477 27.742 144 28.2581C141.591 28.76 128.875 39.3346 123.285 46.1936M141.29 36.3871C139.868 38.8097 138.342 40.9979 136.763 42.9678M121.29 55.9178C119.158 57.0239 117.326 57.7186 116 58.0645C117.505 57.2043 120.542 54.5549 120.645 50.8387C120.674 49.8071 121.689 48.1518 123.285 46.1936M121.29 55.9178C121.76 57.6966 123.99 59.4161 129.29 56.8583M121.29 55.9178C123.844 54.5929 126.83 52.6777 129.893 50.0646M138.636 49.9684C136.994 51.419 135.526 52.6503 134.194 53.6795M129.29 56.8583C131.704 58.4237 137.619 59.5456 145.29 54.9175M129.29 56.8583C130.731 56.163 132.33 55.1189 134.194 53.6795M152.645 49.0323C152.002 49.675 151.367 50.2764 150.738 50.8387M145.29 54.9175C149.72 55.7084 159.51 55.2 163.226 46.8387M145.29 54.9175C147.023 53.8718 148.846 52.5326 150.738 50.8387M123.285 46.1936C123.222 48.3871 124.852 50.9678 131.871 43.742M129.893 50.0646C130.251 51.871 133.574 53.7549 144 46.8387M129.893 50.0646C132.189 48.1061 134.528 45.7556 136.763 42.9678M134.194 53.6795C134.968 56.1304 138.013 59.1226 144 51.4839M150.738 50.8387C151.331 52.2151 153.884 53.342 159.355 46.8387M136.763 42.9678C136.853 45.2043 138.684 48.1033 145.29 41.8065" stroke="#C2E2F0"/>
<path d="M178.71 21.6775C179.828 39.0968 175.071 72.671 146.064 67.613C138.323 65.9613 129.161 62.1076 125.548 60.3872C126.667 59.785 129.006 58.2452 129.419 56.9033" stroke="#C2E2F0"/>
<path d="M162.581 69.2903C161.652 68.258 156.172 68.086 153.548 68.129H151.871C150.495 68.6881 148.387 69.5999 150.968 68.7741C154.194 67.7419 159.742 69.2903 162.581 69.2903Z" fill="#683A0F" stroke="#282828"/>
<path d="M153.677 9.41937C152.86 8.00002 152.052 5.67744 155.355 7.74195" stroke="#C2E2F0"/>
<path d="M154.799 24.1184C153.481 25.0906 151.264 26.1563 152.943 22.6411" stroke="#C2E2F0"/>
<path d="M173.367 9.31981C173.93 7.78186 174.331 5.35539 171.428 7.95312" stroke="#C2E2F0"/>
<path d="M171.697 24.4322C173.208 25.0628 175.615 25.5701 173.148 22.5556" stroke="#C2E2F0"/>
<path d="M164.886 5.63208C164.461 4.0506 163.39 1.83652 162.514 5.63208" stroke="#C2E2F0"/>
<path d="M162.732 4.98562C161.582 3.80149 159.558 2.3902 160.661 6.21815" stroke="#C2E2F0"/>
<path d="M167.084 5.94446C167.306 4.3087 167.106 1.80175 164.774 5.03221" stroke="#C2E2F0"/>
<path d="M182.961 149.749L178.351 150.891L179.706 146.339L182.961 149.749Z" fill="white" stroke="#393939" stroke-width="0.2"/>
<path d="M181.313 147.38L176.206 147.365L179.137 143.183L181.313 147.38Z" fill="white" stroke="#393939" stroke-width="0.2"/>
<path d="M186.551 150.862L183.043 154.036L182.068 149.406L186.551 150.862Z" fill="white" stroke="#393939" stroke-width="0.2"/>
<path d="M190.547 148.99L189.116 153.516L185.94 149.988L190.547 148.99Z" fill="white" stroke="#393939" stroke-width="0.2"/>
<path d="M200.691 186.302L197.163 188.248L196.482 184.276L200.691 186.302Z" fill="white" stroke="#393939" stroke-width="0.2"/>
<path d="M207.078 188.479L203.917 190.676L202.65 187.041L207.078 188.479Z" fill="white" stroke="#393939" stroke-width="0.2"/>
<path d="M214.618 188.768L212.318 192.118L209.945 188.82L214.618 188.768Z" fill="white" stroke="#393939" stroke-width="0.2"/>
<path d="M246.88 186.302L250.408 188.248L251.089 184.276L246.88 186.302Z" fill="white" stroke="#393939" stroke-width="0.2"/>
<path d="M240.493 188.479L243.654 190.676L244.921 187.041L240.493 188.479Z" fill="white" stroke="#393939" stroke-width="0.2"/>
<path d="M232.953 188.768L235.253 192.118L237.627 188.82L232.953 188.768Z" fill="white" stroke="#393939" stroke-width="0.2"/>
<path d="M262.496 121.456C262.496 148.723 245.286 170.605 224.299 170.605C203.313 170.605 186.103 148.723 186.103 121.456C186.103 94.1891 203.313 72.3076 224.299 72.3076C245.286 72.3076 262.496 94.1891 262.496 121.456Z" fill="white" stroke="#C2E2F0"/>
<path d="M193.531 144.948L194.676 149.717L190.038 148.122L193.531 144.948Z" fill="white" stroke="#393939" stroke-width="0.2"/>
<path d="M266.185 149.829L271.031 151.188L269.448 146.411L266.185 149.829Z" fill="white" stroke="#393939" stroke-width="0.2"/>
<path d="M267.877 147.45L273.342 147.613L270.059 143.241L267.877 147.45Z" fill="white" stroke="#393939" stroke-width="0.2"/>
<path d="M262.536 150.926L266.106 154.28L267.025 149.468L262.536 150.926Z" fill="white" stroke="#393939" stroke-width="0.2"/>
<path d="M259.081 148.644L259.6 153.299L263.39 150.548L259.081 148.644Z" fill="white" stroke="#393939" stroke-width="0.2"/>
<path d="M255.55 144.936L254.439 149.668L259.043 148.109L255.55 144.936Z" fill="white" stroke="#393939" stroke-width="0.2"/>
<path d="M205.252 121.089C202.839 130.415 199.213 138.461 195.319 143.932C193.371 146.669 191.372 148.739 189.445 150.008C187.518 151.277 185.711 151.717 184.103 151.301C182.496 150.885 181.129 149.624 180.059 147.579C178.99 145.535 178.245 142.755 177.87 139.416C177.118 132.744 177.851 123.948 180.264 114.623C182.677 105.297 186.303 97.2509 190.196 91.7801C192.144 89.0432 194.144 86.9733 196.071 85.7041C197.998 84.4349 199.805 83.9955 201.412 84.4115C203.02 84.8275 204.387 86.088 205.456 88.1328C206.526 90.1776 207.27 92.9574 207.646 96.2956C208.398 102.968 207.665 111.764 205.252 121.089Z" fill="white" stroke="#C2E2F0"/>
<path d="M244.515 121.089C246.928 130.415 250.554 138.461 254.448 143.932C256.396 146.669 258.395 148.739 260.322 150.008C262.25 151.277 264.056 151.717 265.664 151.301C267.271 150.885 268.638 149.624 269.708 147.579C270.777 145.535 271.522 142.755 271.898 139.416C272.649 132.744 271.917 123.948 269.503 114.623C267.09 105.297 263.464 97.2509 259.571 91.7801C257.623 89.0432 255.623 86.9733 253.696 85.7041C251.769 84.4349 249.962 83.9955 248.355 84.4115C246.747 84.8275 245.38 86.088 244.311 88.1328C243.241 90.1776 242.497 92.9574 242.121 96.2956C241.369 102.968 242.102 111.764 244.515 121.089Z" fill="white" stroke="#C2E2F0"/>
<circle cx="199.475" cy="41.8724" r="13.3724" fill="white" stroke="#C2E2F0"/>
<circle cx="250.584" cy="41.8724" r="13.3724" fill="white" stroke="#C2E2F0"/>
<circle cx="225.029" cy="68.887" r="30.1653" fill="white" stroke="#C2E2F0"/>
<ellipse cx="213.624" cy="60.5714" rx="4.02116" ry="3.61905" fill="#282828"/>
<circle cx="237.349" cy="60.5714" r="3.61905" fill="#282828"/>
<path d="M225.688 77.8623C227.521 81.9549 233.145 87.8209 240.968 78.5444" stroke="#282828"/>
<path d="M225.688 77.8623C223.758 81.9549 217.838 87.8209 209.603 78.5444" stroke="#282828"/>
<path d="M226.576 78.3826C225.831 79.0112 224.741 79.0112 223.996 78.3826L215.886 71.5392C214.461 70.3368 215.311 68.0106 217.176 68.0106L233.396 68.0106C235.26 68.0106 236.111 70.3368 234.686 71.5392L226.576 78.3826Z" fill="#282828"/>
<path d="M197.285 184.977C191.444 181.473 199.232 169.401 203.856 163.804C207.361 167.892 216.884 170.265 221.265 170.751C220.778 175.862 219.626 186.146 218.458 187.898C216.998 190.088 204.586 189.358 197.285 184.977Z" fill="white" stroke="#C2E2F0"/>
<path d="M250.584 184.977C256.425 181.473 248.637 169.401 244.013 163.804C240.508 167.892 230.873 170.265 226.492 170.751C226.979 175.862 228.242 186.146 229.41 187.898C230.871 190.088 243.283 189.358 250.584 184.977Z" fill="white" stroke="#C2E2F0"/>
<ellipse cx="157.575" cy="144.516" rx="38.5953" ry="47.246" fill="white"/>
<path d="M120.175 167.141C94.888 146.645 114.796 113.684 127.827 99.7654H190.015C215.135 142.852 208.98 163.481 193.509 171.633C178.037 179.784 168.388 171.633 168.555 157.658C168.688 146.479 181.808 143.906 188.352 144.017C188.218 125.651 179.731 120.782 175.406 120.56C159.435 130.708 152.116 119.728 140.969 120.56C132.053 121.226 129.602 136.697 129.491 144.35C145.195 146.479 148.899 154.109 148.788 157.658C149.787 169.359 145.461 187.636 120.175 167.141Z" fill="#282828"/>
<circle cx="136.614" cy="75.6433" r="12.6433" fill="#282828"/>
<circle cx="180.533" cy="75.6433" r="12.6433" fill="#282828"/>
<circle cx="158.74" cy="100.098" r="30.6092" fill="white" stroke="#282828"/>
<path d="M158.906 118.897C160.383 122.283 164.914 127.137 171.217 119.461" stroke="#282828"/>
<path d="M158.906 118.897C157.349 122.283 152.574 127.137 145.93 119.461" stroke="#282828"/>
<path d="M160.195 118.475C159.451 119.103 158.362 119.103 157.617 118.475L152.142 113.858C150.716 112.656 151.566 110.329 153.431 110.329L164.381 110.329C166.246 110.329 167.096 112.656 165.67 113.858L160.195 118.475Z" fill="#282828"/>
<circle cx="147.427" cy="97.1035" r="6.15529" fill="#282828"/>
<circle cx="170.052" cy="97.1035" r="6.15529" fill="#282828"/>
<path d="M143.477 176.302C146.412 179.968 148.097 184.036 148.467 187.632C148.839 191.234 147.892 194.29 145.666 196.072C143.441 197.853 140.251 198.108 136.818 196.957C133.391 195.808 129.79 193.275 126.855 189.608C123.921 185.942 122.236 181.875 121.865 178.279C121.494 174.677 122.441 171.62 124.666 169.839C126.892 168.057 130.081 167.802 133.515 168.953C136.942 170.102 140.543 172.636 143.477 176.302Z" fill="#282828" stroke="white"/>
<path d="M173.436 176.302C170.501 179.968 168.817 184.036 168.446 187.632C168.074 191.234 169.021 194.29 171.247 196.072C173.472 197.853 176.662 198.108 180.095 196.957C183.523 195.808 187.123 193.275 190.058 189.608C192.993 185.942 194.677 181.875 195.048 178.279C195.419 174.677 194.472 171.62 192.247 169.839C190.021 168.057 186.832 167.802 183.398 168.953C179.971 170.102 176.37 172.636 173.436 176.302Z" fill="#282828" stroke="white"/>
<path fill-rule="evenodd" clip-rule="evenodd" d="M189.268 170.643L189.06 172.659V173.811L189.476 176.21L190.204 177.842L190.932 178.898L192.18 179.954L193.74 180.434L195.612 180.53L196.86 180.434L198.315 179.954L199.459 178.994L200.395 177.938L200.811 176.69L201.123 175.154L201.227 173.043V171.507L201.123 170.739L201.019 170.451L199.459 169.779L198.523 168.915L196.964 167.379L196.34 165.939L195.404 163.348H194.988L194.468 165.171L193.532 166.995L192.492 168.531L191.66 169.203L190.204 170.163L189.268 170.643Z" fill="#922525"/>
<path fill-rule="evenodd" clip-rule="evenodd" d="M181.261 126.007L179.181 123.032L176.998 120.728L174.814 119.288L173.15 119L171.902 119.48L170.758 120.824L165.247 133.687L161.191 143.958L160.151 146.453V147.893L160.359 149.621L162.751 156.916L164.311 160.948L164.727 162.1L165.767 163.252L167.119 164.019H168.055L169.094 163.636L170.03 163.06L170.654 161.908L172.318 159.796L172.526 157.78L173.15 154.804L173.982 152.309L174.814 150.485L174.294 148.757L173.462 146.069L172.838 141.75L172.942 139.158L173.254 136.374L174.398 132.727L175.958 130.135L177.414 128.695L178.765 127.447L181.261 126.007Z" fill="#B46E2E"/>
<path fill-rule="evenodd" clip-rule="evenodd" d="M209.338 126.103L210.69 124.087L213.082 121.4L214.746 119.768L216.826 119.096L218.074 119.288L219.529 120.44L220.465 122.168L225.145 133.399L228.992 142.902L230.24 145.973L230.448 147.797L230.032 150.677L229.2 153.557L226.081 161.524L225.353 162.868L223.897 164.019L222.857 164.115L221.297 163.635L220.049 162.292L218.177 159.7L217.866 157.78L217.45 155.284L216.722 153.077L216.098 151.541L215.578 150.677L216.098 149.909L216.618 147.797L217.242 144.725L217.658 141.846V139.158L217.242 136.374L215.89 132.535L214.33 130.039L211.73 127.639L209.338 126.103Z" fill="#B46E2E"/>
<path fill-rule="evenodd" clip-rule="evenodd" d="M217.865 157.396L221.609 162.388C221.609 162.388 223.324 164.494 224.937 161.524C226.55 158.554 226.912 157.012 226.912 157.012L228.784 151.925C228.784 151.925 230.394 147.768 228.784 145.206C228.269 144.226 219.425 122.36 219.425 122.36C219.425 122.36 217.819 118.683 214.746 121.208C211.673 123.732 210.274 126.583 210.274 126.583L213.394 129.079L215.162 131.287L216.306 133.399L217.137 136.278L217.449 138.486L217.657 142.518L217.137 145.589L216.098 149.813L215.682 150.581L216.306 152.117L217.241 154.613L217.865 157.396Z" fill="#B46E2E"/>
<path fill-rule="evenodd" clip-rule="evenodd" d="M185.421 171.315L186.461 171.219L187.604 171.123L188.54 170.835L189.372 170.547L189.164 171.027V172.275L189.268 174.195L189.372 175.538L189.684 176.786L190.204 178.034L191.036 178.994L191.972 179.762L193.324 180.338L194.572 180.53H195.924L197.379 180.338L198.627 179.762L199.563 178.898L200.083 178.226L200.707 177.074L201.123 175.442V174.099L201.227 172.275L201.123 170.547L201.747 170.739L202.995 171.027L204.347 171.219H205.595L205.699 172.179L205.283 174.77L204.659 176.882L203.619 179.57L202.787 181.202L201.955 182.546L200.603 183.89L198.315 185.041L197.275 185.425L195.82 185.617C195.82 185.617 194.682 185.608 194.572 185.617C194.462 185.627 192.284 185.233 192.284 185.233L190.516 184.177L189.268 183.122L188.228 181.586L186.98 179.282L186.461 177.65L185.837 175.25L185.421 171.795V171.315Z" fill="white"/>
<path fill-rule="evenodd" clip-rule="evenodd" d="M195.216 163.156L194.78 163.827L194.364 165.363L193.532 166.995L192.596 168.243L191.452 169.395L189.372 170.547L187.397 171.123L184.901 171.411L182.925 171.219L179.805 170.739L177.31 169.875L175.126 168.339L173.462 166.419L172.734 164.307L172.214 161.428L172.318 158.836L172.838 155.668L173.67 152.981L174.71 150.389L173.67 146.741L173.15 144.053L172.942 140.694L172.838 138.006L173.566 134.934L174.814 131.863L177.726 128.407L179.597 126.871L182.197 125.527L184.589 124.663L187.085 124.088L190.1 123.608L194.572 123.32L200.499 123.608L202.163 123.992L205.283 124.567L208.195 125.527L210.274 126.679L211.626 127.543L214.018 129.847L215.37 131.671L216.41 133.687L217.138 135.51L217.45 137.43L217.554 139.062L217.658 141.75L217.45 143.286L217.242 145.589L216.826 147.125L216.41 148.949L215.786 150.581L216.41 152.021L216.826 153.557L217.554 156.052L217.866 157.972L218.074 159.892L218.178 162.196L217.658 164.595L216.41 166.995L215.266 168.435L213.394 169.683L210.378 170.835L207.259 171.315H204.451L200.811 170.451L199.043 169.491L197.276 167.763L196.028 165.555L195.612 164.211L195.216 163.156Z" fill="#B46E2E"/>
<path fill-rule="evenodd" clip-rule="evenodd" d="M175.75 168.627L174.086 169.011L172.214 169.587L170.134 170.259C170.134 170.259 168.869 171.162 168.782 171.219C168.696 171.275 168.263 171.027 168.263 171.027C168.263 171.027 167.446 171.11 167.327 171.123C167.207 171.135 164.935 170.931 164.935 170.931L163.687 170.259L162.231 169.587L160.359 167.763L158.903 166.035L157.344 163.636L156.096 161.62L155.16 159.508L154.432 157.396L153.912 157.684L152.976 159.22L152.144 161.14L151.624 163.156L151.52 164.788L151.416 166.707L151.832 168.819L152.456 170.931L153.496 173.427L154.744 175.73L156.304 177.746L158.384 180.338L159.839 181.778L161.503 183.218L161.191 185.233V186.481L161.087 189.745L161.191 191.761L161.295 194.449L161.607 196.176L161.815 198.096L162.023 199.824L162.439 201.744L161.191 201.36L158.695 200.688H157.032L155.264 200.784L153.912 201.456L152.768 202.512L151.936 203.472L151.416 204.815L151.208 206.543L151.104 209.135L151.312 210.575L152.352 212.207L153.184 212.879L154.328 213.359L156.2 213.839L158.903 214.031L160.775 213.935L163.479 213.743L166.391 213.167L169.406 212.495L170.03 212.303L170.758 212.879L172.006 213.071H174.086L176.374 212.399L180.637 212.111L185.421 211.727L194.676 211.343L196.652 211.439L199.355 211.343L201.955 211.439L211.21 212.207L214.642 212.687L216.826 212.975L218.178 213.167L219.633 212.879L220.465 212.399L224.001 213.167L226.497 213.551L229.408 213.839L231.904 213.935H234.088L236.168 213.359L237.52 212.687L238.559 211.535L239.079 210.287L239.287 208.847L239.079 205.679L238.352 203.376L237.104 201.84L235.856 201.072L234.4 200.688H232.944L231.072 200.784L229.72 201.264L227.953 201.744L228.265 200.016L228.992 195.504L229.2 191.569L229.304 187.729L229.096 184.945L228.161 180.434L226.705 177.074L225.665 175.058L223.481 172.563L221.817 171.315L218.697 169.683L214.538 168.819L213.914 169.299L210.69 170.739L205.595 171.411L205.491 172.179L204.867 176.306L203.931 178.994L202.683 181.394L201.227 183.122L200.083 184.178L198.731 185.041L196.132 185.617H194.572L192.596 185.329L191.14 184.562L188.852 182.642L187.605 180.626L186.669 178.226L185.837 174.675L185.525 171.411L182.821 171.219L179.077 170.547L176.582 169.395L175.75 168.627Z" fill="#B46E2E"/>
<path fill-rule="evenodd" clip-rule="evenodd" d="M161.919 198C161.919 198 168.978 187.914 178.973 189.937C179.06 190.992 179.181 191.857 179.181 191.857L180.013 195.6L180.533 197.616L181.365 200.304L182.613 202.704L183.549 204.24L182.093 203.568L180.533 203.088L177.725 202.32L174.502 201.936L171.382 202.416L169.198 204.24L168.678 205.487L168.782 207.503L168.99 209.807L169.822 212.111L169.302 212.495L168.054 212.879L164.831 213.647L160.671 213.935L155.68 213.839L153.184 212.879L151.52 211.247L151 208.175L151.624 204.624L152.56 202.32L155.056 200.88L156.719 200.688H158.487L160.359 200.976L162.439 201.552L161.919 198Z" fill="white"/>
<path fill-rule="evenodd" clip-rule="evenodd" d="M228.368 197.987C228.368 197.987 221.31 187.891 211.314 189.916C211.228 190.972 211.106 191.838 211.106 191.838L210.274 195.584L209.754 197.602L208.922 200.292L207.674 202.694L206.739 204.231L208.194 203.559L209.754 203.078L212.562 202.31L215.786 201.925L218.905 202.406L221.089 204.231L221.609 205.48L221.505 207.497L221.297 209.803L220.465 212.109L220.985 212.494L222.233 212.878L225.457 213.647L229.616 213.935L234.608 213.839L237.103 212.878L238.767 211.245L239.287 208.17L238.663 204.616L237.727 202.31L235.232 200.868L233.568 200.676H231.8L229.928 200.964L227.848 201.541L228.368 197.987Z" fill="white"/>
<path fill-rule="evenodd" clip-rule="evenodd" d="M185.421 171.699C185.421 171.699 185.653 187.14 178.869 189.745C179.217 191.238 179.181 192.049 179.181 192.049L179.493 193.681L180.117 196.368L181.365 199.824L183.341 204.144L181.781 203.472L179.285 202.608L176.374 202.128L173.878 202.032L171.59 202.512L169.614 203.664L168.782 205.199L168.574 207.887L168.886 209.423L169.822 212.111L170.55 212.783L171.59 213.167L173.774 213.071L176.478 212.399L180.221 212.111L188.124 211.439L192.7 211.343H198.004L206.843 211.919L215.474 212.783L217.866 213.167L219.529 212.975L220.673 212.111L221.401 210.287L221.713 206.639L221.505 204.912L220.673 203.568L219.113 202.416L217.034 201.936L214.018 202.032L211.938 202.416L209.13 203.184L207.051 204.144L207.675 202.992L209.13 199.824L209.858 197.52L211.002 192.529L211.522 189.841C211.522 189.841 205.01 182.052 205.595 171.507C204.771 176.421 204.555 177.17 204.555 177.17L203.099 180.53L201.851 182.546L199.355 184.658L197.172 185.521L194.156 185.617L191.66 184.945L189.476 183.314L187.085 179.57L185.733 175.058L185.421 171.699Z" fill="white"/>
<path fill-rule="evenodd" clip-rule="evenodd" d="M185.421 171.315C185.421 171.315 178.592 167.287 181.989 162.388C185.386 157.488 189.916 160.202 189.476 154.133C191.726 153.03 193.116 152.501 193.116 152.501C193.116 152.501 195.215 150.306 195.215 137.718C195.215 142.387 195.311 151.006 196.651 152.501C197.456 153.397 198.493 154.091 199.667 154.517L199.979 156.052L195.215 160.468V163.444L194.884 164.116L194.156 165.651L193.636 167.091L193.012 167.955L191.972 168.915L190.724 169.971L189.476 170.547L187.604 171.123L185.421 171.315Z" fill="white"/>
<path fill-rule="evenodd" clip-rule="evenodd" d="M205.017 171.326C205.017 171.326 211.842 167.3 208.446 162.399C205.05 157.499 200.523 160.215 200.963 154.144C198.715 153.041 197.326 152.512 197.326 152.512C197.326 152.512 195.227 150.318 195.227 137.73C195.227 142.4 195.131 151.018 193.792 152.512C192.988 153.409 191.951 154.103 190.777 154.528L190.465 156.064L195.227 160.479V163.455L195.559 164.127L196.286 165.663L196.806 167.103L197.43 167.967L198.468 168.927L199.716 169.983L200.963 170.558L202.834 171.134L205.017 171.326Z" fill="white"/>
<path fill-rule="evenodd" clip-rule="evenodd" d="M179.597 146.261C179.597 146.261 183.398 139.164 188.332 145.973C188.602 142.226 188.079 138.04 184.277 137.91C180.475 137.78 179.146 144.594 179.597 146.261Z" fill="black" stroke="black" stroke-width="0.3333"/>
<path fill-rule="evenodd" clip-rule="evenodd" d="M203.164 146.261C203.164 146.261 206.946 139.164 211.857 145.973C212.125 142.226 211.604 138.04 207.821 137.91C204.038 137.78 202.714 144.594 203.164 146.261Z" fill="black" stroke="black" stroke-width="0.3333"/>
<path fill-rule="evenodd" clip-rule="evenodd" d="M186.98 153.748C186.98 153.748 187.028 151.913 189.06 152.021C191.092 152.128 200.811 152.501 200.811 152.501C200.811 152.501 202.561 152.688 201.747 154.612C200.933 156.537 197.112 161.068 195.196 161.14C193.279 161.212 188.073 157.945 186.98 153.748Z" fill="black" stroke="black" stroke-width="0.3333"/>
<path d="M174.71 150.485C174.71 150.485 166.178 168.135 180.845 170.931C195.512 173.727 195.196 160.852 195.196 160.852" stroke="black" stroke-width="1.6665"/>
<path d="M215.653 150.485C215.653 150.485 224.183 168.135 209.517 170.931C194.851 173.727 195.167 160.852 195.167 160.852" stroke="black" stroke-width="1.6665"/>
<path d="M174.814 150.485C174.814 150.485 163.734 123.32 195.216 123.32C226.697 123.32 215.786 150.581 215.786 150.581" stroke="black" stroke-width="1.6665"/>
<path d="M181.261 126.295C181.261 126.295 173.849 113.137 169.926 122.36C166.004 131.582 160.567 145.589 160.567 145.589C160.567 145.589 159.153 147.391 160.983 152.309C162.813 157.226 164.623 161.908 164.623 161.908C164.623 161.908 167.548 166.709 170.55 162.004C172.176 159.679 172.318 159.508 172.318 159.508" stroke="black" stroke-width="1.6665"/>
<path d="M209.234 126.316C209.234 126.316 216.647 113.148 220.569 122.377C224.492 131.606 229.928 145.622 229.928 145.622C229.928 145.622 231.343 147.426 229.512 152.346C227.682 157.267 225.873 161.951 225.873 161.951C225.873 161.951 222.947 166.756 219.945 162.047C218.32 159.721 218.177 159.55 218.177 159.55" stroke="black" stroke-width="1.6665"/>
<path d="M189.268 170.643C189.268 170.643 187.464 180.53 195.215 180.53C202.967 180.53 201.019 170.643 201.019 170.643" stroke="black" stroke-width="1.6665"/>
<path d="M195.216 163.444V177.074" stroke="black" stroke-width="1.6665" stroke-linecap="round" stroke-linejoin="round"/>
<path d="M205.595 171.411C205.595 171.411 204.859 185.617 195.215 185.617C185.571 185.617 185.421 171.315 185.421 171.315" stroke="black" stroke-width="1.6665" stroke-linecap="round" stroke-linejoin="round"/>
<path d="M175.75 168.819C175.75 168.819 155.688 168.912 162.543 201.84C159.652 200.436 150.025 197.751 151.312 209.999C152.072 217.233 169.926 212.399 169.926 212.399" stroke="black" stroke-width="1.6665" stroke-linecap="round" stroke-linejoin="round"/>
<path d="M214.642 168.819C214.642 168.819 234.693 168.912 227.841 201.807C230.73 200.405 240.353 197.722 239.067 209.958C238.306 217.185 220.462 212.356 220.462 212.356" stroke="black" stroke-width="1.6665" stroke-linecap="round" stroke-linejoin="round"/>
<path d="M177.83 176.306C177.83 176.306 178.188 197.896 183.757 204.432C180.961 202.406 168.413 199.098 168.678 206.831C168.944 214.564 171.918 213.219 175.75 212.591C179.582 211.963 194.391 210.939 195.216 211.535V185.809" stroke="black" stroke-width="1.6665" stroke-linecap="round" stroke-linejoin="round"/>
<path d="M212.566 176.306C212.566 176.306 212.208 197.881 206.644 204.413C209.438 202.39 221.975 199.083 221.71 206.811C221.445 214.539 218.474 213.194 214.645 212.567C210.816 211.939 196.019 210.917 195.196 211.512V185.804" stroke="black" stroke-width="1.6665" stroke-linecap="round" stroke-linejoin="round"/>
<path d="M161.607 183.218C161.607 183.218 144.927 170.244 154.432 157.012C156.468 163.575 162.662 174.728 170.966 169.971" stroke="black" stroke-width="1.6665" stroke-linecap="round" stroke-linejoin="round"/>
<path fill-rule="evenodd" clip-rule="evenodd" d="M203.723 144.629C203.723 144.629 207.796 139.961 211.21 144.629C210.393 143.049 207.833 139.608 203.723 144.629Z" fill="white"/>
<path fill-rule="evenodd" clip-rule="evenodd" d="M180.221 144.341C180.221 144.341 184.294 139.732 187.708 144.341C186.891 142.782 184.331 139.384 180.221 144.341Z" fill="white"/>
<path fill-rule="evenodd" clip-rule="evenodd" d="M191.452 159.028C191.452 159.028 195.931 163.824 200.603 155.764C199.049 157.571 196.093 162.483 191.452 159.028Z" fill="white"/>
<path d="M245.49 214.19C246.378 214.19 254.758 203.145 254.885 202.891C251.432 202.586 246.929 201.028 245.109 200.224C241.681 202.383 234.545 207.334 233.428 209.874C232.031 213.048 244.601 214.19 245.49 214.19Z" fill="#FCA352"/>
<path d="M268.851 214.19C267.962 214.19 259.583 203.145 259.456 202.891C262.909 202.586 267.412 201.028 269.232 200.224C272.66 202.383 279.795 207.334 280.913 209.874C282.309 213.048 269.74 214.19 268.851 214.19Z" fill="#FCA352"/>
<path d="M275.707 195.527C260.979 208.833 244.474 201.325 238.126 195.781L239.437 146.553L272.204 145.243L275.707 195.527Z" fill="white"/>
<circle cx="257.044" cy="132.933" r="19.9334" fill="#272727"/>
<circle cx="249.806" cy="129.505" r="3.555" fill="white"/>
<path d="M250.884 128.428C251.145 128.689 251.303 129.037 251.327 129.406C251.351 129.775 251.24 130.14 251.015 130.433C250.79 130.726 250.466 130.928 250.104 131C249.741 131.072 249.365 131.01 249.045 130.825C248.725 130.64 248.483 130.345 248.364 129.995C248.245 129.645 248.257 129.264 248.399 128.922C248.54 128.581 248.801 128.302 249.133 128.139C249.464 127.975 249.844 127.938 250.201 128.034L249.807 129.505L250.884 128.428Z" fill="#272727"/>
<circle cx="264.28" cy="129.505" r="3.555" fill="white"/>
<path d="M265.6 128.744C265.786 129.066 265.847 129.445 265.773 129.809C265.699 130.173 265.494 130.498 265.198 130.722C264.901 130.946 264.532 131.053 264.162 131.024C263.791 130.995 263.444 130.832 263.185 130.565C262.927 130.297 262.775 129.945 262.758 129.573C262.742 129.202 262.861 128.837 263.095 128.548C263.329 128.259 263.66 128.065 264.027 128.003C264.393 127.941 264.77 128.016 265.085 128.212L264.28 129.505L265.6 128.744Z" fill="#272727"/>
<path d="M256.663 130.775L263.26 134.203H250.065L256.663 130.775Z" fill="#FCA352"/>
<path d="M256.663 137.631L250.065 134.203L263.26 134.203L256.663 137.631Z" fill="#E09149"/>
<path d="M232.199 192.607C226.308 172.394 233.638 147.873 238.039 138.139C243.146 142.117 252.65 150.124 249.806 150.327C246.962 150.531 244.67 155.999 243.879 158.707C242.44 178.429 238.09 212.819 232.199 192.607Z" fill="#272727"/>
<path d="M281.647 192.607C287.538 172.394 280.208 147.873 275.806 138.139C270.699 142.117 261.195 150.124 264.039 150.327C266.883 150.531 269.175 155.999 269.966 158.707C271.405 178.429 275.756 212.819 281.647 192.607Z" fill="#272727"/>
<path d="M49.2983 138.541C50.4249 140.082 49.4068 141.721 48.757 142.348C47.7815 141.942 45.7795 141.037 45.5756 140.662C45.3208 140.193 45.3087 139.083 45.6118 138.886C45.8542 138.728 46.4034 139.386 46.6476 139.735C46.7868 139.779 47.3946 139.532 48.7117 138.186C50.3582 136.504 49.6526 137.954 49.2983 138.541Z" fill="#8C91AF"/>
<path d="M35.8053 135.219C39.7098 132.979 41.8429 135.052 42.4214 136.368C43.309 138.042 45.2048 141.254 45.6872 140.716C46.1697 140.178 47.9157 141.524 48.7284 142.265C48.6108 143.357 48.3017 146.404 48.0062 149.847C47.6369 154.152 44.1675 154.051 43.6624 156.082C43.1573 158.113 41.3058 161.352 39.7136 162.923C41.4506 164.458 37.8471 169.88 35.6518 172.123C33.4565 174.367 29.8695 173.657 28.6422 173.059C29.0089 174.121 28.6644 192.112 28.4464 200.974C27.4302 206.183 24.8215 215.148 22.5164 209.335C19.635 202.069 24.7672 173.934 22.7181 166.659C20.669 159.384 26.9805 152.934 27.2202 152.016C27.4599 151.097 30.2146 146.711 31.2896 146.061C32.1496 145.542 32.7999 142.91 33.0175 141.659C32.3199 140.445 31.9008 137.459 35.8053 135.219Z" fill="#AF7C42"/>
<path d="M35.8053 135.219C39.7098 132.979 41.8429 135.052 42.4214 136.368C43.309 138.042 45.2048 141.254 45.6872 140.716C46.1697 140.178 47.9157 141.524 48.7284 142.265C48.6108 143.357 48.3017 146.404 48.0062 149.847C47.6369 154.152 44.1675 154.051 43.6624 156.082C43.1573 158.113 41.3058 161.352 39.7136 162.923C41.4506 164.458 37.8471 169.88 35.6518 172.123C33.4565 174.367 29.8695 173.657 28.6422 173.059C29.0089 174.121 28.6644 192.112 28.4464 200.974C27.4302 206.183 24.8215 215.148 22.5164 209.335C19.635 202.069 24.7672 173.934 22.7181 166.659C20.669 159.384 26.9805 152.934 27.2202 152.016C27.4599 151.097 30.2146 146.711 31.2896 146.061C32.1496 145.542 32.7999 142.91 33.0175 141.659C32.3199 140.445 31.9008 137.459 35.8053 135.219Z" fill="url(#paint0_linear)"/>
<path d="M35.8053 135.219C39.7098 132.979 41.8429 135.052 42.4214 136.368C43.309 138.042 45.2048 141.254 45.6872 140.716C46.1697 140.178 47.9157 141.524 48.7284 142.265C48.6108 143.357 48.3017 146.404 48.0062 149.847C47.6369 154.152 44.1675 154.051 43.6624 156.082C43.1573 158.113 41.3058 161.352 39.7136 162.923C41.4506 164.458 37.8471 169.88 35.6518 172.123C33.4565 174.367 29.8695 173.657 28.6422 173.059C29.0089 174.121 28.6644 192.112 28.4464 200.974C27.4302 206.183 24.8215 215.148 22.5164 209.335C19.635 202.069 24.7672 173.934 22.7181 166.659C20.669 159.384 26.9805 152.934 27.2202 152.016C27.4599 151.097 30.2146 146.711 31.2896 146.061C32.1496 145.542 32.7999 142.91 33.0175 141.659C32.3199 140.445 31.9008 137.459 35.8053 135.219Z" stroke="#9A7244" stroke-width="0.5"/>
<path d="M37.9673 140.134C37.9492 140.512 38.8534 142.52 39.3077 143.477L38.7845 143.843C38.5639 143.115 37.9818 141.466 37.4185 140.695C36.7143 139.732 35.3875 140.19 34.8417 141.028C34.405 141.699 33.4435 141.728 33.0173 141.659C33.635 144.88 36.2612 150.619 41.8242 147.806C47.3872 144.993 46.0883 140.887 44.7434 139.186C44.3952 137.71 43.1974 136.732 42.3096 136.314C42.2584 136.703 42.0461 137.593 41.607 138.041C39.1011 137.236 37.9899 139.662 37.9673 140.134Z" fill="#AAA1A6"/>
<path d="M43.7979 143.04C44.811 141.521 44.9895 140.229 44.7434 139.186M44.7434 139.186C44.3952 137.71 43.1974 136.732 42.3096 136.314C42.2584 136.703 42.0461 137.593 41.607 138.041C39.1011 137.236 37.9899 139.662 37.9673 140.134C37.9492 140.512 38.8534 142.52 39.3077 143.477L38.7845 143.843C38.5639 143.115 37.9818 141.466 37.4185 140.695C36.7143 139.732 35.3875 140.19 34.8417 141.028C34.405 141.699 33.4435 141.728 33.0173 141.659C33.635 144.88 36.2612 150.619 41.8242 147.806C47.3872 144.993 46.0883 140.887 44.7434 139.186Z" stroke="#E8E6E7" stroke-width="0.2"/>
<path d="M42.7727 140.609C42.35 143.416 40.7406 148.162 37.684 144.688" stroke="#E8E6E7" stroke-width="0.2"/>
<path d="M39.1963 143.423C39.6748 143.195 40.4477 143.176 39.712 144.915C39.1285 144.838 37.7036 143.938 39.1963 143.423Z" fill="#614142"/>
<circle r="0.5" transform="matrix(-0.945188 0.326527 0.326527 0.945188 40.1326 140.222)" fill="#874221" stroke="#282828" stroke-width="0.579247"/>
<circle r="0.43868" transform="matrix(-0.945188 0.326527 0.326527 0.945188 40.1327 140.222)" fill="#030020"/>
<circle r="0.263208" transform="matrix(-0.945188 0.326527 0.326527 0.945188 39.9094 140.113)" fill="white"/>
<circle r="0.5" transform="matrix(-0.945188 0.326527 0.326527 0.945188 36.2125 142.04)" fill="#874221" stroke="#282828" stroke-width="0.403775"/>
<circle r="0.350944" transform="matrix(-0.945188 0.326527 0.326527 0.945188 36.2123 142.04)" fill="#030020"/>
<circle r="0.175472" transform="matrix(-0.945188 0.326527 0.326527 0.945188 35.9893 141.932)" fill="white"/>
<path d="M35.0463 182.567C36.6439 186.729 44.1757 195.343 47.5992 198.172C48.7403 198.811 54.6743 199.431 52.1638 202.279C49.6532 205.126 34.2915 196.894 29.2068 192.697C26.4378 193.537 23.0963 192.89 20.7817 188.864C16.2171 180.925 33.0492 177.366 35.0463 182.567Z" fill="#225C21"/>
<path d="M34.1904 187.769C34.0498 189.658 31.8988 191.88 29.2068 192.697M29.2068 192.697C26.4378 193.537 23.0963 192.89 20.7817 188.864C16.2171 180.925 33.0492 177.366 35.0463 182.567C36.6439 186.729 44.1757 195.343 47.5992 198.172C48.7403 198.811 54.6743 199.431 52.1638 202.279C49.6532 205.126 34.2915 196.894 29.2068 192.697Z" stroke="#397838"/>
<path d="M90.1797 210.468C94.1932 207.525 91.5171 205.674 89.1759 201.103C87.5247 200.3 84.2895 201.66 82.8783 202.441C82.2094 203.779 83.2128 201.772 83.8817 205.785C78.5303 205.25 77.2472 210.022 76.8012 211.806C79.5884 212.586 86.1661 213.411 90.1797 210.468Z" fill="#1B461A"/>
<path d="M61.4162 209.799C65.4297 206.856 62.7537 205.005 60.4124 200.434C58.7613 199.631 55.5261 200.991 54.1149 201.772C53.446 203.11 54.4493 201.103 55.1182 205.117C49.7669 204.581 48.4838 209.353 48.0378 211.137C50.825 211.917 57.4027 212.742 61.4162 209.799Z" fill="#1B461A"/>
<path d="M98.8757 212.23C102.889 209.286 100.213 207.436 97.8719 202.865C96.2208 202.062 92.9856 203.422 91.5743 204.203C90.9054 205.54 91.9088 203.534 92.5777 207.547C87.2264 207.012 85.9432 211.784 85.4973 213.567C88.2845 214.348 94.8622 215.173 98.8757 212.23Z" fill="#225C21"/>
<path d="M63.648 213.583C68.2935 211.796 66.1971 209.308 65.1381 204.283C63.7556 203.075 60.2768 203.538 58.7102 203.92C57.7135 205.036 59.2085 203.363 58.8003 207.411C53.7771 205.49 51.2863 209.757 50.3877 211.361C52.8722 212.846 59.0026 215.369 63.648 213.583Z" fill="#225C21"/>
<path d="M117.904 196.064C114.425 199.395 111.51 200.026 106.987 197.72C106.121 197.623 103.87 197.463 101.785 197.607C110.441 208.582 116.138 201.151 117.904 196.064Z" fill="#225C21"/>
<path d="M110.639 198.182C111.174 194.436 107.517 194.392 105.622 194.838L106.959 196.844C105.956 198.182 96.9257 200.858 94.5844 201.527C92.979 202.33 81.875 202.976 76.5236 203.199C73.0675 202.865 64.8175 201.995 59.4662 201.192C53.8473 200.657 47.7601 198.071 45.4189 196.844C45.5304 196.733 45.8203 196.309 46.0878 195.507C44.0811 192.831 38.7297 195.841 40.7365 198.182C46.7567 204.871 70.8378 205.875 77.527 206.209C84.2162 206.544 109.97 202.865 110.639 198.182Z" fill="#E3954F"/>
<path d="M106.959 196.844C97.1487 180.456 71.1054 157.512 45.4189 196.844C50.1014 200.858 87.5608 208.551 106.959 196.844Z" fill="#E3954F"/>
<path d="M84.2163 176.777C84.2163 177.111 74.1825 180.79 69.5001 176.108C70.5035 175.773 77.1927 173.432 84.2163 176.777Z" fill="#CE6C12"/>
<path d="M65.1521 201.861C65.1521 200.829 78.5305 185.473 87.5609 202.53C86.223 202.865 77.8616 203.534 65.1521 201.861Z" fill="#CE6C12"/>
<path d="M89.9019 202.196C89.6595 201.381 95.829 185.503 106.959 196.844C105.982 197.422 100.324 200.532 89.9019 202.196Z" fill="#CE6C12"/>
<path d="M62.1419 201.861C62.3844 201.046 56.3316 185.503 45.2013 196.844C46.1785 197.423 51.7197 200.198 62.1419 201.861Z" fill="#CE6C12"/>
<path d="M100.27 188.149C100.071 188.417 89.5676 188.817 88.8987 178.784C89.9038 179.113 95.2533 181.794 100.27 188.149Z" fill="#CE6C12"/>
<path d="M51.9149 188.149C52.1142 188.417 62.6177 188.817 63.2866 178.784C62.2815 179.113 56.932 181.794 51.9149 188.149Z" fill="#CE6C12"/>
<path d="M106.959 196.844C97.1487 180.456 71.1054 157.512 45.4189 196.844C50.1014 200.858 87.5608 208.551 106.959 196.844Z" stroke="#EAAC75"/>
<circle r="1.6723" transform="matrix(-1 0 0 1 27.0237 184.469)" fill="#282828"/>
<mask id="path-180-inside-1" fill="white">
<path fill-rule="evenodd" clip-rule="evenodd" d="M99.803 170.482L98.1392 170.866L96.2674 171.442L94.1876 172.114C94.1876 172.114 94.1133 172.345 94.027 172.402C92.6574 173.251 92.6574 173.251 92.6574 173.251C91.999 173.532 91.3799 174.034 91.3799 174.034L90.6574 175.282L89.6574 176.53C76.5584 168.003 73.305 148.044 76.5731 129.115C77.8778 121.559 90.7211 118.288 83.1574 110.615C81.37 108.802 77.2532 111.408 76.0731 113.115C72.186 118.74 70.0738 124.115 70.0738 124.115C70.0738 124.115 66.0236 135.505 67.573 147.615C69.1035 159.577 74.6249 170.093 78.5732 175.115C78.6032 175.153 80.2193 177.328 80.253 177.368C81.1207 178.38 83.0732 180.615 83.0732 180.615L85.6574 183.751L85.5565 185.073L85.2445 187.089V188.336L85.1405 191.6L85.2445 193.616L85.3485 196.304L85.6605 198.032L85.8684 199.951L86.0764 201.679L86.4924 203.599L85.2445 203.215L82.7487 202.543H81.0849L79.3171 202.639L77.9652 203.311L76.8213 204.367L75.9894 205.327L75.4695 206.671L75.2615 208.398L75.1575 210.99L75.3655 212.43L76.4054 214.062L77.2373 214.734L78.3812 215.214L80.253 215.694L82.9567 215.886L84.8285 215.79L87.5323 215.598L90.444 215.022L93.4597 214.35L94.1574 214.734H94.8115H96.1574L98.6574 214.254L102.495 213.966L105.157 213.751L109.474 213.582L118.729 213.198L120.705 213.294L123.409 213.198L126.008 213.294L135.263 214.062L138.695 214.542L140.879 214.83L142.231 215.022L143.687 214.734L144.519 214.254L148.054 215.022L150.55 215.406L153.462 215.694L155.957 215.79H158.141L160.221 215.214L161.573 214.542L162.613 213.39L163.133 212.142L163.341 210.702L163.133 207.535L162.405 205.231L161.157 203.695L159.909 202.927L158.453 202.543H156.997L155.126 202.639L153.774 203.119L152.006 203.599L152.318 201.871L153.046 197.36L153.254 193.424L153.358 189.584L153.15 186.801L152.214 182.289L150.758 178.929L149.718 176.914L147.534 174.418L145.87 173.17L142.751 171.538L138.591 170.674L137.967 171.154L134.744 172.594L129.648 173.266L129.544 174.034L128.92 178.162L127.984 180.849L126.736 183.249L125.281 184.977L124.137 186.033L122.785 186.897L120.185 187.473H118.625L116.649 187.185L115.194 186.417L112.906 184.497L111.658 182.481L110.722 180.081L109.89 176.53L109.578 173.266L106.874 173.074L103.131 172.402L100.635 171.25L99.803 170.482Z"/>
</mask>
<path fill-rule="evenodd" clip-rule="evenodd" d="M99.803 170.482L98.1392 170.866L96.2674 171.442L94.1876 172.114C94.1876 172.114 94.1133 172.345 94.027 172.402C92.6574 173.251 92.6574 173.251 92.6574 173.251C91.999 173.532 91.3799 174.034 91.3799 174.034L90.6574 175.282L89.6574 176.53C76.5584 168.003 73.305 148.044 76.5731 129.115C77.8778 121.559 90.7211 118.288 83.1574 110.615C81.37 108.802 77.2532 111.408 76.0731 113.115C72.186 118.74 70.0738 124.115 70.0738 124.115C70.0738 124.115 66.0236 135.505 67.573 147.615C69.1035 159.577 74.6249 170.093 78.5732 175.115C78.6032 175.153 80.2193 177.328 80.253 177.368C81.1207 178.38 83.0732 180.615 83.0732 180.615L85.6574 183.751L85.5565 185.073L85.2445 187.089V188.336L85.1405 191.6L85.2445 193.616L85.3485 196.304L85.6605 198.032L85.8684 199.951L86.0764 201.679L86.4924 203.599L85.2445 203.215L82.7487 202.543H81.0849L79.3171 202.639L77.9652 203.311L76.8213 204.367L75.9894 205.327L75.4695 206.671L75.2615 208.398L75.1575 210.99L75.3655 212.43L76.4054 214.062L77.2373 214.734L78.3812 215.214L80.253 215.694L82.9567 215.886L84.8285 215.79L87.5323 215.598L90.444 215.022L93.4597 214.35L94.1574 214.734H94.8115H96.1574L98.6574 214.254L102.495 213.966L105.157 213.751L109.474 213.582L118.729 213.198L120.705 213.294L123.409 213.198L126.008 213.294L135.263 214.062L138.695 214.542L140.879 214.83L142.231 215.022L143.687 214.734L144.519 214.254L148.054 215.022L150.55 215.406L153.462 215.694L155.957 215.79H158.141L160.221 215.214L161.573 214.542L162.613 213.39L163.133 212.142L163.341 210.702L163.133 207.535L162.405 205.231L161.157 203.695L159.909 202.927L158.453 202.543H156.997L155.126 202.639L153.774 203.119L152.006 203.599L152.318 201.871L153.046 197.36L153.254 193.424L153.358 189.584L153.15 186.801L152.214 182.289L150.758 178.929L149.718 176.914L147.534 174.418L145.87 173.17L142.751 171.538L138.591 170.674L137.967 171.154L134.744 172.594L129.648 173.266L129.544 174.034L128.92 178.162L127.984 180.849L126.736 183.249L125.281 184.977L124.137 186.033L122.785 186.897L120.185 187.473H118.625L116.649 187.185L115.194 186.417L112.906 184.497L111.658 182.481L110.722 180.081L109.89 176.53L109.578 173.266L106.874 173.074L103.131 172.402L100.635 171.25L99.803 170.482Z" fill="#E3954F"/>
<path d="M70.0738 124.115C69.6556 123.841 69.6555 123.842 69.6553 123.842C69.6552 123.842 69.655 123.842 69.6548 123.843C69.6544 123.843 69.6539 123.844 69.6532 123.845C69.6518 123.847 69.6499 123.85 69.6474 123.854C69.6424 123.862 69.6352 123.873 69.6258 123.887C69.6071 123.917 69.58 123.959 69.545 124.015C69.4753 124.127 69.3746 124.29 69.2494 124.501C68.9992 124.922 68.6508 125.531 68.2553 126.291C67.4649 127.808 66.483 129.929 65.7217 132.34C64.2085 137.131 63.521 143.22 67.1784 147.922L67.9677 147.308C64.6253 143.011 65.1882 137.349 66.6753 132.641C67.4141 130.301 68.3699 128.235 69.1422 126.753C69.528 126.012 69.8671 125.419 70.1091 125.011C70.23 124.808 70.3267 124.651 70.3926 124.546C70.4256 124.493 70.4509 124.453 70.4677 124.427C70.4761 124.414 70.4824 124.404 70.4865 124.398C70.4886 124.395 70.4901 124.392 70.491 124.391C70.4914 124.39 70.4918 124.39 70.4919 124.39C70.492 124.389 70.4921 124.389 70.4921 124.389C70.4921 124.389 70.492 124.389 70.0738 124.115ZM99.803 170.482L100.481 169.747L100.093 169.389L99.5782 169.508L99.803 170.482ZM98.1392 170.866L97.9144 169.892L97.8794 169.9L97.8451 169.91L98.1392 170.866ZM96.2674 171.442L95.9733 170.486L95.96 170.491L96.2674 171.442ZM94.1876 172.114L93.8802 171.163L93.3923 171.32L93.2355 171.808L94.1876 172.114ZM94.027 172.402L94.554 173.252L94.5649 173.245L94.5756 173.238L94.027 172.402ZM92.6574 173.251V172.251H92.4535L92.2658 172.331L92.6574 173.251ZM91.3799 174.034L90.7498 173.257L90.6068 173.373L90.5145 173.533L91.3799 174.034ZM90.6574 175.282L91.4377 175.907L91.485 175.848L91.5228 175.783L90.6574 175.282ZM89.6574 176.53L89.1119 177.368L89.8712 177.862L90.4377 177.155L89.6574 176.53ZM76.5731 129.115L77.5585 129.285L76.5731 129.115ZM83.1574 110.615L82.4453 111.317L83.1574 110.615ZM76.0731 113.115L76.8957 113.684L76.0731 113.115ZM70.0738 124.115L69.1431 123.75L69.1371 123.765L69.1316 123.78L70.0738 124.115ZM78.5732 175.115L79.3594 174.497L79.3594 174.497L78.5732 175.115ZM83.0732 180.615L83.845 179.979L83.8358 179.968L83.8264 179.957L83.0732 180.615ZM85.6574 183.751L86.6545 183.828L86.6852 183.426L86.4291 183.115L85.6574 183.751ZM85.5565 185.073L86.5447 185.226L86.5506 185.188L86.5536 185.149L85.5565 185.073ZM85.2445 187.089L84.2563 186.936L84.2445 187.012V187.089H85.2445ZM85.2445 188.336L86.244 188.368L86.2445 188.352V188.336H85.2445ZM85.1405 191.6L84.141 191.568L84.1397 191.61L84.1418 191.652L85.1405 191.6ZM85.2445 193.616L86.2438 193.577L86.2432 193.564L85.2445 193.616ZM85.3485 196.304L84.3492 196.342L84.3519 196.412L84.3644 196.481L85.3485 196.304ZM85.6605 198.032L86.6546 197.924L86.6508 197.889L86.6445 197.854L85.6605 198.032ZM85.8684 199.951L84.8742 200.059L84.8756 200.071L85.8684 199.951ZM86.0764 201.679L85.0836 201.799L85.0892 201.845L85.0991 201.891L86.0764 201.679ZM86.4924 203.599L86.1983 204.555L87.8315 205.057L87.4697 203.387L86.4924 203.599ZM85.2445 203.215L85.5386 202.259L85.5216 202.254L85.5045 202.249L85.2445 203.215ZM82.7487 202.543L83.0087 201.577L82.881 201.543H82.7487V202.543ZM81.0849 202.543V201.543H81.0578L81.0307 201.545L81.0849 202.543ZM79.3171 202.639L79.2629 201.641L79.0568 201.652L78.872 201.744L79.3171 202.639ZM77.9652 203.311L77.5201 202.416L77.3921 202.479L77.287 202.576L77.9652 203.311ZM76.8213 204.367L76.1431 203.632L76.1021 203.67L76.0657 203.712L76.8213 204.367ZM75.9894 205.327L75.2337 204.672L75.1197 204.803L75.0568 204.966L75.9894 205.327ZM75.4695 206.671L74.5369 206.31L74.4916 206.427L74.4767 206.551L75.4695 206.671ZM75.2615 208.398L74.2687 208.279L74.2639 208.319L74.2623 208.358L75.2615 208.398ZM75.1575 210.99L74.1583 210.95L74.1546 211.042L74.1678 211.133L75.1575 210.99ZM75.3655 212.43L74.3758 212.573L74.4065 212.786L74.5222 212.967L75.3655 212.43ZM76.4054 214.062L75.5621 214.599L75.6499 214.737L75.7771 214.84L76.4054 214.062ZM77.2373 214.734L76.609 215.512L76.7194 215.601L76.8504 215.656L77.2373 214.734ZM78.3812 215.214L77.9943 216.136L78.0618 216.164L78.1328 216.182L78.3812 215.214ZM80.253 215.694L80.0046 216.662L80.0921 216.685L80.1822 216.691L80.253 215.694ZM82.9567 215.886L82.8859 216.883L82.9469 216.888L83.0079 216.884L82.9567 215.886ZM84.8285 215.79L84.8798 216.788L84.8896 216.788L84.8994 216.787L84.8285 215.79ZM87.5323 215.598L87.6031 216.595L87.6652 216.591L87.7263 216.579L87.5323 215.598ZM90.444 215.022L90.638 216.003L90.6498 216L90.6615 215.998L90.444 215.022ZM93.4597 214.35L93.9418 213.474L93.6109 213.292L93.2422 213.374L93.4597 214.35ZM94.1574 214.734L93.6753 215.61L93.9004 215.734H94.1574V214.734ZM96.1574 214.734V215.734H96.2525L96.3459 215.716L96.1574 214.734ZM98.6574 214.254L98.5826 213.257L98.5253 213.261L98.4689 213.272L98.6574 214.254ZM102.495 213.966L102.57 214.963L102.576 214.963L102.495 213.966ZM105.157 213.751L105.118 212.752L105.098 212.753L105.077 212.755L105.157 213.751ZM109.474 213.582L109.513 214.581L109.516 214.581L109.474 213.582ZM118.729 213.198L118.778 212.199L118.733 212.197L118.688 212.199L118.729 213.198ZM120.705 213.294L120.656 214.293L120.698 214.295L120.74 214.293L120.705 213.294ZM123.409 213.198L123.446 212.199L123.409 212.197L123.373 212.199L123.409 213.198ZM126.008 213.294L126.091 212.297L126.068 212.296L126.045 212.295L126.008 213.294ZM135.263 214.062L135.402 213.072L135.374 213.068L135.346 213.065L135.263 214.062ZM138.695 214.542L138.557 215.532L138.564 215.533L138.695 214.542ZM140.879 214.83L141.02 213.84L141.01 213.838L140.879 214.83ZM142.231 215.022L142.09 216.012L142.258 216.036L142.425 216.003L142.231 215.022ZM143.687 214.734L143.881 215.715L144.043 215.683L144.186 215.6L143.687 214.734ZM144.519 214.254L144.731 213.277L144.353 213.195L144.019 213.388L144.519 214.254ZM148.054 215.022L147.842 215.999L147.872 216.006L147.902 216.01L148.054 215.022ZM150.55 215.406L150.398 216.394L150.425 216.398L150.452 216.401L150.55 215.406ZM153.462 215.694L153.363 216.689L153.393 216.692L153.423 216.693L153.462 215.694ZM155.957 215.79L155.919 216.789L155.938 216.79H155.957V215.79ZM158.141 215.79V216.79H158.277L158.408 216.753L158.141 215.79ZM160.221 215.214L160.488 216.178L160.58 216.152L160.666 216.109L160.221 215.214ZM161.573 214.542L162.018 215.437L162.188 215.353L162.315 215.212L161.573 214.542ZM162.613 213.39L163.355 214.06L163.47 213.933L163.536 213.775L162.613 213.39ZM163.133 212.142L164.056 212.527L164.104 212.41L164.122 212.285L163.133 212.142ZM163.341 210.702L164.33 210.845L164.345 210.741L164.339 210.637L163.341 210.702ZM163.133 207.535L164.131 207.469L164.123 207.348L164.086 207.233L163.133 207.535ZM162.405 205.231L163.358 204.93L163.301 204.748L163.181 204.6L162.405 205.231ZM161.157 203.695L161.933 203.064L161.826 202.932L161.681 202.843L161.157 203.695ZM159.909 202.927L160.433 202.075L160.307 201.998L160.164 201.96L159.909 202.927ZM158.453 202.543L158.708 201.576L158.583 201.543H158.453V202.543ZM156.997 202.543V201.543H156.972L156.946 201.544L156.997 202.543ZM155.126 202.639L155.074 201.64L154.929 201.648L154.791 201.697L155.126 202.639ZM153.774 203.119L154.036 204.084L154.072 204.074L154.108 204.061L153.774 203.119ZM152.006 203.599L151.022 203.421L150.741 204.979L152.268 204.564L152.006 203.599ZM152.318 201.871L153.302 202.049L153.304 202.04L153.305 202.03L152.318 201.871ZM153.046 197.36L154.033 197.519L154.041 197.466L154.044 197.412L153.046 197.36ZM153.254 193.424L154.252 193.477L154.253 193.464L154.253 193.451L153.254 193.424ZM153.358 189.584L154.357 189.611L154.359 189.561L154.355 189.51L153.358 189.584ZM153.15 186.801L154.147 186.726L154.142 186.661L154.129 186.598L153.15 186.801ZM152.214 182.289L153.193 182.086L153.172 181.986L153.131 181.891L152.214 182.289ZM150.758 178.929L151.675 178.532L151.662 178.501L151.647 178.471L150.758 178.929ZM149.718 176.914L150.607 176.455L150.551 176.347L150.471 176.255L149.718 176.914ZM147.534 174.418L148.287 173.759L148.218 173.681L148.134 173.618L147.534 174.418ZM145.87 173.17L146.47 172.37L146.406 172.321L146.334 172.284L145.87 173.17ZM142.751 171.538L143.214 170.652L143.091 170.587L142.954 170.559L142.751 171.538ZM138.591 170.674L138.795 169.695L138.345 169.602L137.981 169.882L138.591 170.674ZM137.967 171.154L138.375 172.067L138.483 172.019L138.577 171.947L137.967 171.154ZM134.744 172.594L134.874 173.585L135.019 173.566L135.151 173.507L134.744 172.594ZM129.648 173.266L129.517 172.275L128.76 172.374L128.657 173.132L129.648 173.266ZM129.544 174.034L130.533 174.183L130.534 174.176L130.535 174.168L129.544 174.034ZM128.92 178.162L129.865 178.49L129.895 178.403L129.909 178.311L128.92 178.162ZM127.984 180.849L128.871 181.311L128.905 181.246L128.929 181.178L127.984 180.849ZM126.736 183.249L127.501 183.893L127.572 183.809L127.624 183.71L126.736 183.249ZM125.281 184.977L125.959 185.712L126.005 185.669L126.045 185.621L125.281 184.977ZM124.137 186.033L124.675 186.875L124.75 186.828L124.815 186.768L124.137 186.033ZM122.785 186.897L123.001 187.873L123.174 187.835L123.323 187.739L122.785 186.897ZM120.185 187.473V188.473H120.294L120.401 188.449L120.185 187.473ZM118.625 187.473L118.481 188.462L118.553 188.473H118.625V187.473ZM116.649 187.185L116.183 188.069L116.335 188.149L116.505 188.174L116.649 187.185ZM115.194 186.417L114.551 187.183L114.633 187.251L114.727 187.301L115.194 186.417ZM112.906 184.497L112.055 185.023L112.14 185.16L112.263 185.263L112.906 184.497ZM111.658 182.481L110.726 182.844L110.759 182.93L110.808 183.007L111.658 182.481ZM110.722 180.081L109.748 180.309L109.765 180.379L109.79 180.445L110.722 180.081ZM109.89 176.53L108.895 176.625L108.901 176.692L108.916 176.758L109.89 176.53ZM109.578 173.266L110.574 173.171L110.493 172.328L109.649 172.268L109.578 173.266ZM106.874 173.074L106.698 174.058L106.75 174.068L106.804 174.071L106.874 173.074ZM103.131 172.402L102.712 173.31L102.828 173.364L102.954 173.386L103.131 172.402ZM100.635 171.25L99.9567 171.985L100.073 172.092L100.216 172.158L100.635 171.25ZM80.253 177.368L81.0123 176.717L81.0123 176.717L80.253 177.368ZM67.573 147.615L66.5811 147.742L67.573 147.615ZM99.5782 169.508L97.9144 169.892L98.3641 171.841L100.028 171.457L99.5782 169.508ZM97.8451 169.91L95.9733 170.486L96.5615 172.398L98.4333 171.822L97.8451 169.91ZM95.96 170.491L93.8802 171.163L94.495 173.066L96.5748 172.394L95.96 170.491ZM94.1876 172.114C93.2355 171.808 93.2355 171.808 93.2356 171.808C93.2356 171.808 93.2356 171.808 93.2357 171.808C93.2357 171.808 93.2358 171.808 93.2358 171.807C93.2359 171.807 93.236 171.807 93.2361 171.806C93.2363 171.806 93.2365 171.805 93.2366 171.805C93.2369 171.804 93.2372 171.803 93.2374 171.803C93.2378 171.801 93.238 171.801 93.238 171.801C93.238 171.801 93.2374 171.802 93.2363 171.806C93.2336 171.813 93.2306 171.82 93.2285 171.825C93.225 171.833 93.2305 171.819 93.2479 171.792C93.2523 171.785 93.3231 171.668 93.4784 171.566L94.5756 173.238C94.7741 173.108 94.8865 172.941 94.9292 172.875C94.9847 172.788 95.025 172.706 95.0508 172.649C95.0781 172.589 95.0991 172.535 95.113 172.497C95.1202 172.477 95.1261 172.46 95.1305 172.448C95.1327 172.441 95.1346 172.435 95.1361 172.431C95.1369 172.429 95.1376 172.426 95.1382 172.425C95.1385 172.424 95.1388 172.423 95.139 172.422C95.1391 172.422 95.1393 172.421 95.1394 172.421C95.1394 172.421 95.1395 172.421 95.1396 172.42C95.1396 172.42 95.1396 172.42 95.1396 172.42C95.1397 172.42 95.1397 172.42 94.1876 172.114ZM93.5 171.552C92.8152 171.977 92.4728 172.189 92.3016 172.295C92.216 172.348 92.1732 172.375 92.1518 172.388C92.1411 172.395 92.1357 172.398 92.1331 172.4C92.1317 172.401 92.1311 172.401 92.1308 172.401C92.1306 172.401 92.1305 172.401 92.1305 172.401C92.1305 172.401 92.1305 172.401 92.1305 172.401C92.1305 172.401 92.1306 172.401 92.1307 172.401C92.1307 172.401 92.1308 172.401 92.1309 172.401C92.1311 172.401 92.1313 172.401 92.1315 172.401C92.384 172.289 92.6574 172.251 92.6574 173.251C92.6574 174.251 92.9308 174.213 93.1833 174.102C93.1835 174.102 93.1837 174.102 93.1839 174.102C93.184 174.101 93.1841 174.101 93.1841 174.101C93.1842 174.101 93.1843 174.101 93.1843 174.101C93.1843 174.101 93.1844 174.101 93.1844 174.101C93.1844 174.101 93.1845 174.101 93.1847 174.101C93.1851 174.101 93.1857 174.1 93.1871 174.1C93.1897 174.098 93.1951 174.095 93.2058 174.088C93.2272 174.075 93.27 174.048 93.3556 173.995C93.5268 173.889 93.8692 173.677 94.554 173.252L93.5 171.552ZM92.2658 172.331C91.853 172.507 91.4736 172.742 91.2109 172.92C91.0761 173.011 90.9644 173.093 90.8852 173.152C90.8455 173.182 90.8136 173.207 90.7907 173.225C90.7792 173.234 90.77 173.241 90.7632 173.247C90.7597 173.249 90.7569 173.252 90.7547 173.253C90.7535 173.254 90.7526 173.255 90.7518 173.256C90.7514 173.256 90.751 173.256 90.7507 173.257C90.7505 173.257 90.7503 173.257 90.7502 173.257C90.7501 173.257 90.75 173.257 90.75 173.257C90.7499 173.257 90.7498 173.257 91.3799 174.034C92.01 174.81 92.0099 174.81 92.0098 174.811C92.0098 174.811 92.0097 174.811 92.0096 174.811C92.0095 174.811 92.0094 174.811 92.0093 174.811C92.0091 174.811 92.009 174.811 92.0089 174.811C92.0087 174.811 92.0086 174.812 92.0087 174.811C92.0088 174.811 92.0096 174.811 92.0108 174.81C92.0134 174.808 92.0181 174.804 92.0248 174.799C92.0384 174.788 92.06 174.771 92.0886 174.75C92.146 174.706 92.2303 174.645 92.3326 174.576C92.544 174.432 92.8034 174.276 93.049 174.172L92.2658 172.331ZM90.5145 173.533L89.792 174.781L91.5228 175.783L92.2453 174.535L90.5145 173.533ZM89.877 174.656L88.877 175.904L90.4377 177.155L91.4377 175.907L89.877 174.656ZM77.5585 129.285C77.8398 127.656 78.7532 126.2 79.977 124.764C80.5864 124.049 81.2542 123.36 81.9374 122.665C82.6123 121.978 83.3098 121.277 83.937 120.574C85.1721 119.19 86.3009 117.623 86.4973 115.786C86.7015 113.877 85.8814 111.954 83.8695 109.913L82.4453 111.317C84.2153 113.113 84.6261 114.475 84.5087 115.574C84.3835 116.744 83.6382 117.905 82.4448 119.243C81.8577 119.901 81.2025 120.559 80.5107 121.263C79.8273 121.959 79.1148 122.693 78.4549 123.467C77.14 125.01 75.9587 126.796 75.5876 128.945L77.5585 129.285ZM83.8695 109.913C83.1799 109.214 82.2915 108.98 81.438 109.001C80.6013 109.022 79.7452 109.283 78.9728 109.635C77.4487 110.33 75.9657 111.512 75.2504 112.547L76.8957 113.684C77.3605 113.011 78.526 112.037 79.8022 111.455C80.43 111.169 81.012 111.012 81.4867 111.001C81.9448 110.99 82.2412 111.11 82.4453 111.317L83.8695 109.913ZM75.2504 112.547C73.272 115.409 71.7484 118.204 70.7197 120.281C70.2048 121.32 69.8126 122.182 69.5483 122.787C69.4161 123.089 69.3158 123.327 69.2481 123.491C69.2142 123.573 69.1885 123.636 69.171 123.68C69.1622 123.702 69.1555 123.718 69.1508 123.73C69.1485 123.736 69.1467 123.741 69.1454 123.744C69.1448 123.745 69.1442 123.747 69.1439 123.748C69.1437 123.748 69.1435 123.749 69.1434 123.749C69.1433 123.749 69.1432 123.749 69.1432 123.749C69.1431 123.75 69.1431 123.75 70.0738 124.115C71.0045 124.481 71.0045 124.481 71.0045 124.481C71.0045 124.481 71.0045 124.481 71.0045 124.481C71.0044 124.481 71.0045 124.481 71.0045 124.481C71.0047 124.481 71.0049 124.48 71.0053 124.479C71.0061 124.477 71.0074 124.474 71.0092 124.469C71.0127 124.46 71.0184 124.446 71.026 124.427C71.0413 124.389 71.0648 124.332 71.0962 124.256C71.1592 124.103 71.2543 123.878 71.3808 123.588C71.634 123.009 72.0128 122.176 72.5119 121.168C73.511 119.151 74.987 116.446 76.8957 113.684L75.2504 112.547ZM82.3015 181.251L84.8857 184.387L86.4291 183.115L83.845 179.979L82.3015 181.251ZM84.6603 183.675L84.5594 184.997L86.5536 185.149L86.6545 183.828L84.6603 183.675ZM84.5682 184.92L84.2563 186.936L86.2327 187.242L86.5447 185.226L84.5682 184.92ZM84.2445 187.089V188.336H86.2445V187.089H84.2445ZM84.245 188.305L84.141 191.568L86.14 191.632L86.244 188.368L84.245 188.305ZM84.1418 191.652L84.2458 193.667L86.2432 193.564L86.1392 191.549L84.1418 191.652ZM84.2452 193.655L84.3492 196.342L86.3477 196.265L86.2437 193.577L84.2452 193.655ZM84.3644 196.481L84.6764 198.209L86.6445 197.854L86.3326 196.126L84.3644 196.481ZM84.6663 198.139L84.8743 200.059L86.8626 199.844L86.6546 197.924L84.6663 198.139ZM84.8756 200.071L85.0836 201.799L87.0692 201.56L86.8613 199.832L84.8756 200.071ZM85.0991 201.891L85.515 203.811L87.4697 203.387L87.0537 201.467L85.0991 201.891ZM86.7865 202.643L85.5386 202.259L84.9504 204.171L86.1983 204.555L86.7865 202.643ZM85.5045 202.249L83.0087 201.577L82.4888 203.509L84.9845 204.181L85.5045 202.249ZM82.7487 201.543H81.0849V203.543H82.7487V201.543ZM81.0307 201.545L79.2629 201.641L79.3713 203.638L81.1391 203.542L81.0307 201.545ZM78.872 201.744L77.5201 202.416L78.4103 204.206L79.7622 203.535L78.872 201.744ZM77.287 202.576L76.1431 203.632L77.4996 205.102L78.6435 204.046L77.287 202.576ZM76.0657 203.712L75.2337 204.672L76.7451 205.982L77.577 205.022L76.0657 203.712ZM75.0568 204.966L74.5369 206.31L76.4021 207.031L76.9221 205.688L75.0568 204.966ZM74.4767 206.551L74.2687 208.279L76.2543 208.518L76.4623 206.79L74.4767 206.551ZM74.2623 208.358L74.1583 210.95L76.1567 211.03L76.2607 208.439L74.2623 208.358ZM74.1678 211.133L74.3758 212.573L76.3552 212.287L76.1472 210.847L74.1678 211.133ZM74.5222 212.967L75.5621 214.599L77.2487 213.525L76.2088 211.893L74.5222 212.967ZM75.7771 214.84L76.609 215.512L77.8656 213.956L77.0337 213.284L75.7771 214.84ZM76.8504 215.656L77.9943 216.136L78.7681 214.292L77.6242 213.812L76.8504 215.656ZM78.1328 216.182L80.0046 216.662L80.5014 214.725L78.6296 214.245L78.1328 216.182ZM80.1822 216.691L82.8859 216.883L83.0276 214.888L80.3238 214.696L80.1822 216.691ZM83.0079 216.884L84.8798 216.788L84.7773 214.791L82.9055 214.887L83.0079 216.884ZM84.8994 216.787L87.6031 216.595L87.4614 214.6L84.7577 214.792L84.8994 216.787ZM87.7263 216.579L90.638 216.003L90.2499 214.041L87.3382 214.617L87.7263 216.579ZM90.6615 215.998L93.6772 215.326L93.2422 213.374L90.2265 214.046L90.6615 215.998ZM92.9776 215.226L93.6753 215.61L94.6395 213.858L93.9418 213.474L92.9776 215.226ZM94.1574 215.734H94.8115V213.734H94.1574V215.734ZM94.8115 215.734H96.1574V213.734H94.8115V215.734ZM96.3459 215.716L98.8459 215.236L98.4689 213.272L95.9689 213.752L96.3459 215.716ZM98.7322 215.251L102.57 214.963L102.421 212.969L98.5826 213.257L98.7322 215.251ZM102.576 214.963L105.238 214.748L105.077 212.755L102.415 212.969L102.576 214.963ZM105.197 214.751L109.513 214.581L109.435 212.583L105.118 212.752L105.197 214.751ZM109.516 214.581L118.771 214.197L118.688 212.199L109.433 212.583L109.516 214.581ZM118.681 214.197L120.656 214.293L120.753 212.295L118.778 212.199L118.681 214.197ZM120.74 214.293L123.444 214.197L123.373 212.199L120.669 212.295L120.74 214.293ZM123.372 214.197L125.972 214.293L126.045 212.295L123.446 212.199L123.372 214.197ZM125.926 214.291L135.181 215.058L135.346 213.065L126.091 212.297L125.926 214.291ZM135.125 215.052L138.557 215.532L138.834 213.552L135.402 213.072L135.125 215.052ZM138.564 215.533L140.748 215.821L141.01 213.838L138.826 213.55L138.564 215.533ZM140.738 215.82L142.09 216.012L142.371 214.032L141.02 213.84L140.738 215.82ZM142.425 216.003L143.881 215.715L143.493 213.753L142.037 214.041L142.425 216.003ZM144.186 215.6L145.018 215.12L144.019 213.388L143.187 213.868L144.186 215.6ZM144.306 215.231L147.842 215.999L148.266 214.045L144.731 213.277L144.306 215.231ZM147.902 216.01L150.398 216.394L150.702 214.417L148.206 214.033L147.902 216.01ZM150.452 216.401L153.363 216.689L153.56 214.699L150.648 214.411L150.452 216.401ZM153.423 216.693L155.919 216.789L155.996 214.79L153.5 214.694L153.423 216.693ZM155.957 216.79H158.141V214.79H155.957V216.79ZM158.408 216.753L160.488 216.178L159.954 214.25L157.874 214.826L158.408 216.753ZM160.666 216.109L162.018 215.437L161.128 213.646L159.776 214.318L160.666 216.109ZM162.315 215.212L163.355 214.06L161.87 212.72L160.831 213.872L162.315 215.212ZM163.536 213.775L164.056 212.527L162.21 211.757L161.69 213.005L163.536 213.775ZM164.122 212.285L164.33 210.845L162.351 210.559L162.143 211.999L164.122 212.285ZM164.339 210.637L164.131 207.469L162.135 207.6L162.343 210.768L164.339 210.637ZM164.086 207.233L163.358 204.93L161.451 205.532L162.179 207.836L164.086 207.233ZM163.181 204.6L161.933 203.064L160.381 204.326L161.629 205.861L163.181 204.6ZM161.681 202.843L160.433 202.075L159.385 203.779L160.633 204.547L161.681 202.843ZM160.164 201.96L158.708 201.576L158.198 203.51L159.654 203.894L160.164 201.96ZM158.453 201.543H156.997V203.543H158.453V201.543ZM156.946 201.544L155.074 201.64L155.177 203.638L157.049 203.542L156.946 201.544ZM154.791 201.697L153.439 202.177L154.108 204.061L155.46 203.581L154.791 201.697ZM153.512 202.154L151.744 202.634L152.268 204.564L154.036 204.084L153.512 202.154ZM152.99 203.777L153.302 202.049L151.334 201.693L151.022 203.421L152.99 203.777ZM153.305 202.03L154.033 197.519L152.058 197.2L151.331 201.712L153.305 202.03ZM154.044 197.412L154.252 193.477L152.255 193.371L152.047 197.307L154.044 197.412ZM154.253 193.451L154.357 189.611L152.358 189.557L152.254 193.397L154.253 193.451ZM154.355 189.51L154.147 186.726L152.152 186.875L152.36 189.659L154.355 189.51ZM154.129 186.598L153.193 182.086L151.235 182.492L152.171 187.004L154.129 186.598ZM153.131 181.891L151.675 178.532L149.84 179.327L151.296 182.687L153.131 181.891ZM151.647 178.471L150.607 176.455L148.829 177.372L149.869 179.388L151.647 178.471ZM150.471 176.255L148.287 173.759L146.782 175.076L148.965 177.572L150.471 176.255ZM148.134 173.618L146.47 172.37L145.27 173.97L146.934 175.218L148.134 173.618ZM146.334 172.284L143.214 170.652L142.287 172.424L145.407 174.056L146.334 172.284ZM142.954 170.559L138.795 169.695L138.388 171.653L142.547 172.517L142.954 170.559ZM137.981 169.882L137.358 170.362L138.577 171.947L139.201 171.467L137.981 169.882ZM137.559 170.241L134.336 171.681L135.151 173.507L138.375 172.067L137.559 170.241ZM134.613 171.603L129.517 172.275L129.779 174.257L134.874 173.585L134.613 171.603ZM128.657 173.132L128.553 173.9L130.535 174.168L130.639 173.4L128.657 173.132ZM128.555 173.884L127.931 178.012L129.909 178.311L130.533 174.183L128.555 173.884ZM127.976 177.833L127.04 180.52L128.929 181.178L129.865 178.49L127.976 177.833ZM127.097 180.388L125.849 182.788L127.624 183.71L128.871 181.311L127.097 180.388ZM125.972 182.605L124.516 184.332L126.045 185.621L127.501 183.893L125.972 182.605ZM124.602 184.242L123.458 185.298L124.815 186.768L125.959 185.712L124.602 184.242ZM123.598 185.19L122.246 186.054L123.323 187.739L124.675 186.875L123.598 185.19ZM122.568 185.92L119.969 186.496L120.401 188.449L123.001 187.873L122.568 185.92ZM120.185 186.473H118.625V188.473H120.185V186.473ZM118.769 186.483L116.794 186.195L116.505 188.174L118.481 188.462L118.769 186.483ZM117.116 186.3L115.66 185.532L114.727 187.301L116.183 188.069L117.116 186.3ZM115.836 185.651L113.549 183.731L112.263 185.263L114.551 187.183L115.836 185.651ZM113.756 183.971L112.508 181.955L110.808 183.007L112.055 185.023L113.756 183.971ZM112.59 182.118L111.654 179.718L109.79 180.445L110.726 182.844L112.59 182.118ZM111.696 179.853L110.864 176.302L108.916 176.758L109.748 180.309L111.696 179.853ZM110.885 176.435L110.574 173.171L108.583 173.361L108.895 176.625L110.885 176.435ZM109.649 172.268L106.945 172.076L106.804 174.071L109.507 174.263L109.649 172.268ZM107.051 172.09L103.307 171.418L102.954 173.386L106.698 174.058L107.051 172.09ZM103.55 171.494L101.054 170.342L100.216 172.158L102.712 173.31L103.55 171.494ZM101.313 170.515L100.481 169.747L99.1248 171.217L99.9567 171.985L101.313 170.515ZM77.7871 175.733C77.7838 175.729 77.876 175.853 78.0415 176.075C78.198 176.285 78.4032 176.561 78.6096 176.838C78.8156 177.115 79.022 177.392 79.1791 177.603C79.3126 177.781 79.4561 177.974 79.4937 178.018L81.0123 176.717C81.0331 176.741 80.9619 176.648 80.782 176.406C80.6256 176.197 80.4198 175.921 80.2139 175.644C79.8123 175.104 79.3852 174.53 79.3594 174.497L77.7871 175.733ZM79.4937 178.018C79.9304 178.528 80.6379 179.343 81.2342 180.028C81.5328 180.371 81.8043 180.682 82.001 180.908C82.0994 181.02 82.1792 181.112 82.2343 181.175C82.2619 181.207 82.2833 181.231 82.2979 181.248C82.3052 181.256 82.3107 181.262 82.3145 181.267C82.3163 181.269 82.3177 181.271 82.3187 181.272C82.3192 181.272 82.3195 181.273 82.3198 181.273C82.3199 181.273 82.32 181.273 82.32 181.273C82.3201 181.273 82.3201 181.273 82.3201 181.273C82.3201 181.273 82.3201 181.273 83.0732 180.615C83.8264 179.957 83.8264 179.957 83.8263 179.957C83.8263 179.957 83.8263 179.957 83.8263 179.957C83.8262 179.957 83.8261 179.957 83.826 179.957C83.8258 179.957 83.8254 179.956 83.825 179.956C83.824 179.955 83.8226 179.953 83.8208 179.951C83.8171 179.947 83.8116 179.941 83.8043 179.932C83.7898 179.916 83.7685 179.891 83.741 179.86C83.6859 179.797 83.6064 179.705 83.5081 179.593C83.3117 179.368 83.0408 179.057 82.7428 178.715C82.1459 178.029 81.4433 177.22 81.0123 176.717L79.4937 178.018ZM90.2029 175.692C83.9327 171.61 79.9529 164.75 77.9494 156.488C75.9463 148.227 75.9421 138.647 77.5585 129.285L75.5876 128.945C73.9359 138.512 73.9244 148.376 76.0057 156.959C78.0867 165.54 82.2831 172.923 89.1119 177.368L90.2029 175.692ZM70.0738 124.115C69.1316 123.78 69.1315 123.781 69.1314 123.781C69.1314 123.781 69.1312 123.781 69.1311 123.782C69.1309 123.782 69.1306 123.783 69.1303 123.784C69.1296 123.786 69.1287 123.789 69.1275 123.792C69.1251 123.799 69.1218 123.808 69.1176 123.82C69.1092 123.844 69.0971 123.88 69.0817 123.925C69.0507 124.016 69.0063 124.15 68.9508 124.322C68.8397 124.668 68.6841 125.171 68.5029 125.812C68.1406 127.093 67.6754 128.925 67.2596 131.14C66.4294 135.561 65.7886 141.548 66.5811 147.742L68.565 147.488C67.808 141.573 68.4177 135.81 69.2252 131.509C69.6283 129.362 70.0787 127.589 70.4274 126.356C70.6017 125.74 70.7504 125.259 70.8548 124.934C70.907 124.772 70.9481 124.649 70.9758 124.567C70.9896 124.527 71 124.496 71.0069 124.477C71.0103 124.467 71.0127 124.46 71.0143 124.455C71.0151 124.453 71.0156 124.452 71.0159 124.451C71.016 124.45 71.0161 124.45 71.0161 124.45C71.0161 124.45 71.0161 124.45 71.0161 124.45C71.0161 124.45 71.016 124.45 70.0738 124.115ZM66.5811 147.742C68.1368 159.901 73.7386 170.584 77.7871 175.733L79.3594 174.497C75.5112 169.602 70.0702 159.253 68.565 147.488L66.5811 147.742Z" fill="black" mask="url(#path-180-inside-1)"/>
<path d="M136.529 178.739C136.529 178.739 136.172 200.314 130.607 206.846C133.401 204.822 145.938 201.515 145.673 209.244C145.408 216.972 141.157 213.752 138.657 213.752C134.829 213.124 119.983 212.285 119.159 212.88V188.236" stroke="black" stroke-linecap="round" stroke-linejoin="round"/>
<path d="M101.305 178.739C101.305 178.739 101.663 200.314 107.228 206.846C104.433 204.822 91.8964 201.515 92.1616 209.244C92.4268 216.972 96.6772 213.752 99.1772 213.752C103.006 213.124 117.852 212.285 118.676 212.88V188.236" stroke="black" stroke-linecap="round" stroke-linejoin="round"/>
<path d="M88.1575 122.251C94.1575 121.051 104.657 128.085 109.157 131.751C105.324 136.418 96.7575 146.151 93.1575 147.751C88.6575 149.751 80.6575 123.751 88.1575 122.251Z" fill="#E3954F" stroke="black"/>
<path d="M151.157 122.251C145.157 121.051 134.657 128.085 130.157 131.751C133.991 136.418 142.557 146.151 146.157 147.751C150.657 149.751 158.657 123.751 151.157 122.251Z" fill="#E3954F" stroke="black"/>
<circle cx="119.657" cy="158.751" r="29" fill="#E3964F" stroke="black"/>
<circle cx="108.657" cy="152.751" r="4.5" fill="#282828"/>
<circle cx="131.657" cy="152.751" r="4.5" fill="#282828"/>
<path d="M126.057 177.251C127.257 177.033 127.957 175.161 128.157 174.251C126.957 175.124 125.657 174.615 125.157 174.251C125.457 174.797 126.057 176.161 126.057 177.251Z" fill="white"/>
<path d="M114.257 177.251C113.057 177.033 112.357 175.161 112.157 174.251C113.357 175.124 114.657 174.615 115.157 174.251C114.857 174.797 114.257 176.161 114.257 177.251Z" fill="white"/>
<path d="M120.157 169.251C121.837 172.886 126.989 178.096 134.157 169.857" stroke="#282828"/>
<path d="M120.157 169.251C118.477 172.886 113.325 178.096 106.157 169.857" stroke="#282828"/>
<path d="M120.776 169.764C120.413 170.05 119.902 170.05 119.539 169.764L112.899 164.537C112.154 163.95 112.569 162.751 113.518 162.751L126.797 162.751C127.746 162.751 128.161 163.95 127.416 164.537L120.776 169.764Z" fill="#282828"/>
<path d="M88.1575 127.251C91.3241 127.918 98.7575 130.351 103.157 134.751" stroke="#282828"/>
<path d="M151.157 127.251C147.991 127.918 140.557 130.351 136.157 134.751" stroke="#282828"/>
<path d="M98.1575 131.251C96.1575 131.418 91.8575 132.851 90.6575 137.251" stroke="#282828"/>
<path d="M141.157 131.251C143.157 131.418 147.457 132.851 148.657 137.251" stroke="#282828"/>
<path d="M114.157 168.251C110.41 165.637 101.963 161.194 98.1575 164.33" stroke="#454545" stroke-width="0.5"/>
<path d="M111.795 168.99C108.425 168.035 101.239 166.966 99.4645 170.327" stroke="#454545" stroke-width="0.5"/>
<path d="M114.248 170.991C111.042 170.703 104.171 170.848 102.33 173.729" stroke="#454545" stroke-width="0.5"/>
<path d="M125.248 168.251C128.996 165.637 137.443 161.194 141.248 164.33" stroke="#454545" stroke-width="0.5"/>
<path d="M127.61 168.99C130.981 168.035 138.166 166.966 139.941 170.327" stroke="#454545" stroke-width="0.5"/>
<path d="M125.157 170.991C128.363 170.703 135.235 170.848 137.075 173.729" stroke="#454545" stroke-width="0.5"/>
<path d="M86.1575 184.251C87.3241 181.418 89.8575 176.651 90.6575 176.251" stroke="black"/>
<path d="M158.237 163.232C159.494 158.201 163.477 160.612 165.311 162.446L169.045 162.643C169.111 162.577 169.596 162.132 171.01 160.874C174.941 158.123 174.941 163.232 174.941 164.215C175.924 165.984 175.137 166.966 174.351 167.556C174.98 169.442 174.089 171.355 173.565 172.076C172.124 174.696 169.085 180.251 168.456 181.509C169.438 182.884 168.849 188.191 168.652 188.78C168.967 188.937 169.569 190.942 169.831 191.924C169.766 192.776 169.635 195.147 169.635 197.82C168.692 201.908 167.408 203.323 166.884 203.519C166.818 205.288 166.687 209.258 166.687 210.987C166.215 212.717 166.49 217.865 166.687 220.224L149.393 218.062L149.786 212.363C149.917 208.498 150.179 200.06 150.179 197.231C150.179 195.187 149.393 192.318 149 191.138C149.393 190.156 150.376 187.798 151.162 186.225C152.537 184.26 153.323 183.081 153.913 181.116C154.896 177.185 155.878 176.989 156.075 176.399C156.468 176.203 157.254 171.093 157.843 169.717C157.45 167.752 157.647 167.949 158.04 166.77C157.057 165.787 157.45 164.804 158.237 163.232Z" fill="white"/>
<path d="M163.739 172.862C169.831 176.399 171.403 174.041 173.369 172.272C173.438 172.21 173.503 172.147 173.565 172.084M163.15 174.631C159.752 173.144 158.362 171.141 157.895 169.521M173.565 172.084C175.266 170.34 174.351 168.125 174.351 167.556C176.317 166.573 174.744 164.215 174.941 163.822C175.137 163.429 174.941 160.677 173.369 160.088C171.797 159.498 169.635 162.053 169.242 162.446C168.927 162.761 166.49 162.577 165.311 162.446C163.543 160.612 159.651 158.201 158.237 163.232C157.843 163.822 157.057 165.394 158.04 166.77C157.769 167.041 157.498 168.142 157.895 169.521M173.565 172.084C172.243 174.579 169.845 179.027 168.456 181.377M167.473 182.884C167.632 182.726 167.986 182.171 168.456 181.377M168.456 181.377C168.902 182.885 169.521 186.418 168.542 188.78M167.277 199.589C167.127 200.635 166.409 201.341 165.901 201.272M165.901 201.272C165.741 201.251 165.602 201.153 165.508 200.964C164.132 197.034 167.08 191.924 168.456 188.977C168.486 188.912 168.515 188.847 168.542 188.78M165.901 201.272C166.013 201.847 166.277 202.534 166.687 202.526M167.866 200.964C167.392 202.117 166.998 202.521 166.687 202.526M166.687 202.526C166.72 202.858 166.794 203.163 166.919 203.323M168.542 188.78C169.037 189.37 169.989 190.942 169.831 192.514C169.635 194.479 169.635 195.658 169.635 197.82C168.107 202.99 167.29 203.795 166.919 203.323M166.919 203.323C166.645 208.563 166.215 219.28 166.687 220.224C165.586 220.066 154.699 218.717 149.393 218.062C150.048 210.136 150.887 193.654 149 191.138C149 190.156 152.537 183.671 153.127 183.277C153.717 182.884 154.699 177.382 155.682 176.989C156.664 176.596 157.357 169.717 157.895 169.521" stroke="#C2E2F0"/>
<path d="M169.242 171.879C169.373 171.748 169.595 171.407 169.438 171.093" stroke="#957975" stroke-width="0.5"/>
<path d="M168.849 168.931C167.905 169.089 167.932 169.914 168.063 170.307C169.438 171.683 169.831 171.29 170.617 170.307C171.403 169.324 170.028 168.735 168.849 168.931Z" fill="#6F372A"/>
<path d="M167.67 172.513C168.325 171.924 169.714 171.216 170.028 173.103" stroke="#957975" stroke-width="0.5"/>
<path d="M164.918 168.145C165.547 167.831 165.573 167.49 165.508 167.359C164.866 166.396 164.309 166.289 163.936 166.443C162.56 169.063 164.132 168.538 164.918 168.145Z" fill="#282828"/>
<path d="M163.543 166.77C163.626 166.644 163.761 166.515 163.936 166.443M163.936 166.443C164.309 166.289 164.866 166.396 165.508 167.359C165.573 167.49 165.547 167.831 164.918 168.145C164.132 168.538 162.56 169.063 163.936 166.443Z" stroke="#282828" stroke-width="0.5"/>
<path d="M171.658 168.035C171.196 167.739 171.177 167.418 171.225 167.294C171.696 166.387 172.105 166.286 172.379 166.431C173.39 168.9 172.235 168.405 171.658 168.035Z" fill="#282828"/>
<path d="M172.668 166.739C172.607 166.621 172.508 166.499 172.379 166.431M172.379 166.431C172.105 166.286 171.696 166.387 171.225 167.294C171.177 167.418 171.196 167.739 171.658 168.035C172.235 168.405 173.39 168.9 172.379 166.431Z" stroke="#282828" stroke-width="0.5"/>
<circle cx="164.722" cy="166.966" r="0.196522" fill="white"/>
<circle cx="172.19" cy="166.966" r="0.196522" fill="white"/>
<path d="M159.219 192.907C160.071 195.2 161.577 200.611 160.791 203.912C160.595 204.109 160.349 204.207 160.079 203.912M159.219 201.554C159.514 202.93 159.809 203.617 160.079 203.912M160.079 203.912C159.74 204.317 159.145 204.733 158.63 204.395M157.844 202.733C158.023 203.693 158.312 204.187 158.63 204.395M158.63 204.395C158.04 205.544 156.271 205.799 153.913 197.624" stroke="#C2E2F0"/>
<path d="M141.5 216.5C145 213.833 153 211.5 161 221.5C143 221 150.5 213.5 141.5 216.5Z" fill="white"/>
<path d="M179 214.5C175.5 211.833 166 209.021 158 219.021C174.5 226.5 170 211.5 179 214.5Z" fill="white"/>
<path d="M141 216.5C144.051 214.364 151.487 212.117 158.552 218.5M160.5 220.5C159.856 219.755 159.206 219.09 158.552 218.5M158.552 218.5C160.187 216.49 163.408 213.77 167.5 212.578C170.875 211.594 174.842 211.65 179 214" stroke="#C2E2F0"/>
<defs>
<linearGradient id="paint0_linear" x1="21.3539" y1="212.15" x2="43.1451" y2="131.477" gradientUnits="userSpaceOnUse">
<stop stop-color="white" stop-opacity="0.23"/>
<stop offset="1" stop-color="white" stop-opacity="0"/>
</linearGradient>
</defs>
</svg>
