<svg width="99" height="106" viewBox="0 0 99 106" fill="none" xmlns="http://www.w3.org/2000/svg">
<mask id="path-1-inside-1" fill="white">
<path fill-rule="evenodd" clip-rule="evenodd" d="M34.803 60.4822L33.1392 60.8662L31.2674 61.4421L29.1876 62.1141C29.1876 62.1141 29.1133 62.3454 29.027 62.4021C27.6574 63.2514 27.6574 63.2514 27.6574 63.2514C26.999 63.5315 26.3799 64.0339 26.3799 64.0339L25.6574 65.2818L24.6574 66.5297C11.5584 58.0035 8.30497 38.0438 11.5731 19.1154C12.8778 11.5585 25.7211 8.28758 18.1574 0.615361C16.37 -1.19767 12.2532 1.40778 11.0731 3.11534C7.18595 8.73979 5.07381 14.1154 5.07381 14.1154C5.07381 14.1154 1.02363 25.5055 2.57305 37.6154C4.10351 49.5771 9.62489 60.093 13.5732 65.1154C13.6032 65.1535 15.2193 67.3283 15.253 67.3676C16.1207 68.3802 18.0732 70.6154 18.0732 70.6154L20.6574 73.7514L20.5565 75.0728L20.2445 77.0886V78.3365L20.1405 81.6002L20.2445 83.616L20.3485 86.3037L20.6605 88.0315L20.8684 89.9513L21.0764 91.6792L21.4924 93.599L20.2445 93.215L17.7487 92.5431H16.0849L14.3171 92.6391L12.9652 93.311L11.8213 94.3669L10.9894 95.3268L10.4695 96.6707L10.2615 98.3985L10.1575 100.99L10.3655 102.43L11.4054 104.062L12.2373 104.734L13.3812 105.214L15.253 105.694L17.9567 105.886L19.8285 105.79L22.5323 105.598L25.444 105.022L28.4597 104.35L29.1574 104.734H29.8115H31.1574L33.6574 104.254L37.4954 103.966L40.1574 103.751L44.4741 103.582L53.7292 103.198L55.705 103.294L58.4087 103.198L61.0084 103.294L70.2635 104.062L73.6952 104.542L75.8789 104.83L77.2308 105.022L78.6867 104.734L79.5186 104.254L83.0542 105.022L85.55 105.406L88.4617 105.694L90.9574 105.79H93.1412L95.221 105.214L96.5729 104.542L97.6128 103.39L98.1327 102.142L98.3407 100.702L98.1327 97.5346L97.4048 95.2308L96.1569 93.695L94.909 92.927L93.4532 92.5431H91.9973L90.1255 92.6391L88.7736 93.119L87.0058 93.599L87.3178 91.8711L88.0457 87.3596L88.2537 83.424L88.3577 79.5844L88.1497 76.8007L87.2138 72.2891L85.7579 68.9294L84.718 66.9136L82.5343 64.4179L80.8704 63.17L77.7507 61.5381L73.5912 60.6742L72.9672 61.1542L69.7435 62.594L64.6481 63.266L64.5441 64.0339L63.9201 68.1615L62.9842 70.8493L61.7364 73.249L60.2805 74.9768L59.1366 76.0327L57.7848 76.8966L55.185 77.4726H53.6252L51.6494 77.1846L50.1935 76.4167L47.9057 74.4969L46.6579 72.4811L45.722 70.0813L44.89 66.5297L44.5781 63.266L41.8743 63.074L38.1307 62.4021L35.635 61.2502L34.803 60.4822Z"/>
</mask>
<path fill-rule="evenodd" clip-rule="evenodd" d="M34.803 60.4822L33.1392 60.8662L31.2674 61.4421L29.1876 62.1141C29.1876 62.1141 29.1133 62.3454 29.027 62.4021C27.6574 63.2514 27.6574 63.2514 27.6574 63.2514C26.999 63.5315 26.3799 64.0339 26.3799 64.0339L25.6574 65.2818L24.6574 66.5297C11.5584 58.0035 8.30497 38.0438 11.5731 19.1154C12.8778 11.5585 25.7211 8.28758 18.1574 0.615361C16.37 -1.19767 12.2532 1.40778 11.0731 3.11534C7.18595 8.73979 5.07381 14.1154 5.07381 14.1154C5.07381 14.1154 1.02363 25.5055 2.57305 37.6154C4.10351 49.5771 9.62489 60.093 13.5732 65.1154C13.6032 65.1535 15.2193 67.3283 15.253 67.3676C16.1207 68.3802 18.0732 70.6154 18.0732 70.6154L20.6574 73.7514L20.5565 75.0728L20.2445 77.0886V78.3365L20.1405 81.6002L20.2445 83.616L20.3485 86.3037L20.6605 88.0315L20.8684 89.9513L21.0764 91.6792L21.4924 93.599L20.2445 93.215L17.7487 92.5431H16.0849L14.3171 92.6391L12.9652 93.311L11.8213 94.3669L10.9894 95.3268L10.4695 96.6707L10.2615 98.3985L10.1575 100.99L10.3655 102.43L11.4054 104.062L12.2373 104.734L13.3812 105.214L15.253 105.694L17.9567 105.886L19.8285 105.79L22.5323 105.598L25.444 105.022L28.4597 104.35L29.1574 104.734H29.8115H31.1574L33.6574 104.254L37.4954 103.966L40.1574 103.751L44.4741 103.582L53.7292 103.198L55.705 103.294L58.4087 103.198L61.0084 103.294L70.2635 104.062L73.6952 104.542L75.8789 104.83L77.2308 105.022L78.6867 104.734L79.5186 104.254L83.0542 105.022L85.55 105.406L88.4617 105.694L90.9574 105.79H93.1412L95.221 105.214L96.5729 104.542L97.6128 103.39L98.1327 102.142L98.3407 100.702L98.1327 97.5346L97.4048 95.2308L96.1569 93.695L94.909 92.927L93.4532 92.5431H91.9973L90.1255 92.6391L88.7736 93.119L87.0058 93.599L87.3178 91.8711L88.0457 87.3596L88.2537 83.424L88.3577 79.5844L88.1497 76.8007L87.2138 72.2891L85.7579 68.9294L84.718 66.9136L82.5343 64.4179L80.8704 63.17L77.7507 61.5381L73.5912 60.6742L72.9672 61.1542L69.7435 62.594L64.6481 63.266L64.5441 64.0339L63.9201 68.1615L62.9842 70.8493L61.7364 73.249L60.2805 74.9768L59.1366 76.0327L57.7848 76.8966L55.185 77.4726H53.6252L51.6494 77.1846L50.1935 76.4167L47.9057 74.4969L46.6579 72.4811L45.722 70.0813L44.89 66.5297L44.5781 63.266L41.8743 63.074L38.1307 62.4021L35.635 61.2502L34.803 60.4822Z" fill="#E3954F"/>
<path d="M5.07381 14.1154C4.65559 13.8413 4.65547 13.8415 4.65531 13.8418C4.65522 13.8419 4.65502 13.8422 4.65482 13.8425C4.65442 13.8431 4.65388 13.844 4.65319 13.845C4.65182 13.8471 4.64988 13.8501 4.64739 13.8539C4.64239 13.8617 4.63517 13.8728 4.62583 13.8874C4.60714 13.9166 4.57995 13.9593 4.54505 14.015C4.47525 14.1265 4.37459 14.29 4.24945 14.5005C3.99921 14.9215 3.65079 15.5313 3.25527 16.2906C2.46495 17.8079 1.48303 19.9292 0.721717 22.3398C-0.791544 27.1312 -1.47897 33.2199 2.17837 37.9223L2.96773 37.3084C-0.37474 33.0108 0.188216 27.3495 1.67529 22.6409C2.41415 20.3015 3.36988 18.2353 4.14217 16.7526C4.52796 16.0119 4.86709 15.4186 5.10907 15.0115C5.23003 14.8079 5.32665 14.6511 5.3926 14.5458C5.42558 14.4931 5.45088 14.4533 5.46772 14.4271C5.47613 14.4139 5.48244 14.4042 5.48652 14.3979C5.48857 14.3947 5.49006 14.3924 5.49098 14.391C5.49144 14.3903 5.49176 14.3898 5.49194 14.3895C5.49203 14.3894 5.49205 14.3894 5.49209 14.3893C5.49208 14.3893 5.49204 14.3894 5.07381 14.1154ZM34.803 60.4822L35.4813 59.7474L35.093 59.389L34.5782 59.5079L34.803 60.4822ZM33.1392 60.8662L32.9144 59.8918L32.8794 59.8999L32.8451 59.9104L33.1392 60.8662ZM31.2674 61.4421L30.9733 60.4863L30.96 60.4906L31.2674 61.4421ZM29.1876 62.1141L28.8802 61.1625L28.3923 61.3201L28.2355 61.8083L29.1876 62.1141ZM29.027 62.4021L29.554 63.2519L29.5649 63.2452L29.5756 63.2381L29.027 62.4021ZM27.6574 63.2514V62.2514H27.4535L27.2658 62.3312L27.6574 63.2514ZM26.3799 64.0339L25.7498 63.2574L25.6068 63.3734L25.5145 63.5328L26.3799 64.0339ZM25.6574 65.2818L26.4377 65.9071L26.485 65.8482L26.5228 65.7828L25.6574 65.2818ZM24.6574 66.5297L24.1119 67.3678L24.8712 67.862L25.4377 67.155L24.6574 66.5297ZM11.5731 19.1154L12.5585 19.2855L11.5731 19.1154ZM18.1574 0.615361L17.4453 1.31741L18.1574 0.615361ZM11.0731 3.11534L11.8957 3.68388L11.0731 3.11534ZM5.07381 14.1154L4.14308 13.7497L4.13709 13.7649L4.13161 13.7803L5.07381 14.1154ZM13.5732 65.1154L14.3594 64.4973L13.5732 65.1154ZM18.0732 70.6154L18.845 69.9794L18.8358 69.9683L18.8264 69.9575L18.0732 70.6154ZM20.6574 73.7514L21.6545 73.8276L21.6852 73.4262L21.4291 73.1155L20.6574 73.7514ZM20.5565 75.0728L21.5447 75.2258L21.5506 75.1875L21.5536 75.149L20.5565 75.0728ZM20.2445 77.0886L19.2563 76.9357L19.2445 77.0117V77.0886H20.2445ZM20.2445 78.3365L21.244 78.3683L21.2445 78.3524V78.3365H20.2445ZM20.1405 81.6002L19.141 81.5683L19.1397 81.61L19.1418 81.6517L20.1405 81.6002ZM20.2445 83.616L21.2438 83.5773L21.2432 83.5645L20.2445 83.616ZM20.3485 86.3037L19.3492 86.3424L19.3519 86.4124L19.3644 86.4814L20.3485 86.3037ZM20.6605 88.0315L21.6546 87.9238L21.6508 87.8887L21.6445 87.8539L20.6605 88.0315ZM20.8684 89.9513L19.8742 90.0591L19.8756 90.0708L20.8684 89.9513ZM21.0764 91.6792L20.0836 91.7987L20.0892 91.8452L20.0991 91.8909L21.0764 91.6792ZM21.4924 93.599L21.1983 94.5547L22.8315 95.0573L22.4697 93.3872L21.4924 93.599ZM20.2445 93.215L20.5386 92.2592L20.5216 92.254L20.5045 92.2494L20.2445 93.215ZM17.7487 92.5431L18.0087 91.5775L17.881 91.5431H17.7487V92.5431ZM16.0849 92.5431V91.5431H16.0578L16.0307 91.5445L16.0849 92.5431ZM14.3171 92.6391L14.2629 91.6405L14.0568 91.6517L13.872 91.7436L14.3171 92.6391ZM12.9652 93.311L12.5201 92.4155L12.3921 92.4792L12.287 92.5762L12.9652 93.311ZM11.8213 94.3669L11.1431 93.6321L11.1021 93.6699L11.0657 93.712L11.8213 94.3669ZM10.9894 95.3268L10.2337 94.6719L10.1197 94.8035L10.0568 94.966L10.9894 95.3268ZM10.4695 96.6707L9.53686 96.3098L9.49163 96.4267L9.47665 96.5511L10.4695 96.6707ZM10.2615 98.3985L9.26867 98.279L9.26391 98.3186L9.26231 98.3584L10.2615 98.3985ZM10.1575 100.99L9.15832 100.95L9.15463 101.042L9.16779 101.133L10.1575 100.99ZM10.3655 102.43L9.37577 102.573L9.40653 102.786L9.52217 102.967L10.3655 102.43ZM11.4054 104.062L10.5621 104.599L10.6499 104.737L10.7771 104.84L11.4054 104.062ZM12.2373 104.734L11.609 105.512L11.7194 105.601L11.8504 105.656L12.2373 104.734ZM13.3812 105.214L12.9943 106.136L13.0618 106.164L13.1328 106.182L13.3812 105.214ZM15.253 105.694L15.0046 106.662L15.0921 106.685L15.1822 106.691L15.253 105.694ZM17.9567 105.886L17.8859 106.883L17.9469 106.888L18.0079 106.884L17.9567 105.886ZM19.8285 105.79L19.8798 106.788L19.8896 106.788L19.8994 106.787L19.8285 105.79ZM22.5323 105.598L22.6031 106.595L22.6652 106.591L22.7263 106.579L22.5323 105.598ZM25.444 105.022L25.638 106.003L25.6498 106L25.6615 105.998L25.444 105.022ZM28.4597 104.35L28.9418 103.474L28.6109 103.292L28.2422 103.374L28.4597 104.35ZM29.1574 104.734L28.6753 105.61L28.9004 105.734H29.1574V104.734ZM31.1574 104.734V105.734H31.2525L31.3459 105.716L31.1574 104.734ZM33.6574 104.254L33.5826 103.257L33.5253 103.261L33.4689 103.272L33.6574 104.254ZM37.4954 103.966L37.5702 104.963L37.5757 104.963L37.4954 103.966ZM40.1574 103.751L40.1182 102.752L40.0976 102.753L40.0771 102.755L40.1574 103.751ZM44.4741 103.582L44.5133 104.581L44.5155 104.581L44.4741 103.582ZM53.7292 103.198L53.7777 102.199L53.7327 102.197L53.6877 102.199L53.7292 103.198ZM55.705 103.294L55.6564 104.293L55.6984 104.295L55.7404 104.293L55.705 103.294ZM58.4087 103.198L58.4456 102.199L58.4094 102.197L58.3732 102.199L58.4087 103.198ZM61.0084 103.294L61.0911 102.297L61.0682 102.296L61.0453 102.295L61.0084 103.294ZM70.2635 104.062L70.402 103.072L70.3742 103.068L70.3462 103.065L70.2635 104.062ZM73.6952 104.542L73.5566 105.532L73.5644 105.533L73.6952 104.542ZM75.8789 104.83L76.0195 103.84L76.0097 103.838L75.8789 104.83ZM77.2308 105.022L77.0902 106.012L77.2583 106.036L77.4248 106.003L77.2308 105.022ZM78.6867 104.734L78.8807 105.715L79.043 105.683L79.1864 105.6L78.6867 104.734ZM79.5186 104.254L79.7308 103.277L79.3534 103.195L79.0189 103.388L79.5186 104.254ZM83.0542 105.022L82.842 105.999L82.8719 106.006L82.9022 106.01L83.0542 105.022ZM85.55 105.406L85.3979 106.394L85.4246 106.398L85.4515 106.401L85.55 105.406ZM88.4617 105.694L88.3633 106.689L88.3932 106.692L88.4232 106.693L88.4617 105.694ZM90.9574 105.79L90.919 106.789L90.9382 106.79H90.9574V105.79ZM93.1412 105.79V106.79H93.2771L93.4081 106.753L93.1412 105.79ZM95.221 105.214L95.4879 106.178L95.5802 106.152L95.6661 106.109L95.221 105.214ZM96.5729 104.542L97.018 105.437L97.1879 105.353L97.3151 105.212L96.5729 104.542ZM97.6128 103.39L98.355 104.06L98.4699 103.933L98.5358 103.775L97.6128 103.39ZM98.1327 102.142L99.0558 102.527L99.1044 102.41L99.1224 102.285L98.1327 102.142ZM98.3407 100.702L99.3304 100.845L99.3454 100.741L99.3385 100.637L98.3407 100.702ZM98.1327 97.5346L99.1306 97.4691L99.1226 97.3485L99.0862 97.2333L98.1327 97.5346ZM97.4048 95.2308L98.3583 94.9295L98.3009 94.748L98.1809 94.6002L97.4048 95.2308ZM96.1569 93.695L96.933 93.0644L96.8258 92.9324L96.681 92.8433L96.1569 93.695ZM94.909 92.927L95.4331 92.0754L95.3071 91.9978L95.164 91.9601L94.909 92.927ZM93.4532 92.5431L93.7082 91.5761L93.5828 91.5431H93.4532V92.5431ZM91.9973 92.5431V91.5431H91.9717L91.9461 91.5444L91.9973 92.5431ZM90.1255 92.6391L90.0743 91.6404L89.9285 91.6479L89.7909 91.6967L90.1255 92.6391ZM88.7736 93.119L89.0357 94.0841L89.0724 94.0741L89.1082 94.0614L88.7736 93.119ZM87.0058 93.599L86.0217 93.4213L85.7405 94.9787L87.2678 94.564L87.0058 93.599ZM87.3178 91.8711L88.3019 92.0488L88.3035 92.0396L88.305 92.0304L87.3178 91.8711ZM88.0457 87.3596L89.033 87.5189L89.0415 87.4659L89.0443 87.4124L88.0457 87.3596ZM88.2537 83.424L89.2523 83.4768L89.253 83.4639L89.2533 83.4511L88.2537 83.424ZM88.3577 79.5844L89.3573 79.6115L89.3587 79.5606L89.3549 79.5099L88.3577 79.5844ZM88.1497 76.8007L89.1469 76.7261L89.1421 76.6612L89.1289 76.5975L88.1497 76.8007ZM87.2138 72.2891L88.193 72.086L88.1721 71.9856L88.1314 71.8915L87.2138 72.2891ZM85.7579 68.9294L86.6755 68.5318L86.6621 68.5009L86.6467 68.471L85.7579 68.9294ZM84.718 66.9136L85.6068 66.4552L85.5509 66.3469L85.4706 66.2551L84.718 66.9136ZM82.5343 64.4179L83.2868 63.7594L83.218 63.6806L83.1343 63.6179L82.5343 64.4179ZM80.8704 63.17L81.4704 62.37L81.4057 62.3214L81.3339 62.2839L80.8704 63.17ZM77.7507 61.5381L78.2142 60.652L78.0907 60.5874L77.9541 60.559L77.7507 61.5381ZM73.5912 60.6742L73.7945 59.6951L73.3452 59.6018L72.9815 59.8816L73.5912 60.6742ZM72.9672 61.1542L73.375 62.0672L73.4831 62.019L73.5769 61.9468L72.9672 61.1542ZM69.7435 62.594L69.8743 63.5854L70.0185 63.5664L70.1514 63.5071L69.7435 62.594ZM64.6481 63.266L64.5173 62.2745L63.7597 62.3745L63.6571 63.1318L64.6481 63.266ZM64.5441 64.0339L65.5328 64.1834L65.534 64.1757L65.535 64.1681L64.5441 64.0339ZM63.9201 68.1615L64.8645 68.4904L64.895 68.4027L64.9089 68.311L63.9201 68.1615ZM62.9842 70.8493L63.8715 71.3106L63.9048 71.2464L63.9286 71.1781L62.9842 70.8493ZM61.7364 73.249L62.5011 73.8934L62.5725 73.8086L62.6236 73.7104L61.7364 73.249ZM60.2805 74.9768L60.9588 75.7116L61.0048 75.6691L61.0452 75.6212L60.2805 74.9768ZM59.1366 76.0327L59.6751 76.8754L59.7498 76.8277L59.8149 76.7675L59.1366 76.0327ZM57.7848 76.8966L58.001 77.873L58.174 77.8347L58.3232 77.7393L57.7848 76.8966ZM55.185 77.4726V78.4726H55.2945L55.4013 78.4489L55.185 77.4726ZM53.6252 77.4726L53.4809 78.4621L53.5527 78.4726H53.6252V77.4726ZM51.6494 77.1846L51.1828 78.0691L51.335 78.1493L51.5051 78.1742L51.6494 77.1846ZM50.1935 76.4167L49.5507 77.1827L49.6325 77.2514L49.727 77.3012L50.1935 76.4167ZM47.9057 74.4969L47.0555 75.0232L47.14 75.1597L47.2629 75.2629L47.9057 74.4969ZM46.6579 72.4811L45.7262 72.8444L45.7595 72.9297L45.8076 73.0074L46.6579 72.4811ZM45.722 70.0813L44.7483 70.3094L44.7645 70.3785L44.7903 70.4447L45.722 70.0813ZM44.89 66.5297L43.8946 66.6248L43.901 66.692L43.9164 66.7577L44.89 66.5297ZM44.5781 63.266L45.5735 63.1708L45.493 62.3284L44.6489 62.2685L44.5781 63.266ZM41.8743 63.074L41.6977 64.0583L41.7502 64.0677L41.8035 64.0715L41.8743 63.074ZM38.1307 62.4021L37.7117 63.31L37.828 63.3637L37.954 63.3863L38.1307 62.4021ZM35.635 61.2502L34.9567 61.985L35.0726 62.092L35.2159 62.1581L35.635 61.2502ZM15.253 67.3676L16.0123 66.7169L15.253 67.3676ZM2.57305 37.6154L1.58113 37.7423L2.57305 37.6154ZM34.5782 59.5079L32.9144 59.8918L33.3641 61.8406L35.0279 61.4566L34.5782 59.5079ZM32.8451 59.9104L30.9733 60.4864L31.5615 62.3979L33.4333 61.822L32.8451 59.9104ZM30.96 60.4906L28.8802 61.1625L29.495 63.0656L31.5748 62.3937L30.96 60.4906ZM29.1876 62.1141C28.2355 61.8083 28.2355 61.8082 28.2356 61.8081C28.2356 61.808 28.2356 61.8079 28.2357 61.8078C28.2357 61.8077 28.2358 61.8075 28.2358 61.8074C28.2359 61.807 28.236 61.8068 28.2361 61.8065C28.2363 61.8059 28.2365 61.8054 28.2366 61.8049C28.2369 61.804 28.2372 61.8032 28.2374 61.8026C28.2378 61.8013 28.238 61.8007 28.238 61.8007C28.238 61.8006 28.2374 61.8024 28.2363 61.8055C28.2336 61.8128 28.2306 61.8201 28.2285 61.8247C28.225 61.8326 28.2305 61.8186 28.2479 61.7916C28.2523 61.7847 28.3231 61.6679 28.4784 61.566L29.5756 63.2381C29.7741 63.1079 29.8865 62.941 29.9292 62.8747C29.9847 62.7885 30.025 62.7059 30.0508 62.649C30.0781 62.5886 30.0991 62.5346 30.113 62.4967C30.1202 62.4772 30.1261 62.4605 30.1305 62.4476C30.1327 62.4411 30.1346 62.4355 30.1361 62.4308C30.1369 62.4285 30.1376 62.4264 30.1382 62.4246C30.1385 62.4237 30.1388 62.4228 30.139 62.422C30.1391 62.4216 30.1393 62.4212 30.1394 62.4209C30.1394 62.4207 30.1395 62.4205 30.1396 62.4204C30.1396 62.4203 30.1396 62.4201 30.1396 62.4201C30.1397 62.42 30.1397 62.4198 29.1876 62.1141ZM28.5 61.5522C27.8152 61.9768 27.4728 62.1892 27.3016 62.2953C27.216 62.3484 27.1732 62.375 27.1518 62.3882C27.1411 62.3949 27.1357 62.3982 27.1331 62.3998C27.1317 62.4007 27.1311 62.4011 27.1308 62.4013C27.1306 62.4014 27.1305 62.4014 27.1305 62.4014C27.1305 62.4015 27.1305 62.4014 27.1305 62.4014C27.1305 62.4014 27.1306 62.4014 27.1307 62.4013C27.1307 62.4013 27.1308 62.4013 27.1309 62.4012C27.1311 62.4011 27.1313 62.4009 27.1315 62.4008C27.384 62.2895 27.6574 62.2514 27.6574 63.2514C27.6574 64.2514 27.9308 64.2133 28.1833 64.1019C28.1835 64.1018 28.1837 64.1016 28.1839 64.1016C28.184 64.1015 28.1841 64.1014 28.1841 64.1014C28.1842 64.1013 28.1843 64.1013 28.1843 64.1013C28.1843 64.1013 28.1844 64.1013 28.1844 64.1012C28.1844 64.1012 28.1845 64.1011 28.1847 64.101C28.1851 64.1008 28.1857 64.1004 28.1871 64.0996C28.1897 64.0979 28.1951 64.0946 28.2058 64.088C28.2272 64.0747 28.27 64.0481 28.3556 63.9951C28.5268 63.8889 28.8692 63.6766 29.554 63.2519L28.5 61.5522ZM27.2658 62.3312C26.853 62.5069 26.4736 62.7418 26.2109 62.9198C26.0761 63.0111 25.9644 63.0926 25.8852 63.1523C25.8455 63.1822 25.8136 63.2069 25.7907 63.2249C25.7792 63.2338 25.77 63.2412 25.7632 63.2466C25.7597 63.2494 25.7569 63.2517 25.7547 63.2534C25.7535 63.2543 25.7526 63.2551 25.7518 63.2558C25.7514 63.2561 25.751 63.2564 25.7507 63.2567C25.7505 63.2568 25.7503 63.2569 25.7502 63.257C25.7501 63.2571 25.75 63.2572 25.75 63.2572C25.7499 63.2573 25.7498 63.2574 26.3799 64.0339C27.01 64.8104 27.0099 64.8105 27.0098 64.8106C27.0098 64.8106 27.0097 64.8107 27.0096 64.8107C27.0095 64.8108 27.0094 64.8109 27.0093 64.8109C27.0091 64.8111 27.009 64.8112 27.0089 64.8113C27.0087 64.8115 27.0086 64.8115 27.0087 64.8114C27.0088 64.8113 27.0096 64.8108 27.0108 64.8097C27.0134 64.8077 27.0181 64.804 27.0248 64.7987C27.0384 64.7881 27.06 64.7713 27.0886 64.7497C27.146 64.7065 27.2303 64.6449 27.3326 64.5756C27.544 64.4324 27.8034 64.276 28.049 64.1715L27.2658 62.3312ZM25.5145 63.5328L24.792 64.7807L26.5228 65.7828L27.2453 64.535L25.5145 63.5328ZM24.877 64.6564L23.877 65.9043L25.4377 67.155L26.4377 65.9071L24.877 64.6564ZM12.5585 19.2855C12.8398 17.6562 13.7532 16.2 14.977 14.7643C15.5864 14.0494 16.2542 13.3601 16.9374 12.6647C17.6123 11.9778 18.3098 11.2773 18.937 10.5744C20.1721 9.19039 21.3009 7.62338 21.4973 5.78636C21.7015 3.87743 20.8814 1.95401 18.8695 -0.086692L17.4453 1.31741C19.2153 3.11282 19.6261 4.47535 19.5087 5.57369C19.3835 6.74393 18.6382 7.9055 17.4448 9.24282C16.8577 9.90068 16.2025 10.559 15.5107 11.2631C14.8273 11.9587 14.1148 12.6926 13.4549 13.4669C12.14 15.0096 10.9587 16.7961 10.5876 18.9452L12.5585 19.2855ZM18.8695 -0.086692C18.1799 -0.786199 17.2915 -1.01952 16.438 -0.998716C15.6013 -0.978321 14.7452 -0.716862 13.9728 -0.364808C12.4487 0.329866 10.9657 1.51181 10.2504 2.54679L11.8957 3.68388C12.3605 3.01131 13.526 2.03675 14.8022 1.45507C15.43 1.16895 16.012 1.01226 16.4867 1.00069C16.9448 0.989525 17.2412 1.11041 17.4453 1.31741L18.8695 -0.086692ZM10.2504 2.54679C8.27203 5.40941 6.74839 8.20384 5.71968 10.2807C5.20481 11.3201 4.81263 12.1824 4.54831 12.787C4.41612 13.0893 4.31584 13.3274 4.2481 13.4912C4.21423 13.573 4.18849 13.6364 4.17096 13.6799C4.16219 13.7016 4.15548 13.7184 4.15083 13.7301C4.14851 13.7359 4.1467 13.7405 4.1454 13.7438C4.14476 13.7454 4.14424 13.7467 4.14385 13.7477C4.14366 13.7482 4.1435 13.7486 4.14337 13.7489C4.14331 13.7491 4.14323 13.7493 4.1432 13.7494C4.14314 13.7495 4.14308 13.7497 5.07381 14.1154C6.00455 14.4811 6.00451 14.4812 6.00447 14.4812L6.00445 14.4813C6.00445 14.4813 6.00448 14.4812 6.00455 14.4811C6.00467 14.4807 6.00493 14.4801 6.00531 14.4791C6.00608 14.4772 6.00736 14.4739 6.00915 14.4694C6.01273 14.4605 6.01835 14.4464 6.02601 14.4274C6.04132 14.3894 6.06475 14.3317 6.09622 14.2556C6.15918 14.1034 6.25427 13.8776 6.38083 13.5881C6.63401 13.009 7.01281 12.1759 7.51186 11.1684C8.51099 9.1513 9.98698 6.44571 11.8957 3.68388L10.2504 2.54679ZM17.3015 71.2513L19.8857 74.3873L21.4291 73.1155L18.845 69.9794L17.3015 71.2513ZM19.6603 73.6753L19.5594 74.9967L21.5536 75.149L21.6545 73.8276L19.6603 73.6753ZM19.5682 74.9199L19.2563 76.9357L21.2327 77.2416L21.5447 75.2258L19.5682 74.9199ZM19.2445 77.0886V78.3365H21.2445V77.0886H19.2445ZM19.245 78.3046L19.141 81.5683L21.14 81.632L21.244 78.3683L19.245 78.3046ZM19.1418 81.6517L19.2458 83.6675L21.2432 83.5645L21.1392 81.5487L19.1418 81.6517ZM19.2452 83.6546L19.3492 86.3424L21.3477 86.265L21.2437 83.5773L19.2452 83.6546ZM19.3644 86.4814L19.6764 88.2092L21.6445 87.8539L21.3326 86.126L19.3644 86.4814ZM19.6663 88.1392L19.8743 90.059L21.8626 89.8436L21.6546 87.9238L19.6663 88.1392ZM19.8756 90.0708L20.0836 91.7987L22.0692 91.5597L21.8613 89.8318L19.8756 90.0708ZM20.0991 91.8909L20.515 93.8107L22.4697 93.3872L22.0537 91.4674L20.0991 91.8909ZM21.7865 92.6432L20.5386 92.2592L19.9504 94.1708L21.1983 94.5547L21.7865 92.6432ZM20.5045 92.2494L18.0087 91.5775L17.4888 93.5087L19.9845 94.1806L20.5045 92.2494ZM17.7487 91.5431H16.0849V93.5431H17.7487V91.5431ZM16.0307 91.5445L14.2629 91.6405L14.3713 93.6376L16.1391 93.5416L16.0307 91.5445ZM13.872 91.7436L12.5201 92.4155L13.4103 94.2065L14.7622 93.5345L13.872 91.7436ZM12.287 92.5762L11.1431 93.6321L12.4996 95.1017L13.6435 94.0458L12.287 92.5762ZM11.0657 93.712L10.2337 94.6719L11.7451 95.9817L12.577 95.0218L11.0657 93.712ZM10.0568 94.966L9.53686 96.3098L11.4021 97.0315L11.9221 95.6876L10.0568 94.966ZM9.47665 96.5511L9.26867 98.279L11.2543 98.518L11.4623 96.7902L9.47665 96.5511ZM9.26231 98.3584L9.15832 100.95L11.1567 101.03L11.2607 98.4386L9.26231 98.3584ZM9.16779 101.133L9.37577 102.573L11.3552 102.287L11.1472 100.847L9.16779 101.133ZM9.52217 102.967L10.5621 104.599L12.2487 103.525L11.2088 101.893L9.52217 102.967ZM10.7771 104.84L11.609 105.512L12.8656 103.956L12.0337 103.284L10.7771 104.84ZM11.8504 105.656L12.9943 106.136L13.7681 104.292L12.6242 103.812L11.8504 105.656ZM13.1328 106.182L15.0046 106.662L15.5014 104.725L13.6296 104.245L13.1328 106.182ZM15.1822 106.691L17.8859 106.883L18.0276 104.888L15.3238 104.696L15.1822 106.691ZM18.0079 106.884L19.8798 106.788L19.7773 104.791L17.9055 104.887L18.0079 106.884ZM19.8994 106.787L22.6031 106.595L22.4614 104.6L19.7577 104.792L19.8994 106.787ZM22.7263 106.579L25.638 106.003L25.2499 104.041L22.3382 104.617L22.7263 106.579ZM25.6615 105.998L28.6772 105.326L28.2422 103.374L25.2265 104.046L25.6615 105.998ZM27.9776 105.226L28.6753 105.61L29.6395 103.858L28.9418 103.474L27.9776 105.226ZM29.1574 105.734H29.8115V103.734H29.1574V105.734ZM29.8115 105.734H31.1574V103.734H29.8115V105.734ZM31.3459 105.716L33.8459 105.236L33.4689 103.272L30.9689 103.752L31.3459 105.716ZM33.7322 105.251L37.5702 104.963L37.4206 102.969L33.5826 103.257L33.7322 105.251ZM37.5757 104.963L40.2377 104.748L40.0771 102.755L37.4151 102.969L37.5757 104.963ZM40.1966 104.751L44.5133 104.581L44.4349 102.583L40.1182 102.752L40.1966 104.751ZM44.5155 104.581L53.7706 104.197L53.6877 102.199L44.4326 102.583L44.5155 104.581ZM53.6806 104.197L55.6564 104.293L55.7535 102.295L53.7777 102.199L53.6806 104.197ZM55.7404 104.293L58.4442 104.197L58.3732 102.199L55.6695 102.295L55.7404 104.293ZM58.3718 104.197L60.9715 104.293L61.0453 102.295L58.4456 102.199L58.3718 104.197ZM60.9257 104.291L70.1808 105.058L70.3462 103.065L61.0911 102.297L60.9257 104.291ZM70.125 105.052L73.5566 105.532L73.8337 103.551L70.402 103.072L70.125 105.052ZM73.5644 105.533L75.7482 105.821L76.0097 103.838L73.8259 103.55L73.5644 105.533ZM75.7383 105.82L77.0902 106.012L77.3714 104.032L76.0195 103.84L75.7383 105.82ZM77.4248 106.003L78.8807 105.715L78.4926 103.753L77.0368 104.041L77.4248 106.003ZM79.1864 105.6L80.0183 105.12L79.0189 103.388L78.1869 103.868L79.1864 105.6ZM79.3063 105.231L82.842 105.999L83.2665 104.045L79.7308 103.277L79.3063 105.231ZM82.9022 106.01L85.3979 106.394L85.702 104.417L83.2063 104.033L82.9022 106.01ZM85.4515 106.401L88.3633 106.689L88.5601 104.699L85.6484 104.411L85.4515 106.401ZM88.4232 106.693L90.919 106.789L90.9959 104.79L88.5001 104.694L88.4232 106.693ZM90.9574 106.79H93.1412V104.79H90.9574V106.79ZM93.4081 106.753L95.4879 106.178L94.9541 104.25L92.8743 104.826L93.4081 106.753ZM95.6661 106.109L97.018 105.437L96.1278 103.646L94.7759 104.318L95.6661 106.109ZM97.3151 105.212L98.355 104.06L96.8705 102.72L95.8306 103.872L97.3151 105.212ZM98.5358 103.775L99.0558 102.527L97.2096 101.757L96.6897 103.005L98.5358 103.775ZM99.1224 102.285L99.3304 100.845L97.351 100.559L97.143 101.999L99.1224 102.285ZM99.3385 100.637L99.1306 97.4691L97.1349 97.6001L97.3428 100.768L99.3385 100.637ZM99.0862 97.2333L98.3583 94.9295L96.4512 95.5321L97.1792 97.8359L99.0862 97.2333ZM98.1809 94.6002L96.933 93.0644L95.3808 94.3255L96.6287 95.8614L98.1809 94.6002ZM96.681 92.8433L95.4331 92.0754L94.3849 93.7787L95.6328 94.5466L96.681 92.8433ZM95.164 91.9601L93.7082 91.5761L93.1982 93.51L94.654 93.894L95.164 91.9601ZM93.4532 91.5431H91.9973V93.5431H93.4532V91.5431ZM91.9461 91.5444L90.0743 91.6404L90.1767 93.6377L92.0485 93.5418L91.9461 91.5444ZM89.7909 91.6967L88.4391 92.1766L89.1082 94.0614L90.4601 93.5814L89.7909 91.6967ZM88.5116 92.1539L86.7438 92.6339L87.2678 94.564L89.0357 94.0841L88.5116 92.1539ZM87.9899 93.7766L88.3019 92.0488L86.3337 91.6935L86.0217 93.4213L87.9899 93.7766ZM88.305 92.0304L89.033 87.5189L87.0585 87.2003L86.3306 91.7119L88.305 92.0304ZM89.0443 87.4124L89.2523 83.4768L87.2551 83.3712L87.0471 87.3068L89.0443 87.4124ZM89.2533 83.4511L89.3573 79.6115L87.3581 79.5573L87.2541 83.3969L89.2533 83.4511ZM89.3549 79.5099L89.1469 76.7261L87.1525 76.8752L87.3605 79.6589L89.3549 79.5099ZM89.1289 76.5975L88.193 72.086L86.2346 72.4922L87.1705 77.0038L89.1289 76.5975ZM88.1314 71.8915L86.6755 68.5318L84.8404 69.327L86.2962 72.6867L88.1314 71.8915ZM86.6467 68.471L85.6068 66.4552L83.8293 67.3721L84.8692 69.3879L86.6467 68.471ZM85.4706 66.2551L83.2868 63.7594L81.7817 65.0764L83.9655 67.5721L85.4706 66.2551ZM83.1343 63.6179L81.4704 62.37L80.2704 63.97L81.9343 65.2179L83.1343 63.6179ZM81.3339 62.2839L78.2142 60.652L77.2872 62.4242L80.4069 64.0561L81.3339 62.2839ZM77.9541 60.559L73.7945 59.6951L73.3878 61.6533L77.5474 62.5172L77.9541 60.559ZM72.9815 59.8816L72.3575 60.3615L73.5769 61.9468L74.2009 61.4669L72.9815 59.8816ZM72.5594 60.2411L69.3357 61.681L70.1514 63.5071L73.375 62.0672L72.5594 60.2411ZM69.6128 61.6026L64.5173 62.2745L64.7788 64.2574L69.8743 63.5854L69.6128 61.6026ZM63.6571 63.1318L63.5531 63.8997L65.535 64.1681L65.639 63.4002L63.6571 63.1318ZM63.5553 63.8844L62.9314 68.0121L64.9089 68.311L65.5328 64.1834L63.5553 63.8844ZM62.9758 67.8327L62.0399 70.5204L63.9286 71.1781L64.8645 68.4904L62.9758 67.8327ZM62.097 70.3879L60.8491 72.7877L62.6236 73.7104L63.8715 71.3106L62.097 70.3879ZM60.9716 72.6047L59.5158 74.3325L61.0452 75.6212L62.5011 73.8934L60.9716 72.6047ZM59.6022 74.242L58.4583 75.2979L59.8149 76.7675L60.9588 75.7116L59.6022 74.242ZM58.5981 75.1901L57.2463 76.054L58.3232 77.7393L59.6751 76.8754L58.5981 75.1901ZM57.5685 75.9203L54.9687 76.4963L55.4013 78.4489L58.001 77.873L57.5685 75.9203ZM55.185 76.4726H53.6252V78.4726H55.185V76.4726ZM53.7694 76.483L51.7936 76.1951L51.5051 78.1742L53.4809 78.4621L53.7694 76.483ZM52.1159 76.3001L50.6601 75.5322L49.727 77.3012L51.1828 78.0691L52.1159 76.3001ZM50.8363 75.6507L48.5486 73.7309L47.2629 75.2629L49.5507 77.1827L50.8363 75.6507ZM48.756 73.9705L47.5081 71.9547L45.8076 73.0074L47.0555 75.0232L48.756 73.9705ZM47.5895 72.1177L46.6536 69.718L44.7903 70.4447L45.7262 72.8444L47.5895 72.1177ZM46.6956 69.8533L45.8637 66.3016L43.9164 66.7577L44.7483 70.3094L46.6956 69.8533ZM45.8855 66.4345L45.5735 63.1708L43.5826 63.3611L43.8946 66.6248L45.8855 66.4345ZM44.6489 62.2685L41.9452 62.0765L41.8035 64.0715L44.5072 64.2635L44.6489 62.2685ZM42.051 62.0897L38.3074 61.4178L37.954 63.3863L41.6977 64.0583L42.051 62.0897ZM38.5498 61.4941L36.054 60.3422L35.2159 62.1581L37.7117 63.31L38.5498 61.4941ZM36.3132 60.5154L35.4813 59.7474L34.1248 61.217L34.9567 61.985L36.3132 60.5154ZM12.7871 65.7334C12.7838 65.7292 12.876 65.8527 13.0415 66.075C13.198 66.2852 13.4032 66.5609 13.6096 66.8382C13.8156 67.1149 14.022 67.392 14.1791 67.6025C14.3126 67.7815 14.4561 67.9744 14.4937 68.0183L16.0123 66.7169C16.0331 66.7412 15.9619 66.6475 15.782 66.4064C15.6256 66.1969 15.4198 65.9206 15.2139 65.6439C14.8123 65.1045 14.3852 64.5302 14.3594 64.4973L12.7871 65.7334ZM14.4937 68.0183C14.9304 68.528 15.6379 69.3427 16.2342 70.0278C16.5328 70.3708 16.8043 70.6821 17.001 70.9077C17.0994 71.0205 17.1792 71.1118 17.2343 71.175C17.2619 71.2066 17.2833 71.2311 17.2979 71.2478C17.3052 71.2561 17.3107 71.2625 17.3145 71.2668C17.3163 71.2689 17.3177 71.2705 17.3187 71.2716C17.3192 71.2721 17.3195 71.2726 17.3198 71.2728C17.3199 71.273 17.32 71.2731 17.32 71.2731C17.3201 71.2732 17.3201 71.2732 17.3201 71.2732C17.3201 71.2732 17.3201 71.2733 18.0732 70.6154C18.8264 69.9575 18.8264 69.9575 18.8263 69.9575C18.8263 69.9574 18.8263 69.9574 18.8263 69.9574C18.8262 69.9573 18.8261 69.9572 18.826 69.9571C18.8258 69.9568 18.8254 69.9564 18.825 69.9559C18.824 69.9548 18.8226 69.9532 18.8208 69.9511C18.8171 69.9468 18.8116 69.9405 18.8043 69.9322C18.7898 69.9156 18.7685 69.8912 18.741 69.8597C18.6859 69.7967 18.6064 69.7055 18.5082 69.5929C18.3117 69.3677 18.0408 69.057 17.7428 68.7146C17.1459 68.029 16.4433 67.2198 16.0123 66.7169L14.4937 68.0183ZM25.2029 65.6916C18.9327 61.6102 14.9529 54.7498 12.9494 46.4877C10.9463 38.2273 10.9421 28.6471 12.5585 19.2855L10.5876 18.9452C8.93588 28.5121 8.92439 38.376 11.0057 46.959C13.0867 55.5404 17.2831 62.9229 24.1119 67.3678L25.2029 65.6916ZM5.07381 14.1154C4.13161 13.7803 4.13152 13.7806 4.13141 13.7809C4.13136 13.781 4.13124 13.7814 4.13112 13.7817C4.1309 13.7823 4.13062 13.7831 4.13027 13.7841C4.12958 13.786 4.12865 13.7887 4.12748 13.792C4.12514 13.7987 4.12184 13.8081 4.11763 13.8202C4.10921 13.8445 4.09712 13.8795 4.08166 13.9251C4.05073 14.0164 4.00632 14.1496 3.95079 14.3224C3.83973 14.6679 3.68412 15.1714 3.50292 15.8122C3.14065 17.0932 2.67541 18.9249 2.25957 21.1396C1.42935 25.5613 0.788628 31.5482 1.58113 37.7423L3.56496 37.4885C2.80805 31.5726 3.4177 25.8095 4.22522 21.5087C4.62825 19.3622 5.07872 17.5895 5.42744 16.3564C5.60174 15.7401 5.75044 15.2592 5.85483 14.9345C5.90701 14.7721 5.9481 14.6489 5.97576 14.5673C5.98958 14.5265 6.00004 14.4962 6.00685 14.4766C6.01026 14.4668 6.01275 14.4597 6.01429 14.4553C6.01506 14.4531 6.01559 14.4516 6.01588 14.4508C6.01602 14.4504 6.01611 14.4501 6.01613 14.4501C6.01614 14.45 6.01612 14.4501 6.01612 14.4501C6.01608 14.4502 6.01602 14.4504 5.07381 14.1154ZM1.58113 37.7423C3.1368 49.901 8.7386 60.5836 12.7871 65.7334L14.3594 64.4973C10.5112 59.6023 5.07021 49.2532 3.56496 37.4885L1.58113 37.7423Z" fill="black" mask="url(#path-1-inside-1)"/>
<path d="M71.5293 68.7388C71.5293 68.7388 71.1716 90.3135 65.6071 96.8457C68.4013 94.8222 80.9383 91.5153 80.6731 99.2435C80.408 106.972 76.1575 103.752 73.6575 103.752C69.8286 103.124 54.9825 102.285 54.1589 102.88V78.236" stroke="black" stroke-linecap="round" stroke-linejoin="round"/>
<path d="M36.3054 68.7388C36.3054 68.7388 36.6631 90.3135 42.2276 96.8457C39.4334 94.8222 26.8964 91.5153 27.1616 99.2435C27.4268 106.972 31.6772 103.752 34.1772 103.752C38.0061 103.124 52.8522 102.285 53.6758 102.88V78.236" stroke="black" stroke-linecap="round" stroke-linejoin="round"/>
<path d="M23.1575 12.2513C29.1575 11.0513 39.6575 18.0846 44.1575 21.7513C40.3241 26.4179 31.7575 36.1513 28.1575 37.7513C23.6575 39.7513 15.6575 13.7513 23.1575 12.2513Z" fill="#E3954F" stroke="black"/>
<path d="M86.1572 12.2513C80.1572 11.0513 69.6572 18.0846 65.1572 21.7513C68.9906 26.4179 77.5572 36.1513 81.1572 37.7513C85.6572 39.7513 93.6572 13.7513 86.1572 12.2513Z" fill="#E3954F" stroke="black"/>
<circle cx="54.6575" cy="48.7515" r="29" fill="#E3964F" stroke="black"/>
<circle cx="43.6575" cy="42.7515" r="4.5" fill="#282828"/>
<circle cx="66.6575" cy="42.7515" r="4.5" fill="#282828"/>
<path d="M61.0575 67.2515C62.2575 67.0333 62.9575 65.1606 63.1575 64.2515C61.9575 65.1242 60.6575 64.6151 60.1575 64.2515C60.4575 64.7969 61.0575 66.1606 61.0575 67.2515Z" fill="white"/>
<path d="M49.2575 67.2515C48.0575 67.0333 47.3575 65.1606 47.1575 64.2515C48.3575 65.1242 49.6575 64.6151 50.1575 64.2515C49.8575 64.7969 49.2575 66.1606 49.2575 67.2515Z" fill="white"/>
<path d="M55.1575 59.2515C56.8375 62.8863 61.9895 68.0963 69.1575 59.8573" stroke="#282828"/>
<path d="M55.1575 59.2515C53.4775 62.8863 48.3255 68.0963 41.1575 59.8573" stroke="#282828"/>
<path d="M55.7761 59.7645C55.4132 60.0502 54.9018 60.0502 54.5389 59.7645L47.8994 54.5372C47.1536 53.95 47.5688 52.7515 48.5179 52.7515L61.797 52.7515C62.7462 52.7515 63.1614 53.95 62.4156 54.5372L55.7761 59.7645Z" fill="#282828"/>
<path d="M23.1575 17.2515C26.3241 17.9181 33.7575 20.3515 38.1575 24.7515" stroke="#282828"/>
<path d="M86.1572 17.2515C82.9906 17.9181 75.5572 20.3515 71.1572 24.7515" stroke="#282828"/>
<path d="M33.1575 21.2515C31.1575 21.4181 26.8575 22.8515 25.6575 27.2515" stroke="#282828"/>
<path d="M76.1572 21.2515C78.1572 21.4181 82.4572 22.8515 83.6572 27.2515" stroke="#282828"/>
<path d="M49.1575 58.2515C45.4097 55.6374 36.9629 51.1935 33.1575 54.3304" stroke="#454545" stroke-width="0.5"/>
<path d="M46.7955 58.9898C43.4246 58.0352 36.2392 56.9663 34.4645 60.3269" stroke="#454545" stroke-width="0.5"/>
<path d="M49.2483 60.9914C46.0425 60.7035 39.1706 60.8478 37.3302 63.7289" stroke="#454545" stroke-width="0.5"/>
<path d="M60.248 58.2515C63.9958 55.6374 72.4426 51.1935 76.248 54.3304" stroke="#454545" stroke-width="0.5"/>
<path d="M62.6101 58.9898C65.9809 58.0352 73.1664 56.9663 74.941 60.3269" stroke="#454545" stroke-width="0.5"/>
<path d="M60.1572 60.9914C63.3631 60.7035 70.2349 60.8478 72.0753 63.7289" stroke="#454545" stroke-width="0.5"/>
<path d="M21.1575 74.2515C22.3241 71.4181 24.8575 66.6515 25.6575 66.2515" stroke="black"/>
</svg>
