<svg width="156" height="144" viewBox="0 0 156 144" fill="none" xmlns="http://www.w3.org/2000/svg">
<path fill-rule="evenodd" clip-rule="evenodd" d="M68.8488 78.0475L68.6409 80.0633V81.2152L69.0568 83.6149L69.7848 85.2468L70.5127 86.3027L71.7606 87.3586L73.3204 87.8385L75.1922 87.9345L76.4401 87.8385L77.896 87.3586L79.0398 86.3987L79.9757 85.3428L80.3917 84.0949L80.7037 82.559L80.8077 80.4472V78.9114L80.7037 78.1435L80.5997 77.8555L79.0398 77.1836L78.1039 76.3196L76.5441 74.7838L75.9201 73.3439L74.9842 70.7522H74.5683L74.0483 72.576L73.1124 74.3998L72.0725 75.9357L71.2406 76.6076L69.7848 77.5675L68.8488 78.0475Z" fill="#922525"/>
<path fill-rule="evenodd" clip-rule="evenodd" d="M60.8418 33.4118L58.762 30.4361L56.5782 28.1324L54.3945 26.6925L52.7306 26.4045L51.4827 26.8845L50.3389 28.2284L44.8274 41.0911L40.7718 51.362L39.7319 53.8578V55.2976L39.9399 57.0255L42.3317 64.3207L43.8915 68.3523L44.3075 69.5042L45.3474 70.6561L46.6992 71.424H47.6351L48.675 71.0401L49.6109 70.4641L50.2349 69.3122L51.8987 67.2005L52.1067 65.1847L52.7306 62.209L53.5625 59.7132L54.3945 57.8894L53.8745 56.1616L53.0426 53.4738L52.4187 49.1543L52.5226 46.5625L52.8346 43.7788L53.9785 40.1312L55.5383 37.5394L56.9942 36.0996L58.3461 34.8517L60.8418 33.4118Z" fill="#B46E2E"/>
<path fill-rule="evenodd" clip-rule="evenodd" d="M88.9189 33.5078L90.2708 31.492L92.6626 28.8043L94.3264 27.1724L96.4062 26.5005L97.6541 26.6925L99.1099 27.8444L100.046 29.5722L104.725 40.8031L108.573 50.3061L109.821 53.3778L110.029 55.2016L109.613 58.0813L108.781 60.961L105.661 68.9282L104.933 70.2721L103.477 71.424L102.438 71.52L100.878 71.04L99.6299 69.6962L97.7581 67.1044L97.4461 65.1846L97.0301 62.6889L96.3022 60.4811L95.6783 58.9452L95.1583 58.0813L95.6783 57.3134L96.1982 55.2016L96.8222 52.1299L97.2381 49.2502V46.5625L96.8222 43.7788L95.4703 39.9391L93.9104 37.4434L91.3107 35.0436L88.9189 33.5078Z" fill="#B46E2E"/>
<path fill-rule="evenodd" clip-rule="evenodd" d="M97.446 64.8008L101.19 69.7923C101.19 69.7923 102.904 71.8984 104.517 68.9284C106.13 65.9585 106.493 64.4169 106.493 64.4169L108.365 59.3294C108.365 59.3294 109.975 55.172 108.365 52.6101C107.849 51.631 99.0058 29.7643 99.0058 29.7643C99.0058 29.7643 97.3992 26.0879 94.3263 28.6125C91.2534 31.137 89.8547 33.9879 89.8547 33.9879L92.9744 36.4837L94.7422 38.6915L95.8861 40.8032L96.718 43.683L97.03 45.8907L97.238 49.9223L96.718 52.994L95.6781 57.2176L95.2622 57.9855L95.8861 59.5214L96.822 62.0171L97.446 64.8008Z" fill="#B46E2E"/>
<path fill-rule="evenodd" clip-rule="evenodd" d="M65.0012 78.7193L66.0411 78.6233L67.185 78.5274L68.1209 78.2394L68.9528 77.9514L68.7448 78.4314V79.6792L68.8488 81.599L68.9528 82.9429L69.2648 84.1908L69.7847 85.4387L70.6167 86.3986L71.5526 87.1665L72.9044 87.7424L74.1523 87.9344H75.5042L76.96 87.7424L78.2079 87.1665L79.1438 86.3026L79.6638 85.6306L80.2877 84.4788L80.7036 82.8469V81.5031L80.8076 79.6792L80.7036 77.9514L81.3276 78.1434L82.5755 78.4314L83.9273 78.6233H85.1752L85.2792 79.5833L84.8632 82.175L84.2393 84.2868L83.1994 86.9745L82.3675 88.6063L81.5356 89.9502L80.1837 91.2941L77.8959 92.4459L76.856 92.8299L75.4002 93.0219C75.4002 93.0219 74.2625 93.0123 74.1523 93.0219C74.0421 93.0315 71.8645 92.6379 71.8645 92.6379L70.0967 91.582L68.8488 90.5261L67.8089 88.9903L66.5611 86.6865L66.0411 85.0547L65.4172 82.6549L65.0012 79.1993V78.7193Z" fill="white"/>
<path fill-rule="evenodd" clip-rule="evenodd" d="M74.7961 70.5601L74.3604 71.232L73.9445 72.7679L73.1125 74.3997L72.1766 75.6476L71.0328 76.7995L68.953 77.9514L66.9772 78.5273L64.4814 78.8153L62.5056 78.6233L59.3859 78.1433L56.8902 77.2794L54.7064 75.7436L53.0426 73.8238L52.3146 71.712L51.7947 68.8323L51.8987 66.2405L52.4186 63.0729L53.2505 60.3851L54.2904 57.7934L53.2505 54.1458L52.7306 51.458L52.5226 48.0984L52.4186 45.4106L53.1465 42.3389L54.3944 39.2673L57.3061 35.8116L59.1779 34.2758L61.7777 32.9319L64.1694 32.068L66.6652 31.492L69.6809 31.0121L74.1524 30.7241L80.0798 31.0121L81.7437 31.3961L84.8634 31.972L87.7751 32.9319L89.8549 34.0838L91.2067 34.9477L93.5985 37.2515L94.9504 39.0753L95.9903 41.0911L96.7182 42.9149L97.0302 44.8347L97.1341 46.4665L97.2381 49.1543L97.0302 50.6901L96.8222 52.9939L96.4062 54.5297L95.9903 56.3535L95.3663 57.9854L95.9903 59.4252L96.4062 60.9611L97.1341 63.4568L97.4461 65.3766L97.6541 67.2964L97.7581 69.6002L97.2381 72L95.9903 74.3997L94.8464 75.8396L92.9746 77.0874L89.9589 78.2393L86.8392 78.7193H84.0315L80.3918 77.8554L78.624 76.8955L76.8562 75.1676L75.6083 72.9599L75.1923 71.616L74.7961 70.5601Z" fill="#B46E2E"/>
<path fill-rule="evenodd" clip-rule="evenodd" d="M55.3303 76.0317L53.6665 76.4156L51.7947 76.9916L49.7149 77.6635C49.7149 77.6635 48.4494 78.5668 48.363 78.6234C48.2767 78.68 47.8431 78.4314 47.8431 78.4314C47.8431 78.4314 47.0268 78.5149 46.9072 78.5274C46.7876 78.5399 44.5154 78.3354 44.5154 78.3354L43.2676 77.6635L41.8117 76.9916L39.9399 75.1677L38.484 73.4399L36.9242 71.0402L35.6763 69.0244L34.7404 66.9126L34.0125 64.8008L33.4925 65.0888L32.5566 66.6246L31.7247 68.5444L31.2048 70.5602L31.1008 72.192L30.9968 74.1119L31.4127 76.2236L32.0367 78.3354L33.0766 80.8312L34.3245 83.1349L35.8843 85.1507L37.9641 87.7425L39.4199 89.1823L41.0838 90.6222L40.7718 92.638V93.8859L40.6678 97.1495L40.7718 99.1653L40.8758 101.853L41.1878 103.581L41.3957 105.501L41.6037 107.229L42.0197 109.148L40.7718 108.764L38.2761 108.092H36.6122L34.8444 108.188L33.4925 108.86L32.3486 109.916L31.5167 110.876L30.9968 112.22L30.7888 113.948L30.6848 116.54L30.8928 117.979L31.9327 119.611L32.7646 120.283L33.9085 120.763L35.7803 121.243L38.484 121.435L40.3558 121.339L43.0596 121.147L45.9713 120.571L48.987 119.899L49.6109 119.707L50.3388 120.283L51.5867 120.475H53.6665L55.9543 119.803L60.2179 119.515L65.0014 119.131L74.2565 118.747L76.2323 118.843L78.936 118.747L81.5357 118.843L90.7908 119.611L94.2225 120.091L96.4062 120.379L97.7581 120.571L99.214 120.283L100.046 119.803L103.582 120.571L106.077 120.955L108.989 121.243L111.485 121.339H113.669L115.748 120.763L117.1 120.091L118.14 118.939L118.66 117.691L118.868 116.252L118.66 113.084L117.932 110.78L116.684 109.244L115.436 108.476L113.98 108.092H112.525L110.653 108.188L109.301 108.668L107.533 109.148L107.845 107.421L108.573 102.909L108.781 98.9734L108.885 95.1337L108.677 92.35L107.741 87.8385L106.285 84.4788L105.245 82.463L103.062 79.9673L101.398 78.7194L98.2781 77.0876L94.1185 76.2236L93.4945 76.7036L90.2709 78.1434L85.1754 78.8154L85.0714 79.5833L84.4474 83.7109L83.5115 86.3986L82.2637 88.7984L80.8078 90.5262L79.6639 91.5821L78.312 92.446L75.7123 93.022H74.1525L72.1767 92.734L70.7208 91.9661L68.433 90.0463L67.1852 88.0305L66.2493 85.6307L65.4173 82.0791L65.1054 78.8154L62.4016 78.6234L58.658 77.9515L56.1623 76.7996L55.3303 76.0317Z" fill="#B46E2E"/>
<path fill-rule="evenodd" clip-rule="evenodd" d="M41.4995 105.405C41.4995 105.405 48.5583 95.318 58.5538 97.3415C58.6401 98.3965 58.7617 99.2613 58.7617 99.2613L59.5937 103.005L60.1136 105.021L60.9455 107.709L62.1934 110.108L63.1293 111.644L61.6734 110.972L60.1136 110.492L57.3059 109.724L54.0822 109.34L50.9625 109.82L48.7787 111.644L48.2588 112.892L48.3628 114.908L48.5708 117.212L49.4027 119.515L48.8827 119.899L47.6349 120.283L44.4112 121.051L40.2516 121.339L35.2601 121.243L32.7643 120.283L31.1005 118.651L30.5806 115.58L31.2045 112.028L32.1404 109.724L34.6362 108.284L36.3 108.092H38.0678L39.9396 108.38L42.0194 108.956L41.4995 105.405Z" fill="white"/>
<path fill-rule="evenodd" clip-rule="evenodd" d="M107.949 105.391C107.949 105.391 100.89 95.2959 90.8946 97.3203C90.8083 98.3762 90.6867 99.2421 90.6867 99.2421L89.8547 102.989L89.3348 105.006L88.5029 107.697L87.255 110.099L86.3191 111.635L87.7749 110.963L89.3348 110.483L92.1425 109.715L95.3662 109.33L98.4859 109.811L100.67 111.635L101.19 112.884L101.086 114.902L100.878 117.208L100.046 119.513L100.566 119.898L101.814 120.282L105.037 121.051L109.197 121.339L114.188 121.243L116.684 120.282L118.348 118.649L118.868 115.575L118.244 112.02L117.308 109.715L114.812 108.273L113.148 108.081H111.381L109.509 108.369L107.429 108.946L107.949 105.391Z" fill="white"/>
<path fill-rule="evenodd" clip-rule="evenodd" d="M65.0013 79.1034C65.0013 79.1034 65.2332 94.5444 58.45 97.1496C58.7973 98.6422 58.762 99.4533 58.762 99.4533L59.0739 101.085L59.6979 103.773L60.9457 107.229L62.9215 111.548L61.3617 110.876L58.866 110.012L55.9542 109.532L53.4585 109.436L51.1707 109.916L49.1949 111.068L48.363 112.604L48.155 115.292L48.467 116.828L49.4029 119.515L50.1308 120.187L51.1707 120.571L53.3545 120.475L56.0582 119.803L59.8019 119.515L67.7051 118.843L72.2806 118.747H77.5841L86.4232 119.323L95.0543 120.187L97.4461 120.571L99.1099 120.379L100.254 119.515L100.982 117.692L101.294 114.044L101.086 112.316L100.254 110.972L98.6939 109.82L96.6142 109.34L93.5985 109.436L91.5187 109.82L88.7109 110.588L86.6312 111.548L87.2551 110.396L88.7109 107.229L89.4389 104.925L90.5828 99.9333L91.1027 97.2455C91.1027 97.2455 84.5909 89.4569 85.1753 78.9114C84.3517 83.8251 84.1354 84.5748 84.1354 84.5748L82.6796 87.9345L81.4317 89.9503L78.9359 92.0621L76.7522 92.926L73.7365 93.022L71.2407 92.35L69.0569 90.7182L66.6652 86.9746L65.3133 82.463L65.0013 79.1034Z" fill="white"/>
<path fill-rule="evenodd" clip-rule="evenodd" d="M65.0012 78.7194C65.0012 78.7194 58.1722 74.6917 61.5695 69.7923C64.9669 64.893 69.4967 67.6066 69.0568 61.5372C71.3061 60.4342 72.6964 59.9053 72.6964 59.9053C72.6964 59.9053 74.796 57.711 74.796 45.1228C74.796 49.7918 74.8916 58.4108 76.2321 59.9053C77.0365 60.8018 78.0741 61.4954 79.2478 61.9211L79.5597 63.457L74.796 67.8725V70.8482L74.4642 71.5202L73.7363 73.056L73.2164 74.4959L72.5924 75.3598L71.5525 76.3197L70.3047 77.3756L69.0568 77.9515L67.185 78.5275L65.0012 78.7194Z" fill="white"/>
<path fill-rule="evenodd" clip-rule="evenodd" d="M84.5972 78.7309C84.5972 78.7309 91.423 74.7041 88.0267 69.8038C84.6304 64.9035 80.1038 67.6191 80.5436 61.5486C78.2954 60.4457 76.9061 59.9168 76.9061 59.9168C76.9061 59.9168 74.8076 57.7225 74.8076 45.1343C74.8076 49.8042 74.7119 58.4222 73.3725 59.9168C72.5687 60.8135 71.5314 61.5071 70.3579 61.9326L70.0459 63.4684L74.8076 67.884V70.8597L75.1393 71.5316L75.8662 73.0675L76.3861 74.5073L77.0101 75.3713L78.0489 76.3312L79.2968 77.3871L80.5436 77.963L82.4144 78.5389L84.5972 78.7309Z" fill="white"/>
<path fill-rule="evenodd" clip-rule="evenodd" d="M59.178 53.6657C59.178 53.6657 62.9788 46.5682 67.9131 53.3778C68.1824 49.6303 67.6593 45.4442 63.8575 45.3146C60.0556 45.185 58.7266 51.9984 59.178 53.6657Z" fill="black" stroke="black" stroke-width="0.3333"/>
<path fill-rule="evenodd" clip-rule="evenodd" d="M82.7442 53.6657C82.7442 53.6657 86.5263 46.5682 91.4377 53.3778C91.706 49.6303 91.1851 45.4442 87.4019 45.3146C83.6187 45.185 82.2949 51.9984 82.7442 53.6657Z" fill="black" stroke="black" stroke-width="0.3333"/>
<path fill-rule="evenodd" clip-rule="evenodd" d="M66.561 61.153C66.561 61.153 66.6089 59.3177 68.6408 59.4252C70.6728 59.5327 80.3916 59.9052 80.3916 59.9052C80.3916 59.9052 82.1418 60.0923 81.3275 62.0169C80.5133 63.9416 76.6927 68.4723 74.7762 68.5443C72.8597 68.6163 67.654 65.3497 66.561 61.153Z" fill="black" stroke="black" stroke-width="0.3333"/>
<path d="M54.2903 57.8894C54.2903 57.8894 45.759 75.5392 60.4257 78.3354C75.0924 81.1316 74.7763 68.2564 74.7763 68.2564" stroke="black" stroke-width="1.6665"/>
<path d="M95.2331 57.8894C95.2331 57.8894 103.763 75.5392 89.0977 78.3354C74.432 81.1316 74.7471 68.2564 74.7471 68.2564" stroke="black" stroke-width="1.6665"/>
<path d="M54.3944 57.8894C54.3944 57.8894 43.3143 30.7241 74.7961 30.7241C106.278 30.7241 95.3663 57.9854 95.3663 57.9854" stroke="black" stroke-width="1.6665"/>
<path d="M60.8417 33.6999C60.8417 33.6999 53.4293 20.5417 49.5069 29.7643C45.5844 38.9869 40.1478 52.994 40.1478 52.994C40.1478 52.994 38.7335 54.7957 40.5638 59.7133C42.394 64.6309 44.2034 69.3123 44.2034 69.3123C44.2034 69.3123 47.1286 74.1138 50.1308 69.4083C51.7562 67.0834 51.8986 66.9126 51.8986 66.9126" stroke="black" stroke-width="1.6665"/>
<path d="M88.8149 33.7201C88.8149 33.7201 96.2273 20.5528 100.15 29.7816C104.072 39.0104 109.509 53.0266 109.509 53.0266C109.509 53.0266 110.923 54.8303 109.093 59.7508C107.263 64.6712 105.453 69.3556 105.453 69.3556C105.453 69.3556 102.528 74.1608 99.5259 69.4516C97.9005 67.1257 97.7581 66.9548 97.7581 66.9548" stroke="black" stroke-width="1.6665"/>
<path d="M68.8488 78.0474C68.8488 78.0474 67.0446 87.9344 74.796 87.9344C82.5473 87.9344 80.5996 78.0474 80.5996 78.0474" stroke="black" stroke-width="1.6665"/>
<path d="M74.7961 70.8481V84.4787" stroke="black" stroke-width="1.6665" stroke-linecap="round" stroke-linejoin="round"/>
<path d="M85.1752 78.8152C85.1752 78.8152 84.44 93.0218 74.796 93.0218C65.152 93.0218 65.0012 78.7192 65.0012 78.7192" stroke="black" stroke-width="1.6665" stroke-linecap="round" stroke-linejoin="round"/>
<path d="M55.3303 76.2236C55.3303 76.2236 35.2686 76.3167 42.1236 109.244C39.2327 107.841 29.6053 105.155 30.8927 117.404C31.6529 124.637 49.5068 119.803 49.5068 119.803" stroke="black" stroke-width="1.6665" stroke-linecap="round" stroke-linejoin="round"/>
<path d="M94.2222 76.2236C94.2222 76.2236 114.273 76.3167 107.422 109.212C110.31 107.809 119.934 105.126 118.647 117.362C117.887 124.589 100.042 119.76 100.042 119.76" stroke="black" stroke-width="1.6665" stroke-linecap="round" stroke-linejoin="round"/>
<path d="M57.4101 83.7109C57.4101 83.7109 57.7689 105.3 63.3375 111.836C60.5412 109.811 47.9939 106.503 48.259 114.236C48.5242 121.969 51.4983 120.623 55.3303 119.995C59.1623 119.368 73.9715 118.343 74.7961 118.939V93.214" stroke="black" stroke-width="1.6665" stroke-linecap="round" stroke-linejoin="round"/>
<path d="M92.1468 83.7109C92.1468 83.7109 91.789 105.286 86.2246 111.818C89.0188 109.794 101.556 106.488 101.291 114.216C101.025 121.944 98.0544 120.599 94.2255 119.971C90.3966 119.343 75.6 118.321 74.7764 118.916V93.2082" stroke="black" stroke-width="1.6665" stroke-linecap="round" stroke-linejoin="round"/>
<path d="M41.1879 90.6222C41.1879 90.6222 24.5079 77.6481 34.0126 64.4167C36.0487 70.9796 42.2423 82.1328 50.547 77.3755" stroke="black" stroke-width="1.6665" stroke-linecap="round" stroke-linejoin="round"/>
<path fill-rule="evenodd" clip-rule="evenodd" d="M83.3035 52.034C83.3035 52.034 87.3767 47.366 90.7907 52.034C89.9733 50.454 87.4131 47.0128 83.3035 52.034Z" fill="white"/>
<path fill-rule="evenodd" clip-rule="evenodd" d="M59.8018 51.746C59.8018 51.746 63.875 47.1365 67.289 51.746C66.4717 50.1861 63.9114 46.7881 59.8018 51.746Z" fill="white"/>
<path fill-rule="evenodd" clip-rule="evenodd" d="M71.0327 66.4326C71.0327 66.4326 75.5116 71.2283 80.1838 63.1689C78.6292 64.9755 75.6738 69.8873 71.0327 66.4326Z" fill="white"/>
</svg>
