<svg width="75" height="75" viewBox="0 0 75 75" fill="none" xmlns="http://www.w3.org/2000/svg">
<circle cx="37.5" cy="37.5" r="37.5" fill="#F9F9F9"/>
<ellipse cx="37.5" cy="42" rx="34.5" ry="31" fill="#078EC8" fill-opacity="0.37"/>
<path d="M51.4999 14.5C48.9999 17 45.1796 19 37.9999 19C30.8202 19 24.5001 16.9853 24.5001 14.5C20.5 13.5 30.8202 11 37.9999 11C45.1796 11 55.4999 14 51.4999 14.5Z" fill="#D5E9F2"/>
<path d="M53.5 10.5C53.5 12.8761 51.8749 15.1153 49.0584 16.7876C46.2527 18.4535 42.3442 19.5 38 19.5C33.6558 19.5 29.7473 18.4535 26.9416 16.7876C24.1251 15.1153 22.5 12.8761 22.5 10.5C22.5 8.12388 24.1251 5.8847 26.9416 4.21241C29.7473 2.54653 33.6558 1.5 38 1.5C42.3442 1.5 46.2527 2.54653 49.0584 4.21241C51.8749 5.8847 53.5 8.12388 53.5 10.5Z" stroke="#E7E7E7"/>
<path d="M28.9999 49.9999C22.9999 53.5999 18.4999 51.4999 16.9999 49.9999C16.6666 49.5 16.2999 48.2 17.4999 46.9999C23.0999 42.1999 27.8333 44.9999 29.4999 46.9999C29.9999 46.6666 31.3999 45.7999 32.9999 44.9999C34.5999 46.9999 33.6666 51.1666 32.9999 52.9999C32.1666 52.3333 30.1999 50.7999 28.9999 49.9999Z" fill="#EC6D25"/>
<path d="M23.5 50.5C24.5 50.1667 26 49.3 24 48.5C25 48 26 47 23.5 47" stroke="#A34A18" stroke-width="0.5"/>
<circle cx="19.5" cy="47.5" r="0.5" fill="#282828"/>
<path d="M52.3261 59.6503C46.3261 63.2503 41.8261 61.1503 40.3261 59.6503C39.9928 59.1503 39.6261 57.8504 40.8261 56.6503C46.4261 51.8503 51.1594 54.6503 52.8261 56.6503C53.3261 56.317 54.7261 55.4503 56.3261 54.6503C57.9261 56.6503 56.9928 60.817 56.3261 62.6503C55.4928 61.9837 53.5261 60.4503 52.3261 59.6503Z" fill="#86AD73"/>
<path d="M46.8262 60.1504C47.8262 59.8171 49.3262 58.9504 47.3262 58.1504C48.3262 57.6504 49.3262 56.6504 46.8262 56.6504" stroke="#416B2C" stroke-width="0.5"/>
<circle cx="42.8262" cy="57.1504" r="0.5" fill="#282828"/>
<path d="M42.8834 37.6503C48.8834 41.2503 53.3834 39.1503 54.8834 37.6503C55.2167 37.1503 55.5834 35.8504 54.3834 34.6503C48.7834 29.8503 44.05 32.6503 42.3834 34.6503C41.8834 34.317 40.4834 33.4503 38.8834 32.6503C37.2834 34.6503 38.2167 38.817 38.8834 40.6503C39.7167 39.9837 41.6834 38.4503 42.8834 37.6503Z" fill="#EAAECE"/>
<path d="M48.3833 38.1504C47.3833 37.8171 45.8833 36.9504 47.8833 36.1504C46.8833 35.6504 45.8833 34.6504 48.3833 34.6504" stroke="#B8608F" stroke-width="0.5"/>
<circle r="0.5" transform="matrix(-1 0 0 1 52.3833 35.1504)" fill="#282828"/>
</svg>
