<svg width="68" height="72" viewBox="0 0 68 72" fill="none" xmlns="http://www.w3.org/2000/svg">
<path d="M17.3348 34.2558C19.9599 34.7687 28.2201 32.8858 32.022 31.8803C32.6569 31.2883 28.0706 25.741 25.698 23.0414C29.718 17.371 39.8192 9.53566 48.0647 23.5572C58.3717 41.084 56.828 43.29 56.3628 54.3583C55.9907 63.2129 47.663 66.2366 43.5456 66.6416C33.1477 69.452 26.5122 60.8868 26.661 60.3313C24.7187 61.3588 11.4704 56.1419 13.0599 52.8765C14.3314 50.2642 19.745 51.3734 22.2929 52.2546C22.7179 49.4046 23.9769 46.532 24.7974 45.0668C23.5971 45.1024 16.9515 38.797 15.8544 39.3365C14.7572 39.876 9.42827 41.5441 8.25776 41.4686C7.32136 41.4082 7.75185 40.3941 8.08414 39.8946C7.54456 40.1023 7.03199 40.0998 6.72633 39.6293C5.88327 38.3318 8.27799 36.9492 8.31374 36.8157C6.01321 37.5103 6.71405 36.5043 6.84966 35.6139C7.00648 34.5842 14.0535 33.6147 17.3348 34.2558Z" fill="#A5A9A3"/>
<path d="M9.62711 36.3581C9.1068 36.5569 8.67356 36.7071 8.31374 36.8157M8.31374 36.8157C6.01321 37.5103 6.71405 36.5043 6.84966 35.6139C7.00648 34.5842 14.0535 33.6147 17.3348 34.2558C19.9599 34.7687 28.2201 32.8858 32.022 31.8803C32.6569 31.2883 28.0706 25.741 25.698 23.0414C29.718 17.371 39.8192 9.53566 48.0647 23.5571C58.3717 41.084 56.828 43.29 56.3628 54.3583C55.9907 63.2129 47.663 66.2366 43.5456 66.6416C33.1477 69.452 26.5122 60.8868 26.661 60.3313M8.31374 36.8157C8.27799 36.9492 5.88327 38.3318 6.72633 39.6293C7.03199 40.0998 7.54456 40.1023 8.08414 39.8946M9.83919 38.6773C9.42548 39.0873 8.73515 39.644 8.08414 39.8946M8.08414 39.8946C7.75185 40.3941 7.32136 41.4082 8.25776 41.4686C9.42827 41.5441 14.7572 39.876 15.8544 39.3365C16.9515 38.797 23.5971 45.1024 24.7974 45.0668M24.7974 45.0668C25.7089 45.0398 30.9179 38.1993 36.2086 42.0302M24.7974 45.0668C23.9769 46.532 22.7179 49.4046 22.2929 52.2546M41.1287 49.4428C39.5699 45.5295 37.8852 43.2441 36.2086 42.0302M36.2086 42.0302C38.6367 40.2271 43.5125 36.1023 43.5921 34.0279M22.4058 56.2143C22.0768 55.0078 22.0872 53.6338 22.2929 52.2546M22.2929 52.2546C19.745 51.3734 14.3314 50.2642 13.0599 52.8765C11.4704 56.1419 24.7187 61.3588 26.661 60.3313M26.661 60.3313C28.6034 59.3038 29.9509 53.8303 29.7665 53.1855" stroke="black"/>
<path d="M20.6381 10.3738C17.6613 21.4835 22.6984 22.2379 25.589 21.2263C25.6245 24.6492 27.3888 31.6631 34.1626 32.335C42.6299 33.1749 46.0607 26.5926 46.7156 24.1484C48.6202 23.7062 57.2348 19.1082 54.19 12.6959C51.1453 6.28359 42.1995 9.00672 41.7907 10.088C39.007 8.38946 34.211 8.45388 32.1609 8.6984C29.5743 3.24239 21.4419 7.37421 20.6381 10.3738Z" fill="#A5A9A3"/>
<path d="M26.9526 14.8043C24.3938 18.3101 22.5283 15.7622 21.9155 14.05C23.7489 11.2072 22.2865 13.5541 24.0821 11.2965C27.0483 9.11444 29.0082 12.0211 29.2521 12.4437C27.4666 12.4415 26.8654 13.3521 26.6352 13.7667C26.4051 14.1813 26.7086 14.3817 26.9526 14.8043Z" fill="#C97A7A" fill-opacity="0.65"/>
<path d="M47.1984 17.0143C49.6186 19.0917 50.0114 18.9588 51.3983 17.7824C52.4758 15.0943 52.3051 15.2867 52.1462 14.1023C50.7461 11.7731 47.8336 12.4216 46.4802 12.5841C47.8613 14.096 47.8373 15.5185 47.8294 15.9926C47.8214 16.4668 47.621 16.7703 47.1984 17.0143Z" fill="#C97A7A" fill-opacity="0.65"/>
<path d="M32.1609 8.6984C29.5743 3.24239 21.4419 7.37421 20.6381 10.3738C17.6613 21.4835 22.6984 22.2379 25.589 21.2263C25.6245 24.6492 27.3888 31.6631 34.1626 32.335C42.6299 33.1749 46.0607 26.5926 46.7156 24.1484C48.6202 23.7062 57.2348 19.1082 54.19 12.6959C51.1453 6.28359 42.1995 9.00673 41.7907 10.088M32.1609 8.6984C34.7474 14.1544 26.9068 15.8639 26.6272 14.241C26.4036 12.9427 28.284 12.5019 29.2521 12.4438C28.1208 10.5927 25.0577 8.36686 21.8559 14.2723M32.1609 8.6984C34.211 8.45388 39.007 8.38946 41.7907 10.088M41.7907 10.088C41.3819 11.1692 44.145 17.7441 46.8055 17.1472C48.9339 16.6696 47.4836 13.8758 46.4924 12.5385C49.1494 12.0597 53.9082 12.3108 51.6879 17.1456" stroke="#282828"/>
<path d="M32.4865 27.4802C32.1038 30.3306 33.4855 30.5659 34.2242 30.3272C36.0906 30.8273 36.6869 29.8758 36.7518 29.3375C36.859 28.493 37.1048 26.5981 37.2302 25.7744C37.387 24.7447 36.544 23.4472 35.07 23.1713C33.8907 22.9506 32.9768 24.3172 32.6673 25.028C32.5952 25.4453 32.458 26.5199 32.4865 27.4802Z" fill="#282828"/>
<circle cx="30.6181" cy="22.4546" r="0.805114" transform="rotate(15 30.6181 22.4546)" fill="#392821"/>
<circle cx="40.5735" cy="24.4077" r="0.805114" transform="rotate(15 40.5735 24.4077)" fill="#392821"/>
</svg>
