<svg width="99" height="141" viewBox="0 0 99 141" fill="none" xmlns="http://www.w3.org/2000/svg">
<ellipse cx="49.5751" cy="81.516" rx="38.5953" ry="47.246" fill="white"/>
<path d="M12.1746 104.141C-13.112 83.6454 6.79564 50.6841 19.8271 36.7654H82.0151C107.135 79.8524 100.98 100.481 85.5086 108.633C70.0372 116.784 60.3884 108.633 60.5548 94.6584C60.6878 83.4791 73.808 80.906 80.3515 81.0169C80.2184 62.6509 71.7312 57.7821 67.4059 57.5603C51.4354 67.7082 44.1156 56.7285 32.9695 57.5603C24.0526 58.2257 21.6016 73.6971 21.4907 81.3497C37.195 83.4791 40.8993 91.1094 40.7883 94.6584C41.7865 106.359 37.4612 124.636 12.1746 104.141Z" fill="#282828"/>
<circle cx="28.6138" cy="12.6433" r="12.6433" fill="#282828"/>
<circle cx="72.5327" cy="12.6433" r="12.6433" fill="#282828"/>
<circle cx="50.7395" cy="37.0982" r="30.6092" fill="white" stroke="#282828"/>
<path d="M50.906 55.8967C52.3833 59.283 56.9136 64.1366 63.2166 56.4611" stroke="#282828"/>
<path d="M50.906 55.8967C49.3489 59.283 44.5737 64.1366 37.93 56.4611" stroke="#282828"/>
<path d="M52.1953 55.4748C51.4505 56.1029 50.3615 56.1029 49.6167 55.4748L44.1416 50.858C42.716 49.6559 43.5661 47.3291 45.4309 47.3291L56.3811 47.3291C58.2459 47.3291 59.096 49.6559 57.6704 50.858L52.1953 55.4748Z" fill="#282828"/>
<circle cx="39.427" cy="34.1035" r="6.15529" fill="#282828"/>
<circle cx="62.052" cy="34.1035" r="6.15529" fill="#282828"/>
<path d="M35.4774 113.302C38.4122 116.968 40.0966 121.036 40.4673 124.632C40.8388 128.234 39.8917 131.29 37.6663 133.072C35.4409 134.853 32.2513 135.108 28.818 133.957C25.3906 132.808 21.7901 130.275 18.8553 126.608C15.9205 122.942 14.2362 118.875 13.8654 115.279C13.494 111.677 14.4411 108.62 16.6664 106.839C18.8918 105.057 22.0814 104.802 25.5148 105.953C28.9422 107.102 32.5426 109.636 35.4774 113.302Z" fill="#282828" stroke="white"/>
<path d="M65.4357 113.302C62.5009 116.968 60.8165 121.036 60.4457 124.632C60.0743 128.234 61.0214 131.29 63.2468 133.072C65.4722 134.853 68.6618 135.108 72.0951 133.957C75.5225 132.808 79.123 130.275 82.0578 126.608C84.9925 122.942 86.6769 118.875 87.0477 115.279C87.4191 111.677 86.472 108.62 84.2466 106.839C82.0213 105.057 78.8317 104.802 75.3983 105.953C71.9709 107.102 68.3704 109.636 65.4357 113.302Z" fill="#282828" stroke="white"/>
</svg>
