<svg width="54" height="102" viewBox="0 0 54 102" fill="none" xmlns="http://www.w3.org/2000/svg">
<path d="M15.4896 101.19C16.3784 101.19 24.758 90.1445 24.885 89.8906C21.4316 89.5859 16.9286 88.0285 15.1087 87.2244C11.6807 89.3828 4.5453 94.3344 3.42802 96.8737C2.03141 100.048 14.6009 101.19 15.4896 101.19Z" fill="#FCA352"/>
<path d="M38.851 101.19C37.9622 101.19 29.5826 90.1445 29.4556 89.8906C32.909 89.5859 37.412 88.0285 39.2319 87.2244C42.6599 89.3828 49.7953 94.3344 50.9126 96.8737C52.3092 100.048 39.7397 101.19 38.851 101.19Z" fill="#FCA352"/>
<path d="M45.7072 82.5268C30.9793 95.8326 14.4739 88.3248 8.12573 82.7807L9.43692 33.5534L42.2039 32.2427L45.7072 82.5268Z" fill="white"/>
<circle cx="27.0435" cy="19.9334" r="19.9334" fill="#272727"/>
<circle cx="19.8065" cy="16.5054" r="3.555" fill="white"/>
<path d="M20.8838 15.428C21.1452 15.6894 21.3026 16.0369 21.3268 16.4057C21.351 16.7746 21.2403 17.1396 21.0152 17.4329C20.7902 17.7261 20.4663 17.9276 20.1037 17.9997C19.7412 18.0718 19.3648 18.0096 19.0447 17.8248C18.7246 17.64 18.4826 17.3451 18.3638 16.9951C18.245 16.6451 18.2575 16.2638 18.3989 15.9223C18.5404 15.5808 18.8011 15.3024 19.1327 15.1389C19.4642 14.9754 19.8438 14.938 20.2008 15.0337L19.8065 16.5054L20.8838 15.428Z" fill="#272727"/>
<circle cx="34.2803" cy="16.5054" r="3.555" fill="white"/>
<path d="M35.5997 15.7436C35.7856 16.0656 35.8473 16.4445 35.7733 16.8089C35.6992 17.1732 35.4945 17.4979 35.1976 17.7218C34.9008 17.9457 34.5323 18.0533 34.1616 18.0244C33.7909 17.9954 33.4436 17.8319 33.1851 17.5647C32.9266 17.2974 32.7748 16.9449 32.7582 16.5734C32.7416 16.202 32.8614 15.8373 33.095 15.548C33.3287 15.2588 33.66 15.065 34.0266 15.0031C34.3933 14.9412 34.7699 15.0155 35.0855 15.2121L34.2802 16.5054L35.5997 15.7436Z" fill="#272727"/>
<path d="M26.6625 17.7749L33.2598 21.2029H20.0653L26.6625 17.7749Z" fill="#FCA352"/>
<path d="M26.6627 24.6311L20.0654 21.2031L33.2599 21.2031L26.6627 24.6311Z" fill="#E09149"/>
<path d="M2.19865 79.6066C-3.69249 59.3939 3.63758 34.8728 8.03901 25.1389C13.1465 29.1171 22.6504 37.1243 19.8064 37.3275C16.9624 37.5306 14.67 42.9986 13.8793 45.7071C12.4404 65.4289 8.08979 99.8193 2.19865 79.6066Z" fill="#272727"/>
<path d="M51.6468 79.6066C57.538 59.3939 50.2079 34.8728 45.8065 25.1389C40.699 29.1171 31.195 37.1243 34.039 37.3275C36.883 37.5306 39.1754 42.9986 39.9661 45.7071C41.405 65.4289 45.7557 99.8193 51.6468 79.6066Z" fill="#272727"/>
</svg>
