<svg width="108" height="165" viewBox="0 0 108 165" fill="none" xmlns="http://www.w3.org/2000/svg">
<path d="M11.9609 121.749L7.35061 122.891L8.70607 118.339L11.9609 121.749Z" fill="white" stroke="#393939" stroke-width="0.2"/>
<path d="M10.3127 119.38L5.20628 119.365L8.13651 115.183L10.3127 119.38Z" fill="white" stroke="#393939" stroke-width="0.2"/>
<path d="M15.551 122.862L12.0426 126.036L11.0684 121.406L15.551 122.862Z" fill="white" stroke="#393939" stroke-width="0.2"/>
<path d="M19.5474 120.99L18.1159 125.516L14.9405 121.988L19.5474 120.99Z" fill="white" stroke="#393939" stroke-width="0.2"/>
<path d="M29.6911 158.302L26.1627 160.248L25.4823 156.276L29.6911 158.302Z" fill="white" stroke="#393939" stroke-width="0.2"/>
<path d="M36.0779 160.479L32.9174 162.676L31.65 159.041L36.0779 160.479Z" fill="white" stroke="#393939" stroke-width="0.2"/>
<path d="M43.6176 160.768L41.3182 164.118L38.9445 160.82L43.6176 160.768Z" fill="white" stroke="#393939" stroke-width="0.2"/>
<path d="M75.88 158.302L79.4083 160.248L80.0887 156.276L75.88 158.302Z" fill="white" stroke="#393939" stroke-width="0.2"/>
<path d="M69.4934 160.479L72.6539 162.676L73.9213 159.041L69.4934 160.479Z" fill="white" stroke="#393939" stroke-width="0.2"/>
<path d="M61.9534 160.768L64.2528 164.118L66.6265 160.82L61.9534 160.768Z" fill="white" stroke="#393939" stroke-width="0.2"/>
<path d="M91.496 93.4563C91.496 120.723 74.2859 142.605 53.2993 142.605C32.3126 142.605 15.1025 120.723 15.1025 93.4563C15.1025 66.1891 32.3126 44.3076 53.2993 44.3076C74.2859 44.3076 91.496 66.1891 91.496 93.4563Z" fill="white" stroke="#C2E2F0"/>
<path d="M22.5315 116.948L23.6759 121.717L19.0376 120.122L22.5315 116.948Z" fill="white" stroke="#393939" stroke-width="0.2"/>
<path d="M95.1848 121.829L100.031 123.188L98.4478 118.411L95.1848 121.829Z" fill="white" stroke="#393939" stroke-width="0.2"/>
<path d="M96.8772 119.45L102.342 119.613L99.0589 115.241L96.8772 119.45Z" fill="white" stroke="#393939" stroke-width="0.2"/>
<path d="M91.5357 122.926L95.1065 126.28L96.0252 121.468L91.5357 122.926Z" fill="white" stroke="#393939" stroke-width="0.2"/>
<path d="M88.0814 120.644L88.5999 125.299L92.3904 122.548L88.0814 120.644Z" fill="white" stroke="#393939" stroke-width="0.2"/>
<path d="M84.5505 116.936L83.4386 121.668L88.043 120.109L84.5505 116.936Z" fill="white" stroke="#393939" stroke-width="0.2"/>
<path d="M34.2522 93.0892C31.839 102.415 28.2132 110.461 24.3194 115.932C22.3715 118.669 20.3723 120.739 18.4449 122.008C16.5176 123.277 14.7111 123.717 13.1035 123.301C11.4959 122.885 10.1293 121.624 9.05948 119.579C7.98971 117.535 7.24546 114.755 6.86957 111.416C6.11819 104.744 6.85053 95.9484 9.26369 86.6229C11.6768 77.2974 15.3026 69.2509 19.1964 63.7801C21.1444 61.0432 23.1436 58.9733 25.0709 57.7041C26.9983 56.4349 28.8048 55.9955 30.4124 56.4115C32.02 56.8275 33.3866 58.088 34.4564 60.1328C35.5262 62.1776 36.2704 64.9574 36.6463 68.2956C37.3977 74.9685 36.6653 83.7637 34.2522 93.0892Z" fill="white" stroke="#C2E2F0"/>
<path d="M73.5149 93.0892C75.9281 102.415 79.5539 110.461 83.4477 115.932C85.3956 118.669 87.3948 120.739 89.3222 122.008C91.2495 123.277 93.056 123.717 94.6636 123.301C96.2712 122.885 97.6378 121.624 98.7076 119.579C99.7774 117.535 100.522 114.755 100.898 111.416C101.649 104.744 100.917 95.9484 98.5034 86.6229C96.0902 77.2974 92.4645 69.2509 88.5707 63.7801C86.6227 61.0432 84.6235 58.9733 82.6962 57.7041C80.7688 56.4349 78.9623 55.9955 77.3547 56.4115C75.7471 56.8275 74.3805 58.088 73.3107 60.1328C72.2409 62.1776 71.4967 64.9574 71.1208 68.2956C70.3694 74.9685 71.1018 83.7637 73.5149 93.0892Z" fill="white" stroke="#C2E2F0"/>
<circle cx="28.475" cy="13.8724" r="13.3724" fill="white" stroke="#C2E2F0"/>
<circle cx="79.5838" cy="13.8724" r="13.3724" fill="white" stroke="#C2E2F0"/>
<circle cx="54.0294" cy="40.887" r="30.1653" fill="white" stroke="#C2E2F0"/>
<ellipse cx="42.6244" cy="32.5714" rx="4.02116" ry="3.61905" fill="#282828"/>
<circle cx="66.3493" cy="32.5714" r="3.61905" fill="#282828"/>
<path d="M54.6877 49.8623C56.5214 53.9549 62.1446 59.8209 69.9682 50.5444" stroke="#282828"/>
<path d="M54.6877 49.8623C52.7576 53.9549 46.8384 59.8209 38.6031 50.5444" stroke="#282828"/>
<path d="M55.5755 50.3826C54.8306 51.0112 53.7409 51.0112 52.9959 50.3826L44.8859 43.5392C43.4609 42.3368 44.3112 40.0106 46.1757 40.0106L62.3958 40.0106C64.2603 40.0106 65.1105 42.3368 63.6856 43.5392L55.5755 50.3826Z" fill="#282828"/>
<path d="M26.2847 156.977C20.4437 153.473 28.2317 141.401 32.8558 135.804C36.3605 139.892 45.8839 142.265 50.2646 142.751C49.7778 147.862 48.6265 158.146 47.4583 159.898C45.998 162.088 33.586 161.358 26.2847 156.977Z" fill="white" stroke="#C2E2F0"/>
<path d="M79.584 156.977C85.425 153.473 77.6369 141.401 73.0128 135.804C69.5081 139.892 59.8728 142.265 55.4922 142.751C55.9789 147.862 57.2422 158.146 58.4104 159.898C59.8706 162.088 72.2827 161.358 79.584 156.977Z" fill="white" stroke="#C2E2F0"/>
</svg>
