<svg width="73" height="83" viewBox="0 0 73 83" fill="none" xmlns="http://www.w3.org/2000/svg">
<path d="M0.222925 24.0845C7.74193 27.374 13.1462 35.2455 14.9085 38.77C14.8106 39.2595 14.4386 41.2959 13.7337 45.5254C13.0288 54.6892 19.7058 60.8962 23.1325 62.8543C4.33496 73.4279 -1.24563 34.0706 0.222925 24.0845Z" fill="#B75800"/>
<path d="M65.0266 47.8845C65.0266 63.0353 55.0102 75.1378 42.8549 75.1378C30.6995 75.1378 20.6831 63.0353 20.6831 47.8845C20.6831 32.7336 30.6995 20.6311 42.8549 20.6311C55.0102 20.6311 65.0266 32.7336 65.0266 47.8845Z" fill="#282828" stroke="#282828"/>
<path d="M20.885 61.1748C6.03111 49.1353 17.7253 29.7731 25.3803 21.5969L61.9109 21.5969C76.667 46.9072 73.0513 59.0249 63.963 63.8133C54.8748 68.6017 49.2069 63.8133 49.3046 55.6045C49.3828 49.0376 57.0899 47.5261 60.9336 47.5913C60.8555 36.8026 55.8699 33.9426 53.3291 33.8123C43.9477 39.7734 39.6478 33.3237 33.1004 33.8123C27.8624 34.2032 26.4226 43.2914 26.3575 47.7867C35.5825 49.0376 37.7585 53.5198 37.6934 55.6045C38.2797 62.4777 35.7389 73.2142 20.885 61.1748Z" fill="#282828" stroke="#B75800"/>
<path d="M14.9087 38.77C16.5535 35.9504 26.1676 34.8538 30.7691 34.658C36.8391 35.1476 50.2715 35.8329 55.4408 34.658C61.9024 33.1895 66.0144 38.77 69.8326 38.77C66.0731 27.4915 62.1962 22.1264 60.7276 20.8536C51.133 20.2662 31.0041 19.4438 27.2446 20.8536C22.5452 22.6159 17.5521 32.6021 14.9087 38.77Z" fill="#B75800" stroke="#B75800"/>
<circle cx="30.5417" cy="7.42695" r="6.92695" fill="white" stroke="white"/>
<circle cx="56.341" cy="7.42695" r="6.92695" fill="white" stroke="white"/>
<circle cx="43.5391" cy="21.7923" r="17.7742" fill="#B75800" stroke="#282828"/>
<circle cx="43.4824" cy="32.0986" r="6.92695" fill="white" stroke="white"/>
<circle cx="41.0486" cy="15.5669" r="0.968555" fill="white" stroke="white"/>
<circle cx="46.3353" cy="15.5667" r="0.968555" fill="white" stroke="white"/>
<path d="M43.6367 32.835C44.5045 34.8241 47.1657 37.6753 50.8682 33.1665" stroke="#282828"/>
<path d="M43.6367 32.835C42.722 34.8241 39.917 37.6753 36.0143 33.1665" stroke="#282828"/>
<path d="M44.6037 31.7564C44.0451 32.2274 43.2284 32.2274 42.6698 31.7564L41.7122 30.9489C40.643 30.0473 41.2805 28.3022 42.6792 28.3022L44.5944 28.3022C45.993 28.3022 46.6306 30.0473 45.5613 30.9489L44.6037 31.7564Z" fill="#282828" stroke="#282828"/>
<circle cx="36.8938" cy="20.0332" r="3.11575" fill="#B75800" stroke="white"/>
<circle cx="50.1844" cy="20.0332" r="3.11575" fill="#B75800" stroke="white"/>
<path d="M34.4126 66.685C36.1156 68.8123 37.0865 71.1653 37.2997 73.2326C37.5135 75.306 36.9646 77.0202 35.7306 78.0081C34.4965 78.996 32.7037 79.1563 30.7274 78.4939C28.7569 77.8334 26.6735 76.3709 24.9705 74.2437C23.2676 72.1164 22.2967 69.7635 22.0835 67.6962C21.8697 65.6227 22.4186 63.9085 23.6526 62.9206C24.8866 61.9327 26.6794 61.7724 28.6558 62.4349C30.6263 63.0954 32.7097 64.5578 34.4126 66.685Z" fill="#282828" stroke="#B75800"/>
<path d="M52.3327 66.685C50.6298 68.8123 49.6589 71.1653 49.4457 73.2326C49.2319 75.306 49.7808 77.0202 51.0148 78.0081C52.2488 78.996 54.0416 79.1563 56.018 78.4939C57.9885 77.8334 60.0719 76.3709 61.7748 74.2437C63.4777 72.1164 64.4487 69.7635 64.6619 67.6962C64.8757 65.6227 64.3268 63.9085 63.0927 62.9206C61.8587 61.9327 60.0659 61.7724 58.0895 62.4349C56.119 63.0954 54.0356 64.5578 52.3327 66.685Z" fill="#282828" stroke="#B75800"/>
<path d="M33.1184 36.1265C32.6484 34.0118 34.0974 28.588 35.1743 26.4341C33.0205 26.6299 28.3603 26.4928 26.9504 27.9026C28.1253 31.7209 31.0624 34.658 33.1184 36.1265Z" fill="white" stroke="white"/>
<path d="M53.972 36.1265C54.4419 34.0118 52.9929 28.588 51.916 26.4341C54.0699 26.6299 58.7301 26.4928 60.1399 27.9026C58.965 31.7209 56.0279 34.658 53.972 36.1265Z" fill="white" stroke="white"/>
</svg>
