<svg width="65" height="70" viewBox="0 0 65 70" fill="none" xmlns="http://www.w3.org/2000/svg">
<path d="M49.2581 68.387C48.5481 67.7023 44.3607 67.5882 42.3557 67.6167H41.0738C40.022 67.9876 38.4115 68.5924 40.3836 68.0446C42.8487 67.36 47.0888 68.387 49.2581 68.387Z" fill="#683A0F" stroke="#282828"/>
<path d="M28.8707 28.2581C31.4514 27.8452 32.7847 21.5484 33.1288 18.4517C43.1503 19.1398 63.2707 20.6452 63.5804 21.1613C63.9675 21.8065 63.8384 24.7742 63.8384 26.3226C64.2255 27.742 63.1933 37.4194 62.5481 40.7742C62.032 45.8065 58.9352 52.5162 57.3868 55.6129C53.0513 63.3549 46.7202 66.4086 44.0965 66.9678C43.4513 67.1828 42.178 67.6129 42.032 67.6129C41.7739 67.6129 39.8384 68 36.6126 68.1291C26.161 68 11.8385 61.0323 10.6772 60.3871C14.161 58.3226 14.4191 56.9033 14.2901 56.9033C12.8707 57.6775 10.2901 58.3226 8.61265 58.0646C6.93523 57.8065 6.4191 56.2581 6.29007 55.871C5.38684 56.6452 2.16104 57.6775 1.25781 57.9355C4.48362 55.871 5.12878 53.1613 5.51589 51.871C5.41266 50.0129 7.27933 47.3119 8.22557 46.1936C19.4514 33.6775 27.1933 29.1613 28.8707 28.2581Z" fill="#FFFEFE"/>
<circle cx="48.871" cy="16.129" r="15.629" fill="white" stroke="#C2E2F0"/>
<path d="M48.8709 25.9578L47.8652 22.4739L49.8766 22.4739L48.8709 25.9578Z" fill="#282828"/>
<path d="M37.3899 17.0599C37.7072 16.2141 37.1786 16.1083 37.7072 16.0026C37.859 15.9722 38.5681 16.2119 39.5047 16.5915C40.2907 16.9101 41.2368 17.3273 42.1481 17.7663C43.409 18.3737 43.1229 18.1586 43.7341 18.646C40.6678 19.933 40.5619 19.5976 39.8219 19.5976C38.6162 19.5976 37.3195 18.3992 37.3899 17.0599Z" fill="#B7A92D"/>
<path d="M39.5044 16.637C39.9626 18.082 41.1327 20.3377 42.1478 17.8C41.3865 17.3771 40.0683 16.8484 39.5044 16.637Z" fill="#282828"/>
<path d="M44.7915 21.1836C45.1087 21.1131 45.7219 20.7818 45.6373 20.0205C45.6227 19.8883 43.9889 18.8491 43.7341 18.646M43.7341 18.646C40.6678 19.933 40.5619 19.5976 39.8219 19.5976C38.6162 19.5976 37.3195 18.3992 37.3899 17.0599C37.7072 16.2141 37.1786 16.1083 37.7072 16.0026C37.859 15.9722 38.5681 16.2119 39.5047 16.5915M43.7341 18.646C43.1229 18.1586 43.409 18.3737 42.1481 17.7663M39.5047 16.5915C40.2907 16.9101 41.2368 17.3273 42.1481 17.7663M39.5047 16.5915C39.9629 18.0645 41.133 20.3615 42.1481 17.7663" stroke="#282828"/>
<path d="M59.8361 17.0599C59.5189 16.2141 60.0475 16.1083 59.5188 16.0026C59.3671 15.9722 58.658 16.2119 57.7214 16.5915C56.9354 16.9101 55.9893 17.3273 55.078 17.7663C53.8171 18.3737 54.1032 18.1586 53.492 18.646C56.5583 19.933 56.6642 19.5976 57.4042 19.5976C58.6099 19.5976 59.9066 18.3992 59.8361 17.0599Z" fill="#B7A92D"/>
<path d="M57.7214 16.637C57.2633 18.082 56.0931 20.3377 55.0781 17.8C55.8394 17.3771 57.1575 16.8484 57.7214 16.637Z" fill="#282828"/>
<path d="M52.4346 21.1836C52.1174 21.1131 51.5041 20.7818 51.5887 20.0205C51.6034 19.8883 53.2372 18.8491 53.492 18.646M53.492 18.646C56.5583 19.933 56.6642 19.5976 57.4042 19.5976C58.6099 19.5976 59.9066 18.3992 59.8361 17.0599C59.5189 16.2141 60.0475 16.1083 59.5188 16.0026C59.3671 15.9722 58.658 16.2119 57.7214 16.5915M53.492 18.646C54.1032 18.1586 53.8171 18.3737 55.078 17.7663M57.7214 16.5915C56.9354 16.9101 55.9893 17.3273 55.078 17.7663M57.7214 16.5915C57.2632 18.0645 56.093 20.3615 55.078 17.7663" stroke="#282828"/>
<line x1="37.9904" y1="14.1928" x2="37.2163" y2="12.9025" stroke="#C2E2F0"/>
<line y1="-0.5" x2="1.50476" y2="-0.5" transform="matrix(0.514496 -0.857493 -0.857493 -0.514496 58.0325 13.9355)" stroke="#C2E2F0"/>
<line x1="39.5675" y1="11.6547" x2="38.7933" y2="10.6225" stroke="#C2E2F0"/>
<line x1="48.5" y1="19.8711" x2="48.5" y2="18.5808" stroke="#C2E2F0"/>
<line x1="57.2988" y1="11.1366" x2="57.6985" y2="9.90977" stroke="#C2E2F0"/>
<path d="M33.129 18.4517C32.871 21.4624 31.4774 27.742 29 28.2581C26.591 28.76 13.875 39.3346 8.28487 46.1936M26.2903 36.3871C24.8684 38.8097 23.3417 40.9979 21.7627 42.9678M6.29032 55.9178C4.15802 57.0239 2.32611 57.7186 1 58.0645C2.50538 57.2043 5.54193 54.5549 5.64516 50.8387C5.67382 49.8071 6.68894 48.1518 8.28487 46.1936M6.29032 55.9178C6.75968 57.6966 8.98968 59.4161 14.2903 56.8583M6.29032 55.9178C8.84448 54.5929 11.8297 52.6777 14.8928 50.0646M23.6358 49.9684C21.9937 51.419 20.526 52.6503 19.1935 53.6795M14.2903 56.8583C16.7038 58.4237 22.6193 59.5456 30.2903 54.9175M14.2903 56.8583C15.7312 56.163 17.33 55.1189 19.1935 53.6795M37.6452 49.0323C37.0024 49.675 36.3666 50.2764 35.7384 50.8387M30.2903 54.9175C34.7204 55.7084 44.5097 55.2 48.2258 46.8387M30.2903 54.9175C32.0235 53.8718 33.8462 52.5326 35.7384 50.8387M8.28487 46.1936C8.22217 48.3871 9.85161 50.9678 16.871 43.742M14.8928 50.0646C15.2511 51.871 18.5742 53.7549 29 46.8387M14.8928 50.0646C17.1885 48.1061 19.528 45.7556 21.7627 42.9678M19.1935 53.6795C19.9677 56.1304 23.0129 59.1226 29 51.4839M35.7384 50.8387C36.331 52.2151 38.8839 53.342 44.3548 46.8387M21.7627 42.9678C21.8525 45.2043 23.6839 48.1033 30.2903 41.8065" stroke="#C2E2F0"/>
<path d="M63.7096 21.6775C64.8279 39.0968 60.0709 72.671 31.0645 67.613C23.3225 65.9613 14.1612 62.1076 10.5483 60.3872C11.6666 59.785 14.0064 58.2452 14.4193 56.9033" stroke="#C2E2F0"/>
<path d="M47.5807 69.2903C46.6517 68.258 41.1721 68.086 38.5484 68.129H36.871C35.4947 68.6881 33.3871 69.5999 35.9678 68.7741C39.1936 67.7419 44.742 69.2903 47.5807 69.2903Z" fill="#683A0F" stroke="#282828"/>
<path d="M38.6774 9.41937C37.8602 8.00002 37.0516 5.67744 40.3548 7.74195" stroke="#C2E2F0"/>
<path d="M39.7987 24.1184C38.4807 25.0906 36.2642 26.1563 37.9426 22.6411" stroke="#C2E2F0"/>
<path d="M58.3674 9.31981C58.9305 7.78186 59.3311 5.35539 56.4284 7.95312" stroke="#C2E2F0"/>
<path d="M56.6969 24.4322C58.2085 25.0628 60.6149 25.5701 58.1479 22.5556" stroke="#C2E2F0"/>
<path d="M49.8864 5.63208C49.4606 4.0506 48.39 1.83652 47.5141 5.63208" stroke="#C2E2F0"/>
<path d="M47.7321 4.98562C46.582 3.80149 44.5575 2.3902 45.6613 6.21815" stroke="#C2E2F0"/>
<path d="M52.0835 5.94446C52.3057 4.3087 52.1059 1.80175 49.7744 5.03221" stroke="#C2E2F0"/>
</svg>
