<svg width="40" height="63" viewBox="0 0 40 63" fill="none" xmlns="http://www.w3.org/2000/svg">
<path d="M18.2366 4.23223C19.4943 -0.798736 23.4772 1.61193 25.3114 3.44614L29.0452 3.64269C29.1108 3.57719 29.5955 3.13174 31.0105 1.87399C34.9409 -0.877314 34.9409 4.23226 34.9409 5.21487C35.9235 6.98357 35.1374 7.96618 34.3513 8.55574C34.9802 10.4424 34.0893 12.3552 33.5653 13.0757C32.1241 15.696 29.0845 21.2511 28.4557 22.5088C29.4383 23.8845 28.8487 29.1906 28.6522 29.7801C28.9666 29.9373 29.5693 31.9419 29.8313 32.9245C29.7658 33.7761 29.6348 36.1474 29.6348 38.8201C28.6915 42.9078 27.4076 44.3227 26.8835 44.5193C26.818 46.288 26.687 50.2577 26.687 51.9871C26.2153 53.7165 26.4905 58.8654 26.687 61.2236L9.39304 59.0619L9.78609 53.3628C9.9171 49.4978 10.1791 41.0605 10.1791 38.2306C10.1791 36.1867 9.39304 33.3175 9 32.1384C9.39304 31.1558 10.3757 28.7975 11.1617 27.2253C12.5374 25.2601 13.3235 24.081 13.9131 22.1158C14.8957 18.1853 15.8783 17.9888 16.0748 17.3992C16.4678 17.2027 17.2539 12.0931 17.8435 10.7175C17.4504 8.75226 17.647 8.94879 18.0401 7.76965C17.0574 6.78705 17.4505 5.80443 18.2366 4.23223Z" fill="white"/>
<path d="M23.7391 13.8618C29.8313 17.3992 31.4035 15.041 33.3687 13.2723C33.4378 13.2101 33.5033 13.1472 33.5653 13.0836M23.1496 15.6305C19.7519 14.144 18.362 12.1412 17.8952 10.521M33.5653 13.0836C35.266 11.3399 34.3513 9.12457 34.3513 8.55573C36.3165 7.57312 34.7444 5.21486 34.9409 4.82182C35.1374 4.42877 34.9409 1.67747 33.3687 1.0879C31.7965 0.498334 29.6348 3.05312 29.2417 3.44616C28.9273 3.7606 26.4904 3.57718 25.3113 3.44616C23.5426 1.61196 19.6515 -0.798714 18.2365 4.23225C17.8435 4.82182 17.0574 6.39399 18.04 7.76965C17.769 8.04068 17.4979 9.14234 17.8952 10.521M33.5653 13.0836C32.2432 15.5788 29.8452 20.0269 28.4557 22.3771M27.4731 23.8845C27.6319 23.7256 27.9862 23.1711 28.4557 22.3771M28.4557 22.3771C28.9017 23.8852 29.5212 27.418 28.5422 29.7801M27.2765 40.5888C27.1271 41.6352 26.409 42.3405 25.9009 42.2722M25.9009 42.2722C25.741 42.2507 25.6019 42.1526 25.5078 41.9645C24.1322 38.034 27.08 32.9245 28.4557 29.9766C28.4858 29.9121 28.5146 29.8466 28.5422 29.7801M25.9009 42.2722C26.0127 42.8474 26.2771 43.5335 26.687 43.5261M27.8661 41.9645C27.3917 43.1167 26.9976 43.5206 26.687 43.5261M26.687 43.5261C26.7201 43.8579 26.7941 44.1632 26.9193 44.3227M28.5422 29.7801C29.0374 30.3697 29.9886 31.9419 29.8313 33.514C29.6348 35.4792 29.6348 36.6584 29.6348 38.8201C28.1072 43.9905 27.2896 44.7948 26.9193 44.3227M26.9193 44.3227C26.6453 49.5633 26.2153 60.2803 26.687 61.2236C25.5865 61.0664 14.6991 59.717 9.39304 59.0619C10.0481 51.1355 10.8866 34.6539 9 32.1384C9 31.1558 12.5374 24.6705 13.127 24.2775C13.7165 23.8845 14.6991 18.3818 15.6817 17.9888C16.6644 17.5957 17.3573 10.7175 17.8952 10.521" stroke="#C2E2F0"/>
<path d="M29.2417 12.8791C29.3727 12.7481 29.5954 12.4075 29.4382 12.093" stroke="#957975" stroke-width="0.5"/>
<path d="M28.8486 9.93145C27.9053 10.0887 27.9315 10.9141 28.0626 11.3071C29.4382 12.6828 29.8313 12.2897 30.6174 11.3071C31.4035 10.3245 30.0278 9.73493 28.8486 9.93145Z" fill="#6F372A"/>
<path d="M27.6697 13.5135C28.3248 12.9239 29.7135 12.2164 30.0279 14.103" stroke="#957975" stroke-width="0.5"/>
<path d="M24.9183 9.14541C25.5471 8.83098 25.5734 8.49035 25.5078 8.35934C24.8657 7.39619 24.3086 7.28897 23.9357 7.44267C22.56 10.0634 24.1322 9.53846 24.9183 9.14541Z" fill="#282828"/>
<path d="M23.5426 7.76977C23.6263 7.64427 23.7607 7.51476 23.9357 7.44267M23.9357 7.44267C24.3086 7.28897 24.8657 7.39619 25.5078 8.35934C25.5734 8.49035 25.5471 8.83098 24.9183 9.14541C24.1322 9.53846 22.56 10.0634 23.9357 7.44267Z" stroke="#282828" stroke-width="0.5"/>
<path d="M31.6578 9.03512C31.196 8.73886 31.1767 8.41792 31.2249 8.29449C31.6964 7.38701 32.1055 7.28599 32.3793 7.4308C33.3895 9.90005 32.235 9.40545 31.6578 9.03512Z" fill="#282828"/>
<path d="M32.668 7.739C32.6065 7.62075 32.5078 7.49873 32.3793 7.4308M32.3793 7.4308C32.1055 7.28599 31.6964 7.38701 31.2249 8.29449C31.1767 8.41792 31.196 8.73886 31.6578 9.03512C32.235 9.40545 33.3895 9.90005 32.3793 7.4308Z" stroke="#282828" stroke-width="0.5"/>
<circle cx="24.7217" cy="7.96605" r="0.196522" fill="white"/>
<circle cx="32.1897" cy="7.96605" r="0.196522" fill="white"/>
<path d="M19.2192 33.907C20.0708 36.1997 21.5774 41.6106 20.7914 44.9122C20.5948 45.1087 20.3492 45.207 20.079 44.9122M19.2192 42.554C19.514 43.9296 19.8087 44.6174 20.079 44.9122M20.079 44.9122C19.7396 45.3174 19.1453 45.7326 18.6296 45.3952M17.8435 43.7331C18.0234 44.6927 18.3116 45.1871 18.6296 45.3952M18.6296 45.3952C18.04 46.5443 16.2714 46.7988 13.9131 38.6235" stroke="#C2E2F0"/>
<path d="M1.5 57.5C5 54.8333 13 52.5 21 62.5C3 62 10.5 54.5001 1.5 57.5Z" fill="white"/>
<path d="M39 55.5C35.5 52.8333 26 50.021 18 60.021C34.5 67.4998 30 52.5001 39 55.5Z" fill="white"/>
<path d="M1 57.4998C4.05109 55.3641 11.4868 53.1166 18.5524 59.4999M20.5 61.4998C19.8565 60.7547 19.206 60.0904 18.5524 59.4999M18.5524 59.4999C20.1869 57.4904 23.408 54.7702 27.5 53.5776C30.8747 52.5941 34.8419 52.6496 39 54.9999" stroke="#C2E2F0"/>
</svg>
