<svg width="78" height="22" viewBox="0 0 78 22" fill="none" xmlns="http://www.w3.org/2000/svg">
<path d="M4.63672 0.859375V0.503906V0.476562C5.63932 0.585938 6.14062 0.740885 6.14062 0.941406C5.97656 1.94401 5.65755 4.55078 5.18359 8.76172C5.07422 9.67318 4.91927 10.3659 4.71875 10.8398C4.26302 11.4596 3.98047 12.2435 3.87109 13.1914C3.9987 13.2826 4.73698 13.3828 6.08594 13.4922C6.52344 13.6562 6.86068 13.7383 7.09766 13.7383H7.39844L8.79297 13.6016H9.42188V13.5742C9.3125 12.4622 9.22135 10.3385 9.14844 7.20312C9.07552 6.80208 8.99349 6.57422 8.90234 6.51953C8.90234 6.42839 9.20312 6.33724 9.80469 6.24609C9.80469 6.19141 9.88672 6.15495 10.0508 6.13672C10.2878 6.13672 10.4336 6.22786 10.4883 6.41016L10.3242 6.84766C10.6523 7.3763 10.8164 9.07161 10.8164 11.9336C10.8164 12.9544 10.8893 13.4648 11.0352 13.4648H11.1172C11.8281 13.4648 12.3021 13.3919 12.5391 13.2461L12.7305 13.3555L12.7031 13.6016V13.8203L12.8125 14.0117L12.7852 14.2852C12.7852 14.832 12.5846 15.1693 12.1836 15.2969C11.7826 15.4062 11.582 15.5156 11.582 15.625H11.1172C11.0625 15.625 11.0352 15.6523 11.0352 15.707C11.181 16.9648 11.2539 18.1406 11.2539 19.2344C11.3451 19.6354 11.3906 20.0456 11.3906 20.4648L11.6094 20.5742V20.6289C11.6094 20.7565 11.0352 21.0026 9.88672 21.3672C9.74089 21.2396 9.54948 21.1758 9.3125 21.1758L9.25781 21.1211C9.45833 19.7721 9.55859 18.7878 9.55859 18.168C9.55859 16.3086 9.4401 15.3789 9.20312 15.3789L8.05469 15.3242H5.73047L4.91016 15.4062C2.28516 15.3698 0.972656 15.2422 0.972656 15.0234C0.917969 15.0234 0.890625 15.0052 0.890625 14.9688C1.47396 14.4219 1.76562 14.0117 1.76562 13.7383C2.03906 13.1003 2.17578 12.444 2.17578 11.7695C2.66797 10.4023 3.02344 8.50651 3.24219 6.08203C3.24219 5.77214 3.43359 4.48698 3.81641 2.22656C3.81641 1.91667 3.90755 1.48828 4.08984 0.941406H4.11719C4.22656 1.05078 4.32682 1.10547 4.41797 1.10547H4.55469L4.63672 0.996094V0.859375ZM4.44531 2.11719V2.17188C4.46354 2.40885 4.5 2.52734 4.55469 2.52734H4.60938V2.41797C4.60938 2.32682 4.68229 2.15365 4.82812 1.89844L4.91016 1.46094V1.43359L4.88281 1.35156H4.77344C4.55469 1.35156 4.44531 1.60677 4.44531 2.11719ZM5.04688 3.42969V3.51172L5.12891 3.59375C5.20182 3.53906 5.23828 3.45703 5.23828 3.34766V3.12891H5.21094C5.15625 3.12891 5.10156 3.22917 5.04688 3.42969ZM3.54297 6.16406V6.19141L3.65234 6.27344H3.67969L3.87109 6.24609V6.08203L3.76172 5.86328L3.95312 4.90625H3.92578C3.67057 5.45312 3.54297 5.8724 3.54297 6.16406ZM4.63672 8.625V8.78906H4.71875C4.82812 8.7526 4.88281 8.67057 4.88281 8.54297V8.35156H4.77344C4.68229 8.40625 4.63672 8.4974 4.63672 8.625ZM3.54297 10.9766V11.0039C3.76172 11.0039 3.87109 10.8581 3.87109 10.5664V10.4297L3.84375 10.4023V10.375C3.71615 10.375 3.61589 10.5755 3.54297 10.9766ZM9.83203 10.5391L9.75 10.4844V10.5117V10.7031H9.83203V10.5391ZM3.59766 11.1133H3.43359V11.25H3.54297L3.59766 11.168V11.1133ZM9.75 11.2773V11.6602C9.75 11.7878 9.77734 11.8516 9.83203 11.8516L9.88672 11.7695V11.5781C9.88672 11.4141 9.84115 11.3138 9.75 11.2773ZM3.05078 12.6172L2.96875 12.6719V12.7266H3.05078L3.13281 12.6445V12.6172H3.05078ZM2.64062 13.7383L2.72266 13.8477H2.80469L3.21484 13.7656V13.7383C3.17839 13.6471 3.09635 13.6016 2.96875 13.6016H2.85938C2.75 13.6016 2.67708 13.6471 2.64062 13.7383ZM12.2383 13.7383L11.4453 13.8203V13.875C11.5 13.9479 11.6914 14.0026 12.0195 14.0391C12.1654 14.0391 12.2747 13.9753 12.3477 13.8477V13.7656C12.3477 13.7474 12.3112 13.7383 12.2383 13.7383ZM4.08984 13.875L4.14453 13.957L4.77344 13.875V13.8477C4.77344 13.7747 4.6276 13.7383 4.33594 13.7383C4.17188 13.7565 4.08984 13.8021 4.08984 13.875ZM5.75781 14.6133C6.15885 14.7227 7.21615 14.7773 8.92969 14.7773C9.22135 14.7773 9.42188 14.6953 9.53125 14.5312C9.53125 14.513 9.3763 14.4857 9.06641 14.4492C6.86068 14.4674 5.75781 14.5221 5.75781 14.6133ZM11.0078 14.4492L10.9258 14.5039V14.5586L11.1172 14.7227L10.9805 14.9414V14.9688C10.9987 15.0234 11.0898 15.0508 11.2539 15.0508H11.5C11.7552 15.0508 12.0104 15.0234 12.2656 14.9688C12.2656 14.9323 12.0469 14.8503 11.6094 14.7227C11.5365 14.5404 11.3724 14.4492 11.1172 14.4492H11.0078ZM9.94141 16.0898V16.1992L10.0234 16.2539L10.0508 16.1992V15.8984C9.97786 15.9167 9.94141 15.9805 9.94141 16.0898ZM10.625 19.3711C10.6432 19.5534 10.6888 19.6445 10.7617 19.6445L10.8164 19.6172V19.2891C10.8164 19.1432 10.7891 19.0521 10.7344 19.0156C10.6615 19.0156 10.625 19.1341 10.625 19.3711ZM9.85938 20.3828V20.4375H9.88672C9.99609 20.3828 10.0508 20.2826 10.0508 20.1367C9.92318 20.1549 9.85938 20.237 9.85938 20.3828ZM17.0508 5.09766C19.293 5.09766 20.4141 5.1888 20.4141 5.37109C20.4141 5.46224 19.9857 5.50781 19.1289 5.50781L19.0742 5.58984C19.0742 5.6263 19.4661 5.65365 20.25 5.67188L20.6602 5.97266L20.332 6.57422L22.3828 10.0469L22.4922 10.1016C22.6927 9.95573 23.1667 9.33594 23.9141 8.24219C24.1875 7.98698 24.3424 7.78646 24.3789 7.64062C24.5247 7.64062 24.7526 7.40365 25.0625 6.92969C25.0625 6.5651 25.1992 6.25521 25.4727 6L25.5547 6.08203C25.5547 6.20964 25.4818 6.3737 25.3359 6.57422V6.60156H25.3906C25.7552 6.23698 25.9375 5.98177 25.9375 5.83594V5.64453L25.9102 5.61719C25.9102 5.45312 26.1198 5.35286 26.5391 5.31641H27.2773C29.8294 5.42578 31.1055 5.6263 31.1055 5.91797V6.4375L30.9961 6.57422H30.3125L31.0781 6.84766L31.1055 6.98438V7.3125L30.9961 7.39453H30.8047C30.0938 7.41276 29.7383 7.46745 29.7383 7.55859V7.58594C30.6315 7.60417 31.0781 7.65885 31.0781 7.75V7.80469L30.8594 7.99609L31.1055 8.13281V8.16016L31.0234 8.26953C30.1667 8.08724 28.8177 7.99609 26.9766 7.99609C26.1927 8.83464 25.4453 9.71875 24.7344 10.6484C23.9323 11.487 23.5312 11.9609 23.5312 12.0703C23.6589 12.4349 24.0326 13.1094 24.6523 14.0938C24.7799 14.4401 25.2539 15.2878 26.0742 16.6367C26.0742 16.8555 26.5299 17.1198 27.4414 17.4297C27.6055 17.5391 27.7878 17.5938 27.9883 17.5938L29.9297 17.4844L30.1484 17.8672V18.168C30.0755 18.2591 30.0391 18.3411 30.0391 18.4141L30.0664 18.6328C30.1029 18.7604 30.112 18.9336 30.0938 19.1523C30.0755 19.3529 30.0117 19.6172 29.9023 19.9453C29.7747 20.0365 29.6562 20.082 29.5469 20.082C28.3802 19.9544 27.0586 19.8906 25.582 19.8906H25.2266L24.8164 19.9727H24.5977L24.4336 19.9453V19.918C24.5794 19.7174 24.6523 19.5443 24.6523 19.3984L24.625 19.3711H24.543L24.2695 19.6172H24.1875C24.0234 19.5807 23.9414 19.1341 23.9414 18.2773C23.9414 18.0951 23.9505 17.8854 23.9688 17.6484C24.0234 17.5938 24.0508 17.5208 24.0508 17.4297C23.5039 15.8802 22.9479 14.7682 22.3828 14.0938H22.2734C22.0182 14.1667 21.7083 14.6406 21.3438 15.5156C21.0339 15.9714 20.724 16.5365 20.4141 17.2109C20.25 17.5938 20.0768 17.7852 19.8945 17.7852L20.1953 18.332L20.4688 18.6602L20.332 19.0156L20.4141 19.2891V19.3711L19.8672 20.0273V20.0547L19.8945 20.3008L19.8125 20.3555L18.9375 20.2461H18.6914C18.6003 20.2461 17.862 20.2279 16.4766 20.1914C15.4557 20.1549 14.9453 20.2188 14.9453 20.3828L14.8906 20.4375H14.7812L14.8086 19.9727L14.6719 19.6445C14.7995 19.6445 14.8724 19.2526 14.8906 18.4688C14.9635 18.3776 15.0547 18.3138 15.1641 18.2773C15.1641 18.0586 15.2461 17.9492 15.4102 17.9492L17.5977 17.5938C17.7253 17.5026 17.8346 17.3477 17.9258 17.1289C18.0352 17.1289 18.1992 16.901 18.418 16.4453C18.6914 16.1172 18.8372 15.9531 18.8555 15.9531C19.0195 15.9167 19.1016 15.8802 19.1016 15.8438V15.8164H18.8555L18.6094 15.7891V15.707C18.7734 15.5794 18.8555 15.4245 18.8555 15.2422C19.3659 14.4948 19.7122 14.0299 19.8945 13.8477L21.1523 12.0703C21.1523 12.0156 20.8971 11.6237 20.3867 10.8945C19.2747 9.01693 18.5729 7.98698 18.2812 7.80469C18.2812 7.76823 17.6615 7.70443 16.4219 7.61328C15.5833 7.54036 15.1641 7.44922 15.1641 7.33984C15.237 6.46484 15.2734 5.81771 15.2734 5.39844C15.474 5.19792 16.0664 5.09766 17.0508 5.09766ZM16.75 5.45312L16.6953 5.50781V5.58984H17.0234V5.5625L16.8867 5.45312H16.75ZM28.9453 6.35547H28.8633V6.46484L29.2734 6.51953H29.5469V6.4375L28.9453 6.35547ZM15.4648 6.4375L15.3828 6.57422C15.3828 6.70182 15.6562 6.79297 16.2031 6.84766H16.2852L16.6953 6.76562V6.68359C16.6953 6.62891 16.2852 6.54688 15.4648 6.4375ZM19.0742 6.4375L18.9648 6.57422C19.0013 6.62891 19.0742 6.65625 19.1836 6.65625L19.2383 6.57422L19.1289 6.4375H19.0742ZM19.8945 6.51953H19.7305V6.60156C19.8398 6.76562 19.9492 6.84766 20.0586 6.84766V6.68359L19.8945 6.51953ZM26.7578 6.875V6.98438H26.7852C26.931 6.98438 27.0677 6.89323 27.1953 6.71094V6.57422H27.0859C27.013 6.59245 26.9036 6.69271 26.7578 6.875ZM17.5703 6.84766L17.3516 6.79297L17.3242 6.84766L17.4336 6.95703H17.543L17.5703 6.84766ZM28.6172 7.03906L28.2617 7.06641V7.12109L28.6719 7.14844L29.2734 7.12109V7.03906H28.6172ZM19.0195 7.94141H18.9375V7.99609L19.0195 8.07812H19.0742V7.99609L19.0195 7.94141ZM25.2266 8.43359H25.2812C25.3906 8.36068 25.4544 8.28776 25.4727 8.21484L25.4453 8.16016C25.2995 8.2513 25.2266 8.34245 25.2266 8.43359ZM19.2383 8.24219H19.1289V8.26953C19.1289 8.41536 19.2201 8.55208 19.4023 8.67969H19.457L19.5117 8.625C19.5117 8.44271 19.4206 8.3151 19.2383 8.24219ZM23.1484 11.2773H23.1758C23.4128 11.0951 23.5312 10.9219 23.5312 10.7578C23.276 10.9583 23.1484 11.1315 23.1484 11.2773ZM20.4141 13.9297L20.4688 13.957H20.4961C21.0247 13.2826 21.2891 12.8815 21.2891 12.7539H21.2617C20.8789 13.082 20.5964 13.474 20.4141 13.9297ZM19.8945 16.9102L19.7852 17.0195V17.1016H19.8125L19.9219 16.9922V16.9102H19.8945ZM18.1172 17.293V17.375C18.263 17.375 18.3633 17.3112 18.418 17.1836L18.3906 17.1289C18.2266 17.1654 18.1354 17.2201 18.1172 17.293ZM27.0312 17.4844L26.1836 17.1836L26.1289 17.2109V17.4023C26.1289 17.4935 26.293 17.5573 26.6211 17.5938H26.9492L27.0312 17.4844ZM25.3359 18.0859L25.2266 18.168C25.2812 18.2591 25.3542 18.3411 25.4453 18.4141H25.6641V18.3867C25.6641 18.1862 25.5547 18.0859 25.3359 18.0859ZM29.1094 18.4688V18.4961H29.3555L29.5195 18.4688V18.4141C29.5195 18.3594 29.4831 18.332 29.4102 18.332C29.2096 18.3867 29.1094 18.4323 29.1094 18.4688ZM26.457 18.7422H27.3594L27.6875 18.6875V18.6602L27.4961 18.6055H26.9492C26.6211 18.6055 26.457 18.651 26.457 18.7422ZM15.3828 18.8242V18.8789C15.4375 19.0065 15.5378 19.0703 15.6836 19.0703L16.5312 18.9609V18.9062C16.5312 18.8151 16.2214 18.7422 15.6016 18.6875C15.4557 18.7422 15.3828 18.7878 15.3828 18.8242ZM25.9375 18.6875H25.8008V18.7695H25.9375V18.6875ZM19.6484 19.5078H19.457V19.6172H19.7305V19.5625L19.6484 19.5078ZM29.3828 19.6445H29.0547V19.7812C29.2734 19.8542 29.4831 19.8906 29.6836 19.8906L29.7109 19.8633V19.8086C29.7109 19.7539 29.6016 19.6992 29.3828 19.6445ZM38.7617 1.1875L39.3633 1.10547C39.9648 1.10547 40.9036 1.32422 42.1797 1.76172C42.8542 2.10807 43.1914 2.33594 43.1914 2.44531C43.8112 3.0651 44.1211 3.54818 44.1211 3.89453L44.5586 5.50781C44.3763 6.20052 43.9844 7.19401 43.3828 8.48828C42.6172 9.1263 41.487 9.88281 39.9922 10.7578C38.7708 11.888 37.9688 12.4714 37.5859 12.5078L36.4375 13.5469C34.7969 14.9688 33.9583 15.7161 33.9219 15.7891C33.7578 16.1354 33.612 16.582 33.4844 17.1289V17.1836C33.4844 17.3294 33.931 17.4297 34.8242 17.4844V17.5938L33.9492 17.6484V17.7578C35.5352 18.0312 36.6016 18.168 37.1484 18.168C37.112 18.1133 36.4557 17.931 35.1797 17.6211V17.5391H35.207C35.5534 17.5391 36.2826 17.6758 37.3945 17.9492L38.9258 18.0586L40.2383 17.9219H40.9219C42.125 17.9948 42.7812 18.1589 42.8906 18.4141L43.7109 18.6602L43.875 18.7695V18.8789L43.4375 18.9883V19.0156L43.5469 19.1523H43.6016L43.9844 19.0977V19.1523C43.9479 19.9544 43.8932 20.3555 43.8203 20.3555L40.6211 20.2461H39.9648C39.5091 20.2461 38.8893 20.2917 38.1055 20.3828C35.3529 20.0547 33.4388 19.8906 32.3633 19.8906C32.0352 19.8177 31.8711 19.6536 31.8711 19.3984C31.7435 19.0703 31.6797 18.6602 31.6797 18.168V17.3477C31.6797 15.7617 31.862 14.7591 32.2266 14.3398L32.9102 13.9023C33.0195 13.7018 33.0742 13.5378 33.0742 13.4102C34.2409 12.4622 34.8607 11.9883 34.9336 11.9883C35.4258 11.806 36.1003 11.3411 36.957 10.5938H37.0938C36.8568 10.8854 36.6654 11.0312 36.5195 11.0312V11.1406H36.6836C36.9206 11.013 37.1576 10.8125 37.3945 10.5391V10.4844H37.2852V10.4023L39.2539 9.17188C40.2565 8.47917 41.0495 7.84115 41.6328 7.25781C42.0703 6.76562 42.3529 6.11849 42.4805 5.31641C42.4805 4.60547 42.1797 4.06771 41.5781 3.70312C41.3776 3.63021 40.5573 3.52995 39.1172 3.40234C39.1172 3.38411 38.9714 3.36589 38.6797 3.34766C38.0599 3.34766 37.4766 3.71224 36.9297 4.44141C36.7839 4.76953 36.7109 5.01562 36.7109 5.17969V5.37109H36.7656C36.7656 5.53516 36.4648 5.65365 35.8633 5.72656L34.7148 5.89062V5.91797L34.5508 5.89062H34.332L33.6484 5.97266L33.5938 5.86328C33.849 4.60547 34.1315 3.82161 34.4414 3.51172C35.4805 2.5638 36.2096 2.07161 36.6289 2.03516C36.9388 1.76172 37.6497 1.47917 38.7617 1.1875ZM39.8555 1.37891H39.582V1.43359L39.7461 1.65234H39.9922L40.1016 1.51562V1.48828C40.0833 1.41536 40.0013 1.37891 39.8555 1.37891ZM38.1055 1.78906V1.84375H38.1328C38.8802 1.84375 39.2539 1.76172 39.2539 1.59766L39.1172 1.48828H38.7891C38.3333 1.59766 38.1055 1.69792 38.1055 1.78906ZM41.5234 1.67969H41.4961V1.73438C41.4961 1.84375 41.7331 1.95312 42.207 2.0625V2.03516C42.207 1.92578 41.9792 1.80729 41.5234 1.67969ZM37.0938 2.19922V2.28125H37.4492L37.5586 2.17188V2.14453L37.3945 2.11719C37.194 2.15365 37.0938 2.18099 37.0938 2.19922ZM37.4766 3.23828L37.3945 3.34766V3.40234H37.5586L37.6406 3.29297V3.23828H37.4766ZM42.2344 3.29297L42.1797 3.34766V3.40234C42.2526 3.52995 42.3529 3.59375 42.4805 3.59375H42.5078C42.5625 3.59375 42.5898 3.55729 42.5898 3.48438C42.5898 3.39323 42.4896 3.32943 42.2891 3.29297H42.2344ZM42.6445 3.70312V3.75781C42.9727 3.79427 43.1367 3.9401 43.1367 4.19531L43.3008 4.38672V4.19531C43.3008 3.79427 43.1732 3.59375 42.918 3.59375C42.7539 3.59375 42.6628 3.63021 42.6445 3.70312ZM36.6016 4.25L36.6562 4.30469H36.6836C36.957 4.15885 37.0938 4.01302 37.0938 3.86719V3.83984H36.9844C36.9115 3.83984 36.7839 3.97656 36.6016 4.25ZM35.8359 4.98828H35.6992V5.09766L35.8086 5.125H35.8359V4.98828ZM43.8203 5.91797L43.7109 6.05469V6.13672H43.7656L43.8477 6.05469V5.91797H43.8203ZM43.1914 7.01172H43.0547V7.14844C43.1823 7.14844 43.2461 7.20312 43.2461 7.3125H43.3281V7.14844L43.1914 7.01172ZM42.6992 7.99609L42.7266 8.05078V8.07812C42.8359 8.02344 42.9453 7.91406 43.0547 7.75V7.69531H43C42.8724 7.76823 42.7721 7.86849 42.6992 7.99609ZM41.9609 8.54297H42.0156L42.3164 8.48828C42.3164 8.34245 42.2526 8.26953 42.125 8.26953C42.0156 8.28776 41.9609 8.37891 41.9609 8.54297ZM41.9062 9.0625V9.11719C42.2526 9.08073 42.5716 8.88932 42.8633 8.54297L42.8086 8.48828C42.3893 8.70703 42.0885 8.89844 41.9062 9.0625ZM40.6758 9.58203L40.5938 9.60938V9.71875H40.6484L40.7305 9.63672L40.6758 9.60938V9.58203ZM36.4102 12.8633V12.9453H36.4922C36.6016 12.9453 36.8477 12.7812 37.2305 12.4531C37.3216 12.4531 37.4128 12.3438 37.5039 12.125L37.5586 12.0977V12.0156H37.4766C37.2578 12.0156 36.9023 12.2982 36.4102 12.8633ZM34.6875 12.7266V12.8086H34.7148C34.9518 12.8086 35.1432 12.6263 35.2891 12.2617H35.1523C34.8424 12.5169 34.6875 12.6719 34.6875 12.7266ZM33.7852 13.2188H33.4297L33.457 13.4922C33.2018 13.7474 33.0742 13.9115 33.0742 13.9844H33.1836C33.5117 13.8021 33.7396 13.5742 33.8672 13.3008V13.2461L33.7852 13.2188ZM35.8359 13.4922L35.6992 13.5742V13.6562H35.8086L35.918 13.5469V13.4922H35.8359ZM33.6484 15.0508V15.1602H33.7305C33.931 15.0143 34.0312 14.8685 34.0312 14.7227V14.6953H33.9492C33.7487 14.8047 33.6484 14.9232 33.6484 15.0508ZM32.9102 17.9766L32.8281 18.0586V18.168L32.9102 18.2773L32.9648 18.168V18.0586L32.9102 17.9766ZM33.6484 18.0586L33.5391 18.1406L33.5938 18.168H33.9492V18.0859L33.7578 18.0586H33.6484ZM41.0859 18.2773L40.8945 18.3047V18.332L41.0039 18.4414H41.3594L41.4414 18.3867V18.3047L41.0859 18.2773ZM32.1719 18.8242L32.0625 18.8789V18.9062L32.1445 18.9883H32.1719L32.2539 18.9062L32.1719 18.8242ZM32.7461 19.3984V19.4258L32.9648 19.4531C33.2383 19.4167 33.375 19.3802 33.375 19.3438L33.3477 19.2891H32.9648C32.819 19.3255 32.7461 19.362 32.7461 19.3984ZM41.6055 19.6992H41.9062C42.1615 19.6628 42.2891 19.6172 42.2891 19.5625L42.207 19.4531H42.043C41.9518 19.4531 41.806 19.5352 41.6055 19.6992ZM42.5898 19.8633L42.6992 19.918H43C43.2734 19.918 43.4102 19.8724 43.4102 19.7812V19.7539C43.4102 19.6992 43.3737 19.6719 43.3008 19.6719C42.8633 19.6901 42.6263 19.7539 42.5898 19.8633ZM55.25 13.9844L55.3594 14.0117C55.4688 14.0482 55.4596 14.7773 55.332 16.1992H55.3594C55.3411 16.3815 54.4023 16.3815 52.543 16.1992C50.4648 16.3268 49.1068 16.3359 48.4688 16.2266V16.1992C48.487 16.0352 49.2799 15.9714 50.8477 16.0078C51.4857 15.9896 51.8229 15.9349 51.8594 15.8438L51.8867 15.8164L51.6133 15.7617C49.4622 15.5794 48.3503 15.707 48.2773 16.1445L48.0586 16.1992C47.4388 16.1263 47.2292 15.4427 47.4297 14.1484C47.4844 13.8203 48.2227 13.6836 49.6445 13.7383C49.6445 13.7018 49.7448 13.7018 49.9453 13.7383L50.4648 13.9297L50.7109 13.957L55.25 13.9844ZM54.6211 14.3398L54.457 14.3672L54.4297 14.4492L54.6758 14.4766H54.8398L54.8672 14.3945L54.6211 14.3398ZM53.1992 14.4766L53.5547 14.5312C53.7188 14.5677 53.8281 14.5404 53.8828 14.4492V14.4219H53.8008C53.418 14.4036 53.2174 14.4219 53.1992 14.4766ZM51.7227 14.4766V14.5586H51.7773C51.9414 14.5951 52.0417 14.5677 52.0781 14.4766V14.4492H51.9688C51.8411 14.431 51.7591 14.4401 51.7227 14.4766ZM53.418 15.0781L53.9922 15.1875C54.5938 15.2422 54.931 15.2057 55.0039 15.0781V15.0234L54.8672 14.9688C53.9375 14.9505 53.4544 14.987 53.418 15.0781ZM50.4102 14.5312L50.3828 14.6406H50.4375C50.8385 14.6953 51.1393 14.6589 51.3398 14.5312V14.5039L51.2852 14.4766C51.1211 14.4583 50.8294 14.4766 50.4102 14.5312ZM47.9766 14.1484L47.8945 14.2305L47.8125 14.5586L47.8945 14.6406V14.668C47.9492 14.668 48.0221 14.5586 48.1133 14.3398V14.2305L48.0859 14.1484H47.9766ZM48.8242 14.2578L48.6875 14.3672L48.6602 14.3945L48.8242 14.4219L48.8789 14.3672L48.9062 14.2852L48.8242 14.2578ZM52.8984 15.0234H52.8164V15.0781L52.9805 15.1328L52.8984 15.0234ZM52.4336 15.7891V15.8164H52.4609C54.0651 16.0169 54.8854 16.0716 54.9219 15.9805V15.9531C54.9219 15.8984 54.8763 15.8255 54.7852 15.7344H54.7578C54.1927 15.6615 53.418 15.6797 52.4336 15.7891ZM47.8398 14.8867L47.7578 14.9414V15.0234H47.8125L47.8945 14.9688V14.9141L47.8398 14.8867ZM55.4688 10.5938L55.5781 10.6211C55.724 10.6393 55.6419 11.3503 55.332 12.7539L55.3594 12.7812C55.3047 12.9635 54.375 12.8906 52.5703 12.5625C50.4922 12.4531 49.125 12.3255 48.4688 12.1797L48.4961 12.0977C48.5508 11.9518 49.3346 11.9792 50.8477 12.1797C51.5221 12.2161 51.8776 12.1888 51.9141 12.0977V12.0703L51.668 12.0156C49.5352 11.5964 48.4141 11.6055 48.3047 12.043L48.0859 12.0977C47.4844 11.9518 47.3477 11.2591 47.6758 10.0195C47.7487 9.69141 48.4961 9.61849 49.918 9.80078C49.9362 9.78255 50.0365 9.78255 50.2188 9.80078L50.7109 10.0469L50.9297 10.1016L55.4688 10.5938ZM54.7852 10.8945H54.6211L54.5938 10.9492L54.8398 11.0312H55.0312V10.9766L54.7852 10.8945ZM53.3906 10.8945L53.7188 10.9766C53.901 11.013 54.0104 10.9857 54.0469 10.8945L53.9922 10.8672C53.5911 10.8125 53.3906 10.8216 53.3906 10.8945ZM51.9141 10.7578V10.8125C52.0964 10.8672 52.2148 10.8581 52.2695 10.7852L52.2969 10.7305L52.1328 10.7031C52.0234 10.6849 51.9505 10.7031 51.9141 10.7578ZM53.5547 11.4961L54.1016 11.6328C54.6667 11.7604 54.9948 11.7695 55.0859 11.6602L55.1133 11.5781L55.0039 11.5234C54.0742 11.4141 53.5911 11.4049 53.5547 11.4961ZM50.6016 10.6484L50.5742 10.7578L50.6016 10.7852C50.9297 10.8581 51.2396 10.849 51.5312 10.7578V10.7305L51.4766 10.7031C51.2578 10.6484 50.9661 10.6302 50.6016 10.6484ZM48.2227 10.0469L48.1133 10.1016L48.0039 10.457L48.0859 10.5391C48.1406 10.5391 48.2227 10.4388 48.332 10.2383L48.3594 10.1289L48.2773 10.0469H48.2227ZM49.043 10.2383L48.8789 10.293V10.3477L49.043 10.4023L49.125 10.3203V10.293L49.043 10.2383ZM53.0352 11.3867H52.9805L52.9531 11.4414L53.0898 11.4961L53.0352 11.3867ZM52.5156 12.0977L52.4883 12.1523H52.5156C54.1016 12.5169 54.9128 12.6445 54.9492 12.5352L54.9766 12.5078C54.9766 12.4349 54.9219 12.3529 54.8125 12.2617H54.7852C54.2201 12.1341 53.4635 12.0794 52.5156 12.0977ZM48.0039 10.7852H47.8945V10.8945H47.9766L48.0586 10.8398L48.0859 10.7852H48.0039ZM72.2852 0.667969H72.5039C72.7044 0.667969 73.0326 0.813802 73.4883 1.10547C74.2721 1.39714 74.6641 1.71615 74.6641 2.0625C75.2474 3.32031 75.5391 4.25911 75.5391 4.87891C75.5026 5.04297 75.4388 5.53516 75.3477 6.35547C75.0378 7.17578 74.6458 7.88672 74.1719 8.48828C75.7031 9.76432 76.5599 10.7305 76.7422 11.3867C76.7422 11.4961 76.9792 11.9245 77.4531 12.6719L77.3711 14.4766L77.3438 14.5859H77.2617V14.3125C77.2617 14.1302 77.2344 14.0391 77.1797 14.0391H77.0977C76.9883 14.0391 76.9062 14.2578 76.8516 14.6953C76.9062 14.9323 76.9609 15.0508 77.0156 15.0508H77.0703C77.1797 15.0508 77.2435 14.9323 77.2617 14.6953H77.3438C77.3438 15.2786 77.1797 15.8164 76.8516 16.3086L76.7422 16.1172H76.6328L76.5234 16.1992V16.3359L76.6602 16.4727L76.6328 16.6641L76.7422 16.9375C76.7422 17.0833 76.5508 17.2839 76.168 17.5391V17.4844L76.25 17.375V17.3477L76.168 17.2656H76.0039C75.694 17.4297 75.457 17.7487 75.293 18.2227L75.4297 18.2773L76.0586 17.7852V17.8125C75.6393 18.4505 75.2109 18.8333 74.7734 18.9609C74.5182 19.1979 74.1536 19.4258 73.6797 19.6445C73.3516 19.918 72.6953 20.1641 71.7109 20.3828C71.7109 20.4193 71.6016 20.4375 71.3828 20.4375C70.9635 20.4375 70.2161 20.2188 69.1406 19.7812C68.4844 19.7812 67.6641 18.6875 66.6797 16.5C66.625 16.5 66.5521 16.181 66.4609 15.543V15.0508C66.4609 13.9388 66.6432 13.0182 67.0078 12.2891C67.2083 11.3594 67.4453 10.8945 67.7188 10.8945C67.7188 10.694 67.9648 10.3021 68.457 9.71875L68.7578 9.36328V9.28125C68.5755 9.28125 67.9922 8.69792 67.0078 7.53125C66.4609 5.94531 66.1875 4.9974 66.1875 4.6875C66.3333 4.57812 66.4062 4.40495 66.4062 4.16797L66.5977 4.25H66.625C66.7161 4.21354 66.7617 4.13151 66.7617 4.00391V3.83984L66.6523 3.70312H66.5977L66.5156 3.92188L66.4062 3.89453V3.83984C66.5885 3.22005 66.944 2.74609 67.4727 2.41797C67.6549 1.90755 68.0378 1.54297 68.6211 1.32422C69.7148 0.886719 70.9362 0.667969 72.2852 0.667969ZM67.7188 2.80078L67.7734 2.82812H67.8008C67.9466 2.82812 68.4935 2.36328 69.4414 1.43359C69.5143 1.43359 69.5508 1.39714 69.5508 1.32422H69.4961C69.1315 1.32422 68.6302 1.625 67.9922 2.22656C67.8646 2.39062 67.7734 2.58203 67.7188 2.80078ZM71.2188 1.65234V1.73438L72.8047 2.17188V1.67969H72.8867V1.65234L73.4883 1.84375H73.5703C73.5703 1.60677 73.1419 1.48828 72.2852 1.48828C72.1393 1.45182 71.9479 1.43359 71.7109 1.43359C71.5286 1.43359 71.3646 1.50651 71.2188 1.65234ZM69.0039 2.39062H69.0859C69.5234 2.17188 69.7422 1.9987 69.7422 1.87109H69.6328C69.3411 1.98047 69.1315 2.15365 69.0039 2.39062ZM68.457 5.23438V5.37109C68.4935 6.04557 69.0677 7.04818 70.1797 8.37891L70.5352 8.625H70.5625L70.8906 8.54297H71.1367C71.7201 8.54297 72.4128 8.32422 73.2148 7.88672C73.5065 7.72266 73.8255 7.28516 74.1719 6.57422C74.2995 6.30078 74.4362 6.16406 74.582 6.16406L74.5273 5.89062L74.6914 5.28906V5.125C74.6914 5.10677 74.6185 5.07943 74.4727 5.04297L73.7891 3.23828C73.6797 3.03776 73.3971 2.90104 72.9414 2.82812C72.7591 2.60938 72.0755 2.33594 70.8906 2.00781C70.5078 2.00781 69.7695 2.47266 68.6758 3.40234C68.5299 3.78516 68.457 4.39583 68.457 5.23438ZM73.8164 2.11719H73.5703V2.14453C73.625 2.27214 73.7253 2.33594 73.8711 2.33594H73.8984L73.9805 2.28125C73.9258 2.20833 73.8711 2.15365 73.8164 2.11719ZM74.3359 2.60938V2.66406C74.4635 2.99219 74.6003 3.15625 74.7461 3.15625V3.01953C74.6367 2.74609 74.5 2.60938 74.3359 2.60938ZM66.7344 3.40234V3.56641H66.7617C67.0169 3.47526 67.1445 3.29297 67.1445 3.01953V2.88281H67.0352C66.944 2.88281 66.8438 3.05599 66.7344 3.40234ZM66.8984 4.71484C66.8984 5.0612 66.9258 5.23438 66.9805 5.23438H67.0078C67.1901 5.23438 67.3086 5.11589 67.3633 4.87891V4.52344C67.3633 3.9401 67.4727 3.51172 67.6914 3.23828V3.01953H67.4453C67.3359 3.01953 67.2539 3.30208 67.1992 3.86719C67.1263 3.86719 67.026 4.14974 66.8984 4.71484ZM74.5547 3.40234H74.418V3.51172L74.3359 3.8125L74.582 4.25C74.582 4.41406 74.6185 4.53255 74.6914 4.60547L74.6641 4.79688V4.82422H74.6914L74.7734 4.71484V4.25C74.7734 3.6849 74.7005 3.40234 74.5547 3.40234ZM67.9922 4.76953L68.0742 4.82422C68.1289 4.73307 68.1562 4.64193 68.1562 4.55078H68.1289C68.0378 4.58724 67.9922 4.66016 67.9922 4.76953ZM67.7188 5.45312C67.8281 6.3099 68.1016 7.01172 68.5391 7.55859C69.0859 8.14193 69.4505 8.47005 69.6328 8.54297H69.7422C69.7422 8.50651 69.4779 8.11458 68.9492 7.36719C68.3841 6.36458 68.0833 5.69922 68.0469 5.37109L67.8828 5.23438H67.8555C67.7643 5.27083 67.7188 5.34375 67.7188 5.45312ZM75.1562 5.31641L75.0469 5.23438C74.9193 5.59896 74.8555 5.89062 74.8555 6.10938L74.8828 6.13672H74.9648C75.0924 6.11849 75.1562 6 75.1562 5.78125V5.31641ZM66.7891 5.72656C66.8802 6.29167 67.1445 6.94792 67.582 7.69531C67.6367 7.69531 67.8008 7.90495 68.0742 8.32422C68.457 8.77995 68.8125 9.00781 69.1406 9.00781H69.332V8.95312C69.332 8.89844 68.8854 8.47917 67.9922 7.69531C67.6276 7.27604 67.4453 6.99349 67.4453 6.84766C67.3177 6.68359 67.1992 6.22786 67.0898 5.48047L67.0352 5.45312H66.8984C66.8255 5.47135 66.7891 5.5625 66.7891 5.72656ZM73.4062 8.24219V8.26953H73.4609C73.7526 8.26953 74.1354 7.89583 74.6094 7.14844L74.6914 6.79297V6.60156L74.6094 6.46484C74.4818 6.5013 74.2721 6.86589 73.9805 7.55859C73.8529 7.75911 73.6615 7.98698 73.4062 8.24219ZM72.2031 8.67969L72.2578 8.73438H72.3945C72.5039 8.73438 72.6406 8.67969 72.8047 8.57031V8.48828C72.5495 8.48828 72.349 8.55208 72.2031 8.67969ZM73.7891 8.76172L73.6797 8.81641C73.9167 8.94401 74.1354 9.00781 74.3359 9.00781L74.3633 8.95312V8.84375L74.2812 8.76172H73.7891ZM73.2969 9.11719L72.9688 9.22656V9.28125C73.0052 9.35417 73.4062 9.52734 74.1719 9.80078C74.5365 10.0742 74.7643 10.2109 74.8555 10.2109V10.0469C74.418 9.42708 73.8984 9.11719 73.2969 9.11719ZM69.7695 9.22656H69.6055V9.30859C69.6055 9.38151 69.7513 9.42708 70.043 9.44531H70.2891L70.3438 9.36328C70.3438 9.27214 70.1523 9.22656 69.7695 9.22656ZM71.2188 9.22656H70.8633V9.30859L70.918 9.36328H71.0273C71.319 9.36328 71.5833 9.33594 71.8203 9.28125V9.22656H71.2188ZM67.4727 11.5781H67.582C67.7096 11.5781 68.2383 11.0951 69.168 10.1289C69.2591 10.1289 69.3867 10.0195 69.5508 9.80078V9.77344C69.5143 9.66406 69.4141 9.60938 69.25 9.60938H69.1406C68.849 9.60938 68.4479 9.97396 67.9375 10.7031C67.9193 10.7031 67.8646 10.8307 67.7734 11.0859C67.5729 11.2865 67.4727 11.4505 67.4727 11.5781ZM68.6758 12.125L68.7305 12.1797V12.207L68.8945 12.1797L68.9492 12.2617C68.4206 13.3737 68.1562 14.0664 68.1562 14.3398V14.4219C68.1562 16.2812 68.4661 17.4388 69.0859 17.8945C69.8333 18.6055 70.4622 18.9609 70.9727 18.9609H71.2188L71.3008 18.8789C71.2826 18.8424 70.9453 18.6784 70.2891 18.3867C69.724 18.0404 69.3503 17.7578 69.168 17.5391V17.4844H69.2227L70.6445 18.3047C71.7747 18.6875 72.4948 18.8789 72.8047 18.8789H72.8867C73.0326 18.8789 73.3333 18.6602 73.7891 18.2227V18.3867C74.2995 18.2044 74.7188 17.8034 75.0469 17.1836L75.1562 16.8008V16.7461L74.7734 16.9375V16.9102C75.2109 16.2904 75.4297 15.862 75.4297 15.625C75.4297 14.8776 75.3385 14.2214 75.1562 13.6562V13.3555C75.1562 13.1367 75.0833 12.6354 74.9375 11.8516V11.8242L75.0195 11.7695L75.2656 11.9336V11.8789V11.7695C75.2656 11.569 75.1927 11.4232 75.0469 11.332H74.9648V11.6055H74.8828C74.8099 11.5872 74.6914 11.3229 74.5273 10.8125C73.9805 10.0651 73.224 9.69141 72.2578 9.69141C70.3802 10.0195 69.4414 10.4297 69.4414 10.9219C69.4414 11.487 69.1862 11.888 68.6758 12.125ZM67.9375 11.9883C68.0651 11.9883 68.1927 11.8971 68.3203 11.7148V11.6602H68.2656C68.0651 11.6602 67.9557 11.7695 67.9375 11.9883ZM67.3633 13.5742C67.3633 13.6654 67.4727 13.7292 67.6914 13.7656C67.8737 13.7656 68.0195 13.5833 68.1289 13.2188V13.0547C68.1289 13 68.0195 12.9727 67.8008 12.9727L67.7734 12.9453V12.8906C67.7734 12.8359 67.8646 12.8086 68.0469 12.8086C68.1198 12.8086 68.2109 12.6901 68.3203 12.4531V12.3984L68.2656 12.3438C68.138 12.3438 68.0104 12.3802 67.8828 12.4531V12.3984V12.3711V12.3438V12.1797H67.6914C67.4727 12.1797 67.3633 12.6445 67.3633 13.5742ZM76.1406 12.5352C76.1771 12.9727 76.2318 13.2005 76.3047 13.2188C76.3594 13.2188 76.3958 13.1094 76.4141 12.8906C76.3594 12.599 76.2956 12.4531 76.2227 12.4531C76.168 12.4531 76.1406 12.4805 76.1406 12.5352ZM75.7305 13.8477V13.957L75.7852 14.2578L75.7031 14.3672V14.5039C75.7031 14.6497 75.7487 14.7227 75.8398 14.7227H75.9766C76.1042 14.668 76.168 14.5768 76.168 14.4492V14.3398C76.0586 13.6836 75.9674 13.3555 75.8945 13.3555H75.8398C75.7669 13.3555 75.7305 13.5195 75.7305 13.8477ZM66.7891 15.8984C67.2448 16.8828 67.582 17.5026 67.8008 17.7578H67.8555V17.7031L67.2539 15.1328C67.181 14.8594 67.1445 14.5586 67.1445 14.2305L67.1992 13.6836L67.1719 13.6562H67.0352C66.9258 13.6562 66.8438 14.4036 66.7891 15.8984ZM76.8516 15.5156L76.9062 15.543H76.9336C77.0247 15.5065 77.0703 15.4336 77.0703 15.3242H77.0156C76.9609 15.3242 76.9062 15.388 76.8516 15.5156ZM76.2227 16.6094L76.1133 16.6914V16.8555H76.1406L76.25 16.7461V16.6094H76.2227ZM74.2539 17.5391L74.3633 17.4023H74.418V17.4844L74.2812 17.6211H74.2539V17.5391ZM74.0352 17.8945V17.8125H74.1445V17.8945H74.0352ZM68.4023 18.0859H68.3203V18.4688C68.3203 18.7969 68.5755 19.0247 69.0859 19.1523H69.1406L69.2227 19.0977C69.0768 18.7695 68.8034 18.4323 68.4023 18.0859ZM71.8203 18.9883L71.5742 19.0156V19.0977L71.6016 19.1523H71.9023C72.0117 19.1523 72.0755 19.125 72.0938 19.0703V19.0156L71.9297 18.9883H71.8203ZM69.6875 19.2891L69.6055 19.3438V19.3984C69.8789 19.7448 70.4258 19.918 71.2461 19.918C71.4831 19.8997 71.6016 19.8724 71.6016 19.8359V19.7539C71.3828 19.7539 70.7812 19.599 69.7969 19.2891H69.6875ZM72.0117 19.6992V19.7812H72.0391C72.2943 19.7812 72.5768 19.6628 72.8867 19.4258V19.3711H72.8594C72.2943 19.4987 72.0117 19.6081 72.0117 19.6992Z" fill="white"/>
</svg>
