<svg width="123" height="22" viewBox="0 0 123 22" fill="none" xmlns="http://www.w3.org/2000/svg">
<path d="M3.83203 0.859375V0.503906V0.476562C4.83464 0.585938 5.33594 0.740885 5.33594 0.941406C5.17188 1.94401 4.85286 4.55078 4.37891 8.76172C4.26953 9.67318 4.11458 10.3659 3.91406 10.8398C3.45833 11.4596 3.17578 12.2435 3.06641 13.1914C3.19401 13.2826 3.93229 13.3828 5.28125 13.4922C5.71875 13.6562 6.05599 13.7383 6.29297 13.7383H6.59375L7.98828 13.6016H8.61719V13.5742C8.50781 12.4622 8.41667 10.3385 8.34375 7.20312C8.27083 6.80208 8.1888 6.57422 8.09766 6.51953C8.09766 6.42839 8.39844 6.33724 9 6.24609C9 6.19141 9.08203 6.15495 9.24609 6.13672C9.48307 6.13672 9.62891 6.22786 9.68359 6.41016L9.51953 6.84766C9.84766 7.3763 10.0117 9.07161 10.0117 11.9336C10.0117 12.9544 10.0846 13.4648 10.2305 13.4648H10.3125C11.0234 13.4648 11.4974 13.3919 11.7344 13.2461L11.9258 13.3555L11.8984 13.6016V13.8203L12.0078 14.0117L11.9805 14.2852C11.9805 14.832 11.7799 15.1693 11.3789 15.2969C10.9779 15.4062 10.7773 15.5156 10.7773 15.625H10.3125C10.2578 15.625 10.2305 15.6523 10.2305 15.707C10.3763 16.9648 10.4492 18.1406 10.4492 19.2344C10.5404 19.6354 10.5859 20.0456 10.5859 20.4648L10.8047 20.5742V20.6289C10.8047 20.7565 10.2305 21.0026 9.08203 21.3672C8.9362 21.2396 8.74479 21.1758 8.50781 21.1758L8.45312 21.1211C8.65365 19.7721 8.75391 18.7878 8.75391 18.168C8.75391 16.3086 8.63542 15.3789 8.39844 15.3789L7.25 15.3242H4.92578L4.10547 15.4062C1.48047 15.3698 0.167969 15.2422 0.167969 15.0234C0.113281 15.0234 0.0859375 15.0052 0.0859375 14.9688C0.669271 14.4219 0.960938 14.0117 0.960938 13.7383C1.23438 13.1003 1.37109 12.444 1.37109 11.7695C1.86328 10.4023 2.21875 8.50651 2.4375 6.08203C2.4375 5.77214 2.62891 4.48698 3.01172 2.22656C3.01172 1.91667 3.10286 1.48828 3.28516 0.941406H3.3125C3.42188 1.05078 3.52214 1.10547 3.61328 1.10547H3.75L3.83203 0.996094V0.859375ZM3.64062 2.11719V2.17188C3.65885 2.40885 3.69531 2.52734 3.75 2.52734H3.80469V2.41797C3.80469 2.32682 3.8776 2.15365 4.02344 1.89844L4.10547 1.46094V1.43359L4.07812 1.35156H3.96875C3.75 1.35156 3.64062 1.60677 3.64062 2.11719ZM4.24219 3.42969V3.51172L4.32422 3.59375C4.39714 3.53906 4.43359 3.45703 4.43359 3.34766V3.12891H4.40625C4.35156 3.12891 4.29688 3.22917 4.24219 3.42969ZM2.73828 6.16406V6.19141L2.84766 6.27344H2.875L3.06641 6.24609V6.08203L2.95703 5.86328L3.14844 4.90625H3.12109C2.86589 5.45312 2.73828 5.8724 2.73828 6.16406ZM3.83203 8.625V8.78906H3.91406C4.02344 8.7526 4.07812 8.67057 4.07812 8.54297V8.35156H3.96875C3.8776 8.40625 3.83203 8.4974 3.83203 8.625ZM2.73828 10.9766V11.0039C2.95703 11.0039 3.06641 10.8581 3.06641 10.5664V10.4297L3.03906 10.4023V10.375C2.91146 10.375 2.8112 10.5755 2.73828 10.9766ZM9.02734 10.5391L8.94531 10.4844V10.5117V10.7031H9.02734V10.5391ZM2.79297 11.1133H2.62891V11.25H2.73828L2.79297 11.168V11.1133ZM8.94531 11.2773V11.6602C8.94531 11.7878 8.97266 11.8516 9.02734 11.8516L9.08203 11.7695V11.5781C9.08203 11.4141 9.03646 11.3138 8.94531 11.2773ZM2.24609 12.6172L2.16406 12.6719V12.7266H2.24609L2.32812 12.6445V12.6172H2.24609ZM1.83594 13.7383L1.91797 13.8477H2L2.41016 13.7656V13.7383C2.3737 13.6471 2.29167 13.6016 2.16406 13.6016H2.05469C1.94531 13.6016 1.8724 13.6471 1.83594 13.7383ZM11.4336 13.7383L10.6406 13.8203V13.875C10.6953 13.9479 10.8867 14.0026 11.2148 14.0391C11.3607 14.0391 11.4701 13.9753 11.543 13.8477V13.7656C11.543 13.7474 11.5065 13.7383 11.4336 13.7383ZM3.28516 13.875L3.33984 13.957L3.96875 13.875V13.8477C3.96875 13.7747 3.82292 13.7383 3.53125 13.7383C3.36719 13.7565 3.28516 13.8021 3.28516 13.875ZM4.95312 14.6133C5.35417 14.7227 6.41146 14.7773 8.125 14.7773C8.41667 14.7773 8.61719 14.6953 8.72656 14.5312C8.72656 14.513 8.57161 14.4857 8.26172 14.4492C6.05599 14.4674 4.95312 14.5221 4.95312 14.6133ZM10.2031 14.4492L10.1211 14.5039V14.5586L10.3125 14.7227L10.1758 14.9414V14.9688C10.194 15.0234 10.2852 15.0508 10.4492 15.0508H10.6953C10.9505 15.0508 11.2057 15.0234 11.4609 14.9688C11.4609 14.9323 11.2422 14.8503 10.8047 14.7227C10.7318 14.5404 10.5677 14.4492 10.3125 14.4492H10.2031ZM9.13672 16.0898V16.1992L9.21875 16.2539L9.24609 16.1992V15.8984C9.17318 15.9167 9.13672 15.9805 9.13672 16.0898ZM9.82031 19.3711C9.83854 19.5534 9.88411 19.6445 9.95703 19.6445L10.0117 19.6172V19.2891C10.0117 19.1432 9.98438 19.0521 9.92969 19.0156C9.85677 19.0156 9.82031 19.1341 9.82031 19.3711ZM9.05469 20.3828V20.4375H9.08203C9.19141 20.3828 9.24609 20.2826 9.24609 20.1367C9.11849 20.1549 9.05469 20.237 9.05469 20.3828ZM16.2461 5.09766C18.4883 5.09766 19.6094 5.1888 19.6094 5.37109C19.6094 5.46224 19.181 5.50781 18.3242 5.50781L18.2695 5.58984C18.2695 5.6263 18.6615 5.65365 19.4453 5.67188L19.8555 5.97266L19.5273 6.57422L21.5781 10.0469L21.6875 10.1016C21.888 9.95573 22.362 9.33594 23.1094 8.24219C23.3828 7.98698 23.5378 7.78646 23.5742 7.64062C23.7201 7.64062 23.9479 7.40365 24.2578 6.92969C24.2578 6.5651 24.3945 6.25521 24.668 6L24.75 6.08203C24.75 6.20964 24.6771 6.3737 24.5312 6.57422V6.60156H24.5859C24.9505 6.23698 25.1328 5.98177 25.1328 5.83594V5.64453L25.1055 5.61719C25.1055 5.45312 25.3151 5.35286 25.7344 5.31641H26.4727C29.0247 5.42578 30.3008 5.6263 30.3008 5.91797V6.4375L30.1914 6.57422H29.5078L30.2734 6.84766L30.3008 6.98438V7.3125L30.1914 7.39453H30C29.2891 7.41276 28.9336 7.46745 28.9336 7.55859V7.58594C29.8268 7.60417 30.2734 7.65885 30.2734 7.75V7.80469L30.0547 7.99609L30.3008 8.13281V8.16016L30.2188 8.26953C29.362 8.08724 28.013 7.99609 26.1719 7.99609C25.388 8.83464 24.6406 9.71875 23.9297 10.6484C23.1276 11.487 22.7266 11.9609 22.7266 12.0703C22.8542 12.4349 23.2279 13.1094 23.8477 14.0938C23.9753 14.4401 24.4492 15.2878 25.2695 16.6367C25.2695 16.8555 25.7253 17.1198 26.6367 17.4297C26.8008 17.5391 26.9831 17.5938 27.1836 17.5938L29.125 17.4844L29.3438 17.8672V18.168C29.2708 18.2591 29.2344 18.3411 29.2344 18.4141L29.2617 18.6328C29.2982 18.7604 29.3073 18.9336 29.2891 19.1523C29.2708 19.3529 29.207 19.6172 29.0977 19.9453C28.9701 20.0365 28.8516 20.082 28.7422 20.082C27.5755 19.9544 26.2539 19.8906 24.7773 19.8906H24.4219L24.0117 19.9727H23.793L23.6289 19.9453V19.918C23.7747 19.7174 23.8477 19.5443 23.8477 19.3984L23.8203 19.3711H23.7383L23.4648 19.6172H23.3828C23.2188 19.5807 23.1367 19.1341 23.1367 18.2773C23.1367 18.0951 23.1458 17.8854 23.1641 17.6484C23.2188 17.5938 23.2461 17.5208 23.2461 17.4297C22.6992 15.8802 22.1432 14.7682 21.5781 14.0938H21.4688C21.2135 14.1667 20.9036 14.6406 20.5391 15.5156C20.2292 15.9714 19.9193 16.5365 19.6094 17.2109C19.4453 17.5938 19.2721 17.7852 19.0898 17.7852L19.3906 18.332L19.6641 18.6602L19.5273 19.0156L19.6094 19.2891V19.3711L19.0625 20.0273V20.0547L19.0898 20.3008L19.0078 20.3555L18.1328 20.2461H17.8867C17.7956 20.2461 17.0573 20.2279 15.6719 20.1914C14.651 20.1549 14.1406 20.2188 14.1406 20.3828L14.0859 20.4375H13.9766L14.0039 19.9727L13.8672 19.6445C13.9948 19.6445 14.0677 19.2526 14.0859 18.4688C14.1589 18.3776 14.25 18.3138 14.3594 18.2773C14.3594 18.0586 14.4414 17.9492 14.6055 17.9492L16.793 17.5938C16.9206 17.5026 17.0299 17.3477 17.1211 17.1289C17.2305 17.1289 17.3945 16.901 17.6133 16.4453C17.8867 16.1172 18.0326 15.9531 18.0508 15.9531C18.2148 15.9167 18.2969 15.8802 18.2969 15.8438V15.8164H18.0508L17.8047 15.7891V15.707C17.9688 15.5794 18.0508 15.4245 18.0508 15.2422C18.5612 14.4948 18.9076 14.0299 19.0898 13.8477L20.3477 12.0703C20.3477 12.0156 20.0924 11.6237 19.582 10.8945C18.4701 9.01693 17.7682 7.98698 17.4766 7.80469C17.4766 7.76823 16.8568 7.70443 15.6172 7.61328C14.7786 7.54036 14.3594 7.44922 14.3594 7.33984C14.4323 6.46484 14.4688 5.81771 14.4688 5.39844C14.6693 5.19792 15.2617 5.09766 16.2461 5.09766ZM15.9453 5.45312L15.8906 5.50781V5.58984H16.2188V5.5625L16.082 5.45312H15.9453ZM28.1406 6.35547H28.0586V6.46484L28.4688 6.51953H28.7422V6.4375L28.1406 6.35547ZM14.6602 6.4375L14.5781 6.57422C14.5781 6.70182 14.8516 6.79297 15.3984 6.84766H15.4805L15.8906 6.76562V6.68359C15.8906 6.62891 15.4805 6.54688 14.6602 6.4375ZM18.2695 6.4375L18.1602 6.57422C18.1966 6.62891 18.2695 6.65625 18.3789 6.65625L18.4336 6.57422L18.3242 6.4375H18.2695ZM19.0898 6.51953H18.9258V6.60156C19.0352 6.76562 19.1445 6.84766 19.2539 6.84766V6.68359L19.0898 6.51953ZM25.9531 6.875V6.98438H25.9805C26.1263 6.98438 26.263 6.89323 26.3906 6.71094V6.57422H26.2812C26.2083 6.59245 26.099 6.69271 25.9531 6.875ZM16.7656 6.84766L16.5469 6.79297L16.5195 6.84766L16.6289 6.95703H16.7383L16.7656 6.84766ZM27.8125 7.03906L27.457 7.06641V7.12109L27.8672 7.14844L28.4688 7.12109V7.03906H27.8125ZM18.2148 7.94141H18.1328V7.99609L18.2148 8.07812H18.2695V7.99609L18.2148 7.94141ZM24.4219 8.43359H24.4766C24.5859 8.36068 24.6497 8.28776 24.668 8.21484L24.6406 8.16016C24.4948 8.2513 24.4219 8.34245 24.4219 8.43359ZM18.4336 8.24219H18.3242V8.26953C18.3242 8.41536 18.4154 8.55208 18.5977 8.67969H18.6523L18.707 8.625C18.707 8.44271 18.6159 8.3151 18.4336 8.24219ZM22.3438 11.2773H22.3711C22.6081 11.0951 22.7266 10.9219 22.7266 10.7578C22.4714 10.9583 22.3438 11.1315 22.3438 11.2773ZM19.6094 13.9297L19.6641 13.957H19.6914C20.2201 13.2826 20.4844 12.8815 20.4844 12.7539H20.457C20.0742 13.082 19.7917 13.474 19.6094 13.9297ZM19.0898 16.9102L18.9805 17.0195V17.1016H19.0078L19.1172 16.9922V16.9102H19.0898ZM17.3125 17.293V17.375C17.4583 17.375 17.5586 17.3112 17.6133 17.1836L17.5859 17.1289C17.4219 17.1654 17.3307 17.2201 17.3125 17.293ZM26.2266 17.4844L25.3789 17.1836L25.3242 17.2109V17.4023C25.3242 17.4935 25.4883 17.5573 25.8164 17.5938H26.1445L26.2266 17.4844ZM24.5312 18.0859L24.4219 18.168C24.4766 18.2591 24.5495 18.3411 24.6406 18.4141H24.8594V18.3867C24.8594 18.1862 24.75 18.0859 24.5312 18.0859ZM28.3047 18.4688V18.4961H28.5508L28.7148 18.4688V18.4141C28.7148 18.3594 28.6784 18.332 28.6055 18.332C28.4049 18.3867 28.3047 18.4323 28.3047 18.4688ZM25.6523 18.7422H26.5547L26.8828 18.6875V18.6602L26.6914 18.6055H26.1445C25.8164 18.6055 25.6523 18.651 25.6523 18.7422ZM14.5781 18.8242V18.8789C14.6328 19.0065 14.7331 19.0703 14.8789 19.0703L15.7266 18.9609V18.9062C15.7266 18.8151 15.4167 18.7422 14.7969 18.6875C14.651 18.7422 14.5781 18.7878 14.5781 18.8242ZM25.1328 18.6875H24.9961V18.7695H25.1328V18.6875ZM18.8438 19.5078H18.6523V19.6172H18.9258V19.5625L18.8438 19.5078ZM28.5781 19.6445H28.25V19.7812C28.4688 19.8542 28.6784 19.8906 28.8789 19.8906L28.9062 19.8633V19.8086C28.9062 19.7539 28.7969 19.6992 28.5781 19.6445ZM37.2734 2.74609H37.3281C40.1536 2.78255 41.5664 2.84635 41.5664 2.9375C41.5482 3.01042 41.4479 3.09245 41.2656 3.18359V3.32031L41.375 3.62109L41.2656 4.00391V4.05859L41.293 4.11328L41.2109 4.19531V4.22266L40.8281 3.94922H40.7461C40.7461 4.20443 40.4362 4.33203 39.8164 4.33203L39.1328 4.22266C36.7083 4.40495 35.25 4.54167 34.7578 4.63281C34.5755 4.8151 34.3932 5.64453 34.2109 7.12109C34.0286 7.66797 33.9375 8.15104 33.9375 8.57031H34.0195V8.59766C34.5117 8.57943 34.7578 8.48828 34.7578 8.32422C34.5938 8.26953 34.4844 8.1875 34.4297 8.07812V8.02344C34.4297 7.65885 35.0859 7.43099 36.3984 7.33984H36.5898C37.556 7.33984 38.2487 7.64062 38.668 8.24219C39.4336 8.71615 40.0169 9.14453 40.418 9.52734L40.7461 9.88281V9.91016H40.7188L40.1172 9.52734H40.0352V9.55469C40.1992 9.97396 40.3724 10.1927 40.5547 10.2109C40.5547 10.2656 40.6276 10.293 40.7734 10.293L41.0469 10.2656C41.1745 10.375 41.2383 10.4753 41.2383 10.5664C41.056 10.5846 40.9648 10.6302 40.9648 10.7031C40.9831 10.8307 41.1654 10.9948 41.5117 11.1953C41.6393 11.1953 41.7031 11.5508 41.7031 12.2617V13.2734C41.9948 13.9844 41.9857 14.6497 41.6758 15.2695L41.6211 15.2969H41.5391C41.4115 15.2422 41.3203 15.0872 41.2656 14.832C41.3021 14.6315 41.3659 14.4948 41.457 14.4219L41.3477 14.3398C41.1107 14.3398 40.901 14.6497 40.7188 15.2695V15.3242C40.7188 15.3971 40.819 15.4336 41.0195 15.4336V15.4609V15.543C40.6003 16.4544 40.0898 17.1562 39.4883 17.6484C39.3242 17.7214 39.1328 18.0404 38.9141 18.6055V18.6602C39.0781 18.6602 39.543 18.2409 40.3086 17.4023C40.6367 16.8372 41.0013 16.3086 41.4023 15.8164L41.457 15.8438V15.9258C41.056 16.6367 40.6458 17.2474 40.2266 17.7578C38.8958 18.9609 37.7201 19.7174 36.6992 20.0273C34.7305 20.2279 33.4453 20.3281 32.8438 20.3281C32.6797 20.2552 32.0508 20.1914 30.957 20.1367H30.9297V20.082L31.2578 18.7695C31.2578 18.3138 31.513 18.0859 32.0234 18.0859L32.1602 18.0586C32.5065 18.2591 32.6888 18.3594 32.707 18.3594H32.8438C33.026 18.3594 33.3268 18.332 33.7461 18.2773C34.1654 18.2227 34.4115 18.1953 34.4844 18.1953C35.0677 18.3958 36.1159 18.0221 37.6289 17.0742C38.7044 16.2174 39.3789 15.5339 39.6523 15.0234C40.0716 14.4766 40.1263 13.8568 39.8164 13.1641C39.8164 11.888 39.543 11.013 38.9961 10.5391C38.832 10.2292 38.3581 9.92839 37.5742 9.63672C37.1549 9.38151 36.7266 9.25391 36.2891 9.25391H36.1797C35.5599 9.25391 34.4935 9.52734 32.9805 10.0742L32.5156 10.1562L32.4062 10.0469V9.9375C32.4974 9.9375 32.5794 9.38151 32.6523 8.26953C32.8711 7.90495 33.0534 6.63802 33.1992 4.46875C33.2174 3.70312 33.2904 3.32031 33.418 3.32031L33.4727 3.26562V3.21094L33.418 2.9375H33.4727C33.5638 3.01042 33.7461 3.04688 34.0195 3.04688C34.293 3.04688 35.3776 2.94661 37.2734 2.74609ZM40.3086 3.21094V3.26562C40.3451 3.35677 40.4544 3.40234 40.6367 3.40234H40.7461C40.9284 3.40234 41.0195 3.32031 41.0195 3.15625L40.9102 3.10156H40.5547C40.4453 3.10156 40.3633 3.13802 40.3086 3.21094ZM33.7461 3.73047L33.6641 3.86719V3.89453L33.7461 4.00391C35.9701 3.7487 37.082 3.54818 37.082 3.40234H37.0273C34.8398 3.56641 33.7461 3.67578 33.7461 3.73047ZM38.668 3.62109L37.875 3.67578V3.78516L38.5039 3.8125C38.7773 3.8125 38.9141 3.77604 38.9141 3.70312C38.8776 3.64844 38.7956 3.62109 38.668 3.62109ZM33.8555 4.49609L33.8008 4.57812V5.37109L33.8555 5.42578C33.9102 5.29818 33.9375 5.11589 33.9375 4.87891V4.57812L33.8828 4.49609H33.8555ZM33.7461 6.30078H33.6641V6.35547H33.7461V6.30078ZM36.5898 8.07812V8.13281H36.6445H37.3828C38.0026 8.13281 38.3125 8.10547 38.3125 8.05078C38.3125 7.95964 37.957 7.89583 37.2461 7.85938L36.5898 8.07812ZM35.4688 8.07812V8.13281L35.6055 8.24219H35.7422L36.0977 8.13281V8.05078L35.6055 7.99609C35.5143 8.03255 35.4688 8.0599 35.4688 8.07812ZM36.7812 8.70703C36.8359 8.87109 37.0273 8.95312 37.3555 8.95312H37.5195C37.6107 8.95312 37.7018 8.89844 37.793 8.78906V8.625C37.7747 8.57031 37.6836 8.54297 37.5195 8.54297H37.1094C36.9453 8.54297 36.8359 8.59766 36.7812 8.70703ZM34.375 9.03516V9.0625L34.4844 9.14453C34.6302 9.14453 34.7396 9.08073 34.8125 8.95312V8.92578L34.6758 8.87109C34.4753 8.90755 34.375 8.96224 34.375 9.03516ZM32.9805 9.08984L32.8438 9.22656V9.52734L32.9531 9.60938H33.2539V9.52734C33.2539 9.32682 33.181 9.18099 33.0352 9.08984H32.9805ZM38.1484 9.19922H38.1211V9.30859L38.2578 9.41797H38.3125C38.3307 9.41797 38.3398 9.38151 38.3398 9.30859C38.3398 9.23568 38.276 9.19922 38.1484 9.19922ZM40.3633 10.4297L40.1172 10.1562V10.2109C40.1172 10.3568 40.181 10.4661 40.3086 10.5391H40.3633V10.4297ZM39.8438 10.6211H39.8164V10.7031L39.9258 10.7852H39.9531V10.7578L39.8438 10.6211ZM40.1172 11.0859L40.0352 11.0039V11.0859L40.0898 11.168L40.1172 11.1133V11.0859ZM40.1992 11.4414H40.1445V11.5781L40.2266 11.6328H40.2812V11.5234L40.1992 11.4414ZM40.418 12.043L40.3086 12.125V12.1797H40.4727L40.5273 12.125V12.043H40.418ZM40.418 12.5625H40.3086L40.2812 12.8086V12.9727L40.418 12.8359V12.5625ZM41.0742 15.2148L41.1289 15.1602H41.2656V15.2148L41.1289 15.2969H41.0742V15.2148ZM41.4023 15.625L41.5117 15.5156L41.6211 15.543V15.5703L41.5117 15.707L41.4023 15.6523V15.625ZM35.4141 18.7695V18.8242C35.888 18.6602 36.4349 18.5234 37.0547 18.4141C37.4375 18.1953 37.6289 18.013 37.6289 17.8672L37.5469 17.7578L38.9688 17.1836L38.9414 17.0195C39.3971 16.4909 39.625 16.1536 39.625 16.0078L39.5977 15.9805H39.543C39.3789 15.9805 38.5495 16.5911 37.0547 17.8125C36.763 17.8125 36.2161 18.1315 35.4141 18.7695ZM33.8828 19.6445V19.7266L33.9922 19.7539C34.138 19.7539 34.9219 19.7083 36.3438 19.6172C36.5078 19.6172 36.9727 19.3711 37.7383 18.8789C37.9753 18.6966 38.0938 18.5417 38.0938 18.4141V18.3867L38.0664 18.3047H37.957C37.6836 18.3047 37.2552 18.5599 36.6719 19.0703C35.5781 19.3073 34.8125 19.4349 34.375 19.4531C34.0469 19.526 33.8828 19.5898 33.8828 19.6445ZM33.9922 18.6875L33.6641 18.7695V18.8516H33.9922L34.1562 18.7969V18.6875H33.9922ZM38.0664 18.9883L38.0117 19.0703V19.1523H38.0664L38.1484 19.0703V18.9883H38.0664ZM31.832 19.4258L31.75 19.4805C31.7682 19.5534 31.832 19.5898 31.9414 19.5898C32.1237 19.5898 32.224 19.5534 32.2422 19.4805L32.1602 19.4258H31.832ZM32.4336 19.8086L32.5156 19.8633H32.5703C32.7161 19.8633 32.9349 19.8086 33.2266 19.6992L33.5273 19.7266C33.7096 19.6719 33.8008 19.5807 33.8008 19.4531V19.4258H33.6641C32.8438 19.5534 32.4336 19.681 32.4336 19.8086ZM45.4492 5.09766C47.6914 5.09766 48.8125 5.1888 48.8125 5.37109C48.8125 5.46224 48.3841 5.50781 47.5273 5.50781L47.4727 5.58984C47.4727 5.6263 47.8646 5.65365 48.6484 5.67188L49.0586 5.97266L48.7305 6.57422L50.7812 10.0469L50.8906 10.1016C51.0911 9.95573 51.5651 9.33594 52.3125 8.24219C52.5859 7.98698 52.7409 7.78646 52.7773 7.64062C52.9232 7.64062 53.151 7.40365 53.4609 6.92969C53.4609 6.5651 53.5977 6.25521 53.8711 6L53.9531 6.08203C53.9531 6.20964 53.8802 6.3737 53.7344 6.57422V6.60156H53.7891C54.1536 6.23698 54.3359 5.98177 54.3359 5.83594V5.64453L54.3086 5.61719C54.3086 5.45312 54.5182 5.35286 54.9375 5.31641H55.6758C58.2279 5.42578 59.5039 5.6263 59.5039 5.91797V6.4375L59.3945 6.57422H58.7109L59.4766 6.84766L59.5039 6.98438V7.3125L59.3945 7.39453H59.2031C58.4922 7.41276 58.1367 7.46745 58.1367 7.55859V7.58594C59.0299 7.60417 59.4766 7.65885 59.4766 7.75V7.80469L59.2578 7.99609L59.5039 8.13281V8.16016L59.4219 8.26953C58.5651 8.08724 57.2161 7.99609 55.375 7.99609C54.5911 8.83464 53.8438 9.71875 53.1328 10.6484C52.3307 11.487 51.9297 11.9609 51.9297 12.0703C52.0573 12.4349 52.431 13.1094 53.0508 14.0938C53.1784 14.4401 53.6523 15.2878 54.4727 16.6367C54.4727 16.8555 54.9284 17.1198 55.8398 17.4297C56.0039 17.5391 56.1862 17.5938 56.3867 17.5938L58.3281 17.4844L58.5469 17.8672V18.168C58.474 18.2591 58.4375 18.3411 58.4375 18.4141L58.4648 18.6328C58.5013 18.7604 58.5104 18.9336 58.4922 19.1523C58.474 19.3529 58.4102 19.6172 58.3008 19.9453C58.1732 20.0365 58.0547 20.082 57.9453 20.082C56.7786 19.9544 55.457 19.8906 53.9805 19.8906H53.625L53.2148 19.9727H52.9961L52.832 19.9453V19.918C52.9779 19.7174 53.0508 19.5443 53.0508 19.3984L53.0234 19.3711H52.9414L52.668 19.6172H52.5859C52.4219 19.5807 52.3398 19.1341 52.3398 18.2773C52.3398 18.0951 52.349 17.8854 52.3672 17.6484C52.4219 17.5938 52.4492 17.5208 52.4492 17.4297C51.9023 15.8802 51.3464 14.7682 50.7812 14.0938H50.6719C50.4167 14.1667 50.1068 14.6406 49.7422 15.5156C49.4323 15.9714 49.1224 16.5365 48.8125 17.2109C48.6484 17.5938 48.4753 17.7852 48.293 17.7852L48.5938 18.332L48.8672 18.6602L48.7305 19.0156L48.8125 19.2891V19.3711L48.2656 20.0273V20.0547L48.293 20.3008L48.2109 20.3555L47.3359 20.2461H47.0898C46.9987 20.2461 46.2604 20.2279 44.875 20.1914C43.8542 20.1549 43.3438 20.2188 43.3438 20.3828L43.2891 20.4375H43.1797L43.207 19.9727L43.0703 19.6445C43.1979 19.6445 43.2708 19.2526 43.2891 18.4688C43.362 18.3776 43.4531 18.3138 43.5625 18.2773C43.5625 18.0586 43.6445 17.9492 43.8086 17.9492L45.9961 17.5938C46.1237 17.5026 46.2331 17.3477 46.3242 17.1289C46.4336 17.1289 46.5977 16.901 46.8164 16.4453C47.0898 16.1172 47.2357 15.9531 47.2539 15.9531C47.418 15.9167 47.5 15.8802 47.5 15.8438V15.8164H47.2539L47.0078 15.7891V15.707C47.1719 15.5794 47.2539 15.4245 47.2539 15.2422C47.7643 14.4948 48.1107 14.0299 48.293 13.8477L49.5508 12.0703C49.5508 12.0156 49.2956 11.6237 48.7852 10.8945C47.6732 9.01693 46.9714 7.98698 46.6797 7.80469C46.6797 7.76823 46.0599 7.70443 44.8203 7.61328C43.9818 7.54036 43.5625 7.44922 43.5625 7.33984C43.6354 6.46484 43.6719 5.81771 43.6719 5.39844C43.8724 5.19792 44.4648 5.09766 45.4492 5.09766ZM45.1484 5.45312L45.0938 5.50781V5.58984H45.4219V5.5625L45.2852 5.45312H45.1484ZM57.3438 6.35547H57.2617V6.46484L57.6719 6.51953H57.9453V6.4375L57.3438 6.35547ZM43.8633 6.4375L43.7812 6.57422C43.7812 6.70182 44.0547 6.79297 44.6016 6.84766H44.6836L45.0938 6.76562V6.68359C45.0938 6.62891 44.6836 6.54688 43.8633 6.4375ZM47.4727 6.4375L47.3633 6.57422C47.3997 6.62891 47.4727 6.65625 47.582 6.65625L47.6367 6.57422L47.5273 6.4375H47.4727ZM48.293 6.51953H48.1289V6.60156C48.2383 6.76562 48.3477 6.84766 48.457 6.84766V6.68359L48.293 6.51953ZM55.1562 6.875V6.98438H55.1836C55.3294 6.98438 55.4661 6.89323 55.5938 6.71094V6.57422H55.4844C55.4115 6.59245 55.3021 6.69271 55.1562 6.875ZM45.9688 6.84766L45.75 6.79297L45.7227 6.84766L45.832 6.95703H45.9414L45.9688 6.84766ZM57.0156 7.03906L56.6602 7.06641V7.12109L57.0703 7.14844L57.6719 7.12109V7.03906H57.0156ZM47.418 7.94141H47.3359V7.99609L47.418 8.07812H47.4727V7.99609L47.418 7.94141ZM53.625 8.43359H53.6797C53.7891 8.36068 53.8529 8.28776 53.8711 8.21484L53.8438 8.16016C53.6979 8.2513 53.625 8.34245 53.625 8.43359ZM47.6367 8.24219H47.5273V8.26953C47.5273 8.41536 47.6185 8.55208 47.8008 8.67969H47.8555L47.9102 8.625C47.9102 8.44271 47.819 8.3151 47.6367 8.24219ZM51.5469 11.2773H51.5742C51.8112 11.0951 51.9297 10.9219 51.9297 10.7578C51.6745 10.9583 51.5469 11.1315 51.5469 11.2773ZM48.8125 13.9297L48.8672 13.957H48.8945C49.4232 13.2826 49.6875 12.8815 49.6875 12.7539H49.6602C49.2773 13.082 48.9948 13.474 48.8125 13.9297ZM48.293 16.9102L48.1836 17.0195V17.1016H48.2109L48.3203 16.9922V16.9102H48.293ZM46.5156 17.293V17.375C46.6615 17.375 46.7617 17.3112 46.8164 17.1836L46.7891 17.1289C46.625 17.1654 46.5339 17.2201 46.5156 17.293ZM55.4297 17.4844L54.582 17.1836L54.5273 17.2109V17.4023C54.5273 17.4935 54.6914 17.5573 55.0195 17.5938H55.3477L55.4297 17.4844ZM53.7344 18.0859L53.625 18.168C53.6797 18.2591 53.7526 18.3411 53.8438 18.4141H54.0625V18.3867C54.0625 18.1862 53.9531 18.0859 53.7344 18.0859ZM57.5078 18.4688V18.4961H57.7539L57.918 18.4688V18.4141C57.918 18.3594 57.8815 18.332 57.8086 18.332C57.6081 18.3867 57.5078 18.4323 57.5078 18.4688ZM54.8555 18.7422H55.7578L56.0859 18.6875V18.6602L55.8945 18.6055H55.3477C55.0195 18.6055 54.8555 18.651 54.8555 18.7422ZM43.7812 18.8242V18.8789C43.8359 19.0065 43.9362 19.0703 44.082 19.0703L44.9297 18.9609V18.9062C44.9297 18.8151 44.6198 18.7422 44 18.6875C43.8542 18.7422 43.7812 18.7878 43.7812 18.8242ZM54.3359 18.6875H54.1992V18.7695H54.3359V18.6875ZM48.0469 19.5078H47.8555V19.6172H48.1289V19.5625L48.0469 19.5078ZM57.7812 19.6445H57.4531V19.7812C57.6719 19.8542 57.8815 19.8906 58.082 19.8906L58.1094 19.8633V19.8086C58.1094 19.7539 58 19.6992 57.7812 19.6445ZM67.1602 1.1875L67.7617 1.10547C68.3633 1.10547 69.3021 1.32422 70.5781 1.76172C71.2526 2.10807 71.5898 2.33594 71.5898 2.44531C72.2096 3.0651 72.5195 3.54818 72.5195 3.89453L72.957 5.50781C72.7747 6.20052 72.3828 7.19401 71.7812 8.48828C71.0156 9.1263 69.8854 9.88281 68.3906 10.7578C67.1693 11.888 66.3672 12.4714 65.9844 12.5078L64.8359 13.5469C63.1953 14.9688 62.3568 15.7161 62.3203 15.7891C62.1562 16.1354 62.0104 16.582 61.8828 17.1289V17.1836C61.8828 17.3294 62.3294 17.4297 63.2227 17.4844V17.5938L62.3477 17.6484V17.7578C63.9336 18.0312 65 18.168 65.5469 18.168C65.5104 18.1133 64.8542 17.931 63.5781 17.6211V17.5391H63.6055C63.9518 17.5391 64.681 17.6758 65.793 17.9492L67.3242 18.0586L68.6367 17.9219H69.3203C70.5234 17.9948 71.1797 18.1589 71.2891 18.4141L72.1094 18.6602L72.2734 18.7695V18.8789L71.8359 18.9883V19.0156L71.9453 19.1523H72L72.3828 19.0977V19.1523C72.3464 19.9544 72.2917 20.3555 72.2188 20.3555L69.0195 20.2461H68.3633C67.9076 20.2461 67.2878 20.2917 66.5039 20.3828C63.7513 20.0547 61.8372 19.8906 60.7617 19.8906C60.4336 19.8177 60.2695 19.6536 60.2695 19.3984C60.1419 19.0703 60.0781 18.6602 60.0781 18.168V17.3477C60.0781 15.7617 60.2604 14.7591 60.625 14.3398L61.3086 13.9023C61.418 13.7018 61.4727 13.5378 61.4727 13.4102C62.6393 12.4622 63.2591 11.9883 63.332 11.9883C63.8242 11.806 64.4987 11.3411 65.3555 10.5938H65.4922C65.2552 10.8854 65.0638 11.0312 64.918 11.0312V11.1406H65.082C65.319 11.013 65.556 10.8125 65.793 10.5391V10.4844H65.6836V10.4023L67.6523 9.17188C68.6549 8.47917 69.4479 7.84115 70.0312 7.25781C70.4688 6.76562 70.7513 6.11849 70.8789 5.31641C70.8789 4.60547 70.5781 4.06771 69.9766 3.70312C69.776 3.63021 68.9557 3.52995 67.5156 3.40234C67.5156 3.38411 67.3698 3.36589 67.0781 3.34766C66.4583 3.34766 65.875 3.71224 65.3281 4.44141C65.1823 4.76953 65.1094 5.01562 65.1094 5.17969V5.37109H65.1641C65.1641 5.53516 64.8633 5.65365 64.2617 5.72656L63.1133 5.89062V5.91797L62.9492 5.89062H62.7305L62.0469 5.97266L61.9922 5.86328C62.2474 4.60547 62.5299 3.82161 62.8398 3.51172C63.8789 2.5638 64.6081 2.07161 65.0273 2.03516C65.3372 1.76172 66.0482 1.47917 67.1602 1.1875ZM68.2539 1.37891H67.9805V1.43359L68.1445 1.65234H68.3906L68.5 1.51562V1.48828C68.4818 1.41536 68.3997 1.37891 68.2539 1.37891ZM66.5039 1.78906V1.84375H66.5312C67.2786 1.84375 67.6523 1.76172 67.6523 1.59766L67.5156 1.48828H67.1875C66.7318 1.59766 66.5039 1.69792 66.5039 1.78906ZM69.9219 1.67969H69.8945V1.73438C69.8945 1.84375 70.1315 1.95312 70.6055 2.0625V2.03516C70.6055 1.92578 70.3776 1.80729 69.9219 1.67969ZM65.4922 2.19922V2.28125H65.8477L65.957 2.17188V2.14453L65.793 2.11719C65.5924 2.15365 65.4922 2.18099 65.4922 2.19922ZM65.875 3.23828L65.793 3.34766V3.40234H65.957L66.0391 3.29297V3.23828H65.875ZM70.6328 3.29297L70.5781 3.34766V3.40234C70.651 3.52995 70.7513 3.59375 70.8789 3.59375H70.9062C70.9609 3.59375 70.9883 3.55729 70.9883 3.48438C70.9883 3.39323 70.888 3.32943 70.6875 3.29297H70.6328ZM71.043 3.70312V3.75781C71.3711 3.79427 71.5352 3.9401 71.5352 4.19531L71.6992 4.38672V4.19531C71.6992 3.79427 71.5716 3.59375 71.3164 3.59375C71.1523 3.59375 71.0612 3.63021 71.043 3.70312ZM65 4.25L65.0547 4.30469H65.082C65.3555 4.15885 65.4922 4.01302 65.4922 3.86719V3.83984H65.3828C65.3099 3.83984 65.1823 3.97656 65 4.25ZM64.2344 4.98828H64.0977V5.09766L64.207 5.125H64.2344V4.98828ZM72.2188 5.91797L72.1094 6.05469V6.13672H72.1641L72.2461 6.05469V5.91797H72.2188ZM71.5898 7.01172H71.4531V7.14844C71.5807 7.14844 71.6445 7.20312 71.6445 7.3125H71.7266V7.14844L71.5898 7.01172ZM71.0977 7.99609L71.125 8.05078V8.07812C71.2344 8.02344 71.3438 7.91406 71.4531 7.75V7.69531H71.3984C71.2708 7.76823 71.1706 7.86849 71.0977 7.99609ZM70.3594 8.54297H70.4141L70.7148 8.48828C70.7148 8.34245 70.651 8.26953 70.5234 8.26953C70.4141 8.28776 70.3594 8.37891 70.3594 8.54297ZM70.3047 9.0625V9.11719C70.651 9.08073 70.9701 8.88932 71.2617 8.54297L71.207 8.48828C70.7878 8.70703 70.487 8.89844 70.3047 9.0625ZM69.0742 9.58203L68.9922 9.60938V9.71875H69.0469L69.1289 9.63672L69.0742 9.60938V9.58203ZM64.8086 12.8633V12.9453H64.8906C65 12.9453 65.2461 12.7812 65.6289 12.4531C65.7201 12.4531 65.8112 12.3438 65.9023 12.125L65.957 12.0977V12.0156H65.875C65.6562 12.0156 65.3008 12.2982 64.8086 12.8633ZM63.0859 12.7266V12.8086H63.1133C63.3503 12.8086 63.5417 12.6263 63.6875 12.2617H63.5508C63.2409 12.5169 63.0859 12.6719 63.0859 12.7266ZM62.1836 13.2188H61.8281L61.8555 13.4922C61.6003 13.7474 61.4727 13.9115 61.4727 13.9844H61.582C61.9102 13.8021 62.138 13.5742 62.2656 13.3008V13.2461L62.1836 13.2188ZM64.2344 13.4922L64.0977 13.5742V13.6562H64.207L64.3164 13.5469V13.4922H64.2344ZM62.0469 15.0508V15.1602H62.1289C62.3294 15.0143 62.4297 14.8685 62.4297 14.7227V14.6953H62.3477C62.1471 14.8047 62.0469 14.9232 62.0469 15.0508ZM61.3086 17.9766L61.2266 18.0586V18.168L61.3086 18.2773L61.3633 18.168V18.0586L61.3086 17.9766ZM62.0469 18.0586L61.9375 18.1406L61.9922 18.168H62.3477V18.0859L62.1562 18.0586H62.0469ZM69.4844 18.2773L69.293 18.3047V18.332L69.4023 18.4414H69.7578L69.8398 18.3867V18.3047L69.4844 18.2773ZM60.5703 18.8242L60.4609 18.8789V18.9062L60.543 18.9883H60.5703L60.6523 18.9062L60.5703 18.8242ZM61.1445 19.3984V19.4258L61.3633 19.4531C61.6367 19.4167 61.7734 19.3802 61.7734 19.3438L61.7461 19.2891H61.3633C61.2174 19.3255 61.1445 19.362 61.1445 19.3984ZM70.0039 19.6992H70.3047C70.5599 19.6628 70.6875 19.6172 70.6875 19.5625L70.6055 19.4531H70.4414C70.3503 19.4531 70.2044 19.5352 70.0039 19.6992ZM70.9883 19.8633L71.0977 19.918H71.3984C71.6719 19.918 71.8086 19.8724 71.8086 19.7812V19.7539C71.8086 19.6992 71.7721 19.6719 71.6992 19.6719C71.2617 19.6901 71.0247 19.7539 70.9883 19.8633ZM83.6484 13.9844L83.7578 14.0117C83.8672 14.0482 83.8581 14.7773 83.7305 16.1992H83.7578C83.7396 16.3815 82.8008 16.3815 80.9414 16.1992C78.8633 16.3268 77.5052 16.3359 76.8672 16.2266V16.1992C76.8854 16.0352 77.6784 15.9714 79.2461 16.0078C79.8841 15.9896 80.2214 15.9349 80.2578 15.8438L80.2852 15.8164L80.0117 15.7617C77.8607 15.5794 76.7487 15.707 76.6758 16.1445L76.457 16.1992C75.8372 16.1263 75.6276 15.4427 75.8281 14.1484C75.8828 13.8203 76.6211 13.6836 78.043 13.7383C78.043 13.7018 78.1432 13.7018 78.3438 13.7383L78.8633 13.9297L79.1094 13.957L83.6484 13.9844ZM83.0195 14.3398L82.8555 14.3672L82.8281 14.4492L83.0742 14.4766H83.2383L83.2656 14.3945L83.0195 14.3398ZM81.5977 14.4766L81.9531 14.5312C82.1172 14.5677 82.2266 14.5404 82.2812 14.4492V14.4219H82.1992C81.8164 14.4036 81.6159 14.4219 81.5977 14.4766ZM80.1211 14.4766V14.5586H80.1758C80.3398 14.5951 80.4401 14.5677 80.4766 14.4766V14.4492H80.3672C80.2396 14.431 80.1576 14.4401 80.1211 14.4766ZM81.8164 15.0781L82.3906 15.1875C82.9922 15.2422 83.3294 15.2057 83.4023 15.0781V15.0234L83.2656 14.9688C82.3359 14.9505 81.8529 14.987 81.8164 15.0781ZM78.8086 14.5312L78.7812 14.6406H78.8359C79.237 14.6953 79.5378 14.6589 79.7383 14.5312V14.5039L79.6836 14.4766C79.5195 14.4583 79.2279 14.4766 78.8086 14.5312ZM76.375 14.1484L76.293 14.2305L76.2109 14.5586L76.293 14.6406V14.668C76.3477 14.668 76.4206 14.5586 76.5117 14.3398V14.2305L76.4844 14.1484H76.375ZM77.2227 14.2578L77.0859 14.3672L77.0586 14.3945L77.2227 14.4219L77.2773 14.3672L77.3047 14.2852L77.2227 14.2578ZM81.2969 15.0234H81.2148V15.0781L81.3789 15.1328L81.2969 15.0234ZM80.832 15.7891V15.8164H80.8594C82.4635 16.0169 83.2839 16.0716 83.3203 15.9805V15.9531C83.3203 15.8984 83.2747 15.8255 83.1836 15.7344H83.1562C82.5911 15.6615 81.8164 15.6797 80.832 15.7891ZM76.2383 14.8867L76.1562 14.9414V15.0234H76.2109L76.293 14.9688V14.9141L76.2383 14.8867ZM83.8672 10.5938L83.9766 10.6211C84.1224 10.6393 84.0404 11.3503 83.7305 12.7539L83.7578 12.7812C83.7031 12.9635 82.7734 12.8906 80.9688 12.5625C78.8906 12.4531 77.5234 12.3255 76.8672 12.1797L76.8945 12.0977C76.9492 11.9518 77.7331 11.9792 79.2461 12.1797C79.9206 12.2161 80.276 12.1888 80.3125 12.0977V12.0703L80.0664 12.0156C77.9336 11.5964 76.8125 11.6055 76.7031 12.043L76.4844 12.0977C75.8828 11.9518 75.7461 11.2591 76.0742 10.0195C76.1471 9.69141 76.8945 9.61849 78.3164 9.80078C78.3346 9.78255 78.4349 9.78255 78.6172 9.80078L79.1094 10.0469L79.3281 10.1016L83.8672 10.5938ZM83.1836 10.8945H83.0195L82.9922 10.9492L83.2383 11.0312H83.4297V10.9766L83.1836 10.8945ZM81.7891 10.8945L82.1172 10.9766C82.2995 11.013 82.4089 10.9857 82.4453 10.8945L82.3906 10.8672C81.9896 10.8125 81.7891 10.8216 81.7891 10.8945ZM80.3125 10.7578V10.8125C80.4948 10.8672 80.6133 10.8581 80.668 10.7852L80.6953 10.7305L80.5312 10.7031C80.4219 10.6849 80.349 10.7031 80.3125 10.7578ZM81.9531 11.4961L82.5 11.6328C83.0651 11.7604 83.3932 11.7695 83.4844 11.6602L83.5117 11.5781L83.4023 11.5234C82.4727 11.4141 81.9896 11.4049 81.9531 11.4961ZM79 10.6484L78.9727 10.7578L79 10.7852C79.3281 10.8581 79.638 10.849 79.9297 10.7578V10.7305L79.875 10.7031C79.6562 10.6484 79.3646 10.6302 79 10.6484ZM76.6211 10.0469L76.5117 10.1016L76.4023 10.457L76.4844 10.5391C76.5391 10.5391 76.6211 10.4388 76.7305 10.2383L76.7578 10.1289L76.6758 10.0469H76.6211ZM77.4414 10.2383L77.2773 10.293V10.3477L77.4414 10.4023L77.5234 10.3203V10.293L77.4414 10.2383ZM81.4336 11.3867H81.3789L81.3516 11.4414L81.4883 11.4961L81.4336 11.3867ZM80.9141 12.0977L80.8867 12.1523H80.9141C82.5 12.5169 83.3112 12.6445 83.3477 12.5352L83.375 12.5078C83.375 12.4349 83.3203 12.3529 83.2109 12.2617H83.1836C82.6185 12.1341 81.862 12.0794 80.9141 12.0977ZM76.4023 10.7852H76.293V10.8945H76.375L76.457 10.8398L76.4844 10.7852H76.4023ZM97.7578 0.859375V0.503906V0.476562C98.7604 0.585938 99.2617 0.740885 99.2617 0.941406C99.0977 1.94401 98.7786 4.55078 98.3047 8.76172C98.1953 9.67318 98.0404 10.3659 97.8398 10.8398C97.3841 11.4596 97.1016 12.2435 96.9922 13.1914C97.1198 13.2826 97.8581 13.3828 99.207 13.4922C99.6445 13.6562 99.9818 13.7383 100.219 13.7383H100.52L101.914 13.6016H102.543V13.5742C102.434 12.4622 102.342 10.3385 102.27 7.20312C102.197 6.80208 102.115 6.57422 102.023 6.51953C102.023 6.42839 102.324 6.33724 102.926 6.24609C102.926 6.19141 103.008 6.15495 103.172 6.13672C103.409 6.13672 103.555 6.22786 103.609 6.41016L103.445 6.84766C103.773 7.3763 103.938 9.07161 103.938 11.9336C103.938 12.9544 104.01 13.4648 104.156 13.4648H104.238C104.949 13.4648 105.423 13.3919 105.66 13.2461L105.852 13.3555L105.824 13.6016V13.8203L105.934 14.0117L105.906 14.2852C105.906 14.832 105.706 15.1693 105.305 15.2969C104.904 15.4062 104.703 15.5156 104.703 15.625H104.238C104.184 15.625 104.156 15.6523 104.156 15.707C104.302 16.9648 104.375 18.1406 104.375 19.2344C104.466 19.6354 104.512 20.0456 104.512 20.4648L104.73 20.5742V20.6289C104.73 20.7565 104.156 21.0026 103.008 21.3672C102.862 21.2396 102.671 21.1758 102.434 21.1758L102.379 21.1211C102.579 19.7721 102.68 18.7878 102.68 18.168C102.68 16.3086 102.561 15.3789 102.324 15.3789L101.176 15.3242H98.8516L98.0312 15.4062C95.4062 15.3698 94.0938 15.2422 94.0938 15.0234C94.0391 15.0234 94.0117 15.0052 94.0117 14.9688C94.5951 14.4219 94.8867 14.0117 94.8867 13.7383C95.1602 13.1003 95.2969 12.444 95.2969 11.7695C95.7891 10.4023 96.1445 8.50651 96.3633 6.08203C96.3633 5.77214 96.5547 4.48698 96.9375 2.22656C96.9375 1.91667 97.0286 1.48828 97.2109 0.941406H97.2383C97.3477 1.05078 97.4479 1.10547 97.5391 1.10547H97.6758L97.7578 0.996094V0.859375ZM97.5664 2.11719V2.17188C97.5846 2.40885 97.6211 2.52734 97.6758 2.52734H97.7305V2.41797C97.7305 2.32682 97.8034 2.15365 97.9492 1.89844L98.0312 1.46094V1.43359L98.0039 1.35156H97.8945C97.6758 1.35156 97.5664 1.60677 97.5664 2.11719ZM98.168 3.42969V3.51172L98.25 3.59375C98.3229 3.53906 98.3594 3.45703 98.3594 3.34766V3.12891H98.332C98.2773 3.12891 98.2227 3.22917 98.168 3.42969ZM96.6641 6.16406V6.19141L96.7734 6.27344H96.8008L96.9922 6.24609V6.08203L96.8828 5.86328L97.0742 4.90625H97.0469C96.7917 5.45312 96.6641 5.8724 96.6641 6.16406ZM97.7578 8.625V8.78906H97.8398C97.9492 8.7526 98.0039 8.67057 98.0039 8.54297V8.35156H97.8945C97.8034 8.40625 97.7578 8.4974 97.7578 8.625ZM96.6641 10.9766V11.0039C96.8828 11.0039 96.9922 10.8581 96.9922 10.5664V10.4297L96.9648 10.4023V10.375C96.8372 10.375 96.737 10.5755 96.6641 10.9766ZM102.953 10.5391L102.871 10.4844V10.5117V10.7031H102.953V10.5391ZM96.7188 11.1133H96.5547V11.25H96.6641L96.7188 11.168V11.1133ZM102.871 11.2773V11.6602C102.871 11.7878 102.898 11.8516 102.953 11.8516L103.008 11.7695V11.5781C103.008 11.4141 102.962 11.3138 102.871 11.2773ZM96.1719 12.6172L96.0898 12.6719V12.7266H96.1719L96.2539 12.6445V12.6172H96.1719ZM95.7617 13.7383L95.8438 13.8477H95.9258L96.3359 13.7656V13.7383C96.2995 13.6471 96.2174 13.6016 96.0898 13.6016H95.9805C95.8711 13.6016 95.7982 13.6471 95.7617 13.7383ZM105.359 13.7383L104.566 13.8203V13.875C104.621 13.9479 104.812 14.0026 105.141 14.0391C105.286 14.0391 105.396 13.9753 105.469 13.8477V13.7656C105.469 13.7474 105.432 13.7383 105.359 13.7383ZM97.2109 13.875L97.2656 13.957L97.8945 13.875V13.8477C97.8945 13.7747 97.7487 13.7383 97.457 13.7383C97.293 13.7565 97.2109 13.8021 97.2109 13.875ZM98.8789 14.6133C99.2799 14.7227 100.337 14.7773 102.051 14.7773C102.342 14.7773 102.543 14.6953 102.652 14.5312C102.652 14.513 102.497 14.4857 102.188 14.4492C99.9818 14.4674 98.8789 14.5221 98.8789 14.6133ZM104.129 14.4492L104.047 14.5039V14.5586L104.238 14.7227L104.102 14.9414V14.9688C104.12 15.0234 104.211 15.0508 104.375 15.0508H104.621C104.876 15.0508 105.132 15.0234 105.387 14.9688C105.387 14.9323 105.168 14.8503 104.73 14.7227C104.658 14.5404 104.493 14.4492 104.238 14.4492H104.129ZM103.062 16.0898V16.1992L103.145 16.2539L103.172 16.1992V15.8984C103.099 15.9167 103.062 15.9805 103.062 16.0898ZM103.746 19.3711C103.764 19.5534 103.81 19.6445 103.883 19.6445L103.938 19.6172V19.2891C103.938 19.1432 103.91 19.0521 103.855 19.0156C103.783 19.0156 103.746 19.1341 103.746 19.3711ZM102.98 20.3828V20.4375H103.008C103.117 20.3828 103.172 20.2826 103.172 20.1367C103.044 20.1549 102.98 20.237 102.98 20.3828ZM115.586 1.32422C116.844 1.32422 118.02 1.73438 119.113 2.55469L120.617 4.79688C120.909 5.17969 121.173 5.69922 121.41 6.35547C121.702 6.79297 121.966 7.65885 122.203 8.95312L122.258 9.63672C122.258 10.056 122.176 10.5299 122.012 11.0586V11.25C122.012 11.4688 122.094 11.5781 122.258 11.5781L122.203 12.6172V13.8477C122.203 14.3945 121.939 15.4792 121.41 17.1016C121.264 17.4297 121.009 17.6849 120.645 17.8672C120.316 18.1953 119.286 18.7878 117.555 19.6445C116.807 20.1732 116.087 20.4375 115.395 20.4375H115.367C113.453 20.2734 112.496 20.1185 112.496 19.9727C111.949 19.7721 111.329 19.2799 110.637 18.4961V18.4141L110.719 18.332H110.801L110.91 18.4141H110.992V18.332C110.956 18.1315 110.865 18.0312 110.719 18.0312H110.555L110.527 18.168C110.29 18.0951 110.008 17.6758 109.68 16.9102C109.552 16.7826 109.452 16.582 109.379 16.3086C108.832 15.707 108.44 13.7383 108.203 10.4023V10.293C108.331 8.52474 108.449 7.64062 108.559 7.64062C108.577 6.94792 108.85 5.9362 109.379 4.60547C109.616 4.36849 109.835 4.00391 110.035 3.51172C111.329 2.05339 113.18 1.32422 115.586 1.32422ZM115.668 1.59766H115.094V1.65234C115.094 1.74349 115.331 1.83464 115.805 1.92578H116.215V1.78906C116.142 1.66146 115.96 1.59766 115.668 1.59766ZM116.926 1.78906L116.871 1.87109L117.254 1.95312H117.363L117.445 1.92578C117.445 1.83464 117.299 1.78906 117.008 1.78906H116.926ZM118.047 2.17188H118.02V2.19922C118.493 2.80078 118.904 3.13802 119.25 3.21094H119.277V3.15625C118.785 2.5 118.375 2.17188 118.047 2.17188ZM117.527 2.39062L117.445 2.44531C117.573 2.6276 117.71 2.71875 117.855 2.71875H118.047V2.66406C118.047 2.55469 117.901 2.46354 117.609 2.39062H117.527ZM116.27 2.41797H115.887V2.44531C116.087 2.59115 116.443 2.69141 116.953 2.74609L117.008 2.71875V2.66406C117.008 2.59115 116.762 2.50911 116.27 2.41797ZM110.008 9.63672C110.044 10.0924 110.099 10.3841 110.172 10.5117L110.062 10.9219V11.0859L110.664 14.2031C111.065 15.3698 111.585 16.2995 112.223 16.9922C113.225 17.6484 114.009 17.9766 114.574 17.9766C115.376 17.9766 116.434 17.7122 117.746 17.1836C119.368 16.1992 120.18 15.3516 120.18 14.6406C120.471 13.6562 120.708 12.4349 120.891 10.9766V9.58203C120.891 8.23307 120.535 7.06641 119.824 6.08203C119.824 5.91797 119.286 5.35286 118.211 4.38672C117.5 3.51172 116.871 3.07422 116.324 3.07422L115.148 2.80078H114.902C113.863 2.80078 113.061 3.23828 112.496 4.11328C112.113 4.42318 111.767 4.82422 111.457 5.31641C111.275 5.31641 110.892 5.82682 110.309 6.84766C110.108 7.50391 110.008 8.43359 110.008 9.63672ZM110.992 3.70312V3.8125C111.083 3.8125 111.238 3.65755 111.457 3.34766V3.21094H111.43C111.32 3.21094 111.174 3.375 110.992 3.70312ZM110.391 4.14062H110.473L110.582 4.03125V3.97656C110.454 3.97656 110.391 4.03125 110.391 4.14062ZM111.129 4.93359H111.238C111.402 4.84245 111.503 4.74219 111.539 4.63281V4.55078H111.32C111.193 4.6237 111.129 4.7513 111.129 4.93359ZM120.207 4.87891C120.207 5.22526 120.426 5.84505 120.863 6.73828C120.936 6.75651 121.137 7.17578 121.465 7.99609C121.465 8.08724 121.492 8.13281 121.547 8.13281L121.656 8.05078V7.94141C121.547 7.48568 121.201 6.60156 120.617 5.28906C120.435 5.01562 120.298 4.87891 120.207 4.87891ZM121.602 8.76172H121.547V8.81641L121.738 9.30859C121.738 9.39974 121.656 9.60026 121.492 9.91016V9.96484C121.492 10.1107 121.556 10.2201 121.684 10.293H121.766C121.82 10.293 121.893 10.0286 121.984 9.5C121.839 9.11719 121.711 8.87109 121.602 8.76172ZM108.777 8.84375L108.668 8.95312V9.03516L108.777 9.11719L108.887 9.0625V8.92578L108.777 8.84375ZM108.777 9.60938H108.695L108.641 10.0469V10.3203C108.732 10.3203 108.777 10.1107 108.777 9.69141V9.60938ZM109.488 10.7578H109.379L109.352 11.0039C109.352 11.8789 109.589 13.0547 110.062 14.5312L110.473 15.0508H110.527V15.0234C110.382 14.5859 110.154 13.5286 109.844 11.8516C109.734 11.7422 109.616 11.3776 109.488 10.7578ZM109.242 14.5859H109.188V14.6953H109.242V14.5859ZM120.727 16.8555V16.9102H120.809C121.027 16.9102 121.273 16.4271 121.547 15.4609V15.4336L121.492 15.3242C121.365 15.3242 121.109 15.8346 120.727 16.8555ZM109.516 16.2539V16.3359C109.68 16.3906 109.917 16.7005 110.227 17.2656L110.473 17.4297H110.637V17.4023C110.29 16.6367 110.008 16.1901 109.789 16.0625H109.762C109.671 16.0807 109.589 16.1445 109.516 16.2539ZM113.07 18.1406L111.703 17.375V17.4297C112.25 18.25 112.934 18.6602 113.754 18.6602C113.973 18.6419 114.082 18.6055 114.082 18.5508C114.046 18.4961 113.708 18.3594 113.07 18.1406ZM110.801 17.4844H110.637L110.582 17.5938C110.6 17.6667 110.673 17.7031 110.801 17.7031H110.855L110.91 17.6484V17.5938L110.801 17.4844ZM114.109 18.7148L114.082 18.7422C114.082 18.8516 114.246 18.9336 114.574 18.9883H114.793C114.993 18.9518 115.094 18.8607 115.094 18.7148H115.367C115.75 18.7148 116.543 18.4961 117.746 18.0586V18.0312L117.691 17.9766H117.473L116.324 18.2773C115.832 18.2773 115.094 18.4232 114.109 18.7148ZM115.395 19.3711V19.3984L115.449 19.4531H115.887C116.762 19.2708 117.199 19.125 117.199 19.0156C117.509 18.9427 117.71 18.8242 117.801 18.6602V18.5781H117.746C116.689 18.8151 115.905 19.0794 115.395 19.3711ZM111.238 18.7422H111.211C111.211 18.9062 111.375 19.043 111.703 19.1523H111.73C111.53 18.8789 111.366 18.7422 111.238 18.7422ZM113.453 19.2344V19.3711C114.109 19.681 114.52 19.8359 114.684 19.8359H114.902V19.6719C114.337 19.3802 113.854 19.2344 113.453 19.2344Z" fill="white"/>
</svg>
