<svg width="75" height="22" viewBox="0 0 75 22" fill="none" xmlns="http://www.w3.org/2000/svg">
<path d="M0.134766 1.05078L0.216797 0.996094C1.2194 1.10547 2.95117 1.2513 5.41211 1.43359C5.72201 1.57943 7.07096 1.77083 9.45898 2.00781C10.3887 2.22656 10.8535 2.47266 10.8535 2.74609C10.7806 3.0013 10.4798 3.44792 9.95117 4.08594C9.95117 4.14062 9.5319 4.69661 8.69336 5.75391C8.69336 5.91797 8.20117 6.44661 7.2168 7.33984L6.91602 7.75V7.83203C7.18945 7.83203 7.7819 7.74089 8.69336 7.55859C9.00326 7.55859 9.77799 7.93229 11.0176 8.67969C11.3457 9.04427 11.6738 9.75521 12.002 10.8125V11.1133C12.002 13.5378 11.7923 15.0417 11.373 15.625C11.0267 16.6276 10.0788 17.6667 8.5293 18.7422C7.58138 19.1979 6.19596 19.6263 4.37305 20.0273C4.1543 20.1003 3.78971 20.1367 3.2793 20.1367H3.08789L2.92383 20.1914C2.08529 20.1914 1.38346 20 0.818359 19.6172V19.5352C0.873047 19.4987 1.05534 19.125 1.36523 18.4141H1.41992H1.99414H2.29492C3.8444 18.4141 5.0293 18.0039 5.84961 17.1836L8.20117 15.6797C9.0944 14.8776 9.58659 14.3034 9.67773 13.957C10.0423 13.3737 10.2246 12.4167 10.2246 11.0859C10.2064 10.9036 10.179 10.8125 10.1426 10.8125L10.2246 10.5938C10.2246 10.2292 10.0423 9.9375 9.67773 9.71875C9.5319 9.35417 9.24935 9.17188 8.83008 9.17188H8.14648C7.7819 9.17188 7.59961 9.21745 7.59961 9.30859V9.36328C8.34701 9.36328 8.93034 9.54557 9.34961 9.91016V9.96484L9.26758 10.0195C9.10352 10.0195 8.87565 9.89193 8.58398 9.63672L8.33789 9.60938C6.9707 9.60938 5.30273 10.0742 3.33398 11.0039L3.06055 11.168L2.92383 11.1133V10.8945C2.92383 10.7669 2.83268 10.612 2.65039 10.4297V10.4023C2.65039 10.3477 2.86003 9.85547 3.2793 8.92578C3.35221 8.61589 3.51628 8.30599 3.77148 7.99609L4.89258 6.30078C5.31185 5.38932 5.71289 4.83333 6.0957 4.63281C6.25977 4.45052 6.3418 4.27734 6.3418 4.11328V4.03125C6.14128 3.88542 5.9681 3.8125 5.82227 3.8125L0.708984 3.70312C0.544922 3.70312 0.444661 3.54818 0.408203 3.23828V3.12891L0.435547 3.01953V2.91016C0.380859 2.76432 0.280599 2.14453 0.134766 1.05078ZM1.25586 1.35156L1.14648 1.46094V1.73438H1.20117H1.55664H1.61133L2.29492 1.78906L2.4043 1.67969C2.07617 1.46094 1.69336 1.35156 1.25586 1.35156ZM0.490234 1.78906C0.526693 1.88021 0.599609 1.92578 0.708984 1.92578L0.763672 1.84375V1.78906L0.681641 1.67969H0.572266C0.517578 1.67969 0.490234 1.71615 0.490234 1.78906ZM3.93555 1.87109H3.85352V1.92578H3.88086L3.93555 1.87109ZM9.13086 2.22656H8.5293C8.5293 2.33594 8.70247 2.39974 9.04883 2.41797H9.10352L9.21289 2.33594V2.30859L9.13086 2.22656ZM2.8418 2.39062C3.80794 2.5 4.87435 2.55469 6.04102 2.55469H6.36914C6.36914 2.42708 5.70378 2.33594 4.37305 2.28125H3.63477C3.10612 2.28125 2.8418 2.31771 2.8418 2.39062ZM1.41992 2.39062L1.31055 2.41797C1.31055 2.58203 1.76628 2.69141 2.67773 2.74609L2.73242 2.71875V2.66406C2.49544 2.48177 2.10352 2.39062 1.55664 2.39062H1.41992ZM10.0332 2.71875V2.74609C10.0514 2.81901 10.1243 2.85547 10.252 2.85547H10.3613C10.4342 2.85547 10.498 2.81901 10.5527 2.74609C10.5527 2.63672 10.4434 2.58203 10.2246 2.58203C10.1517 2.61849 10.0879 2.66406 10.0332 2.71875ZM3.19727 2.63672L3.16992 2.66406V2.69141C3.16992 2.78255 3.48893 2.82812 4.12695 2.82812H5.11133C5.11133 2.71875 4.47331 2.65495 3.19727 2.63672ZM6.56055 2.85547H5.84961V2.91016L7.2168 3.12891L8.58398 3.01953V2.96484C8.23763 2.89193 7.56315 2.85547 6.56055 2.85547ZM0.873047 3.07422V3.12891C0.873047 3.27474 1.24674 3.34766 1.99414 3.34766H3.11523V3.26562C3.11523 3.19271 2.72331 3.14714 1.93945 3.12891C1.93945 3.03776 1.71159 2.98307 1.25586 2.96484H1.14648C0.982422 2.96484 0.891276 3.0013 0.873047 3.07422ZM4.1543 3.26562H3.58008C3.58008 3.35677 3.81706 3.40234 4.29102 3.40234H4.37305C4.37305 3.3112 4.30013 3.26562 4.1543 3.26562ZM9.45898 3.62109L9.21289 3.8125C9.26758 4.06771 9.35872 4.19531 9.48633 4.19531C9.61393 4.04948 9.67773 3.92188 9.67773 3.8125V3.67578L9.62305 3.62109H9.45898ZM6.91602 4.00391L6.86133 4.08594V4.14062H7.02539L7.08008 4.08594V4.00391H6.91602ZM7.08008 4.60547V4.6875H7.13477C7.35352 4.6875 7.52669 4.52344 7.6543 4.19531L7.59961 4.16797H7.57227C7.24414 4.25911 7.08008 4.40495 7.08008 4.60547ZM9.13086 4.55078H8.99414V4.63281H9.07617L9.13086 4.60547V4.55078ZM8.85742 4.79688H8.80273V4.87891H8.85742V4.79688ZM7.2168 6.51953L7.18945 6.60156L7.24414 6.68359C7.62695 6.59245 8.00977 6.28255 8.39258 5.75391L8.5293 5.39844L8.50195 5.37109H8.33789C8.11914 5.37109 7.74544 5.75391 7.2168 6.51953ZM5.76758 6.57422H5.82227C6.0957 6.41016 6.23242 6.22786 6.23242 6.02734V6H6.17773C5.9043 6.07292 5.76758 6.26432 5.76758 6.57422ZM6.3418 6.46484V6.57422H6.42383C6.55143 6.46484 6.61523 6.36458 6.61523 6.27344L6.58789 6.24609C6.51497 6.28255 6.43294 6.35547 6.3418 6.46484ZM7.05273 6.875L6.9707 6.95703V7.09375H7.05273L7.10742 7.03906V6.875H7.05273ZM4.1543 7.83203V7.88672L4.20898 7.94141H4.45508L4.97461 7.53125L5.00195 7.36719V7.3125L4.94727 7.25781H4.89258C4.60091 7.33073 4.35482 7.52214 4.1543 7.83203ZM6.61523 8.73438V8.76172H6.64258L7.76367 8.40625C8.6569 8.4974 9.19466 8.57031 9.37695 8.625C9.4681 8.625 9.52279 8.58854 9.54102 8.51562H9.56836C10.0241 8.86198 10.3796 9.03516 10.6348 9.03516H10.7441L10.7715 8.95312V8.92578C10.7715 8.72526 10.1426 8.47005 8.88477 8.16016C8.83008 8.16016 8.77539 8.08724 8.7207 7.94141L8.58398 7.83203H8.50195C8.06445 7.83203 7.60872 8.05078 7.13477 8.48828C6.80664 8.57943 6.63346 8.66146 6.61523 8.73438ZM6.12305 7.94141H6.0957V8.05078L6.12305 8.07812H6.23242V8.05078L6.12305 7.94141ZM3.77148 8.76172V8.84375H3.79883C4.03581 8.71615 4.20898 8.50651 4.31836 8.21484H4.26367C4.09961 8.30599 3.93555 8.48828 3.77148 8.76172ZM4.64648 8.84375V9.00781H4.75586C4.97461 9.00781 5.13867 8.83464 5.24805 8.48828L5.16602 8.40625C4.98372 8.47917 4.81055 8.625 4.64648 8.84375ZM4.86523 9.71875V9.74609H4.94727C6.16862 9.45443 6.7793 9.24479 6.7793 9.11719V9.08984H6.69727C6.11393 9.14453 5.50326 9.35417 4.86523 9.71875ZM3.58008 9.80078V9.88281L3.60742 9.91016V9.96484C4.20898 9.85547 4.66471 9.68229 4.97461 9.44531V9.41797L4.89258 9.30859C4.27279 9.4362 3.83529 9.60026 3.58008 9.80078ZM10.6621 9.30859H10.3613V9.36328C10.4525 9.61849 10.5801 9.74609 10.7441 9.74609H10.9355C11.1178 9.74609 11.2272 9.70052 11.2637 9.60938C11.0996 9.40885 10.8991 9.30859 10.6621 9.30859ZM11.0449 10.0469L11.0176 10.1289V10.1562C11.0176 10.3021 11.1634 10.5755 11.4551 10.9766L11.4277 11.4961V12.125C11.4277 12.3255 11.4642 12.4349 11.5371 12.4531H11.5918L11.6465 11.8516V10.8945C11.6465 10.5846 11.4824 10.3021 11.1543 10.0469H11.0449ZM3.11523 10.375V10.4023L3.16992 10.4844H3.41602C3.58008 10.4844 3.67122 10.4479 3.68945 10.375V10.293C3.65299 10.2018 3.58008 10.1562 3.4707 10.1562H3.41602C3.30664 10.1562 3.20638 10.2292 3.11523 10.375ZM9.86914 10.375V10.293L10.0332 10.4844H9.97852L9.86914 10.375ZM10.5254 11.0312H10.4707V11.0859L10.5254 11.168H10.5801V11.0859L10.5254 11.0312ZM10.3613 12.5352V12.6445L10.416 12.7266C10.6348 12.362 10.7441 12.043 10.7441 11.7695V11.4414H10.6621C10.4616 11.6784 10.3613 12.043 10.3613 12.5352ZM11.5918 12.7266L11.3184 13.2461C11.3366 13.319 11.3822 13.3737 11.4551 13.4102H11.5098C11.6374 13.3555 11.7012 13.237 11.7012 13.0547C11.6829 12.8359 11.6465 12.7266 11.5918 12.7266ZM10.5254 14.0391V14.0938H10.6348L10.7715 13.9297V13.7656H10.6895C10.5801 13.8385 10.5254 13.9297 10.5254 14.0391ZM10.2793 14.9414L10.3613 14.9688L10.9082 14.6133V14.5586L10.8262 14.5039H10.7715C10.6257 14.5039 10.4616 14.6497 10.2793 14.9414ZM9.10352 15.7891H9.21289C9.39518 15.7891 9.58659 15.6797 9.78711 15.4609V15.4062L9.67773 15.1055L9.78711 14.832C9.62305 14.832 9.45898 15.0417 9.29492 15.4609C9.16732 15.5885 9.10352 15.6979 9.10352 15.7891ZM11.0176 15.0234L10.9355 15.1055V15.1328H11.0449V15.0234H11.0176ZM10.0332 15.8984V15.9531L10.2246 15.9805H10.416C10.6895 15.9622 10.8262 15.8529 10.8262 15.6523C10.7897 15.5612 10.7259 15.5156 10.6348 15.5156C10.4525 15.5156 10.252 15.6432 10.0332 15.8984ZM5.76758 17.7031H5.84961C7.49023 17.0104 8.31055 16.5091 8.31055 16.1992H8.14648C7.76367 16.3451 7.10742 16.737 6.17773 17.375C5.9043 17.5573 5.76758 17.6667 5.76758 17.7031ZM10.0879 16.582V16.6094H10.2246C10.2793 16.6094 10.3431 16.5273 10.416 16.3633L10.3613 16.3086C10.179 16.3633 10.0879 16.4544 10.0879 16.582ZM9.78711 16.3633L9.67773 16.4727V16.5H9.81445L9.89648 16.4453L9.81445 16.3633H9.78711ZM9.07617 17.457H9.10352C9.28581 17.457 9.49544 17.3659 9.73242 17.1836C9.73242 17.1289 9.69596 17.1016 9.62305 17.1016C9.25846 17.1927 9.07617 17.3112 9.07617 17.457ZM6.9707 17.9219V17.9766H7.02539C7.4082 17.8672 7.59961 17.7669 7.59961 17.6758V17.6484H7.57227C7.35352 17.6484 7.15299 17.7396 6.9707 17.9219ZM8.69336 17.8945L8.58398 17.9766V18.0586H8.77539L8.85742 17.9492V17.8945H8.69336ZM2.24023 18.7422L2.32227 18.8242H2.78711L2.89648 18.7422C2.89648 18.6875 2.79622 18.6602 2.5957 18.6602C2.35872 18.6602 2.24023 18.6875 2.24023 18.7422ZM4.75586 18.6602L4.70117 18.7422V18.8242C4.84701 18.8242 4.93815 18.7786 4.97461 18.6875V18.6602H4.75586ZM6.9707 19.0156L7.02539 19.0703H7.05273C7.39909 18.9609 7.61784 18.8607 7.70898 18.7695L7.6543 18.6602H7.49023C7.14388 18.7331 6.9707 18.8516 6.9707 19.0156ZM1.66602 18.8789L1.55664 18.9609V19.0156H1.83008L1.91211 18.9609L1.83008 18.8789H1.66602ZM3.88086 19.4531L2.92383 19.5352L2.32227 19.3984H2.10352C1.7207 19.4349 1.5293 19.5078 1.5293 19.6172V19.6445C1.5293 19.7357 2.11263 19.8177 3.2793 19.8906C3.77148 19.8906 4.50977 19.6901 5.49414 19.2891L5.54883 19.2617V19.1523H5.49414C5.27539 19.1523 4.73763 19.2526 3.88086 19.4531ZM15.4473 5.09766C17.6895 5.09766 18.8105 5.1888 18.8105 5.37109C18.8105 5.46224 18.3822 5.50781 17.5254 5.50781L17.4707 5.58984C17.4707 5.6263 17.8626 5.65365 18.6465 5.67188L19.0566 5.97266L18.7285 6.57422L20.7793 10.0469L20.8887 10.1016C21.0892 9.95573 21.5632 9.33594 22.3105 8.24219C22.584 7.98698 22.7389 7.78646 22.7754 7.64062C22.9212 7.64062 23.1491 7.40365 23.459 6.92969C23.459 6.5651 23.5957 6.25521 23.8691 6L23.9512 6.08203C23.9512 6.20964 23.8783 6.3737 23.7324 6.57422V6.60156H23.7871C24.1517 6.23698 24.334 5.98177 24.334 5.83594V5.64453L24.3066 5.61719C24.3066 5.45312 24.5163 5.35286 24.9355 5.31641H25.6738C28.2259 5.42578 29.502 5.6263 29.502 5.91797V6.4375L29.3926 6.57422H28.709L29.4746 6.84766L29.502 6.98438V7.3125L29.3926 7.39453H29.2012C28.4902 7.41276 28.1348 7.46745 28.1348 7.55859V7.58594C29.028 7.60417 29.4746 7.65885 29.4746 7.75V7.80469L29.2559 7.99609L29.502 8.13281V8.16016L29.4199 8.26953C28.5632 8.08724 27.2142 7.99609 25.373 7.99609C24.5892 8.83464 23.8418 9.71875 23.1309 10.6484C22.3288 11.487 21.9277 11.9609 21.9277 12.0703C22.0553 12.4349 22.429 13.1094 23.0488 14.0938C23.1764 14.4401 23.6504 15.2878 24.4707 16.6367C24.4707 16.8555 24.9264 17.1198 25.8379 17.4297C26.002 17.5391 26.1842 17.5938 26.3848 17.5938L28.3262 17.4844L28.5449 17.8672V18.168C28.472 18.2591 28.4355 18.3411 28.4355 18.4141L28.4629 18.6328C28.4993 18.7604 28.5085 18.9336 28.4902 19.1523C28.472 19.3529 28.4082 19.6172 28.2988 19.9453C28.1712 20.0365 28.0527 20.082 27.9434 20.082C26.7767 19.9544 25.4551 19.8906 23.9785 19.8906H23.623L23.2129 19.9727H22.9941L22.8301 19.9453V19.918C22.9759 19.7174 23.0488 19.5443 23.0488 19.3984L23.0215 19.3711H22.9395L22.666 19.6172H22.584C22.4199 19.5807 22.3379 19.1341 22.3379 18.2773C22.3379 18.0951 22.347 17.8854 22.3652 17.6484C22.4199 17.5938 22.4473 17.5208 22.4473 17.4297C21.9004 15.8802 21.3444 14.7682 20.7793 14.0938H20.6699C20.4147 14.1667 20.1048 14.6406 19.7402 15.5156C19.4303 15.9714 19.1204 16.5365 18.8105 17.2109C18.6465 17.5938 18.4733 17.7852 18.291 17.7852L18.5918 18.332L18.8652 18.6602L18.7285 19.0156L18.8105 19.2891V19.3711L18.2637 20.0273V20.0547L18.291 20.3008L18.209 20.3555L17.334 20.2461H17.0879C16.9967 20.2461 16.2585 20.2279 14.873 20.1914C13.8522 20.1549 13.3418 20.2188 13.3418 20.3828L13.2871 20.4375H13.1777L13.2051 19.9727L13.0684 19.6445C13.196 19.6445 13.2689 19.2526 13.2871 18.4688C13.36 18.3776 13.4512 18.3138 13.5605 18.2773C13.5605 18.0586 13.6426 17.9492 13.8066 17.9492L15.9941 17.5938C16.1217 17.5026 16.2311 17.3477 16.3223 17.1289C16.4316 17.1289 16.5957 16.901 16.8145 16.4453C17.0879 16.1172 17.2337 15.9531 17.252 15.9531C17.416 15.9167 17.498 15.8802 17.498 15.8438V15.8164H17.252L17.0059 15.7891V15.707C17.1699 15.5794 17.252 15.4245 17.252 15.2422C17.7624 14.4948 18.1087 14.0299 18.291 13.8477L19.5488 12.0703C19.5488 12.0156 19.2936 11.6237 18.7832 10.8945C17.6712 9.01693 16.9694 7.98698 16.6777 7.80469C16.6777 7.76823 16.0579 7.70443 14.8184 7.61328C13.9798 7.54036 13.5605 7.44922 13.5605 7.33984C13.6335 6.46484 13.6699 5.81771 13.6699 5.39844C13.8704 5.19792 14.4629 5.09766 15.4473 5.09766ZM15.1465 5.45312L15.0918 5.50781V5.58984H15.4199V5.5625L15.2832 5.45312H15.1465ZM27.3418 6.35547H27.2598V6.46484L27.6699 6.51953H27.9434V6.4375L27.3418 6.35547ZM13.8613 6.4375L13.7793 6.57422C13.7793 6.70182 14.0527 6.79297 14.5996 6.84766H14.6816L15.0918 6.76562V6.68359C15.0918 6.62891 14.6816 6.54688 13.8613 6.4375ZM17.4707 6.4375L17.3613 6.57422C17.3978 6.62891 17.4707 6.65625 17.5801 6.65625L17.6348 6.57422L17.5254 6.4375H17.4707ZM18.291 6.51953H18.127V6.60156C18.2363 6.76562 18.3457 6.84766 18.4551 6.84766V6.68359L18.291 6.51953ZM25.1543 6.875V6.98438H25.1816C25.3275 6.98438 25.4642 6.89323 25.5918 6.71094V6.57422H25.4824C25.4095 6.59245 25.3001 6.69271 25.1543 6.875ZM15.9668 6.84766L15.748 6.79297L15.7207 6.84766L15.8301 6.95703H15.9395L15.9668 6.84766ZM27.0137 7.03906L26.6582 7.06641V7.12109L27.0684 7.14844L27.6699 7.12109V7.03906H27.0137ZM17.416 7.94141H17.334V7.99609L17.416 8.07812H17.4707V7.99609L17.416 7.94141ZM23.623 8.43359H23.6777C23.7871 8.36068 23.8509 8.28776 23.8691 8.21484L23.8418 8.16016C23.696 8.2513 23.623 8.34245 23.623 8.43359ZM17.6348 8.24219H17.5254V8.26953C17.5254 8.41536 17.6165 8.55208 17.7988 8.67969H17.8535L17.9082 8.625C17.9082 8.44271 17.8171 8.3151 17.6348 8.24219ZM21.5449 11.2773H21.5723C21.8092 11.0951 21.9277 10.9219 21.9277 10.7578C21.6725 10.9583 21.5449 11.1315 21.5449 11.2773ZM18.8105 13.9297L18.8652 13.957H18.8926C19.4212 13.2826 19.6855 12.8815 19.6855 12.7539H19.6582C19.2754 13.082 18.9928 13.474 18.8105 13.9297ZM18.291 16.9102L18.1816 17.0195V17.1016H18.209L18.3184 16.9922V16.9102H18.291ZM16.5137 17.293V17.375C16.6595 17.375 16.7598 17.3112 16.8145 17.1836L16.7871 17.1289C16.623 17.1654 16.5319 17.2201 16.5137 17.293ZM25.4277 17.4844L24.5801 17.1836L24.5254 17.2109V17.4023C24.5254 17.4935 24.6895 17.5573 25.0176 17.5938H25.3457L25.4277 17.4844ZM23.7324 18.0859L23.623 18.168C23.6777 18.2591 23.7507 18.3411 23.8418 18.4141H24.0605V18.3867C24.0605 18.1862 23.9512 18.0859 23.7324 18.0859ZM27.5059 18.4688V18.4961H27.752L27.916 18.4688V18.4141C27.916 18.3594 27.8796 18.332 27.8066 18.332C27.6061 18.3867 27.5059 18.4323 27.5059 18.4688ZM24.8535 18.7422H25.7559L26.084 18.6875V18.6602L25.8926 18.6055H25.3457C25.0176 18.6055 24.8535 18.651 24.8535 18.7422ZM13.7793 18.8242V18.8789C13.834 19.0065 13.9342 19.0703 14.0801 19.0703L14.9277 18.9609V18.9062C14.9277 18.8151 14.6178 18.7422 13.998 18.6875C13.8522 18.7422 13.7793 18.7878 13.7793 18.8242ZM24.334 18.6875H24.1973V18.7695H24.334V18.6875ZM18.0449 19.5078H17.8535V19.6172H18.127V19.5625L18.0449 19.5078ZM27.7793 19.6445H27.4512V19.7812C27.6699 19.8542 27.8796 19.8906 28.0801 19.8906L28.1074 19.8633V19.8086C28.1074 19.7539 27.998 19.6992 27.7793 19.6445ZM30.0762 1.05078L30.1582 0.996094C31.1608 1.10547 32.8926 1.2513 35.3535 1.43359C35.6634 1.57943 37.0124 1.77083 39.4004 2.00781C40.3301 2.22656 40.7949 2.47266 40.7949 2.74609C40.722 3.0013 40.4212 3.44792 39.8926 4.08594C39.8926 4.14062 39.4733 4.69661 38.6348 5.75391C38.6348 5.91797 38.1426 6.44661 37.1582 7.33984L36.8574 7.75V7.83203C37.1309 7.83203 37.7233 7.74089 38.6348 7.55859C38.9447 7.55859 39.7194 7.93229 40.959 8.67969C41.2871 9.04427 41.6152 9.75521 41.9434 10.8125V11.1133C41.9434 13.5378 41.7337 15.0417 41.3145 15.625C40.9681 16.6276 40.0202 17.6667 38.4707 18.7422C37.5228 19.1979 36.1374 19.6263 34.3145 20.0273C34.0957 20.1003 33.7311 20.1367 33.2207 20.1367H33.0293L32.8652 20.1914C32.0267 20.1914 31.3249 20 30.7598 19.6172V19.5352C30.8145 19.4987 30.9967 19.125 31.3066 18.4141H31.3613H31.9355H32.2363C33.7858 18.4141 34.9707 18.0039 35.791 17.1836L38.1426 15.6797C39.0358 14.8776 39.528 14.3034 39.6191 13.957C39.9837 13.3737 40.166 12.4167 40.166 11.0859C40.1478 10.9036 40.1204 10.8125 40.084 10.8125L40.166 10.5938C40.166 10.2292 39.9837 9.9375 39.6191 9.71875C39.4733 9.35417 39.1908 9.17188 38.7715 9.17188H38.0879C37.7233 9.17188 37.541 9.21745 37.541 9.30859V9.36328C38.2884 9.36328 38.8717 9.54557 39.291 9.91016V9.96484L39.209 10.0195C39.0449 10.0195 38.8171 9.89193 38.5254 9.63672L38.2793 9.60938C36.9121 9.60938 35.2441 10.0742 33.2754 11.0039L33.002 11.168L32.8652 11.1133V10.8945C32.8652 10.7669 32.7741 10.612 32.5918 10.4297V10.4023C32.5918 10.3477 32.8014 9.85547 33.2207 8.92578C33.2936 8.61589 33.4577 8.30599 33.7129 7.99609L34.834 6.30078C35.2533 5.38932 35.6543 4.83333 36.0371 4.63281C36.2012 4.45052 36.2832 4.27734 36.2832 4.11328V4.03125C36.0827 3.88542 35.9095 3.8125 35.7637 3.8125L30.6504 3.70312C30.4863 3.70312 30.3861 3.54818 30.3496 3.23828V3.12891L30.377 3.01953V2.91016C30.3223 2.76432 30.222 2.14453 30.0762 1.05078ZM31.1973 1.35156L31.0879 1.46094V1.73438H31.1426H31.498H31.5527L32.2363 1.78906L32.3457 1.67969C32.0176 1.46094 31.6348 1.35156 31.1973 1.35156ZM30.4316 1.78906C30.4681 1.88021 30.541 1.92578 30.6504 1.92578L30.7051 1.84375V1.78906L30.623 1.67969H30.5137C30.459 1.67969 30.4316 1.71615 30.4316 1.78906ZM33.877 1.87109H33.7949V1.92578H33.8223L33.877 1.87109ZM39.0723 2.22656H38.4707C38.4707 2.33594 38.6439 2.39974 38.9902 2.41797H39.0449L39.1543 2.33594V2.30859L39.0723 2.22656ZM32.7832 2.39062C33.7493 2.5 34.8158 2.55469 35.9824 2.55469H36.3105C36.3105 2.42708 35.6452 2.33594 34.3145 2.28125H33.5762C33.0475 2.28125 32.7832 2.31771 32.7832 2.39062ZM31.3613 2.39062L31.252 2.41797C31.252 2.58203 31.7077 2.69141 32.6191 2.74609L32.6738 2.71875V2.66406C32.4368 2.48177 32.0449 2.39062 31.498 2.39062H31.3613ZM39.9746 2.71875V2.74609C39.9928 2.81901 40.0658 2.85547 40.1934 2.85547H40.3027C40.3757 2.85547 40.4395 2.81901 40.4941 2.74609C40.4941 2.63672 40.3848 2.58203 40.166 2.58203C40.0931 2.61849 40.0293 2.66406 39.9746 2.71875ZM33.1387 2.63672L33.1113 2.66406V2.69141C33.1113 2.78255 33.4303 2.82812 34.0684 2.82812H35.0527C35.0527 2.71875 34.4147 2.65495 33.1387 2.63672ZM36.502 2.85547H35.791V2.91016L37.1582 3.12891L38.5254 3.01953V2.96484C38.179 2.89193 37.5046 2.85547 36.502 2.85547ZM30.8145 3.07422V3.12891C30.8145 3.27474 31.1882 3.34766 31.9355 3.34766H33.0566V3.26562C33.0566 3.19271 32.6647 3.14714 31.8809 3.12891C31.8809 3.03776 31.653 2.98307 31.1973 2.96484H31.0879C30.9238 2.96484 30.8327 3.0013 30.8145 3.07422ZM34.0957 3.26562H33.5215C33.5215 3.35677 33.7585 3.40234 34.2324 3.40234H34.3145C34.3145 3.3112 34.2415 3.26562 34.0957 3.26562ZM39.4004 3.62109L39.1543 3.8125C39.209 4.06771 39.3001 4.19531 39.4277 4.19531C39.5553 4.04948 39.6191 3.92188 39.6191 3.8125V3.67578L39.5645 3.62109H39.4004ZM36.8574 4.00391L36.8027 4.08594V4.14062H36.9668L37.0215 4.08594V4.00391H36.8574ZM37.0215 4.60547V4.6875H37.0762C37.2949 4.6875 37.4681 4.52344 37.5957 4.19531L37.541 4.16797H37.5137C37.1855 4.25911 37.0215 4.40495 37.0215 4.60547ZM39.0723 4.55078H38.9355V4.63281H39.0176L39.0723 4.60547V4.55078ZM38.7988 4.79688H38.7441V4.87891H38.7988V4.79688ZM37.1582 6.51953L37.1309 6.60156L37.1855 6.68359C37.5684 6.59245 37.9512 6.28255 38.334 5.75391L38.4707 5.39844L38.4434 5.37109H38.2793C38.0605 5.37109 37.6868 5.75391 37.1582 6.51953ZM35.709 6.57422H35.7637C36.0371 6.41016 36.1738 6.22786 36.1738 6.02734V6H36.1191C35.8457 6.07292 35.709 6.26432 35.709 6.57422ZM36.2832 6.46484V6.57422H36.3652C36.4928 6.46484 36.5566 6.36458 36.5566 6.27344L36.5293 6.24609C36.4564 6.28255 36.3743 6.35547 36.2832 6.46484ZM36.9941 6.875L36.9121 6.95703V7.09375H36.9941L37.0488 7.03906V6.875H36.9941ZM34.0957 7.83203V7.88672L34.1504 7.94141H34.3965L34.916 7.53125L34.9434 7.36719V7.3125L34.8887 7.25781H34.834C34.5423 7.33073 34.2962 7.52214 34.0957 7.83203ZM36.5566 8.73438V8.76172H36.584L37.7051 8.40625C38.5983 8.4974 39.1361 8.57031 39.3184 8.625C39.4095 8.625 39.4642 8.58854 39.4824 8.51562H39.5098C39.9655 8.86198 40.321 9.03516 40.5762 9.03516H40.6855L40.7129 8.95312V8.92578C40.7129 8.72526 40.084 8.47005 38.8262 8.16016C38.7715 8.16016 38.7168 8.08724 38.6621 7.94141L38.5254 7.83203H38.4434C38.0059 7.83203 37.5501 8.05078 37.0762 8.48828C36.748 8.57943 36.5749 8.66146 36.5566 8.73438ZM36.0645 7.94141H36.0371V8.05078L36.0645 8.07812H36.1738V8.05078L36.0645 7.94141ZM33.7129 8.76172V8.84375H33.7402C33.9772 8.71615 34.1504 8.50651 34.2598 8.21484H34.2051C34.041 8.30599 33.877 8.48828 33.7129 8.76172ZM34.5879 8.84375V9.00781H34.6973C34.916 9.00781 35.0801 8.83464 35.1895 8.48828L35.1074 8.40625C34.9251 8.47917 34.752 8.625 34.5879 8.84375ZM34.8066 9.71875V9.74609H34.8887C36.11 9.45443 36.7207 9.24479 36.7207 9.11719V9.08984H36.6387C36.0553 9.14453 35.4447 9.35417 34.8066 9.71875ZM33.5215 9.80078V9.88281L33.5488 9.91016V9.96484C34.1504 9.85547 34.6061 9.68229 34.916 9.44531V9.41797L34.834 9.30859C34.2142 9.4362 33.7767 9.60026 33.5215 9.80078ZM40.6035 9.30859H40.3027V9.36328C40.3939 9.61849 40.5215 9.74609 40.6855 9.74609H40.877C41.0592 9.74609 41.1686 9.70052 41.2051 9.60938C41.041 9.40885 40.8405 9.30859 40.6035 9.30859ZM40.9863 10.0469L40.959 10.1289V10.1562C40.959 10.3021 41.1048 10.5755 41.3965 10.9766L41.3691 11.4961V12.125C41.3691 12.3255 41.4056 12.4349 41.4785 12.4531H41.5332L41.5879 11.8516V10.8945C41.5879 10.5846 41.4238 10.3021 41.0957 10.0469H40.9863ZM33.0566 10.375V10.4023L33.1113 10.4844H33.3574C33.5215 10.4844 33.6126 10.4479 33.6309 10.375V10.293C33.5944 10.2018 33.5215 10.1562 33.4121 10.1562H33.3574C33.248 10.1562 33.1478 10.2292 33.0566 10.375ZM39.8105 10.375V10.293L39.9746 10.4844H39.9199L39.8105 10.375ZM40.4668 11.0312H40.4121V11.0859L40.4668 11.168H40.5215V11.0859L40.4668 11.0312ZM40.3027 12.5352V12.6445L40.3574 12.7266C40.5762 12.362 40.6855 12.043 40.6855 11.7695V11.4414H40.6035C40.403 11.6784 40.3027 12.043 40.3027 12.5352ZM41.5332 12.7266L41.2598 13.2461C41.278 13.319 41.3236 13.3737 41.3965 13.4102H41.4512C41.5788 13.3555 41.6426 13.237 41.6426 13.0547C41.6243 12.8359 41.5879 12.7266 41.5332 12.7266ZM40.4668 14.0391V14.0938H40.5762L40.7129 13.9297V13.7656H40.6309C40.5215 13.8385 40.4668 13.9297 40.4668 14.0391ZM40.2207 14.9414L40.3027 14.9688L40.8496 14.6133V14.5586L40.7676 14.5039H40.7129C40.5671 14.5039 40.403 14.6497 40.2207 14.9414ZM39.0449 15.7891H39.1543C39.3366 15.7891 39.528 15.6797 39.7285 15.4609V15.4062L39.6191 15.1055L39.7285 14.832C39.5645 14.832 39.4004 15.0417 39.2363 15.4609C39.1087 15.5885 39.0449 15.6979 39.0449 15.7891ZM40.959 15.0234L40.877 15.1055V15.1328H40.9863V15.0234H40.959ZM39.9746 15.8984V15.9531L40.166 15.9805H40.3574C40.6309 15.9622 40.7676 15.8529 40.7676 15.6523C40.7311 15.5612 40.6673 15.5156 40.5762 15.5156C40.3939 15.5156 40.1934 15.6432 39.9746 15.8984ZM35.709 17.7031H35.791C37.4316 17.0104 38.252 16.5091 38.252 16.1992H38.0879C37.7051 16.3451 37.0488 16.737 36.1191 17.375C35.8457 17.5573 35.709 17.6667 35.709 17.7031ZM40.0293 16.582V16.6094H40.166C40.2207 16.6094 40.2845 16.5273 40.3574 16.3633L40.3027 16.3086C40.1204 16.3633 40.0293 16.4544 40.0293 16.582ZM39.7285 16.3633L39.6191 16.4727V16.5H39.7559L39.8379 16.4453L39.7559 16.3633H39.7285ZM39.0176 17.457H39.0449C39.2272 17.457 39.4368 17.3659 39.6738 17.1836C39.6738 17.1289 39.6374 17.1016 39.5645 17.1016C39.1999 17.1927 39.0176 17.3112 39.0176 17.457ZM36.9121 17.9219V17.9766H36.9668C37.3496 17.8672 37.541 17.7669 37.541 17.6758V17.6484H37.5137C37.2949 17.6484 37.0944 17.7396 36.9121 17.9219ZM38.6348 17.8945L38.5254 17.9766V18.0586H38.7168L38.7988 17.9492V17.8945H38.6348ZM32.1816 18.7422L32.2637 18.8242H32.7285L32.8379 18.7422C32.8379 18.6875 32.7376 18.6602 32.5371 18.6602C32.3001 18.6602 32.1816 18.6875 32.1816 18.7422ZM34.6973 18.6602L34.6426 18.7422V18.8242C34.7884 18.8242 34.8796 18.7786 34.916 18.6875V18.6602H34.6973ZM36.9121 19.0156L36.9668 19.0703H36.9941C37.3405 18.9609 37.5592 18.8607 37.6504 18.7695L37.5957 18.6602H37.4316C37.0853 18.7331 36.9121 18.8516 36.9121 19.0156ZM31.6074 18.8789L31.498 18.9609V19.0156H31.7715L31.8535 18.9609L31.7715 18.8789H31.6074ZM33.8223 19.4531L32.8652 19.5352L32.2637 19.3984H32.0449C31.6621 19.4349 31.4707 19.5078 31.4707 19.6172V19.6445C31.4707 19.7357 32.054 19.8177 33.2207 19.8906C33.7129 19.8906 34.4512 19.6901 35.4355 19.2891L35.4902 19.2617V19.1523H35.4355C35.2168 19.1523 34.679 19.2526 33.8223 19.4531ZM52.5527 13.9844L52.6621 14.0117C52.7715 14.0482 52.7624 14.7773 52.6348 16.1992H52.6621C52.6439 16.3815 51.7051 16.3815 49.8457 16.1992C47.7676 16.3268 46.4095 16.3359 45.7715 16.2266V16.1992C45.7897 16.0352 46.5827 15.9714 48.1504 16.0078C48.7884 15.9896 49.1257 15.9349 49.1621 15.8438L49.1895 15.8164L48.916 15.7617C46.765 15.5794 45.653 15.707 45.5801 16.1445L45.3613 16.1992C44.7415 16.1263 44.5319 15.4427 44.7324 14.1484C44.7871 13.8203 45.5254 13.6836 46.9473 13.7383C46.9473 13.7018 47.0475 13.7018 47.248 13.7383L47.7676 13.9297L48.0137 13.957L52.5527 13.9844ZM51.9238 14.3398L51.7598 14.3672L51.7324 14.4492L51.9785 14.4766H52.1426L52.1699 14.3945L51.9238 14.3398ZM50.502 14.4766L50.8574 14.5312C51.0215 14.5677 51.1309 14.5404 51.1855 14.4492V14.4219H51.1035C50.7207 14.4036 50.5202 14.4219 50.502 14.4766ZM49.0254 14.4766V14.5586H49.0801C49.2441 14.5951 49.3444 14.5677 49.3809 14.4766V14.4492H49.2715C49.1439 14.431 49.0618 14.4401 49.0254 14.4766ZM50.7207 15.0781L51.2949 15.1875C51.8965 15.2422 52.2337 15.2057 52.3066 15.0781V15.0234L52.1699 14.9688C51.2402 14.9505 50.7572 14.987 50.7207 15.0781ZM47.7129 14.5312L47.6855 14.6406H47.7402C48.1413 14.6953 48.4421 14.6589 48.6426 14.5312V14.5039L48.5879 14.4766C48.4238 14.4583 48.1322 14.4766 47.7129 14.5312ZM45.2793 14.1484L45.1973 14.2305L45.1152 14.5586L45.1973 14.6406V14.668C45.252 14.668 45.3249 14.5586 45.416 14.3398V14.2305L45.3887 14.1484H45.2793ZM46.127 14.2578L45.9902 14.3672L45.9629 14.3945L46.127 14.4219L46.1816 14.3672L46.209 14.2852L46.127 14.2578ZM50.2012 15.0234H50.1191V15.0781L50.2832 15.1328L50.2012 15.0234ZM49.7363 15.7891V15.8164H49.7637C51.3678 16.0169 52.1882 16.0716 52.2246 15.9805V15.9531C52.2246 15.8984 52.179 15.8255 52.0879 15.7344H52.0605C51.4954 15.6615 50.7207 15.6797 49.7363 15.7891ZM45.1426 14.8867L45.0605 14.9414V15.0234H45.1152L45.1973 14.9688V14.9141L45.1426 14.8867ZM52.7715 10.5938L52.8809 10.6211C53.0267 10.6393 52.9447 11.3503 52.6348 12.7539L52.6621 12.7812C52.6074 12.9635 51.6777 12.8906 49.873 12.5625C47.7949 12.4531 46.4277 12.3255 45.7715 12.1797L45.7988 12.0977C45.8535 11.9518 46.6374 11.9792 48.1504 12.1797C48.8249 12.2161 49.1803 12.1888 49.2168 12.0977V12.0703L48.9707 12.0156C46.8379 11.5964 45.7168 11.6055 45.6074 12.043L45.3887 12.0977C44.7871 11.9518 44.6504 11.2591 44.9785 10.0195C45.0514 9.69141 45.7988 9.61849 47.2207 9.80078C47.2389 9.78255 47.3392 9.78255 47.5215 9.80078L48.0137 10.0469L48.2324 10.1016L52.7715 10.5938ZM52.0879 10.8945H51.9238L51.8965 10.9492L52.1426 11.0312H52.334V10.9766L52.0879 10.8945ZM50.6934 10.8945L51.0215 10.9766C51.2038 11.013 51.3132 10.9857 51.3496 10.8945L51.2949 10.8672C50.8939 10.8125 50.6934 10.8216 50.6934 10.8945ZM49.2168 10.7578V10.8125C49.3991 10.8672 49.5176 10.8581 49.5723 10.7852L49.5996 10.7305L49.4355 10.7031C49.3262 10.6849 49.2533 10.7031 49.2168 10.7578ZM50.8574 11.4961L51.4043 11.6328C51.9694 11.7604 52.2975 11.7695 52.3887 11.6602L52.416 11.5781L52.3066 11.5234C51.377 11.4141 50.8939 11.4049 50.8574 11.4961ZM47.9043 10.6484L47.877 10.7578L47.9043 10.7852C48.2324 10.8581 48.5423 10.849 48.834 10.7578V10.7305L48.7793 10.7031C48.5605 10.6484 48.2689 10.6302 47.9043 10.6484ZM45.5254 10.0469L45.416 10.1016L45.3066 10.457L45.3887 10.5391C45.4434 10.5391 45.5254 10.4388 45.6348 10.2383L45.6621 10.1289L45.5801 10.0469H45.5254ZM46.3457 10.2383L46.1816 10.293V10.3477L46.3457 10.4023L46.4277 10.3203V10.293L46.3457 10.2383ZM50.3379 11.3867H50.2832L50.2559 11.4414L50.3926 11.4961L50.3379 11.3867ZM49.8184 12.0977L49.791 12.1523H49.8184C51.4043 12.5169 52.2155 12.6445 52.252 12.5352L52.2793 12.5078C52.2793 12.4349 52.2246 12.3529 52.1152 12.2617H52.0879C51.5228 12.1341 50.7663 12.0794 49.8184 12.0977ZM45.3066 10.7852H45.1973V10.8945H45.2793L45.3613 10.8398L45.3887 10.7852H45.3066ZM68.3301 2.17188L68.6855 2.14453C71.0007 2.16276 72.1582 2.29036 72.1582 2.52734C72.8874 2.98307 73.252 3.32031 73.252 3.53906C72.8509 3.2474 72.5866 3.10156 72.459 3.10156H72.3223V3.12891C72.3405 3.27474 72.696 3.61198 73.3887 4.14062H73.4707L73.3887 3.83984H73.4434C73.8444 4.29557 74.1361 5.02474 74.3184 6.02734L74.8926 8.65234V9.0625C74.6921 10.9583 74.5553 11.9062 74.4824 11.9062C74.3913 12.2708 74.2272 12.8451 73.9902 13.6289C73.9902 14.0846 73.8626 14.4583 73.6074 14.75L73.5527 14.7227V14.5859L73.6348 14.4492L73.6074 14.1484H73.5527L72.7871 15.1328C72.3861 15.3151 72.1855 15.4974 72.1855 15.6797C72.1855 15.7526 72.2402 15.8164 72.3496 15.8711H72.4316C72.6322 15.8711 72.9785 15.5612 73.4707 14.9414H73.5254L73.5527 14.9688C73.5527 15.4792 72.8236 16.3268 71.3652 17.5117C70.946 17.8034 70.1986 18.3503 69.123 19.1523C69.0137 19.2435 68.9043 19.4167 68.7949 19.6719C67.7376 20.5651 67.1543 21.0117 67.0449 21.0117C66.7168 21.0117 66.3887 21.0846 66.0605 21.2305C65.8236 21.2305 65.5319 20.6198 65.1855 19.3984L65.4316 19.125L65.2676 18.9062V18.8789L65.5684 18.4414H65.9512C66.2611 18.168 66.4707 18.0312 66.5801 18.0312C66.4889 18.1224 66.4434 18.2044 66.4434 18.2773H66.4707L66.498 18.3047H66.5527C66.6257 18.2865 66.6803 18.2409 66.7168 18.168V18.0312H66.6348V18.0039C67.0176 17.9674 67.7741 17.4844 68.9043 16.5547C70.1986 15.625 70.9186 15.0872 71.0645 14.9414C71.2832 14.6497 71.5475 14.4128 71.8574 14.2305C72.1491 13.9206 72.2949 13.6927 72.2949 13.5469V13.5195H72.1855L71.9941 13.5469L71.8574 13.5195C72.3496 12.444 72.5957 11.8333 72.5957 11.6875V11.5508L72.5137 11.4688H72.459C72.3678 11.4688 71.7845 11.9609 70.709 12.9453C70.3262 13.1276 69.5514 13.2188 68.3848 13.2188L67.6191 12.9453C66.7077 12.7812 66.1061 12.526 65.8145 12.1797C64.4108 10.5208 63.709 9.39974 63.709 8.81641C63.3809 8.16016 63.2168 7.57682 63.2168 7.06641V6.82031C63.2168 6.29167 63.5358 5.57161 64.1738 4.66016C64.1738 4.53255 64.429 4.07682 64.9395 3.29297C65.9056 2.54557 67.0358 2.17188 68.3301 2.17188ZM67.8652 2.52734H67.373V2.60938C67.373 2.68229 67.7194 2.73698 68.4121 2.77344V2.71875C68.4121 2.6276 68.2298 2.5638 67.8652 2.52734ZM70.9824 2.52734L70.9004 2.60938C70.9915 2.86458 71.2376 2.99219 71.6387 2.99219L71.7207 2.88281C71.5931 2.64583 71.3835 2.52734 71.0918 2.52734H70.9824ZM68.7402 2.63672H68.6309C68.9043 2.85547 69.597 3.11068 70.709 3.40234H70.873C70.873 3.23828 70.3171 2.99219 69.2051 2.66406L68.7402 2.63672ZM65.8691 3.40234V3.45703C65.8691 3.51172 65.8965 3.53906 65.9512 3.53906C66.0788 3.46615 66.2428 3.32943 66.4434 3.12891L66.416 3.10156H66.3613C66.0879 3.21094 65.9238 3.3112 65.8691 3.40234ZM72.0215 3.18359L71.9668 3.26562V3.29297H72.0215L72.0762 3.21094V3.18359H72.0215ZM66.8262 3.51172V3.53906H66.8535C67.1999 3.53906 67.5371 3.49349 67.8652 3.40234V3.29297L67.5918 3.26562C67.209 3.26562 66.9538 3.34766 66.8262 3.51172ZM65.541 5.20703L65.0215 7.96875V8.29688C65.0397 8.36979 65.1582 8.45182 65.377 8.54297C65.5775 9.29036 65.778 9.73698 65.9785 9.88281C67.4551 10.7578 68.3757 11.1953 68.7402 11.1953H68.8223C69.8431 10.9036 70.5905 10.5026 71.0645 9.99219L71.8574 8.65234C72.4772 8.19661 72.7871 7.74089 72.7871 7.28516V7.23047C72.7871 5.99089 72.2129 5.04297 71.0645 4.38672C70.4447 3.89453 69.9616 3.64844 69.6152 3.64844L69.2051 3.56641C68.9863 3.67578 68.4577 3.8125 67.6191 3.97656C66.2337 4.48698 65.541 4.89714 65.541 5.20703ZM65.3496 4.11328L65.4316 4.22266H65.459C65.696 4.09505 65.8145 3.95833 65.8145 3.8125V3.73047H65.6777C65.459 3.78516 65.3496 3.91276 65.3496 4.11328ZM71.1191 3.73047H71.0371C71.0371 3.96745 71.3014 4.1862 71.8301 4.38672L71.8574 4.33203V4.30469C71.8574 4.15885 71.6113 3.96745 71.1191 3.73047ZM65.1855 4.46875L65.1309 4.52344V4.57812L65.1855 4.63281L65.2949 4.52344L65.1855 4.46875ZM64.2832 5.86328V6.10938L64.3379 6.16406L64.2285 6.38281V6.62891C64.265 6.77474 64.3014 6.84766 64.3379 6.84766H64.3926C64.502 6.84766 64.5749 6.39193 64.6113 5.48047L64.584 5.37109H64.502C64.3561 5.51693 64.2832 5.68099 64.2832 5.86328ZM73.334 5.37109H73.252V5.48047L73.3613 5.80859V6.16406L73.5254 6.62891L73.4434 6.82031L73.6621 7.25781L73.6348 7.39453C73.7259 7.48568 73.8079 7.85938 73.8809 8.51562H74.127C74.2181 8.46094 74.2637 8.36979 74.2637 8.24219V8.1875C74.2637 7.09375 74.1178 6.54688 73.8262 6.54688L73.5527 6.10938V6.02734H73.6074L73.7168 6.08203H73.7988V6.02734C73.7988 5.89974 73.6439 5.68099 73.334 5.37109ZM63.5996 6.62891V6.76562L63.709 6.84766H63.7363C63.8457 6.82943 63.9004 6.72917 63.9004 6.54688V6.32812H63.791C63.7546 6.32812 63.6908 6.42839 63.5996 6.62891ZM64.2012 7.42188C64.2012 7.84115 64.2467 8.05078 64.3379 8.05078L64.502 7.39453C64.4655 7.19401 64.429 7.09375 64.3926 7.09375H64.3379C64.2467 7.13021 64.2012 7.23958 64.2012 7.42188ZM73.6074 9.25391L73.6621 10.2109H73.7988C73.8717 9.9375 73.9173 9.57292 73.9355 9.11719C73.9173 8.77083 73.8535 8.59766 73.7441 8.59766C73.653 8.59766 73.6074 8.81641 73.6074 9.25391ZM64.3379 9.11719C64.3379 9.33594 64.4837 9.70052 64.7754 10.2109H64.8848V10.1562L64.8574 9.91016L64.8848 9.88281H65.1035V9.82812C64.8483 9.29948 64.6204 9.03516 64.4199 9.03516C64.3652 9.03516 64.3379 9.0625 64.3379 9.11719ZM65.1309 10.4023H65.0762V10.5117C65.2767 10.7669 65.4772 10.8945 65.6777 10.8945H65.7051V10.8672L65.1309 10.4023ZM65.8145 11.4141H65.7051V11.5508C65.9421 11.6784 66.1152 11.7422 66.2246 11.7422H66.3613V11.6875C66.2337 11.5052 66.0514 11.4141 65.8145 11.4141ZM70.1621 12.6992H70.0254V12.7812H70.1074L70.1621 12.7539V12.6992ZM73.5254 13.8477L73.5527 13.875C73.6803 13.875 73.8079 13.6471 73.9355 13.1914V13.1641H73.8809C73.7715 13.1641 73.653 13.3919 73.5254 13.8477ZM72.7871 13.6562V13.7383H72.8145C72.9967 13.7383 73.0879 13.6471 73.0879 13.4648V13.4375H73.0332C72.9056 13.4557 72.8236 13.5286 72.7871 13.6562ZM71.584 14.0664L71.8574 13.7383C71.7663 14.0117 71.7207 14.1758 71.7207 14.2305H71.584V14.0664ZM70.3809 17.4297V17.457L70.4355 17.4844H70.4902C70.9277 17.2839 71.4746 16.8828 72.1309 16.2812V16.1992H72.0762C71.7116 16.2721 71.1647 16.6732 70.4355 17.4023L70.3809 17.4297ZM69.3145 16.9102V16.9648C69.4421 16.9648 69.5605 16.8828 69.6699 16.7188L69.6426 16.6914H69.6152C69.4329 16.7643 69.3327 16.8372 69.3145 16.9102ZM68.002 19.207V19.3164H68.0293C68.4303 19.1523 68.6309 18.9701 68.6309 18.7695V18.7148C68.2845 18.8242 68.0749 18.9883 68.002 19.207ZM65.9238 18.9609L65.8691 19.043L65.9238 19.125L66.0332 18.9883V18.9609H65.9238ZM66.6621 19.8359L66.7441 19.8906C67.0723 19.8906 67.4004 19.681 67.7285 19.2617V19.1523H67.6738C67.4004 19.1523 67.0632 19.3802 66.6621 19.8359ZM65.9512 20.4375V20.7383H66.0605C66.2611 20.5924 66.3613 20.4648 66.3613 20.3555V20.3281L66.2246 20.1641C66.0423 20.1641 65.9512 20.2552 65.9512 20.4375ZM66.5801 20.6289V20.6836H66.6621L67.0449 20.6016V20.4922H66.9082C66.6895 20.5286 66.5801 20.5742 66.5801 20.6289Z" fill="white"/>
</svg>
