<svg width="72" height="22" viewBox="0 0 72 22" fill="none" xmlns="http://www.w3.org/2000/svg">
<path d="M4.64258 0.273438C5.68164 0.382812 6.20117 0.53776 6.20117 0.738281C6.20117 0.920573 6.26497 1.01172 6.39258 1.01172L6.47461 1.09375L6.17383 1.33984V1.44922H6.25586C6.34701 1.33984 6.41992 1.28516 6.47461 1.28516C6.56576 1.28516 6.61133 1.39453 6.61133 1.61328L6.85742 9.10547C6.67513 9.88932 6.58398 11.4388 6.58398 13.7539V13.8633C6.58398 15.2669 6.62044 16.1784 6.69336 16.5977C6.54753 16.6523 6.47461 16.7708 6.47461 16.9531C6.47461 17.1901 6.52018 17.3086 6.61133 17.3086H6.69336V17.1172H6.74805C6.83919 17.1172 6.93034 17.5456 7.02148 18.4023L6.9668 18.4297H6.85742C6.71159 18.2656 6.58398 18.1836 6.47461 18.1836V18.2383V18.3477C6.47461 18.6211 6.71159 18.7578 7.18555 18.7578C9.90169 18.612 11.2598 18.6211 11.2598 18.7852V18.8125C11.2598 18.849 11.123 18.9128 10.8496 19.0039L10.8223 19.0586V19.0859C10.8587 19.1224 11.0228 19.1862 11.3145 19.2773C11.3874 19.3503 11.4238 19.4505 11.4238 19.5781C11.2415 20.5807 11.0228 21.082 10.7676 21.082L10.248 21.1367L8.82617 20.9727L7.95117 21.0273C3.06576 21.1003 0.623047 21.0456 0.623047 20.8633C0.477214 20.6628 0.404297 20.5169 0.404297 20.4258V20.3984L0.677734 19.4688L0.568359 19.2773C0.568359 19.0039 0.759766 18.8216 1.14258 18.7305L1.4707 18.6484L4.04102 18.5664C4.25977 18.5664 4.38737 18.4297 4.42383 18.1562V17.8828C4.42383 16.388 4.36914 15.1302 4.25977 14.1094C4.42383 8.71354 4.59701 6.01562 4.7793 6.01562L4.80664 5.66016C4.73372 4.11068 4.60612 3.33594 4.42383 3.33594C3.62174 3.86458 3.08398 4.38411 2.81055 4.89453L2.64648 4.97656C1.60742 4.59375 0.942057 4.22917 0.650391 3.88281C0.613932 3.88281 0.577474 3.75521 0.541016 3.5L0.595703 3.41797L0.787109 3.44531H0.978516C1.3431 3.44531 2.12695 2.81641 3.33008 1.55859C3.69466 1.23047 3.98633 0.856771 4.20508 0.4375C4.38737 0.328125 4.5332 0.273438 4.64258 0.273438ZM4.9707 1.20312V1.23047L4.99805 1.28516H5.05273C5.2168 1.28516 5.30794 1.25781 5.32617 1.20312V1.17578L5.24414 1.09375H5.16211C5.03451 1.11198 4.9707 1.14844 4.9707 1.20312ZM4.15039 1.20312L4.04102 1.28516L4.12305 1.36719H4.20508L4.36914 1.33984V1.25781L4.28711 1.20312H4.15039ZM6.25586 1.77734L6.20117 1.85938V1.94141L6.25586 1.96875L6.33789 1.94141V1.85938L6.25586 1.77734ZM2.20898 4.04688V4.12891H2.23633C2.50977 4.12891 2.79232 3.95573 3.08398 3.60938C4.06836 2.69792 4.56055 2.14193 4.56055 1.94141H4.47852C3.45768 2.79818 2.70117 3.5 2.20898 4.04688ZM5.51758 2.70703V2.73438L5.6543 2.84375L5.73633 2.81641V2.54297L5.70898 2.48828V2.46094C5.58138 2.47917 5.51758 2.5612 5.51758 2.70703ZM5.4082 2.70703H5.29883L5.10742 3.17188V3.30859L5.2168 3.41797H5.38086C5.49023 3.41797 5.55404 3.38151 5.57227 3.30859V3.22656C5.57227 3.17188 5.48112 3.10807 5.29883 3.03516H5.24414V2.92578C5.35352 2.83464 5.4082 2.76172 5.4082 2.70703ZM1.66211 3.66406V3.71875H1.77148C1.97201 3.71875 2.14518 3.58203 2.29102 3.30859L2.26367 3.25391H2.23633C1.98112 3.36328 1.78971 3.5 1.66211 3.66406ZM5.70898 4.64844L5.79102 6.53516H5.8457C5.95508 6.22526 6.00977 5.77865 6.00977 5.19531V4.40234C6.00977 3.80078 5.97331 3.5 5.90039 3.5C5.79102 3.5 5.72721 3.88281 5.70898 4.64844ZM5.70898 8.77734V9.07812L5.79102 9.59766H5.8457C5.99154 9.59766 6.06445 9.06901 6.06445 8.01172V7.84766L5.98242 7.76562C5.80013 7.83854 5.70898 8.17578 5.70898 8.77734ZM4.91602 13.7812H4.83398V13.918H4.91602V13.7812ZM5.79102 15.9688V15.9961V16.1875L5.90039 16.2695H5.95508L6.00977 16.2148V16.1328C5.97331 16.1328 5.90039 16.0781 5.79102 15.9688ZM5.98242 16.8164H5.95508C5.8457 17.1263 5.79102 17.5091 5.79102 17.9648V18.1836C5.79102 18.4023 5.88216 18.5482 6.06445 18.6211H6.11914C6.17383 18.6211 6.20117 18.5664 6.20117 18.457C6.18294 17.3633 6.11003 16.8164 5.98242 16.8164ZM4.83398 17.5L4.72461 17.6641L4.7793 17.7734H4.80664L4.91602 17.6641V17.6094L4.83398 17.5ZM5.29883 17.9648L5.2168 18.0469V18.2383L5.29883 18.3203H5.38086V18.0469L5.29883 17.9648ZM1.82617 18.9219H1.58008V18.9766L1.68945 19.0859H1.74414L1.82617 18.9766V18.9219ZM1.77148 19.5781L1.00586 19.6602V19.7695L1.08789 19.8789H1.14258C1.32487 19.8789 1.53451 19.7786 1.77148 19.5781ZM7.07617 19.4688V19.5781L8.93555 19.2773H9.09961V19.168C8.68034 19.1133 8.00586 19.2135 7.07617 19.4688ZM2.64648 19.7695L2.04492 19.8516V19.9609H2.20898H2.45508C2.91081 19.9609 3.13867 19.9245 3.13867 19.8516L3.05664 19.7695H2.64648ZM4.80664 19.7148L4.7793 19.7695V19.7969C4.85221 19.8698 4.92513 19.9062 4.99805 19.9062V19.8516C4.96159 19.7604 4.89779 19.7148 4.80664 19.7148ZM4.31445 19.7695L4.25977 19.8516L4.31445 19.9062H4.42383L4.50586 19.8516V19.7695H4.31445ZM5.38086 19.9062L5.24414 19.9883V20.043C5.24414 20.1159 5.52669 20.1523 6.0918 20.1523H6.11914C6.26497 20.1523 6.33789 20.0977 6.33789 19.9883C6.26497 19.9336 6.18294 19.9062 6.0918 19.9062H5.38086ZM10.5215 20.1797V20.2891L10.6309 20.3984C10.8314 20.3984 10.9316 20.2526 10.9316 19.9609V19.7422L10.877 19.6602H10.7676C10.6035 19.7878 10.5215 19.9609 10.5215 20.1797ZM6.85742 20.207C6.74805 20.3893 6.55664 20.4805 6.2832 20.4805V20.5352C6.2832 20.6081 6.56576 20.6536 7.13086 20.6719H7.18555C7.51367 20.4167 7.74154 20.1979 7.86914 20.0156C7.85091 19.9609 7.76888 19.9518 7.62305 19.9883C7.47721 20.0065 7.22201 20.0794 6.85742 20.207ZM8.82617 19.9609L8.22461 20.0156V20.0703C8.22461 20.125 8.48893 20.1523 9.01758 20.1523L9.04492 20.125V20.0977C9.00846 20.0065 8.93555 19.9609 8.82617 19.9609ZM9.45508 19.9609L9.37305 20.0156L9.40039 20.125H9.45508L9.53711 20.0703V20.0156L9.45508 19.9609ZM8.16992 20.3438H8.06055V20.3984H8.16992V20.3438ZM10.0566 20.7539V20.7812C10.0566 20.8177 10.1387 20.8542 10.3027 20.8906C10.485 20.8724 10.5762 20.8268 10.5762 20.7539V20.6992L10.4668 20.6172H10.3574C10.1934 20.6172 10.0931 20.6628 10.0566 20.7539ZM14.1309 6.09766C16.373 6.09766 17.4941 6.1888 17.4941 6.37109C17.4941 6.46224 17.0658 6.50781 16.209 6.50781L16.1543 6.58984C16.1543 6.6263 16.5462 6.65365 17.3301 6.67188L17.7402 6.97266L17.4121 7.57422L19.4629 11.0469L19.5723 11.1016C19.7728 10.9557 20.2467 10.3359 20.9941 9.24219C21.2676 8.98698 21.4225 8.78646 21.459 8.64062C21.6048 8.64062 21.8327 8.40365 22.1426 7.92969C22.1426 7.5651 22.2793 7.25521 22.5527 7L22.6348 7.08203C22.6348 7.20964 22.5618 7.3737 22.416 7.57422V7.60156H22.4707C22.8353 7.23698 23.0176 6.98177 23.0176 6.83594V6.64453L22.9902 6.61719C22.9902 6.45312 23.1999 6.35286 23.6191 6.31641H24.3574C26.9095 6.42578 28.1855 6.6263 28.1855 6.91797V7.4375L28.0762 7.57422H27.3926L28.1582 7.84766L28.1855 7.98438V8.3125L28.0762 8.39453H27.8848C27.1738 8.41276 26.8184 8.46745 26.8184 8.55859V8.58594C27.7116 8.60417 28.1582 8.65885 28.1582 8.75V8.80469L27.9395 8.99609L28.1855 9.13281V9.16016L28.1035 9.26953C27.2467 9.08724 25.8978 8.99609 24.0566 8.99609C23.2728 9.83464 22.5254 10.7188 21.8145 11.6484C21.0124 12.487 20.6113 12.9609 20.6113 13.0703C20.7389 13.4349 21.1126 14.1094 21.7324 15.0938C21.86 15.4401 22.334 16.2878 23.1543 17.6367C23.1543 17.8555 23.61 18.1198 24.5215 18.4297C24.6855 18.5391 24.8678 18.5938 25.0684 18.5938L27.0098 18.4844L27.2285 18.8672V19.168C27.1556 19.2591 27.1191 19.3411 27.1191 19.4141L27.1465 19.6328C27.1829 19.7604 27.1921 19.9336 27.1738 20.1523C27.1556 20.3529 27.0918 20.6172 26.9824 20.9453C26.8548 21.0365 26.7363 21.082 26.627 21.082C25.4603 20.9544 24.1387 20.8906 22.6621 20.8906H22.3066L21.8965 20.9727H21.6777L21.5137 20.9453V20.918C21.6595 20.7174 21.7324 20.5443 21.7324 20.3984L21.7051 20.3711H21.623L21.3496 20.6172H21.2676C21.1035 20.5807 21.0215 20.1341 21.0215 19.2773C21.0215 19.0951 21.0306 18.8854 21.0488 18.6484C21.1035 18.5938 21.1309 18.5208 21.1309 18.4297C20.584 16.8802 20.028 15.7682 19.4629 15.0938H19.3535C19.0983 15.1667 18.7884 15.6406 18.4238 16.5156C18.1139 16.9714 17.804 17.5365 17.4941 18.2109C17.3301 18.5938 17.1569 18.7852 16.9746 18.7852L17.2754 19.332L17.5488 19.6602L17.4121 20.0156L17.4941 20.2891V20.3711L16.9473 21.0273V21.0547L16.9746 21.3008L16.8926 21.3555L16.0176 21.2461H15.7715C15.6803 21.2461 14.9421 21.2279 13.5566 21.1914C12.5358 21.1549 12.0254 21.2188 12.0254 21.3828L11.9707 21.4375H11.8613L11.8887 20.9727L11.752 20.6445C11.8796 20.6445 11.9525 20.2526 11.9707 19.4688C12.0436 19.3776 12.1348 19.3138 12.2441 19.2773C12.2441 19.0586 12.3262 18.9492 12.4902 18.9492L14.6777 18.5938C14.8053 18.5026 14.9147 18.3477 15.0059 18.1289C15.1152 18.1289 15.2793 17.901 15.498 17.4453C15.7715 17.1172 15.9173 16.9531 15.9355 16.9531C16.0996 16.9167 16.1816 16.8802 16.1816 16.8438V16.8164H15.9355L15.6895 16.7891V16.707C15.8535 16.5794 15.9355 16.4245 15.9355 16.2422C16.446 15.4948 16.7923 15.0299 16.9746 14.8477L18.2324 13.0703C18.2324 13.0156 17.9772 12.6237 17.4668 11.8945C16.3548 10.0169 15.653 8.98698 15.3613 8.80469C15.3613 8.76823 14.7415 8.70443 13.502 8.61328C12.6634 8.54036 12.2441 8.44922 12.2441 8.33984C12.3171 7.46484 12.3535 6.81771 12.3535 6.39844C12.554 6.19792 13.1465 6.09766 14.1309 6.09766ZM13.8301 6.45312L13.7754 6.50781V6.58984H14.1035V6.5625L13.9668 6.45312H13.8301ZM26.0254 7.35547H25.9434V7.46484L26.3535 7.51953H26.627V7.4375L26.0254 7.35547ZM12.5449 7.4375L12.4629 7.57422C12.4629 7.70182 12.7363 7.79297 13.2832 7.84766H13.3652L13.7754 7.76562V7.68359C13.7754 7.62891 13.3652 7.54688 12.5449 7.4375ZM16.1543 7.4375L16.0449 7.57422C16.0814 7.62891 16.1543 7.65625 16.2637 7.65625L16.3184 7.57422L16.209 7.4375H16.1543ZM16.9746 7.51953H16.8105V7.60156C16.9199 7.76562 17.0293 7.84766 17.1387 7.84766V7.68359L16.9746 7.51953ZM23.8379 7.875V7.98438H23.8652C24.0111 7.98438 24.1478 7.89323 24.2754 7.71094V7.57422H24.166C24.0931 7.59245 23.9837 7.69271 23.8379 7.875ZM14.6504 7.84766L14.4316 7.79297L14.4043 7.84766L14.5137 7.95703H14.623L14.6504 7.84766ZM25.6973 8.03906L25.3418 8.06641V8.12109L25.752 8.14844L26.3535 8.12109V8.03906H25.6973ZM16.0996 8.94141H16.0176V8.99609L16.0996 9.07812H16.1543V8.99609L16.0996 8.94141ZM22.3066 9.43359H22.3613C22.4707 9.36068 22.5345 9.28776 22.5527 9.21484L22.5254 9.16016C22.3796 9.2513 22.3066 9.34245 22.3066 9.43359ZM16.3184 9.24219H16.209V9.26953C16.209 9.41536 16.3001 9.55208 16.4824 9.67969H16.5371L16.5918 9.625C16.5918 9.44271 16.5007 9.3151 16.3184 9.24219ZM20.2285 12.2773H20.2559C20.4928 12.0951 20.6113 11.9219 20.6113 11.7578C20.3561 11.9583 20.2285 12.1315 20.2285 12.2773ZM17.4941 14.9297L17.5488 14.957H17.5762C18.1048 14.2826 18.3691 13.8815 18.3691 13.7539H18.3418C17.959 14.082 17.6764 14.474 17.4941 14.9297ZM16.9746 17.9102L16.8652 18.0195V18.1016H16.8926L17.002 17.9922V17.9102H16.9746ZM15.1973 18.293V18.375C15.3431 18.375 15.4434 18.3112 15.498 18.1836L15.4707 18.1289C15.3066 18.1654 15.2155 18.2201 15.1973 18.293ZM24.1113 18.4844L23.2637 18.1836L23.209 18.2109V18.4023C23.209 18.4935 23.373 18.5573 23.7012 18.5938H24.0293L24.1113 18.4844ZM22.416 19.0859L22.3066 19.168C22.3613 19.2591 22.4342 19.3411 22.5254 19.4141H22.7441V19.3867C22.7441 19.1862 22.6348 19.0859 22.416 19.0859ZM26.1895 19.4688V19.4961H26.4355L26.5996 19.4688V19.4141C26.5996 19.3594 26.5632 19.332 26.4902 19.332C26.2897 19.3867 26.1895 19.4323 26.1895 19.4688ZM23.5371 19.7422H24.4395L24.7676 19.6875V19.6602L24.5762 19.6055H24.0293C23.7012 19.6055 23.5371 19.651 23.5371 19.7422ZM12.4629 19.8242V19.8789C12.5176 20.0065 12.6178 20.0703 12.7637 20.0703L13.6113 19.9609V19.9062C13.6113 19.8151 13.3014 19.7422 12.6816 19.6875C12.5358 19.7422 12.4629 19.7878 12.4629 19.8242ZM23.0176 19.6875H22.8809V19.7695H23.0176V19.6875ZM16.7285 20.5078H16.5371V20.6172H16.8105V20.5625L16.7285 20.5078ZM26.4629 20.6445H26.1348V20.7812C26.3535 20.8542 26.5632 20.8906 26.7637 20.8906L26.791 20.8633V20.8086C26.791 20.7539 26.6816 20.6992 26.4629 20.6445ZM32.916 0.273438C33.9551 0.382812 34.4746 0.53776 34.4746 0.738281C34.4746 0.920573 34.5384 1.01172 34.666 1.01172L34.748 1.09375L34.4473 1.33984V1.44922H34.5293C34.6204 1.33984 34.6934 1.28516 34.748 1.28516C34.8392 1.28516 34.8848 1.39453 34.8848 1.61328L35.1309 9.10547C34.9486 9.88932 34.8574 11.4388 34.8574 13.7539V13.8633C34.8574 15.2669 34.8939 16.1784 34.9668 16.5977C34.821 16.6523 34.748 16.7708 34.748 16.9531C34.748 17.1901 34.7936 17.3086 34.8848 17.3086H34.9668V17.1172H35.0215C35.1126 17.1172 35.2038 17.5456 35.2949 18.4023L35.2402 18.4297H35.1309C34.985 18.2656 34.8574 18.1836 34.748 18.1836V18.2383V18.3477C34.748 18.6211 34.985 18.7578 35.459 18.7578C38.1751 18.612 39.5332 18.6211 39.5332 18.7852V18.8125C39.5332 18.849 39.3965 18.9128 39.123 19.0039L39.0957 19.0586V19.0859C39.1322 19.1224 39.2962 19.1862 39.5879 19.2773C39.6608 19.3503 39.6973 19.4505 39.6973 19.5781C39.515 20.5807 39.2962 21.082 39.041 21.082L38.5215 21.1367L37.0996 20.9727L36.2246 21.0273C31.3392 21.1003 28.8965 21.0456 28.8965 20.8633C28.7507 20.6628 28.6777 20.5169 28.6777 20.4258V20.3984L28.9512 19.4688L28.8418 19.2773C28.8418 19.0039 29.0332 18.8216 29.416 18.7305L29.7441 18.6484L32.3145 18.5664C32.5332 18.5664 32.6608 18.4297 32.6973 18.1562V17.8828C32.6973 16.388 32.6426 15.1302 32.5332 14.1094C32.6973 8.71354 32.8704 6.01562 33.0527 6.01562L33.0801 5.66016C33.0072 4.11068 32.8796 3.33594 32.6973 3.33594C31.8952 3.86458 31.3574 4.38411 31.084 4.89453L30.9199 4.97656C29.8809 4.59375 29.2155 4.22917 28.9238 3.88281C28.8874 3.88281 28.8509 3.75521 28.8145 3.5L28.8691 3.41797L29.0605 3.44531H29.252C29.6165 3.44531 30.4004 2.81641 31.6035 1.55859C31.9681 1.23047 32.2598 0.856771 32.4785 0.4375C32.6608 0.328125 32.8066 0.273438 32.916 0.273438ZM33.2441 1.20312V1.23047L33.2715 1.28516H33.3262C33.4902 1.28516 33.5814 1.25781 33.5996 1.20312V1.17578L33.5176 1.09375H33.4355C33.3079 1.11198 33.2441 1.14844 33.2441 1.20312ZM32.4238 1.20312L32.3145 1.28516L32.3965 1.36719H32.4785L32.6426 1.33984V1.25781L32.5605 1.20312H32.4238ZM34.5293 1.77734L34.4746 1.85938V1.94141L34.5293 1.96875L34.6113 1.94141V1.85938L34.5293 1.77734ZM30.4824 4.04688V4.12891H30.5098C30.7832 4.12891 31.0658 3.95573 31.3574 3.60938C32.3418 2.69792 32.834 2.14193 32.834 1.94141H32.752C31.7311 2.79818 30.9746 3.5 30.4824 4.04688ZM33.791 2.70703V2.73438L33.9277 2.84375L34.0098 2.81641V2.54297L33.9824 2.48828V2.46094C33.8548 2.47917 33.791 2.5612 33.791 2.70703ZM33.6816 2.70703H33.5723L33.3809 3.17188V3.30859L33.4902 3.41797H33.6543C33.7637 3.41797 33.8275 3.38151 33.8457 3.30859V3.22656C33.8457 3.17188 33.7546 3.10807 33.5723 3.03516H33.5176V2.92578C33.627 2.83464 33.6816 2.76172 33.6816 2.70703ZM29.9355 3.66406V3.71875H30.0449C30.2454 3.71875 30.4186 3.58203 30.5645 3.30859L30.5371 3.25391H30.5098C30.2546 3.36328 30.0632 3.5 29.9355 3.66406ZM33.9824 4.64844L34.0645 6.53516H34.1191C34.2285 6.22526 34.2832 5.77865 34.2832 5.19531V4.40234C34.2832 3.80078 34.2467 3.5 34.1738 3.5C34.0645 3.5 34.0007 3.88281 33.9824 4.64844ZM33.9824 8.77734V9.07812L34.0645 9.59766H34.1191C34.265 9.59766 34.3379 9.06901 34.3379 8.01172V7.84766L34.2559 7.76562C34.0736 7.83854 33.9824 8.17578 33.9824 8.77734ZM33.1895 13.7812H33.1074V13.918H33.1895V13.7812ZM34.0645 15.9688V15.9961V16.1875L34.1738 16.2695H34.2285L34.2832 16.2148V16.1328C34.2467 16.1328 34.1738 16.0781 34.0645 15.9688ZM34.2559 16.8164H34.2285C34.1191 17.1263 34.0645 17.5091 34.0645 17.9648V18.1836C34.0645 18.4023 34.1556 18.5482 34.3379 18.6211H34.3926C34.4473 18.6211 34.4746 18.5664 34.4746 18.457C34.4564 17.3633 34.3835 16.8164 34.2559 16.8164ZM33.1074 17.5L32.998 17.6641L33.0527 17.7734H33.0801L33.1895 17.6641V17.6094L33.1074 17.5ZM33.5723 17.9648L33.4902 18.0469V18.2383L33.5723 18.3203H33.6543V18.0469L33.5723 17.9648ZM30.0996 18.9219H29.8535V18.9766L29.9629 19.0859H30.0176L30.0996 18.9766V18.9219ZM30.0449 19.5781L29.2793 19.6602V19.7695L29.3613 19.8789H29.416C29.5983 19.8789 29.8079 19.7786 30.0449 19.5781ZM35.3496 19.4688V19.5781L37.209 19.2773H37.373V19.168C36.9538 19.1133 36.2793 19.2135 35.3496 19.4688ZM30.9199 19.7695L30.3184 19.8516V19.9609H30.4824H30.7285C31.1842 19.9609 31.4121 19.9245 31.4121 19.8516L31.3301 19.7695H30.9199ZM33.0801 19.7148L33.0527 19.7695V19.7969C33.1257 19.8698 33.1986 19.9062 33.2715 19.9062V19.8516C33.235 19.7604 33.1712 19.7148 33.0801 19.7148ZM32.5879 19.7695L32.5332 19.8516L32.5879 19.9062H32.6973L32.7793 19.8516V19.7695H32.5879ZM33.6543 19.9062L33.5176 19.9883V20.043C33.5176 20.1159 33.8001 20.1523 34.3652 20.1523H34.3926C34.5384 20.1523 34.6113 20.0977 34.6113 19.9883C34.5384 19.9336 34.4564 19.9062 34.3652 19.9062H33.6543ZM38.7949 20.1797V20.2891L38.9043 20.3984C39.1048 20.3984 39.2051 20.2526 39.2051 19.9609V19.7422L39.1504 19.6602H39.041C38.877 19.7878 38.7949 19.9609 38.7949 20.1797ZM35.1309 20.207C35.0215 20.3893 34.8301 20.4805 34.5566 20.4805V20.5352C34.5566 20.6081 34.8392 20.6536 35.4043 20.6719H35.459C35.7871 20.4167 36.015 20.1979 36.1426 20.0156C36.1243 19.9609 36.0423 19.9518 35.8965 19.9883C35.7507 20.0065 35.4954 20.0794 35.1309 20.207ZM37.0996 19.9609L36.498 20.0156V20.0703C36.498 20.125 36.7624 20.1523 37.291 20.1523L37.3184 20.125V20.0977C37.2819 20.0065 37.209 19.9609 37.0996 19.9609ZM37.7285 19.9609L37.6465 20.0156L37.6738 20.125H37.7285L37.8105 20.0703V20.0156L37.7285 19.9609ZM36.4434 20.3438H36.334V20.3984H36.4434V20.3438ZM38.3301 20.7539V20.7812C38.3301 20.8177 38.4121 20.8542 38.5762 20.8906C38.7585 20.8724 38.8496 20.8268 38.8496 20.7539V20.6992L38.7402 20.6172H38.6309C38.4668 20.6172 38.3665 20.6628 38.3301 20.7539ZM49.5684 14.9844L49.6777 15.0117C49.7871 15.0482 49.778 15.7773 49.6504 17.1992H49.6777C49.6595 17.3815 48.7207 17.3815 46.8613 17.1992C44.7832 17.3268 43.4251 17.3359 42.7871 17.2266V17.1992C42.8053 17.0352 43.5983 16.9714 45.166 17.0078C45.804 16.9896 46.1413 16.9349 46.1777 16.8438L46.2051 16.8164L45.9316 16.7617C43.7806 16.5794 42.6686 16.707 42.5957 17.1445L42.377 17.1992C41.7572 17.1263 41.5475 16.4427 41.748 15.1484C41.8027 14.8203 42.541 14.6836 43.9629 14.7383C43.9629 14.7018 44.0632 14.7018 44.2637 14.7383L44.7832 14.9297L45.0293 14.957L49.5684 14.9844ZM48.9395 15.3398L48.7754 15.3672L48.748 15.4492L48.9941 15.4766H49.1582L49.1855 15.3945L48.9395 15.3398ZM47.5176 15.4766L47.873 15.5312C48.0371 15.5677 48.1465 15.5404 48.2012 15.4492V15.4219H48.1191C47.7363 15.4036 47.5358 15.4219 47.5176 15.4766ZM46.041 15.4766V15.5586H46.0957C46.2598 15.5951 46.36 15.5677 46.3965 15.4766V15.4492H46.2871C46.1595 15.431 46.0775 15.4401 46.041 15.4766ZM47.7363 16.0781L48.3105 16.1875C48.9121 16.2422 49.2493 16.2057 49.3223 16.0781V16.0234L49.1855 15.9688C48.2559 15.9505 47.7728 15.987 47.7363 16.0781ZM44.7285 15.5312L44.7012 15.6406H44.7559C45.1569 15.6953 45.4577 15.6589 45.6582 15.5312V15.5039L45.6035 15.4766C45.4395 15.4583 45.1478 15.4766 44.7285 15.5312ZM42.2949 15.1484L42.2129 15.2305L42.1309 15.5586L42.2129 15.6406V15.668C42.2676 15.668 42.3405 15.5586 42.4316 15.3398V15.2305L42.4043 15.1484H42.2949ZM43.1426 15.2578L43.0059 15.3672L42.9785 15.3945L43.1426 15.4219L43.1973 15.3672L43.2246 15.2852L43.1426 15.2578ZM47.2168 16.0234H47.1348V16.0781L47.2988 16.1328L47.2168 16.0234ZM46.752 16.7891V16.8164H46.7793C48.3835 17.0169 49.2038 17.0716 49.2402 16.9805V16.9531C49.2402 16.8984 49.1947 16.8255 49.1035 16.7344H49.0762C48.5111 16.6615 47.7363 16.6797 46.752 16.7891ZM42.1582 15.8867L42.0762 15.9414V16.0234H42.1309L42.2129 15.9688V15.9141L42.1582 15.8867ZM49.7871 11.5938L49.8965 11.6211C50.0423 11.6393 49.9603 12.3503 49.6504 13.7539L49.6777 13.7812C49.623 13.9635 48.6934 13.8906 46.8887 13.5625C44.8105 13.4531 43.4434 13.3255 42.7871 13.1797L42.8145 13.0977C42.8691 12.9518 43.653 12.9792 45.166 13.1797C45.8405 13.2161 46.196 13.1888 46.2324 13.0977V13.0703L45.9863 13.0156C43.8535 12.5964 42.7324 12.6055 42.623 13.043L42.4043 13.0977C41.8027 12.9518 41.666 12.2591 41.9941 11.0195C42.0671 10.6914 42.8145 10.6185 44.2363 10.8008C44.2546 10.7826 44.3548 10.7826 44.5371 10.8008L45.0293 11.0469L45.248 11.1016L49.7871 11.5938ZM49.1035 11.8945H48.9395L48.9121 11.9492L49.1582 12.0312H49.3496V11.9766L49.1035 11.8945ZM47.709 11.8945L48.0371 11.9766C48.2194 12.013 48.3288 11.9857 48.3652 11.8945L48.3105 11.8672C47.9095 11.8125 47.709 11.8216 47.709 11.8945ZM46.2324 11.7578V11.8125C46.4147 11.8672 46.5332 11.8581 46.5879 11.7852L46.6152 11.7305L46.4512 11.7031C46.3418 11.6849 46.2689 11.7031 46.2324 11.7578ZM47.873 12.4961L48.4199 12.6328C48.985 12.7604 49.3132 12.7695 49.4043 12.6602L49.4316 12.5781L49.3223 12.5234C48.3926 12.4141 47.9095 12.4049 47.873 12.4961ZM44.9199 11.6484L44.8926 11.7578L44.9199 11.7852C45.248 11.8581 45.5579 11.849 45.8496 11.7578V11.7305L45.7949 11.7031C45.5762 11.6484 45.2845 11.6302 44.9199 11.6484ZM42.541 11.0469L42.4316 11.1016L42.3223 11.457L42.4043 11.5391C42.459 11.5391 42.541 11.4388 42.6504 11.2383L42.6777 11.1289L42.5957 11.0469H42.541ZM43.3613 11.2383L43.1973 11.293V11.3477L43.3613 11.4023L43.4434 11.3203V11.293L43.3613 11.2383ZM47.3535 12.3867H47.2988L47.2715 12.4414L47.4082 12.4961L47.3535 12.3867ZM46.834 13.0977L46.8066 13.1523H46.834C48.4199 13.5169 49.2311 13.6445 49.2676 13.5352L49.2949 13.5078C49.2949 13.4349 49.2402 13.3529 49.1309 13.2617H49.1035C48.5384 13.1341 47.7819 13.0794 46.834 13.0977ZM42.3223 11.7852H42.2129V11.8945H42.2949L42.377 11.8398L42.4043 11.7852H42.3223ZM64.5801 0.273438C65.6191 0.382812 66.1387 0.53776 66.1387 0.738281C66.1387 0.920573 66.2025 1.01172 66.3301 1.01172L66.4121 1.09375L66.1113 1.33984V1.44922H66.1934C66.2845 1.33984 66.3574 1.28516 66.4121 1.28516C66.5033 1.28516 66.5488 1.39453 66.5488 1.61328L66.7949 9.10547C66.6126 9.88932 66.5215 11.4388 66.5215 13.7539V13.8633C66.5215 15.2669 66.5579 16.1784 66.6309 16.5977C66.485 16.6523 66.4121 16.7708 66.4121 16.9531C66.4121 17.1901 66.4577 17.3086 66.5488 17.3086H66.6309V17.1172H66.6855C66.7767 17.1172 66.8678 17.5456 66.959 18.4023L66.9043 18.4297H66.7949C66.6491 18.2656 66.5215 18.1836 66.4121 18.1836V18.2383V18.3477C66.4121 18.6211 66.6491 18.7578 67.123 18.7578C69.8392 18.612 71.1973 18.6211 71.1973 18.7852V18.8125C71.1973 18.849 71.0605 18.9128 70.7871 19.0039L70.7598 19.0586V19.0859C70.7962 19.1224 70.9603 19.1862 71.252 19.2773C71.3249 19.3503 71.3613 19.4505 71.3613 19.5781C71.179 20.5807 70.9603 21.082 70.7051 21.082L70.1855 21.1367L68.7637 20.9727L67.8887 21.0273C63.0033 21.1003 60.5605 21.0456 60.5605 20.8633C60.4147 20.6628 60.3418 20.5169 60.3418 20.4258V20.3984L60.6152 19.4688L60.5059 19.2773C60.5059 19.0039 60.6973 18.8216 61.0801 18.7305L61.4082 18.6484L63.9785 18.5664C64.1973 18.5664 64.3249 18.4297 64.3613 18.1562V17.8828C64.3613 16.388 64.3066 15.1302 64.1973 14.1094C64.3613 8.71354 64.5345 6.01562 64.7168 6.01562L64.7441 5.66016C64.6712 4.11068 64.5436 3.33594 64.3613 3.33594C63.5592 3.86458 63.0215 4.38411 62.748 4.89453L62.584 4.97656C61.5449 4.59375 60.8796 4.22917 60.5879 3.88281C60.5514 3.88281 60.515 3.75521 60.4785 3.5L60.5332 3.41797L60.7246 3.44531H60.916C61.2806 3.44531 62.0645 2.81641 63.2676 1.55859C63.6322 1.23047 63.9238 0.856771 64.1426 0.4375C64.3249 0.328125 64.4707 0.273438 64.5801 0.273438ZM64.9082 1.20312V1.23047L64.9355 1.28516H64.9902C65.1543 1.28516 65.2454 1.25781 65.2637 1.20312V1.17578L65.1816 1.09375H65.0996C64.972 1.11198 64.9082 1.14844 64.9082 1.20312ZM64.0879 1.20312L63.9785 1.28516L64.0605 1.36719H64.1426L64.3066 1.33984V1.25781L64.2246 1.20312H64.0879ZM66.1934 1.77734L66.1387 1.85938V1.94141L66.1934 1.96875L66.2754 1.94141V1.85938L66.1934 1.77734ZM62.1465 4.04688V4.12891H62.1738C62.4473 4.12891 62.7298 3.95573 63.0215 3.60938C64.0059 2.69792 64.498 2.14193 64.498 1.94141H64.416C63.3952 2.79818 62.6387 3.5 62.1465 4.04688ZM65.4551 2.70703V2.73438L65.5918 2.84375L65.6738 2.81641V2.54297L65.6465 2.48828V2.46094C65.5189 2.47917 65.4551 2.5612 65.4551 2.70703ZM65.3457 2.70703H65.2363L65.0449 3.17188V3.30859L65.1543 3.41797H65.3184C65.4277 3.41797 65.4915 3.38151 65.5098 3.30859V3.22656C65.5098 3.17188 65.4186 3.10807 65.2363 3.03516H65.1816V2.92578C65.291 2.83464 65.3457 2.76172 65.3457 2.70703ZM61.5996 3.66406V3.71875H61.709C61.9095 3.71875 62.0827 3.58203 62.2285 3.30859L62.2012 3.25391H62.1738C61.9186 3.36328 61.7272 3.5 61.5996 3.66406ZM65.6465 4.64844L65.7285 6.53516H65.7832C65.8926 6.22526 65.9473 5.77865 65.9473 5.19531V4.40234C65.9473 3.80078 65.9108 3.5 65.8379 3.5C65.7285 3.5 65.6647 3.88281 65.6465 4.64844ZM65.6465 8.77734V9.07812L65.7285 9.59766H65.7832C65.929 9.59766 66.002 9.06901 66.002 8.01172V7.84766L65.9199 7.76562C65.7376 7.83854 65.6465 8.17578 65.6465 8.77734ZM64.8535 13.7812H64.7715V13.918H64.8535V13.7812ZM65.7285 15.9688V15.9961V16.1875L65.8379 16.2695H65.8926L65.9473 16.2148V16.1328C65.9108 16.1328 65.8379 16.0781 65.7285 15.9688ZM65.9199 16.8164H65.8926C65.7832 17.1263 65.7285 17.5091 65.7285 17.9648V18.1836C65.7285 18.4023 65.8197 18.5482 66.002 18.6211H66.0566C66.1113 18.6211 66.1387 18.5664 66.1387 18.457C66.1204 17.3633 66.0475 16.8164 65.9199 16.8164ZM64.7715 17.5L64.6621 17.6641L64.7168 17.7734H64.7441L64.8535 17.6641V17.6094L64.7715 17.5ZM65.2363 17.9648L65.1543 18.0469V18.2383L65.2363 18.3203H65.3184V18.0469L65.2363 17.9648ZM61.7637 18.9219H61.5176V18.9766L61.627 19.0859H61.6816L61.7637 18.9766V18.9219ZM61.709 19.5781L60.9434 19.6602V19.7695L61.0254 19.8789H61.0801C61.2624 19.8789 61.472 19.7786 61.709 19.5781ZM67.0137 19.4688V19.5781L68.873 19.2773H69.0371V19.168C68.6178 19.1133 67.9434 19.2135 67.0137 19.4688ZM62.584 19.7695L61.9824 19.8516V19.9609H62.1465H62.3926C62.8483 19.9609 63.0762 19.9245 63.0762 19.8516L62.9941 19.7695H62.584ZM64.7441 19.7148L64.7168 19.7695V19.7969C64.7897 19.8698 64.8626 19.9062 64.9355 19.9062V19.8516C64.8991 19.7604 64.8353 19.7148 64.7441 19.7148ZM64.252 19.7695L64.1973 19.8516L64.252 19.9062H64.3613L64.4434 19.8516V19.7695H64.252ZM65.3184 19.9062L65.1816 19.9883V20.043C65.1816 20.1159 65.4642 20.1523 66.0293 20.1523H66.0566C66.2025 20.1523 66.2754 20.0977 66.2754 19.9883C66.2025 19.9336 66.1204 19.9062 66.0293 19.9062H65.3184ZM70.459 20.1797V20.2891L70.5684 20.3984C70.7689 20.3984 70.8691 20.2526 70.8691 19.9609V19.7422L70.8145 19.6602H70.7051C70.541 19.7878 70.459 19.9609 70.459 20.1797ZM66.7949 20.207C66.6855 20.3893 66.4941 20.4805 66.2207 20.4805V20.5352C66.2207 20.6081 66.5033 20.6536 67.0684 20.6719H67.123C67.4512 20.4167 67.679 20.1979 67.8066 20.0156C67.7884 19.9609 67.7064 19.9518 67.5605 19.9883C67.4147 20.0065 67.1595 20.0794 66.7949 20.207ZM68.7637 19.9609L68.1621 20.0156V20.0703C68.1621 20.125 68.4264 20.1523 68.9551 20.1523L68.9824 20.125V20.0977C68.946 20.0065 68.873 19.9609 68.7637 19.9609ZM69.3926 19.9609L69.3105 20.0156L69.3379 20.125H69.3926L69.4746 20.0703V20.0156L69.3926 19.9609ZM68.1074 20.3438H67.998V20.3984H68.1074V20.3438ZM69.9941 20.7539V20.7812C69.9941 20.8177 70.0762 20.8542 70.2402 20.8906C70.4225 20.8724 70.5137 20.8268 70.5137 20.7539V20.6992L70.4043 20.6172H70.2949C70.1309 20.6172 70.0306 20.6628 69.9941 20.7539Z" fill="white"/>
</svg>
