<svg width="442" height="314" viewBox="0 0 442 314" fill="none" xmlns="http://www.w3.org/2000/svg">
<rect x="5" y="5" width="431.21" height="303.678" rx="45" fill="#225C21" stroke="#5D2607" stroke-width="10"/>
<path d="M221.664 34.656C222.208 35.648 222.768 36.704 223.344 37.824C223.952 38.944 224.544 40.08 225.12 41.232C225.696 42.384 226.24 43.536 226.752 44.688C227.264 45.84 227.712 46.944 228.096 48H224.016C223.376 46.144 222.624 44.384 221.76 42.72C220.928 41.024 220.096 39.44 219.264 37.968C218.464 39.44 217.648 41.024 216.816 42.72C216.016 44.384 215.296 46.144 214.656 48H210.72C211.072 46.944 211.504 45.856 212.016 44.736C212.56 43.584 213.12 42.432 213.696 41.28C214.272 40.128 214.848 39.008 215.424 37.92C216.032 36.8 216.608 35.744 217.152 34.752L210.96 22.8H215.136L219.456 31.344L223.824 22.8H227.856L221.664 34.656Z" fill="white"/>
</svg>
