<svg width="76" height="22" viewBox="0 0 76 22" fill="none" xmlns="http://www.w3.org/2000/svg">
<path d="M4.16992 0.859375V0.503906V0.476562C5.17253 0.585938 5.67383 0.740885 5.67383 0.941406C5.50977 1.94401 5.19076 4.55078 4.7168 8.76172C4.60742 9.67318 4.45247 10.3659 4.25195 10.8398C3.79622 11.4596 3.51367 12.2435 3.4043 13.1914C3.5319 13.2826 4.27018 13.3828 5.61914 13.4922C6.05664 13.6562 6.39388 13.7383 6.63086 13.7383H6.93164L8.32617 13.6016H8.95508V13.5742C8.8457 12.4622 8.75456 10.3385 8.68164 7.20312C8.60872 6.80208 8.52669 6.57422 8.43555 6.51953C8.43555 6.42839 8.73633 6.33724 9.33789 6.24609C9.33789 6.19141 9.41992 6.15495 9.58398 6.13672C9.82096 6.13672 9.9668 6.22786 10.0215 6.41016L9.85742 6.84766C10.1855 7.3763 10.3496 9.07161 10.3496 11.9336C10.3496 12.9544 10.4225 13.4648 10.5684 13.4648H10.6504C11.3613 13.4648 11.8353 13.3919 12.0723 13.2461L12.2637 13.3555L12.2363 13.6016V13.8203L12.3457 14.0117L12.3184 14.2852C12.3184 14.832 12.1178 15.1693 11.7168 15.2969C11.3158 15.4062 11.1152 15.5156 11.1152 15.625H10.6504C10.5957 15.625 10.5684 15.6523 10.5684 15.707C10.7142 16.9648 10.7871 18.1406 10.7871 19.2344C10.8783 19.6354 10.9238 20.0456 10.9238 20.4648L11.1426 20.5742V20.6289C11.1426 20.7565 10.5684 21.0026 9.41992 21.3672C9.27409 21.2396 9.08268 21.1758 8.8457 21.1758L8.79102 21.1211C8.99154 19.7721 9.0918 18.7878 9.0918 18.168C9.0918 16.3086 8.97331 15.3789 8.73633 15.3789L7.58789 15.3242H5.26367L4.44336 15.4062C1.81836 15.3698 0.505859 15.2422 0.505859 15.0234C0.451172 15.0234 0.423828 15.0052 0.423828 14.9688C1.00716 14.4219 1.29883 14.0117 1.29883 13.7383C1.57227 13.1003 1.70898 12.444 1.70898 11.7695C2.20117 10.4023 2.55664 8.50651 2.77539 6.08203C2.77539 5.77214 2.9668 4.48698 3.34961 2.22656C3.34961 1.91667 3.44076 1.48828 3.62305 0.941406H3.65039C3.75977 1.05078 3.86003 1.10547 3.95117 1.10547H4.08789L4.16992 0.996094V0.859375ZM3.97852 2.11719V2.17188C3.99674 2.40885 4.0332 2.52734 4.08789 2.52734H4.14258V2.41797C4.14258 2.32682 4.21549 2.15365 4.36133 1.89844L4.44336 1.46094V1.43359L4.41602 1.35156H4.30664C4.08789 1.35156 3.97852 1.60677 3.97852 2.11719ZM4.58008 3.42969V3.51172L4.66211 3.59375C4.73503 3.53906 4.77148 3.45703 4.77148 3.34766V3.12891H4.74414C4.68945 3.12891 4.63477 3.22917 4.58008 3.42969ZM3.07617 6.16406V6.19141L3.18555 6.27344H3.21289L3.4043 6.24609V6.08203L3.29492 5.86328L3.48633 4.90625H3.45898C3.20378 5.45312 3.07617 5.8724 3.07617 6.16406ZM4.16992 8.625V8.78906H4.25195C4.36133 8.7526 4.41602 8.67057 4.41602 8.54297V8.35156H4.30664C4.21549 8.40625 4.16992 8.4974 4.16992 8.625ZM3.07617 10.9766V11.0039C3.29492 11.0039 3.4043 10.8581 3.4043 10.5664V10.4297L3.37695 10.4023V10.375C3.24935 10.375 3.14909 10.5755 3.07617 10.9766ZM9.36523 10.5391L9.2832 10.4844V10.5117V10.7031H9.36523V10.5391ZM3.13086 11.1133H2.9668V11.25H3.07617L3.13086 11.168V11.1133ZM9.2832 11.2773V11.6602C9.2832 11.7878 9.31055 11.8516 9.36523 11.8516L9.41992 11.7695V11.5781C9.41992 11.4141 9.37435 11.3138 9.2832 11.2773ZM2.58398 12.6172L2.50195 12.6719V12.7266H2.58398L2.66602 12.6445V12.6172H2.58398ZM2.17383 13.7383L2.25586 13.8477H2.33789L2.74805 13.7656V13.7383C2.71159 13.6471 2.62956 13.6016 2.50195 13.6016H2.39258C2.2832 13.6016 2.21029 13.6471 2.17383 13.7383ZM11.7715 13.7383L10.9785 13.8203V13.875C11.0332 13.9479 11.2246 14.0026 11.5527 14.0391C11.6986 14.0391 11.8079 13.9753 11.8809 13.8477V13.7656C11.8809 13.7474 11.8444 13.7383 11.7715 13.7383ZM3.62305 13.875L3.67773 13.957L4.30664 13.875V13.8477C4.30664 13.7747 4.16081 13.7383 3.86914 13.7383C3.70508 13.7565 3.62305 13.8021 3.62305 13.875ZM5.29102 14.6133C5.69206 14.7227 6.74935 14.7773 8.46289 14.7773C8.75456 14.7773 8.95508 14.6953 9.06445 14.5312C9.06445 14.513 8.90951 14.4857 8.59961 14.4492C6.39388 14.4674 5.29102 14.5221 5.29102 14.6133ZM10.541 14.4492L10.459 14.5039V14.5586L10.6504 14.7227L10.5137 14.9414V14.9688C10.5319 15.0234 10.623 15.0508 10.7871 15.0508H11.0332C11.2884 15.0508 11.5436 15.0234 11.7988 14.9688C11.7988 14.9323 11.5801 14.8503 11.1426 14.7227C11.0697 14.5404 10.9056 14.4492 10.6504 14.4492H10.541ZM9.47461 16.0898V16.1992L9.55664 16.2539L9.58398 16.1992V15.8984C9.51107 15.9167 9.47461 15.9805 9.47461 16.0898ZM10.1582 19.3711C10.1764 19.5534 10.222 19.6445 10.2949 19.6445L10.3496 19.6172V19.2891C10.3496 19.1432 10.3223 19.0521 10.2676 19.0156C10.1947 19.0156 10.1582 19.1341 10.1582 19.3711ZM9.39258 20.3828V20.4375H9.41992C9.5293 20.3828 9.58398 20.2826 9.58398 20.1367C9.45638 20.1549 9.39258 20.237 9.39258 20.3828ZM28.6426 1.73438C29.0436 1.73438 29.8366 1.98047 31.0215 2.47266C32.5892 3.18359 33.373 4.1862 33.373 5.48047V6.4375C33.373 7.07552 33.1543 7.75 32.7168 8.46094C32.4798 9.35417 32.2702 9.80078 32.0879 9.80078C31.377 10.1289 31.0215 10.4206 31.0215 10.6758V10.9492C31.0215 11.5872 31.0944 12.2708 31.2402 13C31.1855 13.9661 31.0671 14.4492 30.8848 14.4492C30.7389 14.4492 30.4199 14.6133 29.9277 14.9414L29.627 14.9688C29.3171 14.9688 29.1621 14.8047 29.1621 14.4766C28.834 12.6172 28.6699 11.25 28.6699 10.375C28.6699 10.1927 29.1165 9.74609 30.0098 9.03516C30.4473 8.59766 30.7116 8.2513 30.8027 7.99609C31.0033 7.77734 31.1217 7.66797 31.1582 7.66797L31.4043 7.75C31.5684 7.75 31.7142 7.38542 31.8418 6.65625V6.57422L31.5684 6.08203V5.97266H31.541L31.6504 5.69922V5.34375C31.6504 5.14323 31.5046 4.92448 31.2129 4.6875C31.0671 4.32292 30.8392 4.14062 30.5293 4.14062C29.9277 3.92188 29.2624 3.8125 28.5332 3.8125H28.2598C27.2754 3.8125 26.3548 4.46875 25.498 5.78125L24.4316 7.14844V7.23047C24.0671 7.70443 23.7207 7.75911 23.3926 7.39453C23.0645 7.01172 22.9004 6.72917 22.9004 6.54688L23.2012 5.50781C23.4199 4.9974 23.8118 4.50521 24.377 4.03125C25.4707 3.13802 26.4004 2.5 27.166 2.11719C27.6217 1.86198 28.1139 1.73438 28.6426 1.73438ZM27.166 2.52734V2.58203H27.4668C27.9408 2.58203 28.36 2.47266 28.7246 2.25391V2.17188L28.6426 2.11719H28.3691C27.9499 2.11719 27.5488 2.25391 27.166 2.52734ZM29.7363 2.47266L29.627 2.52734V2.58203C29.627 2.63672 29.6908 2.66406 29.8184 2.66406C30.0189 2.66406 30.1191 2.61849 30.1191 2.52734L30.0371 2.47266H29.7363ZM26.5098 3.01953L26.5918 3.10156L26.9199 2.99219V2.85547H26.8652C26.6829 2.85547 26.5645 2.91016 26.5098 3.01953ZM31.541 3.15625L31.5137 3.21094C31.6413 3.46615 31.8874 3.66667 32.252 3.8125H32.3887V3.78516C32.3887 3.65755 32.1061 3.44792 31.541 3.15625ZM24.7598 4.19531C25.1061 4.19531 25.4798 3.99479 25.8809 3.59375C26.0814 3.5026 26.1816 3.4388 26.1816 3.40234V3.375L25.9902 3.21094H25.9629C25.8717 3.21094 25.5345 3.41146 24.9512 3.8125C24.8236 3.86719 24.7598 3.99479 24.7598 4.19531ZM28.3418 3.21094H28.2598V3.26562H28.3418V3.21094ZM24.4316 4.44141L24.3223 4.60547V4.63281H24.3496C24.4408 4.59635 24.4863 4.53255 24.4863 4.44141H24.4316ZM32.8535 4.87891H32.7988V4.90625C32.7988 5.05208 32.8535 5.13411 32.9629 5.15234H32.9902V5.125C32.9902 4.9974 32.9447 4.91536 32.8535 4.87891ZM25.1152 5.23438V5.28906H25.1699C25.2611 5.2526 25.3249 5.17969 25.3613 5.07031V5.01562L25.3066 4.96094C25.179 5.01562 25.1152 5.10677 25.1152 5.23438ZM23.584 5.69922V5.75391L23.6934 5.78125C23.9486 5.63542 24.0762 5.47135 24.0762 5.28906V5.17969H23.9941C23.7207 5.36198 23.584 5.53516 23.584 5.69922ZM23.9941 6.35547L23.9121 6.38281V6.46484H23.9941L24.0762 6.38281V6.35547H23.9941ZM24.1309 7.64062H24.1582V7.72266H24.1309V7.64062ZM31.4863 7.91406H31.3223V8.05078H31.4043L31.4863 7.94141V7.91406ZM31.541 9.19922V9.28125H31.5957C31.778 9.28125 31.8783 9.22656 31.8965 9.11719L31.8418 9.08984H31.8145C31.6322 9.10807 31.541 9.14453 31.541 9.19922ZM29.3535 10.5664V10.6484C29.3535 11.0677 29.4811 11.2773 29.7363 11.2773C29.7546 11.2773 29.7819 11.2044 29.8184 11.0586C29.8001 10.5117 29.7546 10.2383 29.6816 10.2383H29.5449C29.4173 10.2565 29.3535 10.3659 29.3535 10.5664ZM30.4746 11.1953L30.4199 11.2773H30.5293V11.1953H30.4746ZM29.627 11.6055L29.5449 11.7148V11.7695C29.5449 11.9336 29.6087 12.0247 29.7363 12.043H29.791L29.8184 11.8789C29.8184 11.7695 29.7546 11.6784 29.627 11.6055ZM29.9277 13.4922L29.791 13.6562L29.9004 13.9844L29.791 14.4492H29.9551C30.0827 14.4492 30.1921 14.3763 30.2832 14.2305V14.1211C30.2103 14.0664 30.1738 13.8932 30.1738 13.6016L30.0371 13.4922H29.9277ZM30.3105 16.418C30.6204 16.418 31.1126 16.6094 31.7871 16.9922C32.0605 17.0651 32.1973 17.1289 32.1973 17.1836C32.1973 17.2565 32.0332 17.3203 31.7051 17.375V17.4023V17.457L31.8418 17.9219C32.1699 18.7422 31.9785 19.3984 31.2676 19.8906C30.1191 19.9089 29.3444 19.3529 28.9434 18.2227L28.834 17.8125C28.834 17.4115 29.3262 16.9466 30.3105 16.418ZM30.3105 16.8828H30.1191V16.9102C30.1921 17.0195 30.4746 17.138 30.9668 17.2656L31.0215 17.2109V17.1562C30.8574 16.974 30.6204 16.8828 30.3105 16.8828ZM29.9277 18.0586C29.9277 18.0768 30.0098 18.1315 30.1738 18.2227C30.2103 18.332 30.2467 18.3867 30.2832 18.3867H30.3105L30.6387 17.9766C30.6387 17.8672 30.584 17.7852 30.4746 17.7305H30.0371C29.9642 17.7487 29.9277 17.8581 29.9277 18.0586ZM49.834 1.1875L50.4355 1.10547C51.0371 1.10547 51.9759 1.32422 53.252 1.76172C53.9264 2.10807 54.2637 2.33594 54.2637 2.44531C54.8835 3.0651 55.1934 3.54818 55.1934 3.89453L55.6309 5.50781C55.4486 6.20052 55.0566 7.19401 54.4551 8.48828C53.6895 9.1263 52.5592 9.88281 51.0645 10.7578C49.8431 11.888 49.041 12.4714 48.6582 12.5078L47.5098 13.5469C45.8691 14.9688 45.0306 15.7161 44.9941 15.7891C44.8301 16.1354 44.6842 16.582 44.5566 17.1289V17.1836C44.5566 17.3294 45.0033 17.4297 45.8965 17.4844V17.5938L45.0215 17.6484V17.7578C46.6074 18.0312 47.6738 18.168 48.2207 18.168C48.1842 18.1133 47.528 17.931 46.252 17.6211V17.5391H46.2793C46.6257 17.5391 47.3548 17.6758 48.4668 17.9492L49.998 18.0586L51.3105 17.9219H51.9941C53.1973 17.9948 53.8535 18.1589 53.9629 18.4141L54.7832 18.6602L54.9473 18.7695V18.8789L54.5098 18.9883V19.0156L54.6191 19.1523H54.6738L55.0566 19.0977V19.1523C55.0202 19.9544 54.9655 20.3555 54.8926 20.3555L51.6934 20.2461H51.0371C50.5814 20.2461 49.9616 20.2917 49.1777 20.3828C46.4251 20.0547 44.5111 19.8906 43.4355 19.8906C43.1074 19.8177 42.9434 19.6536 42.9434 19.3984C42.8158 19.0703 42.752 18.6602 42.752 18.168V17.3477C42.752 15.7617 42.9342 14.7591 43.2988 14.3398L43.9824 13.9023C44.0918 13.7018 44.1465 13.5378 44.1465 13.4102C45.3132 12.4622 45.9329 11.9883 46.0059 11.9883C46.498 11.806 47.1725 11.3411 48.0293 10.5938H48.166C47.929 10.8854 47.7376 11.0312 47.5918 11.0312V11.1406H47.7559C47.9928 11.013 48.2298 10.8125 48.4668 10.5391V10.4844H48.3574V10.4023L50.3262 9.17188C51.3288 8.47917 52.1217 7.84115 52.7051 7.25781C53.1426 6.76562 53.4251 6.11849 53.5527 5.31641C53.5527 4.60547 53.252 4.06771 52.6504 3.70312C52.4499 3.63021 51.6296 3.52995 50.1895 3.40234C50.1895 3.38411 50.0436 3.36589 49.752 3.34766C49.1322 3.34766 48.5488 3.71224 48.002 4.44141C47.8561 4.76953 47.7832 5.01562 47.7832 5.17969V5.37109H47.8379C47.8379 5.53516 47.5371 5.65365 46.9355 5.72656L45.7871 5.89062V5.91797L45.623 5.89062H45.4043L44.7207 5.97266L44.666 5.86328C44.9212 4.60547 45.2038 3.82161 45.5137 3.51172C46.5527 2.5638 47.2819 2.07161 47.7012 2.03516C48.0111 1.76172 48.722 1.47917 49.834 1.1875ZM50.9277 1.37891H50.6543V1.43359L50.8184 1.65234H51.0645L51.1738 1.51562V1.48828C51.1556 1.41536 51.0736 1.37891 50.9277 1.37891ZM49.1777 1.78906V1.84375H49.2051C49.9525 1.84375 50.3262 1.76172 50.3262 1.59766L50.1895 1.48828H49.8613C49.4056 1.59766 49.1777 1.69792 49.1777 1.78906ZM52.5957 1.67969H52.5684V1.73438C52.5684 1.84375 52.8053 1.95312 53.2793 2.0625V2.03516C53.2793 1.92578 53.0514 1.80729 52.5957 1.67969ZM48.166 2.19922V2.28125H48.5215L48.6309 2.17188V2.14453L48.4668 2.11719C48.2663 2.15365 48.166 2.18099 48.166 2.19922ZM48.5488 3.23828L48.4668 3.34766V3.40234H48.6309L48.7129 3.29297V3.23828H48.5488ZM53.3066 3.29297L53.252 3.34766V3.40234C53.3249 3.52995 53.4251 3.59375 53.5527 3.59375H53.5801C53.6348 3.59375 53.6621 3.55729 53.6621 3.48438C53.6621 3.39323 53.5618 3.32943 53.3613 3.29297H53.3066ZM53.7168 3.70312V3.75781C54.0449 3.79427 54.209 3.9401 54.209 4.19531L54.373 4.38672V4.19531C54.373 3.79427 54.2454 3.59375 53.9902 3.59375C53.8262 3.59375 53.735 3.63021 53.7168 3.70312ZM47.6738 4.25L47.7285 4.30469H47.7559C48.0293 4.15885 48.166 4.01302 48.166 3.86719V3.83984H48.0566C47.9837 3.83984 47.8561 3.97656 47.6738 4.25ZM46.9082 4.98828H46.7715V5.09766L46.8809 5.125H46.9082V4.98828ZM54.8926 5.91797L54.7832 6.05469V6.13672H54.8379L54.9199 6.05469V5.91797H54.8926ZM54.2637 7.01172H54.127V7.14844C54.2546 7.14844 54.3184 7.20312 54.3184 7.3125H54.4004V7.14844L54.2637 7.01172ZM53.7715 7.99609L53.7988 8.05078V8.07812C53.9082 8.02344 54.0176 7.91406 54.127 7.75V7.69531H54.0723C53.9447 7.76823 53.8444 7.86849 53.7715 7.99609ZM53.0332 8.54297H53.0879L53.3887 8.48828C53.3887 8.34245 53.3249 8.26953 53.1973 8.26953C53.0879 8.28776 53.0332 8.37891 53.0332 8.54297ZM52.9785 9.0625V9.11719C53.3249 9.08073 53.6439 8.88932 53.9355 8.54297L53.8809 8.48828C53.4616 8.70703 53.1608 8.89844 52.9785 9.0625ZM51.748 9.58203L51.666 9.60938V9.71875H51.7207L51.8027 9.63672L51.748 9.60938V9.58203ZM47.4824 12.8633V12.9453H47.5645C47.6738 12.9453 47.9199 12.7812 48.3027 12.4531C48.3939 12.4531 48.485 12.3438 48.5762 12.125L48.6309 12.0977V12.0156H48.5488C48.3301 12.0156 47.9746 12.2982 47.4824 12.8633ZM45.7598 12.7266V12.8086H45.7871C46.0241 12.8086 46.2155 12.6263 46.3613 12.2617H46.2246C45.9147 12.5169 45.7598 12.6719 45.7598 12.7266ZM44.8574 13.2188H44.502L44.5293 13.4922C44.2741 13.7474 44.1465 13.9115 44.1465 13.9844H44.2559C44.584 13.8021 44.8118 13.5742 44.9395 13.3008V13.2461L44.8574 13.2188ZM46.9082 13.4922L46.7715 13.5742V13.6562H46.8809L46.9902 13.5469V13.4922H46.9082ZM44.7207 15.0508V15.1602H44.8027C45.0033 15.0143 45.1035 14.8685 45.1035 14.7227V14.6953H45.0215C44.821 14.8047 44.7207 14.9232 44.7207 15.0508ZM43.9824 17.9766L43.9004 18.0586V18.168L43.9824 18.2773L44.0371 18.168V18.0586L43.9824 17.9766ZM44.7207 18.0586L44.6113 18.1406L44.666 18.168H45.0215V18.0859L44.8301 18.0586H44.7207ZM52.1582 18.2773L51.9668 18.3047V18.332L52.0762 18.4414H52.4316L52.5137 18.3867V18.3047L52.1582 18.2773ZM43.2441 18.8242L43.1348 18.8789V18.9062L43.2168 18.9883H43.2441L43.3262 18.9062L43.2441 18.8242ZM43.8184 19.3984V19.4258L44.0371 19.4531C44.3105 19.4167 44.4473 19.3802 44.4473 19.3438L44.4199 19.2891H44.0371C43.8913 19.3255 43.8184 19.362 43.8184 19.3984ZM52.6777 19.6992H52.9785C53.2337 19.6628 53.3613 19.6172 53.3613 19.5625L53.2793 19.4531H53.1152C53.0241 19.4531 52.8783 19.5352 52.6777 19.6992ZM53.6621 19.8633L53.7715 19.918H54.0723C54.3457 19.918 54.4824 19.8724 54.4824 19.7812V19.7539C54.4824 19.6992 54.446 19.6719 54.373 19.6719C53.9355 19.6901 53.6986 19.7539 53.6621 19.8633ZM75.0449 13.9844L75.1543 14.0117C75.2637 14.0482 75.2546 14.7773 75.127 16.1992H75.1543C75.1361 16.3815 74.1973 16.3815 72.3379 16.1992C70.2598 16.3268 68.9017 16.3359 68.2637 16.2266V16.1992C68.2819 16.0352 69.0749 15.9714 70.6426 16.0078C71.2806 15.9896 71.6178 15.9349 71.6543 15.8438L71.6816 15.8164L71.4082 15.7617C69.2572 15.5794 68.1452 15.707 68.0723 16.1445L67.8535 16.1992C67.2337 16.1263 67.0241 15.4427 67.2246 14.1484C67.2793 13.8203 68.0176 13.6836 69.4395 13.7383C69.4395 13.7018 69.5397 13.7018 69.7402 13.7383L70.2598 13.9297L70.5059 13.957L75.0449 13.9844ZM74.416 14.3398L74.252 14.3672L74.2246 14.4492L74.4707 14.4766H74.6348L74.6621 14.3945L74.416 14.3398ZM72.9941 14.4766L73.3496 14.5312C73.5137 14.5677 73.623 14.5404 73.6777 14.4492V14.4219H73.5957C73.2129 14.4036 73.0124 14.4219 72.9941 14.4766ZM71.5176 14.4766V14.5586H71.5723C71.7363 14.5951 71.8366 14.5677 71.873 14.4766V14.4492H71.7637C71.6361 14.431 71.554 14.4401 71.5176 14.4766ZM73.2129 15.0781L73.7871 15.1875C74.3887 15.2422 74.7259 15.2057 74.7988 15.0781V15.0234L74.6621 14.9688C73.7324 14.9505 73.2493 14.987 73.2129 15.0781ZM70.2051 14.5312L70.1777 14.6406H70.2324C70.6335 14.6953 70.9342 14.6589 71.1348 14.5312V14.5039L71.0801 14.4766C70.916 14.4583 70.6243 14.4766 70.2051 14.5312ZM67.7715 14.1484L67.6895 14.2305L67.6074 14.5586L67.6895 14.6406V14.668C67.7441 14.668 67.8171 14.5586 67.9082 14.3398V14.2305L67.8809 14.1484H67.7715ZM68.6191 14.2578L68.4824 14.3672L68.4551 14.3945L68.6191 14.4219L68.6738 14.3672L68.7012 14.2852L68.6191 14.2578ZM72.6934 15.0234H72.6113V15.0781L72.7754 15.1328L72.6934 15.0234ZM72.2285 15.7891V15.8164H72.2559C73.86 16.0169 74.6803 16.0716 74.7168 15.9805V15.9531C74.7168 15.8984 74.6712 15.8255 74.5801 15.7344H74.5527C73.9876 15.6615 73.2129 15.6797 72.2285 15.7891ZM67.6348 14.8867L67.5527 14.9414V15.0234H67.6074L67.6895 14.9688V14.9141L67.6348 14.8867ZM75.2637 10.5938L75.373 10.6211C75.5189 10.6393 75.4368 11.3503 75.127 12.7539L75.1543 12.7812C75.0996 12.9635 74.1699 12.8906 72.3652 12.5625C70.2871 12.4531 68.9199 12.3255 68.2637 12.1797L68.291 12.0977C68.3457 11.9518 69.1296 11.9792 70.6426 12.1797C71.3171 12.2161 71.6725 12.1888 71.709 12.0977V12.0703L71.4629 12.0156C69.3301 11.5964 68.209 11.6055 68.0996 12.043L67.8809 12.0977C67.2793 11.9518 67.1426 11.2591 67.4707 10.0195C67.5436 9.69141 68.291 9.61849 69.7129 9.80078C69.7311 9.78255 69.8314 9.78255 70.0137 9.80078L70.5059 10.0469L70.7246 10.1016L75.2637 10.5938ZM74.5801 10.8945H74.416L74.3887 10.9492L74.6348 11.0312H74.8262V10.9766L74.5801 10.8945ZM73.1855 10.8945L73.5137 10.9766C73.696 11.013 73.8053 10.9857 73.8418 10.8945L73.7871 10.8672C73.3861 10.8125 73.1855 10.8216 73.1855 10.8945ZM71.709 10.7578V10.8125C71.8913 10.8672 72.0098 10.8581 72.0645 10.7852L72.0918 10.7305L71.9277 10.7031C71.8184 10.6849 71.7454 10.7031 71.709 10.7578ZM73.3496 11.4961L73.8965 11.6328C74.4616 11.7604 74.7897 11.7695 74.8809 11.6602L74.9082 11.5781L74.7988 11.5234C73.8691 11.4141 73.3861 11.4049 73.3496 11.4961ZM70.3965 10.6484L70.3691 10.7578L70.3965 10.7852C70.7246 10.8581 71.0345 10.849 71.3262 10.7578V10.7305L71.2715 10.7031C71.0527 10.6484 70.7611 10.6302 70.3965 10.6484ZM68.0176 10.0469L67.9082 10.1016L67.7988 10.457L67.8809 10.5391C67.9355 10.5391 68.0176 10.4388 68.127 10.2383L68.1543 10.1289L68.0723 10.0469H68.0176ZM68.8379 10.2383L68.6738 10.293V10.3477L68.8379 10.4023L68.9199 10.3203V10.293L68.8379 10.2383ZM72.8301 11.3867H72.7754L72.748 11.4414L72.8848 11.4961L72.8301 11.3867ZM72.3105 12.0977L72.2832 12.1523H72.3105C73.8965 12.5169 74.7077 12.6445 74.7441 12.5352L74.7715 12.5078C74.7715 12.4349 74.7168 12.3529 74.6074 12.2617H74.5801C74.015 12.1341 73.2585 12.0794 72.3105 12.0977ZM67.7988 10.7852H67.6895V10.8945H67.7715L67.8535 10.8398L67.8809 10.7852H67.7988Z" fill="black"/>
</svg>
