<svg width="74" height="22" viewBox="0 0 74 22" fill="none" xmlns="http://www.w3.org/2000/svg">
<path d="M4.55078 0.859375V0.503906V0.476562C5.55339 0.585938 6.05469 0.740885 6.05469 0.941406C5.89062 1.94401 5.57161 4.55078 5.09766 8.76172C4.98828 9.67318 4.83333 10.3659 4.63281 10.8398C4.17708 11.4596 3.89453 12.2435 3.78516 13.1914C3.91276 13.2826 4.65104 13.3828 6 13.4922C6.4375 13.6562 6.77474 13.7383 7.01172 13.7383H7.3125L8.70703 13.6016H9.33594V13.5742C9.22656 12.4622 9.13542 10.3385 9.0625 7.20312C8.98958 6.80208 8.90755 6.57422 8.81641 6.51953C8.81641 6.42839 9.11719 6.33724 9.71875 6.24609C9.71875 6.19141 9.80078 6.15495 9.96484 6.13672C10.2018 6.13672 10.3477 6.22786 10.4023 6.41016L10.2383 6.84766C10.5664 7.3763 10.7305 9.07161 10.7305 11.9336C10.7305 12.9544 10.8034 13.4648 10.9492 13.4648H11.0312C11.7422 13.4648 12.2161 13.3919 12.4531 13.2461L12.6445 13.3555L12.6172 13.6016V13.8203L12.7266 14.0117L12.6992 14.2852C12.6992 14.832 12.4987 15.1693 12.0977 15.2969C11.6966 15.4062 11.4961 15.5156 11.4961 15.625H11.0312C10.9766 15.625 10.9492 15.6523 10.9492 15.707C11.0951 16.9648 11.168 18.1406 11.168 19.2344C11.2591 19.6354 11.3047 20.0456 11.3047 20.4648L11.5234 20.5742V20.6289C11.5234 20.7565 10.9492 21.0026 9.80078 21.3672C9.65495 21.2396 9.46354 21.1758 9.22656 21.1758L9.17188 21.1211C9.3724 19.7721 9.47266 18.7878 9.47266 18.168C9.47266 16.3086 9.35417 15.3789 9.11719 15.3789L7.96875 15.3242H5.64453L4.82422 15.4062C2.19922 15.3698 0.886719 15.2422 0.886719 15.0234C0.832031 15.0234 0.804688 15.0052 0.804688 14.9688C1.38802 14.4219 1.67969 14.0117 1.67969 13.7383C1.95312 13.1003 2.08984 12.444 2.08984 11.7695C2.58203 10.4023 2.9375 8.50651 3.15625 6.08203C3.15625 5.77214 3.34766 4.48698 3.73047 2.22656C3.73047 1.91667 3.82161 1.48828 4.00391 0.941406H4.03125C4.14062 1.05078 4.24089 1.10547 4.33203 1.10547H4.46875L4.55078 0.996094V0.859375ZM4.35938 2.11719V2.17188C4.3776 2.40885 4.41406 2.52734 4.46875 2.52734H4.52344V2.41797C4.52344 2.32682 4.59635 2.15365 4.74219 1.89844L4.82422 1.46094V1.43359L4.79688 1.35156H4.6875C4.46875 1.35156 4.35938 1.60677 4.35938 2.11719ZM4.96094 3.42969V3.51172L5.04297 3.59375C5.11589 3.53906 5.15234 3.45703 5.15234 3.34766V3.12891H5.125C5.07031 3.12891 5.01562 3.22917 4.96094 3.42969ZM3.45703 6.16406V6.19141L3.56641 6.27344H3.59375L3.78516 6.24609V6.08203L3.67578 5.86328L3.86719 4.90625H3.83984C3.58464 5.45312 3.45703 5.8724 3.45703 6.16406ZM4.55078 8.625V8.78906H4.63281C4.74219 8.7526 4.79688 8.67057 4.79688 8.54297V8.35156H4.6875C4.59635 8.40625 4.55078 8.4974 4.55078 8.625ZM3.45703 10.9766V11.0039C3.67578 11.0039 3.78516 10.8581 3.78516 10.5664V10.4297L3.75781 10.4023V10.375C3.63021 10.375 3.52995 10.5755 3.45703 10.9766ZM9.74609 10.5391L9.66406 10.4844V10.5117V10.7031H9.74609V10.5391ZM3.51172 11.1133H3.34766V11.25H3.45703L3.51172 11.168V11.1133ZM9.66406 11.2773V11.6602C9.66406 11.7878 9.69141 11.8516 9.74609 11.8516L9.80078 11.7695V11.5781C9.80078 11.4141 9.75521 11.3138 9.66406 11.2773ZM2.96484 12.6172L2.88281 12.6719V12.7266H2.96484L3.04688 12.6445V12.6172H2.96484ZM2.55469 13.7383L2.63672 13.8477H2.71875L3.12891 13.7656V13.7383C3.09245 13.6471 3.01042 13.6016 2.88281 13.6016H2.77344C2.66406 13.6016 2.59115 13.6471 2.55469 13.7383ZM12.1523 13.7383L11.3594 13.8203V13.875C11.4141 13.9479 11.6055 14.0026 11.9336 14.0391C12.0794 14.0391 12.1888 13.9753 12.2617 13.8477V13.7656C12.2617 13.7474 12.2253 13.7383 12.1523 13.7383ZM4.00391 13.875L4.05859 13.957L4.6875 13.875V13.8477C4.6875 13.7747 4.54167 13.7383 4.25 13.7383C4.08594 13.7565 4.00391 13.8021 4.00391 13.875ZM5.67188 14.6133C6.07292 14.7227 7.13021 14.7773 8.84375 14.7773C9.13542 14.7773 9.33594 14.6953 9.44531 14.5312C9.44531 14.513 9.29036 14.4857 8.98047 14.4492C6.77474 14.4674 5.67188 14.5221 5.67188 14.6133ZM10.9219 14.4492L10.8398 14.5039V14.5586L11.0312 14.7227L10.8945 14.9414V14.9688C10.9128 15.0234 11.0039 15.0508 11.168 15.0508H11.4141C11.6693 15.0508 11.9245 15.0234 12.1797 14.9688C12.1797 14.9323 11.9609 14.8503 11.5234 14.7227C11.4505 14.5404 11.2865 14.4492 11.0312 14.4492H10.9219ZM9.85547 16.0898V16.1992L9.9375 16.2539L9.96484 16.1992V15.8984C9.89193 15.9167 9.85547 15.9805 9.85547 16.0898ZM10.5391 19.3711C10.5573 19.5534 10.6029 19.6445 10.6758 19.6445L10.7305 19.6172V19.2891C10.7305 19.1432 10.7031 19.0521 10.6484 19.0156C10.5755 19.0156 10.5391 19.1341 10.5391 19.3711ZM9.77344 20.3828V20.4375H9.80078C9.91016 20.3828 9.96484 20.2826 9.96484 20.1367C9.83724 20.1549 9.77344 20.237 9.77344 20.3828ZM29.0234 1.73438C29.4245 1.73438 30.2174 1.98047 31.4023 2.47266C32.9701 3.18359 33.7539 4.1862 33.7539 5.48047V6.4375C33.7539 7.07552 33.5352 7.75 33.0977 8.46094C32.8607 9.35417 32.651 9.80078 32.4688 9.80078C31.7578 10.1289 31.4023 10.4206 31.4023 10.6758V10.9492C31.4023 11.5872 31.4753 12.2708 31.6211 13C31.5664 13.9661 31.4479 14.4492 31.2656 14.4492C31.1198 14.4492 30.8008 14.6133 30.3086 14.9414L30.0078 14.9688C29.6979 14.9688 29.543 14.8047 29.543 14.4766C29.2148 12.6172 29.0508 11.25 29.0508 10.375C29.0508 10.1927 29.4974 9.74609 30.3906 9.03516C30.8281 8.59766 31.0924 8.2513 31.1836 7.99609C31.3841 7.77734 31.5026 7.66797 31.5391 7.66797L31.7852 7.75C31.9492 7.75 32.0951 7.38542 32.2227 6.65625V6.57422L31.9492 6.08203V5.97266H31.9219L32.0312 5.69922V5.34375C32.0312 5.14323 31.8854 4.92448 31.5938 4.6875C31.4479 4.32292 31.2201 4.14062 30.9102 4.14062C30.3086 3.92188 29.6432 3.8125 28.9141 3.8125H28.6406C27.6562 3.8125 26.7357 4.46875 25.8789 5.78125L24.8125 7.14844V7.23047C24.4479 7.70443 24.1016 7.75911 23.7734 7.39453C23.4453 7.01172 23.2812 6.72917 23.2812 6.54688L23.582 5.50781C23.8008 4.9974 24.1927 4.50521 24.7578 4.03125C25.8516 3.13802 26.7812 2.5 27.5469 2.11719C28.0026 1.86198 28.4948 1.73438 29.0234 1.73438ZM27.5469 2.52734V2.58203H27.8477C28.3216 2.58203 28.7409 2.47266 29.1055 2.25391V2.17188L29.0234 2.11719H28.75C28.3307 2.11719 27.9297 2.25391 27.5469 2.52734ZM30.1172 2.47266L30.0078 2.52734V2.58203C30.0078 2.63672 30.0716 2.66406 30.1992 2.66406C30.3997 2.66406 30.5 2.61849 30.5 2.52734L30.418 2.47266H30.1172ZM26.8906 3.01953L26.9727 3.10156L27.3008 2.99219V2.85547H27.2461C27.0638 2.85547 26.9453 2.91016 26.8906 3.01953ZM31.9219 3.15625L31.8945 3.21094C32.0221 3.46615 32.2682 3.66667 32.6328 3.8125H32.7695V3.78516C32.7695 3.65755 32.487 3.44792 31.9219 3.15625ZM25.1406 4.19531C25.487 4.19531 25.8607 3.99479 26.2617 3.59375C26.4622 3.5026 26.5625 3.4388 26.5625 3.40234V3.375L26.3711 3.21094H26.3438C26.2526 3.21094 25.9154 3.41146 25.332 3.8125C25.2044 3.86719 25.1406 3.99479 25.1406 4.19531ZM28.7227 3.21094H28.6406V3.26562H28.7227V3.21094ZM24.8125 4.44141L24.7031 4.60547V4.63281H24.7305C24.8216 4.59635 24.8672 4.53255 24.8672 4.44141H24.8125ZM33.2344 4.87891H33.1797V4.90625C33.1797 5.05208 33.2344 5.13411 33.3438 5.15234H33.3711V5.125C33.3711 4.9974 33.3255 4.91536 33.2344 4.87891ZM25.4961 5.23438V5.28906H25.5508C25.6419 5.2526 25.7057 5.17969 25.7422 5.07031V5.01562L25.6875 4.96094C25.5599 5.01562 25.4961 5.10677 25.4961 5.23438ZM23.9648 5.69922V5.75391L24.0742 5.78125C24.3294 5.63542 24.457 5.47135 24.457 5.28906V5.17969H24.375C24.1016 5.36198 23.9648 5.53516 23.9648 5.69922ZM24.375 6.35547L24.293 6.38281V6.46484H24.375L24.457 6.38281V6.35547H24.375ZM24.5117 7.64062H24.5391V7.72266H24.5117V7.64062ZM31.8672 7.91406H31.7031V8.05078H31.7852L31.8672 7.94141V7.91406ZM31.9219 9.19922V9.28125H31.9766C32.1589 9.28125 32.2591 9.22656 32.2773 9.11719L32.2227 9.08984H32.1953C32.013 9.10807 31.9219 9.14453 31.9219 9.19922ZM29.7344 10.5664V10.6484C29.7344 11.0677 29.862 11.2773 30.1172 11.2773C30.1354 11.2773 30.1628 11.2044 30.1992 11.0586C30.181 10.5117 30.1354 10.2383 30.0625 10.2383H29.9258C29.7982 10.2565 29.7344 10.3659 29.7344 10.5664ZM30.8555 11.1953L30.8008 11.2773H30.9102V11.1953H30.8555ZM30.0078 11.6055L29.9258 11.7148V11.7695C29.9258 11.9336 29.9896 12.0247 30.1172 12.043H30.1719L30.1992 11.8789C30.1992 11.7695 30.1354 11.6784 30.0078 11.6055ZM30.3086 13.4922L30.1719 13.6562L30.2812 13.9844L30.1719 14.4492H30.3359C30.4635 14.4492 30.5729 14.3763 30.6641 14.2305V14.1211C30.5911 14.0664 30.5547 13.8932 30.5547 13.6016L30.418 13.4922H30.3086ZM30.6914 16.418C31.0013 16.418 31.4935 16.6094 32.168 16.9922C32.4414 17.0651 32.5781 17.1289 32.5781 17.1836C32.5781 17.2565 32.4141 17.3203 32.0859 17.375V17.4023V17.457L32.2227 17.9219C32.5508 18.7422 32.3594 19.3984 31.6484 19.8906C30.5 19.9089 29.7253 19.3529 29.3242 18.2227L29.2148 17.8125C29.2148 17.4115 29.707 16.9466 30.6914 16.418ZM30.6914 16.8828H30.5V16.9102C30.5729 17.0195 30.8555 17.138 31.3477 17.2656L31.4023 17.2109V17.1562C31.2383 16.974 31.0013 16.8828 30.6914 16.8828ZM30.3086 18.0586C30.3086 18.0768 30.3906 18.1315 30.5547 18.2227C30.5911 18.332 30.6276 18.3867 30.6641 18.3867H30.6914L31.0195 17.9766C31.0195 17.8672 30.9648 17.7852 30.8555 17.7305H30.418C30.3451 17.7487 30.3086 17.8581 30.3086 18.0586ZM43.9258 0.203125C47.0247 0.458333 49.668 0.622396 51.8555 0.695312C52.2201 0.841146 52.5938 0.96875 52.9766 1.07812H53.1406L53.168 1.05078C53.2956 1.06901 53.3594 1.10547 53.3594 1.16016V1.24219C53.0495 1.4974 52.8945 2.14453 52.8945 3.18359V3.34766C52.8945 3.47526 52.9857 3.60286 53.168 3.73047V3.75781L52.457 6.10938C51.3086 7.71354 50.2695 9.31771 49.3398 10.9219C48.3372 12.2526 47.6628 13.3099 47.3164 14.0938L47.2891 14.4492L47.4258 16.8008L47.1523 19.7266C47.1523 19.8359 46.8151 19.9453 46.1406 20.0547L45.8945 19.9453H45.5938L45.7852 19.7266V19.6719L45.7305 19.6172H45.6484C45.4661 19.6172 45.3021 19.6536 45.1562 19.7266C44.9922 19.7266 44.9102 19.5443 44.9102 19.1797V18.2773L44.9375 16.1992L44.9102 15.2148C45.1107 14.3216 45.4023 13.5833 45.7852 13C46.2409 12.526 46.4688 12.1068 46.4688 11.7422C46.5417 11.7422 46.6146 11.6055 46.6875 11.332L48 9.39062C48.7292 8.22396 49.3398 7.02995 49.832 5.80859L49.9688 5.61719V5.53516L49.9141 5.48047L50.8164 3.12891V3.07422C50.5794 3.07422 50.0326 2.94661 49.1758 2.69141C48.556 2.69141 47.9362 2.63672 47.3164 2.52734L46.7422 2.71875C45.4844 2.57292 44.7096 2.5 44.418 2.5H44.1992C43.9805 2.5 43.8711 2.51823 43.8711 2.55469C43.5612 2.55469 43.3333 2.18099 43.1875 1.43359C43.151 1.43359 43.1328 1.36979 43.1328 1.24219C43.224 0.877604 43.3698 0.695312 43.5703 0.695312L43.9258 0.722656V0.695312L43.625 0.394531V0.367188C43.625 0.3125 43.7253 0.257812 43.9258 0.203125ZM44.8281 0.859375H44.418V0.941406L44.6914 1.24219V1.26953H44.1172L44.0352 1.35156V1.40625L44.1445 1.48828H44.3086L44.6914 1.43359C45.4753 1.57943 46.0859 1.65234 46.5234 1.65234H47.2617C47.2617 1.5612 46.9336 1.47917 46.2773 1.40625V1.32422C48.5195 1.47005 50.0326 1.63411 50.8164 1.81641H51.0078C51.0443 1.81641 51.0625 1.77083 51.0625 1.67969C51.0625 1.42448 50.3242 1.26953 48.8477 1.21484L44.8281 0.859375ZM48.1367 1.54297V1.67969L48.4375 1.73438H48.6289V1.67969C48.6289 1.60677 48.4648 1.5612 48.1367 1.54297ZM51.9922 1.54297C51.6823 1.54297 51.5273 1.58854 51.5273 1.67969C51.5273 1.77083 51.7279 1.81641 52.1289 1.81641H52.1836L52.293 1.67969V1.59766L52.1016 1.54297H51.9922ZM44.1719 1.92578L44.1172 2.00781C44.1172 2.11719 44.3451 2.17188 44.8008 2.17188H45.2383C45.0195 2.00781 44.6732 1.92578 44.1992 1.92578H44.1719ZM47.8633 1.95312C47.8633 2.02604 48.5651 2.13542 49.9688 2.28125L50.5703 2.44531H50.8164L50.9258 2.33594C50.9258 2.08073 49.9049 1.95312 47.8633 1.95312ZM51.9922 2.22656L51.8555 2.36328V2.41797H51.9922L52.0469 2.22656H51.9922ZM51.5 3.07422C51.5365 3.16536 51.5638 3.21094 51.582 3.21094H51.6641L51.8008 3.07422V2.91016L51.7188 2.88281H51.582C51.5273 2.91927 51.5 2.98307 51.5 3.07422ZM51.9922 3.73047V3.75781C51.9922 3.9401 52.0378 4.04948 52.1289 4.08594H52.2109C52.3021 4.08594 52.3477 3.77604 52.3477 3.15625L52.293 3.04688C52.1836 3.11979 52.0833 3.34766 51.9922 3.73047ZM51.1992 3.48438H51.1719L51.1992 3.64844H51.3086V3.56641L51.1992 3.48438ZM52.0742 4.41406H51.9375V4.44141L51.8828 5.20703L51.9375 5.26172H51.9922C52.0286 5.26172 52.0924 5.07943 52.1836 4.71484V4.60547L52.0742 4.41406ZM50.5977 4.63281H50.4609V4.71484L50.0781 5.83594V5.86328H50.1328C50.4609 5.37109 50.6341 5.00651 50.6523 4.76953V4.6875L50.5977 4.63281ZM48.9297 8.76172V8.81641H49.0938C49.276 8.81641 49.5495 8.46094 49.9141 7.75C50.6797 6.51042 51.0625 5.79948 51.0625 5.61719V5.5625L51.0078 5.48047H50.8984C50.7708 5.58984 50.4245 6.11849 49.8594 7.06641C49.2396 8.03255 48.9297 8.59766 48.9297 8.76172ZM51.0078 6.84766H50.9805C50.4701 7.6862 50.2148 8.17839 50.2148 8.32422H50.2969C50.7891 7.75911 51.0352 7.26693 51.0352 6.84766H51.0078ZM49.7773 9.0625V9.11719C49.7956 9.11719 49.9323 8.96224 50.1875 8.65234V8.57031H50.1055C49.8867 8.7526 49.7773 8.91667 49.7773 9.0625ZM49.1758 10.1016H49.2305C49.4857 9.8099 49.6133 9.57292 49.6133 9.39062V9.33594H49.5859C49.4401 9.33594 49.3034 9.59115 49.1758 10.1016ZM48.3281 11.0859V11.1953H48.4375L48.6016 10.8125L48.5469 10.7852C48.4375 10.7852 48.3646 10.8854 48.3281 11.0859ZM47.0703 11.1953V11.3047H47.125C47.3984 11.1224 47.5352 10.9766 47.5352 10.8672H47.4805C47.3529 10.9036 47.2161 11.013 47.0703 11.1953ZM47.1523 12.0156H47.207C47.2982 12.0156 47.3711 11.9518 47.4258 11.8242L47.3711 11.7695C47.2253 11.806 47.1523 11.888 47.1523 12.0156ZM46.9336 12.2617L46.8516 12.3711V12.4531H46.8789L47.0156 12.3438V12.2617H46.9336ZM45.8945 13.5742H45.9219C46.2135 13.3919 46.3594 13.2461 46.3594 13.1367H46.332C46.0404 13.2643 45.8945 13.4102 45.8945 13.5742ZM46.3594 13.957L46.25 14.0664V14.0938H46.3867L46.4141 13.9844L46.3867 13.957H46.3594ZM46.25 14.6406V15.1055C46.3958 15.5794 46.4688 15.862 46.4688 15.9531L46.5781 16.0078H46.6055C46.6602 16.0078 46.7057 15.8802 46.7422 15.625L46.6055 14.9414L46.6875 14.3672H46.6602L46.6328 14.3398C46.3776 14.431 46.25 14.5312 46.25 14.6406ZM45.7852 14.9961H45.6758V15.1055L45.7852 15.0234V14.9961ZM46.4141 17.4023H46.332V17.4844C46.332 17.6484 46.3776 17.7487 46.4688 17.7852H46.5234L46.6055 17.7031V17.6758C46.6055 17.5482 46.5417 17.457 46.4141 17.4023ZM46.1406 18.6602L46.0859 18.7695V18.8242H46.1406L46.1953 18.7695V18.6602H46.1406ZM45.375 18.9609L45.2383 19.0703V19.1797C45.293 19.3073 45.4115 19.3711 45.5938 19.3711H45.9219C46.0859 19.3711 46.1771 19.3346 46.1953 19.2617C46.1953 19.0612 45.9948 18.9609 45.5938 18.9609H45.375ZM46.6875 19.3438L46.6328 19.3984L46.6602 19.4531H46.7695V19.3438H46.6875ZM72.6641 13.9844L72.7734 14.0117C72.8828 14.0482 72.8737 14.7773 72.7461 16.1992H72.7734C72.7552 16.3815 71.8164 16.3815 69.957 16.1992C67.8789 16.3268 66.5208 16.3359 65.8828 16.2266V16.1992C65.901 16.0352 66.694 15.9714 68.2617 16.0078C68.8997 15.9896 69.237 15.9349 69.2734 15.8438L69.3008 15.8164L69.0273 15.7617C66.8763 15.5794 65.7643 15.707 65.6914 16.1445L65.4727 16.1992C64.8529 16.1263 64.6432 15.4427 64.8438 14.1484C64.8984 13.8203 65.6367 13.6836 67.0586 13.7383C67.0586 13.7018 67.1589 13.7018 67.3594 13.7383L67.8789 13.9297L68.125 13.957L72.6641 13.9844ZM72.0352 14.3398L71.8711 14.3672L71.8438 14.4492L72.0898 14.4766H72.2539L72.2812 14.3945L72.0352 14.3398ZM70.6133 14.4766L70.9688 14.5312C71.1328 14.5677 71.2422 14.5404 71.2969 14.4492V14.4219H71.2148C70.832 14.4036 70.6315 14.4219 70.6133 14.4766ZM69.1367 14.4766V14.5586H69.1914C69.3555 14.5951 69.4557 14.5677 69.4922 14.4766V14.4492H69.3828C69.2552 14.431 69.1732 14.4401 69.1367 14.4766ZM70.832 15.0781L71.4062 15.1875C72.0078 15.2422 72.3451 15.2057 72.418 15.0781V15.0234L72.2812 14.9688C71.3516 14.9505 70.8685 14.987 70.832 15.0781ZM67.8242 14.5312L67.7969 14.6406H67.8516C68.2526 14.6953 68.5534 14.6589 68.7539 14.5312V14.5039L68.6992 14.4766C68.5352 14.4583 68.2435 14.4766 67.8242 14.5312ZM65.3906 14.1484L65.3086 14.2305L65.2266 14.5586L65.3086 14.6406V14.668C65.3633 14.668 65.4362 14.5586 65.5273 14.3398V14.2305L65.5 14.1484H65.3906ZM66.2383 14.2578L66.1016 14.3672L66.0742 14.3945L66.2383 14.4219L66.293 14.3672L66.3203 14.2852L66.2383 14.2578ZM70.3125 15.0234H70.2305V15.0781L70.3945 15.1328L70.3125 15.0234ZM69.8477 15.7891V15.8164H69.875C71.4792 16.0169 72.2995 16.0716 72.3359 15.9805V15.9531C72.3359 15.8984 72.2904 15.8255 72.1992 15.7344H72.1719C71.6068 15.6615 70.832 15.6797 69.8477 15.7891ZM65.2539 14.8867L65.1719 14.9414V15.0234H65.2266L65.3086 14.9688V14.9141L65.2539 14.8867ZM72.8828 10.5938L72.9922 10.6211C73.138 10.6393 73.056 11.3503 72.7461 12.7539L72.7734 12.7812C72.7188 12.9635 71.7891 12.8906 69.9844 12.5625C67.9062 12.4531 66.5391 12.3255 65.8828 12.1797L65.9102 12.0977C65.9648 11.9518 66.7487 11.9792 68.2617 12.1797C68.9362 12.2161 69.2917 12.1888 69.3281 12.0977V12.0703L69.082 12.0156C66.9492 11.5964 65.8281 11.6055 65.7188 12.043L65.5 12.0977C64.8984 11.9518 64.7617 11.2591 65.0898 10.0195C65.1628 9.69141 65.9102 9.61849 67.332 9.80078C67.3503 9.78255 67.4505 9.78255 67.6328 9.80078L68.125 10.0469L68.3438 10.1016L72.8828 10.5938ZM72.1992 10.8945H72.0352L72.0078 10.9492L72.2539 11.0312H72.4453V10.9766L72.1992 10.8945ZM70.8047 10.8945L71.1328 10.9766C71.3151 11.013 71.4245 10.9857 71.4609 10.8945L71.4062 10.8672C71.0052 10.8125 70.8047 10.8216 70.8047 10.8945ZM69.3281 10.7578V10.8125C69.5104 10.8672 69.6289 10.8581 69.6836 10.7852L69.7109 10.7305L69.5469 10.7031C69.4375 10.6849 69.3646 10.7031 69.3281 10.7578ZM70.9688 11.4961L71.5156 11.6328C72.0807 11.7604 72.4089 11.7695 72.5 11.6602L72.5273 11.5781L72.418 11.5234C71.4883 11.4141 71.0052 11.4049 70.9688 11.4961ZM68.0156 10.6484L67.9883 10.7578L68.0156 10.7852C68.3438 10.8581 68.6536 10.849 68.9453 10.7578V10.7305L68.8906 10.7031C68.6719 10.6484 68.3802 10.6302 68.0156 10.6484ZM65.6367 10.0469L65.5273 10.1016L65.418 10.457L65.5 10.5391C65.5547 10.5391 65.6367 10.4388 65.7461 10.2383L65.7734 10.1289L65.6914 10.0469H65.6367ZM66.457 10.2383L66.293 10.293V10.3477L66.457 10.4023L66.5391 10.3203V10.293L66.457 10.2383ZM70.4492 11.3867H70.3945L70.3672 11.4414L70.5039 11.4961L70.4492 11.3867ZM69.9297 12.0977L69.9023 12.1523H69.9297C71.5156 12.5169 72.3268 12.6445 72.3633 12.5352L72.3906 12.5078C72.3906 12.4349 72.3359 12.3529 72.2266 12.2617H72.1992C71.6341 12.1341 70.8776 12.0794 69.9297 12.0977ZM65.418 10.7852H65.3086V10.8945H65.3906L65.4727 10.8398L65.5 10.7852H65.418Z" fill="black"/>
</svg>
