<svg width="72" height="21" viewBox="0 0 72 21" fill="none" xmlns="http://www.w3.org/2000/svg">
<path d="M1.39062 0.203125C4.48958 0.458333 7.13281 0.622396 9.32031 0.695312C9.6849 0.841146 10.0586 0.96875 10.4414 1.07812H10.6055L10.6328 1.05078C10.7604 1.06901 10.8242 1.10547 10.8242 1.16016V1.24219C10.5143 1.4974 10.3594 2.14453 10.3594 3.18359V3.34766C10.3594 3.47526 10.4505 3.60286 10.6328 3.73047V3.75781L9.92188 6.10938C8.77344 7.71354 7.73438 9.31771 6.80469 10.9219C5.80208 12.2526 5.1276 13.3099 4.78125 14.0938L4.75391 14.4492L4.89062 16.8008L4.61719 19.7266C4.61719 19.8359 4.27995 19.9453 3.60547 20.0547L3.35938 19.9453H3.05859L3.25 19.7266V19.6719L3.19531 19.6172H3.11328C2.93099 19.6172 2.76693 19.6536 2.62109 19.7266C2.45703 19.7266 2.375 19.5443 2.375 19.1797V18.2773L2.40234 16.1992L2.375 15.2148C2.57552 14.3216 2.86719 13.5833 3.25 13C3.70573 12.526 3.93359 12.1068 3.93359 11.7422C4.00651 11.7422 4.07943 11.6055 4.15234 11.332L5.46484 9.39062C6.19401 8.22396 6.80469 7.02995 7.29688 5.80859L7.43359 5.61719V5.53516L7.37891 5.48047L8.28125 3.12891V3.07422C8.04427 3.07422 7.4974 2.94661 6.64062 2.69141C6.02083 2.69141 5.40104 2.63672 4.78125 2.52734L4.20703 2.71875C2.94922 2.57292 2.17448 2.5 1.88281 2.5H1.66406C1.44531 2.5 1.33594 2.51823 1.33594 2.55469C1.02604 2.55469 0.798177 2.18099 0.652344 1.43359C0.615885 1.43359 0.597656 1.36979 0.597656 1.24219C0.688802 0.877604 0.834635 0.695312 1.03516 0.695312L1.39062 0.722656V0.695312L1.08984 0.394531V0.367188C1.08984 0.3125 1.1901 0.257812 1.39062 0.203125ZM2.29297 0.859375H1.88281V0.941406L2.15625 1.24219V1.26953H1.58203L1.5 1.35156V1.40625L1.60938 1.48828H1.77344L2.15625 1.43359C2.9401 1.57943 3.55078 1.65234 3.98828 1.65234H4.72656C4.72656 1.5612 4.39844 1.47917 3.74219 1.40625V1.32422C5.98438 1.47005 7.4974 1.63411 8.28125 1.81641H8.47266C8.50911 1.81641 8.52734 1.77083 8.52734 1.67969C8.52734 1.42448 7.78906 1.26953 6.3125 1.21484L2.29297 0.859375ZM5.60156 1.54297V1.67969L5.90234 1.73438H6.09375V1.67969C6.09375 1.60677 5.92969 1.5612 5.60156 1.54297ZM9.45703 1.54297C9.14714 1.54297 8.99219 1.58854 8.99219 1.67969C8.99219 1.77083 9.19271 1.81641 9.59375 1.81641H9.64844L9.75781 1.67969V1.59766L9.56641 1.54297H9.45703ZM1.63672 1.92578L1.58203 2.00781C1.58203 2.11719 1.8099 2.17188 2.26562 2.17188H2.70312C2.48438 2.00781 2.13802 1.92578 1.66406 1.92578H1.63672ZM5.32812 1.95312C5.32812 2.02604 6.02995 2.13542 7.43359 2.28125L8.03516 2.44531H8.28125L8.39062 2.33594C8.39062 2.08073 7.36979 1.95312 5.32812 1.95312ZM9.45703 2.22656L9.32031 2.36328V2.41797H9.45703L9.51172 2.22656H9.45703ZM8.96484 3.07422C9.0013 3.16536 9.02865 3.21094 9.04688 3.21094H9.12891L9.26562 3.07422V2.91016L9.18359 2.88281H9.04688C8.99219 2.91927 8.96484 2.98307 8.96484 3.07422ZM9.45703 3.73047V3.75781C9.45703 3.9401 9.5026 4.04948 9.59375 4.08594H9.67578C9.76693 4.08594 9.8125 3.77604 9.8125 3.15625L9.75781 3.04688C9.64844 3.11979 9.54818 3.34766 9.45703 3.73047ZM8.66406 3.48438H8.63672L8.66406 3.64844H8.77344V3.56641L8.66406 3.48438ZM9.53906 4.41406H9.40234V4.44141L9.34766 5.20703L9.40234 5.26172H9.45703C9.49349 5.26172 9.55729 5.07943 9.64844 4.71484V4.60547L9.53906 4.41406ZM8.0625 4.63281H7.92578V4.71484L7.54297 5.83594V5.86328H7.59766C7.92578 5.37109 8.09896 5.00651 8.11719 4.76953V4.6875L8.0625 4.63281ZM6.39453 8.76172V8.81641H6.55859C6.74089 8.81641 7.01432 8.46094 7.37891 7.75C8.14453 6.51042 8.52734 5.79948 8.52734 5.61719V5.5625L8.47266 5.48047H8.36328C8.23568 5.58984 7.88932 6.11849 7.32422 7.06641C6.70443 8.03255 6.39453 8.59766 6.39453 8.76172ZM8.47266 6.84766H8.44531C7.9349 7.6862 7.67969 8.17839 7.67969 8.32422H7.76172C8.25391 7.75911 8.5 7.26693 8.5 6.84766H8.47266ZM7.24219 9.0625V9.11719C7.26042 9.11719 7.39714 8.96224 7.65234 8.65234V8.57031H7.57031C7.35156 8.7526 7.24219 8.91667 7.24219 9.0625ZM6.64062 10.1016H6.69531C6.95052 9.8099 7.07812 9.57292 7.07812 9.39062V9.33594H7.05078C6.90495 9.33594 6.76823 9.59115 6.64062 10.1016ZM5.79297 11.0859V11.1953H5.90234L6.06641 10.8125L6.01172 10.7852C5.90234 10.7852 5.82943 10.8854 5.79297 11.0859ZM4.53516 11.1953V11.3047H4.58984C4.86328 11.1224 5 10.9766 5 10.8672H4.94531C4.81771 10.9036 4.68099 11.013 4.53516 11.1953ZM4.61719 12.0156H4.67188C4.76302 12.0156 4.83594 11.9518 4.89062 11.8242L4.83594 11.7695C4.6901 11.806 4.61719 11.888 4.61719 12.0156ZM4.39844 12.2617L4.31641 12.3711V12.4531H4.34375L4.48047 12.3438V12.2617H4.39844ZM3.35938 13.5742H3.38672C3.67839 13.3919 3.82422 13.2461 3.82422 13.1367H3.79688C3.50521 13.2643 3.35938 13.4102 3.35938 13.5742ZM3.82422 13.957L3.71484 14.0664V14.0938H3.85156L3.87891 13.9844L3.85156 13.957H3.82422ZM3.71484 14.6406V15.1055C3.86068 15.5794 3.93359 15.862 3.93359 15.9531L4.04297 16.0078H4.07031C4.125 16.0078 4.17057 15.8802 4.20703 15.625L4.07031 14.9414L4.15234 14.3672H4.125L4.09766 14.3398C3.84245 14.431 3.71484 14.5312 3.71484 14.6406ZM3.25 14.9961H3.14062V15.1055L3.25 15.0234V14.9961ZM3.87891 17.4023H3.79688V17.4844C3.79688 17.6484 3.84245 17.7487 3.93359 17.7852H3.98828L4.07031 17.7031V17.6758C4.07031 17.5482 4.00651 17.457 3.87891 17.4023ZM3.60547 18.6602L3.55078 18.7695V18.8242H3.60547L3.66016 18.7695V18.6602H3.60547ZM2.83984 18.9609L2.70312 19.0703V19.1797C2.75781 19.3073 2.8763 19.3711 3.05859 19.3711H3.38672C3.55078 19.3711 3.64193 19.3346 3.66016 19.2617C3.66016 19.0612 3.45964 18.9609 3.05859 18.9609H2.83984ZM4.15234 19.3438L4.09766 19.3984L4.125 19.4531H4.23438V19.3438H4.15234ZM26.3008 1.73438C26.7018 1.73438 27.4948 1.98047 28.6797 2.47266C30.2474 3.18359 31.0312 4.1862 31.0312 5.48047V6.4375C31.0312 7.07552 30.8125 7.75 30.375 8.46094C30.138 9.35417 29.9284 9.80078 29.7461 9.80078C29.0352 10.1289 28.6797 10.4206 28.6797 10.6758V10.9492C28.6797 11.5872 28.7526 12.2708 28.8984 13C28.8438 13.9661 28.7253 14.4492 28.543 14.4492C28.3971 14.4492 28.0781 14.6133 27.5859 14.9414L27.2852 14.9688C26.9753 14.9688 26.8203 14.8047 26.8203 14.4766C26.4922 12.6172 26.3281 11.25 26.3281 10.375C26.3281 10.1927 26.7747 9.74609 27.668 9.03516C28.1055 8.59766 28.3698 8.2513 28.4609 7.99609C28.6615 7.77734 28.7799 7.66797 28.8164 7.66797L29.0625 7.75C29.2266 7.75 29.3724 7.38542 29.5 6.65625V6.57422L29.2266 6.08203V5.97266H29.1992L29.3086 5.69922V5.34375C29.3086 5.14323 29.1628 4.92448 28.8711 4.6875C28.7253 4.32292 28.4974 4.14062 28.1875 4.14062C27.5859 3.92188 26.9206 3.8125 26.1914 3.8125H25.918C24.9336 3.8125 24.013 4.46875 23.1562 5.78125L22.0898 7.14844V7.23047C21.7253 7.70443 21.3789 7.75911 21.0508 7.39453C20.7227 7.01172 20.5586 6.72917 20.5586 6.54688L20.8594 5.50781C21.0781 4.9974 21.4701 4.50521 22.0352 4.03125C23.1289 3.13802 24.0586 2.5 24.8242 2.11719C25.2799 1.86198 25.7721 1.73438 26.3008 1.73438ZM24.8242 2.52734V2.58203H25.125C25.599 2.58203 26.0182 2.47266 26.3828 2.25391V2.17188L26.3008 2.11719H26.0273C25.6081 2.11719 25.207 2.25391 24.8242 2.52734ZM27.3945 2.47266L27.2852 2.52734V2.58203C27.2852 2.63672 27.349 2.66406 27.4766 2.66406C27.6771 2.66406 27.7773 2.61849 27.7773 2.52734L27.6953 2.47266H27.3945ZM24.168 3.01953L24.25 3.10156L24.5781 2.99219V2.85547H24.5234C24.3411 2.85547 24.2227 2.91016 24.168 3.01953ZM29.1992 3.15625L29.1719 3.21094C29.2995 3.46615 29.5456 3.66667 29.9102 3.8125H30.0469V3.78516C30.0469 3.65755 29.7643 3.44792 29.1992 3.15625ZM22.418 4.19531C22.7643 4.19531 23.138 3.99479 23.5391 3.59375C23.7396 3.5026 23.8398 3.4388 23.8398 3.40234V3.375L23.6484 3.21094H23.6211C23.5299 3.21094 23.1927 3.41146 22.6094 3.8125C22.4818 3.86719 22.418 3.99479 22.418 4.19531ZM26 3.21094H25.918V3.26562H26V3.21094ZM22.0898 4.44141L21.9805 4.60547V4.63281H22.0078C22.099 4.59635 22.1445 4.53255 22.1445 4.44141H22.0898ZM30.5117 4.87891H30.457V4.90625C30.457 5.05208 30.5117 5.13411 30.6211 5.15234H30.6484V5.125C30.6484 4.9974 30.6029 4.91536 30.5117 4.87891ZM22.7734 5.23438V5.28906H22.8281C22.9193 5.2526 22.9831 5.17969 23.0195 5.07031V5.01562L22.9648 4.96094C22.8372 5.01562 22.7734 5.10677 22.7734 5.23438ZM21.2422 5.69922V5.75391L21.3516 5.78125C21.6068 5.63542 21.7344 5.47135 21.7344 5.28906V5.17969H21.6523C21.3789 5.36198 21.2422 5.53516 21.2422 5.69922ZM21.6523 6.35547L21.5703 6.38281V6.46484H21.6523L21.7344 6.38281V6.35547H21.6523ZM21.7891 7.64062H21.8164V7.72266H21.7891V7.64062ZM29.1445 7.91406H28.9805V8.05078H29.0625L29.1445 7.94141V7.91406ZM29.1992 9.19922V9.28125H29.2539C29.4362 9.28125 29.5365 9.22656 29.5547 9.11719L29.5 9.08984H29.4727C29.2904 9.10807 29.1992 9.14453 29.1992 9.19922ZM27.0117 10.5664V10.6484C27.0117 11.0677 27.1393 11.2773 27.3945 11.2773C27.4128 11.2773 27.4401 11.2044 27.4766 11.0586C27.4583 10.5117 27.4128 10.2383 27.3398 10.2383H27.2031C27.0755 10.2565 27.0117 10.3659 27.0117 10.5664ZM28.1328 11.1953L28.0781 11.2773H28.1875V11.1953H28.1328ZM27.2852 11.6055L27.2031 11.7148V11.7695C27.2031 11.9336 27.2669 12.0247 27.3945 12.043H27.4492L27.4766 11.8789C27.4766 11.7695 27.4128 11.6784 27.2852 11.6055ZM27.5859 13.4922L27.4492 13.6562L27.5586 13.9844L27.4492 14.4492H27.6133C27.7409 14.4492 27.8503 14.3763 27.9414 14.2305V14.1211C27.8685 14.0664 27.832 13.8932 27.832 13.6016L27.6953 13.4922H27.5859ZM27.9688 16.418C28.2786 16.418 28.7708 16.6094 29.4453 16.9922C29.7188 17.0651 29.8555 17.1289 29.8555 17.1836C29.8555 17.2565 29.6914 17.3203 29.3633 17.375V17.4023V17.457L29.5 17.9219C29.8281 18.7422 29.6367 19.3984 28.9258 19.8906C27.7773 19.9089 27.0026 19.3529 26.6016 18.2227L26.4922 17.8125C26.4922 17.4115 26.9844 16.9466 27.9688 16.418ZM27.9688 16.8828H27.7773V16.9102C27.8503 17.0195 28.1328 17.138 28.625 17.2656L28.6797 17.2109V17.1562C28.5156 16.974 28.2786 16.8828 27.9688 16.8828ZM27.5859 18.0586C27.5859 18.0768 27.668 18.1315 27.832 18.2227C27.8685 18.332 27.9049 18.3867 27.9414 18.3867H27.9688L28.2969 17.9766C28.2969 17.8672 28.2422 17.7852 28.1328 17.7305H27.6953C27.6224 17.7487 27.5859 17.8581 27.5859 18.0586ZM46.5898 0.667969H46.8086C47.0091 0.667969 47.3372 0.813802 47.793 1.10547C48.5768 1.39714 48.9688 1.71615 48.9688 2.0625C49.5521 3.32031 49.8438 4.25911 49.8438 4.87891C49.8073 5.04297 49.7435 5.53516 49.6523 6.35547C49.3424 7.17578 48.9505 7.88672 48.4766 8.48828C50.0078 9.76432 50.8646 10.7305 51.0469 11.3867C51.0469 11.4961 51.2839 11.9245 51.7578 12.6719L51.6758 14.4766L51.6484 14.5859H51.5664V14.3125C51.5664 14.1302 51.5391 14.0391 51.4844 14.0391H51.4023C51.293 14.0391 51.2109 14.2578 51.1562 14.6953C51.2109 14.9323 51.2656 15.0508 51.3203 15.0508H51.375C51.4844 15.0508 51.5482 14.9323 51.5664 14.6953H51.6484C51.6484 15.2786 51.4844 15.8164 51.1562 16.3086L51.0469 16.1172H50.9375L50.8281 16.1992V16.3359L50.9648 16.4727L50.9375 16.6641L51.0469 16.9375C51.0469 17.0833 50.8555 17.2839 50.4727 17.5391V17.4844L50.5547 17.375V17.3477L50.4727 17.2656H50.3086C49.9987 17.4297 49.7617 17.7487 49.5977 18.2227L49.7344 18.2773L50.3633 17.7852V17.8125C49.944 18.4505 49.5156 18.8333 49.0781 18.9609C48.8229 19.1979 48.4583 19.4258 47.9844 19.6445C47.6562 19.918 47 20.1641 46.0156 20.3828C46.0156 20.4193 45.9062 20.4375 45.6875 20.4375C45.2682 20.4375 44.5208 20.2188 43.4453 19.7812C42.7891 19.7812 41.9688 18.6875 40.9844 16.5C40.9297 16.5 40.8568 16.181 40.7656 15.543V15.0508C40.7656 13.9388 40.9479 13.0182 41.3125 12.2891C41.513 11.3594 41.75 10.8945 42.0234 10.8945C42.0234 10.694 42.2695 10.3021 42.7617 9.71875L43.0625 9.36328V9.28125C42.8802 9.28125 42.2969 8.69792 41.3125 7.53125C40.7656 5.94531 40.4922 4.9974 40.4922 4.6875C40.638 4.57812 40.7109 4.40495 40.7109 4.16797L40.9023 4.25H40.9297C41.0208 4.21354 41.0664 4.13151 41.0664 4.00391V3.83984L40.957 3.70312H40.9023L40.8203 3.92188L40.7109 3.89453V3.83984C40.8932 3.22005 41.2487 2.74609 41.7773 2.41797C41.9596 1.90755 42.3424 1.54297 42.9258 1.32422C44.0195 0.886719 45.2409 0.667969 46.5898 0.667969ZM42.0234 2.80078L42.0781 2.82812H42.1055C42.2513 2.82812 42.7982 2.36328 43.7461 1.43359C43.819 1.43359 43.8555 1.39714 43.8555 1.32422H43.8008C43.4362 1.32422 42.9349 1.625 42.2969 2.22656C42.1693 2.39062 42.0781 2.58203 42.0234 2.80078ZM45.5234 1.65234V1.73438L47.1094 2.17188V1.67969H47.1914V1.65234L47.793 1.84375H47.875C47.875 1.60677 47.4466 1.48828 46.5898 1.48828C46.444 1.45182 46.2526 1.43359 46.0156 1.43359C45.8333 1.43359 45.6693 1.50651 45.5234 1.65234ZM43.3086 2.39062H43.3906C43.8281 2.17188 44.0469 1.9987 44.0469 1.87109H43.9375C43.6458 1.98047 43.4362 2.15365 43.3086 2.39062ZM42.7617 5.23438V5.37109C42.7982 6.04557 43.3724 7.04818 44.4844 8.37891L44.8398 8.625H44.8672L45.1953 8.54297H45.4414C46.0247 8.54297 46.7174 8.32422 47.5195 7.88672C47.8112 7.72266 48.1302 7.28516 48.4766 6.57422C48.6042 6.30078 48.7409 6.16406 48.8867 6.16406L48.832 5.89062L48.9961 5.28906V5.125C48.9961 5.10677 48.9232 5.07943 48.7773 5.04297L48.0938 3.23828C47.9844 3.03776 47.7018 2.90104 47.2461 2.82812C47.0638 2.60938 46.3802 2.33594 45.1953 2.00781C44.8125 2.00781 44.0742 2.47266 42.9805 3.40234C42.8346 3.78516 42.7617 4.39583 42.7617 5.23438ZM48.1211 2.11719H47.875V2.14453C47.9297 2.27214 48.0299 2.33594 48.1758 2.33594H48.2031L48.2852 2.28125C48.2305 2.20833 48.1758 2.15365 48.1211 2.11719ZM48.6406 2.60938V2.66406C48.7682 2.99219 48.9049 3.15625 49.0508 3.15625V3.01953C48.9414 2.74609 48.8047 2.60938 48.6406 2.60938ZM41.0391 3.40234V3.56641H41.0664C41.3216 3.47526 41.4492 3.29297 41.4492 3.01953V2.88281H41.3398C41.2487 2.88281 41.1484 3.05599 41.0391 3.40234ZM41.2031 4.71484C41.2031 5.0612 41.2305 5.23438 41.2852 5.23438H41.3125C41.4948 5.23438 41.6133 5.11589 41.668 4.87891V4.52344C41.668 3.9401 41.7773 3.51172 41.9961 3.23828V3.01953H41.75C41.6406 3.01953 41.5586 3.30208 41.5039 3.86719C41.431 3.86719 41.3307 4.14974 41.2031 4.71484ZM48.8594 3.40234H48.7227V3.51172L48.6406 3.8125L48.8867 4.25C48.8867 4.41406 48.9232 4.53255 48.9961 4.60547L48.9688 4.79688V4.82422H48.9961L49.0781 4.71484V4.25C49.0781 3.6849 49.0052 3.40234 48.8594 3.40234ZM42.2969 4.76953L42.3789 4.82422C42.4336 4.73307 42.4609 4.64193 42.4609 4.55078H42.4336C42.3424 4.58724 42.2969 4.66016 42.2969 4.76953ZM42.0234 5.45312C42.1328 6.3099 42.4062 7.01172 42.8438 7.55859C43.3906 8.14193 43.7552 8.47005 43.9375 8.54297H44.0469C44.0469 8.50651 43.7826 8.11458 43.2539 7.36719C42.6888 6.36458 42.388 5.69922 42.3516 5.37109L42.1875 5.23438H42.1602C42.069 5.27083 42.0234 5.34375 42.0234 5.45312ZM49.4609 5.31641L49.3516 5.23438C49.224 5.59896 49.1602 5.89062 49.1602 6.10938L49.1875 6.13672H49.2695C49.3971 6.11849 49.4609 6 49.4609 5.78125V5.31641ZM41.0938 5.72656C41.1849 6.29167 41.4492 6.94792 41.8867 7.69531C41.9414 7.69531 42.1055 7.90495 42.3789 8.32422C42.7617 8.77995 43.1172 9.00781 43.4453 9.00781H43.6367V8.95312C43.6367 8.89844 43.1901 8.47917 42.2969 7.69531C41.9323 7.27604 41.75 6.99349 41.75 6.84766C41.6224 6.68359 41.5039 6.22786 41.3945 5.48047L41.3398 5.45312H41.2031C41.1302 5.47135 41.0938 5.5625 41.0938 5.72656ZM47.7109 8.24219V8.26953H47.7656C48.0573 8.26953 48.4401 7.89583 48.9141 7.14844L48.9961 6.79297V6.60156L48.9141 6.46484C48.7865 6.5013 48.5768 6.86589 48.2852 7.55859C48.1576 7.75911 47.9661 7.98698 47.7109 8.24219ZM46.5078 8.67969L46.5625 8.73438H46.6992C46.8086 8.73438 46.9453 8.67969 47.1094 8.57031V8.48828C46.8542 8.48828 46.6536 8.55208 46.5078 8.67969ZM48.0938 8.76172L47.9844 8.81641C48.2214 8.94401 48.4401 9.00781 48.6406 9.00781L48.668 8.95312V8.84375L48.5859 8.76172H48.0938ZM47.6016 9.11719L47.2734 9.22656V9.28125C47.3099 9.35417 47.7109 9.52734 48.4766 9.80078C48.8411 10.0742 49.069 10.2109 49.1602 10.2109V10.0469C48.7227 9.42708 48.2031 9.11719 47.6016 9.11719ZM44.0742 9.22656H43.9102V9.30859C43.9102 9.38151 44.056 9.42708 44.3477 9.44531H44.5938L44.6484 9.36328C44.6484 9.27214 44.457 9.22656 44.0742 9.22656ZM45.5234 9.22656H45.168V9.30859L45.2227 9.36328H45.332C45.6237 9.36328 45.888 9.33594 46.125 9.28125V9.22656H45.5234ZM41.7773 11.5781H41.8867C42.0143 11.5781 42.543 11.0951 43.4727 10.1289C43.5638 10.1289 43.6914 10.0195 43.8555 9.80078V9.77344C43.819 9.66406 43.7188 9.60938 43.5547 9.60938H43.4453C43.1536 9.60938 42.7526 9.97396 42.2422 10.7031C42.224 10.7031 42.1693 10.8307 42.0781 11.0859C41.8776 11.2865 41.7773 11.4505 41.7773 11.5781ZM42.9805 12.125L43.0352 12.1797V12.207L43.1992 12.1797L43.2539 12.2617C42.7253 13.3737 42.4609 14.0664 42.4609 14.3398V14.4219C42.4609 16.2812 42.7708 17.4388 43.3906 17.8945C44.138 18.6055 44.7669 18.9609 45.2773 18.9609H45.5234L45.6055 18.8789C45.5872 18.8424 45.25 18.6784 44.5938 18.3867C44.0286 18.0404 43.6549 17.7578 43.4727 17.5391V17.4844H43.5273L44.9492 18.3047C46.0794 18.6875 46.7995 18.8789 47.1094 18.8789H47.1914C47.3372 18.8789 47.638 18.6602 48.0938 18.2227V18.3867C48.6042 18.2044 49.0234 17.8034 49.3516 17.1836L49.4609 16.8008V16.7461L49.0781 16.9375V16.9102C49.5156 16.2904 49.7344 15.862 49.7344 15.625C49.7344 14.8776 49.6432 14.2214 49.4609 13.6562V13.3555C49.4609 13.1367 49.388 12.6354 49.2422 11.8516V11.8242L49.3242 11.7695L49.5703 11.9336V11.8789V11.7695C49.5703 11.569 49.4974 11.4232 49.3516 11.332H49.2695V11.6055H49.1875C49.1146 11.5872 48.9961 11.3229 48.832 10.8125C48.2852 10.0651 47.5286 9.69141 46.5625 9.69141C44.6849 10.0195 43.7461 10.4297 43.7461 10.9219C43.7461 11.487 43.4909 11.888 42.9805 12.125ZM42.2422 11.9883C42.3698 11.9883 42.4974 11.8971 42.625 11.7148V11.6602H42.5703C42.3698 11.6602 42.2604 11.7695 42.2422 11.9883ZM41.668 13.5742C41.668 13.6654 41.7773 13.7292 41.9961 13.7656C42.1784 13.7656 42.3242 13.5833 42.4336 13.2188V13.0547C42.4336 13 42.3242 12.9727 42.1055 12.9727L42.0781 12.9453V12.8906C42.0781 12.8359 42.1693 12.8086 42.3516 12.8086C42.4245 12.8086 42.5156 12.6901 42.625 12.4531V12.3984L42.5703 12.3438C42.4427 12.3438 42.3151 12.3802 42.1875 12.4531V12.3984V12.3711V12.3438V12.1797H41.9961C41.7773 12.1797 41.668 12.6445 41.668 13.5742ZM50.4453 12.5352C50.4818 12.9727 50.5365 13.2005 50.6094 13.2188C50.6641 13.2188 50.7005 13.1094 50.7188 12.8906C50.6641 12.599 50.6003 12.4531 50.5273 12.4531C50.4727 12.4531 50.4453 12.4805 50.4453 12.5352ZM50.0352 13.8477V13.957L50.0898 14.2578L50.0078 14.3672V14.5039C50.0078 14.6497 50.0534 14.7227 50.1445 14.7227H50.2812C50.4089 14.668 50.4727 14.5768 50.4727 14.4492V14.3398C50.3633 13.6836 50.2721 13.3555 50.1992 13.3555H50.1445C50.0716 13.3555 50.0352 13.5195 50.0352 13.8477ZM41.0938 15.8984C41.5495 16.8828 41.8867 17.5026 42.1055 17.7578H42.1602V17.7031L41.5586 15.1328C41.4857 14.8594 41.4492 14.5586 41.4492 14.2305L41.5039 13.6836L41.4766 13.6562H41.3398C41.2305 13.6562 41.1484 14.4036 41.0938 15.8984ZM51.1562 15.5156L51.2109 15.543H51.2383C51.3294 15.5065 51.375 15.4336 51.375 15.3242H51.3203C51.2656 15.3242 51.2109 15.388 51.1562 15.5156ZM50.5273 16.6094L50.418 16.6914V16.8555H50.4453L50.5547 16.7461V16.6094H50.5273ZM48.5586 17.5391L48.668 17.4023H48.7227V17.4844L48.5859 17.6211H48.5586V17.5391ZM48.3398 17.8945V17.8125H48.4492V17.8945H48.3398ZM42.707 18.0859H42.625V18.4688C42.625 18.7969 42.8802 19.0247 43.3906 19.1523H43.4453L43.5273 19.0977C43.3815 18.7695 43.1081 18.4323 42.707 18.0859ZM46.125 18.9883L45.8789 19.0156V19.0977L45.9062 19.1523H46.207C46.3164 19.1523 46.3802 19.125 46.3984 19.0703V19.0156L46.2344 18.9883H46.125ZM43.9922 19.2891L43.9102 19.3438V19.3984C44.1836 19.7448 44.7305 19.918 45.5508 19.918C45.7878 19.8997 45.9062 19.8724 45.9062 19.8359V19.7539C45.6875 19.7539 45.0859 19.599 44.1016 19.2891H43.9922ZM46.3164 19.6992V19.7812H46.3438C46.599 19.7812 46.8815 19.6628 47.1914 19.4258V19.3711H47.1641C46.599 19.4987 46.3164 19.6081 46.3164 19.6992ZM71.3633 13.9844L71.4727 14.0117C71.582 14.0482 71.5729 14.7773 71.4453 16.1992H71.4727C71.4544 16.3815 70.5156 16.3815 68.6562 16.1992C66.5781 16.3268 65.2201 16.3359 64.582 16.2266V16.1992C64.6003 16.0352 65.3932 15.9714 66.9609 16.0078C67.599 15.9896 67.9362 15.9349 67.9727 15.8438L68 15.8164L67.7266 15.7617C65.5755 15.5794 64.4635 15.707 64.3906 16.1445L64.1719 16.1992C63.5521 16.1263 63.3424 15.4427 63.543 14.1484C63.5977 13.8203 64.3359 13.6836 65.7578 13.7383C65.7578 13.7018 65.8581 13.7018 66.0586 13.7383L66.5781 13.9297L66.8242 13.957L71.3633 13.9844ZM70.7344 14.3398L70.5703 14.3672L70.543 14.4492L70.7891 14.4766H70.9531L70.9805 14.3945L70.7344 14.3398ZM69.3125 14.4766L69.668 14.5312C69.832 14.5677 69.9414 14.5404 69.9961 14.4492V14.4219H69.9141C69.5312 14.4036 69.3307 14.4219 69.3125 14.4766ZM67.8359 14.4766V14.5586H67.8906C68.0547 14.5951 68.1549 14.5677 68.1914 14.4766V14.4492H68.082C67.9544 14.431 67.8724 14.4401 67.8359 14.4766ZM69.5312 15.0781L70.1055 15.1875C70.707 15.2422 71.0443 15.2057 71.1172 15.0781V15.0234L70.9805 14.9688C70.0508 14.9505 69.5677 14.987 69.5312 15.0781ZM66.5234 14.5312L66.4961 14.6406H66.5508C66.9518 14.6953 67.2526 14.6589 67.4531 14.5312V14.5039L67.3984 14.4766C67.2344 14.4583 66.9427 14.4766 66.5234 14.5312ZM64.0898 14.1484L64.0078 14.2305L63.9258 14.5586L64.0078 14.6406V14.668C64.0625 14.668 64.1354 14.5586 64.2266 14.3398V14.2305L64.1992 14.1484H64.0898ZM64.9375 14.2578L64.8008 14.3672L64.7734 14.3945L64.9375 14.4219L64.9922 14.3672L65.0195 14.2852L64.9375 14.2578ZM69.0117 15.0234H68.9297V15.0781L69.0938 15.1328L69.0117 15.0234ZM68.5469 15.7891V15.8164H68.5742C70.1784 16.0169 70.9987 16.0716 71.0352 15.9805V15.9531C71.0352 15.8984 70.9896 15.8255 70.8984 15.7344H70.8711C70.306 15.6615 69.5312 15.6797 68.5469 15.7891ZM63.9531 14.8867L63.8711 14.9414V15.0234H63.9258L64.0078 14.9688V14.9141L63.9531 14.8867ZM71.582 10.5938L71.6914 10.6211C71.8372 10.6393 71.7552 11.3503 71.4453 12.7539L71.4727 12.7812C71.418 12.9635 70.4883 12.8906 68.6836 12.5625C66.6055 12.4531 65.2383 12.3255 64.582 12.1797L64.6094 12.0977C64.6641 11.9518 65.4479 11.9792 66.9609 12.1797C67.6354 12.2161 67.9909 12.1888 68.0273 12.0977V12.0703L67.7812 12.0156C65.6484 11.5964 64.5273 11.6055 64.418 12.043L64.1992 12.0977C63.5977 11.9518 63.4609 11.2591 63.7891 10.0195C63.862 9.69141 64.6094 9.61849 66.0312 9.80078C66.0495 9.78255 66.1497 9.78255 66.332 9.80078L66.8242 10.0469L67.043 10.1016L71.582 10.5938ZM70.8984 10.8945H70.7344L70.707 10.9492L70.9531 11.0312H71.1445V10.9766L70.8984 10.8945ZM69.5039 10.8945L69.832 10.9766C70.0143 11.013 70.1237 10.9857 70.1602 10.8945L70.1055 10.8672C69.7044 10.8125 69.5039 10.8216 69.5039 10.8945ZM68.0273 10.7578V10.8125C68.2096 10.8672 68.3281 10.8581 68.3828 10.7852L68.4102 10.7305L68.2461 10.7031C68.1367 10.6849 68.0638 10.7031 68.0273 10.7578ZM69.668 11.4961L70.2148 11.6328C70.7799 11.7604 71.1081 11.7695 71.1992 11.6602L71.2266 11.5781L71.1172 11.5234C70.1875 11.4141 69.7044 11.4049 69.668 11.4961ZM66.7148 10.6484L66.6875 10.7578L66.7148 10.7852C67.043 10.8581 67.3529 10.849 67.6445 10.7578V10.7305L67.5898 10.7031C67.3711 10.6484 67.0794 10.6302 66.7148 10.6484ZM64.3359 10.0469L64.2266 10.1016L64.1172 10.457L64.1992 10.5391C64.2539 10.5391 64.3359 10.4388 64.4453 10.2383L64.4727 10.1289L64.3906 10.0469H64.3359ZM65.1562 10.2383L64.9922 10.293V10.3477L65.1562 10.4023L65.2383 10.3203V10.293L65.1562 10.2383ZM69.1484 11.3867H69.0938L69.0664 11.4414L69.2031 11.4961L69.1484 11.3867ZM68.6289 12.0977L68.6016 12.1523H68.6289C70.2148 12.5169 71.026 12.6445 71.0625 12.5352L71.0898 12.5078C71.0898 12.4349 71.0352 12.3529 70.9258 12.2617H70.8984C70.3333 12.1341 69.5768 12.0794 68.6289 12.0977ZM64.1172 10.7852H64.0078V10.8945H64.0898L64.1719 10.8398L64.1992 10.7852H64.1172Z" fill="black"/>
</svg>
