<svg width="116" height="22" viewBox="0 0 116 22" fill="none" xmlns="http://www.w3.org/2000/svg">
<path d="M3.79883 0.859375V0.503906V0.476562C4.80143 0.585938 5.30273 0.740885 5.30273 0.941406C5.13867 1.94401 4.81966 4.55078 4.3457 8.76172C4.23633 9.67318 4.08138 10.3659 3.88086 10.8398C3.42513 11.4596 3.14258 12.2435 3.0332 13.1914C3.16081 13.2826 3.89909 13.3828 5.24805 13.4922C5.68555 13.6562 6.02279 13.7383 6.25977 13.7383H6.56055L7.95508 13.6016H8.58398V13.5742C8.47461 12.4622 8.38346 10.3385 8.31055 7.20312C8.23763 6.80208 8.1556 6.57422 8.06445 6.51953C8.06445 6.42839 8.36523 6.33724 8.9668 6.24609C8.9668 6.19141 9.04883 6.15495 9.21289 6.13672C9.44987 6.13672 9.5957 6.22786 9.65039 6.41016L9.48633 6.84766C9.81445 7.3763 9.97852 9.07161 9.97852 11.9336C9.97852 12.9544 10.0514 13.4648 10.1973 13.4648H10.2793C10.9902 13.4648 11.4642 13.3919 11.7012 13.2461L11.8926 13.3555L11.8652 13.6016V13.8203L11.9746 14.0117L11.9473 14.2852C11.9473 14.832 11.7467 15.1693 11.3457 15.2969C10.9447 15.4062 10.7441 15.5156 10.7441 15.625H10.2793C10.2246 15.625 10.1973 15.6523 10.1973 15.707C10.3431 16.9648 10.416 18.1406 10.416 19.2344C10.5072 19.6354 10.5527 20.0456 10.5527 20.4648L10.7715 20.5742V20.6289C10.7715 20.7565 10.1973 21.0026 9.04883 21.3672C8.90299 21.2396 8.71159 21.1758 8.47461 21.1758L8.41992 21.1211C8.62044 19.7721 8.7207 18.7878 8.7207 18.168C8.7207 16.3086 8.60221 15.3789 8.36523 15.3789L7.2168 15.3242H4.89258L4.07227 15.4062C1.44727 15.3698 0.134766 15.2422 0.134766 15.0234C0.0800781 15.0234 0.0527344 15.0052 0.0527344 14.9688C0.636068 14.4219 0.927734 14.0117 0.927734 13.7383C1.20117 13.1003 1.33789 12.444 1.33789 11.7695C1.83008 10.4023 2.18555 8.50651 2.4043 6.08203C2.4043 5.77214 2.5957 4.48698 2.97852 2.22656C2.97852 1.91667 3.06966 1.48828 3.25195 0.941406H3.2793C3.38867 1.05078 3.48893 1.10547 3.58008 1.10547H3.7168L3.79883 0.996094V0.859375ZM3.60742 2.11719V2.17188C3.62565 2.40885 3.66211 2.52734 3.7168 2.52734H3.77148V2.41797C3.77148 2.32682 3.8444 2.15365 3.99023 1.89844L4.07227 1.46094V1.43359L4.04492 1.35156H3.93555C3.7168 1.35156 3.60742 1.60677 3.60742 2.11719ZM4.20898 3.42969V3.51172L4.29102 3.59375C4.36393 3.53906 4.40039 3.45703 4.40039 3.34766V3.12891H4.37305C4.31836 3.12891 4.26367 3.22917 4.20898 3.42969ZM2.70508 6.16406V6.19141L2.81445 6.27344H2.8418L3.0332 6.24609V6.08203L2.92383 5.86328L3.11523 4.90625H3.08789C2.83268 5.45312 2.70508 5.8724 2.70508 6.16406ZM3.79883 8.625V8.78906H3.88086C3.99023 8.7526 4.04492 8.67057 4.04492 8.54297V8.35156H3.93555C3.8444 8.40625 3.79883 8.4974 3.79883 8.625ZM2.70508 10.9766V11.0039C2.92383 11.0039 3.0332 10.8581 3.0332 10.5664V10.4297L3.00586 10.4023V10.375C2.87826 10.375 2.77799 10.5755 2.70508 10.9766ZM8.99414 10.5391L8.91211 10.4844V10.5117V10.7031H8.99414V10.5391ZM2.75977 11.1133H2.5957V11.25H2.70508L2.75977 11.168V11.1133ZM8.91211 11.2773V11.6602C8.91211 11.7878 8.93945 11.8516 8.99414 11.8516L9.04883 11.7695V11.5781C9.04883 11.4141 9.00326 11.3138 8.91211 11.2773ZM2.21289 12.6172L2.13086 12.6719V12.7266H2.21289L2.29492 12.6445V12.6172H2.21289ZM1.80273 13.7383L1.88477 13.8477H1.9668L2.37695 13.7656V13.7383C2.34049 13.6471 2.25846 13.6016 2.13086 13.6016H2.02148C1.91211 13.6016 1.83919 13.6471 1.80273 13.7383ZM11.4004 13.7383L10.6074 13.8203V13.875C10.6621 13.9479 10.8535 14.0026 11.1816 14.0391C11.3275 14.0391 11.4368 13.9753 11.5098 13.8477V13.7656C11.5098 13.7474 11.4733 13.7383 11.4004 13.7383ZM3.25195 13.875L3.30664 13.957L3.93555 13.875V13.8477C3.93555 13.7747 3.78971 13.7383 3.49805 13.7383C3.33398 13.7565 3.25195 13.8021 3.25195 13.875ZM4.91992 14.6133C5.32096 14.7227 6.37826 14.7773 8.0918 14.7773C8.38346 14.7773 8.58398 14.6953 8.69336 14.5312C8.69336 14.513 8.53841 14.4857 8.22852 14.4492C6.02279 14.4674 4.91992 14.5221 4.91992 14.6133ZM10.1699 14.4492L10.0879 14.5039V14.5586L10.2793 14.7227L10.1426 14.9414V14.9688C10.1608 15.0234 10.252 15.0508 10.416 15.0508H10.6621C10.9173 15.0508 11.1725 15.0234 11.4277 14.9688C11.4277 14.9323 11.209 14.8503 10.7715 14.7227C10.6986 14.5404 10.5345 14.4492 10.2793 14.4492H10.1699ZM9.10352 16.0898V16.1992L9.18555 16.2539L9.21289 16.1992V15.8984C9.13997 15.9167 9.10352 15.9805 9.10352 16.0898ZM9.78711 19.3711C9.80534 19.5534 9.85091 19.6445 9.92383 19.6445L9.97852 19.6172V19.2891C9.97852 19.1432 9.95117 19.0521 9.89648 19.0156C9.82357 19.0156 9.78711 19.1341 9.78711 19.3711ZM9.02148 20.3828V20.4375H9.04883C9.1582 20.3828 9.21289 20.2826 9.21289 20.1367C9.08529 20.1549 9.02148 20.237 9.02148 20.3828ZM28.2715 1.73438C28.6725 1.73438 29.4655 1.98047 30.6504 2.47266C32.2181 3.18359 33.002 4.1862 33.002 5.48047V6.4375C33.002 7.07552 32.7832 7.75 32.3457 8.46094C32.1087 9.35417 31.8991 9.80078 31.7168 9.80078C31.0059 10.1289 30.6504 10.4206 30.6504 10.6758V10.9492C30.6504 11.5872 30.7233 12.2708 30.8691 13C30.8145 13.9661 30.696 14.4492 30.5137 14.4492C30.3678 14.4492 30.0488 14.6133 29.5566 14.9414L29.2559 14.9688C28.946 14.9688 28.791 14.8047 28.791 14.4766C28.4629 12.6172 28.2988 11.25 28.2988 10.375C28.2988 10.1927 28.7454 9.74609 29.6387 9.03516C30.0762 8.59766 30.3405 8.2513 30.4316 7.99609C30.6322 7.77734 30.7507 7.66797 30.7871 7.66797L31.0332 7.75C31.1973 7.75 31.3431 7.38542 31.4707 6.65625V6.57422L31.1973 6.08203V5.97266H31.1699L31.2793 5.69922V5.34375C31.2793 5.14323 31.1335 4.92448 30.8418 4.6875C30.696 4.32292 30.4681 4.14062 30.1582 4.14062C29.5566 3.92188 28.8913 3.8125 28.1621 3.8125H27.8887C26.9043 3.8125 25.9837 4.46875 25.127 5.78125L24.0605 7.14844V7.23047C23.696 7.70443 23.3496 7.75911 23.0215 7.39453C22.6934 7.01172 22.5293 6.72917 22.5293 6.54688L22.8301 5.50781C23.0488 4.9974 23.4408 4.50521 24.0059 4.03125C25.0996 3.13802 26.0293 2.5 26.7949 2.11719C27.2507 1.86198 27.7428 1.73438 28.2715 1.73438ZM26.7949 2.52734V2.58203H27.0957C27.5697 2.58203 27.9889 2.47266 28.3535 2.25391V2.17188L28.2715 2.11719H27.998C27.5788 2.11719 27.1777 2.25391 26.7949 2.52734ZM29.3652 2.47266L29.2559 2.52734V2.58203C29.2559 2.63672 29.3197 2.66406 29.4473 2.66406C29.6478 2.66406 29.748 2.61849 29.748 2.52734L29.666 2.47266H29.3652ZM26.1387 3.01953L26.2207 3.10156L26.5488 2.99219V2.85547H26.4941C26.3118 2.85547 26.1934 2.91016 26.1387 3.01953ZM31.1699 3.15625L31.1426 3.21094C31.2702 3.46615 31.5163 3.66667 31.8809 3.8125H32.0176V3.78516C32.0176 3.65755 31.735 3.44792 31.1699 3.15625ZM24.3887 4.19531C24.735 4.19531 25.1087 3.99479 25.5098 3.59375C25.7103 3.5026 25.8105 3.4388 25.8105 3.40234V3.375L25.6191 3.21094H25.5918C25.5007 3.21094 25.1634 3.41146 24.5801 3.8125C24.4525 3.86719 24.3887 3.99479 24.3887 4.19531ZM27.9707 3.21094H27.8887V3.26562H27.9707V3.21094ZM24.0605 4.44141L23.9512 4.60547V4.63281H23.9785C24.0697 4.59635 24.1152 4.53255 24.1152 4.44141H24.0605ZM32.4824 4.87891H32.4277V4.90625C32.4277 5.05208 32.4824 5.13411 32.5918 5.15234H32.6191V5.125C32.6191 4.9974 32.5736 4.91536 32.4824 4.87891ZM24.7441 5.23438V5.28906H24.7988C24.89 5.2526 24.9538 5.17969 24.9902 5.07031V5.01562L24.9355 4.96094C24.8079 5.01562 24.7441 5.10677 24.7441 5.23438ZM23.2129 5.69922V5.75391L23.3223 5.78125C23.5775 5.63542 23.7051 5.47135 23.7051 5.28906V5.17969H23.623C23.3496 5.36198 23.2129 5.53516 23.2129 5.69922ZM23.623 6.35547L23.541 6.38281V6.46484H23.623L23.7051 6.38281V6.35547H23.623ZM23.7598 7.64062H23.7871V7.72266H23.7598V7.64062ZM31.1152 7.91406H30.9512V8.05078H31.0332L31.1152 7.94141V7.91406ZM31.1699 9.19922V9.28125H31.2246C31.4069 9.28125 31.5072 9.22656 31.5254 9.11719L31.4707 9.08984H31.4434C31.2611 9.10807 31.1699 9.14453 31.1699 9.19922ZM28.9824 10.5664V10.6484C28.9824 11.0677 29.11 11.2773 29.3652 11.2773C29.3835 11.2773 29.4108 11.2044 29.4473 11.0586C29.429 10.5117 29.3835 10.2383 29.3105 10.2383H29.1738C29.0462 10.2565 28.9824 10.3659 28.9824 10.5664ZM30.1035 11.1953L30.0488 11.2773H30.1582V11.1953H30.1035ZM29.2559 11.6055L29.1738 11.7148V11.7695C29.1738 11.9336 29.2376 12.0247 29.3652 12.043H29.4199L29.4473 11.8789C29.4473 11.7695 29.3835 11.6784 29.2559 11.6055ZM29.5566 13.4922L29.4199 13.6562L29.5293 13.9844L29.4199 14.4492H29.584C29.7116 14.4492 29.821 14.3763 29.9121 14.2305V14.1211C29.8392 14.0664 29.8027 13.8932 29.8027 13.6016L29.666 13.4922H29.5566ZM29.9395 16.418C30.2493 16.418 30.7415 16.6094 31.416 16.9922C31.6895 17.0651 31.8262 17.1289 31.8262 17.1836C31.8262 17.2565 31.6621 17.3203 31.334 17.375V17.4023V17.457L31.4707 17.9219C31.7988 18.7422 31.6074 19.3984 30.8965 19.8906C29.748 19.9089 28.9733 19.3529 28.5723 18.2227L28.4629 17.8125C28.4629 17.4115 28.9551 16.9466 29.9395 16.418ZM29.9395 16.8828H29.748V16.9102C29.821 17.0195 30.1035 17.138 30.5957 17.2656L30.6504 17.2109V17.1562C30.4863 16.974 30.2493 16.8828 29.9395 16.8828ZM29.5566 18.0586C29.5566 18.0768 29.6387 18.1315 29.8027 18.2227C29.8392 18.332 29.8757 18.3867 29.9121 18.3867H29.9395L30.2676 17.9766C30.2676 17.8672 30.2129 17.7852 30.1035 17.7305H29.666C29.5931 17.7487 29.5566 17.8581 29.5566 18.0586ZM48.7793 2.74609H48.834C51.6595 2.78255 53.0723 2.84635 53.0723 2.9375C53.054 3.01042 52.9538 3.09245 52.7715 3.18359V3.32031L52.8809 3.62109L52.7715 4.00391V4.05859L52.7988 4.11328L52.7168 4.19531V4.22266L52.334 3.94922H52.252C52.252 4.20443 51.9421 4.33203 51.3223 4.33203L50.6387 4.22266C48.2142 4.40495 46.7559 4.54167 46.2637 4.63281C46.0814 4.8151 45.8991 5.64453 45.7168 7.12109C45.5345 7.66797 45.4434 8.15104 45.4434 8.57031H45.5254V8.59766C46.0176 8.57943 46.2637 8.48828 46.2637 8.32422C46.0996 8.26953 45.9902 8.1875 45.9355 8.07812V8.02344C45.9355 7.65885 46.5918 7.43099 47.9043 7.33984H48.0957C49.0618 7.33984 49.7546 7.64062 50.1738 8.24219C50.9395 8.71615 51.5228 9.14453 51.9238 9.52734L52.252 9.88281V9.91016H52.2246L51.623 9.52734H51.541V9.55469C51.7051 9.97396 51.8783 10.1927 52.0605 10.2109C52.0605 10.2656 52.1335 10.293 52.2793 10.293L52.5527 10.2656C52.6803 10.375 52.7441 10.4753 52.7441 10.5664C52.5618 10.5846 52.4707 10.6302 52.4707 10.7031C52.4889 10.8307 52.6712 10.9948 53.0176 11.1953C53.1452 11.1953 53.209 11.5508 53.209 12.2617V13.2734C53.5007 13.9844 53.4915 14.6497 53.1816 15.2695L53.127 15.2969H53.0449C52.9173 15.2422 52.8262 15.0872 52.7715 14.832C52.8079 14.6315 52.8717 14.4948 52.9629 14.4219L52.8535 14.3398C52.6165 14.3398 52.4069 14.6497 52.2246 15.2695V15.3242C52.2246 15.3971 52.3249 15.4336 52.5254 15.4336V15.4609V15.543C52.1061 16.4544 51.5957 17.1562 50.9941 17.6484C50.8301 17.7214 50.6387 18.0404 50.4199 18.6055V18.6602C50.584 18.6602 51.0488 18.2409 51.8145 17.4023C52.1426 16.8372 52.5072 16.3086 52.9082 15.8164L52.9629 15.8438V15.9258C52.5618 16.6367 52.1517 17.2474 51.7324 17.7578C50.4017 18.9609 49.2259 19.7174 48.2051 20.0273C46.2363 20.2279 44.9512 20.3281 44.3496 20.3281C44.1855 20.2552 43.5566 20.1914 42.4629 20.1367H42.4355V20.082L42.7637 18.7695C42.7637 18.3138 43.0189 18.0859 43.5293 18.0859L43.666 18.0586C44.0124 18.2591 44.1947 18.3594 44.2129 18.3594H44.3496C44.5319 18.3594 44.8327 18.332 45.252 18.2773C45.6712 18.2227 45.9173 18.1953 45.9902 18.1953C46.5736 18.3958 47.6217 18.0221 49.1348 17.0742C50.2103 16.2174 50.8848 15.5339 51.1582 15.0234C51.5775 14.4766 51.6322 13.8568 51.3223 13.1641C51.3223 11.888 51.0488 11.013 50.502 10.5391C50.3379 10.2292 49.8639 9.92839 49.0801 9.63672C48.6608 9.38151 48.2324 9.25391 47.7949 9.25391H47.6855C47.0658 9.25391 45.9993 9.52734 44.4863 10.0742L44.0215 10.1562L43.9121 10.0469V9.9375C44.0033 9.9375 44.0853 9.38151 44.1582 8.26953C44.377 7.90495 44.5592 6.63802 44.7051 4.46875C44.7233 3.70312 44.7962 3.32031 44.9238 3.32031L44.9785 3.26562V3.21094L44.9238 2.9375H44.9785C45.0697 3.01042 45.252 3.04688 45.5254 3.04688C45.7988 3.04688 46.8835 2.94661 48.7793 2.74609ZM51.8145 3.21094V3.26562C51.8509 3.35677 51.9603 3.40234 52.1426 3.40234H52.252C52.4342 3.40234 52.5254 3.32031 52.5254 3.15625L52.416 3.10156H52.0605C51.9512 3.10156 51.8691 3.13802 51.8145 3.21094ZM45.252 3.73047L45.1699 3.86719V3.89453L45.252 4.00391C47.4759 3.7487 48.5879 3.54818 48.5879 3.40234H48.5332C46.3457 3.56641 45.252 3.67578 45.252 3.73047ZM50.1738 3.62109L49.3809 3.67578V3.78516L50.0098 3.8125C50.2832 3.8125 50.4199 3.77604 50.4199 3.70312C50.3835 3.64844 50.3014 3.62109 50.1738 3.62109ZM45.3613 4.49609L45.3066 4.57812V5.37109L45.3613 5.42578C45.416 5.29818 45.4434 5.11589 45.4434 4.87891V4.57812L45.3887 4.49609H45.3613ZM45.252 6.30078H45.1699V6.35547H45.252V6.30078ZM48.0957 8.07812V8.13281H48.1504H48.8887C49.5085 8.13281 49.8184 8.10547 49.8184 8.05078C49.8184 7.95964 49.4629 7.89583 48.752 7.85938L48.0957 8.07812ZM46.9746 8.07812V8.13281L47.1113 8.24219H47.248L47.6035 8.13281V8.05078L47.1113 7.99609C47.0202 8.03255 46.9746 8.0599 46.9746 8.07812ZM48.2871 8.70703C48.3418 8.87109 48.5332 8.95312 48.8613 8.95312H49.0254C49.1165 8.95312 49.2077 8.89844 49.2988 8.78906V8.625C49.2806 8.57031 49.1895 8.54297 49.0254 8.54297H48.6152C48.4512 8.54297 48.3418 8.59766 48.2871 8.70703ZM45.8809 9.03516V9.0625L45.9902 9.14453C46.1361 9.14453 46.2454 9.08073 46.3184 8.95312V8.92578L46.1816 8.87109C45.9811 8.90755 45.8809 8.96224 45.8809 9.03516ZM44.4863 9.08984L44.3496 9.22656V9.52734L44.459 9.60938H44.7598V9.52734C44.7598 9.32682 44.6868 9.18099 44.541 9.08984H44.4863ZM49.6543 9.19922H49.627V9.30859L49.7637 9.41797H49.8184C49.8366 9.41797 49.8457 9.38151 49.8457 9.30859C49.8457 9.23568 49.7819 9.19922 49.6543 9.19922ZM51.8691 10.4297L51.623 10.1562V10.2109C51.623 10.3568 51.6868 10.4661 51.8145 10.5391H51.8691V10.4297ZM51.3496 10.6211H51.3223V10.7031L51.4316 10.7852H51.459V10.7578L51.3496 10.6211ZM51.623 11.0859L51.541 11.0039V11.0859L51.5957 11.168L51.623 11.1133V11.0859ZM51.7051 11.4414H51.6504V11.5781L51.7324 11.6328H51.7871V11.5234L51.7051 11.4414ZM51.9238 12.043L51.8145 12.125V12.1797H51.9785L52.0332 12.125V12.043H51.9238ZM51.9238 12.5625H51.8145L51.7871 12.8086V12.9727L51.9238 12.8359V12.5625ZM52.5801 15.2148L52.6348 15.1602H52.7715V15.2148L52.6348 15.2969H52.5801V15.2148ZM52.9082 15.625L53.0176 15.5156L53.127 15.543V15.5703L53.0176 15.707L52.9082 15.6523V15.625ZM46.9199 18.7695V18.8242C47.3939 18.6602 47.9408 18.5234 48.5605 18.4141C48.9434 18.1953 49.1348 18.013 49.1348 17.8672L49.0527 17.7578L50.4746 17.1836L50.4473 17.0195C50.903 16.4909 51.1309 16.1536 51.1309 16.0078L51.1035 15.9805H51.0488C50.8848 15.9805 50.0553 16.5911 48.5605 17.8125C48.2689 17.8125 47.722 18.1315 46.9199 18.7695ZM45.3887 19.6445V19.7266L45.498 19.7539C45.6439 19.7539 46.4277 19.7083 47.8496 19.6172C48.0137 19.6172 48.4785 19.3711 49.2441 18.8789C49.4811 18.6966 49.5996 18.5417 49.5996 18.4141V18.3867L49.5723 18.3047H49.4629C49.1895 18.3047 48.7611 18.5599 48.1777 19.0703C47.084 19.3073 46.3184 19.4349 45.8809 19.4531C45.5527 19.526 45.3887 19.5898 45.3887 19.6445ZM45.498 18.6875L45.1699 18.7695V18.8516H45.498L45.6621 18.7969V18.6875H45.498ZM49.5723 18.9883L49.5176 19.0703V19.1523H49.5723L49.6543 19.0703V18.9883H49.5723ZM43.3379 19.4258L43.2559 19.4805C43.2741 19.5534 43.3379 19.5898 43.4473 19.5898C43.6296 19.5898 43.7298 19.5534 43.748 19.4805L43.666 19.4258H43.3379ZM43.9395 19.8086L44.0215 19.8633H44.0762C44.222 19.8633 44.4408 19.8086 44.7324 19.6992L45.0332 19.7266C45.2155 19.6719 45.3066 19.5807 45.3066 19.4531V19.4258H45.1699C44.3496 19.5534 43.9395 19.681 43.9395 19.8086ZM69.0137 1.73438C69.4147 1.73438 70.2077 1.98047 71.3926 2.47266C72.9603 3.18359 73.7441 4.1862 73.7441 5.48047V6.4375C73.7441 7.07552 73.5254 7.75 73.0879 8.46094C72.8509 9.35417 72.6413 9.80078 72.459 9.80078C71.748 10.1289 71.3926 10.4206 71.3926 10.6758V10.9492C71.3926 11.5872 71.4655 12.2708 71.6113 13C71.5566 13.9661 71.4382 14.4492 71.2559 14.4492C71.11 14.4492 70.791 14.6133 70.2988 14.9414L69.998 14.9688C69.6882 14.9688 69.5332 14.8047 69.5332 14.4766C69.2051 12.6172 69.041 11.25 69.041 10.375C69.041 10.1927 69.4876 9.74609 70.3809 9.03516C70.8184 8.59766 71.0827 8.2513 71.1738 7.99609C71.3743 7.77734 71.4928 7.66797 71.5293 7.66797L71.7754 7.75C71.9395 7.75 72.0853 7.38542 72.2129 6.65625V6.57422L71.9395 6.08203V5.97266H71.9121L72.0215 5.69922V5.34375C72.0215 5.14323 71.8757 4.92448 71.584 4.6875C71.4382 4.32292 71.2103 4.14062 70.9004 4.14062C70.2988 3.92188 69.6335 3.8125 68.9043 3.8125H68.6309C67.6465 3.8125 66.7259 4.46875 65.8691 5.78125L64.8027 7.14844V7.23047C64.4382 7.70443 64.0918 7.75911 63.7637 7.39453C63.4355 7.01172 63.2715 6.72917 63.2715 6.54688L63.5723 5.50781C63.791 4.9974 64.1829 4.50521 64.748 4.03125C65.8418 3.13802 66.7715 2.5 67.5371 2.11719C67.9928 1.86198 68.485 1.73438 69.0137 1.73438ZM67.5371 2.52734V2.58203H67.8379C68.3118 2.58203 68.7311 2.47266 69.0957 2.25391V2.17188L69.0137 2.11719H68.7402C68.321 2.11719 67.9199 2.25391 67.5371 2.52734ZM70.1074 2.47266L69.998 2.52734V2.58203C69.998 2.63672 70.0618 2.66406 70.1895 2.66406C70.39 2.66406 70.4902 2.61849 70.4902 2.52734L70.4082 2.47266H70.1074ZM66.8809 3.01953L66.9629 3.10156L67.291 2.99219V2.85547H67.2363C67.054 2.85547 66.9355 2.91016 66.8809 3.01953ZM71.9121 3.15625L71.8848 3.21094C72.0124 3.46615 72.2585 3.66667 72.623 3.8125H72.7598V3.78516C72.7598 3.65755 72.4772 3.44792 71.9121 3.15625ZM65.1309 4.19531C65.4772 4.19531 65.8509 3.99479 66.252 3.59375C66.4525 3.5026 66.5527 3.4388 66.5527 3.40234V3.375L66.3613 3.21094H66.334C66.2428 3.21094 65.9056 3.41146 65.3223 3.8125C65.1947 3.86719 65.1309 3.99479 65.1309 4.19531ZM68.7129 3.21094H68.6309V3.26562H68.7129V3.21094ZM64.8027 4.44141L64.6934 4.60547V4.63281H64.7207C64.8118 4.59635 64.8574 4.53255 64.8574 4.44141H64.8027ZM73.2246 4.87891H73.1699V4.90625C73.1699 5.05208 73.2246 5.13411 73.334 5.15234H73.3613V5.125C73.3613 4.9974 73.3158 4.91536 73.2246 4.87891ZM65.4863 5.23438V5.28906H65.541C65.6322 5.2526 65.696 5.17969 65.7324 5.07031V5.01562L65.6777 4.96094C65.5501 5.01562 65.4863 5.10677 65.4863 5.23438ZM63.9551 5.69922V5.75391L64.0645 5.78125C64.3197 5.63542 64.4473 5.47135 64.4473 5.28906V5.17969H64.3652C64.0918 5.36198 63.9551 5.53516 63.9551 5.69922ZM64.3652 6.35547L64.2832 6.38281V6.46484H64.3652L64.4473 6.38281V6.35547H64.3652ZM64.502 7.64062H64.5293V7.72266H64.502V7.64062ZM71.8574 7.91406H71.6934V8.05078H71.7754L71.8574 7.94141V7.91406ZM71.9121 9.19922V9.28125H71.9668C72.1491 9.28125 72.2493 9.22656 72.2676 9.11719L72.2129 9.08984H72.1855C72.0033 9.10807 71.9121 9.14453 71.9121 9.19922ZM69.7246 10.5664V10.6484C69.7246 11.0677 69.8522 11.2773 70.1074 11.2773C70.1257 11.2773 70.153 11.2044 70.1895 11.0586C70.1712 10.5117 70.1257 10.2383 70.0527 10.2383H69.916C69.7884 10.2565 69.7246 10.3659 69.7246 10.5664ZM70.8457 11.1953L70.791 11.2773H70.9004V11.1953H70.8457ZM69.998 11.6055L69.916 11.7148V11.7695C69.916 11.9336 69.9798 12.0247 70.1074 12.043H70.1621L70.1895 11.8789C70.1895 11.7695 70.1257 11.6784 69.998 11.6055ZM70.2988 13.4922L70.1621 13.6562L70.2715 13.9844L70.1621 14.4492H70.3262C70.4538 14.4492 70.5632 14.3763 70.6543 14.2305V14.1211C70.5814 14.0664 70.5449 13.8932 70.5449 13.6016L70.4082 13.4922H70.2988ZM70.6816 16.418C70.9915 16.418 71.4837 16.6094 72.1582 16.9922C72.4316 17.0651 72.5684 17.1289 72.5684 17.1836C72.5684 17.2565 72.4043 17.3203 72.0762 17.375V17.4023V17.457L72.2129 17.9219C72.541 18.7422 72.3496 19.3984 71.6387 19.8906C70.4902 19.9089 69.7155 19.3529 69.3145 18.2227L69.2051 17.8125C69.2051 17.4115 69.6973 16.9466 70.6816 16.418ZM70.6816 16.8828H70.4902V16.9102C70.5632 17.0195 70.8457 17.138 71.3379 17.2656L71.3926 17.2109V17.1562C71.2285 16.974 70.9915 16.8828 70.6816 16.8828ZM70.2988 18.0586C70.2988 18.0768 70.3809 18.1315 70.5449 18.2227C70.5814 18.332 70.6178 18.3867 70.6543 18.3867H70.6816L71.0098 17.9766C71.0098 17.8672 70.9551 17.7852 70.8457 17.7305H70.4082C70.3353 17.7487 70.2988 17.8581 70.2988 18.0586ZM90.2051 1.1875L90.8066 1.10547C91.4082 1.10547 92.347 1.32422 93.623 1.76172C94.2975 2.10807 94.6348 2.33594 94.6348 2.44531C95.2546 3.0651 95.5645 3.54818 95.5645 3.89453L96.002 5.50781C95.8197 6.20052 95.4277 7.19401 94.8262 8.48828C94.0605 9.1263 92.9303 9.88281 91.4355 10.7578C90.2142 11.888 89.4121 12.4714 89.0293 12.5078L87.8809 13.5469C86.2402 14.9688 85.4017 15.7161 85.3652 15.7891C85.2012 16.1354 85.0553 16.582 84.9277 17.1289V17.1836C84.9277 17.3294 85.3743 17.4297 86.2676 17.4844V17.5938L85.3926 17.6484V17.7578C86.9785 18.0312 88.0449 18.168 88.5918 18.168C88.5553 18.1133 87.8991 17.931 86.623 17.6211V17.5391H86.6504C86.9967 17.5391 87.7259 17.6758 88.8379 17.9492L90.3691 18.0586L91.6816 17.9219H92.3652C93.5684 17.9948 94.2246 18.1589 94.334 18.4141L95.1543 18.6602L95.3184 18.7695V18.8789L94.8809 18.9883V19.0156L94.9902 19.1523H95.0449L95.4277 19.0977V19.1523C95.3913 19.9544 95.3366 20.3555 95.2637 20.3555L92.0645 20.2461H91.4082C90.9525 20.2461 90.3327 20.2917 89.5488 20.3828C86.7962 20.0547 84.8822 19.8906 83.8066 19.8906C83.4785 19.8177 83.3145 19.6536 83.3145 19.3984C83.1868 19.0703 83.123 18.6602 83.123 18.168V17.3477C83.123 15.7617 83.3053 14.7591 83.6699 14.3398L84.3535 13.9023C84.4629 13.7018 84.5176 13.5378 84.5176 13.4102C85.6842 12.4622 86.304 11.9883 86.377 11.9883C86.8691 11.806 87.5436 11.3411 88.4004 10.5938H88.5371C88.3001 10.8854 88.1087 11.0312 87.9629 11.0312V11.1406H88.127C88.3639 11.013 88.6009 10.8125 88.8379 10.5391V10.4844H88.7285V10.4023L90.6973 9.17188C91.6999 8.47917 92.4928 7.84115 93.0762 7.25781C93.5137 6.76562 93.7962 6.11849 93.9238 5.31641C93.9238 4.60547 93.623 4.06771 93.0215 3.70312C92.821 3.63021 92.0007 3.52995 90.5605 3.40234C90.5605 3.38411 90.4147 3.36589 90.123 3.34766C89.5033 3.34766 88.9199 3.71224 88.373 4.44141C88.2272 4.76953 88.1543 5.01562 88.1543 5.17969V5.37109H88.209C88.209 5.53516 87.9082 5.65365 87.3066 5.72656L86.1582 5.89062V5.91797L85.9941 5.89062H85.7754L85.0918 5.97266L85.0371 5.86328C85.2923 4.60547 85.5749 3.82161 85.8848 3.51172C86.9238 2.5638 87.653 2.07161 88.0723 2.03516C88.3822 1.76172 89.0931 1.47917 90.2051 1.1875ZM91.2988 1.37891H91.0254V1.43359L91.1895 1.65234H91.4355L91.5449 1.51562V1.48828C91.5267 1.41536 91.4447 1.37891 91.2988 1.37891ZM89.5488 1.78906V1.84375H89.5762C90.3236 1.84375 90.6973 1.76172 90.6973 1.59766L90.5605 1.48828H90.2324C89.7767 1.59766 89.5488 1.69792 89.5488 1.78906ZM92.9668 1.67969H92.9395V1.73438C92.9395 1.84375 93.1764 1.95312 93.6504 2.0625V2.03516C93.6504 1.92578 93.4225 1.80729 92.9668 1.67969ZM88.5371 2.19922V2.28125H88.8926L89.002 2.17188V2.14453L88.8379 2.11719C88.6374 2.15365 88.5371 2.18099 88.5371 2.19922ZM88.9199 3.23828L88.8379 3.34766V3.40234H89.002L89.084 3.29297V3.23828H88.9199ZM93.6777 3.29297L93.623 3.34766V3.40234C93.696 3.52995 93.7962 3.59375 93.9238 3.59375H93.9512C94.0059 3.59375 94.0332 3.55729 94.0332 3.48438C94.0332 3.39323 93.9329 3.32943 93.7324 3.29297H93.6777ZM94.0879 3.70312V3.75781C94.416 3.79427 94.5801 3.9401 94.5801 4.19531L94.7441 4.38672V4.19531C94.7441 3.79427 94.6165 3.59375 94.3613 3.59375C94.1973 3.59375 94.1061 3.63021 94.0879 3.70312ZM88.0449 4.25L88.0996 4.30469H88.127C88.4004 4.15885 88.5371 4.01302 88.5371 3.86719V3.83984H88.4277C88.3548 3.83984 88.2272 3.97656 88.0449 4.25ZM87.2793 4.98828H87.1426V5.09766L87.252 5.125H87.2793V4.98828ZM95.2637 5.91797L95.1543 6.05469V6.13672H95.209L95.291 6.05469V5.91797H95.2637ZM94.6348 7.01172H94.498V7.14844C94.6257 7.14844 94.6895 7.20312 94.6895 7.3125H94.7715V7.14844L94.6348 7.01172ZM94.1426 7.99609L94.1699 8.05078V8.07812C94.2793 8.02344 94.3887 7.91406 94.498 7.75V7.69531H94.4434C94.3158 7.76823 94.2155 7.86849 94.1426 7.99609ZM93.4043 8.54297H93.459L93.7598 8.48828C93.7598 8.34245 93.696 8.26953 93.5684 8.26953C93.459 8.28776 93.4043 8.37891 93.4043 8.54297ZM93.3496 9.0625V9.11719C93.696 9.08073 94.015 8.88932 94.3066 8.54297L94.252 8.48828C93.8327 8.70703 93.5319 8.89844 93.3496 9.0625ZM92.1191 9.58203L92.0371 9.60938V9.71875H92.0918L92.1738 9.63672L92.1191 9.60938V9.58203ZM87.8535 12.8633V12.9453H87.9355C88.0449 12.9453 88.291 12.7812 88.6738 12.4531C88.765 12.4531 88.8561 12.3438 88.9473 12.125L89.002 12.0977V12.0156H88.9199C88.7012 12.0156 88.3457 12.2982 87.8535 12.8633ZM86.1309 12.7266V12.8086H86.1582C86.3952 12.8086 86.5866 12.6263 86.7324 12.2617H86.5957C86.2858 12.5169 86.1309 12.6719 86.1309 12.7266ZM85.2285 13.2188H84.873L84.9004 13.4922C84.6452 13.7474 84.5176 13.9115 84.5176 13.9844H84.627C84.9551 13.8021 85.1829 13.5742 85.3105 13.3008V13.2461L85.2285 13.2188ZM87.2793 13.4922L87.1426 13.5742V13.6562H87.252L87.3613 13.5469V13.4922H87.2793ZM85.0918 15.0508V15.1602H85.1738C85.3743 15.0143 85.4746 14.8685 85.4746 14.7227V14.6953H85.3926C85.1921 14.8047 85.0918 14.9232 85.0918 15.0508ZM84.3535 17.9766L84.2715 18.0586V18.168L84.3535 18.2773L84.4082 18.168V18.0586L84.3535 17.9766ZM85.0918 18.0586L84.9824 18.1406L85.0371 18.168H85.3926V18.0859L85.2012 18.0586H85.0918ZM92.5293 18.2773L92.3379 18.3047V18.332L92.4473 18.4414H92.8027L92.8848 18.3867V18.3047L92.5293 18.2773ZM83.6152 18.8242L83.5059 18.8789V18.9062L83.5879 18.9883H83.6152L83.6973 18.9062L83.6152 18.8242ZM84.1895 19.3984V19.4258L84.4082 19.4531C84.6816 19.4167 84.8184 19.3802 84.8184 19.3438L84.791 19.2891H84.4082C84.2624 19.3255 84.1895 19.362 84.1895 19.3984ZM93.0488 19.6992H93.3496C93.6048 19.6628 93.7324 19.6172 93.7324 19.5625L93.6504 19.4531H93.4863C93.3952 19.4531 93.2493 19.5352 93.0488 19.6992ZM94.0332 19.8633L94.1426 19.918H94.4434C94.7168 19.918 94.8535 19.8724 94.8535 19.7812V19.7539C94.8535 19.6992 94.8171 19.6719 94.7441 19.6719C94.3066 19.6901 94.0697 19.7539 94.0332 19.8633ZM115.416 13.9844L115.525 14.0117C115.635 14.0482 115.626 14.7773 115.498 16.1992H115.525C115.507 16.3815 114.568 16.3815 112.709 16.1992C110.631 16.3268 109.273 16.3359 108.635 16.2266V16.1992C108.653 16.0352 109.446 15.9714 111.014 16.0078C111.652 15.9896 111.989 15.9349 112.025 15.8438L112.053 15.8164L111.779 15.7617C109.628 15.5794 108.516 15.707 108.443 16.1445L108.225 16.1992C107.605 16.1263 107.395 15.4427 107.596 14.1484C107.65 13.8203 108.389 13.6836 109.811 13.7383C109.811 13.7018 109.911 13.7018 110.111 13.7383L110.631 13.9297L110.877 13.957L115.416 13.9844ZM114.787 14.3398L114.623 14.3672L114.596 14.4492L114.842 14.4766H115.006L115.033 14.3945L114.787 14.3398ZM113.365 14.4766L113.721 14.5312C113.885 14.5677 113.994 14.5404 114.049 14.4492V14.4219H113.967C113.584 14.4036 113.383 14.4219 113.365 14.4766ZM111.889 14.4766V14.5586H111.943C112.107 14.5951 112.208 14.5677 112.244 14.4766V14.4492H112.135C112.007 14.431 111.925 14.4401 111.889 14.4766ZM113.584 15.0781L114.158 15.1875C114.76 15.2422 115.097 15.2057 115.17 15.0781V15.0234L115.033 14.9688C114.104 14.9505 113.62 14.987 113.584 15.0781ZM110.576 14.5312L110.549 14.6406H110.604C111.005 14.6953 111.305 14.6589 111.506 14.5312V14.5039L111.451 14.4766C111.287 14.4583 110.995 14.4766 110.576 14.5312ZM108.143 14.1484L108.061 14.2305L107.979 14.5586L108.061 14.6406V14.668C108.115 14.668 108.188 14.5586 108.279 14.3398V14.2305L108.252 14.1484H108.143ZM108.99 14.2578L108.854 14.3672L108.826 14.3945L108.99 14.4219L109.045 14.3672L109.072 14.2852L108.99 14.2578ZM113.064 15.0234H112.982V15.0781L113.146 15.1328L113.064 15.0234ZM112.6 15.7891V15.8164H112.627C114.231 16.0169 115.051 16.0716 115.088 15.9805V15.9531C115.088 15.8984 115.042 15.8255 114.951 15.7344H114.924C114.359 15.6615 113.584 15.6797 112.6 15.7891ZM108.006 14.8867L107.924 14.9414V15.0234H107.979L108.061 14.9688V14.9141L108.006 14.8867ZM115.635 10.5938L115.744 10.6211C115.89 10.6393 115.808 11.3503 115.498 12.7539L115.525 12.7812C115.471 12.9635 114.541 12.8906 112.736 12.5625C110.658 12.4531 109.291 12.3255 108.635 12.1797L108.662 12.0977C108.717 11.9518 109.501 11.9792 111.014 12.1797C111.688 12.2161 112.044 12.1888 112.08 12.0977V12.0703L111.834 12.0156C109.701 11.5964 108.58 11.6055 108.471 12.043L108.252 12.0977C107.65 11.9518 107.514 11.2591 107.842 10.0195C107.915 9.69141 108.662 9.61849 110.084 9.80078C110.102 9.78255 110.202 9.78255 110.385 9.80078L110.877 10.0469L111.096 10.1016L115.635 10.5938ZM114.951 10.8945H114.787L114.76 10.9492L115.006 11.0312H115.197V10.9766L114.951 10.8945ZM113.557 10.8945L113.885 10.9766C114.067 11.013 114.176 10.9857 114.213 10.8945L114.158 10.8672C113.757 10.8125 113.557 10.8216 113.557 10.8945ZM112.08 10.7578V10.8125C112.262 10.8672 112.381 10.8581 112.436 10.7852L112.463 10.7305L112.299 10.7031C112.189 10.6849 112.117 10.7031 112.08 10.7578ZM113.721 11.4961L114.268 11.6328C114.833 11.7604 115.161 11.7695 115.252 11.6602L115.279 11.5781L115.17 11.5234C114.24 11.4141 113.757 11.4049 113.721 11.4961ZM110.768 10.6484L110.74 10.7578L110.768 10.7852C111.096 10.8581 111.406 10.849 111.697 10.7578V10.7305L111.643 10.7031C111.424 10.6484 111.132 10.6302 110.768 10.6484ZM108.389 10.0469L108.279 10.1016L108.17 10.457L108.252 10.5391C108.307 10.5391 108.389 10.4388 108.498 10.2383L108.525 10.1289L108.443 10.0469H108.389ZM109.209 10.2383L109.045 10.293V10.3477L109.209 10.4023L109.291 10.3203V10.293L109.209 10.2383ZM113.201 11.3867H113.146L113.119 11.4414L113.256 11.4961L113.201 11.3867ZM112.682 12.0977L112.654 12.1523H112.682C114.268 12.5169 115.079 12.6445 115.115 12.5352L115.143 12.5078C115.143 12.4349 115.088 12.3529 114.979 12.2617H114.951C114.386 12.1341 113.63 12.0794 112.682 12.0977ZM108.17 10.7852H108.061V10.8945H108.143L108.225 10.8398L108.252 10.7852H108.17Z" fill="black"/>
</svg>
