<svg width="102" height="21" viewBox="0 0 102 21" fill="none" xmlns="http://www.w3.org/2000/svg">
<path d="M0.818359 1.05078L0.900391 0.996094C1.90299 1.10547 3.63477 1.2513 6.0957 1.43359C6.4056 1.57943 7.75456 1.77083 10.1426 2.00781C11.0723 2.22656 11.5371 2.47266 11.5371 2.74609C11.4642 3.0013 11.1634 3.44792 10.6348 4.08594C10.6348 4.14062 10.2155 4.69661 9.37695 5.75391C9.37695 5.91797 8.88477 6.44661 7.90039 7.33984L7.59961 7.75V7.83203C7.87305 7.83203 8.46549 7.74089 9.37695 7.55859C9.68685 7.55859 10.4616 7.93229 11.7012 8.67969C12.0293 9.04427 12.3574 9.75521 12.6855 10.8125V11.1133C12.6855 13.5378 12.4759 15.0417 12.0566 15.625C11.7103 16.6276 10.7624 17.6667 9.21289 18.7422C8.26497 19.1979 6.87956 19.6263 5.05664 20.0273C4.83789 20.1003 4.47331 20.1367 3.96289 20.1367H3.77148L3.60742 20.1914C2.76888 20.1914 2.06706 20 1.50195 19.6172V19.5352C1.55664 19.4987 1.73893 19.125 2.04883 18.4141H2.10352H2.67773H2.97852C4.52799 18.4141 5.71289 18.0039 6.5332 17.1836L8.88477 15.6797C9.77799 14.8776 10.2702 14.3034 10.3613 13.957C10.7259 13.3737 10.9082 12.4167 10.9082 11.0859C10.89 10.9036 10.8626 10.8125 10.8262 10.8125L10.9082 10.5938C10.9082 10.2292 10.7259 9.9375 10.3613 9.71875C10.2155 9.35417 9.93294 9.17188 9.51367 9.17188H8.83008C8.46549 9.17188 8.2832 9.21745 8.2832 9.30859V9.36328C9.0306 9.36328 9.61393 9.54557 10.0332 9.91016V9.96484L9.95117 10.0195C9.78711 10.0195 9.55924 9.89193 9.26758 9.63672L9.02148 9.60938C7.6543 9.60938 5.98633 10.0742 4.01758 11.0039L3.74414 11.168L3.60742 11.1133V10.8945C3.60742 10.7669 3.51628 10.612 3.33398 10.4297V10.4023C3.33398 10.3477 3.54362 9.85547 3.96289 8.92578C4.03581 8.61589 4.19987 8.30599 4.45508 7.99609L5.57617 6.30078C5.99544 5.38932 6.39648 4.83333 6.7793 4.63281C6.94336 4.45052 7.02539 4.27734 7.02539 4.11328V4.03125C6.82487 3.88542 6.65169 3.8125 6.50586 3.8125L1.39258 3.70312C1.22852 3.70312 1.12826 3.54818 1.0918 3.23828V3.12891L1.11914 3.01953V2.91016C1.06445 2.76432 0.964193 2.14453 0.818359 1.05078ZM1.93945 1.35156L1.83008 1.46094V1.73438H1.88477H2.24023H2.29492L2.97852 1.78906L3.08789 1.67969C2.75977 1.46094 2.37695 1.35156 1.93945 1.35156ZM1.17383 1.78906C1.21029 1.88021 1.2832 1.92578 1.39258 1.92578L1.44727 1.84375V1.78906L1.36523 1.67969H1.25586C1.20117 1.67969 1.17383 1.71615 1.17383 1.78906ZM4.61914 1.87109H4.53711V1.92578H4.56445L4.61914 1.87109ZM9.81445 2.22656H9.21289C9.21289 2.33594 9.38607 2.39974 9.73242 2.41797H9.78711L9.89648 2.33594V2.30859L9.81445 2.22656ZM3.52539 2.39062C4.49154 2.5 5.55794 2.55469 6.72461 2.55469H7.05273C7.05273 2.42708 6.38737 2.33594 5.05664 2.28125H4.31836C3.78971 2.28125 3.52539 2.31771 3.52539 2.39062ZM2.10352 2.39062L1.99414 2.41797C1.99414 2.58203 2.44987 2.69141 3.36133 2.74609L3.41602 2.71875V2.66406C3.17904 2.48177 2.78711 2.39062 2.24023 2.39062H2.10352ZM10.7168 2.71875V2.74609C10.735 2.81901 10.8079 2.85547 10.9355 2.85547H11.0449C11.1178 2.85547 11.1816 2.81901 11.2363 2.74609C11.2363 2.63672 11.127 2.58203 10.9082 2.58203C10.8353 2.61849 10.7715 2.66406 10.7168 2.71875ZM3.88086 2.63672L3.85352 2.66406V2.69141C3.85352 2.78255 4.17253 2.82812 4.81055 2.82812H5.79492C5.79492 2.71875 5.1569 2.65495 3.88086 2.63672ZM7.24414 2.85547H6.5332V2.91016L7.90039 3.12891L9.26758 3.01953V2.96484C8.92122 2.89193 8.24674 2.85547 7.24414 2.85547ZM1.55664 3.07422V3.12891C1.55664 3.27474 1.93034 3.34766 2.67773 3.34766H3.79883V3.26562C3.79883 3.19271 3.4069 3.14714 2.62305 3.12891C2.62305 3.03776 2.39518 2.98307 1.93945 2.96484H1.83008C1.66602 2.96484 1.57487 3.0013 1.55664 3.07422ZM4.83789 3.26562H4.26367C4.26367 3.35677 4.50065 3.40234 4.97461 3.40234H5.05664C5.05664 3.3112 4.98372 3.26562 4.83789 3.26562ZM10.1426 3.62109L9.89648 3.8125C9.95117 4.06771 10.0423 4.19531 10.1699 4.19531C10.2975 4.04948 10.3613 3.92188 10.3613 3.8125V3.67578L10.3066 3.62109H10.1426ZM7.59961 4.00391L7.54492 4.08594V4.14062H7.70898L7.76367 4.08594V4.00391H7.59961ZM7.76367 4.60547V4.6875H7.81836C8.03711 4.6875 8.21029 4.52344 8.33789 4.19531L8.2832 4.16797H8.25586C7.92773 4.25911 7.76367 4.40495 7.76367 4.60547ZM9.81445 4.55078H9.67773V4.63281H9.75977L9.81445 4.60547V4.55078ZM9.54102 4.79688H9.48633V4.87891H9.54102V4.79688ZM7.90039 6.51953L7.87305 6.60156L7.92773 6.68359C8.31055 6.59245 8.69336 6.28255 9.07617 5.75391L9.21289 5.39844L9.18555 5.37109H9.02148C8.80273 5.37109 8.42904 5.75391 7.90039 6.51953ZM6.45117 6.57422H6.50586C6.7793 6.41016 6.91602 6.22786 6.91602 6.02734V6H6.86133C6.58789 6.07292 6.45117 6.26432 6.45117 6.57422ZM7.02539 6.46484V6.57422H7.10742C7.23503 6.46484 7.29883 6.36458 7.29883 6.27344L7.27148 6.24609C7.19857 6.28255 7.11654 6.35547 7.02539 6.46484ZM7.73633 6.875L7.6543 6.95703V7.09375H7.73633L7.79102 7.03906V6.875H7.73633ZM4.83789 7.83203V7.88672L4.89258 7.94141H5.13867L5.6582 7.53125L5.68555 7.36719V7.3125L5.63086 7.25781H5.57617C5.28451 7.33073 5.03841 7.52214 4.83789 7.83203ZM7.29883 8.73438V8.76172H7.32617L8.44727 8.40625C9.34049 8.4974 9.87826 8.57031 10.0605 8.625C10.1517 8.625 10.2064 8.58854 10.2246 8.51562H10.252C10.7077 8.86198 11.0632 9.03516 11.3184 9.03516H11.4277L11.4551 8.95312V8.92578C11.4551 8.72526 10.8262 8.47005 9.56836 8.16016C9.51367 8.16016 9.45898 8.08724 9.4043 7.94141L9.26758 7.83203H9.18555C8.74805 7.83203 8.29232 8.05078 7.81836 8.48828C7.49023 8.57943 7.31706 8.66146 7.29883 8.73438ZM6.80664 7.94141H6.7793V8.05078L6.80664 8.07812H6.91602V8.05078L6.80664 7.94141ZM4.45508 8.76172V8.84375H4.48242C4.7194 8.71615 4.89258 8.50651 5.00195 8.21484H4.94727C4.7832 8.30599 4.61914 8.48828 4.45508 8.76172ZM5.33008 8.84375V9.00781H5.43945C5.6582 9.00781 5.82227 8.83464 5.93164 8.48828L5.84961 8.40625C5.66732 8.47917 5.49414 8.625 5.33008 8.84375ZM5.54883 9.71875V9.74609H5.63086C6.85221 9.45443 7.46289 9.24479 7.46289 9.11719V9.08984H7.38086C6.79753 9.14453 6.18685 9.35417 5.54883 9.71875ZM4.26367 9.80078V9.88281L4.29102 9.91016V9.96484C4.89258 9.85547 5.34831 9.68229 5.6582 9.44531V9.41797L5.57617 9.30859C4.95638 9.4362 4.51888 9.60026 4.26367 9.80078ZM11.3457 9.30859H11.0449V9.36328C11.1361 9.61849 11.2637 9.74609 11.4277 9.74609H11.6191C11.8014 9.74609 11.9108 9.70052 11.9473 9.60938C11.7832 9.40885 11.5827 9.30859 11.3457 9.30859ZM11.7285 10.0469L11.7012 10.1289V10.1562C11.7012 10.3021 11.847 10.5755 12.1387 10.9766L12.1113 11.4961V12.125C12.1113 12.3255 12.1478 12.4349 12.2207 12.4531H12.2754L12.3301 11.8516V10.8945C12.3301 10.5846 12.166 10.3021 11.8379 10.0469H11.7285ZM3.79883 10.375V10.4023L3.85352 10.4844H4.09961C4.26367 10.4844 4.35482 10.4479 4.37305 10.375V10.293C4.33659 10.2018 4.26367 10.1562 4.1543 10.1562H4.09961C3.99023 10.1562 3.88997 10.2292 3.79883 10.375ZM10.5527 10.375V10.293L10.7168 10.4844H10.6621L10.5527 10.375ZM11.209 11.0312H11.1543V11.0859L11.209 11.168H11.2637V11.0859L11.209 11.0312ZM11.0449 12.5352V12.6445L11.0996 12.7266C11.3184 12.362 11.4277 12.043 11.4277 11.7695V11.4414H11.3457C11.1452 11.6784 11.0449 12.043 11.0449 12.5352ZM12.2754 12.7266L12.002 13.2461C12.0202 13.319 12.0658 13.3737 12.1387 13.4102H12.1934C12.321 13.3555 12.3848 13.237 12.3848 13.0547C12.3665 12.8359 12.3301 12.7266 12.2754 12.7266ZM11.209 14.0391V14.0938H11.3184L11.4551 13.9297V13.7656H11.373C11.2637 13.8385 11.209 13.9297 11.209 14.0391ZM10.9629 14.9414L11.0449 14.9688L11.5918 14.6133V14.5586L11.5098 14.5039H11.4551C11.3092 14.5039 11.1452 14.6497 10.9629 14.9414ZM9.78711 15.7891H9.89648C10.0788 15.7891 10.2702 15.6797 10.4707 15.4609V15.4062L10.3613 15.1055L10.4707 14.832C10.3066 14.832 10.1426 15.0417 9.97852 15.4609C9.85091 15.5885 9.78711 15.6979 9.78711 15.7891ZM11.7012 15.0234L11.6191 15.1055V15.1328H11.7285V15.0234H11.7012ZM10.7168 15.8984V15.9531L10.9082 15.9805H11.0996C11.373 15.9622 11.5098 15.8529 11.5098 15.6523C11.4733 15.5612 11.4095 15.5156 11.3184 15.5156C11.1361 15.5156 10.9355 15.6432 10.7168 15.8984ZM6.45117 17.7031H6.5332C8.17383 17.0104 8.99414 16.5091 8.99414 16.1992H8.83008C8.44727 16.3451 7.79102 16.737 6.86133 17.375C6.58789 17.5573 6.45117 17.6667 6.45117 17.7031ZM10.7715 16.582V16.6094H10.9082C10.9629 16.6094 11.0267 16.5273 11.0996 16.3633L11.0449 16.3086C10.8626 16.3633 10.7715 16.4544 10.7715 16.582ZM10.4707 16.3633L10.3613 16.4727V16.5H10.498L10.5801 16.4453L10.498 16.3633H10.4707ZM9.75977 17.457H9.78711C9.9694 17.457 10.179 17.3659 10.416 17.1836C10.416 17.1289 10.3796 17.1016 10.3066 17.1016C9.94206 17.1927 9.75977 17.3112 9.75977 17.457ZM7.6543 17.9219V17.9766H7.70898C8.0918 17.8672 8.2832 17.7669 8.2832 17.6758V17.6484H8.25586C8.03711 17.6484 7.83659 17.7396 7.6543 17.9219ZM9.37695 17.8945L9.26758 17.9766V18.0586H9.45898L9.54102 17.9492V17.8945H9.37695ZM2.92383 18.7422L3.00586 18.8242H3.4707L3.58008 18.7422C3.58008 18.6875 3.47982 18.6602 3.2793 18.6602C3.04232 18.6602 2.92383 18.6875 2.92383 18.7422ZM5.43945 18.6602L5.38477 18.7422V18.8242C5.5306 18.8242 5.62174 18.7786 5.6582 18.6875V18.6602H5.43945ZM7.6543 19.0156L7.70898 19.0703H7.73633C8.08268 18.9609 8.30143 18.8607 8.39258 18.7695L8.33789 18.6602H8.17383C7.82747 18.7331 7.6543 18.8516 7.6543 19.0156ZM2.34961 18.8789L2.24023 18.9609V19.0156H2.51367L2.5957 18.9609L2.51367 18.8789H2.34961ZM4.56445 19.4531L3.60742 19.5352L3.00586 19.3984H2.78711C2.4043 19.4349 2.21289 19.5078 2.21289 19.6172V19.6445C2.21289 19.7357 2.79622 19.8177 3.96289 19.8906C4.45508 19.8906 5.19336 19.6901 6.17773 19.2891L6.23242 19.2617V19.1523H6.17773C5.95898 19.1523 5.42122 19.2526 4.56445 19.4531ZM20.752 1.1875L21.3535 1.10547C21.9551 1.10547 22.8939 1.32422 24.1699 1.76172C24.8444 2.10807 25.1816 2.33594 25.1816 2.44531C25.8014 3.0651 26.1113 3.54818 26.1113 3.89453L26.5488 5.50781C26.3665 6.20052 25.9746 7.19401 25.373 8.48828C24.6074 9.1263 23.4772 9.88281 21.9824 10.7578C20.7611 11.888 19.959 12.4714 19.5762 12.5078L18.4277 13.5469C16.7871 14.9688 15.9486 15.7161 15.9121 15.7891C15.748 16.1354 15.6022 16.582 15.4746 17.1289V17.1836C15.4746 17.3294 15.9212 17.4297 16.8145 17.4844V17.5938L15.9395 17.6484V17.7578C17.5254 18.0312 18.5918 18.168 19.1387 18.168C19.1022 18.1133 18.446 17.931 17.1699 17.6211V17.5391H17.1973C17.5436 17.5391 18.2728 17.6758 19.3848 17.9492L20.916 18.0586L22.2285 17.9219H22.9121C24.1152 17.9948 24.7715 18.1589 24.8809 18.4141L25.7012 18.6602L25.8652 18.7695V18.8789L25.4277 18.9883V19.0156L25.5371 19.1523H25.5918L25.9746 19.0977V19.1523C25.9382 19.9544 25.8835 20.3555 25.8105 20.3555L22.6113 20.2461H21.9551C21.4993 20.2461 20.8796 20.2917 20.0957 20.3828C17.3431 20.0547 15.429 19.8906 14.3535 19.8906C14.0254 19.8177 13.8613 19.6536 13.8613 19.3984C13.7337 19.0703 13.6699 18.6602 13.6699 18.168V17.3477C13.6699 15.7617 13.8522 14.7591 14.2168 14.3398L14.9004 13.9023C15.0098 13.7018 15.0645 13.5378 15.0645 13.4102C16.2311 12.4622 16.8509 11.9883 16.9238 11.9883C17.416 11.806 18.0905 11.3411 18.9473 10.5938H19.084C18.847 10.8854 18.6556 11.0312 18.5098 11.0312V11.1406H18.6738C18.9108 11.013 19.1478 10.8125 19.3848 10.5391V10.4844H19.2754V10.4023L21.2441 9.17188C22.2467 8.47917 23.0397 7.84115 23.623 7.25781C24.0605 6.76562 24.3431 6.11849 24.4707 5.31641C24.4707 4.60547 24.1699 4.06771 23.5684 3.70312C23.3678 3.63021 22.5475 3.52995 21.1074 3.40234C21.1074 3.38411 20.9616 3.36589 20.6699 3.34766C20.0501 3.34766 19.4668 3.71224 18.9199 4.44141C18.7741 4.76953 18.7012 5.01562 18.7012 5.17969V5.37109H18.7559C18.7559 5.53516 18.4551 5.65365 17.8535 5.72656L16.7051 5.89062V5.91797L16.541 5.89062H16.3223L15.6387 5.97266L15.584 5.86328C15.8392 4.60547 16.1217 3.82161 16.4316 3.51172C17.4707 2.5638 18.1999 2.07161 18.6191 2.03516C18.929 1.76172 19.64 1.47917 20.752 1.1875ZM21.8457 1.37891H21.5723V1.43359L21.7363 1.65234H21.9824L22.0918 1.51562V1.48828C22.0736 1.41536 21.9915 1.37891 21.8457 1.37891ZM20.0957 1.78906V1.84375H20.123C20.8704 1.84375 21.2441 1.76172 21.2441 1.59766L21.1074 1.48828H20.7793C20.3236 1.59766 20.0957 1.69792 20.0957 1.78906ZM23.5137 1.67969H23.4863V1.73438C23.4863 1.84375 23.7233 1.95312 24.1973 2.0625V2.03516C24.1973 1.92578 23.9694 1.80729 23.5137 1.67969ZM19.084 2.19922V2.28125H19.4395L19.5488 2.17188V2.14453L19.3848 2.11719C19.1842 2.15365 19.084 2.18099 19.084 2.19922ZM19.4668 3.23828L19.3848 3.34766V3.40234H19.5488L19.6309 3.29297V3.23828H19.4668ZM24.2246 3.29297L24.1699 3.34766V3.40234C24.2428 3.52995 24.3431 3.59375 24.4707 3.59375H24.498C24.5527 3.59375 24.5801 3.55729 24.5801 3.48438C24.5801 3.39323 24.4798 3.32943 24.2793 3.29297H24.2246ZM24.6348 3.70312V3.75781C24.9629 3.79427 25.127 3.9401 25.127 4.19531L25.291 4.38672V4.19531C25.291 3.79427 25.1634 3.59375 24.9082 3.59375C24.7441 3.59375 24.653 3.63021 24.6348 3.70312ZM18.5918 4.25L18.6465 4.30469H18.6738C18.9473 4.15885 19.084 4.01302 19.084 3.86719V3.83984H18.9746C18.9017 3.83984 18.7741 3.97656 18.5918 4.25ZM17.8262 4.98828H17.6895V5.09766L17.7988 5.125H17.8262V4.98828ZM25.8105 5.91797L25.7012 6.05469V6.13672H25.7559L25.8379 6.05469V5.91797H25.8105ZM25.1816 7.01172H25.0449V7.14844C25.1725 7.14844 25.2363 7.20312 25.2363 7.3125H25.3184V7.14844L25.1816 7.01172ZM24.6895 7.99609L24.7168 8.05078V8.07812C24.8262 8.02344 24.9355 7.91406 25.0449 7.75V7.69531H24.9902C24.8626 7.76823 24.7624 7.86849 24.6895 7.99609ZM23.9512 8.54297H24.0059L24.3066 8.48828C24.3066 8.34245 24.2428 8.26953 24.1152 8.26953C24.0059 8.28776 23.9512 8.37891 23.9512 8.54297ZM23.8965 9.0625V9.11719C24.2428 9.08073 24.5618 8.88932 24.8535 8.54297L24.7988 8.48828C24.3796 8.70703 24.0788 8.89844 23.8965 9.0625ZM22.666 9.58203L22.584 9.60938V9.71875H22.6387L22.7207 9.63672L22.666 9.60938V9.58203ZM18.4004 12.8633V12.9453H18.4824C18.5918 12.9453 18.8379 12.7812 19.2207 12.4531C19.3118 12.4531 19.403 12.3438 19.4941 12.125L19.5488 12.0977V12.0156H19.4668C19.248 12.0156 18.8926 12.2982 18.4004 12.8633ZM16.6777 12.7266V12.8086H16.7051C16.9421 12.8086 17.1335 12.6263 17.2793 12.2617H17.1426C16.8327 12.5169 16.6777 12.6719 16.6777 12.7266ZM15.7754 13.2188H15.4199L15.4473 13.4922C15.1921 13.7474 15.0645 13.9115 15.0645 13.9844H15.1738C15.502 13.8021 15.7298 13.5742 15.8574 13.3008V13.2461L15.7754 13.2188ZM17.8262 13.4922L17.6895 13.5742V13.6562H17.7988L17.9082 13.5469V13.4922H17.8262ZM15.6387 15.0508V15.1602H15.7207C15.9212 15.0143 16.0215 14.8685 16.0215 14.7227V14.6953H15.9395C15.7389 14.8047 15.6387 14.9232 15.6387 15.0508ZM14.9004 17.9766L14.8184 18.0586V18.168L14.9004 18.2773L14.9551 18.168V18.0586L14.9004 17.9766ZM15.6387 18.0586L15.5293 18.1406L15.584 18.168H15.9395V18.0859L15.748 18.0586H15.6387ZM23.0762 18.2773L22.8848 18.3047V18.332L22.9941 18.4414H23.3496L23.4316 18.3867V18.3047L23.0762 18.2773ZM14.1621 18.8242L14.0527 18.8789V18.9062L14.1348 18.9883H14.1621L14.2441 18.9062L14.1621 18.8242ZM14.7363 19.3984V19.4258L14.9551 19.4531C15.2285 19.4167 15.3652 19.3802 15.3652 19.3438L15.3379 19.2891H14.9551C14.8092 19.3255 14.7363 19.362 14.7363 19.3984ZM23.5957 19.6992H23.8965C24.1517 19.6628 24.2793 19.6172 24.2793 19.5625L24.1973 19.4531H24.0332C23.9421 19.4531 23.7962 19.5352 23.5957 19.6992ZM24.5801 19.8633L24.6895 19.918H24.9902C25.2637 19.918 25.4004 19.8724 25.4004 19.7812V19.7539C25.4004 19.6992 25.3639 19.6719 25.291 19.6719C24.8535 19.6901 24.6165 19.7539 24.5801 19.8633ZM42.1348 1.73438C42.5358 1.73438 43.3288 1.98047 44.5137 2.47266C46.0814 3.18359 46.8652 4.1862 46.8652 5.48047V6.4375C46.8652 7.07552 46.6465 7.75 46.209 8.46094C45.972 9.35417 45.7624 9.80078 45.5801 9.80078C44.8691 10.1289 44.5137 10.4206 44.5137 10.6758V10.9492C44.5137 11.5872 44.5866 12.2708 44.7324 13C44.6777 13.9661 44.5592 14.4492 44.377 14.4492C44.2311 14.4492 43.9121 14.6133 43.4199 14.9414L43.1191 14.9688C42.8092 14.9688 42.6543 14.8047 42.6543 14.4766C42.3262 12.6172 42.1621 11.25 42.1621 10.375C42.1621 10.1927 42.6087 9.74609 43.502 9.03516C43.9395 8.59766 44.2038 8.2513 44.2949 7.99609C44.4954 7.77734 44.6139 7.66797 44.6504 7.66797L44.8965 7.75C45.0605 7.75 45.2064 7.38542 45.334 6.65625V6.57422L45.0605 6.08203V5.97266H45.0332L45.1426 5.69922V5.34375C45.1426 5.14323 44.9967 4.92448 44.7051 4.6875C44.5592 4.32292 44.3314 4.14062 44.0215 4.14062C43.4199 3.92188 42.7546 3.8125 42.0254 3.8125H41.752C40.7676 3.8125 39.847 4.46875 38.9902 5.78125L37.9238 7.14844V7.23047C37.5592 7.70443 37.2129 7.75911 36.8848 7.39453C36.5566 7.01172 36.3926 6.72917 36.3926 6.54688L36.6934 5.50781C36.9121 4.9974 37.304 4.50521 37.8691 4.03125C38.9629 3.13802 39.8926 2.5 40.6582 2.11719C41.1139 1.86198 41.6061 1.73438 42.1348 1.73438ZM40.6582 2.52734V2.58203H40.959C41.4329 2.58203 41.8522 2.47266 42.2168 2.25391V2.17188L42.1348 2.11719H41.8613C41.4421 2.11719 41.041 2.25391 40.6582 2.52734ZM43.2285 2.47266L43.1191 2.52734V2.58203C43.1191 2.63672 43.1829 2.66406 43.3105 2.66406C43.5111 2.66406 43.6113 2.61849 43.6113 2.52734L43.5293 2.47266H43.2285ZM40.002 3.01953L40.084 3.10156L40.4121 2.99219V2.85547H40.3574C40.1751 2.85547 40.0566 2.91016 40.002 3.01953ZM45.0332 3.15625L45.0059 3.21094C45.1335 3.46615 45.3796 3.66667 45.7441 3.8125H45.8809V3.78516C45.8809 3.65755 45.5983 3.44792 45.0332 3.15625ZM38.252 4.19531C38.5983 4.19531 38.972 3.99479 39.373 3.59375C39.5736 3.5026 39.6738 3.4388 39.6738 3.40234V3.375L39.4824 3.21094H39.4551C39.3639 3.21094 39.0267 3.41146 38.4434 3.8125C38.3158 3.86719 38.252 3.99479 38.252 4.19531ZM41.834 3.21094H41.752V3.26562H41.834V3.21094ZM37.9238 4.44141L37.8145 4.60547V4.63281H37.8418C37.9329 4.59635 37.9785 4.53255 37.9785 4.44141H37.9238ZM46.3457 4.87891H46.291V4.90625C46.291 5.05208 46.3457 5.13411 46.4551 5.15234H46.4824V5.125C46.4824 4.9974 46.4368 4.91536 46.3457 4.87891ZM38.6074 5.23438V5.28906H38.6621C38.7533 5.2526 38.8171 5.17969 38.8535 5.07031V5.01562L38.7988 4.96094C38.6712 5.01562 38.6074 5.10677 38.6074 5.23438ZM37.0762 5.69922V5.75391L37.1855 5.78125C37.4408 5.63542 37.5684 5.47135 37.5684 5.28906V5.17969H37.4863C37.2129 5.36198 37.0762 5.53516 37.0762 5.69922ZM37.4863 6.35547L37.4043 6.38281V6.46484H37.4863L37.5684 6.38281V6.35547H37.4863ZM37.623 7.64062H37.6504V7.72266H37.623V7.64062ZM44.9785 7.91406H44.8145V8.05078H44.8965L44.9785 7.94141V7.91406ZM45.0332 9.19922V9.28125H45.0879C45.2702 9.28125 45.3704 9.22656 45.3887 9.11719L45.334 9.08984H45.3066C45.1243 9.10807 45.0332 9.14453 45.0332 9.19922ZM42.8457 10.5664V10.6484C42.8457 11.0677 42.9733 11.2773 43.2285 11.2773C43.2467 11.2773 43.2741 11.2044 43.3105 11.0586C43.2923 10.5117 43.2467 10.2383 43.1738 10.2383H43.0371C42.9095 10.2565 42.8457 10.3659 42.8457 10.5664ZM43.9668 11.1953L43.9121 11.2773H44.0215V11.1953H43.9668ZM43.1191 11.6055L43.0371 11.7148V11.7695C43.0371 11.9336 43.1009 12.0247 43.2285 12.043H43.2832L43.3105 11.8789C43.3105 11.7695 43.2467 11.6784 43.1191 11.6055ZM43.4199 13.4922L43.2832 13.6562L43.3926 13.9844L43.2832 14.4492H43.4473C43.5749 14.4492 43.6842 14.3763 43.7754 14.2305V14.1211C43.7025 14.0664 43.666 13.8932 43.666 13.6016L43.5293 13.4922H43.4199ZM43.8027 16.418C44.1126 16.418 44.6048 16.6094 45.2793 16.9922C45.5527 17.0651 45.6895 17.1289 45.6895 17.1836C45.6895 17.2565 45.5254 17.3203 45.1973 17.375V17.4023V17.457L45.334 17.9219C45.6621 18.7422 45.4707 19.3984 44.7598 19.8906C43.6113 19.9089 42.8366 19.3529 42.4355 18.2227L42.3262 17.8125C42.3262 17.4115 42.8184 16.9466 43.8027 16.418ZM43.8027 16.8828H43.6113V16.9102C43.6842 17.0195 43.9668 17.138 44.459 17.2656L44.5137 17.2109V17.1562C44.3496 16.974 44.1126 16.8828 43.8027 16.8828ZM43.4199 18.0586C43.4199 18.0768 43.502 18.1315 43.666 18.2227C43.7025 18.332 43.7389 18.3867 43.7754 18.3867H43.8027L44.1309 17.9766C44.1309 17.8672 44.0762 17.7852 43.9668 17.7305H43.5293C43.4564 17.7487 43.4199 17.8581 43.4199 18.0586ZM63.3262 1.1875L63.9277 1.10547C64.5293 1.10547 65.4681 1.32422 66.7441 1.76172C67.4186 2.10807 67.7559 2.33594 67.7559 2.44531C68.3757 3.0651 68.6855 3.54818 68.6855 3.89453L69.123 5.50781C68.9408 6.20052 68.5488 7.19401 67.9473 8.48828C67.1816 9.1263 66.0514 9.88281 64.5566 10.7578C63.3353 11.888 62.5332 12.4714 62.1504 12.5078L61.002 13.5469C59.3613 14.9688 58.5228 15.7161 58.4863 15.7891C58.3223 16.1354 58.1764 16.582 58.0488 17.1289V17.1836C58.0488 17.3294 58.4954 17.4297 59.3887 17.4844V17.5938L58.5137 17.6484V17.7578C60.0996 18.0312 61.166 18.168 61.7129 18.168C61.6764 18.1133 61.0202 17.931 59.7441 17.6211V17.5391H59.7715C60.1178 17.5391 60.847 17.6758 61.959 17.9492L63.4902 18.0586L64.8027 17.9219H65.4863C66.6895 17.9948 67.3457 18.1589 67.4551 18.4141L68.2754 18.6602L68.4395 18.7695V18.8789L68.002 18.9883V19.0156L68.1113 19.1523H68.166L68.5488 19.0977V19.1523C68.5124 19.9544 68.4577 20.3555 68.3848 20.3555L65.1855 20.2461H64.5293C64.0736 20.2461 63.4538 20.2917 62.6699 20.3828C59.9173 20.0547 58.0033 19.8906 56.9277 19.8906C56.5996 19.8177 56.4355 19.6536 56.4355 19.3984C56.3079 19.0703 56.2441 18.6602 56.2441 18.168V17.3477C56.2441 15.7617 56.4264 14.7591 56.791 14.3398L57.4746 13.9023C57.584 13.7018 57.6387 13.5378 57.6387 13.4102C58.8053 12.4622 59.4251 11.9883 59.498 11.9883C59.9902 11.806 60.6647 11.3411 61.5215 10.5938H61.6582C61.4212 10.8854 61.2298 11.0312 61.084 11.0312V11.1406H61.248C61.485 11.013 61.722 10.8125 61.959 10.5391V10.4844H61.8496V10.4023L63.8184 9.17188C64.821 8.47917 65.6139 7.84115 66.1973 7.25781C66.6348 6.76562 66.9173 6.11849 67.0449 5.31641C67.0449 4.60547 66.7441 4.06771 66.1426 3.70312C65.9421 3.63021 65.1217 3.52995 63.6816 3.40234C63.6816 3.38411 63.5358 3.36589 63.2441 3.34766C62.6243 3.34766 62.041 3.71224 61.4941 4.44141C61.3483 4.76953 61.2754 5.01562 61.2754 5.17969V5.37109H61.3301C61.3301 5.53516 61.0293 5.65365 60.4277 5.72656L59.2793 5.89062V5.91797L59.1152 5.89062H58.8965L58.2129 5.97266L58.1582 5.86328C58.4134 4.60547 58.696 3.82161 59.0059 3.51172C60.0449 2.5638 60.7741 2.07161 61.1934 2.03516C61.5033 1.76172 62.2142 1.47917 63.3262 1.1875ZM64.4199 1.37891H64.1465V1.43359L64.3105 1.65234H64.5566L64.666 1.51562V1.48828C64.6478 1.41536 64.5658 1.37891 64.4199 1.37891ZM62.6699 1.78906V1.84375H62.6973C63.4447 1.84375 63.8184 1.76172 63.8184 1.59766L63.6816 1.48828H63.3535C62.8978 1.59766 62.6699 1.69792 62.6699 1.78906ZM66.0879 1.67969H66.0605V1.73438C66.0605 1.84375 66.2975 1.95312 66.7715 2.0625V2.03516C66.7715 1.92578 66.5436 1.80729 66.0879 1.67969ZM61.6582 2.19922V2.28125H62.0137L62.123 2.17188V2.14453L61.959 2.11719C61.7585 2.15365 61.6582 2.18099 61.6582 2.19922ZM62.041 3.23828L61.959 3.34766V3.40234H62.123L62.2051 3.29297V3.23828H62.041ZM66.7988 3.29297L66.7441 3.34766V3.40234C66.8171 3.52995 66.9173 3.59375 67.0449 3.59375H67.0723C67.127 3.59375 67.1543 3.55729 67.1543 3.48438C67.1543 3.39323 67.054 3.32943 66.8535 3.29297H66.7988ZM67.209 3.70312V3.75781C67.5371 3.79427 67.7012 3.9401 67.7012 4.19531L67.8652 4.38672V4.19531C67.8652 3.79427 67.7376 3.59375 67.4824 3.59375C67.3184 3.59375 67.2272 3.63021 67.209 3.70312ZM61.166 4.25L61.2207 4.30469H61.248C61.5215 4.15885 61.6582 4.01302 61.6582 3.86719V3.83984H61.5488C61.4759 3.83984 61.3483 3.97656 61.166 4.25ZM60.4004 4.98828H60.2637V5.09766L60.373 5.125H60.4004V4.98828ZM68.3848 5.91797L68.2754 6.05469V6.13672H68.3301L68.4121 6.05469V5.91797H68.3848ZM67.7559 7.01172H67.6191V7.14844C67.7467 7.14844 67.8105 7.20312 67.8105 7.3125H67.8926V7.14844L67.7559 7.01172ZM67.2637 7.99609L67.291 8.05078V8.07812C67.4004 8.02344 67.5098 7.91406 67.6191 7.75V7.69531H67.5645C67.4368 7.76823 67.3366 7.86849 67.2637 7.99609ZM66.5254 8.54297H66.5801L66.8809 8.48828C66.8809 8.34245 66.8171 8.26953 66.6895 8.26953C66.5801 8.28776 66.5254 8.37891 66.5254 8.54297ZM66.4707 9.0625V9.11719C66.8171 9.08073 67.1361 8.88932 67.4277 8.54297L67.373 8.48828C66.9538 8.70703 66.653 8.89844 66.4707 9.0625ZM65.2402 9.58203L65.1582 9.60938V9.71875H65.2129L65.2949 9.63672L65.2402 9.60938V9.58203ZM60.9746 12.8633V12.9453H61.0566C61.166 12.9453 61.4121 12.7812 61.7949 12.4531C61.8861 12.4531 61.9772 12.3438 62.0684 12.125L62.123 12.0977V12.0156H62.041C61.8223 12.0156 61.4668 12.2982 60.9746 12.8633ZM59.252 12.7266V12.8086H59.2793C59.5163 12.8086 59.7077 12.6263 59.8535 12.2617H59.7168C59.4069 12.5169 59.252 12.6719 59.252 12.7266ZM58.3496 13.2188H57.9941L58.0215 13.4922C57.7663 13.7474 57.6387 13.9115 57.6387 13.9844H57.748C58.0762 13.8021 58.304 13.5742 58.4316 13.3008V13.2461L58.3496 13.2188ZM60.4004 13.4922L60.2637 13.5742V13.6562H60.373L60.4824 13.5469V13.4922H60.4004ZM58.2129 15.0508V15.1602H58.2949C58.4954 15.0143 58.5957 14.8685 58.5957 14.7227V14.6953H58.5137C58.3132 14.8047 58.2129 14.9232 58.2129 15.0508ZM57.4746 17.9766L57.3926 18.0586V18.168L57.4746 18.2773L57.5293 18.168V18.0586L57.4746 17.9766ZM58.2129 18.0586L58.1035 18.1406L58.1582 18.168H58.5137V18.0859L58.3223 18.0586H58.2129ZM65.6504 18.2773L65.459 18.3047V18.332L65.5684 18.4414H65.9238L66.0059 18.3867V18.3047L65.6504 18.2773ZM56.7363 18.8242L56.627 18.8789V18.9062L56.709 18.9883H56.7363L56.8184 18.9062L56.7363 18.8242ZM57.3105 19.3984V19.4258L57.5293 19.4531C57.8027 19.4167 57.9395 19.3802 57.9395 19.3438L57.9121 19.2891H57.5293C57.3835 19.3255 57.3105 19.362 57.3105 19.3984ZM66.1699 19.6992H66.4707C66.7259 19.6628 66.8535 19.6172 66.8535 19.5625L66.7715 19.4531H66.6074C66.5163 19.4531 66.3704 19.5352 66.1699 19.6992ZM67.1543 19.8633L67.2637 19.918H67.5645C67.8379 19.918 67.9746 19.8724 67.9746 19.7812V19.7539C67.9746 19.6992 67.9382 19.6719 67.8652 19.6719C67.4277 19.6901 67.1908 19.7539 67.1543 19.8633ZM76.3691 0.667969H76.5879C76.7884 0.667969 77.1165 0.813802 77.5723 1.10547C78.3561 1.39714 78.748 1.71615 78.748 2.0625C79.3314 3.32031 79.623 4.25911 79.623 4.87891C79.5866 5.04297 79.5228 5.53516 79.4316 6.35547C79.1217 7.17578 78.7298 7.88672 78.2559 8.48828C79.7871 9.76432 80.6439 10.7305 80.8262 11.3867C80.8262 11.4961 81.0632 11.9245 81.5371 12.6719L81.4551 14.4766L81.4277 14.5859H81.3457V14.3125C81.3457 14.1302 81.3184 14.0391 81.2637 14.0391H81.1816C81.0723 14.0391 80.9902 14.2578 80.9355 14.6953C80.9902 14.9323 81.0449 15.0508 81.0996 15.0508H81.1543C81.2637 15.0508 81.3275 14.9323 81.3457 14.6953H81.4277C81.4277 15.2786 81.2637 15.8164 80.9355 16.3086L80.8262 16.1172H80.7168L80.6074 16.1992V16.3359L80.7441 16.4727L80.7168 16.6641L80.8262 16.9375C80.8262 17.0833 80.6348 17.2839 80.252 17.5391V17.4844L80.334 17.375V17.3477L80.252 17.2656H80.0879C79.778 17.4297 79.541 17.7487 79.377 18.2227L79.5137 18.2773L80.1426 17.7852V17.8125C79.7233 18.4505 79.2949 18.8333 78.8574 18.9609C78.6022 19.1979 78.2376 19.4258 77.7637 19.6445C77.4355 19.918 76.7793 20.1641 75.7949 20.3828C75.7949 20.4193 75.6855 20.4375 75.4668 20.4375C75.0475 20.4375 74.3001 20.2188 73.2246 19.7812C72.5684 19.7812 71.748 18.6875 70.7637 16.5C70.709 16.5 70.6361 16.181 70.5449 15.543V15.0508C70.5449 13.9388 70.7272 13.0182 71.0918 12.2891C71.2923 11.3594 71.5293 10.8945 71.8027 10.8945C71.8027 10.694 72.0488 10.3021 72.541 9.71875L72.8418 9.36328V9.28125C72.6595 9.28125 72.0762 8.69792 71.0918 7.53125C70.5449 5.94531 70.2715 4.9974 70.2715 4.6875C70.4173 4.57812 70.4902 4.40495 70.4902 4.16797L70.6816 4.25H70.709C70.8001 4.21354 70.8457 4.13151 70.8457 4.00391V3.83984L70.7363 3.70312H70.6816L70.5996 3.92188L70.4902 3.89453V3.83984C70.6725 3.22005 71.028 2.74609 71.5566 2.41797C71.7389 1.90755 72.1217 1.54297 72.7051 1.32422C73.7988 0.886719 75.0202 0.667969 76.3691 0.667969ZM71.8027 2.80078L71.8574 2.82812H71.8848C72.0306 2.82812 72.5775 2.36328 73.5254 1.43359C73.5983 1.43359 73.6348 1.39714 73.6348 1.32422H73.5801C73.2155 1.32422 72.7142 1.625 72.0762 2.22656C71.9486 2.39062 71.8574 2.58203 71.8027 2.80078ZM75.3027 1.65234V1.73438L76.8887 2.17188V1.67969H76.9707V1.65234L77.5723 1.84375H77.6543C77.6543 1.60677 77.2259 1.48828 76.3691 1.48828C76.2233 1.45182 76.0319 1.43359 75.7949 1.43359C75.6126 1.43359 75.4486 1.50651 75.3027 1.65234ZM73.0879 2.39062H73.1699C73.6074 2.17188 73.8262 1.9987 73.8262 1.87109H73.7168C73.4251 1.98047 73.2155 2.15365 73.0879 2.39062ZM72.541 5.23438V5.37109C72.5775 6.04557 73.1517 7.04818 74.2637 8.37891L74.6191 8.625H74.6465L74.9746 8.54297H75.2207C75.804 8.54297 76.4967 8.32422 77.2988 7.88672C77.5905 7.72266 77.9095 7.28516 78.2559 6.57422C78.3835 6.30078 78.5202 6.16406 78.666 6.16406L78.6113 5.89062L78.7754 5.28906V5.125C78.7754 5.10677 78.7025 5.07943 78.5566 5.04297L77.873 3.23828C77.7637 3.03776 77.4811 2.90104 77.0254 2.82812C76.8431 2.60938 76.1595 2.33594 74.9746 2.00781C74.5918 2.00781 73.8535 2.47266 72.7598 3.40234C72.6139 3.78516 72.541 4.39583 72.541 5.23438ZM77.9004 2.11719H77.6543V2.14453C77.709 2.27214 77.8092 2.33594 77.9551 2.33594H77.9824L78.0645 2.28125C78.0098 2.20833 77.9551 2.15365 77.9004 2.11719ZM78.4199 2.60938V2.66406C78.5475 2.99219 78.6842 3.15625 78.8301 3.15625V3.01953C78.7207 2.74609 78.584 2.60938 78.4199 2.60938ZM70.8184 3.40234V3.56641H70.8457C71.1009 3.47526 71.2285 3.29297 71.2285 3.01953V2.88281H71.1191C71.028 2.88281 70.9277 3.05599 70.8184 3.40234ZM70.9824 4.71484C70.9824 5.0612 71.0098 5.23438 71.0645 5.23438H71.0918C71.2741 5.23438 71.3926 5.11589 71.4473 4.87891V4.52344C71.4473 3.9401 71.5566 3.51172 71.7754 3.23828V3.01953H71.5293C71.4199 3.01953 71.3379 3.30208 71.2832 3.86719C71.2103 3.86719 71.11 4.14974 70.9824 4.71484ZM78.6387 3.40234H78.502V3.51172L78.4199 3.8125L78.666 4.25C78.666 4.41406 78.7025 4.53255 78.7754 4.60547L78.748 4.79688V4.82422H78.7754L78.8574 4.71484V4.25C78.8574 3.6849 78.7845 3.40234 78.6387 3.40234ZM72.0762 4.76953L72.1582 4.82422C72.2129 4.73307 72.2402 4.64193 72.2402 4.55078H72.2129C72.1217 4.58724 72.0762 4.66016 72.0762 4.76953ZM71.8027 5.45312C71.9121 6.3099 72.1855 7.01172 72.623 7.55859C73.1699 8.14193 73.5345 8.47005 73.7168 8.54297H73.8262C73.8262 8.50651 73.5618 8.11458 73.0332 7.36719C72.4681 6.36458 72.1673 5.69922 72.1309 5.37109L71.9668 5.23438H71.9395C71.8483 5.27083 71.8027 5.34375 71.8027 5.45312ZM79.2402 5.31641L79.1309 5.23438C79.0033 5.59896 78.9395 5.89062 78.9395 6.10938L78.9668 6.13672H79.0488C79.1764 6.11849 79.2402 6 79.2402 5.78125V5.31641ZM70.873 5.72656C70.9642 6.29167 71.2285 6.94792 71.666 7.69531C71.7207 7.69531 71.8848 7.90495 72.1582 8.32422C72.541 8.77995 72.8965 9.00781 73.2246 9.00781H73.416V8.95312C73.416 8.89844 72.9694 8.47917 72.0762 7.69531C71.7116 7.27604 71.5293 6.99349 71.5293 6.84766C71.4017 6.68359 71.2832 6.22786 71.1738 5.48047L71.1191 5.45312H70.9824C70.9095 5.47135 70.873 5.5625 70.873 5.72656ZM77.4902 8.24219V8.26953H77.5449C77.8366 8.26953 78.2194 7.89583 78.6934 7.14844L78.7754 6.79297V6.60156L78.6934 6.46484C78.5658 6.5013 78.3561 6.86589 78.0645 7.55859C77.9368 7.75911 77.7454 7.98698 77.4902 8.24219ZM76.2871 8.67969L76.3418 8.73438H76.4785C76.5879 8.73438 76.7246 8.67969 76.8887 8.57031V8.48828C76.6335 8.48828 76.4329 8.55208 76.2871 8.67969ZM77.873 8.76172L77.7637 8.81641C78.0007 8.94401 78.2194 9.00781 78.4199 9.00781L78.4473 8.95312V8.84375L78.3652 8.76172H77.873ZM77.3809 9.11719L77.0527 9.22656V9.28125C77.0892 9.35417 77.4902 9.52734 78.2559 9.80078C78.6204 10.0742 78.8483 10.2109 78.9395 10.2109V10.0469C78.502 9.42708 77.9824 9.11719 77.3809 9.11719ZM73.8535 9.22656H73.6895V9.30859C73.6895 9.38151 73.8353 9.42708 74.127 9.44531H74.373L74.4277 9.36328C74.4277 9.27214 74.2363 9.22656 73.8535 9.22656ZM75.3027 9.22656H74.9473V9.30859L75.002 9.36328H75.1113C75.403 9.36328 75.6673 9.33594 75.9043 9.28125V9.22656H75.3027ZM71.5566 11.5781H71.666C71.7936 11.5781 72.3223 11.0951 73.252 10.1289C73.3431 10.1289 73.4707 10.0195 73.6348 9.80078V9.77344C73.5983 9.66406 73.498 9.60938 73.334 9.60938H73.2246C72.9329 9.60938 72.5319 9.97396 72.0215 10.7031C72.0033 10.7031 71.9486 10.8307 71.8574 11.0859C71.6569 11.2865 71.5566 11.4505 71.5566 11.5781ZM72.7598 12.125L72.8145 12.1797V12.207L72.9785 12.1797L73.0332 12.2617C72.5046 13.3737 72.2402 14.0664 72.2402 14.3398V14.4219C72.2402 16.2812 72.5501 17.4388 73.1699 17.8945C73.9173 18.6055 74.5462 18.9609 75.0566 18.9609H75.3027L75.3848 18.8789C75.3665 18.8424 75.0293 18.6784 74.373 18.3867C73.8079 18.0404 73.4342 17.7578 73.252 17.5391V17.4844H73.3066L74.7285 18.3047C75.8587 18.6875 76.5788 18.8789 76.8887 18.8789H76.9707C77.1165 18.8789 77.4173 18.6602 77.873 18.2227V18.3867C78.3835 18.2044 78.8027 17.8034 79.1309 17.1836L79.2402 16.8008V16.7461L78.8574 16.9375V16.9102C79.2949 16.2904 79.5137 15.862 79.5137 15.625C79.5137 14.8776 79.4225 14.2214 79.2402 13.6562V13.3555C79.2402 13.1367 79.1673 12.6354 79.0215 11.8516V11.8242L79.1035 11.7695L79.3496 11.9336V11.8789V11.7695C79.3496 11.569 79.2767 11.4232 79.1309 11.332H79.0488V11.6055H78.9668C78.8939 11.5872 78.7754 11.3229 78.6113 10.8125C78.0645 10.0651 77.3079 9.69141 76.3418 9.69141C74.4642 10.0195 73.5254 10.4297 73.5254 10.9219C73.5254 11.487 73.2702 11.888 72.7598 12.125ZM72.0215 11.9883C72.1491 11.9883 72.2767 11.8971 72.4043 11.7148V11.6602H72.3496C72.1491 11.6602 72.0397 11.7695 72.0215 11.9883ZM71.4473 13.5742C71.4473 13.6654 71.5566 13.7292 71.7754 13.7656C71.9577 13.7656 72.1035 13.5833 72.2129 13.2188V13.0547C72.2129 13 72.1035 12.9727 71.8848 12.9727L71.8574 12.9453V12.8906C71.8574 12.8359 71.9486 12.8086 72.1309 12.8086C72.2038 12.8086 72.2949 12.6901 72.4043 12.4531V12.3984L72.3496 12.3438C72.222 12.3438 72.0944 12.3802 71.9668 12.4531V12.3984V12.3711V12.3438V12.1797H71.7754C71.5566 12.1797 71.4473 12.6445 71.4473 13.5742ZM80.2246 12.5352C80.2611 12.9727 80.3158 13.2005 80.3887 13.2188C80.4434 13.2188 80.4798 13.1094 80.498 12.8906C80.4434 12.599 80.3796 12.4531 80.3066 12.4531C80.252 12.4531 80.2246 12.4805 80.2246 12.5352ZM79.8145 13.8477V13.957L79.8691 14.2578L79.7871 14.3672V14.5039C79.7871 14.6497 79.8327 14.7227 79.9238 14.7227H80.0605C80.1882 14.668 80.252 14.5768 80.252 14.4492V14.3398C80.1426 13.6836 80.0514 13.3555 79.9785 13.3555H79.9238C79.8509 13.3555 79.8145 13.5195 79.8145 13.8477ZM70.873 15.8984C71.3288 16.8828 71.666 17.5026 71.8848 17.7578H71.9395V17.7031L71.3379 15.1328C71.265 14.8594 71.2285 14.5586 71.2285 14.2305L71.2832 13.6836L71.2559 13.6562H71.1191C71.0098 13.6562 70.9277 14.4036 70.873 15.8984ZM80.9355 15.5156L80.9902 15.543H81.0176C81.1087 15.5065 81.1543 15.4336 81.1543 15.3242H81.0996C81.0449 15.3242 80.9902 15.388 80.9355 15.5156ZM80.3066 16.6094L80.1973 16.6914V16.8555H80.2246L80.334 16.7461V16.6094H80.3066ZM78.3379 17.5391L78.4473 17.4023H78.502V17.4844L78.3652 17.6211H78.3379V17.5391ZM78.1191 17.8945V17.8125H78.2285V17.8945H78.1191ZM72.4863 18.0859H72.4043V18.4688C72.4043 18.7969 72.6595 19.0247 73.1699 19.1523H73.2246L73.3066 19.0977C73.1608 18.7695 72.8874 18.4323 72.4863 18.0859ZM75.9043 18.9883L75.6582 19.0156V19.0977L75.6855 19.1523H75.9863C76.0957 19.1523 76.1595 19.125 76.1777 19.0703V19.0156L76.0137 18.9883H75.9043ZM73.7715 19.2891L73.6895 19.3438V19.3984C73.9629 19.7448 74.5098 19.918 75.3301 19.918C75.5671 19.8997 75.6855 19.8724 75.6855 19.8359V19.7539C75.4668 19.7539 74.8652 19.599 73.8809 19.2891H73.7715ZM76.0957 19.6992V19.7812H76.123C76.3783 19.7812 76.6608 19.6628 76.9707 19.4258V19.3711H76.9434C76.3783 19.4987 76.0957 19.6081 76.0957 19.6992ZM101.143 13.9844L101.252 14.0117C101.361 14.0482 101.352 14.7773 101.225 16.1992H101.252C101.234 16.3815 100.295 16.3815 98.4355 16.1992C96.3574 16.3268 94.9993 16.3359 94.3613 16.2266V16.1992C94.3796 16.0352 95.1725 15.9714 96.7402 16.0078C97.3783 15.9896 97.7155 15.9349 97.752 15.8438L97.7793 15.8164L97.5059 15.7617C95.3548 15.5794 94.2428 15.707 94.1699 16.1445L93.9512 16.1992C93.3314 16.1263 93.1217 15.4427 93.3223 14.1484C93.377 13.8203 94.1152 13.6836 95.5371 13.7383C95.5371 13.7018 95.6374 13.7018 95.8379 13.7383L96.3574 13.9297L96.6035 13.957L101.143 13.9844ZM100.514 14.3398L100.35 14.3672L100.322 14.4492L100.568 14.4766H100.732L100.76 14.3945L100.514 14.3398ZM99.0918 14.4766L99.4473 14.5312C99.6113 14.5677 99.7207 14.5404 99.7754 14.4492V14.4219H99.6934C99.3105 14.4036 99.11 14.4219 99.0918 14.4766ZM97.6152 14.4766V14.5586H97.6699C97.834 14.5951 97.9342 14.5677 97.9707 14.4766V14.4492H97.8613C97.7337 14.431 97.6517 14.4401 97.6152 14.4766ZM99.3105 15.0781L99.8848 15.1875C100.486 15.2422 100.824 15.2057 100.896 15.0781V15.0234L100.76 14.9688C99.8301 14.9505 99.347 14.987 99.3105 15.0781ZM96.3027 14.5312L96.2754 14.6406H96.3301C96.7311 14.6953 97.0319 14.6589 97.2324 14.5312V14.5039L97.1777 14.4766C97.0137 14.4583 96.722 14.4766 96.3027 14.5312ZM93.8691 14.1484L93.7871 14.2305L93.7051 14.5586L93.7871 14.6406V14.668C93.8418 14.668 93.9147 14.5586 94.0059 14.3398V14.2305L93.9785 14.1484H93.8691ZM94.7168 14.2578L94.5801 14.3672L94.5527 14.3945L94.7168 14.4219L94.7715 14.3672L94.7988 14.2852L94.7168 14.2578ZM98.791 15.0234H98.709V15.0781L98.873 15.1328L98.791 15.0234ZM98.3262 15.7891V15.8164H98.3535C99.9577 16.0169 100.778 16.0716 100.814 15.9805V15.9531C100.814 15.8984 100.769 15.8255 100.678 15.7344H100.65C100.085 15.6615 99.3105 15.6797 98.3262 15.7891ZM93.7324 14.8867L93.6504 14.9414V15.0234H93.7051L93.7871 14.9688V14.9141L93.7324 14.8867ZM101.361 10.5938L101.471 10.6211C101.617 10.6393 101.535 11.3503 101.225 12.7539L101.252 12.7812C101.197 12.9635 100.268 12.8906 98.4629 12.5625C96.3848 12.4531 95.0176 12.3255 94.3613 12.1797L94.3887 12.0977C94.4434 11.9518 95.2272 11.9792 96.7402 12.1797C97.4147 12.2161 97.7702 12.1888 97.8066 12.0977V12.0703L97.5605 12.0156C95.4277 11.5964 94.3066 11.6055 94.1973 12.043L93.9785 12.0977C93.377 11.9518 93.2402 11.2591 93.5684 10.0195C93.6413 9.69141 94.3887 9.61849 95.8105 9.80078C95.8288 9.78255 95.929 9.78255 96.1113 9.80078L96.6035 10.0469L96.8223 10.1016L101.361 10.5938ZM100.678 10.8945H100.514L100.486 10.9492L100.732 11.0312H100.924V10.9766L100.678 10.8945ZM99.2832 10.8945L99.6113 10.9766C99.7936 11.013 99.903 10.9857 99.9395 10.8945L99.8848 10.8672C99.4837 10.8125 99.2832 10.8216 99.2832 10.8945ZM97.8066 10.7578V10.8125C97.9889 10.8672 98.1074 10.8581 98.1621 10.7852L98.1895 10.7305L98.0254 10.7031C97.916 10.6849 97.8431 10.7031 97.8066 10.7578ZM99.4473 11.4961L99.9941 11.6328C100.559 11.7604 100.887 11.7695 100.979 11.6602L101.006 11.5781L100.896 11.5234C99.9668 11.4141 99.4837 11.4049 99.4473 11.4961ZM96.4941 10.6484L96.4668 10.7578L96.4941 10.7852C96.8223 10.8581 97.1322 10.849 97.4238 10.7578V10.7305L97.3691 10.7031C97.1504 10.6484 96.8587 10.6302 96.4941 10.6484ZM94.1152 10.0469L94.0059 10.1016L93.8965 10.457L93.9785 10.5391C94.0332 10.5391 94.1152 10.4388 94.2246 10.2383L94.252 10.1289L94.1699 10.0469H94.1152ZM94.9355 10.2383L94.7715 10.293V10.3477L94.9355 10.4023L95.0176 10.3203V10.293L94.9355 10.2383ZM98.9277 11.3867H98.873L98.8457 11.4414L98.9824 11.4961L98.9277 11.3867ZM98.4082 12.0977L98.3809 12.1523H98.4082C99.9941 12.5169 100.805 12.6445 100.842 12.5352L100.869 12.5078C100.869 12.4349 100.814 12.3529 100.705 12.2617H100.678C100.113 12.1341 99.3561 12.0794 98.4082 12.0977ZM93.8965 10.7852H93.7871V10.8945H93.8691L93.9512 10.8398L93.9785 10.7852H93.8965Z" fill="black"/>
</svg>
