<svg width="74" height="21" viewBox="0 0 74 21" fill="none" xmlns="http://www.w3.org/2000/svg">
<path d="M0.640625 1.05078L0.722656 0.996094C1.72526 1.10547 3.45703 1.2513 5.91797 1.43359C6.22786 1.57943 7.57682 1.77083 9.96484 2.00781C10.8945 2.22656 11.3594 2.47266 11.3594 2.74609C11.2865 3.0013 10.9857 3.44792 10.457 4.08594C10.457 4.14062 10.0378 4.69661 9.19922 5.75391C9.19922 5.91797 8.70703 6.44661 7.72266 7.33984L7.42188 7.75V7.83203C7.69531 7.83203 8.28776 7.74089 9.19922 7.55859C9.50911 7.55859 10.2839 7.93229 11.5234 8.67969C11.8516 9.04427 12.1797 9.75521 12.5078 10.8125V11.1133C12.5078 13.5378 12.2982 15.0417 11.8789 15.625C11.5326 16.6276 10.5846 17.6667 9.03516 18.7422C8.08724 19.1979 6.70182 19.6263 4.87891 20.0273C4.66016 20.1003 4.29557 20.1367 3.78516 20.1367H3.59375L3.42969 20.1914C2.59115 20.1914 1.88932 20 1.32422 19.6172V19.5352C1.37891 19.4987 1.5612 19.125 1.87109 18.4141H1.92578H2.5H2.80078C4.35026 18.4141 5.53516 18.0039 6.35547 17.1836L8.70703 15.6797C9.60026 14.8776 10.0924 14.3034 10.1836 13.957C10.5482 13.3737 10.7305 12.4167 10.7305 11.0859C10.7122 10.9036 10.6849 10.8125 10.6484 10.8125L10.7305 10.5938C10.7305 10.2292 10.5482 9.9375 10.1836 9.71875C10.0378 9.35417 9.75521 9.17188 9.33594 9.17188H8.65234C8.28776 9.17188 8.10547 9.21745 8.10547 9.30859V9.36328C8.85286 9.36328 9.4362 9.54557 9.85547 9.91016V9.96484L9.77344 10.0195C9.60938 10.0195 9.38151 9.89193 9.08984 9.63672L8.84375 9.60938C7.47656 9.60938 5.80859 10.0742 3.83984 11.0039L3.56641 11.168L3.42969 11.1133V10.8945C3.42969 10.7669 3.33854 10.612 3.15625 10.4297V10.4023C3.15625 10.3477 3.36589 9.85547 3.78516 8.92578C3.85807 8.61589 4.02214 8.30599 4.27734 7.99609L5.39844 6.30078C5.81771 5.38932 6.21875 4.83333 6.60156 4.63281C6.76562 4.45052 6.84766 4.27734 6.84766 4.11328V4.03125C6.64714 3.88542 6.47396 3.8125 6.32812 3.8125L1.21484 3.70312C1.05078 3.70312 0.950521 3.54818 0.914062 3.23828V3.12891L0.941406 3.01953V2.91016C0.886719 2.76432 0.786458 2.14453 0.640625 1.05078ZM1.76172 1.35156L1.65234 1.46094V1.73438H1.70703H2.0625H2.11719L2.80078 1.78906L2.91016 1.67969C2.58203 1.46094 2.19922 1.35156 1.76172 1.35156ZM0.996094 1.78906C1.03255 1.88021 1.10547 1.92578 1.21484 1.92578L1.26953 1.84375V1.78906L1.1875 1.67969H1.07812C1.02344 1.67969 0.996094 1.71615 0.996094 1.78906ZM4.44141 1.87109H4.35938V1.92578H4.38672L4.44141 1.87109ZM9.63672 2.22656H9.03516C9.03516 2.33594 9.20833 2.39974 9.55469 2.41797H9.60938L9.71875 2.33594V2.30859L9.63672 2.22656ZM3.34766 2.39062C4.3138 2.5 5.38021 2.55469 6.54688 2.55469H6.875C6.875 2.42708 6.20964 2.33594 4.87891 2.28125H4.14062C3.61198 2.28125 3.34766 2.31771 3.34766 2.39062ZM1.92578 2.39062L1.81641 2.41797C1.81641 2.58203 2.27214 2.69141 3.18359 2.74609L3.23828 2.71875V2.66406C3.0013 2.48177 2.60938 2.39062 2.0625 2.39062H1.92578ZM10.5391 2.71875V2.74609C10.5573 2.81901 10.6302 2.85547 10.7578 2.85547H10.8672C10.9401 2.85547 11.0039 2.81901 11.0586 2.74609C11.0586 2.63672 10.9492 2.58203 10.7305 2.58203C10.6576 2.61849 10.5938 2.66406 10.5391 2.71875ZM3.70312 2.63672L3.67578 2.66406V2.69141C3.67578 2.78255 3.99479 2.82812 4.63281 2.82812H5.61719C5.61719 2.71875 4.97917 2.65495 3.70312 2.63672ZM7.06641 2.85547H6.35547V2.91016L7.72266 3.12891L9.08984 3.01953V2.96484C8.74349 2.89193 8.06901 2.85547 7.06641 2.85547ZM1.37891 3.07422V3.12891C1.37891 3.27474 1.7526 3.34766 2.5 3.34766H3.62109V3.26562C3.62109 3.19271 3.22917 3.14714 2.44531 3.12891C2.44531 3.03776 2.21745 2.98307 1.76172 2.96484H1.65234C1.48828 2.96484 1.39714 3.0013 1.37891 3.07422ZM4.66016 3.26562H4.08594C4.08594 3.35677 4.32292 3.40234 4.79688 3.40234H4.87891C4.87891 3.3112 4.80599 3.26562 4.66016 3.26562ZM9.96484 3.62109L9.71875 3.8125C9.77344 4.06771 9.86458 4.19531 9.99219 4.19531C10.1198 4.04948 10.1836 3.92188 10.1836 3.8125V3.67578L10.1289 3.62109H9.96484ZM7.42188 4.00391L7.36719 4.08594V4.14062H7.53125L7.58594 4.08594V4.00391H7.42188ZM7.58594 4.60547V4.6875H7.64062C7.85938 4.6875 8.03255 4.52344 8.16016 4.19531L8.10547 4.16797H8.07812C7.75 4.25911 7.58594 4.40495 7.58594 4.60547ZM9.63672 4.55078H9.5V4.63281H9.58203L9.63672 4.60547V4.55078ZM9.36328 4.79688H9.30859V4.87891H9.36328V4.79688ZM7.72266 6.51953L7.69531 6.60156L7.75 6.68359C8.13281 6.59245 8.51562 6.28255 8.89844 5.75391L9.03516 5.39844L9.00781 5.37109H8.84375C8.625 5.37109 8.2513 5.75391 7.72266 6.51953ZM6.27344 6.57422H6.32812C6.60156 6.41016 6.73828 6.22786 6.73828 6.02734V6H6.68359C6.41016 6.07292 6.27344 6.26432 6.27344 6.57422ZM6.84766 6.46484V6.57422H6.92969C7.05729 6.46484 7.12109 6.36458 7.12109 6.27344L7.09375 6.24609C7.02083 6.28255 6.9388 6.35547 6.84766 6.46484ZM7.55859 6.875L7.47656 6.95703V7.09375H7.55859L7.61328 7.03906V6.875H7.55859ZM4.66016 7.83203V7.88672L4.71484 7.94141H4.96094L5.48047 7.53125L5.50781 7.36719V7.3125L5.45312 7.25781H5.39844C5.10677 7.33073 4.86068 7.52214 4.66016 7.83203ZM7.12109 8.73438V8.76172H7.14844L8.26953 8.40625C9.16276 8.4974 9.70052 8.57031 9.88281 8.625C9.97396 8.625 10.0286 8.58854 10.0469 8.51562H10.0742C10.5299 8.86198 10.8854 9.03516 11.1406 9.03516H11.25L11.2773 8.95312V8.92578C11.2773 8.72526 10.6484 8.47005 9.39062 8.16016C9.33594 8.16016 9.28125 8.08724 9.22656 7.94141L9.08984 7.83203H9.00781C8.57031 7.83203 8.11458 8.05078 7.64062 8.48828C7.3125 8.57943 7.13932 8.66146 7.12109 8.73438ZM6.62891 7.94141H6.60156V8.05078L6.62891 8.07812H6.73828V8.05078L6.62891 7.94141ZM4.27734 8.76172V8.84375H4.30469C4.54167 8.71615 4.71484 8.50651 4.82422 8.21484H4.76953C4.60547 8.30599 4.44141 8.48828 4.27734 8.76172ZM5.15234 8.84375V9.00781H5.26172C5.48047 9.00781 5.64453 8.83464 5.75391 8.48828L5.67188 8.40625C5.48958 8.47917 5.31641 8.625 5.15234 8.84375ZM5.37109 9.71875V9.74609H5.45312C6.67448 9.45443 7.28516 9.24479 7.28516 9.11719V9.08984H7.20312C6.61979 9.14453 6.00911 9.35417 5.37109 9.71875ZM4.08594 9.80078V9.88281L4.11328 9.91016V9.96484C4.71484 9.85547 5.17057 9.68229 5.48047 9.44531V9.41797L5.39844 9.30859C4.77865 9.4362 4.34115 9.60026 4.08594 9.80078ZM11.168 9.30859H10.8672V9.36328C10.9583 9.61849 11.0859 9.74609 11.25 9.74609H11.4414C11.6237 9.74609 11.7331 9.70052 11.7695 9.60938C11.6055 9.40885 11.4049 9.30859 11.168 9.30859ZM11.5508 10.0469L11.5234 10.1289V10.1562C11.5234 10.3021 11.6693 10.5755 11.9609 10.9766L11.9336 11.4961V12.125C11.9336 12.3255 11.9701 12.4349 12.043 12.4531H12.0977L12.1523 11.8516V10.8945C12.1523 10.5846 11.9883 10.3021 11.6602 10.0469H11.5508ZM3.62109 10.375V10.4023L3.67578 10.4844H3.92188C4.08594 10.4844 4.17708 10.4479 4.19531 10.375V10.293C4.15885 10.2018 4.08594 10.1562 3.97656 10.1562H3.92188C3.8125 10.1562 3.71224 10.2292 3.62109 10.375ZM10.375 10.375V10.293L10.5391 10.4844H10.4844L10.375 10.375ZM11.0312 11.0312H10.9766V11.0859L11.0312 11.168H11.0859V11.0859L11.0312 11.0312ZM10.8672 12.5352V12.6445L10.9219 12.7266C11.1406 12.362 11.25 12.043 11.25 11.7695V11.4414H11.168C10.9674 11.6784 10.8672 12.043 10.8672 12.5352ZM12.0977 12.7266L11.8242 13.2461C11.8424 13.319 11.888 13.3737 11.9609 13.4102H12.0156C12.1432 13.3555 12.207 13.237 12.207 13.0547C12.1888 12.8359 12.1523 12.7266 12.0977 12.7266ZM11.0312 14.0391V14.0938H11.1406L11.2773 13.9297V13.7656H11.1953C11.0859 13.8385 11.0312 13.9297 11.0312 14.0391ZM10.7852 14.9414L10.8672 14.9688L11.4141 14.6133V14.5586L11.332 14.5039H11.2773C11.1315 14.5039 10.9674 14.6497 10.7852 14.9414ZM9.60938 15.7891H9.71875C9.90104 15.7891 10.0924 15.6797 10.293 15.4609V15.4062L10.1836 15.1055L10.293 14.832C10.1289 14.832 9.96484 15.0417 9.80078 15.4609C9.67318 15.5885 9.60938 15.6979 9.60938 15.7891ZM11.5234 15.0234L11.4414 15.1055V15.1328H11.5508V15.0234H11.5234ZM10.5391 15.8984V15.9531L10.7305 15.9805H10.9219C11.1953 15.9622 11.332 15.8529 11.332 15.6523C11.2956 15.5612 11.2318 15.5156 11.1406 15.5156C10.9583 15.5156 10.7578 15.6432 10.5391 15.8984ZM6.27344 17.7031H6.35547C7.99609 17.0104 8.81641 16.5091 8.81641 16.1992H8.65234C8.26953 16.3451 7.61328 16.737 6.68359 17.375C6.41016 17.5573 6.27344 17.6667 6.27344 17.7031ZM10.5938 16.582V16.6094H10.7305C10.7852 16.6094 10.849 16.5273 10.9219 16.3633L10.8672 16.3086C10.6849 16.3633 10.5938 16.4544 10.5938 16.582ZM10.293 16.3633L10.1836 16.4727V16.5H10.3203L10.4023 16.4453L10.3203 16.3633H10.293ZM9.58203 17.457H9.60938C9.79167 17.457 10.0013 17.3659 10.2383 17.1836C10.2383 17.1289 10.2018 17.1016 10.1289 17.1016C9.76432 17.1927 9.58203 17.3112 9.58203 17.457ZM7.47656 17.9219V17.9766H7.53125C7.91406 17.8672 8.10547 17.7669 8.10547 17.6758V17.6484H8.07812C7.85938 17.6484 7.65885 17.7396 7.47656 17.9219ZM9.19922 17.8945L9.08984 17.9766V18.0586H9.28125L9.36328 17.9492V17.8945H9.19922ZM2.74609 18.7422L2.82812 18.8242H3.29297L3.40234 18.7422C3.40234 18.6875 3.30208 18.6602 3.10156 18.6602C2.86458 18.6602 2.74609 18.6875 2.74609 18.7422ZM5.26172 18.6602L5.20703 18.7422V18.8242C5.35286 18.8242 5.44401 18.7786 5.48047 18.6875V18.6602H5.26172ZM7.47656 19.0156L7.53125 19.0703H7.55859C7.90495 18.9609 8.1237 18.8607 8.21484 18.7695L8.16016 18.6602H7.99609C7.64974 18.7331 7.47656 18.8516 7.47656 19.0156ZM2.17188 18.8789L2.0625 18.9609V19.0156H2.33594L2.41797 18.9609L2.33594 18.8789H2.17188ZM4.38672 19.4531L3.42969 19.5352L2.82812 19.3984H2.60938C2.22656 19.4349 2.03516 19.5078 2.03516 19.6172V19.6445C2.03516 19.7357 2.61849 19.8177 3.78516 19.8906C4.27734 19.8906 5.01562 19.6901 6 19.2891L6.05469 19.2617V19.1523H6C5.78125 19.1523 5.24349 19.2526 4.38672 19.4531ZM28.0117 1.73438C28.4128 1.73438 29.2057 1.98047 30.3906 2.47266C31.9583 3.18359 32.7422 4.1862 32.7422 5.48047V6.4375C32.7422 7.07552 32.5234 7.75 32.0859 8.46094C31.849 9.35417 31.6393 9.80078 31.457 9.80078C30.7461 10.1289 30.3906 10.4206 30.3906 10.6758V10.9492C30.3906 11.5872 30.4635 12.2708 30.6094 13C30.5547 13.9661 30.4362 14.4492 30.2539 14.4492C30.1081 14.4492 29.7891 14.6133 29.2969 14.9414L28.9961 14.9688C28.6862 14.9688 28.5312 14.8047 28.5312 14.4766C28.2031 12.6172 28.0391 11.25 28.0391 10.375C28.0391 10.1927 28.4857 9.74609 29.3789 9.03516C29.8164 8.59766 30.0807 8.2513 30.1719 7.99609C30.3724 7.77734 30.4909 7.66797 30.5273 7.66797L30.7734 7.75C30.9375 7.75 31.0833 7.38542 31.2109 6.65625V6.57422L30.9375 6.08203V5.97266H30.9102L31.0195 5.69922V5.34375C31.0195 5.14323 30.8737 4.92448 30.582 4.6875C30.4362 4.32292 30.2083 4.14062 29.8984 4.14062C29.2969 3.92188 28.6315 3.8125 27.9023 3.8125H27.6289C26.6445 3.8125 25.724 4.46875 24.8672 5.78125L23.8008 7.14844V7.23047C23.4362 7.70443 23.0898 7.75911 22.7617 7.39453C22.4336 7.01172 22.2695 6.72917 22.2695 6.54688L22.5703 5.50781C22.7891 4.9974 23.181 4.50521 23.7461 4.03125C24.8398 3.13802 25.7695 2.5 26.5352 2.11719C26.9909 1.86198 27.4831 1.73438 28.0117 1.73438ZM26.5352 2.52734V2.58203H26.8359C27.3099 2.58203 27.7292 2.47266 28.0938 2.25391V2.17188L28.0117 2.11719H27.7383C27.319 2.11719 26.918 2.25391 26.5352 2.52734ZM29.1055 2.47266L28.9961 2.52734V2.58203C28.9961 2.63672 29.0599 2.66406 29.1875 2.66406C29.388 2.66406 29.4883 2.61849 29.4883 2.52734L29.4062 2.47266H29.1055ZM25.8789 3.01953L25.9609 3.10156L26.2891 2.99219V2.85547H26.2344C26.0521 2.85547 25.9336 2.91016 25.8789 3.01953ZM30.9102 3.15625L30.8828 3.21094C31.0104 3.46615 31.2565 3.66667 31.6211 3.8125H31.7578V3.78516C31.7578 3.65755 31.4753 3.44792 30.9102 3.15625ZM24.1289 4.19531C24.4753 4.19531 24.849 3.99479 25.25 3.59375C25.4505 3.5026 25.5508 3.4388 25.5508 3.40234V3.375L25.3594 3.21094H25.332C25.2409 3.21094 24.9036 3.41146 24.3203 3.8125C24.1927 3.86719 24.1289 3.99479 24.1289 4.19531ZM27.7109 3.21094H27.6289V3.26562H27.7109V3.21094ZM23.8008 4.44141L23.6914 4.60547V4.63281H23.7188C23.8099 4.59635 23.8555 4.53255 23.8555 4.44141H23.8008ZM32.2227 4.87891H32.168V4.90625C32.168 5.05208 32.2227 5.13411 32.332 5.15234H32.3594V5.125C32.3594 4.9974 32.3138 4.91536 32.2227 4.87891ZM24.4844 5.23438V5.28906H24.5391C24.6302 5.2526 24.694 5.17969 24.7305 5.07031V5.01562L24.6758 4.96094C24.5482 5.01562 24.4844 5.10677 24.4844 5.23438ZM22.9531 5.69922V5.75391L23.0625 5.78125C23.3177 5.63542 23.4453 5.47135 23.4453 5.28906V5.17969H23.3633C23.0898 5.36198 22.9531 5.53516 22.9531 5.69922ZM23.3633 6.35547L23.2812 6.38281V6.46484H23.3633L23.4453 6.38281V6.35547H23.3633ZM23.5 7.64062H23.5273V7.72266H23.5V7.64062ZM30.8555 7.91406H30.6914V8.05078H30.7734L30.8555 7.94141V7.91406ZM30.9102 9.19922V9.28125H30.9648C31.1471 9.28125 31.2474 9.22656 31.2656 9.11719L31.2109 9.08984H31.1836C31.0013 9.10807 30.9102 9.14453 30.9102 9.19922ZM28.7227 10.5664V10.6484C28.7227 11.0677 28.8503 11.2773 29.1055 11.2773C29.1237 11.2773 29.151 11.2044 29.1875 11.0586C29.1693 10.5117 29.1237 10.2383 29.0508 10.2383H28.9141C28.7865 10.2565 28.7227 10.3659 28.7227 10.5664ZM29.8438 11.1953L29.7891 11.2773H29.8984V11.1953H29.8438ZM28.9961 11.6055L28.9141 11.7148V11.7695C28.9141 11.9336 28.9779 12.0247 29.1055 12.043H29.1602L29.1875 11.8789C29.1875 11.7695 29.1237 11.6784 28.9961 11.6055ZM29.2969 13.4922L29.1602 13.6562L29.2695 13.9844L29.1602 14.4492H29.3242C29.4518 14.4492 29.5612 14.3763 29.6523 14.2305V14.1211C29.5794 14.0664 29.543 13.8932 29.543 13.6016L29.4062 13.4922H29.2969ZM29.6797 16.418C29.9896 16.418 30.4818 16.6094 31.1562 16.9922C31.4297 17.0651 31.5664 17.1289 31.5664 17.1836C31.5664 17.2565 31.4023 17.3203 31.0742 17.375V17.4023V17.457L31.2109 17.9219C31.5391 18.7422 31.3477 19.3984 30.6367 19.8906C29.4883 19.9089 28.7135 19.3529 28.3125 18.2227L28.2031 17.8125C28.2031 17.4115 28.6953 16.9466 29.6797 16.418ZM29.6797 16.8828H29.4883V16.9102C29.5612 17.0195 29.8438 17.138 30.3359 17.2656L30.3906 17.2109V17.1562C30.2266 16.974 29.9896 16.8828 29.6797 16.8828ZM29.2969 18.0586C29.2969 18.0768 29.3789 18.1315 29.543 18.2227C29.5794 18.332 29.6159 18.3867 29.6523 18.3867H29.6797L30.0078 17.9766C30.0078 17.8672 29.9531 17.7852 29.8438 17.7305H29.4062C29.3333 17.7487 29.2969 17.8581 29.2969 18.0586ZM42.1211 1.05078L42.2031 0.996094C43.2057 1.10547 44.9375 1.2513 47.3984 1.43359C47.7083 1.57943 49.0573 1.77083 51.4453 2.00781C52.375 2.22656 52.8398 2.47266 52.8398 2.74609C52.7669 3.0013 52.4661 3.44792 51.9375 4.08594C51.9375 4.14062 51.5182 4.69661 50.6797 5.75391C50.6797 5.91797 50.1875 6.44661 49.2031 7.33984L48.9023 7.75V7.83203C49.1758 7.83203 49.7682 7.74089 50.6797 7.55859C50.9896 7.55859 51.7643 7.93229 53.0039 8.67969C53.332 9.04427 53.6602 9.75521 53.9883 10.8125V11.1133C53.9883 13.5378 53.7786 15.0417 53.3594 15.625C53.013 16.6276 52.0651 17.6667 50.5156 18.7422C49.5677 19.1979 48.1823 19.6263 46.3594 20.0273C46.1406 20.1003 45.776 20.1367 45.2656 20.1367H45.0742L44.9102 20.1914C44.0716 20.1914 43.3698 20 42.8047 19.6172V19.5352C42.8594 19.4987 43.0417 19.125 43.3516 18.4141H43.4062H43.9805H44.2812C45.8307 18.4141 47.0156 18.0039 47.8359 17.1836L50.1875 15.6797C51.0807 14.8776 51.5729 14.3034 51.6641 13.957C52.0286 13.3737 52.2109 12.4167 52.2109 11.0859C52.1927 10.9036 52.1654 10.8125 52.1289 10.8125L52.2109 10.5938C52.2109 10.2292 52.0286 9.9375 51.6641 9.71875C51.5182 9.35417 51.2357 9.17188 50.8164 9.17188H50.1328C49.7682 9.17188 49.5859 9.21745 49.5859 9.30859V9.36328C50.3333 9.36328 50.9167 9.54557 51.3359 9.91016V9.96484L51.2539 10.0195C51.0898 10.0195 50.862 9.89193 50.5703 9.63672L50.3242 9.60938C48.957 9.60938 47.2891 10.0742 45.3203 11.0039L45.0469 11.168L44.9102 11.1133V10.8945C44.9102 10.7669 44.819 10.612 44.6367 10.4297V10.4023C44.6367 10.3477 44.8464 9.85547 45.2656 8.92578C45.3385 8.61589 45.5026 8.30599 45.7578 7.99609L46.8789 6.30078C47.2982 5.38932 47.6992 4.83333 48.082 4.63281C48.2461 4.45052 48.3281 4.27734 48.3281 4.11328V4.03125C48.1276 3.88542 47.9544 3.8125 47.8086 3.8125L42.6953 3.70312C42.5312 3.70312 42.431 3.54818 42.3945 3.23828V3.12891L42.4219 3.01953V2.91016C42.3672 2.76432 42.2669 2.14453 42.1211 1.05078ZM43.2422 1.35156L43.1328 1.46094V1.73438H43.1875H43.543H43.5977L44.2812 1.78906L44.3906 1.67969C44.0625 1.46094 43.6797 1.35156 43.2422 1.35156ZM42.4766 1.78906C42.513 1.88021 42.5859 1.92578 42.6953 1.92578L42.75 1.84375V1.78906L42.668 1.67969H42.5586C42.5039 1.67969 42.4766 1.71615 42.4766 1.78906ZM45.9219 1.87109H45.8398V1.92578H45.8672L45.9219 1.87109ZM51.1172 2.22656H50.5156C50.5156 2.33594 50.6888 2.39974 51.0352 2.41797H51.0898L51.1992 2.33594V2.30859L51.1172 2.22656ZM44.8281 2.39062C45.7943 2.5 46.8607 2.55469 48.0273 2.55469H48.3555C48.3555 2.42708 47.6901 2.33594 46.3594 2.28125H45.6211C45.0924 2.28125 44.8281 2.31771 44.8281 2.39062ZM43.4062 2.39062L43.2969 2.41797C43.2969 2.58203 43.7526 2.69141 44.6641 2.74609L44.7188 2.71875V2.66406C44.4818 2.48177 44.0898 2.39062 43.543 2.39062H43.4062ZM52.0195 2.71875V2.74609C52.0378 2.81901 52.1107 2.85547 52.2383 2.85547H52.3477C52.4206 2.85547 52.4844 2.81901 52.5391 2.74609C52.5391 2.63672 52.4297 2.58203 52.2109 2.58203C52.138 2.61849 52.0742 2.66406 52.0195 2.71875ZM45.1836 2.63672L45.1562 2.66406V2.69141C45.1562 2.78255 45.4753 2.82812 46.1133 2.82812H47.0977C47.0977 2.71875 46.4596 2.65495 45.1836 2.63672ZM48.5469 2.85547H47.8359V2.91016L49.2031 3.12891L50.5703 3.01953V2.96484C50.224 2.89193 49.5495 2.85547 48.5469 2.85547ZM42.8594 3.07422V3.12891C42.8594 3.27474 43.2331 3.34766 43.9805 3.34766H45.1016V3.26562C45.1016 3.19271 44.7096 3.14714 43.9258 3.12891C43.9258 3.03776 43.6979 2.98307 43.2422 2.96484H43.1328C42.9688 2.96484 42.8776 3.0013 42.8594 3.07422ZM46.1406 3.26562H45.5664C45.5664 3.35677 45.8034 3.40234 46.2773 3.40234H46.3594C46.3594 3.3112 46.2865 3.26562 46.1406 3.26562ZM51.4453 3.62109L51.1992 3.8125C51.2539 4.06771 51.3451 4.19531 51.4727 4.19531C51.6003 4.04948 51.6641 3.92188 51.6641 3.8125V3.67578L51.6094 3.62109H51.4453ZM48.9023 4.00391L48.8477 4.08594V4.14062H49.0117L49.0664 4.08594V4.00391H48.9023ZM49.0664 4.60547V4.6875H49.1211C49.3398 4.6875 49.513 4.52344 49.6406 4.19531L49.5859 4.16797H49.5586C49.2305 4.25911 49.0664 4.40495 49.0664 4.60547ZM51.1172 4.55078H50.9805V4.63281H51.0625L51.1172 4.60547V4.55078ZM50.8438 4.79688H50.7891V4.87891H50.8438V4.79688ZM49.2031 6.51953L49.1758 6.60156L49.2305 6.68359C49.6133 6.59245 49.9961 6.28255 50.3789 5.75391L50.5156 5.39844L50.4883 5.37109H50.3242C50.1055 5.37109 49.7318 5.75391 49.2031 6.51953ZM47.7539 6.57422H47.8086C48.082 6.41016 48.2188 6.22786 48.2188 6.02734V6H48.1641C47.8906 6.07292 47.7539 6.26432 47.7539 6.57422ZM48.3281 6.46484V6.57422H48.4102C48.5378 6.46484 48.6016 6.36458 48.6016 6.27344L48.5742 6.24609C48.5013 6.28255 48.4193 6.35547 48.3281 6.46484ZM49.0391 6.875L48.957 6.95703V7.09375H49.0391L49.0938 7.03906V6.875H49.0391ZM46.1406 7.83203V7.88672L46.1953 7.94141H46.4414L46.9609 7.53125L46.9883 7.36719V7.3125L46.9336 7.25781H46.8789C46.5872 7.33073 46.3411 7.52214 46.1406 7.83203ZM48.6016 8.73438V8.76172H48.6289L49.75 8.40625C50.6432 8.4974 51.181 8.57031 51.3633 8.625C51.4544 8.625 51.5091 8.58854 51.5273 8.51562H51.5547C52.0104 8.86198 52.3659 9.03516 52.6211 9.03516H52.7305L52.7578 8.95312V8.92578C52.7578 8.72526 52.1289 8.47005 50.8711 8.16016C50.8164 8.16016 50.7617 8.08724 50.707 7.94141L50.5703 7.83203H50.4883C50.0508 7.83203 49.5951 8.05078 49.1211 8.48828C48.793 8.57943 48.6198 8.66146 48.6016 8.73438ZM48.1094 7.94141H48.082V8.05078L48.1094 8.07812H48.2188V8.05078L48.1094 7.94141ZM45.7578 8.76172V8.84375H45.7852C46.0221 8.71615 46.1953 8.50651 46.3047 8.21484H46.25C46.0859 8.30599 45.9219 8.48828 45.7578 8.76172ZM46.6328 8.84375V9.00781H46.7422C46.9609 9.00781 47.125 8.83464 47.2344 8.48828L47.1523 8.40625C46.9701 8.47917 46.7969 8.625 46.6328 8.84375ZM46.8516 9.71875V9.74609H46.9336C48.1549 9.45443 48.7656 9.24479 48.7656 9.11719V9.08984H48.6836C48.1003 9.14453 47.4896 9.35417 46.8516 9.71875ZM45.5664 9.80078V9.88281L45.5938 9.91016V9.96484C46.1953 9.85547 46.651 9.68229 46.9609 9.44531V9.41797L46.8789 9.30859C46.2591 9.4362 45.8216 9.60026 45.5664 9.80078ZM52.6484 9.30859H52.3477V9.36328C52.4388 9.61849 52.5664 9.74609 52.7305 9.74609H52.9219C53.1042 9.74609 53.2135 9.70052 53.25 9.60938C53.0859 9.40885 52.8854 9.30859 52.6484 9.30859ZM53.0312 10.0469L53.0039 10.1289V10.1562C53.0039 10.3021 53.1497 10.5755 53.4414 10.9766L53.4141 11.4961V12.125C53.4141 12.3255 53.4505 12.4349 53.5234 12.4531H53.5781L53.6328 11.8516V10.8945C53.6328 10.5846 53.4688 10.3021 53.1406 10.0469H53.0312ZM45.1016 10.375V10.4023L45.1562 10.4844H45.4023C45.5664 10.4844 45.6576 10.4479 45.6758 10.375V10.293C45.6393 10.2018 45.5664 10.1562 45.457 10.1562H45.4023C45.293 10.1562 45.1927 10.2292 45.1016 10.375ZM51.8555 10.375V10.293L52.0195 10.4844H51.9648L51.8555 10.375ZM52.5117 11.0312H52.457V11.0859L52.5117 11.168H52.5664V11.0859L52.5117 11.0312ZM52.3477 12.5352V12.6445L52.4023 12.7266C52.6211 12.362 52.7305 12.043 52.7305 11.7695V11.4414H52.6484C52.4479 11.6784 52.3477 12.043 52.3477 12.5352ZM53.5781 12.7266L53.3047 13.2461C53.3229 13.319 53.3685 13.3737 53.4414 13.4102H53.4961C53.6237 13.3555 53.6875 13.237 53.6875 13.0547C53.6693 12.8359 53.6328 12.7266 53.5781 12.7266ZM52.5117 14.0391V14.0938H52.6211L52.7578 13.9297V13.7656H52.6758C52.5664 13.8385 52.5117 13.9297 52.5117 14.0391ZM52.2656 14.9414L52.3477 14.9688L52.8945 14.6133V14.5586L52.8125 14.5039H52.7578C52.612 14.5039 52.4479 14.6497 52.2656 14.9414ZM51.0898 15.7891H51.1992C51.3815 15.7891 51.5729 15.6797 51.7734 15.4609V15.4062L51.6641 15.1055L51.7734 14.832C51.6094 14.832 51.4453 15.0417 51.2812 15.4609C51.1536 15.5885 51.0898 15.6979 51.0898 15.7891ZM53.0039 15.0234L52.9219 15.1055V15.1328H53.0312V15.0234H53.0039ZM52.0195 15.8984V15.9531L52.2109 15.9805H52.4023C52.6758 15.9622 52.8125 15.8529 52.8125 15.6523C52.776 15.5612 52.7122 15.5156 52.6211 15.5156C52.4388 15.5156 52.2383 15.6432 52.0195 15.8984ZM47.7539 17.7031H47.8359C49.4766 17.0104 50.2969 16.5091 50.2969 16.1992H50.1328C49.75 16.3451 49.0938 16.737 48.1641 17.375C47.8906 17.5573 47.7539 17.6667 47.7539 17.7031ZM52.0742 16.582V16.6094H52.2109C52.2656 16.6094 52.3294 16.5273 52.4023 16.3633L52.3477 16.3086C52.1654 16.3633 52.0742 16.4544 52.0742 16.582ZM51.7734 16.3633L51.6641 16.4727V16.5H51.8008L51.8828 16.4453L51.8008 16.3633H51.7734ZM51.0625 17.457H51.0898C51.2721 17.457 51.4818 17.3659 51.7188 17.1836C51.7188 17.1289 51.6823 17.1016 51.6094 17.1016C51.2448 17.1927 51.0625 17.3112 51.0625 17.457ZM48.957 17.9219V17.9766H49.0117C49.3945 17.8672 49.5859 17.7669 49.5859 17.6758V17.6484H49.5586C49.3398 17.6484 49.1393 17.7396 48.957 17.9219ZM50.6797 17.8945L50.5703 17.9766V18.0586H50.7617L50.8438 17.9492V17.8945H50.6797ZM44.2266 18.7422L44.3086 18.8242H44.7734L44.8828 18.7422C44.8828 18.6875 44.7826 18.6602 44.582 18.6602C44.3451 18.6602 44.2266 18.6875 44.2266 18.7422ZM46.7422 18.6602L46.6875 18.7422V18.8242C46.8333 18.8242 46.9245 18.7786 46.9609 18.6875V18.6602H46.7422ZM48.957 19.0156L49.0117 19.0703H49.0391C49.3854 18.9609 49.6042 18.8607 49.6953 18.7695L49.6406 18.6602H49.4766C49.1302 18.7331 48.957 18.8516 48.957 19.0156ZM43.6523 18.8789L43.543 18.9609V19.0156H43.8164L43.8984 18.9609L43.8164 18.8789H43.6523ZM45.8672 19.4531L44.9102 19.5352L44.3086 19.3984H44.0898C43.707 19.4349 43.5156 19.5078 43.5156 19.6172V19.6445C43.5156 19.7357 44.099 19.8177 45.2656 19.8906C45.7578 19.8906 46.4961 19.6901 47.4805 19.2891L47.5352 19.2617V19.1523H47.4805C47.2617 19.1523 46.724 19.2526 45.8672 19.4531ZM73.3203 13.9844L73.4297 14.0117C73.5391 14.0482 73.5299 14.7773 73.4023 16.1992H73.4297C73.4115 16.3815 72.4727 16.3815 70.6133 16.1992C68.5352 16.3268 67.1771 16.3359 66.5391 16.2266V16.1992C66.5573 16.0352 67.3503 15.9714 68.918 16.0078C69.556 15.9896 69.8932 15.9349 69.9297 15.8438L69.957 15.8164L69.6836 15.7617C67.5326 15.5794 66.4206 15.707 66.3477 16.1445L66.1289 16.1992C65.5091 16.1263 65.2995 15.4427 65.5 14.1484C65.5547 13.8203 66.293 13.6836 67.7148 13.7383C67.7148 13.7018 67.8151 13.7018 68.0156 13.7383L68.5352 13.9297L68.7812 13.957L73.3203 13.9844ZM72.6914 14.3398L72.5273 14.3672L72.5 14.4492L72.7461 14.4766H72.9102L72.9375 14.3945L72.6914 14.3398ZM71.2695 14.4766L71.625 14.5312C71.7891 14.5677 71.8984 14.5404 71.9531 14.4492V14.4219H71.8711C71.4883 14.4036 71.2878 14.4219 71.2695 14.4766ZM69.793 14.4766V14.5586H69.8477C70.0117 14.5951 70.112 14.5677 70.1484 14.4766V14.4492H70.0391C69.9115 14.431 69.8294 14.4401 69.793 14.4766ZM71.4883 15.0781L72.0625 15.1875C72.6641 15.2422 73.0013 15.2057 73.0742 15.0781V15.0234L72.9375 14.9688C72.0078 14.9505 71.5247 14.987 71.4883 15.0781ZM68.4805 14.5312L68.4531 14.6406H68.5078C68.9089 14.6953 69.2096 14.6589 69.4102 14.5312V14.5039L69.3555 14.4766C69.1914 14.4583 68.8997 14.4766 68.4805 14.5312ZM66.0469 14.1484L65.9648 14.2305L65.8828 14.5586L65.9648 14.6406V14.668C66.0195 14.668 66.0924 14.5586 66.1836 14.3398V14.2305L66.1562 14.1484H66.0469ZM66.8945 14.2578L66.7578 14.3672L66.7305 14.3945L66.8945 14.4219L66.9492 14.3672L66.9766 14.2852L66.8945 14.2578ZM70.9688 15.0234H70.8867V15.0781L71.0508 15.1328L70.9688 15.0234ZM70.5039 15.7891V15.8164H70.5312C72.1354 16.0169 72.9557 16.0716 72.9922 15.9805V15.9531C72.9922 15.8984 72.9466 15.8255 72.8555 15.7344H72.8281C72.263 15.6615 71.4883 15.6797 70.5039 15.7891ZM65.9102 14.8867L65.8281 14.9414V15.0234H65.8828L65.9648 14.9688V14.9141L65.9102 14.8867ZM73.5391 10.5938L73.6484 10.6211C73.7943 10.6393 73.7122 11.3503 73.4023 12.7539L73.4297 12.7812C73.375 12.9635 72.4453 12.8906 70.6406 12.5625C68.5625 12.4531 67.1953 12.3255 66.5391 12.1797L66.5664 12.0977C66.6211 11.9518 67.4049 11.9792 68.918 12.1797C69.5924 12.2161 69.9479 12.1888 69.9844 12.0977V12.0703L69.7383 12.0156C67.6055 11.5964 66.4844 11.6055 66.375 12.043L66.1562 12.0977C65.5547 11.9518 65.418 11.2591 65.7461 10.0195C65.819 9.69141 66.5664 9.61849 67.9883 9.80078C68.0065 9.78255 68.1068 9.78255 68.2891 9.80078L68.7812 10.0469L69 10.1016L73.5391 10.5938ZM72.8555 10.8945H72.6914L72.6641 10.9492L72.9102 11.0312H73.1016V10.9766L72.8555 10.8945ZM71.4609 10.8945L71.7891 10.9766C71.9714 11.013 72.0807 10.9857 72.1172 10.8945L72.0625 10.8672C71.6615 10.8125 71.4609 10.8216 71.4609 10.8945ZM69.9844 10.7578V10.8125C70.1667 10.8672 70.2852 10.8581 70.3398 10.7852L70.3672 10.7305L70.2031 10.7031C70.0938 10.6849 70.0208 10.7031 69.9844 10.7578ZM71.625 11.4961L72.1719 11.6328C72.737 11.7604 73.0651 11.7695 73.1562 11.6602L73.1836 11.5781L73.0742 11.5234C72.1445 11.4141 71.6615 11.4049 71.625 11.4961ZM68.6719 10.6484L68.6445 10.7578L68.6719 10.7852C69 10.8581 69.3099 10.849 69.6016 10.7578V10.7305L69.5469 10.7031C69.3281 10.6484 69.0365 10.6302 68.6719 10.6484ZM66.293 10.0469L66.1836 10.1016L66.0742 10.457L66.1562 10.5391C66.2109 10.5391 66.293 10.4388 66.4023 10.2383L66.4297 10.1289L66.3477 10.0469H66.293ZM67.1133 10.2383L66.9492 10.293V10.3477L67.1133 10.4023L67.1953 10.3203V10.293L67.1133 10.2383ZM71.1055 11.3867H71.0508L71.0234 11.4414L71.1602 11.4961L71.1055 11.3867ZM70.5859 12.0977L70.5586 12.1523H70.5859C72.1719 12.5169 72.9831 12.6445 73.0195 12.5352L73.0469 12.5078C73.0469 12.4349 72.9922 12.3529 72.8828 12.2617H72.8555C72.2904 12.1341 71.5339 12.0794 70.5859 12.0977ZM66.0742 10.7852H65.9648V10.8945H66.0469L66.1289 10.8398L66.1562 10.7852H66.0742Z" fill="black"/>
</svg>
