<svg width="84" height="23" viewBox="0 0 84 23" fill="none" xmlns="http://www.w3.org/2000/svg">
<path d="M4.86133 0.273438C5.90039 0.382812 6.41992 0.53776 6.41992 0.738281C6.41992 0.920573 6.48372 1.01172 6.61133 1.01172L6.69336 1.09375L6.39258 1.33984V1.44922H6.47461C6.56576 1.33984 6.63867 1.28516 6.69336 1.28516C6.78451 1.28516 6.83008 1.39453 6.83008 1.61328L7.07617 9.10547C6.89388 9.88932 6.80273 11.4388 6.80273 13.7539V13.8633C6.80273 15.2669 6.83919 16.1784 6.91211 16.5977C6.76628 16.6523 6.69336 16.7708 6.69336 16.9531C6.69336 17.1901 6.73893 17.3086 6.83008 17.3086H6.91211V17.1172H6.9668C7.05794 17.1172 7.14909 17.5456 7.24023 18.4023L7.18555 18.4297H7.07617C6.93034 18.2656 6.80273 18.1836 6.69336 18.1836V18.2383V18.3477C6.69336 18.6211 6.93034 18.7578 7.4043 18.7578C10.1204 18.612 11.4785 18.6211 11.4785 18.7852V18.8125C11.4785 18.849 11.3418 18.9128 11.0684 19.0039L11.041 19.0586V19.0859C11.0775 19.1224 11.2415 19.1862 11.5332 19.2773C11.6061 19.3503 11.6426 19.4505 11.6426 19.5781C11.4603 20.5807 11.2415 21.082 10.9863 21.082L10.4668 21.1367L9.04492 20.9727L8.16992 21.0273C3.28451 21.1003 0.841797 21.0456 0.841797 20.8633C0.695964 20.6628 0.623047 20.5169 0.623047 20.4258V20.3984L0.896484 19.4688L0.787109 19.2773C0.787109 19.0039 0.978516 18.8216 1.36133 18.7305L1.68945 18.6484L4.25977 18.5664C4.47852 18.5664 4.60612 18.4297 4.64258 18.1562V17.8828C4.64258 16.388 4.58789 15.1302 4.47852 14.1094C4.64258 8.71354 4.81576 6.01562 4.99805 6.01562L5.02539 5.66016C4.95247 4.11068 4.82487 3.33594 4.64258 3.33594C3.84049 3.86458 3.30273 4.38411 3.0293 4.89453L2.86523 4.97656C1.82617 4.59375 1.16081 4.22917 0.869141 3.88281C0.832682 3.88281 0.796224 3.75521 0.759766 3.5L0.814453 3.41797L1.00586 3.44531H1.19727C1.56185 3.44531 2.3457 2.81641 3.54883 1.55859C3.91341 1.23047 4.20508 0.856771 4.42383 0.4375C4.60612 0.328125 4.75195 0.273438 4.86133 0.273438ZM5.18945 1.20312V1.23047L5.2168 1.28516H5.27148C5.43555 1.28516 5.52669 1.25781 5.54492 1.20312V1.17578L5.46289 1.09375H5.38086C5.25326 1.11198 5.18945 1.14844 5.18945 1.20312ZM4.36914 1.20312L4.25977 1.28516L4.3418 1.36719H4.42383L4.58789 1.33984V1.25781L4.50586 1.20312H4.36914ZM6.47461 1.77734L6.41992 1.85938V1.94141L6.47461 1.96875L6.55664 1.94141V1.85938L6.47461 1.77734ZM2.42773 4.04688V4.12891H2.45508C2.72852 4.12891 3.01107 3.95573 3.30273 3.60938C4.28711 2.69792 4.7793 2.14193 4.7793 1.94141H4.69727C3.67643 2.79818 2.91992 3.5 2.42773 4.04688ZM5.73633 2.70703V2.73438L5.87305 2.84375L5.95508 2.81641V2.54297L5.92773 2.48828V2.46094C5.80013 2.47917 5.73633 2.5612 5.73633 2.70703ZM5.62695 2.70703H5.51758L5.32617 3.17188V3.30859L5.43555 3.41797H5.59961C5.70898 3.41797 5.77279 3.38151 5.79102 3.30859V3.22656C5.79102 3.17188 5.69987 3.10807 5.51758 3.03516H5.46289V2.92578C5.57227 2.83464 5.62695 2.76172 5.62695 2.70703ZM1.88086 3.66406V3.71875H1.99023C2.19076 3.71875 2.36393 3.58203 2.50977 3.30859L2.48242 3.25391H2.45508C2.19987 3.36328 2.00846 3.5 1.88086 3.66406ZM5.92773 4.64844L6.00977 6.53516H6.06445C6.17383 6.22526 6.22852 5.77865 6.22852 5.19531V4.40234C6.22852 3.80078 6.19206 3.5 6.11914 3.5C6.00977 3.5 5.94596 3.88281 5.92773 4.64844ZM5.92773 8.77734V9.07812L6.00977 9.59766H6.06445C6.21029 9.59766 6.2832 9.06901 6.2832 8.01172V7.84766L6.20117 7.76562C6.01888 7.83854 5.92773 8.17578 5.92773 8.77734ZM5.13477 13.7812H5.05273V13.918H5.13477V13.7812ZM6.00977 15.9688V15.9961V16.1875L6.11914 16.2695H6.17383L6.22852 16.2148V16.1328C6.19206 16.1328 6.11914 16.0781 6.00977 15.9688ZM6.20117 16.8164H6.17383C6.06445 17.1263 6.00977 17.5091 6.00977 17.9648V18.1836C6.00977 18.4023 6.10091 18.5482 6.2832 18.6211H6.33789C6.39258 18.6211 6.41992 18.5664 6.41992 18.457C6.40169 17.3633 6.32878 16.8164 6.20117 16.8164ZM5.05273 17.5L4.94336 17.6641L4.99805 17.7734H5.02539L5.13477 17.6641V17.6094L5.05273 17.5ZM5.51758 17.9648L5.43555 18.0469V18.2383L5.51758 18.3203H5.59961V18.0469L5.51758 17.9648ZM2.04492 18.9219H1.79883V18.9766L1.9082 19.0859H1.96289L2.04492 18.9766V18.9219ZM1.99023 19.5781L1.22461 19.6602V19.7695L1.30664 19.8789H1.36133C1.54362 19.8789 1.75326 19.7786 1.99023 19.5781ZM7.29492 19.4688V19.5781L9.1543 19.2773H9.31836V19.168C8.89909 19.1133 8.22461 19.2135 7.29492 19.4688ZM2.86523 19.7695L2.26367 19.8516V19.9609H2.42773H2.67383C3.12956 19.9609 3.35742 19.9245 3.35742 19.8516L3.27539 19.7695H2.86523ZM5.02539 19.7148L4.99805 19.7695V19.7969C5.07096 19.8698 5.14388 19.9062 5.2168 19.9062V19.8516C5.18034 19.7604 5.11654 19.7148 5.02539 19.7148ZM4.5332 19.7695L4.47852 19.8516L4.5332 19.9062H4.64258L4.72461 19.8516V19.7695H4.5332ZM5.59961 19.9062L5.46289 19.9883V20.043C5.46289 20.1159 5.74544 20.1523 6.31055 20.1523H6.33789C6.48372 20.1523 6.55664 20.0977 6.55664 19.9883C6.48372 19.9336 6.40169 19.9062 6.31055 19.9062H5.59961ZM10.7402 20.1797V20.2891L10.8496 20.3984C11.0501 20.3984 11.1504 20.2526 11.1504 19.9609V19.7422L11.0957 19.6602H10.9863C10.8223 19.7878 10.7402 19.9609 10.7402 20.1797ZM7.07617 20.207C6.9668 20.3893 6.77539 20.4805 6.50195 20.4805V20.5352C6.50195 20.6081 6.78451 20.6536 7.34961 20.6719H7.4043C7.73242 20.4167 7.96029 20.1979 8.08789 20.0156C8.06966 19.9609 7.98763 19.9518 7.8418 19.9883C7.69596 20.0065 7.44076 20.0794 7.07617 20.207ZM9.04492 19.9609L8.44336 20.0156V20.0703C8.44336 20.125 8.70768 20.1523 9.23633 20.1523L9.26367 20.125V20.0977C9.22721 20.0065 9.1543 19.9609 9.04492 19.9609ZM9.67383 19.9609L9.5918 20.0156L9.61914 20.125H9.67383L9.75586 20.0703V20.0156L9.67383 19.9609ZM8.38867 20.3438H8.2793V20.3984H8.38867V20.3438ZM10.2754 20.7539V20.7812C10.2754 20.8177 10.3574 20.8542 10.5215 20.8906C10.7038 20.8724 10.7949 20.8268 10.7949 20.7539V20.6992L10.6855 20.6172H10.5762C10.4121 20.6172 10.3118 20.6628 10.2754 20.7539ZM15.1426 1.85938V1.50391V1.47656C16.1452 1.58594 16.6465 1.74089 16.6465 1.94141C16.4824 2.94401 16.1634 5.55078 15.6895 9.76172C15.5801 10.6732 15.4251 11.3659 15.2246 11.8398C14.7689 12.4596 14.4863 13.2435 14.377 14.1914C14.5046 14.2826 15.2428 14.3828 16.5918 14.4922C17.0293 14.6562 17.3665 14.7383 17.6035 14.7383H17.9043L19.2988 14.6016H19.9277V14.5742C19.8184 13.4622 19.7272 11.3385 19.6543 8.20312C19.5814 7.80208 19.4993 7.57422 19.4082 7.51953C19.4082 7.42839 19.709 7.33724 20.3105 7.24609C20.3105 7.19141 20.3926 7.15495 20.5566 7.13672C20.7936 7.13672 20.9395 7.22786 20.9941 7.41016L20.8301 7.84766C21.1582 8.3763 21.3223 10.0716 21.3223 12.9336C21.3223 13.9544 21.3952 14.4648 21.541 14.4648H21.623C22.334 14.4648 22.8079 14.3919 23.0449 14.2461L23.2363 14.3555L23.209 14.6016V14.8203L23.3184 15.0117L23.291 15.2852C23.291 15.832 23.0905 16.1693 22.6895 16.2969C22.2884 16.4062 22.0879 16.5156 22.0879 16.625H21.623C21.5684 16.625 21.541 16.6523 21.541 16.707C21.6868 17.9648 21.7598 19.1406 21.7598 20.2344C21.8509 20.6354 21.8965 21.0456 21.8965 21.4648L22.1152 21.5742V21.6289C22.1152 21.7565 21.541 22.0026 20.3926 22.3672C20.2467 22.2396 20.0553 22.1758 19.8184 22.1758L19.7637 22.1211C19.9642 20.7721 20.0645 19.7878 20.0645 19.168C20.0645 17.3086 19.946 16.3789 19.709 16.3789L18.5605 16.3242H16.2363L15.416 16.4062C12.791 16.3698 11.4785 16.2422 11.4785 16.0234C11.4238 16.0234 11.3965 16.0052 11.3965 15.9688C11.9798 15.4219 12.2715 15.0117 12.2715 14.7383C12.5449 14.1003 12.6816 13.444 12.6816 12.7695C13.1738 11.4023 13.5293 9.50651 13.748 7.08203C13.748 6.77214 13.9395 5.48698 14.3223 3.22656C14.3223 2.91667 14.4134 2.48828 14.5957 1.94141H14.623C14.7324 2.05078 14.8327 2.10547 14.9238 2.10547H15.0605L15.1426 1.99609V1.85938ZM14.9512 3.11719V3.17188C14.9694 3.40885 15.0059 3.52734 15.0605 3.52734H15.1152V3.41797C15.1152 3.32682 15.1882 3.15365 15.334 2.89844L15.416 2.46094V2.43359L15.3887 2.35156H15.2793C15.0605 2.35156 14.9512 2.60677 14.9512 3.11719ZM15.5527 4.42969V4.51172L15.6348 4.59375C15.7077 4.53906 15.7441 4.45703 15.7441 4.34766V4.12891H15.7168C15.6621 4.12891 15.6074 4.22917 15.5527 4.42969ZM14.0488 7.16406V7.19141L14.1582 7.27344H14.1855L14.377 7.24609V7.08203L14.2676 6.86328L14.459 5.90625H14.4316C14.1764 6.45312 14.0488 6.8724 14.0488 7.16406ZM15.1426 9.625V9.78906H15.2246C15.334 9.7526 15.3887 9.67057 15.3887 9.54297V9.35156H15.2793C15.1882 9.40625 15.1426 9.4974 15.1426 9.625ZM14.0488 11.9766V12.0039C14.2676 12.0039 14.377 11.8581 14.377 11.5664V11.4297L14.3496 11.4023V11.375C14.222 11.375 14.1217 11.5755 14.0488 11.9766ZM20.3379 11.5391L20.2559 11.4844V11.5117V11.7031H20.3379V11.5391ZM14.1035 12.1133H13.9395V12.25H14.0488L14.1035 12.168V12.1133ZM20.2559 12.2773V12.6602C20.2559 12.7878 20.2832 12.8516 20.3379 12.8516L20.3926 12.7695V12.5781C20.3926 12.4141 20.347 12.3138 20.2559 12.2773ZM13.5566 13.6172L13.4746 13.6719V13.7266H13.5566L13.6387 13.6445V13.6172H13.5566ZM13.1465 14.7383L13.2285 14.8477H13.3105L13.7207 14.7656V14.7383C13.6842 14.6471 13.6022 14.6016 13.4746 14.6016H13.3652C13.2559 14.6016 13.1829 14.6471 13.1465 14.7383ZM22.7441 14.7383L21.9512 14.8203V14.875C22.0059 14.9479 22.1973 15.0026 22.5254 15.0391C22.6712 15.0391 22.7806 14.9753 22.8535 14.8477V14.7656C22.8535 14.7474 22.8171 14.7383 22.7441 14.7383ZM14.5957 14.875L14.6504 14.957L15.2793 14.875V14.8477C15.2793 14.7747 15.1335 14.7383 14.8418 14.7383C14.6777 14.7565 14.5957 14.8021 14.5957 14.875ZM16.2637 15.6133C16.6647 15.7227 17.722 15.7773 19.4355 15.7773C19.7272 15.7773 19.9277 15.6953 20.0371 15.5312C20.0371 15.513 19.8822 15.4857 19.5723 15.4492C17.3665 15.4674 16.2637 15.5221 16.2637 15.6133ZM21.5137 15.4492L21.4316 15.5039V15.5586L21.623 15.7227L21.4863 15.9414V15.9688C21.5046 16.0234 21.5957 16.0508 21.7598 16.0508H22.0059C22.2611 16.0508 22.5163 16.0234 22.7715 15.9688C22.7715 15.9323 22.5527 15.8503 22.1152 15.7227C22.0423 15.5404 21.8783 15.4492 21.623 15.4492H21.5137ZM20.4473 17.0898V17.1992L20.5293 17.2539L20.5566 17.1992V16.8984C20.4837 16.9167 20.4473 16.9805 20.4473 17.0898ZM21.1309 20.3711C21.1491 20.5534 21.1947 20.6445 21.2676 20.6445L21.3223 20.6172V20.2891C21.3223 20.1432 21.2949 20.0521 21.2402 20.0156C21.1673 20.0156 21.1309 20.1341 21.1309 20.3711ZM20.3652 21.3828V21.4375H20.3926C20.502 21.3828 20.5566 21.2826 20.5566 21.1367C20.429 21.1549 20.3652 21.237 20.3652 21.3828ZM39.6152 2.73438C40.0163 2.73438 40.8092 2.98047 41.9941 3.47266C43.5618 4.18359 44.3457 5.1862 44.3457 6.48047V7.4375C44.3457 8.07552 44.127 8.75 43.6895 9.46094C43.4525 10.3542 43.2428 10.8008 43.0605 10.8008C42.3496 11.1289 41.9941 11.4206 41.9941 11.6758V11.9492C41.9941 12.5872 42.0671 13.2708 42.2129 14C42.1582 14.9661 42.0397 15.4492 41.8574 15.4492C41.7116 15.4492 41.3926 15.6133 40.9004 15.9414L40.5996 15.9688C40.2897 15.9688 40.1348 15.8047 40.1348 15.4766C39.8066 13.6172 39.6426 12.25 39.6426 11.375C39.6426 11.1927 40.0892 10.7461 40.9824 10.0352C41.4199 9.59766 41.6842 9.2513 41.7754 8.99609C41.9759 8.77734 42.0944 8.66797 42.1309 8.66797L42.377 8.75C42.541 8.75 42.6868 8.38542 42.8145 7.65625V7.57422L42.541 7.08203V6.97266H42.5137L42.623 6.69922V6.34375C42.623 6.14323 42.4772 5.92448 42.1855 5.6875C42.0397 5.32292 41.8118 5.14062 41.502 5.14062C40.9004 4.92188 40.235 4.8125 39.5059 4.8125H39.2324C38.248 4.8125 37.3275 5.46875 36.4707 6.78125L35.4043 8.14844V8.23047C35.0397 8.70443 34.6934 8.75911 34.3652 8.39453C34.0371 8.01172 33.873 7.72917 33.873 7.54688L34.1738 6.50781C34.3926 5.9974 34.7845 5.50521 35.3496 5.03125C36.4434 4.13802 37.373 3.5 38.1387 3.11719C38.5944 2.86198 39.0866 2.73438 39.6152 2.73438ZM38.1387 3.52734V3.58203H38.4395C38.9134 3.58203 39.3327 3.47266 39.6973 3.25391V3.17188L39.6152 3.11719H39.3418C38.9225 3.11719 38.5215 3.25391 38.1387 3.52734ZM40.709 3.47266L40.5996 3.52734V3.58203C40.5996 3.63672 40.6634 3.66406 40.791 3.66406C40.9915 3.66406 41.0918 3.61849 41.0918 3.52734L41.0098 3.47266H40.709ZM37.4824 4.01953L37.5645 4.10156L37.8926 3.99219V3.85547H37.8379C37.6556 3.85547 37.5371 3.91016 37.4824 4.01953ZM42.5137 4.15625L42.4863 4.21094C42.6139 4.46615 42.86 4.66667 43.2246 4.8125H43.3613V4.78516C43.3613 4.65755 43.0788 4.44792 42.5137 4.15625ZM35.7324 5.19531C36.0788 5.19531 36.4525 4.99479 36.8535 4.59375C37.054 4.5026 37.1543 4.4388 37.1543 4.40234V4.375L36.9629 4.21094H36.9355C36.8444 4.21094 36.5072 4.41146 35.9238 4.8125C35.7962 4.86719 35.7324 4.99479 35.7324 5.19531ZM39.3145 4.21094H39.2324V4.26562H39.3145V4.21094ZM35.4043 5.44141L35.2949 5.60547V5.63281H35.3223C35.4134 5.59635 35.459 5.53255 35.459 5.44141H35.4043ZM43.8262 5.87891H43.7715V5.90625C43.7715 6.05208 43.8262 6.13411 43.9355 6.15234H43.9629V6.125C43.9629 5.9974 43.9173 5.91536 43.8262 5.87891ZM36.0879 6.23438V6.28906H36.1426C36.2337 6.2526 36.2975 6.17969 36.334 6.07031V6.01562L36.2793 5.96094C36.1517 6.01562 36.0879 6.10677 36.0879 6.23438ZM34.5566 6.69922V6.75391L34.666 6.78125C34.9212 6.63542 35.0488 6.47135 35.0488 6.28906V6.17969H34.9668C34.6934 6.36198 34.5566 6.53516 34.5566 6.69922ZM34.9668 7.35547L34.8848 7.38281V7.46484H34.9668L35.0488 7.38281V7.35547H34.9668ZM35.1035 8.64062H35.1309V8.72266H35.1035V8.64062ZM42.459 8.91406H42.2949V9.05078H42.377L42.459 8.94141V8.91406ZM42.5137 10.1992V10.2812H42.5684C42.7507 10.2812 42.8509 10.2266 42.8691 10.1172L42.8145 10.0898H42.7871C42.6048 10.1081 42.5137 10.1445 42.5137 10.1992ZM40.3262 11.5664V11.6484C40.3262 12.0677 40.4538 12.2773 40.709 12.2773C40.7272 12.2773 40.7546 12.2044 40.791 12.0586C40.7728 11.5117 40.7272 11.2383 40.6543 11.2383H40.5176C40.39 11.2565 40.3262 11.3659 40.3262 11.5664ZM41.4473 12.1953L41.3926 12.2773H41.502V12.1953H41.4473ZM40.5996 12.6055L40.5176 12.7148V12.7695C40.5176 12.9336 40.5814 13.0247 40.709 13.043H40.7637L40.791 12.8789C40.791 12.7695 40.7272 12.6784 40.5996 12.6055ZM40.9004 14.4922L40.7637 14.6562L40.873 14.9844L40.7637 15.4492H40.9277C41.0553 15.4492 41.1647 15.3763 41.2559 15.2305V15.1211C41.1829 15.0664 41.1465 14.8932 41.1465 14.6016L41.0098 14.4922H40.9004ZM41.2832 17.418C41.5931 17.418 42.0853 17.6094 42.7598 17.9922C43.0332 18.0651 43.1699 18.1289 43.1699 18.1836C43.1699 18.2565 43.0059 18.3203 42.6777 18.375V18.4023V18.457L42.8145 18.9219C43.1426 19.7422 42.9512 20.3984 42.2402 20.8906C41.0918 20.9089 40.3171 20.3529 39.916 19.2227L39.8066 18.8125C39.8066 18.4115 40.2988 17.9466 41.2832 17.418ZM41.2832 17.8828H41.0918V17.9102C41.1647 18.0195 41.4473 18.138 41.9395 18.2656L41.9941 18.2109V18.1562C41.8301 17.974 41.5931 17.8828 41.2832 17.8828ZM40.9004 19.0586C40.9004 19.0768 40.9824 19.1315 41.1465 19.2227C41.1829 19.332 41.2194 19.3867 41.2559 19.3867H41.2832L41.6113 18.9766C41.6113 18.8672 41.5566 18.7852 41.4473 18.7305H41.0098C40.9368 18.7487 40.9004 18.8581 40.9004 19.0586ZM54.5176 1.20312C57.6165 1.45833 60.2598 1.6224 62.4473 1.69531C62.8118 1.84115 63.1855 1.96875 63.5684 2.07812H63.7324L63.7598 2.05078C63.8874 2.06901 63.9512 2.10547 63.9512 2.16016V2.24219C63.6413 2.4974 63.4863 3.14453 63.4863 4.18359V4.34766C63.4863 4.47526 63.5775 4.60286 63.7598 4.73047V4.75781L63.0488 7.10938C61.9004 8.71354 60.8613 10.3177 59.9316 11.9219C58.929 13.2526 58.2546 14.3099 57.9082 15.0938L57.8809 15.4492L58.0176 17.8008L57.7441 20.7266C57.7441 20.8359 57.4069 20.9453 56.7324 21.0547L56.4863 20.9453H56.1855L56.377 20.7266V20.6719L56.3223 20.6172H56.2402C56.0579 20.6172 55.8939 20.6536 55.748 20.7266C55.584 20.7266 55.502 20.5443 55.502 20.1797V19.2773L55.5293 17.1992L55.502 16.2148C55.7025 15.3216 55.9941 14.5833 56.377 14C56.8327 13.526 57.0605 13.1068 57.0605 12.7422C57.1335 12.7422 57.2064 12.6055 57.2793 12.332L58.5918 10.3906C59.321 9.22396 59.9316 8.02995 60.4238 6.80859L60.5605 6.61719V6.53516L60.5059 6.48047L61.4082 4.12891V4.07422C61.1712 4.07422 60.6243 3.94661 59.7676 3.69141C59.1478 3.69141 58.528 3.63672 57.9082 3.52734L57.334 3.71875C56.0762 3.57292 55.3014 3.5 55.0098 3.5H54.791C54.5723 3.5 54.4629 3.51823 54.4629 3.55469C54.153 3.55469 53.9251 3.18099 53.7793 2.43359C53.7428 2.43359 53.7246 2.36979 53.7246 2.24219C53.8158 1.8776 53.9616 1.69531 54.1621 1.69531L54.5176 1.72266V1.69531L54.2168 1.39453V1.36719C54.2168 1.3125 54.3171 1.25781 54.5176 1.20312ZM55.4199 1.85938H55.0098V1.94141L55.2832 2.24219V2.26953H54.709L54.627 2.35156V2.40625L54.7363 2.48828H54.9004L55.2832 2.43359C56.0671 2.57943 56.6777 2.65234 57.1152 2.65234H57.8535C57.8535 2.5612 57.5254 2.47917 56.8691 2.40625V2.32422C59.1113 2.47005 60.6243 2.63411 61.4082 2.81641H61.5996C61.6361 2.81641 61.6543 2.77083 61.6543 2.67969C61.6543 2.42448 60.916 2.26953 59.4395 2.21484L55.4199 1.85938ZM58.7285 2.54297V2.67969L59.0293 2.73438H59.2207V2.67969C59.2207 2.60677 59.0566 2.5612 58.7285 2.54297ZM62.584 2.54297C62.2741 2.54297 62.1191 2.58854 62.1191 2.67969C62.1191 2.77083 62.3197 2.81641 62.7207 2.81641H62.7754L62.8848 2.67969V2.59766L62.6934 2.54297H62.584ZM54.7637 2.92578L54.709 3.00781C54.709 3.11719 54.9368 3.17188 55.3926 3.17188H55.8301C55.6113 3.00781 55.265 2.92578 54.791 2.92578H54.7637ZM58.4551 2.95312C58.4551 3.02604 59.1569 3.13542 60.5605 3.28125L61.1621 3.44531H61.4082L61.5176 3.33594C61.5176 3.08073 60.4967 2.95312 58.4551 2.95312ZM62.584 3.22656L62.4473 3.36328V3.41797H62.584L62.6387 3.22656H62.584ZM62.0918 4.07422C62.1283 4.16536 62.1556 4.21094 62.1738 4.21094H62.2559L62.3926 4.07422V3.91016L62.3105 3.88281H62.1738C62.1191 3.91927 62.0918 3.98307 62.0918 4.07422ZM62.584 4.73047V4.75781C62.584 4.9401 62.6296 5.04948 62.7207 5.08594H62.8027C62.8939 5.08594 62.9395 4.77604 62.9395 4.15625L62.8848 4.04688C62.7754 4.11979 62.6751 4.34766 62.584 4.73047ZM61.791 4.48438H61.7637L61.791 4.64844H61.9004V4.56641L61.791 4.48438ZM62.666 5.41406H62.5293V5.44141L62.4746 6.20703L62.5293 6.26172H62.584C62.6204 6.26172 62.6842 6.07943 62.7754 5.71484V5.60547L62.666 5.41406ZM61.1895 5.63281H61.0527V5.71484L60.6699 6.83594V6.86328H60.7246C61.0527 6.37109 61.2259 6.00651 61.2441 5.76953V5.6875L61.1895 5.63281ZM59.5215 9.76172V9.81641H59.6855C59.8678 9.81641 60.1413 9.46094 60.5059 8.75C61.2715 7.51042 61.6543 6.79948 61.6543 6.61719V6.5625L61.5996 6.48047H61.4902C61.3626 6.58984 61.0163 7.11849 60.4512 8.06641C59.8314 9.03255 59.5215 9.59766 59.5215 9.76172ZM61.5996 7.84766H61.5723C61.0618 8.6862 60.8066 9.17839 60.8066 9.32422H60.8887C61.3809 8.75911 61.627 8.26693 61.627 7.84766H61.5996ZM60.3691 10.0625V10.1172C60.3874 10.1172 60.5241 9.96224 60.7793 9.65234V9.57031H60.6973C60.4785 9.7526 60.3691 9.91667 60.3691 10.0625ZM59.7676 11.1016H59.8223C60.0775 10.8099 60.2051 10.5729 60.2051 10.3906V10.3359H60.1777C60.0319 10.3359 59.8952 10.5911 59.7676 11.1016ZM58.9199 12.0859V12.1953H59.0293L59.1934 11.8125L59.1387 11.7852C59.0293 11.7852 58.9564 11.8854 58.9199 12.0859ZM57.6621 12.1953V12.3047H57.7168C57.9902 12.1224 58.127 11.9766 58.127 11.8672H58.0723C57.9447 11.9036 57.8079 12.013 57.6621 12.1953ZM57.7441 13.0156H57.7988C57.89 13.0156 57.9629 12.9518 58.0176 12.8242L57.9629 12.7695C57.8171 12.806 57.7441 12.888 57.7441 13.0156ZM57.5254 13.2617L57.4434 13.3711V13.4531H57.4707L57.6074 13.3438V13.2617H57.5254ZM56.4863 14.5742H56.5137C56.8053 14.3919 56.9512 14.2461 56.9512 14.1367H56.9238C56.6322 14.2643 56.4863 14.4102 56.4863 14.5742ZM56.9512 14.957L56.8418 15.0664V15.0938H56.9785L57.0059 14.9844L56.9785 14.957H56.9512ZM56.8418 15.6406V16.1055C56.9876 16.5794 57.0605 16.862 57.0605 16.9531L57.1699 17.0078H57.1973C57.252 17.0078 57.2975 16.8802 57.334 16.625L57.1973 15.9414L57.2793 15.3672H57.252L57.2246 15.3398C56.9694 15.431 56.8418 15.5312 56.8418 15.6406ZM56.377 15.9961H56.2676V16.1055L56.377 16.0234V15.9961ZM57.0059 18.4023H56.9238V18.4844C56.9238 18.6484 56.9694 18.7487 57.0605 18.7852H57.1152L57.1973 18.7031V18.6758C57.1973 18.5482 57.1335 18.457 57.0059 18.4023ZM56.7324 19.6602L56.6777 19.7695V19.8242H56.7324L56.7871 19.7695V19.6602H56.7324ZM55.9668 19.9609L55.8301 20.0703V20.1797C55.8848 20.3073 56.0033 20.3711 56.1855 20.3711H56.5137C56.6777 20.3711 56.7689 20.3346 56.7871 20.2617C56.7871 20.0612 56.5866 19.9609 56.1855 19.9609H55.9668ZM57.2793 20.3438L57.2246 20.3984L57.252 20.4531H57.3613V20.3438H57.2793ZM83.2559 14.9844L83.3652 15.0117C83.4746 15.0482 83.4655 15.7773 83.3379 17.1992H83.3652C83.347 17.3815 82.4082 17.3815 80.5488 17.1992C78.4707 17.3268 77.1126 17.3359 76.4746 17.2266V17.1992C76.4928 17.0352 77.2858 16.9714 78.8535 17.0078C79.4915 16.9896 79.8288 16.9349 79.8652 16.8438L79.8926 16.8164L79.6191 16.7617C77.4681 16.5794 76.3561 16.707 76.2832 17.1445L76.0645 17.1992C75.4447 17.1263 75.235 16.4427 75.4355 15.1484C75.4902 14.8203 76.2285 14.6836 77.6504 14.7383C77.6504 14.7018 77.7507 14.7018 77.9512 14.7383L78.4707 14.9297L78.7168 14.957L83.2559 14.9844ZM82.627 15.3398L82.4629 15.3672L82.4355 15.4492L82.6816 15.4766H82.8457L82.873 15.3945L82.627 15.3398ZM81.2051 15.4766L81.5605 15.5312C81.7246 15.5677 81.834 15.5404 81.8887 15.4492V15.4219H81.8066C81.4238 15.4036 81.2233 15.4219 81.2051 15.4766ZM79.7285 15.4766V15.5586H79.7832C79.9473 15.5951 80.0475 15.5677 80.084 15.4766V15.4492H79.9746C79.847 15.431 79.765 15.4401 79.7285 15.4766ZM81.4238 16.0781L81.998 16.1875C82.5996 16.2422 82.9368 16.2057 83.0098 16.0781V16.0234L82.873 15.9688C81.9434 15.9505 81.4603 15.987 81.4238 16.0781ZM78.416 15.5312L78.3887 15.6406H78.4434C78.8444 15.6953 79.1452 15.6589 79.3457 15.5312V15.5039L79.291 15.4766C79.127 15.4583 78.8353 15.4766 78.416 15.5312ZM75.9824 15.1484L75.9004 15.2305L75.8184 15.5586L75.9004 15.6406V15.668C75.9551 15.668 76.028 15.5586 76.1191 15.3398V15.2305L76.0918 15.1484H75.9824ZM76.8301 15.2578L76.6934 15.3672L76.666 15.3945L76.8301 15.4219L76.8848 15.3672L76.9121 15.2852L76.8301 15.2578ZM80.9043 16.0234H80.8223V16.0781L80.9863 16.1328L80.9043 16.0234ZM80.4395 16.7891V16.8164H80.4668C82.071 17.0169 82.8913 17.0716 82.9277 16.9805V16.9531C82.9277 16.8984 82.8822 16.8255 82.791 16.7344H82.7637C82.1986 16.6615 81.4238 16.6797 80.4395 16.7891ZM75.8457 15.8867L75.7637 15.9414V16.0234H75.8184L75.9004 15.9688V15.9141L75.8457 15.8867ZM83.4746 11.5938L83.584 11.6211C83.7298 11.6393 83.6478 12.3503 83.3379 13.7539L83.3652 13.7812C83.3105 13.9635 82.3809 13.8906 80.5762 13.5625C78.498 13.4531 77.1309 13.3255 76.4746 13.1797L76.502 13.0977C76.5566 12.9518 77.3405 12.9792 78.8535 13.1797C79.528 13.2161 79.8835 13.1888 79.9199 13.0977V13.0703L79.6738 13.0156C77.541 12.5964 76.4199 12.6055 76.3105 13.043L76.0918 13.0977C75.4902 12.9518 75.3535 12.2591 75.6816 11.0195C75.7546 10.6914 76.502 10.6185 77.9238 10.8008C77.9421 10.7826 78.0423 10.7826 78.2246 10.8008L78.7168 11.0469L78.9355 11.1016L83.4746 11.5938ZM82.791 11.8945H82.627L82.5996 11.9492L82.8457 12.0312H83.0371V11.9766L82.791 11.8945ZM81.3965 11.8945L81.7246 11.9766C81.9069 12.013 82.0163 11.9857 82.0527 11.8945L81.998 11.8672C81.597 11.8125 81.3965 11.8216 81.3965 11.8945ZM79.9199 11.7578V11.8125C80.1022 11.8672 80.2207 11.8581 80.2754 11.7852L80.3027 11.7305L80.1387 11.7031C80.0293 11.6849 79.9564 11.7031 79.9199 11.7578ZM81.5605 12.4961L82.1074 12.6328C82.6725 12.7604 83.0007 12.7695 83.0918 12.6602L83.1191 12.5781L83.0098 12.5234C82.0801 12.4141 81.597 12.4049 81.5605 12.4961ZM78.6074 11.6484L78.5801 11.7578L78.6074 11.7852C78.9355 11.8581 79.2454 11.849 79.5371 11.7578V11.7305L79.4824 11.7031C79.2637 11.6484 78.972 11.6302 78.6074 11.6484ZM76.2285 11.0469L76.1191 11.1016L76.0098 11.457L76.0918 11.5391C76.1465 11.5391 76.2285 11.4388 76.3379 11.2383L76.3652 11.1289L76.2832 11.0469H76.2285ZM77.0488 11.2383L76.8848 11.293V11.3477L77.0488 11.4023L77.1309 11.3203V11.293L77.0488 11.2383ZM81.041 12.3867H80.9863L80.959 12.4414L81.0957 12.4961L81.041 12.3867ZM80.5215 13.0977L80.4941 13.1523H80.5215C82.1074 13.5169 82.9186 13.6445 82.9551 13.5352L82.9824 13.5078C82.9824 13.4349 82.9277 13.3529 82.8184 13.2617H82.791C82.2259 13.1341 81.4694 13.0794 80.5215 13.0977ZM76.0098 11.7852H75.9004V11.8945H75.9824L76.0645 11.8398L76.0918 11.7852H76.0098Z" fill="black"/>
</svg>
