<svg width="85" height="22" viewBox="0 0 85 22" fill="none" xmlns="http://www.w3.org/2000/svg">
<path d="M4.49219 0.273438C5.53125 0.382812 6.05078 0.53776 6.05078 0.738281C6.05078 0.920573 6.11458 1.01172 6.24219 1.01172L6.32422 1.09375L6.02344 1.33984V1.44922H6.10547C6.19661 1.33984 6.26953 1.28516 6.32422 1.28516C6.41536 1.28516 6.46094 1.39453 6.46094 1.61328L6.70703 9.10547C6.52474 9.88932 6.43359 11.4388 6.43359 13.7539V13.8633C6.43359 15.2669 6.47005 16.1784 6.54297 16.5977C6.39714 16.6523 6.32422 16.7708 6.32422 16.9531C6.32422 17.1901 6.36979 17.3086 6.46094 17.3086H6.54297V17.1172H6.59766C6.6888 17.1172 6.77995 17.5456 6.87109 18.4023L6.81641 18.4297H6.70703C6.5612 18.2656 6.43359 18.1836 6.32422 18.1836V18.2383V18.3477C6.32422 18.6211 6.5612 18.7578 7.03516 18.7578C9.7513 18.612 11.1094 18.6211 11.1094 18.7852V18.8125C11.1094 18.849 10.9727 18.9128 10.6992 19.0039L10.6719 19.0586V19.0859C10.7083 19.1224 10.8724 19.1862 11.1641 19.2773C11.237 19.3503 11.2734 19.4505 11.2734 19.5781C11.0911 20.5807 10.8724 21.082 10.6172 21.082L10.0977 21.1367L8.67578 20.9727L7.80078 21.0273C2.91536 21.1003 0.472656 21.0456 0.472656 20.8633C0.326823 20.6628 0.253906 20.5169 0.253906 20.4258V20.3984L0.527344 19.4688L0.417969 19.2773C0.417969 19.0039 0.609375 18.8216 0.992188 18.7305L1.32031 18.6484L3.89062 18.5664C4.10938 18.5664 4.23698 18.4297 4.27344 18.1562V17.8828C4.27344 16.388 4.21875 15.1302 4.10938 14.1094C4.27344 8.71354 4.44661 6.01562 4.62891 6.01562L4.65625 5.66016C4.58333 4.11068 4.45573 3.33594 4.27344 3.33594C3.47135 3.86458 2.93359 4.38411 2.66016 4.89453L2.49609 4.97656C1.45703 4.59375 0.791667 4.22917 0.5 3.88281C0.463542 3.88281 0.427083 3.75521 0.390625 3.5L0.445312 3.41797L0.636719 3.44531H0.828125C1.19271 3.44531 1.97656 2.81641 3.17969 1.55859C3.54427 1.23047 3.83594 0.856771 4.05469 0.4375C4.23698 0.328125 4.38281 0.273438 4.49219 0.273438ZM4.82031 1.20312V1.23047L4.84766 1.28516H4.90234C5.06641 1.28516 5.15755 1.25781 5.17578 1.20312V1.17578L5.09375 1.09375H5.01172C4.88411 1.11198 4.82031 1.14844 4.82031 1.20312ZM4 1.20312L3.89062 1.28516L3.97266 1.36719H4.05469L4.21875 1.33984V1.25781L4.13672 1.20312H4ZM6.10547 1.77734L6.05078 1.85938V1.94141L6.10547 1.96875L6.1875 1.94141V1.85938L6.10547 1.77734ZM2.05859 4.04688V4.12891H2.08594C2.35938 4.12891 2.64193 3.95573 2.93359 3.60938C3.91797 2.69792 4.41016 2.14193 4.41016 1.94141H4.32812C3.30729 2.79818 2.55078 3.5 2.05859 4.04688ZM5.36719 2.70703V2.73438L5.50391 2.84375L5.58594 2.81641V2.54297L5.55859 2.48828V2.46094C5.43099 2.47917 5.36719 2.5612 5.36719 2.70703ZM5.25781 2.70703H5.14844L4.95703 3.17188V3.30859L5.06641 3.41797H5.23047C5.33984 3.41797 5.40365 3.38151 5.42188 3.30859V3.22656C5.42188 3.17188 5.33073 3.10807 5.14844 3.03516H5.09375V2.92578C5.20312 2.83464 5.25781 2.76172 5.25781 2.70703ZM1.51172 3.66406V3.71875H1.62109C1.82161 3.71875 1.99479 3.58203 2.14062 3.30859L2.11328 3.25391H2.08594C1.83073 3.36328 1.63932 3.5 1.51172 3.66406ZM5.55859 4.64844L5.64062 6.53516H5.69531C5.80469 6.22526 5.85938 5.77865 5.85938 5.19531V4.40234C5.85938 3.80078 5.82292 3.5 5.75 3.5C5.64062 3.5 5.57682 3.88281 5.55859 4.64844ZM5.55859 8.77734V9.07812L5.64062 9.59766H5.69531C5.84115 9.59766 5.91406 9.06901 5.91406 8.01172V7.84766L5.83203 7.76562C5.64974 7.83854 5.55859 8.17578 5.55859 8.77734ZM4.76562 13.7812H4.68359V13.918H4.76562V13.7812ZM5.64062 15.9688V15.9961V16.1875L5.75 16.2695H5.80469L5.85938 16.2148V16.1328C5.82292 16.1328 5.75 16.0781 5.64062 15.9688ZM5.83203 16.8164H5.80469C5.69531 17.1263 5.64062 17.5091 5.64062 17.9648V18.1836C5.64062 18.4023 5.73177 18.5482 5.91406 18.6211H5.96875C6.02344 18.6211 6.05078 18.5664 6.05078 18.457C6.03255 17.3633 5.95964 16.8164 5.83203 16.8164ZM4.68359 17.5L4.57422 17.6641L4.62891 17.7734H4.65625L4.76562 17.6641V17.6094L4.68359 17.5ZM5.14844 17.9648L5.06641 18.0469V18.2383L5.14844 18.3203H5.23047V18.0469L5.14844 17.9648ZM1.67578 18.9219H1.42969V18.9766L1.53906 19.0859H1.59375L1.67578 18.9766V18.9219ZM1.62109 19.5781L0.855469 19.6602V19.7695L0.9375 19.8789H0.992188C1.17448 19.8789 1.38411 19.7786 1.62109 19.5781ZM6.92578 19.4688V19.5781L8.78516 19.2773H8.94922V19.168C8.52995 19.1133 7.85547 19.2135 6.92578 19.4688ZM2.49609 19.7695L1.89453 19.8516V19.9609H2.05859H2.30469C2.76042 19.9609 2.98828 19.9245 2.98828 19.8516L2.90625 19.7695H2.49609ZM4.65625 19.7148L4.62891 19.7695V19.7969C4.70182 19.8698 4.77474 19.9062 4.84766 19.9062V19.8516C4.8112 19.7604 4.7474 19.7148 4.65625 19.7148ZM4.16406 19.7695L4.10938 19.8516L4.16406 19.9062H4.27344L4.35547 19.8516V19.7695H4.16406ZM5.23047 19.9062L5.09375 19.9883V20.043C5.09375 20.1159 5.3763 20.1523 5.94141 20.1523H5.96875C6.11458 20.1523 6.1875 20.0977 6.1875 19.9883C6.11458 19.9336 6.03255 19.9062 5.94141 19.9062H5.23047ZM10.3711 20.1797V20.2891L10.4805 20.3984C10.681 20.3984 10.7812 20.2526 10.7812 19.9609V19.7422L10.7266 19.6602H10.6172C10.4531 19.7878 10.3711 19.9609 10.3711 20.1797ZM6.70703 20.207C6.59766 20.3893 6.40625 20.4805 6.13281 20.4805V20.5352C6.13281 20.6081 6.41536 20.6536 6.98047 20.6719H7.03516C7.36328 20.4167 7.59115 20.1979 7.71875 20.0156C7.70052 19.9609 7.61849 19.9518 7.47266 19.9883C7.32682 20.0065 7.07161 20.0794 6.70703 20.207ZM8.67578 19.9609L8.07422 20.0156V20.0703C8.07422 20.125 8.33854 20.1523 8.86719 20.1523L8.89453 20.125V20.0977C8.85807 20.0065 8.78516 19.9609 8.67578 19.9609ZM9.30469 19.9609L9.22266 20.0156L9.25 20.125H9.30469L9.38672 20.0703V20.0156L9.30469 19.9609ZM8.01953 20.3438H7.91016V20.3984H8.01953V20.3438ZM9.90625 20.7539V20.7812C9.90625 20.8177 9.98828 20.8542 10.1523 20.8906C10.3346 20.8724 10.4258 20.8268 10.4258 20.7539V20.6992L10.3164 20.6172H10.207C10.043 20.6172 9.94271 20.6628 9.90625 20.7539ZM18.6016 2.1875L19.2031 2.10547C19.8047 2.10547 20.7435 2.32422 22.0195 2.76172C22.694 3.10807 23.0312 3.33594 23.0312 3.44531C23.651 4.0651 23.9609 4.54818 23.9609 4.89453L24.3984 6.50781C24.2161 7.20052 23.8242 8.19401 23.2227 9.48828C22.457 10.1263 21.3268 10.8828 19.832 11.7578C18.6107 12.888 17.8086 13.4714 17.4258 13.5078L16.2773 14.5469C14.6367 15.9688 13.7982 16.7161 13.7617 16.7891C13.5977 17.1354 13.4518 17.582 13.3242 18.1289V18.1836C13.3242 18.3294 13.7708 18.4297 14.6641 18.4844V18.5938L13.7891 18.6484V18.7578C15.375 19.0312 16.4414 19.168 16.9883 19.168C16.9518 19.1133 16.2956 18.931 15.0195 18.6211V18.5391H15.0469C15.3932 18.5391 16.1224 18.6758 17.2344 18.9492L18.7656 19.0586L20.0781 18.9219H20.7617C21.9648 18.9948 22.6211 19.1589 22.7305 19.4141L23.5508 19.6602L23.7148 19.7695V19.8789L23.2773 19.9883V20.0156L23.3867 20.1523H23.4414L23.8242 20.0977V20.1523C23.7878 20.9544 23.7331 21.3555 23.6602 21.3555L20.4609 21.2461H19.8047C19.349 21.2461 18.7292 21.2917 17.9453 21.3828C15.1927 21.0547 13.2786 20.8906 12.2031 20.8906C11.875 20.8177 11.7109 20.6536 11.7109 20.3984C11.5833 20.0703 11.5195 19.6602 11.5195 19.168V18.3477C11.5195 16.7617 11.7018 15.7591 12.0664 15.3398L12.75 14.9023C12.8594 14.7018 12.9141 14.5378 12.9141 14.4102C14.0807 13.4622 14.7005 12.9883 14.7734 12.9883C15.2656 12.806 15.9401 12.3411 16.7969 11.5938H16.9336C16.6966 11.8854 16.5052 12.0312 16.3594 12.0312V12.1406H16.5234C16.7604 12.013 16.9974 11.8125 17.2344 11.5391V11.4844H17.125V11.4023L19.0938 10.1719C20.0964 9.47917 20.8893 8.84115 21.4727 8.25781C21.9102 7.76562 22.1927 7.11849 22.3203 6.31641C22.3203 5.60547 22.0195 5.06771 21.418 4.70312C21.2174 4.63021 20.3971 4.52995 18.957 4.40234C18.957 4.38411 18.8112 4.36589 18.5195 4.34766C17.8997 4.34766 17.3164 4.71224 16.7695 5.44141C16.6237 5.76953 16.5508 6.01562 16.5508 6.17969V6.37109H16.6055C16.6055 6.53516 16.3047 6.65365 15.7031 6.72656L14.5547 6.89062V6.91797L14.3906 6.89062H14.1719L13.4883 6.97266L13.4336 6.86328C13.6888 5.60547 13.9714 4.82161 14.2812 4.51172C15.3203 3.5638 16.0495 3.07161 16.4688 3.03516C16.7786 2.76172 17.4896 2.47917 18.6016 2.1875ZM19.6953 2.37891H19.4219V2.43359L19.5859 2.65234H19.832L19.9414 2.51562V2.48828C19.9232 2.41536 19.8411 2.37891 19.6953 2.37891ZM17.9453 2.78906V2.84375H17.9727C18.7201 2.84375 19.0938 2.76172 19.0938 2.59766L18.957 2.48828H18.6289C18.1732 2.59766 17.9453 2.69792 17.9453 2.78906ZM21.3633 2.67969H21.3359V2.73438C21.3359 2.84375 21.5729 2.95312 22.0469 3.0625V3.03516C22.0469 2.92578 21.819 2.80729 21.3633 2.67969ZM16.9336 3.19922V3.28125H17.2891L17.3984 3.17188V3.14453L17.2344 3.11719C17.0339 3.15365 16.9336 3.18099 16.9336 3.19922ZM17.3164 4.23828L17.2344 4.34766V4.40234H17.3984L17.4805 4.29297V4.23828H17.3164ZM22.0742 4.29297L22.0195 4.34766V4.40234C22.0924 4.52995 22.1927 4.59375 22.3203 4.59375H22.3477C22.4023 4.59375 22.4297 4.55729 22.4297 4.48438C22.4297 4.39323 22.3294 4.32943 22.1289 4.29297H22.0742ZM22.4844 4.70312V4.75781C22.8125 4.79427 22.9766 4.9401 22.9766 5.19531L23.1406 5.38672V5.19531C23.1406 4.79427 23.013 4.59375 22.7578 4.59375C22.5938 4.59375 22.5026 4.63021 22.4844 4.70312ZM16.4414 5.25L16.4961 5.30469H16.5234C16.7969 5.15885 16.9336 5.01302 16.9336 4.86719V4.83984H16.8242C16.7513 4.83984 16.6237 4.97656 16.4414 5.25ZM15.6758 5.98828H15.5391V6.09766L15.6484 6.125H15.6758V5.98828ZM23.6602 6.91797L23.5508 7.05469V7.13672H23.6055L23.6875 7.05469V6.91797H23.6602ZM23.0312 8.01172H22.8945V8.14844C23.0221 8.14844 23.0859 8.20312 23.0859 8.3125H23.168V8.14844L23.0312 8.01172ZM22.5391 8.99609L22.5664 9.05078V9.07812C22.6758 9.02344 22.7852 8.91406 22.8945 8.75V8.69531H22.8398C22.7122 8.76823 22.612 8.86849 22.5391 8.99609ZM21.8008 9.54297H21.8555L22.1562 9.48828C22.1562 9.34245 22.0924 9.26953 21.9648 9.26953C21.8555 9.28776 21.8008 9.37891 21.8008 9.54297ZM21.7461 10.0625V10.1172C22.0924 10.0807 22.4115 9.88932 22.7031 9.54297L22.6484 9.48828C22.2292 9.70703 21.9284 9.89844 21.7461 10.0625ZM20.5156 10.582L20.4336 10.6094V10.7188H20.4883L20.5703 10.6367L20.5156 10.6094V10.582ZM16.25 13.8633V13.9453H16.332C16.4414 13.9453 16.6875 13.7812 17.0703 13.4531C17.1615 13.4531 17.2526 13.3438 17.3438 13.125L17.3984 13.0977V13.0156H17.3164C17.0977 13.0156 16.7422 13.2982 16.25 13.8633ZM14.5273 13.7266V13.8086H14.5547C14.7917 13.8086 14.9831 13.6263 15.1289 13.2617H14.9922C14.6823 13.5169 14.5273 13.6719 14.5273 13.7266ZM13.625 14.2188H13.2695L13.2969 14.4922C13.0417 14.7474 12.9141 14.9115 12.9141 14.9844H13.0234C13.3516 14.8021 13.5794 14.5742 13.707 14.3008V14.2461L13.625 14.2188ZM15.6758 14.4922L15.5391 14.5742V14.6562H15.6484L15.7578 14.5469V14.4922H15.6758ZM13.4883 16.0508V16.1602H13.5703C13.7708 16.0143 13.8711 15.8685 13.8711 15.7227V15.6953H13.7891C13.5885 15.8047 13.4883 15.9232 13.4883 16.0508ZM12.75 18.9766L12.668 19.0586V19.168L12.75 19.2773L12.8047 19.168V19.0586L12.75 18.9766ZM13.4883 19.0586L13.3789 19.1406L13.4336 19.168H13.7891V19.0859L13.5977 19.0586H13.4883ZM20.9258 19.2773L20.7344 19.3047V19.332L20.8438 19.4414H21.1992L21.2812 19.3867V19.3047L20.9258 19.2773ZM12.0117 19.8242L11.9023 19.8789V19.9062L11.9844 19.9883H12.0117L12.0938 19.9062L12.0117 19.8242ZM12.5859 20.3984V20.4258L12.8047 20.4531C13.0781 20.4167 13.2148 20.3802 13.2148 20.3438L13.1875 20.2891H12.8047C12.6589 20.3255 12.5859 20.362 12.5859 20.3984ZM21.4453 20.6992H21.7461C22.0013 20.6628 22.1289 20.6172 22.1289 20.5625L22.0469 20.4531H21.8828C21.7917 20.4531 21.6458 20.5352 21.4453 20.6992ZM22.4297 20.8633L22.5391 20.918H22.8398C23.1133 20.918 23.25 20.8724 23.25 20.7812V20.7539C23.25 20.6992 23.2135 20.6719 23.1406 20.6719C22.7031 20.6901 22.4661 20.7539 22.4297 20.8633ZM39.9844 2.73438C40.3854 2.73438 41.1784 2.98047 42.3633 3.47266C43.931 4.18359 44.7148 5.1862 44.7148 6.48047V7.4375C44.7148 8.07552 44.4961 8.75 44.0586 9.46094C43.8216 10.3542 43.612 10.8008 43.4297 10.8008C42.7188 11.1289 42.3633 11.4206 42.3633 11.6758V11.9492C42.3633 12.5872 42.4362 13.2708 42.582 14C42.5273 14.9661 42.4089 15.4492 42.2266 15.4492C42.0807 15.4492 41.7617 15.6133 41.2695 15.9414L40.9688 15.9688C40.6589 15.9688 40.5039 15.8047 40.5039 15.4766C40.1758 13.6172 40.0117 12.25 40.0117 11.375C40.0117 11.1927 40.4583 10.7461 41.3516 10.0352C41.7891 9.59766 42.0534 9.2513 42.1445 8.99609C42.3451 8.77734 42.4635 8.66797 42.5 8.66797L42.7461 8.75C42.9102 8.75 43.056 8.38542 43.1836 7.65625V7.57422L42.9102 7.08203V6.97266H42.8828L42.9922 6.69922V6.34375C42.9922 6.14323 42.8464 5.92448 42.5547 5.6875C42.4089 5.32292 42.181 5.14062 41.8711 5.14062C41.2695 4.92188 40.6042 4.8125 39.875 4.8125H39.6016C38.6172 4.8125 37.6966 5.46875 36.8398 6.78125L35.7734 8.14844V8.23047C35.4089 8.70443 35.0625 8.75911 34.7344 8.39453C34.4062 8.01172 34.2422 7.72917 34.2422 7.54688L34.543 6.50781C34.7617 5.9974 35.1536 5.50521 35.7188 5.03125C36.8125 4.13802 37.7422 3.5 38.5078 3.11719C38.9635 2.86198 39.4557 2.73438 39.9844 2.73438ZM38.5078 3.52734V3.58203H38.8086C39.2826 3.58203 39.7018 3.47266 40.0664 3.25391V3.17188L39.9844 3.11719H39.7109C39.2917 3.11719 38.8906 3.25391 38.5078 3.52734ZM41.0781 3.47266L40.9688 3.52734V3.58203C40.9688 3.63672 41.0326 3.66406 41.1602 3.66406C41.3607 3.66406 41.4609 3.61849 41.4609 3.52734L41.3789 3.47266H41.0781ZM37.8516 4.01953L37.9336 4.10156L38.2617 3.99219V3.85547H38.207C38.0247 3.85547 37.9062 3.91016 37.8516 4.01953ZM42.8828 4.15625L42.8555 4.21094C42.9831 4.46615 43.2292 4.66667 43.5938 4.8125H43.7305V4.78516C43.7305 4.65755 43.4479 4.44792 42.8828 4.15625ZM36.1016 5.19531C36.4479 5.19531 36.8216 4.99479 37.2227 4.59375C37.4232 4.5026 37.5234 4.4388 37.5234 4.40234V4.375L37.332 4.21094H37.3047C37.2135 4.21094 36.8763 4.41146 36.293 4.8125C36.1654 4.86719 36.1016 4.99479 36.1016 5.19531ZM39.6836 4.21094H39.6016V4.26562H39.6836V4.21094ZM35.7734 5.44141L35.6641 5.60547V5.63281H35.6914C35.7826 5.59635 35.8281 5.53255 35.8281 5.44141H35.7734ZM44.1953 5.87891H44.1406V5.90625C44.1406 6.05208 44.1953 6.13411 44.3047 6.15234H44.332V6.125C44.332 5.9974 44.2865 5.91536 44.1953 5.87891ZM36.457 6.23438V6.28906H36.5117C36.6029 6.2526 36.6667 6.17969 36.7031 6.07031V6.01562L36.6484 5.96094C36.5208 6.01562 36.457 6.10677 36.457 6.23438ZM34.9258 6.69922V6.75391L35.0352 6.78125C35.2904 6.63542 35.418 6.47135 35.418 6.28906V6.17969H35.3359C35.0625 6.36198 34.9258 6.53516 34.9258 6.69922ZM35.3359 7.35547L35.2539 7.38281V7.46484H35.3359L35.418 7.38281V7.35547H35.3359ZM35.4727 8.64062H35.5V8.72266H35.4727V8.64062ZM42.8281 8.91406H42.6641V9.05078H42.7461L42.8281 8.94141V8.91406ZM42.8828 10.1992V10.2812H42.9375C43.1198 10.2812 43.2201 10.2266 43.2383 10.1172L43.1836 10.0898H43.1562C42.974 10.1081 42.8828 10.1445 42.8828 10.1992ZM40.6953 11.5664V11.6484C40.6953 12.0677 40.8229 12.2773 41.0781 12.2773C41.0964 12.2773 41.1237 12.2044 41.1602 12.0586C41.1419 11.5117 41.0964 11.2383 41.0234 11.2383H40.8867C40.7591 11.2565 40.6953 11.3659 40.6953 11.5664ZM41.8164 12.1953L41.7617 12.2773H41.8711V12.1953H41.8164ZM40.9688 12.6055L40.8867 12.7148V12.7695C40.8867 12.9336 40.9505 13.0247 41.0781 13.043H41.1328L41.1602 12.8789C41.1602 12.7695 41.0964 12.6784 40.9688 12.6055ZM41.2695 14.4922L41.1328 14.6562L41.2422 14.9844L41.1328 15.4492H41.2969C41.4245 15.4492 41.5339 15.3763 41.625 15.2305V15.1211C41.5521 15.0664 41.5156 14.8932 41.5156 14.6016L41.3789 14.4922H41.2695ZM41.6523 17.418C41.9622 17.418 42.4544 17.6094 43.1289 17.9922C43.4023 18.0651 43.5391 18.1289 43.5391 18.1836C43.5391 18.2565 43.375 18.3203 43.0469 18.375V18.4023V18.457L43.1836 18.9219C43.5117 19.7422 43.3203 20.3984 42.6094 20.8906C41.4609 20.9089 40.6862 20.3529 40.2852 19.2227L40.1758 18.8125C40.1758 18.4115 40.668 17.9466 41.6523 17.418ZM41.6523 17.8828H41.4609V17.9102C41.5339 18.0195 41.8164 18.138 42.3086 18.2656L42.3633 18.2109V18.1562C42.1992 17.974 41.9622 17.8828 41.6523 17.8828ZM41.2695 19.0586C41.2695 19.0768 41.3516 19.1315 41.5156 19.2227C41.5521 19.332 41.5885 19.3867 41.625 19.3867H41.6523L41.9805 18.9766C41.9805 18.8672 41.9258 18.7852 41.8164 18.7305H41.3789C41.306 18.7487 41.2695 18.8581 41.2695 19.0586ZM62.1875 3.28125C63.3724 3.28125 64.056 3.3724 64.2383 3.55469C64.0924 3.66406 64.0195 3.76432 64.0195 3.85547V3.91016L64.1289 4.48438V4.51172C64.1289 5.07682 64.0195 5.35938 63.8008 5.35938L63.3906 5.22266H63.2812L62.0508 5.38672L61.6406 5.35938C61.4036 5.3776 60.7656 5.86979 59.7266 6.83594L59.5625 7.08203C59.1797 7.30078 58.8971 7.59245 58.7148 7.95703C58.4779 8.19401 58.168 8.6862 57.7852 9.43359C57.7305 9.43359 57.6576 9.58854 57.5664 9.89844C57.1107 10.2083 56.819 10.5638 56.6914 10.9648C56.5638 11.0924 56.2721 11.5482 55.8164 12.332C55.5612 12.6602 55.3789 12.9609 55.2695 13.2344L55.1602 13.3438V13.3711H55.2969C55.3698 13.3711 55.5247 13.1797 55.7617 12.7969C55.8346 12.7969 56.2812 12.5234 57.1016 11.9766C58.2135 11.3568 58.9609 11.0469 59.3438 11.0469C60.0547 11.0469 60.9297 11.3021 61.9688 11.8125C62.9167 12.7057 63.4453 13.3164 63.5547 13.6445C63.8464 13.8451 64.056 14.3646 64.1836 15.2031C63.8919 16.7161 63.5729 17.7734 63.2266 18.375C62.2604 19.651 61.7773 20.3255 61.7773 20.3984L61.832 20.5625C61.3763 20.9453 61.0299 21.1732 60.793 21.2461C59.0794 21.1549 58.1042 21.0911 57.8672 21.0547C57.5208 20.8359 57.0833 20.6536 56.5547 20.5078L55.3789 19.6602C54.5951 18.694 54.2031 17.6185 54.2031 16.4336C54.1302 16.3607 54.0664 15.7318 54.0117 14.5469C54.0117 14.1458 54.2305 13.3893 54.668 12.2773C54.668 11.931 54.8867 11.3112 55.3242 10.418C55.543 9.2513 56.3086 7.90234 57.6211 6.37109C59.3529 4.62109 60.3099 3.74609 60.4922 3.74609C61.2214 3.4362 61.7865 3.28125 62.1875 3.28125ZM63.7461 3.66406H63.582V3.71875L63.7188 3.82812H63.7461L63.8008 3.74609V3.71875L63.7461 3.66406ZM56.0078 9.43359V9.54297H56.0898C56.1445 9.54297 56.1719 9.47005 56.1719 9.32422C56.6823 8.8138 57.1745 8.08464 57.6484 7.13672C59.1797 5.49609 60.1732 4.63021 60.6289 4.53906C61.3034 4.21094 61.6406 3.94661 61.6406 3.74609V3.69141H61.5586C60.957 3.80078 60.3646 4.11068 59.7812 4.62109C58.5417 5.86068 57.694 6.75391 57.2383 7.30078C56.4544 8.3763 56.0443 9.08724 56.0078 9.43359ZM62.3516 4.07422V4.12891H62.7891C62.9714 4.12891 63.1445 4.07422 63.3086 3.96484V3.80078L63.2266 3.69141H62.9805C62.8164 3.69141 62.6068 3.81901 62.3516 4.07422ZM63.4453 3.91016L63.3906 3.99219V4.01953L63.4453 4.12891H63.5547L63.6367 4.01953V3.99219L63.5547 3.91016H63.4453ZM59.8906 5.38672V5.49609H59.9453C60.3099 5.35026 60.7656 5.1224 61.3125 4.8125C61.5677 4.8125 61.7773 4.71224 61.9414 4.51172V4.48438H61.8594C61.6042 4.48438 60.9479 4.78516 59.8906 5.38672ZM62.1055 5.00391V5.11328H62.2695C62.9258 4.91276 63.2539 4.79427 63.2539 4.75781V4.67578L63.0625 4.64844C62.7708 4.64844 62.4518 4.76693 62.1055 5.00391ZM56.2812 9.78906L56.1719 9.84375L56.2266 9.95312H56.2539C56.3633 9.95312 56.6003 9.66146 56.9648 9.07812C57.4023 8.51302 57.8581 7.96615 58.332 7.4375C58.4414 7.27344 59.0977 6.6901 60.3008 5.6875L60.4648 5.49609H60.4102C59.8268 5.49609 59.0612 5.95182 58.1133 6.86328C57.2747 8.08464 56.6641 9.0599 56.2812 9.78906ZM55.543 11.1289V11.293C55.7617 11.2383 55.8711 11.1016 55.8711 10.8828V10.8555H55.707C55.5977 10.9102 55.543 11.0013 55.543 11.1289ZM58.3867 11.8398V11.9219H58.5781C58.8333 11.776 59.444 11.6667 60.4102 11.5938V11.5664C60.2826 11.4388 60.0729 11.375 59.7812 11.375H59.5078C59.125 11.375 58.7513 11.5299 58.3867 11.8398ZM57.5938 12.332L57.0195 12.7695V12.8516C57.1654 12.8516 57.3932 12.6966 57.7031 12.3867V12.332H57.5938ZM62.3789 12.6055V12.7148C62.5794 13.2253 62.8711 13.5716 63.2539 13.7539H63.4453V13.6719C62.9714 12.9792 62.6159 12.6237 62.3789 12.6055ZM59.5352 12.6602L59.4531 12.7148V12.7695H59.6172L59.6992 12.7148L59.6172 12.6602H59.5352ZM61.4766 12.8789H61.2305V12.9609L61.3125 13.0703H61.3672L61.4766 12.9609V12.8789ZM55.707 14.9297L55.6523 15.0117C55.6523 15.9596 56.026 17.263 56.7734 18.9219C57.7396 19.5417 58.4232 19.8516 58.8242 19.8516C60.1549 19.8516 61.1849 19.1042 61.9141 17.6094L62.0234 16.9258C62.0234 15.3034 61.7682 14.2461 61.2578 13.7539C60.5651 13.2982 59.7174 13.0703 58.7148 13.0703C58.4414 13.1615 57.8216 13.5169 56.8555 14.1367C56.3633 14.2643 55.9805 14.5286 55.707 14.9297ZM62.2695 13.8086L61.832 13.8906V13.9727C62.069 14.1914 62.1875 14.401 62.1875 14.6016H62.2695L62.3242 14.0273V14L62.2695 13.8086ZM54.75 14.5469V14.6562C54.75 14.7109 54.7865 14.7383 54.8594 14.7383C55.0052 14.7383 55.2148 14.5924 55.4883 14.3008V14.2461L55.3789 14.1367C55.1237 14.1367 54.9141 14.2734 54.75 14.5469ZM63.3359 14.9297L63.2812 14.9844V15.5039L63.4453 15.6406L63.5273 15.5586V15.2305C63.5273 15.0664 63.4818 14.9661 63.3906 14.9297H63.3359ZM62.5977 15.1484H62.4883L62.4336 15.2852V15.4766L62.4883 15.5312H62.5156C62.5885 15.5312 62.625 15.4219 62.625 15.2031L62.5977 15.1484ZM54.8867 15.5039C54.8867 15.6497 55.1055 16.2695 55.543 17.3633H55.5703L55.625 17.3086C55.6068 16.7799 55.4518 16.0781 55.1602 15.2031C54.9779 15.2031 54.8867 15.3034 54.8867 15.5039ZM54.5312 16.1602H54.4219V16.4336L54.4766 16.5156H54.5859V16.3242L54.5312 16.1602ZM63.0625 16.2969L62.9531 16.4336V16.5156L62.9805 16.707H63.0078C63.1172 16.6523 63.1719 16.543 63.1719 16.3789L63.0625 16.2969ZM62.3516 16.5156L62.2695 16.625V16.6523L62.3789 16.7344H62.4609L62.543 16.6523V16.625L62.4883 16.5156H62.3516ZM54.5859 16.707L54.4766 16.8164V17.0078C54.5859 17.6823 54.7135 18.0195 54.8594 18.0195L54.8867 17.9375V17.6367C54.8867 17.0169 54.7865 16.707 54.5859 16.707ZM62.625 17.1992H62.543V17.2539L62.6523 17.3633H62.707V17.3086L62.625 17.1992ZM55.5703 18.0195H55.4609V18.1289L55.5977 18.2656H55.6523V18.1289L55.5703 18.0195ZM62.5977 18.1836L62.0508 18.9219V18.9766L62.1602 19.0586C62.5247 18.5846 62.707 18.293 62.707 18.1836H62.5977ZM55.0781 18.457L55.0508 18.5938C55.1055 18.6849 55.1419 18.7305 55.1602 18.7305H55.2148V18.7031C55.2148 18.5755 55.1693 18.4935 55.0781 18.457ZM55.8711 18.7305L55.8164 18.8125V18.8945C55.9987 19.1862 56.1901 19.332 56.3906 19.332H56.418V19.2773C56.418 19.2044 56.2448 19.0221 55.8984 18.7305H55.8711ZM61.3672 19.3867L60.4102 20.0703V20.0977L60.4922 20.1523C60.8021 20.1523 61.1302 19.9245 61.4766 19.4688V19.3867H61.3672ZM57.2383 19.8516C57.2747 19.9609 57.3203 20.0339 57.375 20.0703H57.5117C57.6758 20.0703 57.776 20.0156 57.8125 19.9062V19.8789C57.8125 19.806 57.694 19.7604 57.457 19.7422H57.293C57.2565 19.7422 57.2383 19.7786 57.2383 19.8516ZM58.1953 20.0156H58.1133V20.0977L58.1953 20.1523H58.25V20.0977L58.1953 20.0156ZM58.332 20.2891C58.4779 20.3802 58.6419 20.4258 58.8242 20.4258C59.0977 20.4258 59.3073 20.362 59.4531 20.2344V20.1797H58.7148C58.4596 20.1797 58.332 20.2161 58.332 20.2891ZM61.2852 20.2344L60.4648 20.6445V20.6992H60.5469C60.8568 20.6992 61.1302 20.5534 61.3672 20.2617V20.2344H61.2852ZM83.625 14.9844L83.7344 15.0117C83.8438 15.0482 83.8346 15.7773 83.707 17.1992H83.7344C83.7161 17.3815 82.7773 17.3815 80.918 17.1992C78.8398 17.3268 77.4818 17.3359 76.8438 17.2266V17.1992C76.862 17.0352 77.6549 16.9714 79.2227 17.0078C79.8607 16.9896 80.1979 16.9349 80.2344 16.8438L80.2617 16.8164L79.9883 16.7617C77.8372 16.5794 76.7253 16.707 76.6523 17.1445L76.4336 17.1992C75.8138 17.1263 75.6042 16.4427 75.8047 15.1484C75.8594 14.8203 76.5977 14.6836 78.0195 14.7383C78.0195 14.7018 78.1198 14.7018 78.3203 14.7383L78.8398 14.9297L79.0859 14.957L83.625 14.9844ZM82.9961 15.3398L82.832 15.3672L82.8047 15.4492L83.0508 15.4766H83.2148L83.2422 15.3945L82.9961 15.3398ZM81.5742 15.4766L81.9297 15.5312C82.0938 15.5677 82.2031 15.5404 82.2578 15.4492V15.4219H82.1758C81.793 15.4036 81.5924 15.4219 81.5742 15.4766ZM80.0977 15.4766V15.5586H80.1523C80.3164 15.5951 80.4167 15.5677 80.4531 15.4766V15.4492H80.3438C80.2161 15.431 80.1341 15.4401 80.0977 15.4766ZM81.793 16.0781L82.3672 16.1875C82.9688 16.2422 83.306 16.2057 83.3789 16.0781V16.0234L83.2422 15.9688C82.3125 15.9505 81.8294 15.987 81.793 16.0781ZM78.7852 15.5312L78.7578 15.6406H78.8125C79.2135 15.6953 79.5143 15.6589 79.7148 15.5312V15.5039L79.6602 15.4766C79.4961 15.4583 79.2044 15.4766 78.7852 15.5312ZM76.3516 15.1484L76.2695 15.2305L76.1875 15.5586L76.2695 15.6406V15.668C76.3242 15.668 76.3971 15.5586 76.4883 15.3398V15.2305L76.4609 15.1484H76.3516ZM77.1992 15.2578L77.0625 15.3672L77.0352 15.3945L77.1992 15.4219L77.2539 15.3672L77.2812 15.2852L77.1992 15.2578ZM81.2734 16.0234H81.1914V16.0781L81.3555 16.1328L81.2734 16.0234ZM80.8086 16.7891V16.8164H80.8359C82.4401 17.0169 83.2604 17.0716 83.2969 16.9805V16.9531C83.2969 16.8984 83.2513 16.8255 83.1602 16.7344H83.1328C82.5677 16.6615 81.793 16.6797 80.8086 16.7891ZM76.2148 15.8867L76.1328 15.9414V16.0234H76.1875L76.2695 15.9688V15.9141L76.2148 15.8867ZM83.8438 11.5938L83.9531 11.6211C84.099 11.6393 84.0169 12.3503 83.707 13.7539L83.7344 13.7812C83.6797 13.9635 82.75 13.8906 80.9453 13.5625C78.8672 13.4531 77.5 13.3255 76.8438 13.1797L76.8711 13.0977C76.9258 12.9518 77.7096 12.9792 79.2227 13.1797C79.8971 13.2161 80.2526 13.1888 80.2891 13.0977V13.0703L80.043 13.0156C77.9102 12.5964 76.7891 12.6055 76.6797 13.043L76.4609 13.0977C75.8594 12.9518 75.7227 12.2591 76.0508 11.0195C76.1237 10.6914 76.8711 10.6185 78.293 10.8008C78.3112 10.7826 78.4115 10.7826 78.5938 10.8008L79.0859 11.0469L79.3047 11.1016L83.8438 11.5938ZM83.1602 11.8945H82.9961L82.9688 11.9492L83.2148 12.0312H83.4062V11.9766L83.1602 11.8945ZM81.7656 11.8945L82.0938 11.9766C82.276 12.013 82.3854 11.9857 82.4219 11.8945L82.3672 11.8672C81.9661 11.8125 81.7656 11.8216 81.7656 11.8945ZM80.2891 11.7578V11.8125C80.4714 11.8672 80.5898 11.8581 80.6445 11.7852L80.6719 11.7305L80.5078 11.7031C80.3984 11.6849 80.3255 11.7031 80.2891 11.7578ZM81.9297 12.4961L82.4766 12.6328C83.0417 12.7604 83.3698 12.7695 83.4609 12.6602L83.4883 12.5781L83.3789 12.5234C82.4492 12.4141 81.9661 12.4049 81.9297 12.4961ZM78.9766 11.6484L78.9492 11.7578L78.9766 11.7852C79.3047 11.8581 79.6146 11.849 79.9062 11.7578V11.7305L79.8516 11.7031C79.6328 11.6484 79.3411 11.6302 78.9766 11.6484ZM76.5977 11.0469L76.4883 11.1016L76.3789 11.457L76.4609 11.5391C76.5156 11.5391 76.5977 11.4388 76.707 11.2383L76.7344 11.1289L76.6523 11.0469H76.5977ZM77.418 11.2383L77.2539 11.293V11.3477L77.418 11.4023L77.5 11.3203V11.293L77.418 11.2383ZM81.4102 12.3867H81.3555L81.3281 12.4414L81.4648 12.4961L81.4102 12.3867ZM80.8906 13.0977L80.8633 13.1523H80.8906C82.4766 13.5169 83.2878 13.6445 83.3242 13.5352L83.3516 13.5078C83.3516 13.4349 83.2969 13.3529 83.1875 13.2617H83.1602C82.5951 13.1341 81.8385 13.0794 80.8906 13.0977ZM76.3789 11.7852H76.2695V11.8945H76.3516L76.4336 11.8398L76.4609 11.7852H76.3789Z" fill="black"/>
</svg>
