<svg width="100" height="21" viewBox="0 0 100 21" fill="none" xmlns="http://www.w3.org/2000/svg">
<path d="M0.980469 1.05078L1.0625 0.996094C2.0651 1.10547 3.79688 1.2513 6.25781 1.43359C6.56771 1.57943 7.91667 1.77083 10.3047 2.00781C11.2344 2.22656 11.6992 2.47266 11.6992 2.74609C11.6263 3.0013 11.3255 3.44792 10.7969 4.08594C10.7969 4.14062 10.3776 4.69661 9.53906 5.75391C9.53906 5.91797 9.04688 6.44661 8.0625 7.33984L7.76172 7.75V7.83203C8.03516 7.83203 8.6276 7.74089 9.53906 7.55859C9.84896 7.55859 10.6237 7.93229 11.8633 8.67969C12.1914 9.04427 12.5195 9.75521 12.8477 10.8125V11.1133C12.8477 13.5378 12.638 15.0417 12.2188 15.625C11.8724 16.6276 10.9245 17.6667 9.375 18.7422C8.42708 19.1979 7.04167 19.6263 5.21875 20.0273C5 20.1003 4.63542 20.1367 4.125 20.1367H3.93359L3.76953 20.1914C2.93099 20.1914 2.22917 20 1.66406 19.6172V19.5352C1.71875 19.4987 1.90104 19.125 2.21094 18.4141H2.26562H2.83984H3.14062C4.6901 18.4141 5.875 18.0039 6.69531 17.1836L9.04688 15.6797C9.9401 14.8776 10.4323 14.3034 10.5234 13.957C10.888 13.3737 11.0703 12.4167 11.0703 11.0859C11.0521 10.9036 11.0247 10.8125 10.9883 10.8125L11.0703 10.5938C11.0703 10.2292 10.888 9.9375 10.5234 9.71875C10.3776 9.35417 10.0951 9.17188 9.67578 9.17188H8.99219C8.6276 9.17188 8.44531 9.21745 8.44531 9.30859V9.36328C9.19271 9.36328 9.77604 9.54557 10.1953 9.91016V9.96484L10.1133 10.0195C9.94922 10.0195 9.72135 9.89193 9.42969 9.63672L9.18359 9.60938C7.81641 9.60938 6.14844 10.0742 4.17969 11.0039L3.90625 11.168L3.76953 11.1133V10.8945C3.76953 10.7669 3.67839 10.612 3.49609 10.4297V10.4023C3.49609 10.3477 3.70573 9.85547 4.125 8.92578C4.19792 8.61589 4.36198 8.30599 4.61719 7.99609L5.73828 6.30078C6.15755 5.38932 6.55859 4.83333 6.94141 4.63281C7.10547 4.45052 7.1875 4.27734 7.1875 4.11328V4.03125C6.98698 3.88542 6.8138 3.8125 6.66797 3.8125L1.55469 3.70312C1.39062 3.70312 1.29036 3.54818 1.25391 3.23828V3.12891L1.28125 3.01953V2.91016C1.22656 2.76432 1.1263 2.14453 0.980469 1.05078ZM2.10156 1.35156L1.99219 1.46094V1.73438H2.04688H2.40234H2.45703L3.14062 1.78906L3.25 1.67969C2.92188 1.46094 2.53906 1.35156 2.10156 1.35156ZM1.33594 1.78906C1.3724 1.88021 1.44531 1.92578 1.55469 1.92578L1.60938 1.84375V1.78906L1.52734 1.67969H1.41797C1.36328 1.67969 1.33594 1.71615 1.33594 1.78906ZM4.78125 1.87109H4.69922V1.92578H4.72656L4.78125 1.87109ZM9.97656 2.22656H9.375C9.375 2.33594 9.54818 2.39974 9.89453 2.41797H9.94922L10.0586 2.33594V2.30859L9.97656 2.22656ZM3.6875 2.39062C4.65365 2.5 5.72005 2.55469 6.88672 2.55469H7.21484C7.21484 2.42708 6.54948 2.33594 5.21875 2.28125H4.48047C3.95182 2.28125 3.6875 2.31771 3.6875 2.39062ZM2.26562 2.39062L2.15625 2.41797C2.15625 2.58203 2.61198 2.69141 3.52344 2.74609L3.57812 2.71875V2.66406C3.34115 2.48177 2.94922 2.39062 2.40234 2.39062H2.26562ZM10.8789 2.71875V2.74609C10.8971 2.81901 10.9701 2.85547 11.0977 2.85547H11.207C11.2799 2.85547 11.3438 2.81901 11.3984 2.74609C11.3984 2.63672 11.2891 2.58203 11.0703 2.58203C10.9974 2.61849 10.9336 2.66406 10.8789 2.71875ZM4.04297 2.63672L4.01562 2.66406V2.69141C4.01562 2.78255 4.33464 2.82812 4.97266 2.82812H5.95703C5.95703 2.71875 5.31901 2.65495 4.04297 2.63672ZM7.40625 2.85547H6.69531V2.91016L8.0625 3.12891L9.42969 3.01953V2.96484C9.08333 2.89193 8.40885 2.85547 7.40625 2.85547ZM1.71875 3.07422V3.12891C1.71875 3.27474 2.09245 3.34766 2.83984 3.34766H3.96094V3.26562C3.96094 3.19271 3.56901 3.14714 2.78516 3.12891C2.78516 3.03776 2.55729 2.98307 2.10156 2.96484H1.99219C1.82812 2.96484 1.73698 3.0013 1.71875 3.07422ZM5 3.26562H4.42578C4.42578 3.35677 4.66276 3.40234 5.13672 3.40234H5.21875C5.21875 3.3112 5.14583 3.26562 5 3.26562ZM10.3047 3.62109L10.0586 3.8125C10.1133 4.06771 10.2044 4.19531 10.332 4.19531C10.4596 4.04948 10.5234 3.92188 10.5234 3.8125V3.67578L10.4688 3.62109H10.3047ZM7.76172 4.00391L7.70703 4.08594V4.14062H7.87109L7.92578 4.08594V4.00391H7.76172ZM7.92578 4.60547V4.6875H7.98047C8.19922 4.6875 8.3724 4.52344 8.5 4.19531L8.44531 4.16797H8.41797C8.08984 4.25911 7.92578 4.40495 7.92578 4.60547ZM9.97656 4.55078H9.83984V4.63281H9.92188L9.97656 4.60547V4.55078ZM9.70312 4.79688H9.64844V4.87891H9.70312V4.79688ZM8.0625 6.51953L8.03516 6.60156L8.08984 6.68359C8.47266 6.59245 8.85547 6.28255 9.23828 5.75391L9.375 5.39844L9.34766 5.37109H9.18359C8.96484 5.37109 8.59115 5.75391 8.0625 6.51953ZM6.61328 6.57422H6.66797C6.94141 6.41016 7.07812 6.22786 7.07812 6.02734V6H7.02344C6.75 6.07292 6.61328 6.26432 6.61328 6.57422ZM7.1875 6.46484V6.57422H7.26953C7.39714 6.46484 7.46094 6.36458 7.46094 6.27344L7.43359 6.24609C7.36068 6.28255 7.27865 6.35547 7.1875 6.46484ZM7.89844 6.875L7.81641 6.95703V7.09375H7.89844L7.95312 7.03906V6.875H7.89844ZM5 7.83203V7.88672L5.05469 7.94141H5.30078L5.82031 7.53125L5.84766 7.36719V7.3125L5.79297 7.25781H5.73828C5.44661 7.33073 5.20052 7.52214 5 7.83203ZM7.46094 8.73438V8.76172H7.48828L8.60938 8.40625C9.5026 8.4974 10.0404 8.57031 10.2227 8.625C10.3138 8.625 10.3685 8.58854 10.3867 8.51562H10.4141C10.8698 8.86198 11.2253 9.03516 11.4805 9.03516H11.5898L11.6172 8.95312V8.92578C11.6172 8.72526 10.9883 8.47005 9.73047 8.16016C9.67578 8.16016 9.62109 8.08724 9.56641 7.94141L9.42969 7.83203H9.34766C8.91016 7.83203 8.45443 8.05078 7.98047 8.48828C7.65234 8.57943 7.47917 8.66146 7.46094 8.73438ZM6.96875 7.94141H6.94141V8.05078L6.96875 8.07812H7.07812V8.05078L6.96875 7.94141ZM4.61719 8.76172V8.84375H4.64453C4.88151 8.71615 5.05469 8.50651 5.16406 8.21484H5.10938C4.94531 8.30599 4.78125 8.48828 4.61719 8.76172ZM5.49219 8.84375V9.00781H5.60156C5.82031 9.00781 5.98438 8.83464 6.09375 8.48828L6.01172 8.40625C5.82943 8.47917 5.65625 8.625 5.49219 8.84375ZM5.71094 9.71875V9.74609H5.79297C7.01432 9.45443 7.625 9.24479 7.625 9.11719V9.08984H7.54297C6.95964 9.14453 6.34896 9.35417 5.71094 9.71875ZM4.42578 9.80078V9.88281L4.45312 9.91016V9.96484C5.05469 9.85547 5.51042 9.68229 5.82031 9.44531V9.41797L5.73828 9.30859C5.11849 9.4362 4.68099 9.60026 4.42578 9.80078ZM11.5078 9.30859H11.207V9.36328C11.2982 9.61849 11.4258 9.74609 11.5898 9.74609H11.7812C11.9635 9.74609 12.0729 9.70052 12.1094 9.60938C11.9453 9.40885 11.7448 9.30859 11.5078 9.30859ZM11.8906 10.0469L11.8633 10.1289V10.1562C11.8633 10.3021 12.0091 10.5755 12.3008 10.9766L12.2734 11.4961V12.125C12.2734 12.3255 12.3099 12.4349 12.3828 12.4531H12.4375L12.4922 11.8516V10.8945C12.4922 10.5846 12.3281 10.3021 12 10.0469H11.8906ZM3.96094 10.375V10.4023L4.01562 10.4844H4.26172C4.42578 10.4844 4.51693 10.4479 4.53516 10.375V10.293C4.4987 10.2018 4.42578 10.1562 4.31641 10.1562H4.26172C4.15234 10.1562 4.05208 10.2292 3.96094 10.375ZM10.7148 10.375V10.293L10.8789 10.4844H10.8242L10.7148 10.375ZM11.3711 11.0312H11.3164V11.0859L11.3711 11.168H11.4258V11.0859L11.3711 11.0312ZM11.207 12.5352V12.6445L11.2617 12.7266C11.4805 12.362 11.5898 12.043 11.5898 11.7695V11.4414H11.5078C11.3073 11.6784 11.207 12.043 11.207 12.5352ZM12.4375 12.7266L12.1641 13.2461C12.1823 13.319 12.2279 13.3737 12.3008 13.4102H12.3555C12.4831 13.3555 12.5469 13.237 12.5469 13.0547C12.5286 12.8359 12.4922 12.7266 12.4375 12.7266ZM11.3711 14.0391V14.0938H11.4805L11.6172 13.9297V13.7656H11.5352C11.4258 13.8385 11.3711 13.9297 11.3711 14.0391ZM11.125 14.9414L11.207 14.9688L11.7539 14.6133V14.5586L11.6719 14.5039H11.6172C11.4714 14.5039 11.3073 14.6497 11.125 14.9414ZM9.94922 15.7891H10.0586C10.2409 15.7891 10.4323 15.6797 10.6328 15.4609V15.4062L10.5234 15.1055L10.6328 14.832C10.4688 14.832 10.3047 15.0417 10.1406 15.4609C10.013 15.5885 9.94922 15.6979 9.94922 15.7891ZM11.8633 15.0234L11.7812 15.1055V15.1328H11.8906V15.0234H11.8633ZM10.8789 15.8984V15.9531L11.0703 15.9805H11.2617C11.5352 15.9622 11.6719 15.8529 11.6719 15.6523C11.6354 15.5612 11.5716 15.5156 11.4805 15.5156C11.2982 15.5156 11.0977 15.6432 10.8789 15.8984ZM6.61328 17.7031H6.69531C8.33594 17.0104 9.15625 16.5091 9.15625 16.1992H8.99219C8.60938 16.3451 7.95312 16.737 7.02344 17.375C6.75 17.5573 6.61328 17.6667 6.61328 17.7031ZM10.9336 16.582V16.6094H11.0703C11.125 16.6094 11.1888 16.5273 11.2617 16.3633L11.207 16.3086C11.0247 16.3633 10.9336 16.4544 10.9336 16.582ZM10.6328 16.3633L10.5234 16.4727V16.5H10.6602L10.7422 16.4453L10.6602 16.3633H10.6328ZM9.92188 17.457H9.94922C10.1315 17.457 10.3411 17.3659 10.5781 17.1836C10.5781 17.1289 10.5417 17.1016 10.4688 17.1016C10.1042 17.1927 9.92188 17.3112 9.92188 17.457ZM7.81641 17.9219V17.9766H7.87109C8.25391 17.8672 8.44531 17.7669 8.44531 17.6758V17.6484H8.41797C8.19922 17.6484 7.9987 17.7396 7.81641 17.9219ZM9.53906 17.8945L9.42969 17.9766V18.0586H9.62109L9.70312 17.9492V17.8945H9.53906ZM3.08594 18.7422L3.16797 18.8242H3.63281L3.74219 18.7422C3.74219 18.6875 3.64193 18.6602 3.44141 18.6602C3.20443 18.6602 3.08594 18.6875 3.08594 18.7422ZM5.60156 18.6602L5.54688 18.7422V18.8242C5.69271 18.8242 5.78385 18.7786 5.82031 18.6875V18.6602H5.60156ZM7.81641 19.0156L7.87109 19.0703H7.89844C8.24479 18.9609 8.46354 18.8607 8.55469 18.7695L8.5 18.6602H8.33594C7.98958 18.7331 7.81641 18.8516 7.81641 19.0156ZM2.51172 18.8789L2.40234 18.9609V19.0156H2.67578L2.75781 18.9609L2.67578 18.8789H2.51172ZM4.72656 19.4531L3.76953 19.5352L3.16797 19.3984H2.94922C2.56641 19.4349 2.375 19.5078 2.375 19.6172V19.6445C2.375 19.7357 2.95833 19.8177 4.125 19.8906C4.61719 19.8906 5.35547 19.6901 6.33984 19.2891L6.39453 19.2617V19.1523H6.33984C6.12109 19.1523 5.58333 19.2526 4.72656 19.4531ZM20.2305 2.74609H20.2852C23.1107 2.78255 24.5234 2.84635 24.5234 2.9375C24.5052 3.01042 24.4049 3.09245 24.2227 3.18359V3.32031L24.332 3.62109L24.2227 4.00391V4.05859L24.25 4.11328L24.168 4.19531V4.22266L23.7852 3.94922H23.7031C23.7031 4.20443 23.3932 4.33203 22.7734 4.33203L22.0898 4.22266C19.6654 4.40495 18.207 4.54167 17.7148 4.63281C17.5326 4.8151 17.3503 5.64453 17.168 7.12109C16.9857 7.66797 16.8945 8.15104 16.8945 8.57031H16.9766V8.59766C17.4688 8.57943 17.7148 8.48828 17.7148 8.32422C17.5508 8.26953 17.4414 8.1875 17.3867 8.07812V8.02344C17.3867 7.65885 18.043 7.43099 19.3555 7.33984H19.5469C20.513 7.33984 21.2057 7.64062 21.625 8.24219C22.3906 8.71615 22.974 9.14453 23.375 9.52734L23.7031 9.88281V9.91016H23.6758L23.0742 9.52734H22.9922V9.55469C23.1562 9.97396 23.3294 10.1927 23.5117 10.2109C23.5117 10.2656 23.5846 10.293 23.7305 10.293L24.0039 10.2656C24.1315 10.375 24.1953 10.4753 24.1953 10.5664C24.013 10.5846 23.9219 10.6302 23.9219 10.7031C23.9401 10.8307 24.1224 10.9948 24.4688 11.1953C24.5964 11.1953 24.6602 11.5508 24.6602 12.2617V13.2734C24.9518 13.9844 24.9427 14.6497 24.6328 15.2695L24.5781 15.2969H24.4961C24.3685 15.2422 24.2773 15.0872 24.2227 14.832C24.2591 14.6315 24.3229 14.4948 24.4141 14.4219L24.3047 14.3398C24.0677 14.3398 23.8581 14.6497 23.6758 15.2695V15.3242C23.6758 15.3971 23.776 15.4336 23.9766 15.4336V15.4609V15.543C23.5573 16.4544 23.0469 17.1562 22.4453 17.6484C22.2812 17.7214 22.0898 18.0404 21.8711 18.6055V18.6602C22.0352 18.6602 22.5 18.2409 23.2656 17.4023C23.5938 16.8372 23.9583 16.3086 24.3594 15.8164L24.4141 15.8438V15.9258C24.013 16.6367 23.6029 17.2474 23.1836 17.7578C21.8529 18.9609 20.6771 19.7174 19.6562 20.0273C17.6875 20.2279 16.4023 20.3281 15.8008 20.3281C15.6367 20.2552 15.0078 20.1914 13.9141 20.1367H13.8867V20.082L14.2148 18.7695C14.2148 18.3138 14.4701 18.0859 14.9805 18.0859L15.1172 18.0586C15.4635 18.2591 15.6458 18.3594 15.6641 18.3594H15.8008C15.9831 18.3594 16.2839 18.332 16.7031 18.2773C17.1224 18.2227 17.3685 18.1953 17.4414 18.1953C18.0247 18.3958 19.0729 18.0221 20.5859 17.0742C21.6615 16.2174 22.3359 15.5339 22.6094 15.0234C23.0286 14.4766 23.0833 13.8568 22.7734 13.1641C22.7734 11.888 22.5 11.013 21.9531 10.5391C21.7891 10.2292 21.3151 9.92839 20.5312 9.63672C20.112 9.38151 19.6836 9.25391 19.2461 9.25391H19.1367C18.5169 9.25391 17.4505 9.52734 15.9375 10.0742L15.4727 10.1562L15.3633 10.0469V9.9375C15.4544 9.9375 15.5365 9.38151 15.6094 8.26953C15.8281 7.90495 16.0104 6.63802 16.1562 4.46875C16.1745 3.70312 16.2474 3.32031 16.375 3.32031L16.4297 3.26562V3.21094L16.375 2.9375H16.4297C16.5208 3.01042 16.7031 3.04688 16.9766 3.04688C17.25 3.04688 18.3346 2.94661 20.2305 2.74609ZM23.2656 3.21094V3.26562C23.3021 3.35677 23.4115 3.40234 23.5938 3.40234H23.7031C23.8854 3.40234 23.9766 3.32031 23.9766 3.15625L23.8672 3.10156H23.5117C23.4023 3.10156 23.3203 3.13802 23.2656 3.21094ZM16.7031 3.73047L16.6211 3.86719V3.89453L16.7031 4.00391C18.9271 3.7487 20.0391 3.54818 20.0391 3.40234H19.9844C17.7969 3.56641 16.7031 3.67578 16.7031 3.73047ZM21.625 3.62109L20.832 3.67578V3.78516L21.4609 3.8125C21.7344 3.8125 21.8711 3.77604 21.8711 3.70312C21.8346 3.64844 21.7526 3.62109 21.625 3.62109ZM16.8125 4.49609L16.7578 4.57812V5.37109L16.8125 5.42578C16.8672 5.29818 16.8945 5.11589 16.8945 4.87891V4.57812L16.8398 4.49609H16.8125ZM16.7031 6.30078H16.6211V6.35547H16.7031V6.30078ZM19.5469 8.07812V8.13281H19.6016H20.3398C20.9596 8.13281 21.2695 8.10547 21.2695 8.05078C21.2695 7.95964 20.9141 7.89583 20.2031 7.85938L19.5469 8.07812ZM18.4258 8.07812V8.13281L18.5625 8.24219H18.6992L19.0547 8.13281V8.05078L18.5625 7.99609C18.4714 8.03255 18.4258 8.0599 18.4258 8.07812ZM19.7383 8.70703C19.793 8.87109 19.9844 8.95312 20.3125 8.95312H20.4766C20.5677 8.95312 20.6589 8.89844 20.75 8.78906V8.625C20.7318 8.57031 20.6406 8.54297 20.4766 8.54297H20.0664C19.9023 8.54297 19.793 8.59766 19.7383 8.70703ZM17.332 9.03516V9.0625L17.4414 9.14453C17.5872 9.14453 17.6966 9.08073 17.7695 8.95312V8.92578L17.6328 8.87109C17.4323 8.90755 17.332 8.96224 17.332 9.03516ZM15.9375 9.08984L15.8008 9.22656V9.52734L15.9102 9.60938H16.2109V9.52734C16.2109 9.32682 16.138 9.18099 15.9922 9.08984H15.9375ZM21.1055 9.19922H21.0781V9.30859L21.2148 9.41797H21.2695C21.2878 9.41797 21.2969 9.38151 21.2969 9.30859C21.2969 9.23568 21.2331 9.19922 21.1055 9.19922ZM23.3203 10.4297L23.0742 10.1562V10.2109C23.0742 10.3568 23.138 10.4661 23.2656 10.5391H23.3203V10.4297ZM22.8008 10.6211H22.7734V10.7031L22.8828 10.7852H22.9102V10.7578L22.8008 10.6211ZM23.0742 11.0859L22.9922 11.0039V11.0859L23.0469 11.168L23.0742 11.1133V11.0859ZM23.1562 11.4414H23.1016V11.5781L23.1836 11.6328H23.2383V11.5234L23.1562 11.4414ZM23.375 12.043L23.2656 12.125V12.1797H23.4297L23.4844 12.125V12.043H23.375ZM23.375 12.5625H23.2656L23.2383 12.8086V12.9727L23.375 12.8359V12.5625ZM24.0312 15.2148L24.0859 15.1602H24.2227V15.2148L24.0859 15.2969H24.0312V15.2148ZM24.3594 15.625L24.4688 15.5156L24.5781 15.543V15.5703L24.4688 15.707L24.3594 15.6523V15.625ZM18.3711 18.7695V18.8242C18.8451 18.6602 19.3919 18.5234 20.0117 18.4141C20.3945 18.1953 20.5859 18.013 20.5859 17.8672L20.5039 17.7578L21.9258 17.1836L21.8984 17.0195C22.3542 16.4909 22.582 16.1536 22.582 16.0078L22.5547 15.9805H22.5C22.3359 15.9805 21.5065 16.5911 20.0117 17.8125C19.7201 17.8125 19.1732 18.1315 18.3711 18.7695ZM16.8398 19.6445V19.7266L16.9492 19.7539C17.0951 19.7539 17.8789 19.7083 19.3008 19.6172C19.4648 19.6172 19.9297 19.3711 20.6953 18.8789C20.9323 18.6966 21.0508 18.5417 21.0508 18.4141V18.3867L21.0234 18.3047H20.9141C20.6406 18.3047 20.2122 18.5599 19.6289 19.0703C18.5352 19.3073 17.7695 19.4349 17.332 19.4531C17.0039 19.526 16.8398 19.5898 16.8398 19.6445ZM16.9492 18.6875L16.6211 18.7695V18.8516H16.9492L17.1133 18.7969V18.6875H16.9492ZM21.0234 18.9883L20.9688 19.0703V19.1523H21.0234L21.1055 19.0703V18.9883H21.0234ZM14.7891 19.4258L14.707 19.4805C14.7253 19.5534 14.7891 19.5898 14.8984 19.5898C15.0807 19.5898 15.181 19.5534 15.1992 19.4805L15.1172 19.4258H14.7891ZM15.3906 19.8086L15.4727 19.8633H15.5273C15.6732 19.8633 15.8919 19.8086 16.1836 19.6992L16.4844 19.7266C16.6667 19.6719 16.7578 19.5807 16.7578 19.4531V19.4258H16.6211C15.8008 19.5534 15.3906 19.681 15.3906 19.8086ZM40.4648 1.73438C40.8659 1.73438 41.6589 1.98047 42.8438 2.47266C44.4115 3.18359 45.1953 4.1862 45.1953 5.48047V6.4375C45.1953 7.07552 44.9766 7.75 44.5391 8.46094C44.3021 9.35417 44.0924 9.80078 43.9102 9.80078C43.1992 10.1289 42.8438 10.4206 42.8438 10.6758V10.9492C42.8438 11.5872 42.9167 12.2708 43.0625 13C43.0078 13.9661 42.8893 14.4492 42.707 14.4492C42.5612 14.4492 42.2422 14.6133 41.75 14.9414L41.4492 14.9688C41.1393 14.9688 40.9844 14.8047 40.9844 14.4766C40.6562 12.6172 40.4922 11.25 40.4922 10.375C40.4922 10.1927 40.9388 9.74609 41.832 9.03516C42.2695 8.59766 42.5339 8.2513 42.625 7.99609C42.8255 7.77734 42.944 7.66797 42.9805 7.66797L43.2266 7.75C43.3906 7.75 43.5365 7.38542 43.6641 6.65625V6.57422L43.3906 6.08203V5.97266H43.3633L43.4727 5.69922V5.34375C43.4727 5.14323 43.3268 4.92448 43.0352 4.6875C42.8893 4.32292 42.6615 4.14062 42.3516 4.14062C41.75 3.92188 41.0846 3.8125 40.3555 3.8125H40.082C39.0977 3.8125 38.1771 4.46875 37.3203 5.78125L36.2539 7.14844V7.23047C35.8893 7.70443 35.543 7.75911 35.2148 7.39453C34.8867 7.01172 34.7227 6.72917 34.7227 6.54688L35.0234 5.50781C35.2422 4.9974 35.6341 4.50521 36.1992 4.03125C37.293 3.13802 38.2227 2.5 38.9883 2.11719C39.444 1.86198 39.9362 1.73438 40.4648 1.73438ZM38.9883 2.52734V2.58203H39.2891C39.763 2.58203 40.1823 2.47266 40.5469 2.25391V2.17188L40.4648 2.11719H40.1914C39.7721 2.11719 39.3711 2.25391 38.9883 2.52734ZM41.5586 2.47266L41.4492 2.52734V2.58203C41.4492 2.63672 41.513 2.66406 41.6406 2.66406C41.8411 2.66406 41.9414 2.61849 41.9414 2.52734L41.8594 2.47266H41.5586ZM38.332 3.01953L38.4141 3.10156L38.7422 2.99219V2.85547H38.6875C38.5052 2.85547 38.3867 2.91016 38.332 3.01953ZM43.3633 3.15625L43.3359 3.21094C43.4635 3.46615 43.7096 3.66667 44.0742 3.8125H44.2109V3.78516C44.2109 3.65755 43.9284 3.44792 43.3633 3.15625ZM36.582 4.19531C36.9284 4.19531 37.3021 3.99479 37.7031 3.59375C37.9036 3.5026 38.0039 3.4388 38.0039 3.40234V3.375L37.8125 3.21094H37.7852C37.694 3.21094 37.3568 3.41146 36.7734 3.8125C36.6458 3.86719 36.582 3.99479 36.582 4.19531ZM40.1641 3.21094H40.082V3.26562H40.1641V3.21094ZM36.2539 4.44141L36.1445 4.60547V4.63281H36.1719C36.263 4.59635 36.3086 4.53255 36.3086 4.44141H36.2539ZM44.6758 4.87891H44.6211V4.90625C44.6211 5.05208 44.6758 5.13411 44.7852 5.15234H44.8125V5.125C44.8125 4.9974 44.7669 4.91536 44.6758 4.87891ZM36.9375 5.23438V5.28906H36.9922C37.0833 5.2526 37.1471 5.17969 37.1836 5.07031V5.01562L37.1289 4.96094C37.0013 5.01562 36.9375 5.10677 36.9375 5.23438ZM35.4062 5.69922V5.75391L35.5156 5.78125C35.7708 5.63542 35.8984 5.47135 35.8984 5.28906V5.17969H35.8164C35.543 5.36198 35.4062 5.53516 35.4062 5.69922ZM35.8164 6.35547L35.7344 6.38281V6.46484H35.8164L35.8984 6.38281V6.35547H35.8164ZM35.9531 7.64062H35.9805V7.72266H35.9531V7.64062ZM43.3086 7.91406H43.1445V8.05078H43.2266L43.3086 7.94141V7.91406ZM43.3633 9.19922V9.28125H43.418C43.6003 9.28125 43.7005 9.22656 43.7188 9.11719L43.6641 9.08984H43.6367C43.4544 9.10807 43.3633 9.14453 43.3633 9.19922ZM41.1758 10.5664V10.6484C41.1758 11.0677 41.3034 11.2773 41.5586 11.2773C41.5768 11.2773 41.6042 11.2044 41.6406 11.0586C41.6224 10.5117 41.5768 10.2383 41.5039 10.2383H41.3672C41.2396 10.2565 41.1758 10.3659 41.1758 10.5664ZM42.2969 11.1953L42.2422 11.2773H42.3516V11.1953H42.2969ZM41.4492 11.6055L41.3672 11.7148V11.7695C41.3672 11.9336 41.431 12.0247 41.5586 12.043H41.6133L41.6406 11.8789C41.6406 11.7695 41.5768 11.6784 41.4492 11.6055ZM41.75 13.4922L41.6133 13.6562L41.7227 13.9844L41.6133 14.4492H41.7773C41.9049 14.4492 42.0143 14.3763 42.1055 14.2305V14.1211C42.0326 14.0664 41.9961 13.8932 41.9961 13.6016L41.8594 13.4922H41.75ZM42.1328 16.418C42.4427 16.418 42.9349 16.6094 43.6094 16.9922C43.8828 17.0651 44.0195 17.1289 44.0195 17.1836C44.0195 17.2565 43.8555 17.3203 43.5273 17.375V17.4023V17.457L43.6641 17.9219C43.9922 18.7422 43.8008 19.3984 43.0898 19.8906C41.9414 19.9089 41.1667 19.3529 40.7656 18.2227L40.6562 17.8125C40.6562 17.4115 41.1484 16.9466 42.1328 16.418ZM42.1328 16.8828H41.9414V16.9102C42.0143 17.0195 42.2969 17.138 42.7891 17.2656L42.8438 17.2109V17.1562C42.6797 16.974 42.4427 16.8828 42.1328 16.8828ZM41.75 18.0586C41.75 18.0768 41.832 18.1315 41.9961 18.2227C42.0326 18.332 42.069 18.3867 42.1055 18.3867H42.1328L42.4609 17.9766C42.4609 17.8672 42.4062 17.7852 42.2969 17.7305H41.8594C41.7865 17.7487 41.75 17.8581 41.75 18.0586ZM61.6562 1.1875L62.2578 1.10547C62.8594 1.10547 63.7982 1.32422 65.0742 1.76172C65.7487 2.10807 66.0859 2.33594 66.0859 2.44531C66.7057 3.0651 67.0156 3.54818 67.0156 3.89453L67.4531 5.50781C67.2708 6.20052 66.8789 7.19401 66.2773 8.48828C65.5117 9.1263 64.3815 9.88281 62.8867 10.7578C61.6654 11.888 60.8633 12.4714 60.4805 12.5078L59.332 13.5469C57.6914 14.9688 56.8529 15.7161 56.8164 15.7891C56.6523 16.1354 56.5065 16.582 56.3789 17.1289V17.1836C56.3789 17.3294 56.8255 17.4297 57.7188 17.4844V17.5938L56.8438 17.6484V17.7578C58.4297 18.0312 59.4961 18.168 60.043 18.168C60.0065 18.1133 59.3503 17.931 58.0742 17.6211V17.5391H58.1016C58.4479 17.5391 59.1771 17.6758 60.2891 17.9492L61.8203 18.0586L63.1328 17.9219H63.8164C65.0195 17.9948 65.6758 18.1589 65.7852 18.4141L66.6055 18.6602L66.7695 18.7695V18.8789L66.332 18.9883V19.0156L66.4414 19.1523H66.4961L66.8789 19.0977V19.1523C66.8424 19.9544 66.7878 20.3555 66.7148 20.3555L63.5156 20.2461H62.8594C62.4036 20.2461 61.7839 20.2917 61 20.3828C58.2474 20.0547 56.3333 19.8906 55.2578 19.8906C54.9297 19.8177 54.7656 19.6536 54.7656 19.3984C54.638 19.0703 54.5742 18.6602 54.5742 18.168V17.3477C54.5742 15.7617 54.7565 14.7591 55.1211 14.3398L55.8047 13.9023C55.9141 13.7018 55.9688 13.5378 55.9688 13.4102C57.1354 12.4622 57.7552 11.9883 57.8281 11.9883C58.3203 11.806 58.9948 11.3411 59.8516 10.5938H59.9883C59.7513 10.8854 59.5599 11.0312 59.4141 11.0312V11.1406H59.5781C59.8151 11.013 60.0521 10.8125 60.2891 10.5391V10.4844H60.1797V10.4023L62.1484 9.17188C63.151 8.47917 63.944 7.84115 64.5273 7.25781C64.9648 6.76562 65.2474 6.11849 65.375 5.31641C65.375 4.60547 65.0742 4.06771 64.4727 3.70312C64.2721 3.63021 63.4518 3.52995 62.0117 3.40234C62.0117 3.38411 61.8659 3.36589 61.5742 3.34766C60.9544 3.34766 60.3711 3.71224 59.8242 4.44141C59.6784 4.76953 59.6055 5.01562 59.6055 5.17969V5.37109H59.6602C59.6602 5.53516 59.3594 5.65365 58.7578 5.72656L57.6094 5.89062V5.91797L57.4453 5.89062H57.2266L56.543 5.97266L56.4883 5.86328C56.7435 4.60547 57.026 3.82161 57.3359 3.51172C58.375 2.5638 59.1042 2.07161 59.5234 2.03516C59.8333 1.76172 60.5443 1.47917 61.6562 1.1875ZM62.75 1.37891H62.4766V1.43359L62.6406 1.65234H62.8867L62.9961 1.51562V1.48828C62.9779 1.41536 62.8958 1.37891 62.75 1.37891ZM61 1.78906V1.84375H61.0273C61.7747 1.84375 62.1484 1.76172 62.1484 1.59766L62.0117 1.48828H61.6836C61.2279 1.59766 61 1.69792 61 1.78906ZM64.418 1.67969H64.3906V1.73438C64.3906 1.84375 64.6276 1.95312 65.1016 2.0625V2.03516C65.1016 1.92578 64.8737 1.80729 64.418 1.67969ZM59.9883 2.19922V2.28125H60.3438L60.4531 2.17188V2.14453L60.2891 2.11719C60.0885 2.15365 59.9883 2.18099 59.9883 2.19922ZM60.3711 3.23828L60.2891 3.34766V3.40234H60.4531L60.5352 3.29297V3.23828H60.3711ZM65.1289 3.29297L65.0742 3.34766V3.40234C65.1471 3.52995 65.2474 3.59375 65.375 3.59375H65.4023C65.457 3.59375 65.4844 3.55729 65.4844 3.48438C65.4844 3.39323 65.3841 3.32943 65.1836 3.29297H65.1289ZM65.5391 3.70312V3.75781C65.8672 3.79427 66.0312 3.9401 66.0312 4.19531L66.1953 4.38672V4.19531C66.1953 3.79427 66.0677 3.59375 65.8125 3.59375C65.6484 3.59375 65.5573 3.63021 65.5391 3.70312ZM59.4961 4.25L59.5508 4.30469H59.5781C59.8516 4.15885 59.9883 4.01302 59.9883 3.86719V3.83984H59.8789C59.806 3.83984 59.6784 3.97656 59.4961 4.25ZM58.7305 4.98828H58.5938V5.09766L58.7031 5.125H58.7305V4.98828ZM66.7148 5.91797L66.6055 6.05469V6.13672H66.6602L66.7422 6.05469V5.91797H66.7148ZM66.0859 7.01172H65.9492V7.14844C66.0768 7.14844 66.1406 7.20312 66.1406 7.3125H66.2227V7.14844L66.0859 7.01172ZM65.5938 7.99609L65.6211 8.05078V8.07812C65.7305 8.02344 65.8398 7.91406 65.9492 7.75V7.69531H65.8945C65.7669 7.76823 65.6667 7.86849 65.5938 7.99609ZM64.8555 8.54297H64.9102L65.2109 8.48828C65.2109 8.34245 65.1471 8.26953 65.0195 8.26953C64.9102 8.28776 64.8555 8.37891 64.8555 8.54297ZM64.8008 9.0625V9.11719C65.1471 9.08073 65.4661 8.88932 65.7578 8.54297L65.7031 8.48828C65.2839 8.70703 64.9831 8.89844 64.8008 9.0625ZM63.5703 9.58203L63.4883 9.60938V9.71875H63.543L63.625 9.63672L63.5703 9.60938V9.58203ZM59.3047 12.8633V12.9453H59.3867C59.4961 12.9453 59.7422 12.7812 60.125 12.4531C60.2161 12.4531 60.3073 12.3438 60.3984 12.125L60.4531 12.0977V12.0156H60.3711C60.1523 12.0156 59.7969 12.2982 59.3047 12.8633ZM57.582 12.7266V12.8086H57.6094C57.8464 12.8086 58.0378 12.6263 58.1836 12.2617H58.0469C57.737 12.5169 57.582 12.6719 57.582 12.7266ZM56.6797 13.2188H56.3242L56.3516 13.4922C56.0964 13.7474 55.9688 13.9115 55.9688 13.9844H56.0781C56.4062 13.8021 56.6341 13.5742 56.7617 13.3008V13.2461L56.6797 13.2188ZM58.7305 13.4922L58.5938 13.5742V13.6562H58.7031L58.8125 13.5469V13.4922H58.7305ZM56.543 15.0508V15.1602H56.625C56.8255 15.0143 56.9258 14.8685 56.9258 14.7227V14.6953H56.8438C56.6432 14.8047 56.543 14.9232 56.543 15.0508ZM55.8047 17.9766L55.7227 18.0586V18.168L55.8047 18.2773L55.8594 18.168V18.0586L55.8047 17.9766ZM56.543 18.0586L56.4336 18.1406L56.4883 18.168H56.8438V18.0859L56.6523 18.0586H56.543ZM63.9805 18.2773L63.7891 18.3047V18.332L63.8984 18.4414H64.2539L64.3359 18.3867V18.3047L63.9805 18.2773ZM55.0664 18.8242L54.957 18.8789V18.9062L55.0391 18.9883H55.0664L55.1484 18.9062L55.0664 18.8242ZM55.6406 19.3984V19.4258L55.8594 19.4531C56.1328 19.4167 56.2695 19.3802 56.2695 19.3438L56.2422 19.2891H55.8594C55.7135 19.3255 55.6406 19.362 55.6406 19.3984ZM64.5 19.6992H64.8008C65.056 19.6628 65.1836 19.6172 65.1836 19.5625L65.1016 19.4531H64.9375C64.8464 19.4531 64.7005 19.5352 64.5 19.6992ZM65.4844 19.8633L65.5938 19.918H65.8945C66.168 19.918 66.3047 19.8724 66.3047 19.7812V19.7539C66.3047 19.6992 66.2682 19.6719 66.1953 19.6719C65.7578 19.6901 65.5208 19.7539 65.4844 19.8633ZM74.918 2.74609H74.9727C77.7982 2.78255 79.2109 2.84635 79.2109 2.9375C79.1927 3.01042 79.0924 3.09245 78.9102 3.18359V3.32031L79.0195 3.62109L78.9102 4.00391V4.05859L78.9375 4.11328L78.8555 4.19531V4.22266L78.4727 3.94922H78.3906C78.3906 4.20443 78.0807 4.33203 77.4609 4.33203L76.7773 4.22266C74.3529 4.40495 72.8945 4.54167 72.4023 4.63281C72.2201 4.8151 72.0378 5.64453 71.8555 7.12109C71.6732 7.66797 71.582 8.15104 71.582 8.57031H71.6641V8.59766C72.1562 8.57943 72.4023 8.48828 72.4023 8.32422C72.2383 8.26953 72.1289 8.1875 72.0742 8.07812V8.02344C72.0742 7.65885 72.7305 7.43099 74.043 7.33984H74.2344C75.2005 7.33984 75.8932 7.64062 76.3125 8.24219C77.0781 8.71615 77.6615 9.14453 78.0625 9.52734L78.3906 9.88281V9.91016H78.3633L77.7617 9.52734H77.6797V9.55469C77.8438 9.97396 78.0169 10.1927 78.1992 10.2109C78.1992 10.2656 78.2721 10.293 78.418 10.293L78.6914 10.2656C78.819 10.375 78.8828 10.4753 78.8828 10.5664C78.7005 10.5846 78.6094 10.6302 78.6094 10.7031C78.6276 10.8307 78.8099 10.9948 79.1562 11.1953C79.2839 11.1953 79.3477 11.5508 79.3477 12.2617V13.2734C79.6393 13.9844 79.6302 14.6497 79.3203 15.2695L79.2656 15.2969H79.1836C79.056 15.2422 78.9648 15.0872 78.9102 14.832C78.9466 14.6315 79.0104 14.4948 79.1016 14.4219L78.9922 14.3398C78.7552 14.3398 78.5456 14.6497 78.3633 15.2695V15.3242C78.3633 15.3971 78.4635 15.4336 78.6641 15.4336V15.4609V15.543C78.2448 16.4544 77.7344 17.1562 77.1328 17.6484C76.9688 17.7214 76.7773 18.0404 76.5586 18.6055V18.6602C76.7227 18.6602 77.1875 18.2409 77.9531 17.4023C78.2812 16.8372 78.6458 16.3086 79.0469 15.8164L79.1016 15.8438V15.9258C78.7005 16.6367 78.2904 17.2474 77.8711 17.7578C76.5404 18.9609 75.3646 19.7174 74.3438 20.0273C72.375 20.2279 71.0898 20.3281 70.4883 20.3281C70.3242 20.2552 69.6953 20.1914 68.6016 20.1367H68.5742V20.082L68.9023 18.7695C68.9023 18.3138 69.1576 18.0859 69.668 18.0859L69.8047 18.0586C70.151 18.2591 70.3333 18.3594 70.3516 18.3594H70.4883C70.6706 18.3594 70.9714 18.332 71.3906 18.2773C71.8099 18.2227 72.056 18.1953 72.1289 18.1953C72.7122 18.3958 73.7604 18.0221 75.2734 17.0742C76.349 16.2174 77.0234 15.5339 77.2969 15.0234C77.7161 14.4766 77.7708 13.8568 77.4609 13.1641C77.4609 11.888 77.1875 11.013 76.6406 10.5391C76.4766 10.2292 76.0026 9.92839 75.2188 9.63672C74.7995 9.38151 74.3711 9.25391 73.9336 9.25391H73.8242C73.2044 9.25391 72.138 9.52734 70.625 10.0742L70.1602 10.1562L70.0508 10.0469V9.9375C70.1419 9.9375 70.224 9.38151 70.2969 8.26953C70.5156 7.90495 70.6979 6.63802 70.8438 4.46875C70.862 3.70312 70.9349 3.32031 71.0625 3.32031L71.1172 3.26562V3.21094L71.0625 2.9375H71.1172C71.2083 3.01042 71.3906 3.04688 71.6641 3.04688C71.9375 3.04688 73.0221 2.94661 74.918 2.74609ZM77.9531 3.21094V3.26562C77.9896 3.35677 78.099 3.40234 78.2812 3.40234H78.3906C78.5729 3.40234 78.6641 3.32031 78.6641 3.15625L78.5547 3.10156H78.1992C78.0898 3.10156 78.0078 3.13802 77.9531 3.21094ZM71.3906 3.73047L71.3086 3.86719V3.89453L71.3906 4.00391C73.6146 3.7487 74.7266 3.54818 74.7266 3.40234H74.6719C72.4844 3.56641 71.3906 3.67578 71.3906 3.73047ZM76.3125 3.62109L75.5195 3.67578V3.78516L76.1484 3.8125C76.4219 3.8125 76.5586 3.77604 76.5586 3.70312C76.5221 3.64844 76.4401 3.62109 76.3125 3.62109ZM71.5 4.49609L71.4453 4.57812V5.37109L71.5 5.42578C71.5547 5.29818 71.582 5.11589 71.582 4.87891V4.57812L71.5273 4.49609H71.5ZM71.3906 6.30078H71.3086V6.35547H71.3906V6.30078ZM74.2344 8.07812V8.13281H74.2891H75.0273C75.6471 8.13281 75.957 8.10547 75.957 8.05078C75.957 7.95964 75.6016 7.89583 74.8906 7.85938L74.2344 8.07812ZM73.1133 8.07812V8.13281L73.25 8.24219H73.3867L73.7422 8.13281V8.05078L73.25 7.99609C73.1589 8.03255 73.1133 8.0599 73.1133 8.07812ZM74.4258 8.70703C74.4805 8.87109 74.6719 8.95312 75 8.95312H75.1641C75.2552 8.95312 75.3464 8.89844 75.4375 8.78906V8.625C75.4193 8.57031 75.3281 8.54297 75.1641 8.54297H74.7539C74.5898 8.54297 74.4805 8.59766 74.4258 8.70703ZM72.0195 9.03516V9.0625L72.1289 9.14453C72.2747 9.14453 72.3841 9.08073 72.457 8.95312V8.92578L72.3203 8.87109C72.1198 8.90755 72.0195 8.96224 72.0195 9.03516ZM70.625 9.08984L70.4883 9.22656V9.52734L70.5977 9.60938H70.8984V9.52734C70.8984 9.32682 70.8255 9.18099 70.6797 9.08984H70.625ZM75.793 9.19922H75.7656V9.30859L75.9023 9.41797H75.957C75.9753 9.41797 75.9844 9.38151 75.9844 9.30859C75.9844 9.23568 75.9206 9.19922 75.793 9.19922ZM78.0078 10.4297L77.7617 10.1562V10.2109C77.7617 10.3568 77.8255 10.4661 77.9531 10.5391H78.0078V10.4297ZM77.4883 10.6211H77.4609V10.7031L77.5703 10.7852H77.5977V10.7578L77.4883 10.6211ZM77.7617 11.0859L77.6797 11.0039V11.0859L77.7344 11.168L77.7617 11.1133V11.0859ZM77.8438 11.4414H77.7891V11.5781L77.8711 11.6328H77.9258V11.5234L77.8438 11.4414ZM78.0625 12.043L77.9531 12.125V12.1797H78.1172L78.1719 12.125V12.043H78.0625ZM78.0625 12.5625H77.9531L77.9258 12.8086V12.9727L78.0625 12.8359V12.5625ZM78.7188 15.2148L78.7734 15.1602H78.9102V15.2148L78.7734 15.2969H78.7188V15.2148ZM79.0469 15.625L79.1562 15.5156L79.2656 15.543V15.5703L79.1562 15.707L79.0469 15.6523V15.625ZM73.0586 18.7695V18.8242C73.5326 18.6602 74.0794 18.5234 74.6992 18.4141C75.082 18.1953 75.2734 18.013 75.2734 17.8672L75.1914 17.7578L76.6133 17.1836L76.5859 17.0195C77.0417 16.4909 77.2695 16.1536 77.2695 16.0078L77.2422 15.9805H77.1875C77.0234 15.9805 76.194 16.5911 74.6992 17.8125C74.4076 17.8125 73.8607 18.1315 73.0586 18.7695ZM71.5273 19.6445V19.7266L71.6367 19.7539C71.7826 19.7539 72.5664 19.7083 73.9883 19.6172C74.1523 19.6172 74.6172 19.3711 75.3828 18.8789C75.6198 18.6966 75.7383 18.5417 75.7383 18.4141V18.3867L75.7109 18.3047H75.6016C75.3281 18.3047 74.8997 18.5599 74.3164 19.0703C73.2227 19.3073 72.457 19.4349 72.0195 19.4531C71.6914 19.526 71.5273 19.5898 71.5273 19.6445ZM71.6367 18.6875L71.3086 18.7695V18.8516H71.6367L71.8008 18.7969V18.6875H71.6367ZM75.7109 18.9883L75.6562 19.0703V19.1523H75.7109L75.793 19.0703V18.9883H75.7109ZM69.4766 19.4258L69.3945 19.4805C69.4128 19.5534 69.4766 19.5898 69.5859 19.5898C69.7682 19.5898 69.8685 19.5534 69.8867 19.4805L69.8047 19.4258H69.4766ZM70.0781 19.8086L70.1602 19.8633H70.2148C70.3607 19.8633 70.5794 19.8086 70.8711 19.6992L71.1719 19.7266C71.3542 19.6719 71.4453 19.5807 71.4453 19.4531V19.4258H71.3086C70.4883 19.5534 70.0781 19.681 70.0781 19.8086ZM98.9805 13.9844L99.0898 14.0117C99.1992 14.0482 99.1901 14.7773 99.0625 16.1992H99.0898C99.0716 16.3815 98.1328 16.3815 96.2734 16.1992C94.1953 16.3268 92.8372 16.3359 92.1992 16.2266V16.1992C92.2174 16.0352 93.0104 15.9714 94.5781 16.0078C95.2161 15.9896 95.5534 15.9349 95.5898 15.8438L95.6172 15.8164L95.3438 15.7617C93.1927 15.5794 92.0807 15.707 92.0078 16.1445L91.7891 16.1992C91.1693 16.1263 90.9596 15.4427 91.1602 14.1484C91.2148 13.8203 91.9531 13.6836 93.375 13.7383C93.375 13.7018 93.4753 13.7018 93.6758 13.7383L94.1953 13.9297L94.4414 13.957L98.9805 13.9844ZM98.3516 14.3398L98.1875 14.3672L98.1602 14.4492L98.4062 14.4766H98.5703L98.5977 14.3945L98.3516 14.3398ZM96.9297 14.4766L97.2852 14.5312C97.4492 14.5677 97.5586 14.5404 97.6133 14.4492V14.4219H97.5312C97.1484 14.4036 96.9479 14.4219 96.9297 14.4766ZM95.4531 14.4766V14.5586H95.5078C95.6719 14.5951 95.7721 14.5677 95.8086 14.4766V14.4492H95.6992C95.5716 14.431 95.4896 14.4401 95.4531 14.4766ZM97.1484 15.0781L97.7227 15.1875C98.3242 15.2422 98.6615 15.2057 98.7344 15.0781V15.0234L98.5977 14.9688C97.668 14.9505 97.1849 14.987 97.1484 15.0781ZM94.1406 14.5312L94.1133 14.6406H94.168C94.569 14.6953 94.8698 14.6589 95.0703 14.5312V14.5039L95.0156 14.4766C94.8516 14.4583 94.5599 14.4766 94.1406 14.5312ZM91.707 14.1484L91.625 14.2305L91.543 14.5586L91.625 14.6406V14.668C91.6797 14.668 91.7526 14.5586 91.8438 14.3398V14.2305L91.8164 14.1484H91.707ZM92.5547 14.2578L92.418 14.3672L92.3906 14.3945L92.5547 14.4219L92.6094 14.3672L92.6367 14.2852L92.5547 14.2578ZM96.6289 15.0234H96.5469V15.0781L96.7109 15.1328L96.6289 15.0234ZM96.1641 15.7891V15.8164H96.1914C97.7956 16.0169 98.6159 16.0716 98.6523 15.9805V15.9531C98.6523 15.8984 98.6068 15.8255 98.5156 15.7344H98.4883C97.9232 15.6615 97.1484 15.6797 96.1641 15.7891ZM91.5703 14.8867L91.4883 14.9414V15.0234H91.543L91.625 14.9688V14.9141L91.5703 14.8867ZM99.1992 10.5938L99.3086 10.6211C99.4544 10.6393 99.3724 11.3503 99.0625 12.7539L99.0898 12.7812C99.0352 12.9635 98.1055 12.8906 96.3008 12.5625C94.2227 12.4531 92.8555 12.3255 92.1992 12.1797L92.2266 12.0977C92.2812 11.9518 93.0651 11.9792 94.5781 12.1797C95.2526 12.2161 95.6081 12.1888 95.6445 12.0977V12.0703L95.3984 12.0156C93.2656 11.5964 92.1445 11.6055 92.0352 12.043L91.8164 12.0977C91.2148 11.9518 91.0781 11.2591 91.4062 10.0195C91.4792 9.69141 92.2266 9.61849 93.6484 9.80078C93.6667 9.78255 93.7669 9.78255 93.9492 9.80078L94.4414 10.0469L94.6602 10.1016L99.1992 10.5938ZM98.5156 10.8945H98.3516L98.3242 10.9492L98.5703 11.0312H98.7617V10.9766L98.5156 10.8945ZM97.1211 10.8945L97.4492 10.9766C97.6315 11.013 97.7409 10.9857 97.7773 10.8945L97.7227 10.8672C97.3216 10.8125 97.1211 10.8216 97.1211 10.8945ZM95.6445 10.7578V10.8125C95.8268 10.8672 95.9453 10.8581 96 10.7852L96.0273 10.7305L95.8633 10.7031C95.7539 10.6849 95.681 10.7031 95.6445 10.7578ZM97.2852 11.4961L97.832 11.6328C98.3971 11.7604 98.7253 11.7695 98.8164 11.6602L98.8438 11.5781L98.7344 11.5234C97.8047 11.4141 97.3216 11.4049 97.2852 11.4961ZM94.332 10.6484L94.3047 10.7578L94.332 10.7852C94.6602 10.8581 94.9701 10.849 95.2617 10.7578V10.7305L95.207 10.7031C94.9883 10.6484 94.6966 10.6302 94.332 10.6484ZM91.9531 10.0469L91.8438 10.1016L91.7344 10.457L91.8164 10.5391C91.8711 10.5391 91.9531 10.4388 92.0625 10.2383L92.0898 10.1289L92.0078 10.0469H91.9531ZM92.7734 10.2383L92.6094 10.293V10.3477L92.7734 10.4023L92.8555 10.3203V10.293L92.7734 10.2383ZM96.7656 11.3867H96.7109L96.6836 11.4414L96.8203 11.4961L96.7656 11.3867ZM96.2461 12.0977L96.2188 12.1523H96.2461C97.832 12.5169 98.6432 12.6445 98.6797 12.5352L98.707 12.5078C98.707 12.4349 98.6523 12.3529 98.543 12.2617H98.5156C97.9505 12.1341 97.194 12.0794 96.2461 12.0977ZM91.7344 10.7852H91.625V10.8945H91.707L91.7891 10.8398L91.8164 10.7852H91.7344Z" fill="black"/>
</svg>
