<svg width="102" height="22" viewBox="0 0 102 22" fill="none" xmlns="http://www.w3.org/2000/svg">
<path d="M4.66016 0.273438C5.69922 0.382812 6.21875 0.53776 6.21875 0.738281C6.21875 0.920573 6.28255 1.01172 6.41016 1.01172L6.49219 1.09375L6.19141 1.33984V1.44922H6.27344C6.36458 1.33984 6.4375 1.28516 6.49219 1.28516C6.58333 1.28516 6.62891 1.39453 6.62891 1.61328L6.875 9.10547C6.69271 9.88932 6.60156 11.4388 6.60156 13.7539V13.8633C6.60156 15.2669 6.63802 16.1784 6.71094 16.5977C6.5651 16.6523 6.49219 16.7708 6.49219 16.9531C6.49219 17.1901 6.53776 17.3086 6.62891 17.3086H6.71094V17.1172H6.76562C6.85677 17.1172 6.94792 17.5456 7.03906 18.4023L6.98438 18.4297H6.875C6.72917 18.2656 6.60156 18.1836 6.49219 18.1836V18.2383V18.3477C6.49219 18.6211 6.72917 18.7578 7.20312 18.7578C9.91927 18.612 11.2773 18.6211 11.2773 18.7852V18.8125C11.2773 18.849 11.1406 18.9128 10.8672 19.0039L10.8398 19.0586V19.0859C10.8763 19.1224 11.0404 19.1862 11.332 19.2773C11.4049 19.3503 11.4414 19.4505 11.4414 19.5781C11.2591 20.5807 11.0404 21.082 10.7852 21.082L10.2656 21.1367L8.84375 20.9727L7.96875 21.0273C3.08333 21.1003 0.640625 21.0456 0.640625 20.8633C0.494792 20.6628 0.421875 20.5169 0.421875 20.4258V20.3984L0.695312 19.4688L0.585938 19.2773C0.585938 19.0039 0.777344 18.8216 1.16016 18.7305L1.48828 18.6484L4.05859 18.5664C4.27734 18.5664 4.40495 18.4297 4.44141 18.1562V17.8828C4.44141 16.388 4.38672 15.1302 4.27734 14.1094C4.44141 8.71354 4.61458 6.01562 4.79688 6.01562L4.82422 5.66016C4.7513 4.11068 4.6237 3.33594 4.44141 3.33594C3.63932 3.86458 3.10156 4.38411 2.82812 4.89453L2.66406 4.97656C1.625 4.59375 0.959635 4.22917 0.667969 3.88281C0.63151 3.88281 0.595052 3.75521 0.558594 3.5L0.613281 3.41797L0.804688 3.44531H0.996094C1.36068 3.44531 2.14453 2.81641 3.34766 1.55859C3.71224 1.23047 4.00391 0.856771 4.22266 0.4375C4.40495 0.328125 4.55078 0.273438 4.66016 0.273438ZM4.98828 1.20312V1.23047L5.01562 1.28516H5.07031C5.23438 1.28516 5.32552 1.25781 5.34375 1.20312V1.17578L5.26172 1.09375H5.17969C5.05208 1.11198 4.98828 1.14844 4.98828 1.20312ZM4.16797 1.20312L4.05859 1.28516L4.14062 1.36719H4.22266L4.38672 1.33984V1.25781L4.30469 1.20312H4.16797ZM6.27344 1.77734L6.21875 1.85938V1.94141L6.27344 1.96875L6.35547 1.94141V1.85938L6.27344 1.77734ZM2.22656 4.04688V4.12891H2.25391C2.52734 4.12891 2.8099 3.95573 3.10156 3.60938C4.08594 2.69792 4.57812 2.14193 4.57812 1.94141H4.49609C3.47526 2.79818 2.71875 3.5 2.22656 4.04688ZM5.53516 2.70703V2.73438L5.67188 2.84375L5.75391 2.81641V2.54297L5.72656 2.48828V2.46094C5.59896 2.47917 5.53516 2.5612 5.53516 2.70703ZM5.42578 2.70703H5.31641L5.125 3.17188V3.30859L5.23438 3.41797H5.39844C5.50781 3.41797 5.57161 3.38151 5.58984 3.30859V3.22656C5.58984 3.17188 5.4987 3.10807 5.31641 3.03516H5.26172V2.92578C5.37109 2.83464 5.42578 2.76172 5.42578 2.70703ZM1.67969 3.66406V3.71875H1.78906C1.98958 3.71875 2.16276 3.58203 2.30859 3.30859L2.28125 3.25391H2.25391C1.9987 3.36328 1.80729 3.5 1.67969 3.66406ZM5.72656 4.64844L5.80859 6.53516H5.86328C5.97266 6.22526 6.02734 5.77865 6.02734 5.19531V4.40234C6.02734 3.80078 5.99089 3.5 5.91797 3.5C5.80859 3.5 5.74479 3.88281 5.72656 4.64844ZM5.72656 8.77734V9.07812L5.80859 9.59766H5.86328C6.00911 9.59766 6.08203 9.06901 6.08203 8.01172V7.84766L6 7.76562C5.81771 7.83854 5.72656 8.17578 5.72656 8.77734ZM4.93359 13.7812H4.85156V13.918H4.93359V13.7812ZM5.80859 15.9688V15.9961V16.1875L5.91797 16.2695H5.97266L6.02734 16.2148V16.1328C5.99089 16.1328 5.91797 16.0781 5.80859 15.9688ZM6 16.8164H5.97266C5.86328 17.1263 5.80859 17.5091 5.80859 17.9648V18.1836C5.80859 18.4023 5.89974 18.5482 6.08203 18.6211H6.13672C6.19141 18.6211 6.21875 18.5664 6.21875 18.457C6.20052 17.3633 6.1276 16.8164 6 16.8164ZM4.85156 17.5L4.74219 17.6641L4.79688 17.7734H4.82422L4.93359 17.6641V17.6094L4.85156 17.5ZM5.31641 17.9648L5.23438 18.0469V18.2383L5.31641 18.3203H5.39844V18.0469L5.31641 17.9648ZM1.84375 18.9219H1.59766V18.9766L1.70703 19.0859H1.76172L1.84375 18.9766V18.9219ZM1.78906 19.5781L1.02344 19.6602V19.7695L1.10547 19.8789H1.16016C1.34245 19.8789 1.55208 19.7786 1.78906 19.5781ZM7.09375 19.4688V19.5781L8.95312 19.2773H9.11719V19.168C8.69792 19.1133 8.02344 19.2135 7.09375 19.4688ZM2.66406 19.7695L2.0625 19.8516V19.9609H2.22656H2.47266C2.92839 19.9609 3.15625 19.9245 3.15625 19.8516L3.07422 19.7695H2.66406ZM4.82422 19.7148L4.79688 19.7695V19.7969C4.86979 19.8698 4.94271 19.9062 5.01562 19.9062V19.8516C4.97917 19.7604 4.91536 19.7148 4.82422 19.7148ZM4.33203 19.7695L4.27734 19.8516L4.33203 19.9062H4.44141L4.52344 19.8516V19.7695H4.33203ZM5.39844 19.9062L5.26172 19.9883V20.043C5.26172 20.1159 5.54427 20.1523 6.10938 20.1523H6.13672C6.28255 20.1523 6.35547 20.0977 6.35547 19.9883C6.28255 19.9336 6.20052 19.9062 6.10938 19.9062H5.39844ZM10.5391 20.1797V20.2891L10.6484 20.3984C10.849 20.3984 10.9492 20.2526 10.9492 19.9609V19.7422L10.8945 19.6602H10.7852C10.6211 19.7878 10.5391 19.9609 10.5391 20.1797ZM6.875 20.207C6.76562 20.3893 6.57422 20.4805 6.30078 20.4805V20.5352C6.30078 20.6081 6.58333 20.6536 7.14844 20.6719H7.20312C7.53125 20.4167 7.75911 20.1979 7.88672 20.0156C7.86849 19.9609 7.78646 19.9518 7.64062 19.9883C7.49479 20.0065 7.23958 20.0794 6.875 20.207ZM8.84375 19.9609L8.24219 20.0156V20.0703C8.24219 20.125 8.50651 20.1523 9.03516 20.1523L9.0625 20.125V20.0977C9.02604 20.0065 8.95312 19.9609 8.84375 19.9609ZM9.47266 19.9609L9.39062 20.0156L9.41797 20.125H9.47266L9.55469 20.0703V20.0156L9.47266 19.9609ZM8.1875 20.3438H8.07812V20.3984H8.1875V20.3438ZM10.0742 20.7539V20.7812C10.0742 20.8177 10.1562 20.8542 10.3203 20.8906C10.5026 20.8724 10.5938 20.8268 10.5938 20.7539V20.6992L10.4844 20.6172H10.375C10.2109 20.6172 10.1107 20.6628 10.0742 20.7539ZM19.5625 2.32422C20.8203 2.32422 21.9961 2.73438 23.0898 3.55469L24.5938 5.79688C24.8854 6.17969 25.1497 6.69922 25.3867 7.35547C25.6784 7.79297 25.9427 8.65885 26.1797 9.95312L26.2344 10.6367C26.2344 11.056 26.1523 11.5299 25.9883 12.0586V12.25C25.9883 12.4688 26.0703 12.5781 26.2344 12.5781L26.1797 13.6172V14.8477C26.1797 15.3945 25.9154 16.4792 25.3867 18.1016C25.2409 18.4297 24.9857 18.6849 24.6211 18.8672C24.293 19.1953 23.263 19.7878 21.5312 20.6445C20.7839 21.1732 20.0638 21.4375 19.3711 21.4375H19.3438C17.4297 21.2734 16.4727 21.1185 16.4727 20.9727C15.9258 20.7721 15.306 20.2799 14.6133 19.4961V19.4141L14.6953 19.332H14.7773L14.8867 19.4141H14.9688V19.332C14.9323 19.1315 14.8411 19.0312 14.6953 19.0312H14.5312L14.5039 19.168C14.2669 19.0951 13.9844 18.6758 13.6562 17.9102C13.5286 17.7826 13.4284 17.582 13.3555 17.3086C12.8086 16.707 12.4167 14.7383 12.1797 11.4023V11.293C12.3073 9.52474 12.4258 8.64062 12.5352 8.64062C12.5534 7.94792 12.8268 6.9362 13.3555 5.60547C13.5924 5.36849 13.8112 5.00391 14.0117 4.51172C15.306 3.05339 17.1562 2.32422 19.5625 2.32422ZM19.6445 2.59766H19.0703V2.65234C19.0703 2.74349 19.3073 2.83464 19.7812 2.92578H20.1914V2.78906C20.1185 2.66146 19.9362 2.59766 19.6445 2.59766ZM20.9023 2.78906L20.8477 2.87109L21.2305 2.95312H21.3398L21.4219 2.92578C21.4219 2.83464 21.276 2.78906 20.9844 2.78906H20.9023ZM22.0234 3.17188H21.9961V3.19922C22.4701 3.80078 22.8802 4.13802 23.2266 4.21094H23.2539V4.15625C22.7617 3.5 22.3516 3.17188 22.0234 3.17188ZM21.5039 3.39062L21.4219 3.44531C21.5495 3.6276 21.6862 3.71875 21.832 3.71875H22.0234V3.66406C22.0234 3.55469 21.8776 3.46354 21.5859 3.39062H21.5039ZM20.2461 3.41797H19.8633V3.44531C20.0638 3.59115 20.4193 3.69141 20.9297 3.74609L20.9844 3.71875V3.66406C20.9844 3.59115 20.7383 3.50911 20.2461 3.41797ZM13.9844 10.6367C14.0208 11.0924 14.0755 11.3841 14.1484 11.5117L14.0391 11.9219V12.0859L14.6406 15.2031C15.0417 16.3698 15.5612 17.2995 16.1992 17.9922C17.2018 18.6484 17.9857 18.9766 18.5508 18.9766C19.3529 18.9766 20.4102 18.7122 21.7227 18.1836C23.3451 17.1992 24.1562 16.3516 24.1562 15.6406C24.4479 14.6562 24.6849 13.4349 24.8672 11.9766V10.582C24.8672 9.23307 24.5117 8.06641 23.8008 7.08203C23.8008 6.91797 23.263 6.35286 22.1875 5.38672C21.4766 4.51172 20.8477 4.07422 20.3008 4.07422L19.125 3.80078H18.8789C17.8398 3.80078 17.0378 4.23828 16.4727 5.11328C16.0898 5.42318 15.7435 5.82422 15.4336 6.31641C15.2513 6.31641 14.8685 6.82682 14.2852 7.84766C14.0846 8.50391 13.9844 9.43359 13.9844 10.6367ZM14.9688 4.70312V4.8125C15.0599 4.8125 15.2148 4.65755 15.4336 4.34766V4.21094H15.4062C15.2969 4.21094 15.151 4.375 14.9688 4.70312ZM14.3672 5.14062H14.4492L14.5586 5.03125V4.97656C14.431 4.97656 14.3672 5.03125 14.3672 5.14062ZM15.1055 5.93359H15.2148C15.3789 5.84245 15.4792 5.74219 15.5156 5.63281V5.55078H15.2969C15.1693 5.6237 15.1055 5.7513 15.1055 5.93359ZM24.1836 5.87891C24.1836 6.22526 24.4023 6.84505 24.8398 7.73828C24.9128 7.75651 25.1133 8.17578 25.4414 8.99609C25.4414 9.08724 25.4688 9.13281 25.5234 9.13281L25.6328 9.05078V8.94141C25.5234 8.48568 25.1771 7.60156 24.5938 6.28906C24.4115 6.01562 24.2747 5.87891 24.1836 5.87891ZM25.5781 9.76172H25.5234V9.81641L25.7148 10.3086C25.7148 10.3997 25.6328 10.6003 25.4688 10.9102V10.9648C25.4688 11.1107 25.5326 11.2201 25.6602 11.293H25.7422C25.7969 11.293 25.8698 11.0286 25.9609 10.5C25.8151 10.1172 25.6875 9.87109 25.5781 9.76172ZM12.7539 9.84375L12.6445 9.95312V10.0352L12.7539 10.1172L12.8633 10.0625V9.92578L12.7539 9.84375ZM12.7539 10.6094H12.6719L12.6172 11.0469V11.3203C12.7083 11.3203 12.7539 11.1107 12.7539 10.6914V10.6094ZM13.4648 11.7578H13.3555L13.3281 12.0039C13.3281 12.8789 13.5651 14.0547 14.0391 15.5312L14.4492 16.0508H14.5039V16.0234C14.3581 15.5859 14.1302 14.5286 13.8203 12.8516C13.7109 12.7422 13.5924 12.3776 13.4648 11.7578ZM13.2188 15.5859H13.1641V15.6953H13.2188V15.5859ZM24.7031 17.8555V17.9102H24.7852C25.0039 17.9102 25.25 17.4271 25.5234 16.4609V16.4336L25.4688 16.3242C25.3411 16.3242 25.0859 16.8346 24.7031 17.8555ZM13.4922 17.2539V17.3359C13.6562 17.3906 13.8932 17.7005 14.2031 18.2656L14.4492 18.4297H14.6133V18.4023C14.2669 17.6367 13.9844 17.1901 13.7656 17.0625H13.7383C13.6471 17.0807 13.5651 17.1445 13.4922 17.2539ZM17.0469 19.1406L15.6797 18.375V18.4297C16.2266 19.25 16.9102 19.6602 17.7305 19.6602C17.9492 19.6419 18.0586 19.6055 18.0586 19.5508C18.0221 19.4961 17.6849 19.3594 17.0469 19.1406ZM14.7773 18.4844H14.6133L14.5586 18.5938C14.5768 18.6667 14.6497 18.7031 14.7773 18.7031H14.832L14.8867 18.6484V18.5938L14.7773 18.4844ZM18.0859 19.7148L18.0586 19.7422C18.0586 19.8516 18.2227 19.9336 18.5508 19.9883H18.7695C18.9701 19.9518 19.0703 19.8607 19.0703 19.7148H19.3438C19.7266 19.7148 20.5195 19.4961 21.7227 19.0586V19.0312L21.668 18.9766H21.4492L20.3008 19.2773C19.8086 19.2773 19.0703 19.4232 18.0859 19.7148ZM19.3711 20.3711V20.3984L19.4258 20.4531H19.8633C20.7383 20.2708 21.1758 20.125 21.1758 20.0156C21.4857 19.9427 21.6862 19.8242 21.7773 19.6602V19.5781H21.7227C20.6654 19.8151 19.8815 20.0794 19.3711 20.3711ZM15.2148 19.7422H15.1875C15.1875 19.9062 15.3516 20.043 15.6797 20.1523H15.707C15.5065 19.8789 15.3424 19.7422 15.2148 19.7422ZM17.4297 20.2344V20.3711C18.0859 20.681 18.4961 20.8359 18.6602 20.8359H18.8789V20.6719C18.3138 20.3802 17.8307 20.2344 17.4297 20.2344ZM42.0117 2.73438C42.4128 2.73438 43.2057 2.98047 44.3906 3.47266C45.9583 4.18359 46.7422 5.1862 46.7422 6.48047V7.4375C46.7422 8.07552 46.5234 8.75 46.0859 9.46094C45.849 10.3542 45.6393 10.8008 45.457 10.8008C44.7461 11.1289 44.3906 11.4206 44.3906 11.6758V11.9492C44.3906 12.5872 44.4635 13.2708 44.6094 14C44.5547 14.9661 44.4362 15.4492 44.2539 15.4492C44.1081 15.4492 43.7891 15.6133 43.2969 15.9414L42.9961 15.9688C42.6862 15.9688 42.5312 15.8047 42.5312 15.4766C42.2031 13.6172 42.0391 12.25 42.0391 11.375C42.0391 11.1927 42.4857 10.7461 43.3789 10.0352C43.8164 9.59766 44.0807 9.2513 44.1719 8.99609C44.3724 8.77734 44.4909 8.66797 44.5273 8.66797L44.7734 8.75C44.9375 8.75 45.0833 8.38542 45.2109 7.65625V7.57422L44.9375 7.08203V6.97266H44.9102L45.0195 6.69922V6.34375C45.0195 6.14323 44.8737 5.92448 44.582 5.6875C44.4362 5.32292 44.2083 5.14062 43.8984 5.14062C43.2969 4.92188 42.6315 4.8125 41.9023 4.8125H41.6289C40.6445 4.8125 39.724 5.46875 38.8672 6.78125L37.8008 8.14844V8.23047C37.4362 8.70443 37.0898 8.75911 36.7617 8.39453C36.4336 8.01172 36.2695 7.72917 36.2695 7.54688L36.5703 6.50781C36.7891 5.9974 37.181 5.50521 37.7461 5.03125C38.8398 4.13802 39.7695 3.5 40.5352 3.11719C40.9909 2.86198 41.4831 2.73438 42.0117 2.73438ZM40.5352 3.52734V3.58203H40.8359C41.3099 3.58203 41.7292 3.47266 42.0938 3.25391V3.17188L42.0117 3.11719H41.7383C41.319 3.11719 40.918 3.25391 40.5352 3.52734ZM43.1055 3.47266L42.9961 3.52734V3.58203C42.9961 3.63672 43.0599 3.66406 43.1875 3.66406C43.388 3.66406 43.4883 3.61849 43.4883 3.52734L43.4062 3.47266H43.1055ZM39.8789 4.01953L39.9609 4.10156L40.2891 3.99219V3.85547H40.2344C40.0521 3.85547 39.9336 3.91016 39.8789 4.01953ZM44.9102 4.15625L44.8828 4.21094C45.0104 4.46615 45.2565 4.66667 45.6211 4.8125H45.7578V4.78516C45.7578 4.65755 45.4753 4.44792 44.9102 4.15625ZM38.1289 5.19531C38.4753 5.19531 38.849 4.99479 39.25 4.59375C39.4505 4.5026 39.5508 4.4388 39.5508 4.40234V4.375L39.3594 4.21094H39.332C39.2409 4.21094 38.9036 4.41146 38.3203 4.8125C38.1927 4.86719 38.1289 4.99479 38.1289 5.19531ZM41.7109 4.21094H41.6289V4.26562H41.7109V4.21094ZM37.8008 5.44141L37.6914 5.60547V5.63281H37.7188C37.8099 5.59635 37.8555 5.53255 37.8555 5.44141H37.8008ZM46.2227 5.87891H46.168V5.90625C46.168 6.05208 46.2227 6.13411 46.332 6.15234H46.3594V6.125C46.3594 5.9974 46.3138 5.91536 46.2227 5.87891ZM38.4844 6.23438V6.28906H38.5391C38.6302 6.2526 38.694 6.17969 38.7305 6.07031V6.01562L38.6758 5.96094C38.5482 6.01562 38.4844 6.10677 38.4844 6.23438ZM36.9531 6.69922V6.75391L37.0625 6.78125C37.3177 6.63542 37.4453 6.47135 37.4453 6.28906V6.17969H37.3633C37.0898 6.36198 36.9531 6.53516 36.9531 6.69922ZM37.3633 7.35547L37.2812 7.38281V7.46484H37.3633L37.4453 7.38281V7.35547H37.3633ZM37.5 8.64062H37.5273V8.72266H37.5V8.64062ZM44.8555 8.91406H44.6914V9.05078H44.7734L44.8555 8.94141V8.91406ZM44.9102 10.1992V10.2812H44.9648C45.1471 10.2812 45.2474 10.2266 45.2656 10.1172L45.2109 10.0898H45.1836C45.0013 10.1081 44.9102 10.1445 44.9102 10.1992ZM42.7227 11.5664V11.6484C42.7227 12.0677 42.8503 12.2773 43.1055 12.2773C43.1237 12.2773 43.151 12.2044 43.1875 12.0586C43.1693 11.5117 43.1237 11.2383 43.0508 11.2383H42.9141C42.7865 11.2565 42.7227 11.3659 42.7227 11.5664ZM43.8438 12.1953L43.7891 12.2773H43.8984V12.1953H43.8438ZM42.9961 12.6055L42.9141 12.7148V12.7695C42.9141 12.9336 42.9779 13.0247 43.1055 13.043H43.1602L43.1875 12.8789C43.1875 12.7695 43.1237 12.6784 42.9961 12.6055ZM43.2969 14.4922L43.1602 14.6562L43.2695 14.9844L43.1602 15.4492H43.3242C43.4518 15.4492 43.5612 15.3763 43.6523 15.2305V15.1211C43.5794 15.0664 43.543 14.8932 43.543 14.6016L43.4062 14.4922H43.2969ZM43.6797 17.418C43.9896 17.418 44.4818 17.6094 45.1562 17.9922C45.4297 18.0651 45.5664 18.1289 45.5664 18.1836C45.5664 18.2565 45.4023 18.3203 45.0742 18.375V18.4023V18.457L45.2109 18.9219C45.5391 19.7422 45.3477 20.3984 44.6367 20.8906C43.4883 20.9089 42.7135 20.3529 42.3125 19.2227L42.2031 18.8125C42.2031 18.4115 42.6953 17.9466 43.6797 17.418ZM43.6797 17.8828H43.4883V17.9102C43.5612 18.0195 43.8438 18.138 44.3359 18.2656L44.3906 18.2109V18.1562C44.2266 17.974 43.9896 17.8828 43.6797 17.8828ZM43.2969 19.0586C43.2969 19.0768 43.3789 19.1315 43.543 19.2227C43.5794 19.332 43.6159 19.3867 43.6523 19.3867H43.6797L44.0078 18.9766C44.0078 18.8672 43.9531 18.7852 43.8438 18.7305H43.4062C43.3333 18.7487 43.2969 18.8581 43.2969 19.0586ZM60.2773 0.273438C61.3164 0.382812 61.8359 0.53776 61.8359 0.738281C61.8359 0.920573 61.8997 1.01172 62.0273 1.01172L62.1094 1.09375L61.8086 1.33984V1.44922H61.8906C61.9818 1.33984 62.0547 1.28516 62.1094 1.28516C62.2005 1.28516 62.2461 1.39453 62.2461 1.61328L62.4922 9.10547C62.3099 9.88932 62.2188 11.4388 62.2188 13.7539V13.8633C62.2188 15.2669 62.2552 16.1784 62.3281 16.5977C62.1823 16.6523 62.1094 16.7708 62.1094 16.9531C62.1094 17.1901 62.1549 17.3086 62.2461 17.3086H62.3281V17.1172H62.3828C62.474 17.1172 62.5651 17.5456 62.6562 18.4023L62.6016 18.4297H62.4922C62.3464 18.2656 62.2188 18.1836 62.1094 18.1836V18.2383V18.3477C62.1094 18.6211 62.3464 18.7578 62.8203 18.7578C65.5365 18.612 66.8945 18.6211 66.8945 18.7852V18.8125C66.8945 18.849 66.7578 18.9128 66.4844 19.0039L66.457 19.0586V19.0859C66.4935 19.1224 66.6576 19.1862 66.9492 19.2773C67.0221 19.3503 67.0586 19.4505 67.0586 19.5781C66.8763 20.5807 66.6576 21.082 66.4023 21.082L65.8828 21.1367L64.4609 20.9727L63.5859 21.0273C58.7005 21.1003 56.2578 21.0456 56.2578 20.8633C56.112 20.6628 56.0391 20.5169 56.0391 20.4258V20.3984L56.3125 19.4688L56.2031 19.2773C56.2031 19.0039 56.3945 18.8216 56.7773 18.7305L57.1055 18.6484L59.6758 18.5664C59.8945 18.5664 60.0221 18.4297 60.0586 18.1562V17.8828C60.0586 16.388 60.0039 15.1302 59.8945 14.1094C60.0586 8.71354 60.2318 6.01562 60.4141 6.01562L60.4414 5.66016C60.3685 4.11068 60.2409 3.33594 60.0586 3.33594C59.2565 3.86458 58.7188 4.38411 58.4453 4.89453L58.2812 4.97656C57.2422 4.59375 56.5768 4.22917 56.2852 3.88281C56.2487 3.88281 56.2122 3.75521 56.1758 3.5L56.2305 3.41797L56.4219 3.44531H56.6133C56.9779 3.44531 57.7617 2.81641 58.9648 1.55859C59.3294 1.23047 59.6211 0.856771 59.8398 0.4375C60.0221 0.328125 60.168 0.273438 60.2773 0.273438ZM60.6055 1.20312V1.23047L60.6328 1.28516H60.6875C60.8516 1.28516 60.9427 1.25781 60.9609 1.20312V1.17578L60.8789 1.09375H60.7969C60.6693 1.11198 60.6055 1.14844 60.6055 1.20312ZM59.7852 1.20312L59.6758 1.28516L59.7578 1.36719H59.8398L60.0039 1.33984V1.25781L59.9219 1.20312H59.7852ZM61.8906 1.77734L61.8359 1.85938V1.94141L61.8906 1.96875L61.9727 1.94141V1.85938L61.8906 1.77734ZM57.8438 4.04688V4.12891H57.8711C58.1445 4.12891 58.4271 3.95573 58.7188 3.60938C59.7031 2.69792 60.1953 2.14193 60.1953 1.94141H60.1133C59.0924 2.79818 58.3359 3.5 57.8438 4.04688ZM61.1523 2.70703V2.73438L61.2891 2.84375L61.3711 2.81641V2.54297L61.3438 2.48828V2.46094C61.2161 2.47917 61.1523 2.5612 61.1523 2.70703ZM61.043 2.70703H60.9336L60.7422 3.17188V3.30859L60.8516 3.41797H61.0156C61.125 3.41797 61.1888 3.38151 61.207 3.30859V3.22656C61.207 3.17188 61.1159 3.10807 60.9336 3.03516H60.8789V2.92578C60.9883 2.83464 61.043 2.76172 61.043 2.70703ZM57.2969 3.66406V3.71875H57.4062C57.6068 3.71875 57.7799 3.58203 57.9258 3.30859L57.8984 3.25391H57.8711C57.6159 3.36328 57.4245 3.5 57.2969 3.66406ZM61.3438 4.64844L61.4258 6.53516H61.4805C61.5898 6.22526 61.6445 5.77865 61.6445 5.19531V4.40234C61.6445 3.80078 61.6081 3.5 61.5352 3.5C61.4258 3.5 61.362 3.88281 61.3438 4.64844ZM61.3438 8.77734V9.07812L61.4258 9.59766H61.4805C61.6263 9.59766 61.6992 9.06901 61.6992 8.01172V7.84766L61.6172 7.76562C61.4349 7.83854 61.3438 8.17578 61.3438 8.77734ZM60.5508 13.7812H60.4688V13.918H60.5508V13.7812ZM61.4258 15.9688V15.9961V16.1875L61.5352 16.2695H61.5898L61.6445 16.2148V16.1328C61.6081 16.1328 61.5352 16.0781 61.4258 15.9688ZM61.6172 16.8164H61.5898C61.4805 17.1263 61.4258 17.5091 61.4258 17.9648V18.1836C61.4258 18.4023 61.5169 18.5482 61.6992 18.6211H61.7539C61.8086 18.6211 61.8359 18.5664 61.8359 18.457C61.8177 17.3633 61.7448 16.8164 61.6172 16.8164ZM60.4688 17.5L60.3594 17.6641L60.4141 17.7734H60.4414L60.5508 17.6641V17.6094L60.4688 17.5ZM60.9336 17.9648L60.8516 18.0469V18.2383L60.9336 18.3203H61.0156V18.0469L60.9336 17.9648ZM57.4609 18.9219H57.2148V18.9766L57.3242 19.0859H57.3789L57.4609 18.9766V18.9219ZM57.4062 19.5781L56.6406 19.6602V19.7695L56.7227 19.8789H56.7773C56.9596 19.8789 57.1693 19.7786 57.4062 19.5781ZM62.7109 19.4688V19.5781L64.5703 19.2773H64.7344V19.168C64.3151 19.1133 63.6406 19.2135 62.7109 19.4688ZM58.2812 19.7695L57.6797 19.8516V19.9609H57.8438H58.0898C58.5456 19.9609 58.7734 19.9245 58.7734 19.8516L58.6914 19.7695H58.2812ZM60.4414 19.7148L60.4141 19.7695V19.7969C60.487 19.8698 60.5599 19.9062 60.6328 19.9062V19.8516C60.5964 19.7604 60.5326 19.7148 60.4414 19.7148ZM59.9492 19.7695L59.8945 19.8516L59.9492 19.9062H60.0586L60.1406 19.8516V19.7695H59.9492ZM61.0156 19.9062L60.8789 19.9883V20.043C60.8789 20.1159 61.1615 20.1523 61.7266 20.1523H61.7539C61.8997 20.1523 61.9727 20.0977 61.9727 19.9883C61.8997 19.9336 61.8177 19.9062 61.7266 19.9062H61.0156ZM66.1562 20.1797V20.2891L66.2656 20.3984C66.4661 20.3984 66.5664 20.2526 66.5664 19.9609V19.7422L66.5117 19.6602H66.4023C66.2383 19.7878 66.1562 19.9609 66.1562 20.1797ZM62.4922 20.207C62.3828 20.3893 62.1914 20.4805 61.918 20.4805V20.5352C61.918 20.6081 62.2005 20.6536 62.7656 20.6719H62.8203C63.1484 20.4167 63.3763 20.1979 63.5039 20.0156C63.4857 19.9609 63.4036 19.9518 63.2578 19.9883C63.112 20.0065 62.8568 20.0794 62.4922 20.207ZM64.4609 19.9609L63.8594 20.0156V20.0703C63.8594 20.125 64.1237 20.1523 64.6523 20.1523L64.6797 20.125V20.0977C64.6432 20.0065 64.5703 19.9609 64.4609 19.9609ZM65.0898 19.9609L65.0078 20.0156L65.0352 20.125H65.0898L65.1719 20.0703V20.0156L65.0898 19.9609ZM63.8047 20.3438H63.6953V20.3984H63.8047V20.3438ZM65.6914 20.7539V20.7812C65.6914 20.8177 65.7734 20.8542 65.9375 20.8906C66.1198 20.8724 66.2109 20.8268 66.2109 20.7539V20.6992L66.1016 20.6172H65.9922C65.8281 20.6172 65.7279 20.6628 65.6914 20.7539ZM75.1797 2.32422C76.4375 2.32422 77.6133 2.73438 78.707 3.55469L80.2109 5.79688C80.5026 6.17969 80.7669 6.69922 81.0039 7.35547C81.2956 7.79297 81.5599 8.65885 81.7969 9.95312L81.8516 10.6367C81.8516 11.056 81.7695 11.5299 81.6055 12.0586V12.25C81.6055 12.4688 81.6875 12.5781 81.8516 12.5781L81.7969 13.6172V14.8477C81.7969 15.3945 81.5326 16.4792 81.0039 18.1016C80.8581 18.4297 80.6029 18.6849 80.2383 18.8672C79.9102 19.1953 78.8802 19.7878 77.1484 20.6445C76.401 21.1732 75.681 21.4375 74.9883 21.4375H74.9609C73.0469 21.2734 72.0898 21.1185 72.0898 20.9727C71.543 20.7721 70.9232 20.2799 70.2305 19.4961V19.4141L70.3125 19.332H70.3945L70.5039 19.4141H70.5859V19.332C70.5495 19.1315 70.4583 19.0312 70.3125 19.0312H70.1484L70.1211 19.168C69.8841 19.0951 69.6016 18.6758 69.2734 17.9102C69.1458 17.7826 69.0456 17.582 68.9727 17.3086C68.4258 16.707 68.0339 14.7383 67.7969 11.4023V11.293C67.9245 9.52474 68.043 8.64062 68.1523 8.64062C68.1706 7.94792 68.444 6.9362 68.9727 5.60547C69.2096 5.36849 69.4284 5.00391 69.6289 4.51172C70.9232 3.05339 72.7734 2.32422 75.1797 2.32422ZM75.2617 2.59766H74.6875V2.65234C74.6875 2.74349 74.9245 2.83464 75.3984 2.92578H75.8086V2.78906C75.7357 2.66146 75.5534 2.59766 75.2617 2.59766ZM76.5195 2.78906L76.4648 2.87109L76.8477 2.95312H76.957L77.0391 2.92578C77.0391 2.83464 76.8932 2.78906 76.6016 2.78906H76.5195ZM77.6406 3.17188H77.6133V3.19922C78.0872 3.80078 78.4974 4.13802 78.8438 4.21094H78.8711V4.15625C78.3789 3.5 77.9688 3.17188 77.6406 3.17188ZM77.1211 3.39062L77.0391 3.44531C77.1667 3.6276 77.3034 3.71875 77.4492 3.71875H77.6406V3.66406C77.6406 3.55469 77.4948 3.46354 77.2031 3.39062H77.1211ZM75.8633 3.41797H75.4805V3.44531C75.681 3.59115 76.0365 3.69141 76.5469 3.74609L76.6016 3.71875V3.66406C76.6016 3.59115 76.3555 3.50911 75.8633 3.41797ZM69.6016 10.6367C69.638 11.0924 69.6927 11.3841 69.7656 11.5117L69.6562 11.9219V12.0859L70.2578 15.2031C70.6589 16.3698 71.1784 17.2995 71.8164 17.9922C72.819 18.6484 73.6029 18.9766 74.168 18.9766C74.9701 18.9766 76.0273 18.7122 77.3398 18.1836C78.9622 17.1992 79.7734 16.3516 79.7734 15.6406C80.0651 14.6562 80.3021 13.4349 80.4844 11.9766V10.582C80.4844 9.23307 80.1289 8.06641 79.418 7.08203C79.418 6.91797 78.8802 6.35286 77.8047 5.38672C77.0938 4.51172 76.4648 4.07422 75.918 4.07422L74.7422 3.80078H74.4961C73.457 3.80078 72.6549 4.23828 72.0898 5.11328C71.707 5.42318 71.3607 5.82422 71.0508 6.31641C70.8685 6.31641 70.4857 6.82682 69.9023 7.84766C69.7018 8.50391 69.6016 9.43359 69.6016 10.6367ZM70.5859 4.70312V4.8125C70.6771 4.8125 70.832 4.65755 71.0508 4.34766V4.21094H71.0234C70.9141 4.21094 70.7682 4.375 70.5859 4.70312ZM69.9844 5.14062H70.0664L70.1758 5.03125V4.97656C70.0482 4.97656 69.9844 5.03125 69.9844 5.14062ZM70.7227 5.93359H70.832C70.9961 5.84245 71.0964 5.74219 71.1328 5.63281V5.55078H70.9141C70.7865 5.6237 70.7227 5.7513 70.7227 5.93359ZM79.8008 5.87891C79.8008 6.22526 80.0195 6.84505 80.457 7.73828C80.5299 7.75651 80.7305 8.17578 81.0586 8.99609C81.0586 9.08724 81.0859 9.13281 81.1406 9.13281L81.25 9.05078V8.94141C81.1406 8.48568 80.7943 7.60156 80.2109 6.28906C80.0286 6.01562 79.8919 5.87891 79.8008 5.87891ZM81.1953 9.76172H81.1406V9.81641L81.332 10.3086C81.332 10.3997 81.25 10.6003 81.0859 10.9102V10.9648C81.0859 11.1107 81.1497 11.2201 81.2773 11.293H81.3594C81.4141 11.293 81.487 11.0286 81.5781 10.5C81.4323 10.1172 81.3047 9.87109 81.1953 9.76172ZM68.3711 9.84375L68.2617 9.95312V10.0352L68.3711 10.1172L68.4805 10.0625V9.92578L68.3711 9.84375ZM68.3711 10.6094H68.2891L68.2344 11.0469V11.3203C68.3255 11.3203 68.3711 11.1107 68.3711 10.6914V10.6094ZM69.082 11.7578H68.9727L68.9453 12.0039C68.9453 12.8789 69.1823 14.0547 69.6562 15.5312L70.0664 16.0508H70.1211V16.0234C69.9753 15.5859 69.7474 14.5286 69.4375 12.8516C69.3281 12.7422 69.2096 12.3776 69.082 11.7578ZM68.8359 15.5859H68.7812V15.6953H68.8359V15.5859ZM80.3203 17.8555V17.9102H80.4023C80.6211 17.9102 80.8672 17.4271 81.1406 16.4609V16.4336L81.0859 16.3242C80.9583 16.3242 80.7031 16.8346 80.3203 17.8555ZM69.1094 17.2539V17.3359C69.2734 17.3906 69.5104 17.7005 69.8203 18.2656L70.0664 18.4297H70.2305V18.4023C69.8841 17.6367 69.6016 17.1901 69.3828 17.0625H69.3555C69.2643 17.0807 69.1823 17.1445 69.1094 17.2539ZM72.6641 19.1406L71.2969 18.375V18.4297C71.8438 19.25 72.5273 19.6602 73.3477 19.6602C73.5664 19.6419 73.6758 19.6055 73.6758 19.5508C73.6393 19.4961 73.3021 19.3594 72.6641 19.1406ZM70.3945 18.4844H70.2305L70.1758 18.5938C70.194 18.6667 70.2669 18.7031 70.3945 18.7031H70.4492L70.5039 18.6484V18.5938L70.3945 18.4844ZM73.7031 19.7148L73.6758 19.7422C73.6758 19.8516 73.8398 19.9336 74.168 19.9883H74.3867C74.5872 19.9518 74.6875 19.8607 74.6875 19.7148H74.9609C75.3438 19.7148 76.1367 19.4961 77.3398 19.0586V19.0312L77.2852 18.9766H77.0664L75.918 19.2773C75.4258 19.2773 74.6875 19.4232 73.7031 19.7148ZM74.9883 20.3711V20.3984L75.043 20.4531H75.4805C76.3555 20.2708 76.793 20.125 76.793 20.0156C77.1029 19.9427 77.3034 19.8242 77.3945 19.6602V19.5781H77.3398C76.2826 19.8151 75.4987 20.0794 74.9883 20.3711ZM70.832 19.7422H70.8047C70.8047 19.9062 70.9688 20.043 71.2969 20.1523H71.3242C71.1237 19.8789 70.9596 19.7422 70.832 19.7422ZM73.0469 20.2344V20.3711C73.7031 20.681 74.1133 20.8359 74.2773 20.8359H74.4961V20.6719C73.931 20.3802 73.4479 20.2344 73.0469 20.2344ZM101.457 14.9844L101.566 15.0117C101.676 15.0482 101.667 15.7773 101.539 17.1992H101.566C101.548 17.3815 100.609 17.3815 98.75 17.1992C96.6719 17.3268 95.3138 17.3359 94.6758 17.2266V17.1992C94.694 17.0352 95.487 16.9714 97.0547 17.0078C97.6927 16.9896 98.0299 16.9349 98.0664 16.8438L98.0938 16.8164L97.8203 16.7617C95.6693 16.5794 94.5573 16.707 94.4844 17.1445L94.2656 17.1992C93.6458 17.1263 93.4362 16.4427 93.6367 15.1484C93.6914 14.8203 94.4297 14.6836 95.8516 14.7383C95.8516 14.7018 95.9518 14.7018 96.1523 14.7383L96.6719 14.9297L96.918 14.957L101.457 14.9844ZM100.828 15.3398L100.664 15.3672L100.637 15.4492L100.883 15.4766H101.047L101.074 15.3945L100.828 15.3398ZM99.4062 15.4766L99.7617 15.5312C99.9258 15.5677 100.035 15.5404 100.09 15.4492V15.4219H100.008C99.625 15.4036 99.4245 15.4219 99.4062 15.4766ZM97.9297 15.4766V15.5586H97.9844C98.1484 15.5951 98.2487 15.5677 98.2852 15.4766V15.4492H98.1758C98.0482 15.431 97.9661 15.4401 97.9297 15.4766ZM99.625 16.0781L100.199 16.1875C100.801 16.2422 101.138 16.2057 101.211 16.0781V16.0234L101.074 15.9688C100.145 15.9505 99.6615 15.987 99.625 16.0781ZM96.6172 15.5312L96.5898 15.6406H96.6445C97.0456 15.6953 97.3464 15.6589 97.5469 15.5312V15.5039L97.4922 15.4766C97.3281 15.4583 97.0365 15.4766 96.6172 15.5312ZM94.1836 15.1484L94.1016 15.2305L94.0195 15.5586L94.1016 15.6406V15.668C94.1562 15.668 94.2292 15.5586 94.3203 15.3398V15.2305L94.293 15.1484H94.1836ZM95.0312 15.2578L94.8945 15.3672L94.8672 15.3945L95.0312 15.4219L95.0859 15.3672L95.1133 15.2852L95.0312 15.2578ZM99.1055 16.0234H99.0234V16.0781L99.1875 16.1328L99.1055 16.0234ZM98.6406 16.7891V16.8164H98.668C100.272 17.0169 101.092 17.0716 101.129 16.9805V16.9531C101.129 16.8984 101.083 16.8255 100.992 16.7344H100.965C100.4 16.6615 99.625 16.6797 98.6406 16.7891ZM94.0469 15.8867L93.9648 15.9414V16.0234H94.0195L94.1016 15.9688V15.9141L94.0469 15.8867ZM101.676 11.5938L101.785 11.6211C101.931 11.6393 101.849 12.3503 101.539 13.7539L101.566 13.7812C101.512 13.9635 100.582 13.8906 98.7773 13.5625C96.6992 13.4531 95.332 13.3255 94.6758 13.1797L94.7031 13.0977C94.7578 12.9518 95.5417 12.9792 97.0547 13.1797C97.7292 13.2161 98.0846 13.1888 98.1211 13.0977V13.0703L97.875 13.0156C95.7422 12.5964 94.6211 12.6055 94.5117 13.043L94.293 13.0977C93.6914 12.9518 93.5547 12.2591 93.8828 11.0195C93.9557 10.6914 94.7031 10.6185 96.125 10.8008C96.1432 10.7826 96.2435 10.7826 96.4258 10.8008L96.918 11.0469L97.1367 11.1016L101.676 11.5938ZM100.992 11.8945H100.828L100.801 11.9492L101.047 12.0312H101.238V11.9766L100.992 11.8945ZM99.5977 11.8945L99.9258 11.9766C100.108 12.013 100.217 11.9857 100.254 11.8945L100.199 11.8672C99.7982 11.8125 99.5977 11.8216 99.5977 11.8945ZM98.1211 11.7578V11.8125C98.3034 11.8672 98.4219 11.8581 98.4766 11.7852L98.5039 11.7305L98.3398 11.7031C98.2305 11.6849 98.1576 11.7031 98.1211 11.7578ZM99.7617 12.4961L100.309 12.6328C100.874 12.7604 101.202 12.7695 101.293 12.6602L101.32 12.5781L101.211 12.5234C100.281 12.4141 99.7982 12.4049 99.7617 12.4961ZM96.8086 11.6484L96.7812 11.7578L96.8086 11.7852C97.1367 11.8581 97.4466 11.849 97.7383 11.7578V11.7305L97.6836 11.7031C97.4648 11.6484 97.1732 11.6302 96.8086 11.6484ZM94.4297 11.0469L94.3203 11.1016L94.2109 11.457L94.293 11.5391C94.3477 11.5391 94.4297 11.4388 94.5391 11.2383L94.5664 11.1289L94.4844 11.0469H94.4297ZM95.25 11.2383L95.0859 11.293V11.3477L95.25 11.4023L95.332 11.3203V11.293L95.25 11.2383ZM99.2422 12.3867H99.1875L99.1602 12.4414L99.2969 12.4961L99.2422 12.3867ZM98.7227 13.0977L98.6953 13.1523H98.7227C100.309 13.5169 101.12 13.6445 101.156 13.5352L101.184 13.5078C101.184 13.4349 101.129 13.3529 101.02 13.2617H100.992C100.427 13.1341 99.6706 13.0794 98.7227 13.0977ZM94.2109 11.7852H94.1016V11.8945H94.1836L94.2656 11.8398L94.293 11.7852H94.2109Z" fill="black"/>
</svg>
