<svg width="71" height="22" viewBox="0 0 71 22" fill="none" xmlns="http://www.w3.org/2000/svg">
<path d="M4.46484 0.273438C5.50391 0.382812 6.02344 0.53776 6.02344 0.738281C6.02344 0.920573 6.08724 1.01172 6.21484 1.01172L6.29688 1.09375L5.99609 1.33984V1.44922H6.07812C6.16927 1.33984 6.24219 1.28516 6.29688 1.28516C6.38802 1.28516 6.43359 1.39453 6.43359 1.61328L6.67969 9.10547C6.4974 9.88932 6.40625 11.4388 6.40625 13.7539V13.8633C6.40625 15.2669 6.44271 16.1784 6.51562 16.5977C6.36979 16.6523 6.29688 16.7708 6.29688 16.9531C6.29688 17.1901 6.34245 17.3086 6.43359 17.3086H6.51562V17.1172H6.57031C6.66146 17.1172 6.7526 17.5456 6.84375 18.4023L6.78906 18.4297H6.67969C6.53385 18.2656 6.40625 18.1836 6.29688 18.1836V18.2383V18.3477C6.29688 18.6211 6.53385 18.7578 7.00781 18.7578C9.72396 18.612 11.082 18.6211 11.082 18.7852V18.8125C11.082 18.849 10.9453 18.9128 10.6719 19.0039L10.6445 19.0586V19.0859C10.681 19.1224 10.8451 19.1862 11.1367 19.2773C11.2096 19.3503 11.2461 19.4505 11.2461 19.5781C11.0638 20.5807 10.8451 21.082 10.5898 21.082L10.0703 21.1367L8.64844 20.9727L7.77344 21.0273C2.88802 21.1003 0.445312 21.0456 0.445312 20.8633C0.299479 20.6628 0.226562 20.5169 0.226562 20.4258V20.3984L0.5 19.4688L0.390625 19.2773C0.390625 19.0039 0.582031 18.8216 0.964844 18.7305L1.29297 18.6484L3.86328 18.5664C4.08203 18.5664 4.20964 18.4297 4.24609 18.1562V17.8828C4.24609 16.388 4.19141 15.1302 4.08203 14.1094C4.24609 8.71354 4.41927 6.01562 4.60156 6.01562L4.62891 5.66016C4.55599 4.11068 4.42839 3.33594 4.24609 3.33594C3.44401 3.86458 2.90625 4.38411 2.63281 4.89453L2.46875 4.97656C1.42969 4.59375 0.764323 4.22917 0.472656 3.88281C0.436198 3.88281 0.39974 3.75521 0.363281 3.5L0.417969 3.41797L0.609375 3.44531H0.800781C1.16536 3.44531 1.94922 2.81641 3.15234 1.55859C3.51693 1.23047 3.80859 0.856771 4.02734 0.4375C4.20964 0.328125 4.35547 0.273438 4.46484 0.273438ZM4.79297 1.20312V1.23047L4.82031 1.28516H4.875C5.03906 1.28516 5.13021 1.25781 5.14844 1.20312V1.17578L5.06641 1.09375H4.98438C4.85677 1.11198 4.79297 1.14844 4.79297 1.20312ZM3.97266 1.20312L3.86328 1.28516L3.94531 1.36719H4.02734L4.19141 1.33984V1.25781L4.10938 1.20312H3.97266ZM6.07812 1.77734L6.02344 1.85938V1.94141L6.07812 1.96875L6.16016 1.94141V1.85938L6.07812 1.77734ZM2.03125 4.04688V4.12891H2.05859C2.33203 4.12891 2.61458 3.95573 2.90625 3.60938C3.89062 2.69792 4.38281 2.14193 4.38281 1.94141H4.30078C3.27995 2.79818 2.52344 3.5 2.03125 4.04688ZM5.33984 2.70703V2.73438L5.47656 2.84375L5.55859 2.81641V2.54297L5.53125 2.48828V2.46094C5.40365 2.47917 5.33984 2.5612 5.33984 2.70703ZM5.23047 2.70703H5.12109L4.92969 3.17188V3.30859L5.03906 3.41797H5.20312C5.3125 3.41797 5.3763 3.38151 5.39453 3.30859V3.22656C5.39453 3.17188 5.30339 3.10807 5.12109 3.03516H5.06641V2.92578C5.17578 2.83464 5.23047 2.76172 5.23047 2.70703ZM1.48438 3.66406V3.71875H1.59375C1.79427 3.71875 1.96745 3.58203 2.11328 3.30859L2.08594 3.25391H2.05859C1.80339 3.36328 1.61198 3.5 1.48438 3.66406ZM5.53125 4.64844L5.61328 6.53516H5.66797C5.77734 6.22526 5.83203 5.77865 5.83203 5.19531V4.40234C5.83203 3.80078 5.79557 3.5 5.72266 3.5C5.61328 3.5 5.54948 3.88281 5.53125 4.64844ZM5.53125 8.77734V9.07812L5.61328 9.59766H5.66797C5.8138 9.59766 5.88672 9.06901 5.88672 8.01172V7.84766L5.80469 7.76562C5.6224 7.83854 5.53125 8.17578 5.53125 8.77734ZM4.73828 13.7812H4.65625V13.918H4.73828V13.7812ZM5.61328 15.9688V15.9961V16.1875L5.72266 16.2695H5.77734L5.83203 16.2148V16.1328C5.79557 16.1328 5.72266 16.0781 5.61328 15.9688ZM5.80469 16.8164H5.77734C5.66797 17.1263 5.61328 17.5091 5.61328 17.9648V18.1836C5.61328 18.4023 5.70443 18.5482 5.88672 18.6211H5.94141C5.99609 18.6211 6.02344 18.5664 6.02344 18.457C6.00521 17.3633 5.93229 16.8164 5.80469 16.8164ZM4.65625 17.5L4.54688 17.6641L4.60156 17.7734H4.62891L4.73828 17.6641V17.6094L4.65625 17.5ZM5.12109 17.9648L5.03906 18.0469V18.2383L5.12109 18.3203H5.20312V18.0469L5.12109 17.9648ZM1.64844 18.9219H1.40234V18.9766L1.51172 19.0859H1.56641L1.64844 18.9766V18.9219ZM1.59375 19.5781L0.828125 19.6602V19.7695L0.910156 19.8789H0.964844C1.14714 19.8789 1.35677 19.7786 1.59375 19.5781ZM6.89844 19.4688V19.5781L8.75781 19.2773H8.92188V19.168C8.5026 19.1133 7.82812 19.2135 6.89844 19.4688ZM2.46875 19.7695L1.86719 19.8516V19.9609H2.03125H2.27734C2.73307 19.9609 2.96094 19.9245 2.96094 19.8516L2.87891 19.7695H2.46875ZM4.62891 19.7148L4.60156 19.7695V19.7969C4.67448 19.8698 4.7474 19.9062 4.82031 19.9062V19.8516C4.78385 19.7604 4.72005 19.7148 4.62891 19.7148ZM4.13672 19.7695L4.08203 19.8516L4.13672 19.9062H4.24609L4.32812 19.8516V19.7695H4.13672ZM5.20312 19.9062L5.06641 19.9883V20.043C5.06641 20.1159 5.34896 20.1523 5.91406 20.1523H5.94141C6.08724 20.1523 6.16016 20.0977 6.16016 19.9883C6.08724 19.9336 6.00521 19.9062 5.91406 19.9062H5.20312ZM10.3438 20.1797V20.2891L10.4531 20.3984C10.6536 20.3984 10.7539 20.2526 10.7539 19.9609V19.7422L10.6992 19.6602H10.5898C10.4258 19.7878 10.3438 19.9609 10.3438 20.1797ZM6.67969 20.207C6.57031 20.3893 6.37891 20.4805 6.10547 20.4805V20.5352C6.10547 20.6081 6.38802 20.6536 6.95312 20.6719H7.00781C7.33594 20.4167 7.5638 20.1979 7.69141 20.0156C7.67318 19.9609 7.59115 19.9518 7.44531 19.9883C7.29948 20.0065 7.04427 20.0794 6.67969 20.207ZM8.64844 19.9609L8.04688 20.0156V20.0703C8.04688 20.125 8.3112 20.1523 8.83984 20.1523L8.86719 20.125V20.0977C8.83073 20.0065 8.75781 19.9609 8.64844 19.9609ZM9.27734 19.9609L9.19531 20.0156L9.22266 20.125H9.27734L9.35938 20.0703V20.0156L9.27734 19.9609ZM7.99219 20.3438H7.88281V20.3984H7.99219V20.3438ZM9.87891 20.7539V20.7812C9.87891 20.8177 9.96094 20.8542 10.125 20.8906C10.3073 20.8724 10.3984 20.8268 10.3984 20.7539V20.6992L10.2891 20.6172H10.1797C10.0156 20.6172 9.91536 20.6628 9.87891 20.7539ZM26.0117 2.73438C26.4128 2.73438 27.2057 2.98047 28.3906 3.47266C29.9583 4.18359 30.7422 5.1862 30.7422 6.48047V7.4375C30.7422 8.07552 30.5234 8.75 30.0859 9.46094C29.849 10.3542 29.6393 10.8008 29.457 10.8008C28.7461 11.1289 28.3906 11.4206 28.3906 11.6758V11.9492C28.3906 12.5872 28.4635 13.2708 28.6094 14C28.5547 14.9661 28.4362 15.4492 28.2539 15.4492C28.1081 15.4492 27.7891 15.6133 27.2969 15.9414L26.9961 15.9688C26.6862 15.9688 26.5312 15.8047 26.5312 15.4766C26.2031 13.6172 26.0391 12.25 26.0391 11.375C26.0391 11.1927 26.4857 10.7461 27.3789 10.0352C27.8164 9.59766 28.0807 9.2513 28.1719 8.99609C28.3724 8.77734 28.4909 8.66797 28.5273 8.66797L28.7734 8.75C28.9375 8.75 29.0833 8.38542 29.2109 7.65625V7.57422L28.9375 7.08203V6.97266H28.9102L29.0195 6.69922V6.34375C29.0195 6.14323 28.8737 5.92448 28.582 5.6875C28.4362 5.32292 28.2083 5.14062 27.8984 5.14062C27.2969 4.92188 26.6315 4.8125 25.9023 4.8125H25.6289C24.6445 4.8125 23.724 5.46875 22.8672 6.78125L21.8008 8.14844V8.23047C21.4362 8.70443 21.0898 8.75911 20.7617 8.39453C20.4336 8.01172 20.2695 7.72917 20.2695 7.54688L20.5703 6.50781C20.7891 5.9974 21.181 5.50521 21.7461 5.03125C22.8398 4.13802 23.7695 3.5 24.5352 3.11719C24.9909 2.86198 25.4831 2.73438 26.0117 2.73438ZM24.5352 3.52734V3.58203H24.8359C25.3099 3.58203 25.7292 3.47266 26.0938 3.25391V3.17188L26.0117 3.11719H25.7383C25.319 3.11719 24.918 3.25391 24.5352 3.52734ZM27.1055 3.47266L26.9961 3.52734V3.58203C26.9961 3.63672 27.0599 3.66406 27.1875 3.66406C27.388 3.66406 27.4883 3.61849 27.4883 3.52734L27.4062 3.47266H27.1055ZM23.8789 4.01953L23.9609 4.10156L24.2891 3.99219V3.85547H24.2344C24.0521 3.85547 23.9336 3.91016 23.8789 4.01953ZM28.9102 4.15625L28.8828 4.21094C29.0104 4.46615 29.2565 4.66667 29.6211 4.8125H29.7578V4.78516C29.7578 4.65755 29.4753 4.44792 28.9102 4.15625ZM22.1289 5.19531C22.4753 5.19531 22.849 4.99479 23.25 4.59375C23.4505 4.5026 23.5508 4.4388 23.5508 4.40234V4.375L23.3594 4.21094H23.332C23.2409 4.21094 22.9036 4.41146 22.3203 4.8125C22.1927 4.86719 22.1289 4.99479 22.1289 5.19531ZM25.7109 4.21094H25.6289V4.26562H25.7109V4.21094ZM21.8008 5.44141L21.6914 5.60547V5.63281H21.7188C21.8099 5.59635 21.8555 5.53255 21.8555 5.44141H21.8008ZM30.2227 5.87891H30.168V5.90625C30.168 6.05208 30.2227 6.13411 30.332 6.15234H30.3594V6.125C30.3594 5.9974 30.3138 5.91536 30.2227 5.87891ZM22.4844 6.23438V6.28906H22.5391C22.6302 6.2526 22.694 6.17969 22.7305 6.07031V6.01562L22.6758 5.96094C22.5482 6.01562 22.4844 6.10677 22.4844 6.23438ZM20.9531 6.69922V6.75391L21.0625 6.78125C21.3177 6.63542 21.4453 6.47135 21.4453 6.28906V6.17969H21.3633C21.0898 6.36198 20.9531 6.53516 20.9531 6.69922ZM21.3633 7.35547L21.2812 7.38281V7.46484H21.3633L21.4453 7.38281V7.35547H21.3633ZM21.5 8.64062H21.5273V8.72266H21.5V8.64062ZM28.8555 8.91406H28.6914V9.05078H28.7734L28.8555 8.94141V8.91406ZM28.9102 10.1992V10.2812H28.9648C29.1471 10.2812 29.2474 10.2266 29.2656 10.1172L29.2109 10.0898H29.1836C29.0013 10.1081 28.9102 10.1445 28.9102 10.1992ZM26.7227 11.5664V11.6484C26.7227 12.0677 26.8503 12.2773 27.1055 12.2773C27.1237 12.2773 27.151 12.2044 27.1875 12.0586C27.1693 11.5117 27.1237 11.2383 27.0508 11.2383H26.9141C26.7865 11.2565 26.7227 11.3659 26.7227 11.5664ZM27.8438 12.1953L27.7891 12.2773H27.8984V12.1953H27.8438ZM26.9961 12.6055L26.9141 12.7148V12.7695C26.9141 12.9336 26.9779 13.0247 27.1055 13.043H27.1602L27.1875 12.8789C27.1875 12.7695 27.1237 12.6784 26.9961 12.6055ZM27.2969 14.4922L27.1602 14.6562L27.2695 14.9844L27.1602 15.4492H27.3242C27.4518 15.4492 27.5612 15.3763 27.6523 15.2305V15.1211C27.5794 15.0664 27.543 14.8932 27.543 14.6016L27.4062 14.4922H27.2969ZM27.6797 17.418C27.9896 17.418 28.4818 17.6094 29.1562 17.9922C29.4297 18.0651 29.5664 18.1289 29.5664 18.1836C29.5664 18.2565 29.4023 18.3203 29.0742 18.375V18.4023V18.457L29.2109 18.9219C29.5391 19.7422 29.3477 20.3984 28.6367 20.8906C27.4883 20.9089 26.7135 20.3529 26.3125 19.2227L26.2031 18.8125C26.2031 18.4115 26.6953 17.9466 27.6797 17.418ZM27.6797 17.8828H27.4883V17.9102C27.5612 18.0195 27.8438 18.138 28.3359 18.2656L28.3906 18.2109V18.1562C28.2266 17.974 27.9896 17.8828 27.6797 17.8828ZM27.2969 19.0586C27.2969 19.0768 27.3789 19.1315 27.543 19.2227C27.5794 19.332 27.6159 19.3867 27.6523 19.3867H27.6797L28.0078 18.9766C28.0078 18.8672 27.9531 18.7852 27.8438 18.7305H27.4062C27.3333 18.7487 27.2969 18.8581 27.2969 19.0586ZM44.2773 0.273438C45.3164 0.382812 45.8359 0.53776 45.8359 0.738281C45.8359 0.920573 45.8997 1.01172 46.0273 1.01172L46.1094 1.09375L45.8086 1.33984V1.44922H45.8906C45.9818 1.33984 46.0547 1.28516 46.1094 1.28516C46.2005 1.28516 46.2461 1.39453 46.2461 1.61328L46.4922 9.10547C46.3099 9.88932 46.2188 11.4388 46.2188 13.7539V13.8633C46.2188 15.2669 46.2552 16.1784 46.3281 16.5977C46.1823 16.6523 46.1094 16.7708 46.1094 16.9531C46.1094 17.1901 46.1549 17.3086 46.2461 17.3086H46.3281V17.1172H46.3828C46.474 17.1172 46.5651 17.5456 46.6562 18.4023L46.6016 18.4297H46.4922C46.3464 18.2656 46.2188 18.1836 46.1094 18.1836V18.2383V18.3477C46.1094 18.6211 46.3464 18.7578 46.8203 18.7578C49.5365 18.612 50.8945 18.6211 50.8945 18.7852V18.8125C50.8945 18.849 50.7578 18.9128 50.4844 19.0039L50.457 19.0586V19.0859C50.4935 19.1224 50.6576 19.1862 50.9492 19.2773C51.0221 19.3503 51.0586 19.4505 51.0586 19.5781C50.8763 20.5807 50.6576 21.082 50.4023 21.082L49.8828 21.1367L48.4609 20.9727L47.5859 21.0273C42.7005 21.1003 40.2578 21.0456 40.2578 20.8633C40.112 20.6628 40.0391 20.5169 40.0391 20.4258V20.3984L40.3125 19.4688L40.2031 19.2773C40.2031 19.0039 40.3945 18.8216 40.7773 18.7305L41.1055 18.6484L43.6758 18.5664C43.8945 18.5664 44.0221 18.4297 44.0586 18.1562V17.8828C44.0586 16.388 44.0039 15.1302 43.8945 14.1094C44.0586 8.71354 44.2318 6.01562 44.4141 6.01562L44.4414 5.66016C44.3685 4.11068 44.2409 3.33594 44.0586 3.33594C43.2565 3.86458 42.7188 4.38411 42.4453 4.89453L42.2812 4.97656C41.2422 4.59375 40.5768 4.22917 40.2852 3.88281C40.2487 3.88281 40.2122 3.75521 40.1758 3.5L40.2305 3.41797L40.4219 3.44531H40.6133C40.9779 3.44531 41.7617 2.81641 42.9648 1.55859C43.3294 1.23047 43.6211 0.856771 43.8398 0.4375C44.0221 0.328125 44.168 0.273438 44.2773 0.273438ZM44.6055 1.20312V1.23047L44.6328 1.28516H44.6875C44.8516 1.28516 44.9427 1.25781 44.9609 1.20312V1.17578L44.8789 1.09375H44.7969C44.6693 1.11198 44.6055 1.14844 44.6055 1.20312ZM43.7852 1.20312L43.6758 1.28516L43.7578 1.36719H43.8398L44.0039 1.33984V1.25781L43.9219 1.20312H43.7852ZM45.8906 1.77734L45.8359 1.85938V1.94141L45.8906 1.96875L45.9727 1.94141V1.85938L45.8906 1.77734ZM41.8438 4.04688V4.12891H41.8711C42.1445 4.12891 42.4271 3.95573 42.7188 3.60938C43.7031 2.69792 44.1953 2.14193 44.1953 1.94141H44.1133C43.0924 2.79818 42.3359 3.5 41.8438 4.04688ZM45.1523 2.70703V2.73438L45.2891 2.84375L45.3711 2.81641V2.54297L45.3438 2.48828V2.46094C45.2161 2.47917 45.1523 2.5612 45.1523 2.70703ZM45.043 2.70703H44.9336L44.7422 3.17188V3.30859L44.8516 3.41797H45.0156C45.125 3.41797 45.1888 3.38151 45.207 3.30859V3.22656C45.207 3.17188 45.1159 3.10807 44.9336 3.03516H44.8789V2.92578C44.9883 2.83464 45.043 2.76172 45.043 2.70703ZM41.2969 3.66406V3.71875H41.4062C41.6068 3.71875 41.7799 3.58203 41.9258 3.30859L41.8984 3.25391H41.8711C41.6159 3.36328 41.4245 3.5 41.2969 3.66406ZM45.3438 4.64844L45.4258 6.53516H45.4805C45.5898 6.22526 45.6445 5.77865 45.6445 5.19531V4.40234C45.6445 3.80078 45.6081 3.5 45.5352 3.5C45.4258 3.5 45.362 3.88281 45.3438 4.64844ZM45.3438 8.77734V9.07812L45.4258 9.59766H45.4805C45.6263 9.59766 45.6992 9.06901 45.6992 8.01172V7.84766L45.6172 7.76562C45.4349 7.83854 45.3438 8.17578 45.3438 8.77734ZM44.5508 13.7812H44.4688V13.918H44.5508V13.7812ZM45.4258 15.9688V15.9961V16.1875L45.5352 16.2695H45.5898L45.6445 16.2148V16.1328C45.6081 16.1328 45.5352 16.0781 45.4258 15.9688ZM45.6172 16.8164H45.5898C45.4805 17.1263 45.4258 17.5091 45.4258 17.9648V18.1836C45.4258 18.4023 45.5169 18.5482 45.6992 18.6211H45.7539C45.8086 18.6211 45.8359 18.5664 45.8359 18.457C45.8177 17.3633 45.7448 16.8164 45.6172 16.8164ZM44.4688 17.5L44.3594 17.6641L44.4141 17.7734H44.4414L44.5508 17.6641V17.6094L44.4688 17.5ZM44.9336 17.9648L44.8516 18.0469V18.2383L44.9336 18.3203H45.0156V18.0469L44.9336 17.9648ZM41.4609 18.9219H41.2148V18.9766L41.3242 19.0859H41.3789L41.4609 18.9766V18.9219ZM41.4062 19.5781L40.6406 19.6602V19.7695L40.7227 19.8789H40.7773C40.9596 19.8789 41.1693 19.7786 41.4062 19.5781ZM46.7109 19.4688V19.5781L48.5703 19.2773H48.7344V19.168C48.3151 19.1133 47.6406 19.2135 46.7109 19.4688ZM42.2812 19.7695L41.6797 19.8516V19.9609H41.8438H42.0898C42.5456 19.9609 42.7734 19.9245 42.7734 19.8516L42.6914 19.7695H42.2812ZM44.4414 19.7148L44.4141 19.7695V19.7969C44.487 19.8698 44.5599 19.9062 44.6328 19.9062V19.8516C44.5964 19.7604 44.5326 19.7148 44.4414 19.7148ZM43.9492 19.7695L43.8945 19.8516L43.9492 19.9062H44.0586L44.1406 19.8516V19.7695H43.9492ZM45.0156 19.9062L44.8789 19.9883V20.043C44.8789 20.1159 45.1615 20.1523 45.7266 20.1523H45.7539C45.8997 20.1523 45.9727 20.0977 45.9727 19.9883C45.8997 19.9336 45.8177 19.9062 45.7266 19.9062H45.0156ZM50.1562 20.1797V20.2891L50.2656 20.3984C50.4661 20.3984 50.5664 20.2526 50.5664 19.9609V19.7422L50.5117 19.6602H50.4023C50.2383 19.7878 50.1562 19.9609 50.1562 20.1797ZM46.4922 20.207C46.3828 20.3893 46.1914 20.4805 45.918 20.4805V20.5352C45.918 20.6081 46.2005 20.6536 46.7656 20.6719H46.8203C47.1484 20.4167 47.3763 20.1979 47.5039 20.0156C47.4857 19.9609 47.4036 19.9518 47.2578 19.9883C47.112 20.0065 46.8568 20.0794 46.4922 20.207ZM48.4609 19.9609L47.8594 20.0156V20.0703C47.8594 20.125 48.1237 20.1523 48.6523 20.1523L48.6797 20.125V20.0977C48.6432 20.0065 48.5703 19.9609 48.4609 19.9609ZM49.0898 19.9609L49.0078 20.0156L49.0352 20.125H49.0898L49.1719 20.0703V20.0156L49.0898 19.9609ZM47.8047 20.3438H47.6953V20.3984H47.8047V20.3438ZM49.6914 20.7539V20.7812C49.6914 20.8177 49.7734 20.8542 49.9375 20.8906C50.1198 20.8724 50.2109 20.8268 50.2109 20.7539V20.6992L50.1016 20.6172H49.9922C49.8281 20.6172 49.7279 20.6628 49.6914 20.7539ZM69.6523 14.9844L69.7617 15.0117C69.8711 15.0482 69.862 15.7773 69.7344 17.1992H69.7617C69.7435 17.3815 68.8047 17.3815 66.9453 17.1992C64.8672 17.3268 63.5091 17.3359 62.8711 17.2266V17.1992C62.8893 17.0352 63.6823 16.9714 65.25 17.0078C65.888 16.9896 66.2253 16.9349 66.2617 16.8438L66.2891 16.8164L66.0156 16.7617C63.8646 16.5794 62.7526 16.707 62.6797 17.1445L62.4609 17.1992C61.8411 17.1263 61.6315 16.4427 61.832 15.1484C61.8867 14.8203 62.625 14.6836 64.0469 14.7383C64.0469 14.7018 64.1471 14.7018 64.3477 14.7383L64.8672 14.9297L65.1133 14.957L69.6523 14.9844ZM69.0234 15.3398L68.8594 15.3672L68.832 15.4492L69.0781 15.4766H69.2422L69.2695 15.3945L69.0234 15.3398ZM67.6016 15.4766L67.957 15.5312C68.1211 15.5677 68.2305 15.5404 68.2852 15.4492V15.4219H68.2031C67.8203 15.4036 67.6198 15.4219 67.6016 15.4766ZM66.125 15.4766V15.5586H66.1797C66.3438 15.5951 66.444 15.5677 66.4805 15.4766V15.4492H66.3711C66.2435 15.431 66.1615 15.4401 66.125 15.4766ZM67.8203 16.0781L68.3945 16.1875C68.9961 16.2422 69.3333 16.2057 69.4062 16.0781V16.0234L69.2695 15.9688C68.3398 15.9505 67.8568 15.987 67.8203 16.0781ZM64.8125 15.5312L64.7852 15.6406H64.8398C65.2409 15.6953 65.5417 15.6589 65.7422 15.5312V15.5039L65.6875 15.4766C65.5234 15.4583 65.2318 15.4766 64.8125 15.5312ZM62.3789 15.1484L62.2969 15.2305L62.2148 15.5586L62.2969 15.6406V15.668C62.3516 15.668 62.4245 15.5586 62.5156 15.3398V15.2305L62.4883 15.1484H62.3789ZM63.2266 15.2578L63.0898 15.3672L63.0625 15.3945L63.2266 15.4219L63.2812 15.3672L63.3086 15.2852L63.2266 15.2578ZM67.3008 16.0234H67.2188V16.0781L67.3828 16.1328L67.3008 16.0234ZM66.8359 16.7891V16.8164H66.8633C68.4674 17.0169 69.2878 17.0716 69.3242 16.9805V16.9531C69.3242 16.8984 69.2786 16.8255 69.1875 16.7344H69.1602C68.5951 16.6615 67.8203 16.6797 66.8359 16.7891ZM62.2422 15.8867L62.1602 15.9414V16.0234H62.2148L62.2969 15.9688V15.9141L62.2422 15.8867ZM69.8711 11.5938L69.9805 11.6211C70.1263 11.6393 70.0443 12.3503 69.7344 13.7539L69.7617 13.7812C69.707 13.9635 68.7773 13.8906 66.9727 13.5625C64.8945 13.4531 63.5273 13.3255 62.8711 13.1797L62.8984 13.0977C62.9531 12.9518 63.737 12.9792 65.25 13.1797C65.9245 13.2161 66.2799 13.1888 66.3164 13.0977V13.0703L66.0703 13.0156C63.9375 12.5964 62.8164 12.6055 62.707 13.043L62.4883 13.0977C61.8867 12.9518 61.75 12.2591 62.0781 11.0195C62.151 10.6914 62.8984 10.6185 64.3203 10.8008C64.3385 10.7826 64.4388 10.7826 64.6211 10.8008L65.1133 11.0469L65.332 11.1016L69.8711 11.5938ZM69.1875 11.8945H69.0234L68.9961 11.9492L69.2422 12.0312H69.4336V11.9766L69.1875 11.8945ZM67.793 11.8945L68.1211 11.9766C68.3034 12.013 68.4128 11.9857 68.4492 11.8945L68.3945 11.8672C67.9935 11.8125 67.793 11.8216 67.793 11.8945ZM66.3164 11.7578V11.8125C66.4987 11.8672 66.6172 11.8581 66.6719 11.7852L66.6992 11.7305L66.5352 11.7031C66.4258 11.6849 66.3529 11.7031 66.3164 11.7578ZM67.957 12.4961L68.5039 12.6328C69.069 12.7604 69.3971 12.7695 69.4883 12.6602L69.5156 12.5781L69.4062 12.5234C68.4766 12.4141 67.9935 12.4049 67.957 12.4961ZM65.0039 11.6484L64.9766 11.7578L65.0039 11.7852C65.332 11.8581 65.6419 11.849 65.9336 11.7578V11.7305L65.8789 11.7031C65.6602 11.6484 65.3685 11.6302 65.0039 11.6484ZM62.625 11.0469L62.5156 11.1016L62.4062 11.457L62.4883 11.5391C62.543 11.5391 62.625 11.4388 62.7344 11.2383L62.7617 11.1289L62.6797 11.0469H62.625ZM63.4453 11.2383L63.2812 11.293V11.3477L63.4453 11.4023L63.5273 11.3203V11.293L63.4453 11.2383ZM67.4375 12.3867H67.3828L67.3555 12.4414L67.4922 12.4961L67.4375 12.3867ZM66.918 13.0977L66.8906 13.1523H66.918C68.5039 13.5169 69.3151 13.6445 69.3516 13.5352L69.3789 13.5078C69.3789 13.4349 69.3242 13.3529 69.2148 13.2617H69.1875C68.6224 13.1341 67.8659 13.0794 66.918 13.0977ZM62.4062 11.7852H62.2969V11.8945H62.3789L62.4609 11.8398L62.4883 11.7852H62.4062Z" fill="black"/>
</svg>
