<svg width="88" height="93" viewBox="0 0 88 93" fill="none" xmlns="http://www.w3.org/2000/svg">
<circle cx="43.8244" cy="30.0916" r="27.5916" transform="rotate(180 43.8244 30.0916)" stroke="#CBAB90" stroke-width="5"/>
<path d="M39.0357 45.9292L25.3757 32.4672L39.0357 20.193L39.0357 27.9138L53.0917 27.9138C58.8328 27.9138 63.0298 20.3513 55.2694 14.6498C63.3862 18.2133 66.1578 39.9901 55.2694 39.9901L39.0357 39.9901L39.0357 45.9292Z" fill="#CBAB90"/>
<path d="M39.0357 27.9138L39.0357 20.193L25.3757 32.4672L39.0357 45.9292L39.0357 39.9901M39.0357 27.9138L53.0917 27.9138C58.8328 27.9138 63.0298 20.3513 55.2694 14.6498C63.3862 18.2133 66.1578 39.9901 55.2694 39.9901C35.1555 39.9901 41.8073 39.9901 39.0357 39.9901M39.0357 27.9138L39.0357 39.9901" stroke="#CBAB90"/>
<path d="M7.62891 86.0117L12.5039 71.9375H14.9648L8.63672 89H6.64453L0.328125 71.9375H2.77734L7.62891 86.0117ZM30.2227 81.0195C30.2227 82.6914 29.9414 84.1523 29.3789 85.4023C28.8164 86.6445 28.0195 87.5938 26.9883 88.25C25.957 88.9062 24.7539 89.2344 23.3789 89.2344C22.0352 89.2344 20.8438 88.9062 19.8047 88.25C18.7656 87.5859 17.957 86.6445 17.3789 85.4258C16.8086 84.1992 16.5156 82.7812 16.5 81.1719V79.9414C16.5 78.3008 16.7852 76.8516 17.3555 75.5938C17.9258 74.3359 18.7305 73.375 19.7695 72.7109C20.8164 72.0391 22.0117 71.7031 23.3555 71.7031C24.7227 71.7031 25.9258 72.0352 26.9648 72.6992C28.0117 73.3555 28.8164 74.3125 29.3789 75.5703C29.9414 76.8203 30.2227 78.2773 30.2227 79.9414V81.0195ZM27.9844 79.918C27.9844 77.8945 27.5781 76.3438 26.7656 75.2656C25.9531 74.1797 24.8164 73.6367 23.3555 73.6367C21.9336 73.6367 20.8125 74.1797 19.9922 75.2656C19.1797 76.3438 18.7617 77.8438 18.7383 79.7656V81.0195C18.7383 82.9805 19.1484 84.5234 19.9688 85.6484C20.7969 86.7656 21.9336 87.3242 23.3789 87.3242C24.832 87.3242 25.957 86.7969 26.7539 85.7422C27.5508 84.6797 27.9609 83.1602 27.9844 81.1836V79.918ZM35.8594 87.1602H43.9453V89H33.5977V71.9375H35.8594V87.1602ZM55.0664 73.7891H49.582V89H47.3438V73.7891H41.8711V71.9375H55.0664V73.7891ZM66.082 84.5469H58.9336L57.3281 89H55.0078L61.5234 71.9375H63.4922L70.0195 89H67.7109L66.082 84.5469ZM59.6133 82.6953H65.4141L62.5078 74.7148L59.6133 82.6953ZM78.5742 82.0977H74.5664V89H72.3047V71.9375H77.9531C79.875 71.9375 81.3516 72.375 82.3828 73.25C83.4219 74.125 83.9414 75.3984 83.9414 77.0703C83.9414 78.1328 83.6523 79.0586 83.0742 79.8477C82.5039 80.6367 81.707 81.2266 80.6836 81.6172L84.6914 88.8594V89H82.2773L78.5742 82.0977ZM74.5664 80.2578H78.0234C79.1406 80.2578 80.0273 79.9688 80.6836 79.3906C81.3477 78.8125 81.6797 78.0391 81.6797 77.0703C81.6797 76.0156 81.3633 75.207 80.7305 74.6445C80.1055 74.082 79.1992 73.7969 78.0117 73.7891H74.5664V80.2578Z" fill="#CBAB90"/>
</svg>
