<svg width="372" height="265" viewBox="0 0 372 265" fill="none" xmlns="http://www.w3.org/2000/svg">
<rect x="1" y="1.27075" width="370.954" height="263.729" rx="50" fill="#74AB73"/>
<rect x="1" y="1.27075" width="370.954" height="263.729" rx="50" fill="url(#paint0_linear)"/>
<path d="M29.3248 51.9642C29.3248 61.2577 10.7762 62.4601 1.50189 61.8997V47.2135C0.236725 16.7884 29.6101 4.7844 29.3248 7.33195V51.9642Z" fill="#225C21"/>
<path d="M29.3248 51.9642C29.3248 61.2577 10.7762 62.4601 1.50189 61.8997V47.2135C0.236725 16.7884 29.6101 4.7844 29.3248 7.33195V51.9642Z" fill="url(#paint1_linear)"/>
<path d="M29.3248 51.9642C29.3248 61.2577 10.7762 62.4601 1.50189 61.8997V47.2135C0.236725 16.7884 29.6101 4.7844 29.3248 7.33195V51.9642Z" stroke="#2F772E"/>
<path d="M29.325 192.778C29.325 216.698 12.4625 212.843 1.50195 211.269V48.447C24.0976 48.447 29.606 60.3275 29.325 66.8845V192.778Z" fill="#225C21"/>
<path d="M29.325 192.778C29.325 216.698 12.4625 212.843 1.50195 211.269V48.447C24.0976 48.447 29.606 60.3275 29.325 66.8845V192.778Z" fill="url(#paint2_linear)"/>
<path d="M29.325 192.778C29.325 216.698 12.4625 212.843 1.50195 211.269V48.447C24.0976 48.447 29.606 60.3275 29.325 66.8845V192.778Z" stroke="#2F772E"/>
<path d="M29.9539 260C26.5801 259.178 1.50195 247.444 1.50195 219.075V204.684C24.0976 204.684 29.606 208.749 29.3249 210.576C29.3249 219.491 29.9539 247.666 29.9539 260Z" fill="#225C21"/>
<path d="M29.9539 260C26.5801 259.178 1.50195 247.444 1.50195 219.075V204.684C24.0976 204.684 29.606 208.749 29.3249 210.576C29.3249 219.491 29.9539 247.666 29.9539 260Z" fill="url(#paint3_linear)"/>
<path d="M29.9539 260C26.5801 259.178 1.50195 247.444 1.50195 219.075V204.684C24.0976 204.684 29.606 208.749 29.3249 210.576C29.3249 219.491 29.9539 247.666 29.9539 260Z" stroke="#2F772E"/>
<path d="M343.583 51.9642C343.583 61.2577 362.132 62.4601 371.406 61.8997V47.2135C372.671 16.7884 343.298 4.7844 343.583 7.33195V51.9642Z" fill="#225C21"/>
<path d="M343.583 51.9642C343.583 61.2577 362.132 62.4601 371.406 61.8997V47.2135C372.671 16.7884 343.298 4.7844 343.583 7.33195V51.9642Z" fill="url(#paint4_linear)"/>
<path d="M343.583 51.9642C343.583 61.2577 362.132 62.4601 371.406 61.8997V47.2135C372.671 16.7884 343.298 4.7844 343.583 7.33195V51.9642Z" stroke="#2F772E"/>
<path d="M343.583 192.778C343.583 216.698 360.445 212.843 371.406 211.269V48.447C348.81 48.447 343.302 60.3275 343.583 66.8845V192.778Z" fill="#225C21"/>
<path d="M343.583 192.778C343.583 216.698 360.445 212.843 371.406 211.269V48.447C348.81 48.447 343.302 60.3275 343.583 66.8845V192.778Z" fill="url(#paint5_linear)"/>
<path d="M343.583 192.778C343.583 216.698 360.445 212.843 371.406 211.269V48.447C348.81 48.447 343.302 60.3275 343.583 66.8845V192.778Z" stroke="#2F772E"/>
<path d="M342.954 260C346.328 259.178 371.406 247.444 371.406 219.075V204.684C348.81 204.684 343.302 208.749 343.583 210.576C343.583 219.491 342.954 247.666 342.954 260Z" fill="#225C21"/>
<path d="M342.954 260C346.328 259.178 371.406 247.444 371.406 219.075V204.684C348.81 204.684 343.302 208.749 343.583 210.576C343.583 219.491 342.954 247.666 342.954 260Z" fill="url(#paint6_linear)"/>
<path d="M342.954 260C346.328 259.178 371.406 247.444 371.406 219.075V204.684C348.81 204.684 343.302 208.749 343.583 210.576C343.583 219.491 342.954 247.666 342.954 260Z" stroke="#2F772E"/>
<path d="M60.5469 6.63918V50.5649C60.5469 61.6529 66.8046 59.9471 72.4148 59.9471C76.9031 59.9471 77.5936 56.6775 77.3778 55.0428V50.5649V6.63918C77.3778 -0.184228 71.9833 1.09516 66.1572 1.09516C61.4964 1.09516 60.475 4.79118 60.5469 6.63918Z" fill="#2F772E"/>
<path d="M60.5469 6.63918V50.5649C60.5469 61.6529 66.8046 59.9471 72.4148 59.9471C76.9031 59.9471 77.5936 56.6775 77.3778 55.0428V50.5649V6.63918C77.3778 -0.184228 71.9833 1.09516 66.1572 1.09516C61.4964 1.09516 60.475 4.79118 60.5469 6.63918Z" fill="url(#paint7_linear)"/>
<path d="M60.5469 6.63918V50.5649C60.5469 61.6529 66.8046 59.9471 72.4148 59.9471C76.9031 59.9471 77.5936 56.6775 77.3778 55.0428V50.5649V6.63918C77.3778 -0.184228 71.9833 1.09516 66.1572 1.09516C61.4964 1.09516 60.475 4.79118 60.5469 6.63918Z" stroke="#2F772E"/>
<path d="M60.5469 62.3069V106.233C60.5469 117.321 66.8046 115.615 72.4148 115.615C76.9031 115.615 77.5936 112.345 77.3778 110.71V106.233V62.3069C77.3778 55.4835 71.9833 56.7629 66.1572 56.7629C61.4964 56.7629 60.475 60.4589 60.5469 62.3069Z" fill="#2F772E"/>
<path d="M60.5469 62.3069V106.233C60.5469 117.321 66.8046 115.615 72.4148 115.615C76.9031 115.615 77.5936 112.345 77.3778 110.71V106.233V62.3069C77.3778 55.4835 71.9833 56.7629 66.1572 56.7629C61.4964 56.7629 60.475 60.4589 60.5469 62.3069Z" fill="url(#paint8_linear)"/>
<path d="M60.5469 62.3069V106.233C60.5469 117.321 66.8046 115.615 72.4148 115.615C76.9031 115.615 77.5936 112.345 77.3778 110.71V106.233V62.3069C77.3778 55.4835 71.9833 56.7629 66.1572 56.7629C61.4964 56.7629 60.475 60.4589 60.5469 62.3069Z" stroke="#2F772E"/>
<path d="M60.5469 118.818V162.744C60.5469 173.832 66.8046 172.126 72.4148 172.126C76.9031 172.126 77.5936 168.856 77.3778 167.222V162.744V118.818C77.3778 111.995 71.9833 113.274 66.1572 113.274C61.4964 113.274 60.475 116.97 60.5469 118.818Z" fill="#2F772E"/>
<path d="M60.5469 118.818V162.744C60.5469 173.832 66.8046 172.126 72.4148 172.126C76.9031 172.126 77.5936 168.856 77.3778 167.222V162.744V118.818C77.3778 111.995 71.9833 113.274 66.1572 113.274C61.4964 113.274 60.475 116.97 60.5469 118.818Z" fill="url(#paint9_linear)"/>
<path d="M60.5469 118.818V162.744C60.5469 173.832 66.8046 172.126 72.4148 172.126C76.9031 172.126 77.5936 168.856 77.3778 167.222V162.744V118.818C77.3778 111.995 71.9833 113.274 66.1572 113.274C61.4964 113.274 60.475 116.97 60.5469 118.818Z" stroke="#2F772E"/>
<path d="M60.5469 176.092V219.39C60.5469 230.32 66.8046 228.638 72.4148 228.638C76.9031 228.638 77.5936 225.416 77.3778 223.804V219.39V176.092C77.3778 169.366 71.9833 170.627 66.1572 170.627C61.4964 170.627 60.475 174.27 60.5469 176.092Z" fill="#2F772E"/>
<path d="M60.5469 176.092V219.39C60.5469 230.32 66.8046 228.638 72.4148 228.638C76.9031 228.638 77.5936 225.416 77.3778 223.804V219.39V176.092C77.3778 169.366 71.9833 170.627 66.1572 170.627C61.4964 170.627 60.475 174.27 60.5469 176.092Z" fill="url(#paint10_linear)"/>
<path d="M60.5469 176.092V219.39C60.5469 230.32 66.8046 228.638 72.4148 228.638C76.9031 228.638 77.5936 225.416 77.3778 223.804V219.39V176.092C77.3778 169.366 71.9833 170.627 66.1572 170.627C61.4964 170.627 60.475 174.27 60.5469 176.092Z" stroke="#2F772E"/>
<path d="M88.3805 5.51135V40.6519C88.3805 49.5224 93.3866 48.1577 97.8748 48.1577C101.465 48.1577 102.018 45.542 101.845 44.2342V40.6519V5.51135C101.845 0.0526173 97.5295 1.07613 92.8687 1.07613C89.14 1.07613 88.3229 4.03294 88.3805 5.51135Z" fill="#2F772E"/>
<path d="M88.3805 5.51135V40.6519C88.3805 49.5224 93.3866 48.1577 97.8748 48.1577C101.465 48.1577 102.018 45.542 101.845 44.2342V40.6519V5.51135C101.845 0.0526173 97.5295 1.07613 92.8687 1.07613C89.14 1.07613 88.3229 4.03294 88.3805 5.51135Z" fill="url(#paint11_linear)"/>
<path d="M88.3805 5.51135V40.6519C88.3805 49.5224 93.3866 48.1577 97.8748 48.1577C101.465 48.1577 102.018 45.542 101.845 44.2342V40.6519V5.51135C101.845 0.0526173 97.5295 1.07613 92.8687 1.07613C89.14 1.07613 88.3229 4.03294 88.3805 5.51135Z" stroke="#2F772E"/>
<path d="M88.3802 50.0455V85.1861C88.3802 94.0565 93.3863 92.6919 97.8746 92.6919C101.465 92.6919 102.018 90.0762 101.845 88.7684V85.1861V50.0455C101.845 44.5868 97.5293 45.6103 92.8684 45.6103C89.1398 45.6103 88.3227 48.5671 88.3802 50.0455Z" fill="#2F772E"/>
<path d="M88.3802 50.0455V85.1861C88.3802 94.0565 93.3863 92.6919 97.8746 92.6919C101.465 92.6919 102.018 90.0762 101.845 88.7684V85.1861V50.0455C101.845 44.5868 97.5293 45.6103 92.8684 45.6103C89.1398 45.6103 88.3227 48.5671 88.3802 50.0455Z" fill="url(#paint12_linear)"/>
<path d="M88.3802 50.0455V85.1861C88.3802 94.0565 93.3863 92.6919 97.8746 92.6919C101.465 92.6919 102.018 90.0762 101.845 88.7684V85.1861V50.0455C101.845 44.5868 97.5293 45.6103 92.8684 45.6103C89.1398 45.6103 88.3227 48.5671 88.3802 50.0455Z" stroke="#2F772E"/>
<path d="M88.3802 95.2545V130.395C88.3802 139.266 93.3863 137.901 97.8746 137.901C101.465 137.901 102.018 135.285 101.845 133.977V130.395V95.2545C101.845 89.7958 97.5293 90.8193 92.8684 90.8193C89.1398 90.8193 88.3227 93.7761 88.3802 95.2545Z" fill="#2F772E"/>
<path d="M88.3802 95.2545V130.395C88.3802 139.266 93.3863 137.901 97.8746 137.901C101.465 137.901 102.018 135.285 101.845 133.977V130.395V95.2545C101.845 89.7958 97.5293 90.8193 92.8684 90.8193C89.1398 90.8193 88.3227 93.7761 88.3802 95.2545Z" fill="url(#paint13_linear)"/>
<path d="M88.3802 95.2545V130.395C88.3802 139.266 93.3863 137.901 97.8746 137.901C101.465 137.901 102.018 135.285 101.845 133.977V130.395V95.2545C101.845 89.7958 97.5293 90.8193 92.8684 90.8193C89.1398 90.8193 88.3227 93.7761 88.3802 95.2545Z" stroke="#2F772E"/>
<path d="M88.3802 141.074V175.712C88.3802 184.456 93.3863 183.111 97.8746 183.111C101.465 183.111 102.018 180.532 101.845 179.243V175.712V141.074C101.845 135.693 97.5293 136.702 92.8684 136.702C89.1398 136.702 88.3227 139.616 88.3802 141.074Z" fill="#2F772E"/>
<path d="M88.3802 141.074V175.712C88.3802 184.456 93.3863 183.111 97.8746 183.111C101.465 183.111 102.018 180.532 101.845 179.243V175.712V141.074C101.845 135.693 97.5293 136.702 92.8684 136.702C89.1398 136.702 88.3227 139.616 88.3802 141.074Z" fill="url(#paint14_linear)"/>
<path d="M88.3802 141.074V175.712C88.3802 184.456 93.3863 183.111 97.8746 183.111C101.465 183.111 102.018 180.532 101.845 179.243V175.712V141.074C101.845 135.693 97.5293 136.702 92.8684 136.702C89.1398 136.702 88.3227 139.616 88.3802 141.074Z" stroke="#2F772E"/>
<path d="M133.084 6.63918V50.5649C133.084 61.6529 139.341 59.9471 144.951 59.9471C149.44 59.9471 150.13 56.6775 149.914 55.0428V50.5649V6.63918C149.914 -0.184228 144.52 1.09516 138.694 1.09516C134.033 1.09516 133.012 4.79118 133.084 6.63918Z" fill="#2F772E"/>
<path d="M133.084 6.63918V50.5649C133.084 61.6529 139.341 59.9471 144.951 59.9471C149.44 59.9471 150.13 56.6775 149.914 55.0428V50.5649V6.63918C149.914 -0.184228 144.52 1.09516 138.694 1.09516C134.033 1.09516 133.012 4.79118 133.084 6.63918Z" fill="url(#paint15_linear)"/>
<path d="M133.084 6.63918V50.5649C133.084 61.6529 139.341 59.9471 144.951 59.9471C149.44 59.9471 150.13 56.6775 149.914 55.0428V50.5649V6.63918C149.914 -0.184228 144.52 1.09516 138.694 1.09516C134.033 1.09516 133.012 4.79118 133.084 6.63918Z" stroke="#2F772E"/>
<path d="M133.084 62.3069V106.233C133.084 117.321 139.341 115.615 144.951 115.615C149.44 115.615 150.13 112.345 149.914 110.71V106.233V62.3069C149.914 55.4835 144.52 56.7629 138.694 56.7629C134.033 56.7629 133.012 60.4589 133.084 62.3069Z" fill="#2F772E"/>
<path d="M133.084 62.3069V106.233C133.084 117.321 139.341 115.615 144.951 115.615C149.44 115.615 150.13 112.345 149.914 110.71V106.233V62.3069C149.914 55.4835 144.52 56.7629 138.694 56.7629C134.033 56.7629 133.012 60.4589 133.084 62.3069Z" fill="url(#paint16_linear)"/>
<path d="M133.084 62.3069V106.233C133.084 117.321 139.341 115.615 144.951 115.615C149.44 115.615 150.13 112.345 149.914 110.71V106.233V62.3069C149.914 55.4835 144.52 56.7629 138.694 56.7629C134.033 56.7629 133.012 60.4589 133.084 62.3069Z" stroke="#2F772E"/>
<path d="M133.084 118.818V162.744C133.084 173.832 139.341 172.126 144.951 172.126C149.44 172.126 150.13 168.856 149.914 167.222V162.744V118.818C149.914 111.995 144.52 113.274 138.694 113.274C134.033 113.274 133.012 116.97 133.084 118.818Z" fill="#2F772E"/>
<path d="M133.084 118.818V162.744C133.084 173.832 139.341 172.126 144.951 172.126C149.44 172.126 150.13 168.856 149.914 167.222V162.744V118.818C149.914 111.995 144.52 113.274 138.694 113.274C134.033 113.274 133.012 116.97 133.084 118.818Z" fill="url(#paint17_linear)"/>
<path d="M133.084 118.818V162.744C133.084 173.832 139.341 172.126 144.951 172.126C149.44 172.126 150.13 168.856 149.914 167.222V162.744V118.818C149.914 111.995 144.52 113.274 138.694 113.274C134.033 113.274 133.012 116.97 133.084 118.818Z" stroke="#2F772E"/>
<path d="M133.084 176.092V219.39C133.084 230.32 139.341 228.638 144.951 228.638C149.44 228.638 150.13 225.416 149.914 223.804V219.39V176.092C149.914 169.366 144.52 170.627 138.694 170.627C134.033 170.627 133.012 174.27 133.084 176.092Z" fill="#2F772E"/>
<path d="M133.084 176.092V219.39C133.084 230.32 139.341 228.638 144.951 228.638C149.44 228.638 150.13 225.416 149.914 223.804V219.39V176.092C149.914 169.366 144.52 170.627 138.694 170.627C134.033 170.627 133.012 174.27 133.084 176.092Z" fill="url(#paint18_linear)"/>
<path d="M133.084 176.092V219.39C133.084 230.32 139.341 228.638 144.951 228.638C149.44 228.638 150.13 225.416 149.914 223.804V219.39V176.092C149.914 169.366 144.52 170.627 138.694 170.627C134.033 170.627 133.012 174.27 133.084 176.092Z" stroke="#2F772E"/>
<path d="M160.917 5.51135V40.6519C160.917 49.5224 165.923 48.1577 170.411 48.1577C174.002 48.1577 174.554 45.542 174.382 44.2342V40.6519V5.51135C174.382 0.0526173 170.066 1.07613 165.405 1.07613C161.677 1.07613 160.86 4.03294 160.917 5.51135Z" fill="#2F772E"/>
<path d="M160.917 5.51135V40.6519C160.917 49.5224 165.923 48.1577 170.411 48.1577C174.002 48.1577 174.554 45.542 174.382 44.2342V40.6519V5.51135C174.382 0.0526173 170.066 1.07613 165.405 1.07613C161.677 1.07613 160.86 4.03294 160.917 5.51135Z" fill="url(#paint19_linear)"/>
<path d="M160.917 5.51135V40.6519C160.917 49.5224 165.923 48.1577 170.411 48.1577C174.002 48.1577 174.554 45.542 174.382 44.2342V40.6519V5.51135C174.382 0.0526173 170.066 1.07613 165.405 1.07613C161.677 1.07613 160.86 4.03294 160.917 5.51135Z" stroke="#2F772E"/>
<path d="M160.917 50.0455V85.1861C160.917 94.0565 165.923 92.6919 170.411 92.6919C174.002 92.6919 174.554 90.0762 174.382 88.7684V85.1861V50.0455C174.382 44.5868 170.066 45.6103 165.405 45.6103C161.676 45.6103 160.859 48.5671 160.917 50.0455Z" fill="#2F772E"/>
<path d="M160.917 50.0455V85.1861C160.917 94.0565 165.923 92.6919 170.411 92.6919C174.002 92.6919 174.554 90.0762 174.382 88.7684V85.1861V50.0455C174.382 44.5868 170.066 45.6103 165.405 45.6103C161.676 45.6103 160.859 48.5671 160.917 50.0455Z" fill="url(#paint20_linear)"/>
<path d="M160.917 50.0455V85.1861C160.917 94.0565 165.923 92.6919 170.411 92.6919C174.002 92.6919 174.554 90.0762 174.382 88.7684V85.1861V50.0455C174.382 44.5868 170.066 45.6103 165.405 45.6103C161.676 45.6103 160.859 48.5671 160.917 50.0455Z" stroke="#2F772E"/>
<path d="M160.917 95.2545V130.395C160.917 139.266 165.923 137.901 170.411 137.901C174.002 137.901 174.554 135.285 174.382 133.977V130.395V95.2545C174.382 89.7958 170.066 90.8193 165.405 90.8193C161.676 90.8193 160.859 93.7761 160.917 95.2545Z" fill="#2F772E"/>
<path d="M160.917 95.2545V130.395C160.917 139.266 165.923 137.901 170.411 137.901C174.002 137.901 174.554 135.285 174.382 133.977V130.395V95.2545C174.382 89.7958 170.066 90.8193 165.405 90.8193C161.676 90.8193 160.859 93.7761 160.917 95.2545Z" fill="url(#paint21_linear)"/>
<path d="M160.917 95.2545V130.395C160.917 139.266 165.923 137.901 170.411 137.901C174.002 137.901 174.554 135.285 174.382 133.977V130.395V95.2545C174.382 89.7958 170.066 90.8193 165.405 90.8193C161.676 90.8193 160.859 93.7761 160.917 95.2545Z" stroke="#2F772E"/>
<path d="M160.917 141.074V175.712C160.917 184.456 165.923 183.111 170.411 183.111C174.002 183.111 174.554 180.532 174.382 179.243V175.712V141.074C174.382 135.693 170.066 136.702 165.405 136.702C161.676 136.702 160.859 139.616 160.917 141.074Z" fill="#2F772E"/>
<path d="M160.917 141.074V175.712C160.917 184.456 165.923 183.111 170.411 183.111C174.002 183.111 174.554 180.532 174.382 179.243V175.712V141.074C174.382 135.693 170.066 136.702 165.405 136.702C161.676 136.702 160.859 139.616 160.917 141.074Z" fill="url(#paint22_linear)"/>
<path d="M160.917 141.074V175.712C160.917 184.456 165.923 183.111 170.411 183.111C174.002 183.111 174.554 180.532 174.382 179.243V175.712V141.074C174.382 135.693 170.066 136.702 165.405 136.702C161.676 136.702 160.859 139.616 160.917 141.074Z" stroke="#2F772E"/>
<path d="M233.454 5.51135V40.6519C233.454 49.5224 238.46 48.1577 242.948 48.1577C246.539 48.1577 247.091 45.542 246.918 44.2342V40.6519V5.51135C246.918 0.0526173 242.603 1.07613 237.942 1.07613C234.213 1.07613 233.396 4.03294 233.454 5.51135Z" fill="#2F772E"/>
<path d="M233.454 5.51135V40.6519C233.454 49.5224 238.46 48.1577 242.948 48.1577C246.539 48.1577 247.091 45.542 246.918 44.2342V40.6519V5.51135C246.918 0.0526173 242.603 1.07613 237.942 1.07613C234.213 1.07613 233.396 4.03294 233.454 5.51135Z" fill="url(#paint23_linear)"/>
<path d="M233.454 5.51135V40.6519C233.454 49.5224 238.46 48.1577 242.948 48.1577C246.539 48.1577 247.091 45.542 246.918 44.2342V40.6519V5.51135C246.918 0.0526173 242.603 1.07613 237.942 1.07613C234.213 1.07613 233.396 4.03294 233.454 5.51135Z" stroke="#2F772E"/>
<path d="M233.453 50.0455V85.1861C233.453 94.0565 238.46 92.6919 242.948 92.6919C246.538 92.6919 247.091 90.0762 246.918 88.7684V85.1861V50.0455C246.918 44.5868 242.603 45.6103 237.942 45.6103C234.213 45.6103 233.396 48.5671 233.453 50.0455Z" fill="#2F772E"/>
<path d="M233.453 50.0455V85.1861C233.453 94.0565 238.46 92.6919 242.948 92.6919C246.538 92.6919 247.091 90.0762 246.918 88.7684V85.1861V50.0455C246.918 44.5868 242.603 45.6103 237.942 45.6103C234.213 45.6103 233.396 48.5671 233.453 50.0455Z" fill="url(#paint24_linear)"/>
<path d="M233.453 50.0455V85.1861C233.453 94.0565 238.46 92.6919 242.948 92.6919C246.538 92.6919 247.091 90.0762 246.918 88.7684V85.1861V50.0455C246.918 44.5868 242.603 45.6103 237.942 45.6103C234.213 45.6103 233.396 48.5671 233.453 50.0455Z" stroke="#2F772E"/>
<path d="M233.453 95.2545V130.395C233.453 139.266 238.46 137.901 242.948 137.901C246.538 137.901 247.091 135.285 246.918 133.977V130.395V95.2545C246.918 89.7958 242.603 90.8193 237.942 90.8193C234.213 90.8193 233.396 93.7761 233.453 95.2545Z" fill="#2F772E"/>
<path d="M233.453 95.2545V130.395C233.453 139.266 238.46 137.901 242.948 137.901C246.538 137.901 247.091 135.285 246.918 133.977V130.395V95.2545C246.918 89.7958 242.603 90.8193 237.942 90.8193C234.213 90.8193 233.396 93.7761 233.453 95.2545Z" fill="url(#paint25_linear)"/>
<path d="M233.453 95.2545V130.395C233.453 139.266 238.46 137.901 242.948 137.901C246.538 137.901 247.091 135.285 246.918 133.977V130.395V95.2545C246.918 89.7958 242.603 90.8193 237.942 90.8193C234.213 90.8193 233.396 93.7761 233.453 95.2545Z" stroke="#2F772E"/>
<path d="M233.453 141.074V175.712C233.453 184.456 238.46 183.111 242.948 183.111C246.538 183.111 247.091 180.532 246.918 179.243V175.712V141.074C246.918 135.693 242.603 136.702 237.942 136.702C234.213 136.702 233.396 139.616 233.453 141.074Z" fill="#2F772E"/>
<path d="M233.453 141.074V175.712C233.453 184.456 238.46 183.111 242.948 183.111C246.538 183.111 247.091 180.532 246.918 179.243V175.712V141.074C246.918 135.693 242.603 136.702 237.942 136.702C234.213 136.702 233.396 139.616 233.453 141.074Z" fill="url(#paint26_linear)"/>
<path d="M233.453 141.074V175.712C233.453 184.456 238.46 183.111 242.948 183.111C246.538 183.111 247.091 180.532 246.918 179.243V175.712V141.074C246.918 135.693 242.603 136.702 237.942 136.702C234.213 136.702 233.396 139.616 233.453 141.074Z" stroke="#2F772E"/>
<path d="M284.061 6.63918V50.5649C284.061 61.6529 290.319 59.9471 295.929 59.9471C300.417 59.9471 301.108 56.6775 300.892 55.0428V50.5649V6.63918C300.892 -0.184228 295.498 1.09516 289.672 1.09516C285.011 1.09516 283.989 4.79118 284.061 6.63918Z" fill="#2F772E"/>
<path d="M284.061 6.63918V50.5649C284.061 61.6529 290.319 59.9471 295.929 59.9471C300.417 59.9471 301.108 56.6775 300.892 55.0428V50.5649V6.63918C300.892 -0.184228 295.498 1.09516 289.672 1.09516C285.011 1.09516 283.989 4.79118 284.061 6.63918Z" fill="url(#paint27_linear)"/>
<path d="M284.061 6.63918V50.5649C284.061 61.6529 290.319 59.9471 295.929 59.9471C300.417 59.9471 301.108 56.6775 300.892 55.0428V50.5649V6.63918C300.892 -0.184228 295.498 1.09516 289.672 1.09516C285.011 1.09516 283.989 4.79118 284.061 6.63918Z" stroke="#2F772E"/>
<path d="M284.061 62.3069V106.233C284.061 117.321 290.319 115.615 295.929 115.615C300.417 115.615 301.108 112.345 300.892 110.71V106.233V62.3069C300.892 55.4835 295.497 56.7629 289.671 56.7629C285.011 56.7629 283.989 60.4589 284.061 62.3069Z" fill="#2F772E"/>
<path d="M284.061 62.3069V106.233C284.061 117.321 290.319 115.615 295.929 115.615C300.417 115.615 301.108 112.345 300.892 110.71V106.233V62.3069C300.892 55.4835 295.497 56.7629 289.671 56.7629C285.011 56.7629 283.989 60.4589 284.061 62.3069Z" fill="url(#paint28_linear)"/>
<path d="M284.061 62.3069V106.233C284.061 117.321 290.319 115.615 295.929 115.615C300.417 115.615 301.108 112.345 300.892 110.71V106.233V62.3069C300.892 55.4835 295.497 56.7629 289.671 56.7629C285.011 56.7629 283.989 60.4589 284.061 62.3069Z" stroke="#2F772E"/>
<path d="M284.061 118.818V162.744C284.061 173.832 290.319 172.126 295.929 172.126C300.417 172.126 301.108 168.856 300.892 167.222V162.744V118.818C300.892 111.995 295.497 113.274 289.671 113.274C285.011 113.274 283.989 116.97 284.061 118.818Z" fill="#2F772E"/>
<path d="M284.061 118.818V162.744C284.061 173.832 290.319 172.126 295.929 172.126C300.417 172.126 301.108 168.856 300.892 167.222V162.744V118.818C300.892 111.995 295.497 113.274 289.671 113.274C285.011 113.274 283.989 116.97 284.061 118.818Z" fill="url(#paint29_linear)"/>
<path d="M284.061 118.818V162.744C284.061 173.832 290.319 172.126 295.929 172.126C300.417 172.126 301.108 168.856 300.892 167.222V162.744V118.818C300.892 111.995 295.497 113.274 289.671 113.274C285.011 113.274 283.989 116.97 284.061 118.818Z" stroke="#2F772E"/>
<path d="M284.061 176.092V219.39C284.061 230.32 290.319 228.638 295.929 228.638C300.417 228.638 301.108 225.416 300.892 223.804V219.39V176.092C300.892 169.366 295.497 170.627 289.671 170.627C285.011 170.627 283.989 174.27 284.061 176.092Z" fill="#2F772E"/>
<path d="M284.061 176.092V219.39C284.061 230.32 290.319 228.638 295.929 228.638C300.417 228.638 301.108 225.416 300.892 223.804V219.39V176.092C300.892 169.366 295.497 170.627 289.671 170.627C285.011 170.627 283.989 174.27 284.061 176.092Z" fill="url(#paint30_linear)"/>
<path d="M284.061 176.092V219.39C284.061 230.32 290.319 228.638 295.929 228.638C300.417 228.638 301.108 225.416 300.892 223.804V219.39V176.092C300.892 169.366 295.497 170.627 289.671 170.627C285.011 170.627 283.989 174.27 284.061 176.092Z" stroke="#2F772E"/>
<path d="M311.895 5.51135V40.6519C311.895 49.5224 316.901 48.1577 321.389 48.1577C324.98 48.1577 325.532 45.542 325.359 44.2342V40.6519V5.51135C325.359 0.0526173 321.044 1.07613 316.383 1.07613C312.654 1.07613 311.837 4.03294 311.895 5.51135Z" fill="#2F772E"/>
<path d="M311.895 5.51135V40.6519C311.895 49.5224 316.901 48.1577 321.389 48.1577C324.98 48.1577 325.532 45.542 325.359 44.2342V40.6519V5.51135C325.359 0.0526173 321.044 1.07613 316.383 1.07613C312.654 1.07613 311.837 4.03294 311.895 5.51135Z" fill="url(#paint31_linear)"/>
<path d="M311.895 5.51135V40.6519C311.895 49.5224 316.901 48.1577 321.389 48.1577C324.98 48.1577 325.532 45.542 325.359 44.2342V40.6519V5.51135C325.359 0.0526173 321.044 1.07613 316.383 1.07613C312.654 1.07613 311.837 4.03294 311.895 5.51135Z" stroke="#2F772E"/>
<path d="M311.894 50.0455V85.1861C311.894 94.0565 316.9 92.6919 321.389 92.6919C324.979 92.6919 325.532 90.0762 325.359 88.7684V85.1861V50.0455C325.359 44.5868 321.043 45.6103 316.383 45.6103C312.654 45.6103 311.837 48.5671 311.894 50.0455Z" fill="#2F772E"/>
<path d="M311.894 50.0455V85.1861C311.894 94.0565 316.9 92.6919 321.389 92.6919C324.979 92.6919 325.532 90.0762 325.359 88.7684V85.1861V50.0455C325.359 44.5868 321.043 45.6103 316.383 45.6103C312.654 45.6103 311.837 48.5671 311.894 50.0455Z" fill="url(#paint32_linear)"/>
<path d="M311.894 50.0455V85.1861C311.894 94.0565 316.9 92.6919 321.389 92.6919C324.979 92.6919 325.532 90.0762 325.359 88.7684V85.1861V50.0455C325.359 44.5868 321.043 45.6103 316.383 45.6103C312.654 45.6103 311.837 48.5671 311.894 50.0455Z" stroke="#2F772E"/>
<path d="M311.894 95.2545V130.395C311.894 139.266 316.9 137.901 321.389 137.901C324.979 137.901 325.532 135.285 325.359 133.977V130.395V95.2545C325.359 89.7958 321.043 90.8193 316.383 90.8193C312.654 90.8193 311.837 93.7761 311.894 95.2545Z" fill="#2F772E"/>
<path d="M311.894 95.2545V130.395C311.894 139.266 316.9 137.901 321.389 137.901C324.979 137.901 325.532 135.285 325.359 133.977V130.395V95.2545C325.359 89.7958 321.043 90.8193 316.383 90.8193C312.654 90.8193 311.837 93.7761 311.894 95.2545Z" fill="url(#paint33_linear)"/>
<path d="M311.894 95.2545V130.395C311.894 139.266 316.9 137.901 321.389 137.901C324.979 137.901 325.532 135.285 325.359 133.977V130.395V95.2545C325.359 89.7958 321.043 90.8193 316.383 90.8193C312.654 90.8193 311.837 93.7761 311.894 95.2545Z" stroke="#2F772E"/>
<path d="M311.894 141.074V175.712C311.894 184.456 316.9 183.111 321.389 183.111C324.979 183.111 325.532 180.532 325.359 179.243V175.712V141.074C325.359 135.693 321.043 136.702 316.383 136.702C312.654 136.702 311.837 139.616 311.894 141.074Z" fill="#2F772E"/>
<path d="M311.894 141.074V175.712C311.894 184.456 316.9 183.111 321.389 183.111C324.979 183.111 325.532 180.532 325.359 179.243V175.712V141.074C325.359 135.693 321.043 136.702 316.383 136.702C312.654 136.702 311.837 139.616 311.894 141.074Z" fill="url(#paint34_linear)"/>
<path d="M311.894 141.074V175.712C311.894 184.456 316.9 183.111 321.389 183.111C324.979 183.111 325.532 180.532 325.359 179.243V175.712V141.074C325.359 135.693 321.043 136.702 316.383 136.702C312.654 136.702 311.837 139.616 311.894 141.074Z" stroke="#2F772E"/>
<path d="M205.62 6.63918V50.5649C205.62 61.6529 211.878 59.9471 217.488 59.9471C221.977 59.9471 222.667 56.6775 222.451 55.0428V50.5649V6.63918C222.451 -0.184228 217.057 1.09516 211.231 1.09516C206.57 1.09516 205.548 4.79118 205.62 6.63918Z" fill="#2F772E"/>
<path d="M205.62 6.63918V50.5649C205.62 61.6529 211.878 59.9471 217.488 59.9471C221.977 59.9471 222.667 56.6775 222.451 55.0428V50.5649V6.63918C222.451 -0.184228 217.057 1.09516 211.231 1.09516C206.57 1.09516 205.548 4.79118 205.62 6.63918Z" fill="url(#paint35_linear)"/>
<path d="M205.62 6.63918V50.5649C205.62 61.6529 211.878 59.9471 217.488 59.9471C221.977 59.9471 222.667 56.6775 222.451 55.0428V50.5649V6.63918C222.451 -0.184228 217.057 1.09516 211.231 1.09516C206.57 1.09516 205.548 4.79118 205.62 6.63918Z" stroke="#2F772E"/>
<path d="M205.62 62.3069V106.233C205.62 117.321 211.878 115.615 217.488 115.615C221.976 115.615 222.667 112.345 222.451 110.71V106.233V62.3069C222.451 55.4835 217.057 56.7629 211.23 56.7629C206.57 56.7629 205.548 60.4589 205.62 62.3069Z" fill="#2F772E"/>
<path d="M205.62 62.3069V106.233C205.62 117.321 211.878 115.615 217.488 115.615C221.976 115.615 222.667 112.345 222.451 110.71V106.233V62.3069C222.451 55.4835 217.057 56.7629 211.23 56.7629C206.57 56.7629 205.548 60.4589 205.62 62.3069Z" fill="url(#paint36_linear)"/>
<path d="M205.62 62.3069V106.233C205.62 117.321 211.878 115.615 217.488 115.615C221.976 115.615 222.667 112.345 222.451 110.71V106.233V62.3069C222.451 55.4835 217.057 56.7629 211.23 56.7629C206.57 56.7629 205.548 60.4589 205.62 62.3069Z" stroke="#2F772E"/>
<path d="M205.62 118.818V162.744C205.62 173.832 211.878 172.126 217.488 172.126C221.976 172.126 222.667 168.856 222.451 167.222V162.744V118.818C222.451 111.995 217.057 113.274 211.23 113.274C206.57 113.274 205.548 116.97 205.62 118.818Z" fill="#2F772E"/>
<path d="M205.62 118.818V162.744C205.62 173.832 211.878 172.126 217.488 172.126C221.976 172.126 222.667 168.856 222.451 167.222V162.744V118.818C222.451 111.995 217.057 113.274 211.23 113.274C206.57 113.274 205.548 116.97 205.62 118.818Z" fill="url(#paint37_linear)"/>
<path d="M205.62 118.818V162.744C205.62 173.832 211.878 172.126 217.488 172.126C221.976 172.126 222.667 168.856 222.451 167.222V162.744V118.818C222.451 111.995 217.057 113.274 211.23 113.274C206.57 113.274 205.548 116.97 205.62 118.818Z" stroke="#2F772E"/>
<path d="M205.62 176.092V219.39C205.62 230.32 211.878 228.638 217.488 228.638C221.976 228.638 222.667 225.416 222.451 223.804V219.39V176.092C222.451 169.366 217.057 170.627 211.23 170.627C206.57 170.627 205.548 174.27 205.62 176.092Z" fill="#2F772E"/>
<path d="M205.62 176.092V219.39C205.62 230.32 211.878 228.638 217.488 228.638C221.976 228.638 222.667 225.416 222.451 223.804V219.39V176.092C222.451 169.366 217.057 170.627 211.23 170.627C206.57 170.627 205.548 174.27 205.62 176.092Z" fill="url(#paint38_linear)"/>
<path d="M205.62 176.092V219.39C205.62 230.32 211.878 228.638 217.488 228.638C221.976 228.638 222.667 225.416 222.451 223.804V219.39V176.092C222.451 169.366 217.057 170.627 211.23 170.627C206.57 170.627 205.548 174.27 205.62 176.092Z" stroke="#2F772E"/>
<path d="M82.8947 87.8753C46.4576 102.383 23.572 173.486 16.6838 207.224C55.1452 60.1258 125.208 75.6453 155.431 101.792C146.435 91.1086 119.332 73.368 82.8947 87.8753Z" fill="#608E24" stroke="#225C21" stroke-width="0.5"/>
<path d="M85.425 76.067C48.9879 90.5743 26.1023 161.677 19.2141 195.415C57.6755 48.3175 127.738 63.837 157.962 89.9839C148.965 79.3002 121.862 61.5596 85.425 76.067Z" fill="#608E24" stroke="#225C21" stroke-width="0.5"/>
<path d="M48.4812 145.584C30.9825 153.23 19.9918 190.706 16.6838 208.489C35.1546 130.958 68.8017 139.138 83.3164 152.919C78.9958 147.288 65.9798 137.937 48.4812 145.584Z" fill="#608E24" stroke="#225C21" stroke-width="0.5"/>
<path d="M40.9832 8.18548C27.6108 13.5097 19.2118 39.6044 16.6838 51.9863C30.7992 -1.99859 56.5121 3.69706 67.6042 13.293C64.3024 9.37207 54.3556 2.86128 40.9832 8.18548Z" fill="#608E24" stroke="#225C21" stroke-width="0.5"/>
<path d="M41.9117 3.85174C28.5393 9.17594 20.1403 35.2707 17.6123 47.6526C31.7276 -6.33233 57.4406 -0.636683 68.5327 8.95926C65.2309 5.03833 55.2841 -1.47246 41.9117 3.85174Z" fill="#608E24" stroke="#225C21" stroke-width="0.5"/>
<path d="M28.3535 29.3644C21.9314 32.1706 17.8979 45.9244 16.6838 52.4505C23.4626 23.9967 35.8111 26.9987 41.138 32.0564C39.5523 29.9898 34.7755 26.5582 28.3535 29.3644Z" fill="#608E24" stroke="#225C21" stroke-width="0.5"/>
<path d="M185.31 72.3847C178.847 74.9581 174.788 87.5705 173.566 93.5551C180.388 67.4624 192.816 70.2153 198.177 74.8533C196.581 72.9582 191.774 69.8113 185.31 72.3847Z" fill="#608E24" stroke="#225C21" stroke-width="0.5"/>
<path d="M185.759 70.2902C179.296 72.8636 175.236 85.4761 174.014 91.4606C180.837 65.3679 193.265 68.1208 198.626 72.7589C197.03 70.8637 192.222 67.7169 185.759 70.2902Z" fill="#608E24" stroke="#225C21" stroke-width="0.5"/>
<path d="M179.206 82.6215C176.102 83.9778 174.152 90.6255 173.566 93.7798C176.842 80.0271 182.811 81.478 185.385 83.9226C184.619 82.9237 182.31 81.2651 179.206 82.6215Z" fill="#608E24" stroke="#225C21" stroke-width="0.5"/>
<path d="M233.387 96.8447C226.924 99.418 222.864 112.031 221.642 118.015C228.465 91.9224 240.893 94.6753 246.254 99.3133C244.658 97.4182 239.85 94.2713 233.387 96.8447Z" fill="#608E24" stroke="#225C21" stroke-width="0.5"/>
<path d="M233.836 94.7502C227.372 97.3236 223.313 109.936 222.091 115.921C228.913 89.8279 241.341 92.5808 246.702 97.2188C245.106 95.3237 240.299 92.1768 233.836 94.7502Z" fill="#608E24" stroke="#225C21" stroke-width="0.5"/>
<path d="M227.283 107.081C224.179 108.438 222.229 115.085 221.642 118.24C224.919 104.487 230.887 105.938 233.462 108.383C232.695 107.384 230.387 105.725 227.283 107.081Z" fill="#608E24" stroke="#225C21" stroke-width="0.5"/>
<path d="M310.984 95.1579C304.521 97.7313 300.462 110.344 299.24 116.328C306.062 90.2356 318.49 92.9885 323.851 97.6265C322.255 95.7314 317.448 92.5845 310.984 95.1579Z" fill="#608E24" stroke="#225C21" stroke-width="0.5"/>
<path d="M311.433 93.0634C304.97 95.6368 300.91 108.249 299.688 114.234C306.511 88.1411 318.939 90.894 324.3 95.5321C322.704 93.6369 317.897 90.4901 311.433 93.0634Z" fill="#608E24" stroke="#225C21" stroke-width="0.5"/>
<path d="M304.88 105.395C301.776 106.751 299.827 113.399 299.24 116.553C302.516 102.8 308.485 104.251 311.059 106.696C310.293 105.697 307.984 104.038 304.88 105.395Z" fill="#608E24" stroke="#225C21" stroke-width="0.5"/>
<path d="M51.0859 39.4904C57.5492 42.0638 61.6087 54.6763 62.8306 60.6608C56.0082 34.5681 43.5802 37.321 38.219 41.9591C39.8149 40.0639 44.6225 36.9171 51.0859 39.4904Z" fill="#608E24" stroke="#225C21" stroke-width="0.5"/>
<path d="M50.6374 37.3957C57.1007 39.9691 61.1602 52.5815 62.3821 58.5661C55.5597 32.4734 43.1317 35.2263 37.7706 39.8643C39.3664 37.9692 44.174 34.8223 50.6374 37.3957Z" fill="#608E24" stroke="#225C21" stroke-width="0.5"/>
<path d="M57.1902 49.7269C60.2942 51.0833 62.2438 57.7309 62.8306 60.8852C59.5542 47.1325 53.5857 48.5835 51.011 51.0281C51.7775 50.0292 54.0863 48.3706 57.1902 49.7269Z" fill="#608E24" stroke="#225C21" stroke-width="0.5"/>
<path d="M123.622 95.1579C130.086 97.7313 134.145 110.344 135.367 116.328C128.545 90.2356 116.117 92.9885 110.756 97.6265C112.352 95.7314 117.159 92.5845 123.622 95.1579Z" fill="#608E24" stroke="#225C21" stroke-width="0.5"/>
<path d="M123.174 93.0634C129.637 95.6368 133.697 108.249 134.918 114.234C128.096 88.1411 115.668 90.894 110.307 95.5321C111.903 93.6369 116.71 90.4901 123.174 93.0634Z" fill="#608E24" stroke="#225C21" stroke-width="0.5"/>
<path d="M129.727 105.395C132.831 106.751 134.78 113.399 135.367 116.553C132.091 102.8 126.122 104.251 123.548 106.696C124.314 105.697 126.623 104.038 129.727 105.395Z" fill="#608E24" stroke="#225C21" stroke-width="0.5"/>
<path d="M122.779 36.1162C129.243 38.6895 133.302 51.302 134.524 57.2866C127.702 31.1939 115.274 33.9467 109.912 38.5848C111.508 36.6897 116.316 33.5428 122.779 36.1162Z" fill="#608E24" stroke="#225C21" stroke-width="0.5"/>
<path d="M122.33 34.0217C128.794 36.595 132.853 49.2075 134.075 55.1921C127.253 29.0994 114.825 31.8523 109.464 36.4903C111.06 34.5952 115.867 31.4483 122.33 34.0217Z" fill="#608E24" stroke="#225C21" stroke-width="0.5"/>
<path d="M128.884 46.3527C131.988 47.709 133.937 54.3567 134.524 57.511C131.248 43.7583 125.279 45.2092 122.704 47.6538C123.471 46.655 125.78 44.9963 128.884 46.3527Z" fill="#608E24" stroke="#225C21" stroke-width="0.5"/>
<path d="M196.159 150.826C202.622 153.399 206.682 166.011 207.904 171.996C201.081 145.903 188.653 148.656 183.292 153.294C184.888 151.399 189.696 148.252 196.159 150.826Z" fill="#608E24" stroke="#225C21" stroke-width="0.5"/>
<path d="M195.71 148.731C202.174 151.305 206.233 163.917 207.455 169.902C200.633 143.809 188.205 146.562 182.844 151.2C184.439 149.305 189.247 146.158 195.71 148.731Z" fill="#608E24" stroke="#225C21" stroke-width="0.5"/>
<path d="M202.263 161.062C205.367 162.419 207.317 169.066 207.904 172.221C204.627 158.468 198.659 159.919 196.084 162.364C196.851 161.365 199.16 159.706 202.263 161.062Z" fill="#608E24" stroke="#225C21" stroke-width="0.5"/>
<path d="M276.287 152.513C282.75 155.086 286.81 167.698 288.032 173.683C281.209 147.59 268.781 150.343 263.42 154.981C265.016 153.086 269.824 149.939 276.287 152.513Z" fill="#608E24" stroke="#225C21" stroke-width="0.5"/>
<path d="M275.838 150.418C282.302 152.991 286.361 165.604 287.583 171.588C280.761 145.496 268.333 148.249 262.971 152.887C264.567 150.991 269.375 147.845 275.838 150.418Z" fill="#608E24" stroke="#225C21" stroke-width="0.5"/>
<path d="M282.391 162.749C285.495 164.105 287.445 170.753 288.032 173.907C284.755 160.155 278.787 161.606 276.212 164.05C276.979 163.051 279.287 161.393 282.391 162.749Z" fill="#608E24" stroke="#225C21" stroke-width="0.5"/>
<path d="M337.016 190.468C343.479 193.041 347.538 205.654 348.76 211.638C341.938 185.545 329.51 188.298 324.149 192.936C325.745 191.041 330.552 187.894 337.016 190.468Z" fill="#608E24" stroke="#225C21" stroke-width="0.5"/>
<path d="M336.567 188.373C343.03 190.947 347.09 203.559 348.312 209.544C341.489 183.451 329.061 186.204 323.7 190.842C325.296 188.947 330.103 185.8 336.567 188.373Z" fill="#608E24" stroke="#225C21" stroke-width="0.5"/>
<path d="M343.12 200.704C346.224 202.061 348.173 208.708 348.76 211.863C345.484 198.11 339.515 199.561 336.941 202.006C337.707 201.007 340.016 199.348 343.12 200.704Z" fill="#608E24" stroke="#225C21" stroke-width="0.5"/>
<path d="M275.444 36.1162C281.907 38.6895 285.966 51.302 287.188 57.2866C280.366 31.1939 267.938 33.9467 262.577 38.5848C264.173 36.6897 268.98 33.5428 275.444 36.1162Z" fill="#608E24" stroke="#225C21" stroke-width="0.5"/>
<path d="M274.995 34.0217C281.458 36.595 285.518 49.2075 286.74 55.1921C279.917 29.0994 267.489 31.8523 262.128 36.4903C263.724 34.5952 268.531 31.4483 274.995 34.0217Z" fill="#608E24" stroke="#225C21" stroke-width="0.5"/>
<path d="M281.548 46.3527C284.652 47.709 286.601 54.3567 287.188 57.511C283.912 43.7583 277.943 45.2092 275.369 47.6538C276.135 46.655 278.444 44.9963 281.548 46.3527Z" fill="#608E24" stroke="#225C21" stroke-width="0.5"/>
<defs>
<linearGradient id="paint0_linear" x1="0.658367" y1="1.00003" x2="371.777" y2="265" gradientUnits="userSpaceOnUse">
<stop stop-color="#225C21" stop-opacity="0.67"/>
<stop offset="1" stop-color="#1A8D18" stop-opacity="0"/>
</linearGradient>
<linearGradient id="paint1_linear" x1="-13.4797" y1="-7.49563" x2="-6.11792" y2="75.2885" gradientUnits="userSpaceOnUse">
<stop stop-color="#FA9334" stop-opacity="0.52"/>
<stop offset="1" stop-color="white" stop-opacity="0"/>
</linearGradient>
<linearGradient id="paint2_linear" x1="-12.8311" y1="39.7386" x2="34.5215" y2="243.491" gradientUnits="userSpaceOnUse">
<stop stop-color="#FA9334" stop-opacity="0.52"/>
<stop offset="1" stop-color="white" stop-opacity="0"/>
</linearGradient>
<linearGradient id="paint3_linear" x1="-12.8311" y1="203.013" x2="-8.97318" y2="262.596" gradientUnits="userSpaceOnUse">
<stop stop-color="#93EE91" stop-opacity="0.7"/>
<stop offset="1" stop-color="white" stop-opacity="0"/>
</linearGradient>
<linearGradient id="paint4_linear" x1="386.387" y1="-7.49563" x2="379.026" y2="75.2885" gradientUnits="userSpaceOnUse">
<stop stop-color="#FA9334" stop-opacity="0.52"/>
<stop offset="1" stop-color="white" stop-opacity="0"/>
</linearGradient>
<linearGradient id="paint5_linear" x1="385.739" y1="39.7386" x2="338.386" y2="243.491" gradientUnits="userSpaceOnUse">
<stop stop-color="#FA9334" stop-opacity="0.52"/>
<stop offset="1" stop-color="white" stop-opacity="0"/>
</linearGradient>
<linearGradient id="paint6_linear" x1="385.739" y1="203.013" x2="381.881" y2="262.596" gradientUnits="userSpaceOnUse">
<stop stop-color="#93EE91" stop-opacity="0.7"/>
<stop offset="1" stop-color="white" stop-opacity="0"/>
</linearGradient>
<linearGradient id="paint7_linear" x1="57.7418" y1="-2.52977" x2="81.4089" y2="62.0495" gradientUnits="userSpaceOnUse">
<stop stop-color="#93EE91" stop-opacity="0.7"/>
<stop offset="1" stop-color="white" stop-opacity="0"/>
</linearGradient>
<linearGradient id="paint8_linear" x1="57.7418" y1="53.1379" x2="81.4089" y2="117.717" gradientUnits="userSpaceOnUse">
<stop stop-color="#93EE91" stop-opacity="0.7"/>
<stop offset="1" stop-color="white" stop-opacity="0"/>
</linearGradient>
<linearGradient id="paint9_linear" x1="57.7418" y1="109.649" x2="81.4089" y2="174.228" gradientUnits="userSpaceOnUse">
<stop stop-color="#93EE91" stop-opacity="0.7"/>
<stop offset="1" stop-color="white" stop-opacity="0"/>
</linearGradient>
<linearGradient id="paint10_linear" x1="57.7418" y1="167.054" x2="80.815" y2="230.925" gradientUnits="userSpaceOnUse">
<stop stop-color="#93EE91" stop-opacity="0.7"/>
<stop offset="1" stop-color="white" stop-opacity="0"/>
</linearGradient>
<linearGradient id="paint11_linear" x1="86.1364" y1="-1.82382" x2="105.07" y2="49.8396" gradientUnits="userSpaceOnUse">
<stop stop-color="#93EE91" stop-opacity="0.7"/>
<stop offset="1" stop-color="white" stop-opacity="0"/>
</linearGradient>
<linearGradient id="paint12_linear" x1="86.1361" y1="42.7104" x2="105.07" y2="94.3738" gradientUnits="userSpaceOnUse">
<stop stop-color="#93EE91" stop-opacity="0.7"/>
<stop offset="1" stop-color="white" stop-opacity="0"/>
</linearGradient>
<linearGradient id="paint13_linear" x1="86.1361" y1="87.9193" x2="105.07" y2="139.583" gradientUnits="userSpaceOnUse">
<stop stop-color="#93EE91" stop-opacity="0.7"/>
<stop offset="1" stop-color="white" stop-opacity="0"/>
</linearGradient>
<linearGradient id="paint14_linear" x1="86.1361" y1="133.843" x2="104.595" y2="184.94" gradientUnits="userSpaceOnUse">
<stop stop-color="#93EE91" stop-opacity="0.7"/>
<stop offset="1" stop-color="white" stop-opacity="0"/>
</linearGradient>
<linearGradient id="paint15_linear" x1="130.278" y1="-2.52977" x2="153.945" y2="62.0495" gradientUnits="userSpaceOnUse">
<stop stop-color="#93EE91" stop-opacity="0.7"/>
<stop offset="1" stop-color="white" stop-opacity="0"/>
</linearGradient>
<linearGradient id="paint16_linear" x1="130.278" y1="53.1379" x2="153.945" y2="117.717" gradientUnits="userSpaceOnUse">
<stop stop-color="#93EE91" stop-opacity="0.7"/>
<stop offset="1" stop-color="white" stop-opacity="0"/>
</linearGradient>
<linearGradient id="paint17_linear" x1="130.278" y1="109.649" x2="153.945" y2="174.228" gradientUnits="userSpaceOnUse">
<stop stop-color="#93EE91" stop-opacity="0.7"/>
<stop offset="1" stop-color="white" stop-opacity="0"/>
</linearGradient>
<linearGradient id="paint18_linear" x1="130.278" y1="167.054" x2="153.352" y2="230.925" gradientUnits="userSpaceOnUse">
<stop stop-color="#93EE91" stop-opacity="0.7"/>
<stop offset="1" stop-color="white" stop-opacity="0"/>
</linearGradient>
<linearGradient id="paint19_linear" x1="158.673" y1="-1.82382" x2="177.607" y2="49.8396" gradientUnits="userSpaceOnUse">
<stop stop-color="#93EE91" stop-opacity="0.7"/>
<stop offset="1" stop-color="white" stop-opacity="0"/>
</linearGradient>
<linearGradient id="paint20_linear" x1="158.673" y1="42.7104" x2="177.606" y2="94.3738" gradientUnits="userSpaceOnUse">
<stop stop-color="#93EE91" stop-opacity="0.7"/>
<stop offset="1" stop-color="white" stop-opacity="0"/>
</linearGradient>
<linearGradient id="paint21_linear" x1="158.673" y1="87.9193" x2="177.606" y2="139.583" gradientUnits="userSpaceOnUse">
<stop stop-color="#93EE91" stop-opacity="0.7"/>
<stop offset="1" stop-color="white" stop-opacity="0"/>
</linearGradient>
<linearGradient id="paint22_linear" x1="158.673" y1="133.843" x2="177.131" y2="184.94" gradientUnits="userSpaceOnUse">
<stop stop-color="#93EE91" stop-opacity="0.7"/>
<stop offset="1" stop-color="white" stop-opacity="0"/>
</linearGradient>
<linearGradient id="paint23_linear" x1="231.21" y1="-1.82382" x2="250.143" y2="49.8396" gradientUnits="userSpaceOnUse">
<stop stop-color="#93EE91" stop-opacity="0.7"/>
<stop offset="1" stop-color="white" stop-opacity="0"/>
</linearGradient>
<linearGradient id="paint24_linear" x1="231.209" y1="42.7104" x2="250.143" y2="94.3738" gradientUnits="userSpaceOnUse">
<stop stop-color="#93EE91" stop-opacity="0.7"/>
<stop offset="1" stop-color="white" stop-opacity="0"/>
</linearGradient>
<linearGradient id="paint25_linear" x1="231.209" y1="87.9193" x2="250.143" y2="139.583" gradientUnits="userSpaceOnUse">
<stop stop-color="#93EE91" stop-opacity="0.7"/>
<stop offset="1" stop-color="white" stop-opacity="0"/>
</linearGradient>
<linearGradient id="paint26_linear" x1="231.209" y1="133.843" x2="249.668" y2="184.94" gradientUnits="userSpaceOnUse">
<stop stop-color="#93EE91" stop-opacity="0.7"/>
<stop offset="1" stop-color="white" stop-opacity="0"/>
</linearGradient>
<linearGradient id="paint27_linear" x1="281.256" y1="-2.52977" x2="304.923" y2="62.0495" gradientUnits="userSpaceOnUse">
<stop stop-color="#93EE91" stop-opacity="0.7"/>
<stop offset="1" stop-color="white" stop-opacity="0"/>
</linearGradient>
<linearGradient id="paint28_linear" x1="281.256" y1="53.1379" x2="304.923" y2="117.717" gradientUnits="userSpaceOnUse">
<stop stop-color="#93EE91" stop-opacity="0.7"/>
<stop offset="1" stop-color="white" stop-opacity="0"/>
</linearGradient>
<linearGradient id="paint29_linear" x1="281.256" y1="109.649" x2="304.923" y2="174.228" gradientUnits="userSpaceOnUse">
<stop stop-color="#93EE91" stop-opacity="0.7"/>
<stop offset="1" stop-color="white" stop-opacity="0"/>
</linearGradient>
<linearGradient id="paint30_linear" x1="281.256" y1="167.054" x2="304.329" y2="230.925" gradientUnits="userSpaceOnUse">
<stop stop-color="#93EE91" stop-opacity="0.7"/>
<stop offset="1" stop-color="white" stop-opacity="0"/>
</linearGradient>
<linearGradient id="paint31_linear" x1="309.651" y1="-1.82382" x2="328.584" y2="49.8396" gradientUnits="userSpaceOnUse">
<stop stop-color="#93EE91" stop-opacity="0.7"/>
<stop offset="1" stop-color="white" stop-opacity="0"/>
</linearGradient>
<linearGradient id="paint32_linear" x1="309.65" y1="42.7104" x2="328.584" y2="94.3738" gradientUnits="userSpaceOnUse">
<stop stop-color="#93EE91" stop-opacity="0.7"/>
<stop offset="1" stop-color="white" stop-opacity="0"/>
</linearGradient>
<linearGradient id="paint33_linear" x1="309.65" y1="87.9193" x2="328.584" y2="139.583" gradientUnits="userSpaceOnUse">
<stop stop-color="#93EE91" stop-opacity="0.7"/>
<stop offset="1" stop-color="white" stop-opacity="0"/>
</linearGradient>
<linearGradient id="paint34_linear" x1="309.65" y1="133.843" x2="328.109" y2="184.94" gradientUnits="userSpaceOnUse">
<stop stop-color="#93EE91" stop-opacity="0.7"/>
<stop offset="1" stop-color="white" stop-opacity="0"/>
</linearGradient>
<linearGradient id="paint35_linear" x1="202.815" y1="-2.52977" x2="226.482" y2="62.0495" gradientUnits="userSpaceOnUse">
<stop stop-color="#93EE91" stop-opacity="0.7"/>
<stop offset="1" stop-color="white" stop-opacity="0"/>
</linearGradient>
<linearGradient id="paint36_linear" x1="202.815" y1="53.1379" x2="226.482" y2="117.717" gradientUnits="userSpaceOnUse">
<stop stop-color="#93EE91" stop-opacity="0.7"/>
<stop offset="1" stop-color="white" stop-opacity="0"/>
</linearGradient>
<linearGradient id="paint37_linear" x1="202.815" y1="109.649" x2="226.482" y2="174.228" gradientUnits="userSpaceOnUse">
<stop stop-color="#93EE91" stop-opacity="0.7"/>
<stop offset="1" stop-color="white" stop-opacity="0"/>
</linearGradient>
<linearGradient id="paint38_linear" x1="202.815" y1="167.054" x2="225.888" y2="230.925" gradientUnits="userSpaceOnUse">
<stop stop-color="#93EE91" stop-opacity="0.7"/>
<stop offset="1" stop-color="white" stop-opacity="0"/>
</linearGradient>
</defs>
</svg>
