<svg width="224" height="183" viewBox="0 0 224 183" fill="none" xmlns="http://www.w3.org/2000/svg">
<g filter="url(#filter0_d)">
<path d="M77.0505 112.656L62.2524 56.0533H77.0505L93.575 112.656H77.0505Z" fill="#A08217"/>
<path d="M199.011 121.658L168.305 5L186.309 121.658H199.011Z" fill="#A08217"/>
<path d="M111.649 96.3301L128.314 105.95L126.703 112.411L31.665 131.165L17.1521 120.049L18.763 113.587L111.649 96.3301Z" fill="#4D2F1E"/>
<path d="M18.763 113.587L33.4251 124.106M18.763 113.587L111.649 96.3301L128.314 105.95M18.763 113.587L17.1521 120.049L31.665 131.165M33.4251 124.106L128.314 105.95M33.4251 124.106L31.665 131.165M128.314 105.95L126.703 112.411L31.665 131.165" stroke="#471D05" stroke-width="3"/>
<path d="M163.405 85.7227L179.656 96.0274L177.778 102.416L82.0422 117.201L68.0042 105.491L69.8825 99.1018L163.405 85.7227Z" fill="#593723"/>
<path d="M69.8825 99.1018L84.0944 110.221M69.8825 99.1018L163.405 85.7227L179.656 96.0274M69.8825 99.1018L68.0042 105.491L82.0422 117.201M84.0944 110.221L179.656 96.0274M84.0944 110.221L82.0422 117.201M179.656 96.0274L177.778 102.416L82.0422 117.201" stroke="#4F2107" stroke-width="3"/>
<path d="M157.494 109.353L173.066 120.658L170.79 126.916L74.3144 135.658L61.0399 123.088L63.3158 116.83L157.494 109.353Z" fill="#5C3925"/>
<path d="M63.3158 116.83L76.8011 128.82M63.3158 116.83L157.494 109.353L173.066 120.658M63.3158 116.83L61.0399 123.088L74.3144 135.658M76.8011 128.82L173.066 120.658M76.8011 128.82L74.3144 135.658M173.066 120.658L170.79 126.916L74.3144 135.658" stroke="#4E2006" stroke-width="3"/>
<path d="M190.19 104.372L203.247 118.507L199.79 124.198L103.47 113.886L92.9124 98.9612L96.3693 93.2696L190.19 104.372Z" fill="#65402A"/>
<path d="M96.3693 93.2696L107.247 107.667M96.3693 93.2696L190.19 104.372L203.247 118.507M96.3693 93.2696L92.9124 98.9612L103.47 113.886M107.247 107.667L203.247 118.507M107.247 107.667L103.47 113.886M203.247 118.507L199.79 124.198L103.47 113.886" stroke="#4E2006" stroke-width="3"/>
<path d="M105.268 90.2543L123.491 96.4357L123.172 103.087L33.6239 140.034L17.2201 131.964L17.5386 125.313L105.268 90.2543Z" fill="#684029"/>
<path d="M17.5386 125.313L33.972 132.766M17.5386 125.313L105.268 90.2543L123.491 96.4357M17.5386 125.313L17.2201 131.964L33.6239 140.034M33.972 132.766L123.491 96.4357M33.972 132.766L33.6239 140.034M123.491 96.4357L123.172 103.087L33.6239 140.034" stroke="#5D2607" stroke-width="3"/>
<path d="M62.0467 56.5182L52.8346 141.882H29.6973L52.8346 5H168.414L189.516 141.882H168.414L158.452 56.5182H62.0467Z" fill="#EAC131"/>
</g>
<path d="M101.144 23.4529V13.7509H105.498V14.8289H102.404V17.8389H105.204V18.8889H102.404V22.3749H105.722V23.4529H101.144ZM110.903 22.1089C110.716 21.4369 110.525 20.7929 110.329 20.1769C110.133 19.5609 109.941 18.9822 109.755 18.4409C109.577 17.8902 109.405 17.3909 109.237 16.9429C109.069 16.4949 108.915 16.1029 108.775 15.7669C108.737 16.2989 108.705 16.8869 108.677 17.5309C108.658 18.1655 108.635 18.8189 108.607 19.4909C108.588 20.1629 108.569 20.8395 108.551 21.5209C108.541 22.1929 108.532 22.8369 108.523 23.4529H107.319C107.347 22.6129 107.375 21.7682 107.403 20.9189C107.431 20.0602 107.463 19.2202 107.501 18.3989C107.547 17.5682 107.594 16.7609 107.641 15.9769C107.697 15.1929 107.757 14.4509 107.823 13.7509H109.069C109.237 14.1522 109.428 14.6329 109.643 15.1929C109.857 15.7435 110.072 16.3222 110.287 16.9289C110.511 17.5355 110.725 18.1422 110.931 18.7489C111.136 19.3555 111.313 19.9109 111.463 20.4149C111.612 19.9109 111.785 19.3555 111.981 18.7489C112.177 18.1422 112.382 17.5355 112.597 16.9289C112.811 16.3222 113.021 15.7435 113.227 15.1929C113.441 14.6329 113.633 14.1522 113.801 13.7509H115.047C115.112 14.4509 115.168 15.1929 115.215 15.9769C115.271 16.7609 115.317 17.5682 115.355 18.3989C115.401 19.2202 115.439 20.0602 115.467 20.9189C115.495 21.7682 115.523 22.6129 115.551 23.4529H114.347C114.328 22.8369 114.309 22.1882 114.291 21.5069C114.281 20.8255 114.263 20.1442 114.235 19.4629C114.216 18.7722 114.193 18.1049 114.165 17.4609C114.137 16.8075 114.104 16.2102 114.067 15.6689C113.983 15.9022 113.875 16.1962 113.745 16.5509C113.623 16.8962 113.493 17.2742 113.353 17.6849C113.222 18.0955 113.082 18.5202 112.933 18.9589C112.793 19.3882 112.657 19.8035 112.527 20.2049C112.405 20.6062 112.293 20.9749 112.191 21.3109C112.097 21.6375 112.023 21.9035 111.967 22.1089H110.903ZM78.0909 39.6629C76.9523 39.6629 76.0796 39.2382 75.4729 38.3889C74.8663 37.5395 74.5629 36.2282 74.5629 34.4549C74.5629 33.5495 74.6469 32.7842 74.8149 32.1589C74.9923 31.5335 75.2349 31.0249 75.5429 30.6329C75.8509 30.2409 76.2149 29.9609 76.6349 29.7929C77.0549 29.6155 77.5123 29.5269 78.0069 29.5269C78.4176 29.5269 78.8003 29.5829 79.1549 29.6949C79.5096 29.7975 79.7989 29.9282 80.0229 30.0869L79.6449 31.1369C79.4209 30.9875 79.1783 30.8662 78.9169 30.7729C78.6649 30.6795 78.3709 30.6329 78.0349 30.6329C77.2883 30.6329 76.7469 30.9455 76.4109 31.5709C76.0749 32.1869 75.9069 33.1482 75.9069 34.4549C75.9069 35.7709 76.0843 36.7835 76.4389 37.4929C76.7936 38.2022 77.3723 38.5569 78.1749 38.5569C78.5576 38.5569 78.8656 38.5102 79.0989 38.4169C79.3416 38.3235 79.5749 38.2022 79.7989 38.0529L80.1489 39.0469C79.9343 39.2149 79.6496 39.3595 79.2949 39.4809C78.9496 39.6022 78.5483 39.6629 78.0909 39.6629ZM87.9047 34.6089C87.9047 35.3649 87.8347 36.0555 87.6947 36.6809C87.5641 37.2969 87.3541 37.8289 87.0647 38.2769C86.7847 38.7155 86.4254 39.0562 85.9867 39.2989C85.5574 39.5415 85.0487 39.6629 84.4607 39.6629C83.8727 39.6629 83.3594 39.5415 82.9207 39.2989C82.4914 39.0562 82.1321 38.7155 81.8427 38.2769C81.5627 37.8289 81.3527 37.2969 81.2127 36.6809C81.0727 36.0555 81.0027 35.3649 81.0027 34.6089C81.0027 33.8529 81.0727 33.1622 81.2127 32.5369C81.3527 31.9115 81.5627 31.3795 81.8427 30.9409C82.1321 30.4929 82.4914 30.1475 82.9207 29.9049C83.3594 29.6529 83.8727 29.5269 84.4607 29.5269C85.0487 29.5269 85.5574 29.6529 85.9867 29.9049C86.4254 30.1475 86.7847 30.4929 87.0647 30.9409C87.3541 31.3795 87.5641 31.9115 87.6947 32.5369C87.8347 33.1622 87.9047 33.8529 87.9047 34.6089ZM86.5607 34.6089C86.5607 34.0209 86.5234 33.4842 86.4487 32.9989C86.3741 32.5135 86.2527 32.0982 86.0847 31.7529C85.9167 31.3982 85.6974 31.1229 85.4267 30.9269C85.1654 30.7309 84.8434 30.6329 84.4607 30.6329C84.0781 30.6329 83.7514 30.7309 83.4807 30.9269C83.2194 31.1229 83.0047 31.3982 82.8367 31.7529C82.6687 32.0982 82.5427 32.5135 82.4587 32.9989C82.3841 33.4842 82.3467 34.0209 82.3467 34.6089C82.3467 35.1969 82.3841 35.7335 82.4587 36.2189C82.5427 36.7042 82.6687 37.1195 82.8367 37.4649C83.0047 37.8102 83.2194 38.0809 83.4807 38.2769C83.7514 38.4635 84.0781 38.5569 84.4607 38.5569C84.8434 38.5569 85.1654 38.4635 85.4267 38.2769C85.6974 38.0809 85.9167 37.8102 86.0847 37.4649C86.2527 37.1195 86.3741 36.7042 86.4487 36.2189C86.5234 35.7335 86.5607 35.1969 86.5607 34.6089ZM94.6313 39.4529C94.4073 38.9022 94.1506 38.3095 93.8613 37.6749C93.5813 37.0309 93.2826 36.3869 92.9653 35.7429C92.6573 35.0895 92.34 34.4455 92.0133 33.8109C91.6866 33.1669 91.3646 32.5695 91.0473 32.0189V39.4529H89.8713V29.7509H90.9213C91.276 30.3295 91.6166 30.9222 91.9433 31.5289C92.2793 32.1355 92.5966 32.7375 92.8953 33.3349C93.194 33.9229 93.474 34.5062 93.7353 35.0849C94.006 35.6542 94.2533 36.1955 94.4773 36.7089V29.7509H95.6533V39.4529H94.6313ZM99.2101 38.5849C99.7141 38.5849 100.101 38.4449 100.372 38.1649C100.652 37.8849 100.792 37.5069 100.792 37.0309C100.792 36.7789 100.75 36.5549 100.666 36.3589C100.582 36.1629 100.47 35.9855 100.33 35.8269C100.199 35.6682 100.045 35.5235 99.8681 35.3929C99.6907 35.2622 99.5087 35.1315 99.3221 35.0009C99.1074 34.8515 98.8834 34.6929 98.6501 34.5249C98.4167 34.3569 98.2021 34.1609 98.0061 33.9369C97.8194 33.7129 97.6654 33.4515 97.5441 33.1529C97.4227 32.8542 97.3621 32.5042 97.3621 32.1029C97.3621 31.7109 97.4274 31.3562 97.5581 31.0389C97.6981 30.7215 97.8847 30.4509 98.1181 30.2269C98.3607 30.0029 98.6454 29.8302 98.9721 29.7089C99.3081 29.5875 99.6674 29.5269 100.05 29.5269C100.423 29.5269 100.769 29.5735 101.086 29.6669C101.403 29.7602 101.669 29.8722 101.884 30.0029L101.492 30.9969C101.296 30.8662 101.081 30.7682 100.848 30.7029C100.624 30.6282 100.386 30.5909 100.134 30.5909C99.6767 30.5909 99.3081 30.7169 99.0281 30.9689C98.7574 31.2115 98.6221 31.5709 98.6221 32.0469C98.6221 32.3082 98.6641 32.5369 98.7481 32.7329C98.8414 32.9289 98.9581 33.1062 99.0981 33.2649C99.2474 33.4235 99.4154 33.5682 99.6021 33.6989C99.7981 33.8295 100.003 33.9649 100.218 34.1049C100.433 34.2449 100.652 34.3989 100.876 34.5669C101.1 34.7349 101.301 34.9309 101.478 35.1549C101.665 35.3695 101.814 35.6262 101.926 35.9249C102.047 36.2142 102.108 36.5595 102.108 36.9609C102.108 37.3249 102.052 37.6702 101.94 37.9969C101.828 38.3235 101.651 38.6129 101.408 38.8649C101.175 39.1075 100.876 39.3035 100.512 39.4529C100.157 39.5929 99.7374 39.6629 99.2521 39.6629C98.8041 39.6629 98.4121 39.6115 98.0761 39.5089C97.7401 39.4062 97.4414 39.2709 97.1801 39.1029L97.5721 38.0949C97.8147 38.2442 98.0621 38.3655 98.3141 38.4589C98.5754 38.5429 98.8741 38.5849 99.2101 38.5849ZM108.204 29.7509V30.8289H106.048V39.4529H104.788V30.8289H102.632V29.7509H108.204ZM109.572 29.8909C110.226 29.7322 110.856 29.6529 111.462 29.6529C111.948 29.6529 112.386 29.7089 112.778 29.8209C113.17 29.9329 113.506 30.1102 113.786 30.3529C114.066 30.5955 114.281 30.9082 114.43 31.2909C114.589 31.6735 114.668 32.1355 114.668 32.6769C114.668 33.3489 114.538 33.8949 114.276 34.3149C114.024 34.7255 113.679 35.0382 113.24 35.2529C113.352 35.4395 113.492 35.6962 113.66 36.0229C113.838 36.3402 114.015 36.6949 114.192 37.0869C114.379 37.4695 114.556 37.8662 114.724 38.2769C114.902 38.6875 115.051 39.0795 115.172 39.4529H113.912C113.81 39.1729 113.679 38.8555 113.52 38.5009C113.371 38.1462 113.212 37.7962 113.044 37.4509C112.876 37.0962 112.708 36.7602 112.54 36.4429C112.372 36.1162 112.223 35.8409 112.092 35.6169C111.943 35.6355 111.789 35.6495 111.63 35.6589C111.472 35.6682 111.313 35.6729 111.154 35.6729H110.804V39.4529H109.572V29.8909ZM110.804 34.6369H111.336C111.98 34.6369 112.475 34.4922 112.82 34.2029C113.166 33.9042 113.338 33.3955 113.338 32.6769C113.338 32.3129 113.292 32.0095 113.198 31.7669C113.114 31.5149 112.988 31.3189 112.82 31.1789C112.662 31.0295 112.466 30.9222 112.232 30.8569C112.008 30.7915 111.756 30.7589 111.476 30.7589C111.234 30.7589 111.01 30.7729 110.804 30.8009V34.6369ZM119.396 39.6629C118.491 39.6629 117.809 39.4062 117.352 38.8929C116.904 38.3795 116.68 37.5675 116.68 36.4569V29.7509H117.94V36.3449C117.94 37.0822 118.047 37.6375 118.262 38.0109C118.477 38.3749 118.864 38.5569 119.424 38.5569C120.003 38.5569 120.395 38.3702 120.6 37.9969C120.815 37.6142 120.922 37.0635 120.922 36.3449V29.7509H122.182V36.4569C122.182 37.5489 121.949 38.3562 121.482 38.8789C121.015 39.4015 120.32 39.6629 119.396 39.6629ZM127.415 40.0129C127.686 40.1155 127.877 40.2462 127.989 40.4049C128.101 40.5729 128.157 40.7642 128.157 40.9789C128.157 41.3335 128.017 41.6089 127.737 41.8049C127.457 42.0009 127.112 42.0989 126.701 42.0989C126.561 42.0989 126.407 42.0849 126.239 42.0569C126.071 42.0382 125.908 42.0009 125.749 41.9449L125.889 41.1749C125.983 41.1935 126.081 41.2122 126.183 41.2309C126.286 41.2589 126.393 41.2729 126.505 41.2729C126.673 41.2729 126.818 41.2449 126.939 41.1889C127.061 41.1422 127.121 41.0442 127.121 40.8949C127.121 40.7922 127.07 40.7035 126.967 40.6289C126.865 40.5542 126.673 40.4889 126.393 40.4329C126.44 40.3022 126.491 40.1575 126.547 39.9989C126.613 39.8495 126.678 39.7095 126.743 39.5789C125.866 39.3922 125.194 38.8789 124.727 38.0389C124.27 37.1989 124.041 36.0042 124.041 34.4549C124.041 33.5495 124.125 32.7842 124.293 32.1589C124.471 31.5335 124.713 31.0249 125.021 30.6329C125.329 30.2409 125.693 29.9609 126.113 29.7929C126.533 29.6155 126.991 29.5269 127.485 29.5269C127.896 29.5269 128.279 29.5829 128.633 29.6949C128.988 29.7975 129.277 29.9282 129.501 30.0869L129.123 31.1369C128.899 30.9875 128.657 30.8662 128.395 30.7729C128.143 30.6795 127.849 30.6329 127.513 30.6329C126.767 30.6329 126.225 30.9455 125.889 31.5709C125.553 32.1869 125.385 33.1482 125.385 34.4549C125.385 35.7709 125.563 36.7835 125.917 37.4929C126.272 38.2022 126.851 38.5569 127.653 38.5569C128.036 38.5569 128.344 38.5102 128.577 38.4169C128.82 38.3235 129.053 38.2022 129.277 38.0529L129.627 39.0469C129.413 39.2149 129.128 39.3595 128.773 39.4809C128.428 39.6022 128.027 39.6629 127.569 39.6629L127.415 40.0129ZM134.444 29.7509C134.668 30.4509 134.887 31.1602 135.102 31.8789C135.326 32.5882 135.54 33.3349 135.746 34.1189C135.96 34.9029 136.17 35.7335 136.376 36.6109C136.59 37.4882 136.805 38.4355 137.02 39.4529H135.76C135.685 39.0329 135.606 38.6175 135.522 38.2069C135.447 37.7962 135.368 37.3855 135.284 36.9749H132.232C132.138 37.3855 132.054 37.7962 131.98 38.2069C131.905 38.6175 131.83 39.0329 131.756 39.4529H130.538C130.743 38.4355 130.953 37.4882 131.168 36.6109C131.382 35.7335 131.592 34.9029 131.798 34.1189C132.012 33.3349 132.227 32.5882 132.442 31.8789C132.666 31.1602 132.89 30.4509 133.114 29.7509H134.444ZM133.758 31.1789C133.524 31.9535 133.3 32.7329 133.086 33.5169C132.871 34.3009 132.666 35.1035 132.47 35.9249H135.032C134.845 35.1035 134.644 34.3009 134.43 33.5169C134.215 32.7329 133.991 31.9535 133.758 31.1789ZM135.564 27.2589C135.48 27.7069 135.344 28.0522 135.158 28.2949C134.98 28.5282 134.756 28.6449 134.486 28.6449C134.327 28.6449 134.178 28.6122 134.038 28.5469C133.907 28.4815 133.786 28.4069 133.674 28.3229C133.562 28.2389 133.454 28.1642 133.352 28.0989C133.258 28.0335 133.165 28.0009 133.072 28.0009C132.988 28.0009 132.913 28.0475 132.848 28.1409C132.792 28.2342 132.736 28.4022 132.68 28.6449L131.98 28.4069C132.054 27.9589 132.185 27.6182 132.372 27.3849C132.558 27.1422 132.787 27.0209 133.058 27.0209C133.226 27.0209 133.375 27.0535 133.506 27.1189C133.636 27.1842 133.758 27.2589 133.87 27.3429C133.982 27.4269 134.084 27.5015 134.178 27.5669C134.271 27.6322 134.369 27.6649 134.472 27.6649C134.556 27.6649 134.626 27.6182 134.682 27.5249C134.747 27.4315 134.808 27.2635 134.864 27.0209L135.564 27.2589ZM144.629 34.6089C144.629 35.3649 144.559 36.0555 144.419 36.6809C144.289 37.2969 144.079 37.8289 143.789 38.2769C143.509 38.7155 143.15 39.0562 142.711 39.2989C142.282 39.5415 141.773 39.6629 141.185 39.6629C140.597 39.6629 140.084 39.5415 139.645 39.2989C139.216 39.0562 138.857 38.7155 138.567 38.2769C138.287 37.8289 138.077 37.2969 137.937 36.6809C137.797 36.0555 137.727 35.3649 137.727 34.6089C137.727 33.8529 137.797 33.1622 137.937 32.5369C138.077 31.9115 138.287 31.3795 138.567 30.9409C138.857 30.4929 139.216 30.1475 139.645 29.9049C140.084 29.6529 140.597 29.5269 141.185 29.5269C141.773 29.5269 142.282 29.6529 142.711 29.9049C143.15 30.1475 143.509 30.4929 143.789 30.9409C144.079 31.3795 144.289 31.9115 144.419 32.5369C144.559 33.1622 144.629 33.8529 144.629 34.6089ZM143.285 34.6089C143.285 34.0209 143.248 33.4842 143.173 32.9989C143.099 32.5135 142.977 32.0982 142.809 31.7529C142.641 31.3982 142.422 31.1229 142.151 30.9269C141.89 30.7309 141.568 30.6329 141.185 30.6329C140.803 30.6329 140.476 30.7309 140.205 30.9269C139.944 31.1229 139.729 31.3982 139.561 31.7529C139.393 32.0982 139.267 32.5135 139.183 32.9989C139.109 33.4842 139.071 34.0209 139.071 34.6089C139.071 35.1969 139.109 35.7335 139.183 36.2189C139.267 36.7042 139.393 37.1195 139.561 37.4649C139.729 37.8102 139.944 38.0809 140.205 38.2769C140.476 38.4635 140.803 38.5569 141.185 38.5569C141.568 38.5569 141.89 38.4635 142.151 38.2769C142.422 38.0809 142.641 37.8102 142.809 37.4649C142.977 37.1195 143.099 36.7042 143.173 36.2189C143.248 35.7335 143.285 35.1969 143.285 34.6089Z" fill="#353535"/>
<g filter="url(#filter1_d)">
<path d="M36.602 127.824C51.1759 127.824 56.6799 140.329 57.8715 147.801C59.2083 148.253 61.882 149.7 61.882 151.871C61.882 154.584 21.4347 161.243 10.2128 153.72C1.38695 147.804 7.98816 147.431 15.755 145.705C17.5726 138.208 23.3217 127.824 36.602 127.824Z" fill="#CA7220"/>
<path d="M57.8715 147.801C56.6799 140.329 51.1759 127.824 36.602 127.824C23.3217 127.824 17.5726 138.208 15.755 145.705M57.8715 147.801C57.9544 148.321 58.0164 148.816 58.0591 149.281C51.0301 152.405 32.6065 156.779 15.1448 149.281C15.2422 148.222 15.4393 147.007 15.755 145.705M57.8715 147.801C59.2083 148.253 61.882 149.7 61.882 151.871C61.882 154.584 21.4347 161.243 10.2128 153.72C1.38695 147.804 7.98816 147.431 15.755 145.705" stroke="#934E0F"/>
</g>
<g filter="url(#filter2_d)">
<path d="M125.144 145.458C125.144 148.788 123.267 148.788 120.952 148.788C118.636 148.788 116.759 148.664 116.759 145.581C116.759 144.151 118.636 143.608 120.952 143.608C123.267 143.608 125.144 144.028 125.144 145.458Z" fill="white"/>
<ellipse cx="120.952" cy="145.335" rx="4.19278" ry="2.21971" fill="#C4C4C4"/>
<ellipse cx="121.075" cy="145.088" rx="2.34302" ry="0.986536" fill="#838383"/>
</g>
<g filter="url(#filter3_d)">
<path d="M154.247 137.319C154.247 140.649 152.37 140.649 150.055 140.649C147.739 140.649 145.862 140.525 145.862 137.443C145.862 136.012 147.739 135.469 150.055 135.469C152.37 135.469 154.247 135.889 154.247 137.319Z" fill="white"/>
<ellipse cx="150.055" cy="137.196" rx="4.19278" ry="2.21971" fill="#C4C4C4"/>
<ellipse cx="150.178" cy="136.949" rx="2.34302" ry="0.986536" fill="#838383"/>
</g>
<g filter="url(#filter4_d)">
<path d="M144.382 146.938C144.382 150.267 142.504 150.267 140.189 150.267C137.873 150.267 135.996 150.144 135.996 147.061C135.996 145.631 137.873 145.088 140.189 145.088C142.504 145.088 144.382 145.508 144.382 146.938Z" fill="white"/>
<ellipse cx="140.189" cy="146.815" rx="4.19278" ry="2.21971" fill="#C4C4C4"/>
<ellipse cx="140.312" cy="146.568" rx="2.34302" ry="0.986536" fill="#838383"/>
</g>
<defs>
<filter id="filter0_d" x="8.53857" y="0" width="214.571" height="182.683" filterUnits="userSpaceOnUse" color-interpolation-filters="sRGB">
<feFlood flood-opacity="0" result="BackgroundImageFix"/>
<feColorMatrix in="SourceAlpha" type="matrix" values="0 0 0 0 0 0 0 0 0 0 0 0 0 0 0 0 0 0 127 0"/>
<feOffset dx="5" dy="5"/>
<feGaussianBlur stdDeviation="5"/>
<feColorMatrix type="matrix" values="0 0 0 0 0 0 0 0 0 0 0 0 0 0 0 0 0 0 0.25 0"/>
<feBlend mode="normal" in2="BackgroundImageFix" result="effect1_dropShadow"/>
<feBlend mode="normal" in="SourceGraphic" in2="effect1_dropShadow" result="shape"/>
</filter>
<filter id="filter1_d" x="0.5" y="122.324" width="76.8821" height="50.3638" filterUnits="userSpaceOnUse" color-interpolation-filters="sRGB">
<feFlood flood-opacity="0" result="BackgroundImageFix"/>
<feColorMatrix in="SourceAlpha" type="matrix" values="0 0 0 0 0 0 0 0 0 0 0 0 0 0 0 0 0 0 127 0"/>
<feOffset dx="5" dy="5"/>
<feGaussianBlur stdDeviation="5"/>
<feColorMatrix type="matrix" values="0 0 0 0 0 0 0 0 0 0 0 0 0 0 0 0 0 0 0.25 0"/>
<feBlend mode="normal" in2="BackgroundImageFix" result="effect1_dropShadow"/>
<feBlend mode="normal" in="SourceGraphic" in2="effect1_dropShadow" result="shape"/>
</filter>
<filter id="filter2_d" x="111.759" y="138.115" width="28.386" height="25.6727" filterUnits="userSpaceOnUse" color-interpolation-filters="sRGB">
<feFlood flood-opacity="0" result="BackgroundImageFix"/>
<feColorMatrix in="SourceAlpha" type="matrix" values="0 0 0 0 0 0 0 0 0 0 0 0 0 0 0 0 0 0 127 0"/>
<feOffset dx="5" dy="5"/>
<feGaussianBlur stdDeviation="5"/>
<feColorMatrix type="matrix" values="0 0 0 0 0 0 0 0 0 0 0 0 0 0 0 0 0 0 0.25 0"/>
<feBlend mode="normal" in2="BackgroundImageFix" result="effect1_dropShadow"/>
<feBlend mode="normal" in="SourceGraphic" in2="effect1_dropShadow" result="shape"/>
</filter>
<filter id="filter3_d" x="140.862" y="129.976" width="28.3856" height="25.6727" filterUnits="userSpaceOnUse" color-interpolation-filters="sRGB">
<feFlood flood-opacity="0" result="BackgroundImageFix"/>
<feColorMatrix in="SourceAlpha" type="matrix" values="0 0 0 0 0 0 0 0 0 0 0 0 0 0 0 0 0 0 127 0"/>
<feOffset dx="5" dy="5"/>
<feGaussianBlur stdDeviation="5"/>
<feColorMatrix type="matrix" values="0 0 0 0 0 0 0 0 0 0 0 0 0 0 0 0 0 0 0.25 0"/>
<feBlend mode="normal" in2="BackgroundImageFix" result="effect1_dropShadow"/>
<feBlend mode="normal" in="SourceGraphic" in2="effect1_dropShadow" result="shape"/>
</filter>
<filter id="filter4_d" x="130.996" y="139.595" width="28.386" height="25.6725" filterUnits="userSpaceOnUse" color-interpolation-filters="sRGB">
<feFlood flood-opacity="0" result="BackgroundImageFix"/>
<feColorMatrix in="SourceAlpha" type="matrix" values="0 0 0 0 0 0 0 0 0 0 0 0 0 0 0 0 0 0 127 0"/>
<feOffset dx="5" dy="5"/>
<feGaussianBlur stdDeviation="5"/>
<feColorMatrix type="matrix" values="0 0 0 0 0 0 0 0 0 0 0 0 0 0 0 0 0 0 0.25 0"/>
<feBlend mode="normal" in2="BackgroundImageFix" result="effect1_dropShadow"/>
<feBlend mode="normal" in="SourceGraphic" in2="effect1_dropShadow" result="shape"/>
</filter>
</defs>
</svg>
