<svg width="55" height="55" viewBox="0 0 55 55" fill="none" xmlns="http://www.w3.org/2000/svg">
<circle cx="27.5" cy="27.5" r="27.5" fill="#F5D358"/>
<circle cx="27.5" cy="27.5" r="27.5" fill="url(#paint0_linear)"/>
<path d="M27.918 30.3164C27.7852 32.1523 27.1055 33.5977 25.8789 34.6523C24.6602 35.707 23.0508 36.2344 21.0508 36.2344C18.8633 36.2344 17.1406 35.5 15.8828 34.0312C14.6328 32.5547 14.0078 30.5312 14.0078 27.9609V26.918C14.0078 25.2773 14.2969 23.832 14.875 22.582C15.4531 21.332 16.2773 20.375 17.3477 19.7109C18.4258 19.0391 19.6758 18.7031 21.0977 18.7031C23.0664 18.7031 24.6523 19.2305 25.8555 20.2852C27.0586 21.3398 27.7539 22.8203 27.9414 24.7266H24.4258C24.3398 23.625 24.0312 22.8281 23.5 22.3359C22.9766 21.8359 22.1758 21.5859 21.0977 21.5859C19.9258 21.5859 19.0469 22.0078 18.4609 22.8516C17.8828 23.6875 17.5859 24.9883 17.5703 26.7539V28.043C17.5703 29.8867 17.8477 31.2344 18.4023 32.0859C18.9648 32.9375 19.8477 33.3633 21.0508 33.3633C22.1367 33.3633 22.9453 33.1172 23.4766 32.625C24.0156 32.125 24.3242 31.3555 24.4023 30.3164H27.918ZM39.8594 24.7734C39.5078 24.7891 39.1641 24.8008 38.8281 24.8086C38.5 24.8164 38.1641 24.8281 37.8203 24.8438L31.1289 34.7578C31.4648 34.7266 31.8008 34.707 32.1367 34.6992C32.4727 34.6836 32.8164 34.668 33.168 34.6523L39.8594 24.7734ZM35.8516 34.582H37.7969C38.7109 34.582 39.5273 34.5977 40.2461 34.6289C40.2773 33.5977 40.4062 32.5664 40.6328 31.5352C40.7188 31.2148 40.8906 31.0547 41.1484 31.0547C41.4062 31.0547 41.5859 31.125 41.6875 31.2656C41.7969 31.4062 41.8516 31.5117 41.8516 31.582V31.7344C41.8516 31.7578 41.8203 31.9062 41.7578 32.1797C41.5703 32.9219 41.4766 33.875 41.4766 35.0391V35.2617C41.4609 35.4414 41.3984 35.5898 41.2891 35.707C41.1797 35.8242 41.0391 35.8828 40.8672 35.8828H40.8438C39.5781 35.8359 37.9766 35.8125 36.0391 35.8125C34.1094 35.8125 32.0781 35.8906 29.9453 36.0469H29.8984C29.7344 36.0469 29.5938 35.9844 29.4766 35.8594C29.3594 35.7266 29.3008 35.6094 29.3008 35.5078C29.3008 35.3281 29.332 35.1875 29.3945 35.0859L36.332 24.8672H35.8516C34.5547 24.8672 33.1328 24.8242 31.5859 24.7383C31.4297 25.668 31.1953 26.5742 30.8828 27.457C30.7891 27.7305 30.6211 27.8672 30.3789 27.8672C30.1367 27.8672 29.9609 27.8047 29.8516 27.6797C29.7422 27.5469 29.6875 27.4375 29.6875 27.3516C29.6875 27.2266 29.7422 27.0234 29.8516 26.7422C30.0938 26.0859 30.2852 25.1875 30.4258 24.0469C30.4414 23.8906 30.5078 23.7617 30.625 23.6602C30.75 23.5508 30.8867 23.4961 31.0352 23.4961H31.082C32.3867 23.5742 33.9922 23.6133 35.8984 23.6133C37.8125 23.6133 39.5195 23.5742 41.0195 23.4961H41.0664C41.2461 23.4961 41.3906 23.5625 41.5 23.6953C41.6094 23.8203 41.6641 23.9375 41.6641 24.0469C41.6641 24.2422 41.6328 24.3789 41.5703 24.457L34.6797 34.6055C35.0625 34.5898 35.4531 34.582 35.8516 34.582Z" fill="white"/>
<defs>
<linearGradient id="paint0_linear" x1="60.4225" y1="-4.26056" x2="-9.29578" y2="62.7465" gradientUnits="userSpaceOnUse">
<stop stop-color="#F1BF0B"/>
<stop offset="1" stop-color="white" stop-opacity="0"/>
</linearGradient>
</defs>
</svg>
