<svg width="37" height="56" viewBox="0 0 37 56" fill="none" xmlns="http://www.w3.org/2000/svg">
<rect x="18.25" width="25.8094" height="25.8094" transform="rotate(45 18.25 0)" fill="#3FCFC7"/>
<path d="M2.5 18.75L17.5 33.4213L17.5 18.75L2.5 18.75Z" fill="#0AB6AC"/>
<path d="M34 18.75L19 33.4213L19 18.75L34 18.75Z" fill="#3CE2D9"/>
<path d="M34 17.4213L19 2.75L19 17.4213L34 17.4213Z" fill="#69F9F1"/>
<path d="M9.03906 48.7383V54.75H5.52344V37.6875H12.1797C13.4609 37.6875 14.5859 37.9219 15.5547 38.3906C16.5312 38.8594 17.2812 39.5273 17.8047 40.3945C18.3281 41.2539 18.5898 42.2344 18.5898 43.3359C18.5898 45.0078 18.0156 46.3281 16.8672 47.2969C15.7266 48.2578 14.1445 48.7383 12.1211 48.7383H9.03906ZM9.03906 45.8906H12.1797C13.1094 45.8906 13.8164 45.6719 14.3008 45.2344C14.793 44.7969 15.0391 44.1719 15.0391 43.3594C15.0391 42.5234 14.793 41.8477 14.3008 41.332C13.8086 40.8164 13.1289 40.5508 12.2617 40.5352H9.03906V45.8906ZM30.6484 43.5234C30.2969 43.5391 29.9531 43.5508 29.6172 43.5586C29.2891 43.5664 28.9531 43.5781 28.6094 43.5938L21.918 53.5078C22.2539 53.4766 22.5898 53.457 22.9258 53.4492C23.2617 53.4336 23.6055 53.418 23.957 53.4023L30.6484 43.5234ZM26.6406 53.332H28.5859C29.5 53.332 30.3164 53.3477 31.0352 53.3789C31.0664 52.3477 31.1953 51.3164 31.4219 50.2852C31.5078 49.9648 31.6797 49.8047 31.9375 49.8047C32.1953 49.8047 32.375 49.875 32.4766 50.0156C32.5859 50.1562 32.6406 50.2617 32.6406 50.332V50.4844C32.6406 50.5078 32.6094 50.6562 32.5469 50.9297C32.3594 51.6719 32.2656 52.625 32.2656 53.7891V54.0117C32.25 54.1914 32.1875 54.3398 32.0781 54.457C31.9688 54.5742 31.8281 54.6328 31.6562 54.6328H31.6328C30.3672 54.5859 28.7656 54.5625 26.8281 54.5625C24.8984 54.5625 22.8672 54.6406 20.7344 54.7969H20.6875C20.5234 54.7969 20.3828 54.7344 20.2656 54.6094C20.1484 54.4766 20.0898 54.3594 20.0898 54.2578C20.0898 54.0781 20.1211 53.9375 20.1836 53.8359L27.1211 43.6172H26.6406C25.3438 43.6172 23.9219 43.5742 22.375 43.4883C22.2188 44.418 21.9844 45.3242 21.6719 46.207C21.5781 46.4805 21.4102 46.6172 21.168 46.6172C20.9258 46.6172 20.75 46.5547 20.6406 46.4297C20.5312 46.2969 20.4766 46.1875 20.4766 46.1016C20.4766 45.9766 20.5312 45.7734 20.6406 45.4922C20.8828 44.8359 21.0742 43.9375 21.2148 42.7969C21.2305 42.6406 21.2969 42.5117 21.4141 42.4102C21.5391 42.3008 21.6758 42.2461 21.8242 42.2461H21.8711C23.1758 42.3242 24.7812 42.3633 26.6875 42.3633C28.6016 42.3633 30.3086 42.3242 31.8086 42.2461H31.8555C32.0352 42.2461 32.1797 42.3125 32.2891 42.4453C32.3984 42.5703 32.4531 42.6875 32.4531 42.7969C32.4531 42.9922 32.4219 43.1289 32.3594 43.207L25.4688 53.3555C25.8516 53.3398 26.2422 53.332 26.6406 53.332Z" fill="#535353"/>
</svg>
