<svg width="82" height="71" viewBox="0 0 82 71" fill="none" xmlns="http://www.w3.org/2000/svg">
<circle cx="41.0001" cy="23.379" r="20.8791" transform="rotate(-90 41.0001 23.379)" stroke="#DB5A52" stroke-width="5"/>
<path d="M1.14258 69V56.2031H5.08008C6.20508 56.2031 7.20996 56.458 8.09473 56.9678C8.98535 57.4717 9.67969 58.1924 10.1777 59.1299C10.6758 60.0615 10.9248 61.1221 10.9248 62.3115V62.9004C10.9248 64.0898 10.6787 65.1475 10.1865 66.0732C9.7002 66.999 9.01172 67.7168 8.12109 68.2266C7.23047 68.7363 6.22559 68.9941 5.10645 69H1.14258ZM3.7793 58.3389V66.8818H5.05371C6.08496 66.8818 6.87305 66.5449 7.41797 65.8711C7.96289 65.1973 8.24121 64.2334 8.25293 62.9795V62.3027C8.25293 61.002 7.9834 60.0176 7.44434 59.3496C6.90527 58.6758 6.11719 58.3389 5.08008 58.3389H3.7793ZM20.5488 63.4541H15.4863V66.8818H21.4277V69H12.8496V56.2031H21.4102V58.3389H15.4863V61.3887H20.5488V63.4541ZM29.6104 65.6426C29.6104 65.1445 29.4346 64.7637 29.083 64.5C28.7314 64.2305 28.0986 63.9492 27.1846 63.6562C26.2705 63.3574 25.5469 63.0645 25.0137 62.7773C23.5605 61.9922 22.834 60.9346 22.834 59.6045C22.834 58.9131 23.0273 58.2979 23.4141 57.7588C23.8066 57.2139 24.3662 56.7891 25.0928 56.4844C25.8252 56.1797 26.6455 56.0273 27.5537 56.0273C28.4678 56.0273 29.2822 56.1943 29.9971 56.5283C30.7119 56.8564 31.2656 57.3223 31.6582 57.9258C32.0566 58.5293 32.2559 59.2148 32.2559 59.9824H29.6191C29.6191 59.3965 29.4346 58.9424 29.0654 58.6201C28.6963 58.292 28.1777 58.1279 27.5098 58.1279C26.8652 58.1279 26.3643 58.2656 26.0068 58.541C25.6494 58.8105 25.4707 59.168 25.4707 59.6133C25.4707 60.0293 25.6787 60.3779 26.0947 60.6592C26.5166 60.9404 27.1348 61.2041 27.9492 61.4502C29.4492 61.9014 30.542 62.4609 31.2275 63.1289C31.9131 63.7969 32.2559 64.6289 32.2559 65.625C32.2559 66.7324 31.8369 67.6025 30.999 68.2354C30.1611 68.8623 29.0332 69.1758 27.6152 69.1758C26.6309 69.1758 25.7344 68.9971 24.9258 68.6396C24.1172 68.2764 23.499 67.7812 23.0713 67.1543C22.6494 66.5273 22.4385 65.8008 22.4385 64.9746H25.084C25.084 66.3867 25.9277 67.0928 27.6152 67.0928C28.2422 67.0928 28.7314 66.9668 29.083 66.7148C29.4346 66.457 29.6104 66.0996 29.6104 65.6426ZM36.8525 69H34.2158V56.2031H36.8525V69ZM45.9404 65.6426C45.9404 65.1445 45.7646 64.7637 45.4131 64.5C45.0615 64.2305 44.4287 63.9492 43.5146 63.6562C42.6006 63.3574 41.877 63.0645 41.3438 62.7773C39.8906 61.9922 39.1641 60.9346 39.1641 59.6045C39.1641 58.9131 39.3574 58.2979 39.7441 57.7588C40.1367 57.2139 40.6963 56.7891 41.4229 56.4844C42.1553 56.1797 42.9756 56.0273 43.8838 56.0273C44.7979 56.0273 45.6123 56.1943 46.3271 56.5283C47.042 56.8564 47.5957 57.3223 47.9883 57.9258C48.3867 58.5293 48.5859 59.2148 48.5859 59.9824H45.9492C45.9492 59.3965 45.7646 58.9424 45.3955 58.6201C45.0264 58.292 44.5078 58.1279 43.8398 58.1279C43.1953 58.1279 42.6943 58.2656 42.3369 58.541C41.9795 58.8105 41.8008 59.168 41.8008 59.6133C41.8008 60.0293 42.0088 60.3779 42.4248 60.6592C42.8467 60.9404 43.4648 61.2041 44.2793 61.4502C45.7793 61.9014 46.8721 62.4609 47.5576 63.1289C48.2432 63.7969 48.5859 64.6289 48.5859 65.625C48.5859 66.7324 48.167 67.6025 47.3291 68.2354C46.4912 68.8623 45.3633 69.1758 43.9453 69.1758C42.9609 69.1758 42.0645 68.9971 41.2559 68.6396C40.4473 68.2764 39.8291 67.7812 39.4014 67.1543C38.9795 66.5273 38.7686 65.8008 38.7686 64.9746H41.4141C41.4141 66.3867 42.2578 67.0928 43.9453 67.0928C44.5723 67.0928 45.0615 66.9668 45.4131 66.7148C45.7646 66.457 45.9404 66.0996 45.9404 65.6426ZM60.0117 58.3389H56.0918V69H53.4551V58.3389H49.5879V56.2031H60.0117V58.3389ZM64.3271 69H61.6904V56.2031H64.3271V69ZM71.5166 64.3154H69.416V69H66.7793V56.2031H71.5342C73.0459 56.2031 74.2119 56.54 75.0322 57.2139C75.8525 57.8877 76.2627 58.8398 76.2627 60.0703C76.2627 60.9434 76.0723 61.6729 75.6914 62.2588C75.3164 62.8389 74.7451 63.3018 73.9775 63.6475L76.7461 68.877V69H73.916L71.5166 64.3154ZM69.416 62.1797H71.543C72.2051 62.1797 72.7178 62.0127 73.0811 61.6787C73.4443 61.3389 73.626 60.873 73.626 60.2812C73.626 59.6777 73.4531 59.2031 73.1074 58.8574C72.7676 58.5117 72.2432 58.3389 71.5342 58.3389H69.416V62.1797Z" fill="#DB5A52"/>
<path d="M32.3529 36.5097L27.8693 32.0261L36.5163 23.379L27.8693 14.732L32.3529 10.2483L41 18.8954L49.647 10.2483L54.1307 14.732L45.4836 23.379L54.1307 32.0261L49.647 36.5097L41 27.8627L32.3529 36.5097Z" fill="#DB5A52"/>
</svg>
