<svg width="581" height="414" viewBox="0 0 581 414" fill="none" xmlns="http://www.w3.org/2000/svg">
<rect y="0.424072" width="581" height="413.061" rx="50" fill="#F0F0F0"/>
<path d="M97.9642 73.3669L0.848145 261.869L0.848145 281.17L581 281.17L581 278.596L485.58 110.038L372.773 261.869L279.474 180.163L172.604 261.869L97.9642 73.3669Z" fill="#078EC8" fill-opacity="0.5"/>
<path d="M97.9642 73.3669L0.848145 261.869L0.848145 281.17L581 281.17L581 278.596L485.58 110.038L372.773 261.869L279.474 180.163L172.604 261.869L97.9642 73.3669Z" fill="url(#paint0_linear)"/>
<circle cx="510.779" cy="342.941" r="66.1577" fill="white"/>
<circle cx="510.779" cy="342.941" r="66.1577" fill="url(#paint1_linear)"/>
<circle cx="510.779" cy="342.941" r="65.6577" stroke="#078EC8" stroke-opacity="0.15"/>
<circle cx="510.354" cy="233.103" r="49.6182" fill="white"/>
<circle cx="510.354" cy="233.103" r="49.6182" fill="url(#paint2_linear)"/>
<circle cx="510.354" cy="233.103" r="49.1182" stroke="#078EC8" stroke-opacity="0.15"/>
<path d="M464.129 276.784C457.343 269.998 463.422 260.527 467.097 256.852C469.218 261.941 478.802 273.815 501.873 278.904C530.711 285.265 544.281 269.998 550.643 262.365C553.838 270.886 554.591 275.941 553.916 278.904C558.722 284.417 567.521 296.631 562.093 301.381C560.312 302.939 557.57 303.505 554.459 303.463C569.303 331.029 552.339 371.779 551.491 373.476C550.643 375.172 515.443 383.23 520.957 371.779C525.367 362.619 525.622 317.587 525.197 296.216C510.539 293.351 488.542 291.733 470.914 298.836C448.183 307.997 456.919 287.951 464.129 276.784Z" fill="#860808"/>
<path d="M464.129 276.784C457.343 269.998 463.422 260.527 467.097 256.852C469.218 261.941 478.802 273.815 501.873 278.904C530.711 285.265 544.281 269.998 550.643 262.365C558.785 284.078 551.067 283.286 544.281 282.721M464.129 276.784C470.914 283.569 480.81 283.569 484.909 282.721M464.129 276.784C456.919 287.951 448.183 307.997 470.914 298.836C488.542 291.733 510.539 293.351 525.197 296.216M553.916 278.904C558.722 284.417 567.521 296.631 562.093 301.381C556.665 306.131 542.302 301.663 535.8 298.836C533.07 297.979 529.441 297.045 525.197 296.216M525.197 296.216C525.622 317.587 525.367 362.619 520.957 371.779C515.443 383.23 550.643 375.172 551.491 373.476C552.339 371.779 569.303 331.029 554.459 303.463C549.674 303.311 537.496 299.723 534.527 298.451C531.559 297.178 526.847 296.832 525.197 296.216Z" stroke="#222222"/>
<rect x="474.459" y="173.306" width="96.692" height="11.8745" rx="2" transform="rotate(13.1239 474.459 173.306)" fill="#202020"/>
<rect x="507.005" y="135.138" width="52.1983" height="46.8847" rx="2" transform="rotate(13.1239 507.005 135.138)" fill="#202020"/>
<ellipse cx="486.973" cy="220.326" rx="6.7854" ry="11.8745" transform="rotate(12.9447 486.973 220.326)" fill="#202020"/>
<ellipse cx="520.051" cy="223.719" rx="6.7854" ry="11.8745" transform="rotate(12.9447 520.051 223.719)" fill="#202020"/>
<path d="M446.458 222.827L500.079 225.439L495.889 246.96L446.458 222.827Z" fill="#FA9334"/>
<path d="M504.417 145.741C504.078 144.723 504.558 144.186 504.841 144.044C504.841 144.044 503.696 137.389 506.538 135.562C507.288 135.08 507.822 135.024 508.658 134.714C515.019 133.442 543.857 134.714 557.004 146.165C557.542 147.136 557.904 147.663 558.276 148.709C560.068 153.746 555.112 167.162 554.459 161.856C554.257 160.212 555.246 159.072 554.459 157.615C552.963 154.842 549.365 159.11 546.402 158.039C543.749 157.081 543.575 154.232 540.889 153.374C538.031 152.462 536.178 154.894 533.255 154.222C529.896 153.451 529.323 150.199 526.046 149.133C523.206 148.21 521.297 149.478 518.412 148.709C515.549 147.947 513.888 144.751 511.627 145.317C509.365 145.882 504.756 146.758 504.417 145.741Z" fill="white"/>
<path d="M504.417 145.741C504.078 144.723 504.558 144.186 504.841 144.044C504.841 144.044 503.696 137.389 506.538 135.562C507.288 135.08 507.822 135.024 508.658 134.714C515.019 133.442 543.857 134.714 557.004 146.165C557.542 147.136 557.904 147.663 558.276 148.709C560.068 153.746 555.112 167.162 554.459 161.856C554.257 160.212 555.246 159.072 554.459 157.615C552.963 154.842 549.365 159.11 546.402 158.039C543.749 157.081 543.575 154.232 540.889 153.374C538.031 152.462 536.178 154.894 533.255 154.222C529.896 153.451 529.323 150.199 526.046 149.133C523.206 148.21 521.297 149.478 518.412 148.709C515.549 147.947 513.888 144.751 511.627 145.317C509.365 145.882 504.756 146.758 504.417 145.741Z" fill="url(#paint3_linear)"/>
<path d="M504.417 145.741C504.078 144.723 504.558 144.186 504.841 144.044C504.841 144.044 503.696 137.389 506.538 135.562C507.288 135.08 507.822 135.024 508.658 134.714C515.019 133.442 543.857 134.714 557.004 146.165C557.542 147.136 557.904 147.663 558.276 148.709C560.068 153.746 555.112 167.162 554.459 161.856C554.257 160.212 555.246 159.072 554.459 157.615C552.963 154.842 549.365 159.11 546.402 158.039C543.749 157.081 543.575 154.232 540.889 153.374C538.031 152.462 536.178 154.894 533.255 154.222C529.896 153.451 529.323 150.199 526.046 149.133C523.206 148.21 521.297 149.478 518.412 148.709C515.549 147.947 513.888 144.751 511.627 145.317C509.365 145.882 504.756 146.758 504.417 145.741Z" stroke="#078EC8" stroke-opacity="0.15"/>
<path d="M472.611 178.819C471.417 177.356 472.624 175.562 473.883 174.154C474.435 173.537 475.579 172.882 475.579 172.882L568.03 194.086C568.03 194.086 569.334 195.503 569.727 196.631C570.71 199.45 570.031 204.733 567.182 203.84C565.202 203.22 566.576 199.917 564.638 199.176C562.874 198.501 561.86 200.5 559.973 200.448C556.934 200.364 556.154 197.295 553.187 196.631C549.599 195.828 547.432 198.768 543.857 197.903C540.058 196.984 539.707 191.856 535.8 191.966C534.435 192.004 533.773 192.787 532.407 192.814C530.101 192.86 529.103 191.359 526.894 190.694C518.331 188.113 512.34 193.905 503.993 190.694C498.548 188.599 497.438 183.24 491.695 182.212C489.249 181.774 487.762 182.737 485.333 182.212C482 181.492 481.099 178.248 477.7 177.971C475.692 177.807 473.884 180.381 472.611 178.819Z" fill="white"/>
<path d="M472.611 178.819C471.417 177.356 472.624 175.562 473.883 174.154C474.435 173.537 475.579 172.882 475.579 172.882L568.03 194.086C568.03 194.086 569.334 195.503 569.727 196.631C570.71 199.45 570.031 204.733 567.182 203.84C565.202 203.22 566.576 199.917 564.638 199.176C562.874 198.501 561.86 200.5 559.973 200.448C556.934 200.364 556.154 197.295 553.187 196.631C549.599 195.828 547.432 198.768 543.857 197.903C540.058 196.984 539.707 191.856 535.8 191.966C534.435 192.004 533.773 192.787 532.407 192.814C530.101 192.86 529.103 191.359 526.894 190.694C518.331 188.113 512.34 193.905 503.993 190.694C498.548 188.599 497.438 183.24 491.695 182.212C489.249 181.774 487.762 182.737 485.333 182.212C482 181.492 481.099 178.248 477.7 177.971C475.692 177.807 473.884 180.381 472.611 178.819Z" fill="url(#paint4_linear)"/>
<path d="M472.611 178.819C471.417 177.356 472.624 175.562 473.883 174.154C474.435 173.537 475.579 172.882 475.579 172.882L568.03 194.086C568.03 194.086 569.334 195.503 569.727 196.631C570.71 199.45 570.031 204.733 567.182 203.84C565.202 203.22 566.576 199.917 564.638 199.176C562.874 198.501 561.86 200.5 559.973 200.448C556.934 200.364 556.154 197.295 553.187 196.631C549.599 195.828 547.432 198.768 543.857 197.903C540.058 196.984 539.707 191.856 535.8 191.966C534.435 192.004 533.773 192.787 532.407 192.814C530.101 192.86 529.103 191.359 526.894 190.694C518.331 188.113 512.34 193.905 503.993 190.694C498.548 188.599 497.438 183.24 491.695 182.212C489.249 181.774 487.762 182.737 485.333 182.212C482 181.492 481.099 178.248 477.7 177.971C475.692 177.807 473.884 180.381 472.611 178.819Z" stroke="#078EC8" stroke-opacity="0.15"/>
<path d="M451.406 225.469C450.226 224.939 449.286 222.925 449.286 222.925L500.6 225.045C500.6 225.045 500.758 226.865 500.6 228.014C500.437 229.208 500.828 230.437 499.752 230.982C498.627 231.553 498.044 229.658 496.784 229.71C495.129 229.778 494.99 232.687 493.391 232.255C491.816 231.829 492.92 229.515 491.695 228.438C489.425 226.442 486.806 228.446 484.061 229.71C482.015 230.652 481.538 232.406 479.396 233.103C474.394 234.731 472.718 227.56 467.522 226.742C465.068 226.355 463.62 227.091 461.16 226.742C458.773 226.402 457.633 225.137 455.223 225.045C453.724 224.988 452.774 226.084 451.406 225.469Z" fill="white"/>
<path d="M451.406 225.469C450.226 224.939 449.286 222.925 449.286 222.925L500.6 225.045C500.6 225.045 500.758 226.865 500.6 228.014C500.437 229.208 500.828 230.437 499.752 230.982C498.627 231.553 498.044 229.658 496.784 229.71C495.129 229.778 494.99 232.687 493.391 232.255C491.816 231.829 492.92 229.515 491.695 228.438C489.425 226.442 486.806 228.446 484.061 229.71C482.015 230.652 481.538 232.406 479.396 233.103C474.394 234.731 472.718 227.56 467.522 226.742C465.068 226.355 463.62 227.091 461.16 226.742C458.773 226.402 457.633 225.137 455.223 225.045C453.724 224.988 452.774 226.084 451.406 225.469Z" fill="url(#paint5_linear)"/>
<path d="M451.406 225.469C450.226 224.939 449.286 222.925 449.286 222.925L500.6 225.045C500.6 225.045 500.758 226.865 500.6 228.014C500.437 229.208 500.828 230.437 499.752 230.982C498.627 231.553 498.044 229.658 496.784 229.71C495.129 229.778 494.99 232.687 493.391 232.255C491.816 231.829 492.92 229.515 491.695 228.438C489.425 226.442 486.806 228.446 484.061 229.71C482.015 230.652 481.538 232.406 479.396 233.103C474.394 234.731 472.718 227.56 467.522 226.742C465.068 226.355 463.62 227.091 461.16 226.742C458.773 226.402 457.633 225.137 455.223 225.045C453.724 224.988 452.774 226.084 451.406 225.469Z" stroke="#078EC8" stroke-opacity="0.15"/>
<path d="M92.8752 97.9642C92.8752 97.9642 58.1035 101.557 44.5292 127.65C39.3487 137.609 33.6472 137.26 26.7175 158.185C5.08905 223.494 1.72825e-06 373.951 1.72825e-06 373.951L6.78145e-07 146.734L68.7022 78.0321L126.378 -5.84068e-07L273.961 -1.26613e-06L231.552 5.51314C231.552 5.51314 201.295 4.73888 181.934 5.51314C161.677 6.32319 130.195 9.75401 130.195 9.75401L80.5766 78.0321L80.5766 88.6343L92.8752 88.6343L231.552 58.5241L92.8752 97.9642Z" fill="#272727"/>
<path d="M69.9742 131.467C60.8659 129.696 53.4348 115.352 53.4348 115.352L48.3457 120.865L68.0431 137.828L131.783 137.828L160.305 126.586L131.783 133.248C131.783 133.248 93.5337 136.047 69.9742 131.467Z" fill="#272727"/>
<path d="M127.226 147.582L112.383 137.404L116.624 137.404L128.074 145.462L138.252 149.279L127.226 147.582Z" fill="#272727"/>
<path d="M32.6543 192.536L13.5703 203.986L13.5703 208.651L34.7747 197.201L47.0732 169.211L32.6543 192.536Z" fill="#272727"/>
<path d="M16.1955 65.0701C6.98964 72.2152 3.55165 121.919 2.98338 145.878L6.85985e-07 148.855L1.92626e-07 42.1037C2.12044 9.32991 27.9898 0.424072 40.915 0.424072L70.7488 0.424072C65.2082 4.11003 42.6256 2.95888 33.0788 6.3613C23.532 9.76372 5.08905 15.2671 5.93723 64.0372C5.93723 64.0372 32.7835 50.7232 50.8905 44.5292C64.2261 39.9673 85.6657 34.8736 85.6657 34.8736C66.3447 41.962 25.4014 57.925 16.1955 65.0701Z" fill="#272727"/>
<path d="M20.3561 81.4247L2.12036 137.404L2.96854 146.734L21.2043 82.697L64.0371 50.0422L20.3561 81.4247Z" fill="#272727"/>
<path d="M159.881 109.414L128.074 85.2415L117.472 88.6342L159.881 112.383L189.991 102.629L159.881 109.414Z" fill="#272727"/>
<path d="M8.90552 228.583L98.388 178.117C139.345 172.859 221.612 161.56 229.85 157.584C230.005 157.5 230.149 157.417 230.279 157.336C230.171 157.415 230.028 157.498 229.85 157.584C218.267 163.835 137.723 178.346 98.388 184.902L8.90552 237.065L8.90552 228.583Z" fill="#272727"/>
<path d="M125.954 208.227C119.847 210.263 70.2571 212.751 46.2254 213.74C42.2673 214.306 35.1991 215.861 38.5918 217.557C42.8327 219.677 119.593 211.62 125.954 208.227Z" fill="#272727"/>
<path d="M11.4501 229.431C8.65639 232.985 13.1465 217.981 13.1465 217.981C14.1402 219.969 12.7224 223.494 15.691 223.07C18.6596 222.646 95.4195 177.693 95.4195 177.693L178.965 165.818C178.965 165.818 182.221 166.5 184.054 167.515C190.56 171.119 172.816 170.839 165.394 171.331C161.758 171.573 159.697 171.055 156.064 171.331C148.773 171.886 145.037 174.35 137.828 175.572C129.461 176.991 124.386 175.454 116.2 177.693C112.815 178.619 111.222 180.471 107.718 180.661C104.863 180.817 103.195 178.41 100.509 179.389C98.9524 179.956 98.5228 181.06 97.1158 181.934C93.8221 183.979 91.3066 183.703 87.7859 185.326C81.4871 188.231 79.5446 192.953 72.9428 195.08C70.8397 195.758 69.5251 195.652 67.4297 196.353C61.5489 198.32 59.8272 202.481 54.283 205.258C50.1582 207.325 46.8266 206.577 43.2567 209.499C41.5326 210.911 41.1371 212.297 39.4399 213.74C35.3639 217.208 30.8393 215.417 26.7173 218.829C25.4544 219.875 25.0157 220.757 23.7487 221.798C20.2528 224.669 15.9204 222.89 13.1465 226.463C12.3277 227.518 12.2753 228.382 11.4501 229.431Z" fill="white"/>
<path d="M11.4501 229.431C8.65639 232.985 13.1465 217.981 13.1465 217.981C14.1402 219.969 12.7224 223.494 15.691 223.07C18.6596 222.646 95.4195 177.693 95.4195 177.693L178.965 165.818C178.965 165.818 182.221 166.5 184.054 167.515C190.56 171.119 172.816 170.839 165.394 171.331C161.758 171.573 159.697 171.055 156.064 171.331C148.773 171.886 145.037 174.35 137.828 175.572C129.461 176.991 124.386 175.454 116.2 177.693C112.815 178.619 111.222 180.471 107.718 180.661C104.863 180.817 103.195 178.41 100.509 179.389C98.9524 179.956 98.5228 181.06 97.1158 181.934C93.8221 183.979 91.3066 183.703 87.7859 185.326C81.4871 188.231 79.5446 192.953 72.9428 195.08C70.8397 195.758 69.5251 195.652 67.4297 196.353C61.5489 198.32 59.8272 202.481 54.283 205.258C50.1582 207.325 46.8266 206.577 43.2567 209.499C41.5326 210.911 41.1371 212.297 39.4399 213.74C35.3639 217.208 30.8393 215.417 26.7173 218.829C25.4544 219.875 25.0157 220.757 23.7487 221.798C20.2528 224.669 15.9204 222.89 13.1465 226.463C12.3277 227.518 12.2753 228.382 11.4501 229.431Z" fill="url(#paint6_linear)"/>
<path d="M11.4501 229.431C8.65639 232.985 13.1465 217.981 13.1465 217.981C14.1402 219.969 12.7224 223.494 15.691 223.07C18.6596 222.646 95.4195 177.693 95.4195 177.693L178.965 165.818C178.965 165.818 182.221 166.5 184.054 167.515C190.56 171.119 172.816 170.839 165.394 171.331C161.758 171.573 159.697 171.055 156.064 171.331C148.773 171.886 145.037 174.35 137.828 175.572C129.461 176.991 124.386 175.454 116.2 177.693C112.815 178.619 111.222 180.471 107.718 180.661C104.863 180.817 103.195 178.41 100.509 179.389C98.9524 179.956 98.5228 181.06 97.1158 181.934C93.8221 183.979 91.3066 183.703 87.7859 185.326C81.4871 188.231 79.5446 192.953 72.9428 195.08C70.8397 195.758 69.5251 195.652 67.4297 196.353C61.5489 198.32 59.8272 202.481 54.283 205.258C50.1582 207.325 46.8266 206.577 43.2567 209.499C41.5326 210.911 41.1371 212.297 39.4399 213.74C35.3639 217.208 30.8393 215.417 26.7173 218.829C25.4544 219.875 25.0157 220.757 23.7487 221.798C20.2528 224.669 15.9204 222.89 13.1465 226.463C12.3277 227.518 12.2753 228.382 11.4501 229.431Z" stroke="#078EC8" stroke-opacity="0.15"/>
<path d="M50.4665 216.285C49.599 215.591 48.8102 214.783 49.1943 213.74C49.4805 212.963 50.8906 212.468 50.8906 212.468L100.509 209.923C100.509 209.923 102.491 210.41 103.477 211.196C106.082 213.269 98.3211 211.892 94.9957 212.044C92.1832 212.172 90.58 211.695 87.7862 212.044C85.0759 212.383 83.7291 213.609 81.0008 213.74C78.4975 213.86 77.1455 212.928 74.6395 212.892C69.8975 212.825 67.4927 215.812 62.7651 215.436C60.0422 215.22 58.6919 213.417 55.9797 213.74C53.625 214.021 52.3182 217.766 50.4665 216.285Z" fill="white"/>
<path d="M50.4665 216.285C49.599 215.591 48.8102 214.783 49.1943 213.74C49.4805 212.963 50.8906 212.468 50.8906 212.468L100.509 209.923C100.509 209.923 102.491 210.41 103.477 211.196C106.082 213.269 98.3211 211.892 94.9957 212.044C92.1832 212.172 90.58 211.695 87.7862 212.044C85.0759 212.383 83.7291 213.609 81.0008 213.74C78.4975 213.86 77.1455 212.928 74.6395 212.892C69.8975 212.825 67.4927 215.812 62.7651 215.436C60.0422 215.22 58.6919 213.417 55.9797 213.74C53.625 214.021 52.3182 217.766 50.4665 216.285Z" fill="url(#paint7_linear)"/>
<path d="M50.4665 216.285C49.599 215.591 48.8102 214.783 49.1943 213.74C49.4805 212.963 50.8906 212.468 50.8906 212.468L100.509 209.923C100.509 209.923 102.491 210.41 103.477 211.196C106.082 213.269 98.3211 211.892 94.9957 212.044C92.1832 212.172 90.58 211.695 87.7862 212.044C85.0759 212.383 83.7291 213.609 81.0008 213.74C78.4975 213.86 77.1455 212.928 74.6395 212.892C69.8975 212.825 67.4927 215.812 62.7651 215.436C60.0422 215.22 58.6919 213.417 55.9797 213.74C53.625 214.021 52.3182 217.766 50.4665 216.285Z" stroke="#078EC8" stroke-opacity="0.15"/>
<path d="M52.1626 120.441C51.412 118.965 51.7385 116.2 52.1626 116.2L55.1312 116.2C61.5773 136.556 112.383 134.294 136.98 130.619C136.98 130.619 138.321 131.74 138.676 132.739C139.754 135.769 133.813 134.068 130.619 134.436C126.67 134.891 124.404 134.129 120.441 134.436C116.26 134.759 114.028 135.953 109.839 136.132C105.524 136.316 103.127 135.11 98.8122 135.284C95.9796 135.398 94.4312 136.323 91.6027 136.132C88.8775 135.948 87.5394 134.662 84.8173 134.436C81.6641 134.173 79.8401 136.007 76.7597 135.284C74.5964 134.776 73.8754 133.015 71.6706 132.739C68.708 132.369 67.2158 136.436 64.4611 135.284C61.8635 134.198 63.4101 130.486 61.0684 128.923C59.7617 128.05 58.386 128.737 57.2517 127.65C55.8883 126.344 57.0986 124.506 55.9794 122.985C54.9177 121.542 52.9746 122.038 52.1626 120.441Z" fill="white"/>
<path d="M52.1626 120.441C51.412 118.965 51.7385 116.2 52.1626 116.2L55.1312 116.2C61.5773 136.556 112.383 134.294 136.98 130.619C136.98 130.619 138.321 131.74 138.676 132.739C139.754 135.769 133.813 134.068 130.619 134.436C126.67 134.891 124.404 134.129 120.441 134.436C116.26 134.759 114.028 135.953 109.839 136.132C105.524 136.316 103.127 135.11 98.8122 135.284C95.9796 135.398 94.4312 136.323 91.6027 136.132C88.8775 135.948 87.5394 134.662 84.8173 134.436C81.6641 134.173 79.8401 136.007 76.7597 135.284C74.5964 134.776 73.8754 133.015 71.6706 132.739C68.708 132.369 67.2158 136.436 64.4611 135.284C61.8635 134.198 63.4101 130.486 61.0684 128.923C59.7617 128.05 58.386 128.737 57.2517 127.65C55.8883 126.344 57.0986 124.506 55.9794 122.985C54.9177 121.542 52.9746 122.038 52.1626 120.441Z" fill="url(#paint8_linear)"/>
<path d="M52.1626 120.441C51.412 118.965 51.7385 116.2 52.1626 116.2L55.1312 116.2C61.5773 136.556 112.383 134.294 136.98 130.619C136.98 130.619 138.321 131.74 138.676 132.739C139.754 135.769 133.813 134.068 130.619 134.436C126.67 134.891 124.404 134.129 120.441 134.436C116.26 134.759 114.028 135.953 109.839 136.132C105.524 136.316 103.127 135.11 98.8122 135.284C95.9796 135.398 94.4312 136.323 91.6027 136.132C88.8775 135.948 87.5394 134.662 84.8173 134.436C81.6641 134.173 79.8401 136.007 76.7597 135.284C74.5964 134.776 73.8754 133.015 71.6706 132.739C68.708 132.369 67.2158 136.436 64.4611 135.284C61.8635 134.198 63.4101 130.486 61.0684 128.923C59.7617 128.05 58.386 128.737 57.2517 127.65C55.8883 126.344 57.0986 124.506 55.9794 122.985C54.9177 121.542 52.9746 122.038 52.1626 120.441Z" stroke="#078EC8" stroke-opacity="0.15"/>
<path d="M80.1524 97.54C76.9552 95.7233 78.8802 88.2101 78.8802 88.2101L179.389 68.278C179.389 68.278 182.552 67.7462 183.206 69.1262C184.014 70.8327 181.048 71.1939 179.389 72.0948C175.158 74.3916 171.713 71.599 167.09 72.9429C163.179 74.0801 161.585 76.2064 157.76 77.6079C149.929 80.4772 143.475 75.4958 136.556 80.1524C132.562 82.8404 132.828 87.3779 128.498 89.4824C121.983 92.6489 117.457 85.2483 110.263 86.0897C104.275 86.7899 101.872 91.6214 95.8437 91.6028C92.9847 91.594 91.4529 89.8522 88.6342 90.3305C84.3482 91.0578 83.9321 99.6877 80.1524 97.54Z" fill="white"/>
<path d="M80.1524 97.54C76.9552 95.7233 78.8802 88.2101 78.8802 88.2101L179.389 68.278C179.389 68.278 182.552 67.7462 183.206 69.1262C184.014 70.8327 181.048 71.1939 179.389 72.0948C175.158 74.3916 171.713 71.599 167.09 72.9429C163.179 74.0801 161.585 76.2064 157.76 77.6079C149.929 80.4772 143.475 75.4958 136.556 80.1524C132.562 82.8404 132.828 87.3779 128.498 89.4824C121.983 92.6489 117.457 85.2483 110.263 86.0897C104.275 86.7899 101.872 91.6214 95.8437 91.6028C92.9847 91.594 91.4529 89.8522 88.6342 90.3305C84.3482 91.0578 83.9321 99.6877 80.1524 97.54Z" fill="url(#paint9_linear)"/>
<path d="M80.1524 97.54C76.9552 95.7233 78.8802 88.2101 78.8802 88.2101L179.389 68.278C179.389 68.278 182.552 67.7462 183.206 69.1262C184.014 70.8327 181.048 71.1939 179.389 72.0948C175.158 74.3916 171.713 71.599 167.09 72.9429C163.179 74.0801 161.585 76.2064 157.76 77.6079C149.929 80.4772 143.475 75.4958 136.556 80.1524C132.562 82.8404 132.828 87.3779 128.498 89.4824C121.983 92.6489 117.457 85.2483 110.263 86.0897C104.275 86.7899 101.872 91.6214 95.8437 91.6028C92.9847 91.594 91.4529 89.8522 88.6342 90.3305C84.3482 91.0578 83.9321 99.6877 80.1524 97.54Z" stroke="#078EC8" stroke-opacity="0.15"/>
<circle cx="348.6" cy="50.4662" r="5.08905" fill="white"/>
<circle cx="348.6" cy="50.4662" r="4.58905" stroke="#078EC8" stroke-opacity="0.15"/>
<circle cx="461.407" cy="98.812" r="5.08905" fill="white"/>
<circle cx="461.407" cy="98.812" r="4.58905" stroke="#078EC8" stroke-opacity="0.15"/>
<circle cx="203.562" cy="137.828" r="5.08905" fill="white"/>
<circle cx="203.562" cy="137.828" r="4.58905" stroke="#078EC8" stroke-opacity="0.15"/>
<circle cx="554.706" cy="193.808" r="5.08905" fill="white"/>
<circle cx="554.706" cy="193.808" r="4.58905" stroke="#078EC8" stroke-opacity="0.15"/>
<circle cx="539.44" cy="251.484" r="5.08905" fill="white"/>
<circle cx="539.44" cy="251.484" r="4.58905" stroke="#078EC8" stroke-opacity="0.15"/>
<circle cx="331.636" cy="198.897" r="5.08905" fill="white"/>
<circle cx="331.636" cy="198.897" r="4.58905" stroke="#078EC8" stroke-opacity="0.15"/>
<circle cx="136.556" cy="45.3771" r="5.08905" fill="white"/>
<circle cx="136.556" cy="45.3771" r="4.58905" stroke="#078EC8" stroke-opacity="0.15"/>
<circle cx="85.6652" cy="163.274" r="5.08905" fill="white"/>
<circle cx="85.6652" cy="163.274" r="4.58905" stroke="#078EC8" stroke-opacity="0.15"/>
<circle cx="38.1677" cy="261.662" r="5.08905" fill="white"/>
<circle cx="38.1677" cy="261.662" r="4.58905" stroke="#078EC8" stroke-opacity="0.15"/>
<circle cx="148.431" cy="316.794" r="5.08905" fill="white"/>
<circle cx="148.431" cy="316.794" r="4.58905" stroke="#078EC8" stroke-opacity="0.15"/>
<circle cx="254.453" cy="246.395" r="5.08905" fill="white"/>
<circle cx="254.453" cy="246.395" r="4.58905" stroke="#078EC8" stroke-opacity="0.15"/>
<circle cx="285.835" cy="93.7233" r="5.08905" fill="white"/>
<circle cx="285.835" cy="93.7233" r="4.58905" stroke="#078EC8" stroke-opacity="0.15"/>
<circle cx="465.648" cy="27.5656" r="5.08905" fill="white"/>
<circle cx="465.648" cy="27.5656" r="4.58905" stroke="#078EC8" stroke-opacity="0.15"/>
<circle cx="336.726" cy="316.794" r="5.08905" fill="white"/>
<circle cx="336.726" cy="316.794" r="4.58905" stroke="#078EC8" stroke-opacity="0.15"/>
<circle cx="516.539" cy="332.909" r="5.08905" fill="white"/>
<circle cx="516.539" cy="332.909" r="4.58905" stroke="#078EC8" stroke-opacity="0.15"/>
<circle cx="379.983" cy="126.802" r="5.08905" fill="white"/>
<circle cx="379.983" cy="126.802" r="4.58905" stroke="#078EC8" stroke-opacity="0.15"/>
<defs>
<linearGradient id="paint0_linear" x1="-6.36134" y1="42.486" x2="614.821" y2="157.687" gradientUnits="userSpaceOnUse">
<stop stop-color="white"/>
<stop offset="1" stop-color="white" stop-opacity="0"/>
</linearGradient>
<linearGradient id="paint1_linear" x1="444.621" y1="276.784" x2="576.936" y2="409.099" gradientUnits="userSpaceOnUse">
<stop stop-color="#C6E9F8"/>
<stop offset="1" stop-color="#F0F0F0"/>
</linearGradient>
<linearGradient id="paint2_linear" x1="460.736" y1="183.484" x2="559.972" y2="282.721" gradientUnits="userSpaceOnUse">
<stop stop-color="#C6E9F8"/>
<stop offset="1" stop-color="#F0F0F0"/>
</linearGradient>
<linearGradient id="paint3_linear" x1="503.993" y1="127.929" x2="558.276" y2="166.945" gradientUnits="userSpaceOnUse">
<stop stop-color="#CDEAF7"/>
<stop offset="1" stop-color="white" stop-opacity="0"/>
</linearGradient>
<linearGradient id="paint4_linear" x1="471.763" y1="163.128" x2="570.151" y2="210.626" gradientUnits="userSpaceOnUse">
<stop stop-color="#CDEAF7"/>
<stop offset="1" stop-color="white" stop-opacity="0"/>
</linearGradient>
<linearGradient id="paint5_linear" x1="448.014" y1="219.956" x2="503.145" y2="233.527" gradientUnits="userSpaceOnUse">
<stop stop-color="#C9E7F4"/>
<stop offset="1" stop-color="white" stop-opacity="0"/>
</linearGradient>
<linearGradient id="paint6_linear" x1="10.1778" y1="165.818" x2="185.75" y2="230.28" gradientUnits="userSpaceOnUse">
<stop stop-color="#CDEAF7"/>
<stop offset="1" stop-color="white" stop-opacity="0"/>
</linearGradient>
<linearGradient id="paint7_linear" x1="49.1943" y1="209.923" x2="104.326" y2="216.709" gradientUnits="userSpaceOnUse">
<stop stop-color="#CDEAF7"/>
<stop offset="1" stop-color="white" stop-opacity="0"/>
</linearGradient>
<linearGradient id="paint8_linear" x1="51.7385" y1="110.687" x2="139.101" y2="149.279" gradientUnits="userSpaceOnUse">
<stop stop-color="#CDEAF7"/>
<stop offset="1" stop-color="white" stop-opacity="0"/>
</linearGradient>
<linearGradient id="paint9_linear" x1="78.0319" y1="79.3043" x2="183.206" y2="84.3933" gradientUnits="userSpaceOnUse">
<stop stop-color="#CDEAF7"/>
<stop offset="1" stop-color="white" stop-opacity="0"/>
</linearGradient>
</defs>
</svg>
