<svg width="1365" height="661" viewBox="0 0 1365 661" fill="none" xmlns="http://www.w3.org/2000/svg">
<g clip-path="url(#clip0)">
<rect width="1365" height="661" fill="#FFEBDB"/>
<rect width="1365" height="661" fill="url(#paint0_linear)"/>
<line x1="73.5001" y1="-15" x2="73.5001" y2="961" stroke="#B79E89"/>
<line x1="198.5" y1="-15" x2="198.5" y2="961" stroke="#B79E89"/>
<line x1="321.5" y1="-15" x2="321.5" y2="961" stroke="#B79E89"/>
<line x1="438.5" y1="-15" x2="438.5" y2="961" stroke="#B79E89"/>
<line x1="563.5" y1="-15" x2="563.5" y2="961" stroke="#B79E89"/>
<line x1="686.5" y1="-15" x2="686.5" y2="961" stroke="#B79E89"/>
<line x1="813.5" y1="-15" x2="813.5" y2="961" stroke="#B79E89"/>
<line x1="938.5" y1="-15" x2="938.5" y2="961" stroke="#B79E89"/>
<line x1="1061.5" y1="-15" x2="1061.5" y2="961" stroke="#B79E89"/>
<line x1="1187.5" y1="-15" x2="1187.5" y2="961" stroke="#B79E89"/>
<line x1="1312.5" y1="-15" x2="1312.5" y2="961" stroke="#B79E89"/>
<line x1="1356" y1="83.6639" x2="0.000122021" y2="83.6638" stroke="#B79E89"/>
<line x1="1356" y1="180.257" x2="0.000122021" y2="180.257" stroke="#B79E89"/>
<line x1="1356" y1="272.139" x2="0.000122021" y2="272.138" stroke="#B79E89"/>
<line x1="1356" y1="370.302" x2="0.000122021" y2="370.302" stroke="#B79E89"/>
<line x1="1356" y1="466.896" x2="0.000122021" y2="466.895" stroke="#B79E89"/>
<line x1="1356" y1="566.63" x2="0.000122021" y2="566.63" stroke="#B79E89"/>
<g opacity="0.5">
<path d="M48.5 381.698C18.5 386.498 4 437.031 0.5 461.698V660.198H346.5C346 659.198 344.2 654.998 341 646.198C330.5 621.698 306.5 638.198 284 634.698C261.5 631.198 271.5 626.698 260.5 605.198C249.5 583.698 262.5 584.698 253.5 558.198C244.5 531.698 235 533.698 223 533.698C211 533.698 178 533.698 159.5 548.198C141 562.698 135 549.198 129 548.198C123 547.198 102.5 541.198 96.5 533.698C90.5 526.198 110.5 470.698 119.5 461.698C128.5 452.698 118.5 402.198 110.5 389.198C102.5 376.198 86 375.698 48.5 381.698Z" fill="#5D2607" stroke="#5D2607"/>
<path d="M63 389.198C36.2 387.998 9.33333 448.198 0 478.698V660.198L334 660.698C334.5 652.365 330.5 637.698 312.5 643.698C290 651.198 284 642.698 269 640.198C254 637.698 246.5 606.698 246.5 592.198C250.5 574.198 237.833 553.365 231 545.198C216.667 543.698 182.8 543.998 162 557.198C136 573.698 115 560.698 98.5 552.698C78.5 552.198 76.5 508.698 98.5 464.198C120.5 419.698 96.5 390.698 63 389.198Z" fill="#225C21"/>
<path d="M34 491.698C24.8 488.898 7.83333 504.532 0.5 512.698V660.698L274 660.198C264.833 654.865 243.3 645.498 230.5 648.698C214.5 652.698 180 629.198 172 610.698C164 592.198 137.5 598.698 119 605.198C100.5 611.698 60 591.198 48.5 582.698C37 574.198 45 564.698 54 550.198C63 535.698 45.5 495.198 34 491.698Z" fill="#1F511E"/>
</g>
<g opacity="0.5">
<path d="M1085.7 319.999C1090.5 349.999 1141.03 364.499 1165.7 367.999C1190.36 371.499 1251.09 430.661 1305 412C1332.22 402.578 1364.2 367.999 1364.2 367.999L1364.2 22C1363.2 22.5 1359 24.3 1350.2 27.5C1325.7 38 1342.2 62 1338.7 84.5C1335.2 107 1330.7 97 1309.2 108C1287.7 119 1288.7 106 1262.2 115C1235.7 124 1237.7 133.499 1237.7 145.499C1237.7 157.499 1237.7 190.498 1252.2 208.998C1266.7 227.498 1253.2 233.498 1252.2 239.498C1251.2 245.498 1245.2 265.999 1237.7 271.999C1230.2 277.999 1174.7 257.998 1165.7 248.998C1156.7 239.998 1106.2 249.998 1093.2 257.998C1080.2 265.998 1079.7 282.499 1085.7 319.999Z" fill="#5D2607" stroke="#5D2607"/>
<path d="M1093.2 305.499C1092 332.299 1144.55 349.214 1182.7 368.499C1218.56 386.631 1239.86 403.892 1280 402C1315.35 400.334 1364.7 340.5 1364.7 340.5L1364.7 34.4995C1356.36 33.9995 1341.7 37.9995 1347.7 55.9995C1355.2 78.4995 1346.7 84.4995 1344.2 99.4995C1341.7 114.499 1310.7 121.999 1296.2 121.999C1278.2 117.999 1257.36 130.665 1249.2 137.499C1247.7 151.832 1248 185.699 1261.2 206.499C1277.7 232.499 1264.7 253.499 1256.7 269.999C1256.2 289.999 1212.7 291.999 1168.2 269.999C1123.7 247.999 1094.7 271.999 1093.2 305.499Z" fill="#225C21"/>
<path d="M1195.7 334.499C1192.9 343.699 1208.53 360.666 1216.7 367.999C1224.86 375.332 1261.1 391 1290 391C1318.9 391 1364.5 316.5 1364.5 316.5L1364.2 94.4993C1358.86 103.666 1349.5 125.199 1352.7 137.999C1356.7 153.999 1333.2 188.499 1314.7 196.499C1296.2 204.499 1302.7 230.999 1309.2 249.499C1315.7 267.999 1295.2 308.499 1286.7 319.999C1278.2 331.499 1268.7 323.499 1254.2 314.499C1239.7 305.499 1199.2 322.999 1195.7 334.499Z" fill="#1F511E"/>
</g>
</g>
<defs>
<linearGradient id="paint0_linear" x1="1429.93" y1="-70.0375" x2="404.576" y2="1113.68" gradientUnits="userSpaceOnUse">
<stop stop-color="#FFDBBF"/>
<stop offset="1" stop-color="white" stop-opacity="0"/>
</linearGradient>
<clipPath id="clip0">
<rect width="1365" height="661" fill="white"/>
</clipPath>
</defs>
</svg>
