<svg width="1365" height="661" viewBox="0 0 1365 661" fill="none" xmlns="http://www.w3.org/2000/svg">
<g clip-path="url(#clip0)">
<rect width="1365" height="661" fill="#863D14"/>
<rect width="1365" height="661" fill="url(#paint0_linear)"/>
<path d="M212.5 454.5C206 459 75 532.5 71.5 435" stroke="#684029" stroke-width="3"/>
<path d="M175.972 508.6C174.92 514.937 137.5 618 69.5 574.5" stroke="#684029" stroke-width="3"/>
<path d="M50 536.5C43.1667 680.5 14.7 980.3 -44.5 1027.5" stroke="#653E27" stroke-width="3"/>
<path d="M187.5 606C180.667 750 170.5 991 187.5 1091.5" stroke="#653E27" stroke-width="3"/>
<path d="M98.5 619C91.6667 763 63.2 1062.8 4 1110" stroke="#653E27" stroke-width="3"/>
<path d="M142.5 -30C141.333 83.1667 133.5 323.4 111.5 379C84 448.5 243.5 482.5 221.5 389C203.9 314.2 176.167 357.833 164.5 389" stroke="#653E27" stroke-width="3"/>
<path d="M191 383.5C185.333 403.833 169.6 438.4 152 414C130 383.5 127 335 159 325C191 315 283 321 258 465.5C210.5 483.5 160.5 571 152 604.5C143.5 638 127 955.5 152 1039" stroke="#653E27" stroke-width="3"/>
<path d="M66 -34C69.5 85.1667 70.7 341 47.5 411" stroke="#684029" stroke-width="3"/>
<path d="M258.5 485C196 533.5 198.5 853 224.5 1107" stroke="#684029" stroke-width="3"/>
<path d="M19 411C16.0353 497.811 3.68466 678.545 -22 707" stroke="#653E27" stroke-width="3"/>
<path d="M305.5 453C298.667 388.333 257.8 269.1 149 309.5C173 231 188 188.5 205.5 -42.5" stroke="#653E27" stroke-width="3"/>
<path d="M299 470.5C271.333 556.167 224.3 801.8 257.5 1099" stroke="#684029" stroke-width="3"/>
<path d="M602.5 -26C610.167 52.5 618.6 231.1 591 317.5C556.5 425.5 359 438.5 385 329C411 219.5 557 303.21 498 353.5" stroke="#653E27" stroke-width="3"/>
<path d="M344 -44C301.5 163.167 282.2 541.5 545 397.5" stroke="#684029" stroke-width="3"/>
<path d="M535.5 -14C555 58 582.3 217.4 535.5 279" stroke="#653E27" stroke-width="3"/>
<path d="M485 -13.5C489.667 58.6667 497.6 208.3 492 229.5" stroke="#653E27" stroke-width="3"/>
<path d="M383 -15C364.167 48 336.5 193.9 376.5 273.5C417.5 243.5 522 241 524.5 309.5C527 378 492 400.5 437.5 380.5" stroke="#653E27" stroke-width="3"/>
<path d="M429.5 -3C423.667 55.3333 416.5 185 434.5 237" stroke="#653E27" stroke-width="3"/>
<path d="M319.5 520C366.667 488.5 472.8 444.4 520 520C567.2 595.6 506.333 904.833 470 1050" stroke="#684029" stroke-width="3"/>
<path d="M422 1037.5C466.333 895.5 533.2 599 446 549" stroke="#684029" stroke-width="3"/>
<path d="M367.5 608C339.333 708.5 295.6 941.5 346 1069.5C409 1229.5 423 719 367.5 608Z" stroke="#653E27" stroke-width="3"/>
<path d="M1123.5 576.276C1130.33 640.943 1171.2 760.176 1280 719.776C1256 798.276 1241 840.776 1223.5 1071.78" stroke="#653E27" stroke-width="3"/>
<path d="M1202.5 220.776C1201 139.61 1194.3 -29.9236 1179.5 -58.7236" stroke="#684029" stroke-width="3"/>
<path d="M1130 558.776C1157.67 473.11 1204.7 227.476 1171.5 -69.7236" stroke="#684029" stroke-width="3"/>
<path d="M826.5 1055.28C818.834 976.776 810.4 798.176 838 711.776C872.5 603.776 1070 590.776 1044 700.276C1018 809.776 872 726.066 931 675.776" stroke="#653E27" stroke-width="3"/>
<path d="M1085 1073.28C1127.5 866.11 1146.8 487.776 884 631.776" stroke="#684029" stroke-width="3"/>
<path d="M1046 1044.28C1064.83 981.276 1092.5 835.376 1052.5 755.776C1011.5 785.776 907 788.276 904.5 719.776C902 651.276 937 628.776 991.5 648.776" stroke="#653E27" stroke-width="3"/>
<path d="M1136 -47.2236C1162 -26.2236 1193.1 -55.9236 1137.5 331.276" stroke="#684029" stroke-width="3"/>
<path d="M1109.5 509.276C1062.33 540.776 956.2 584.876 909 509.276C861.8 433.676 922.667 124.443 959 -20.7236" stroke="#684029" stroke-width="3"/>
<path d="M1007 -8.22363C962.667 133.776 895.8 430.276 983 480.276" stroke="#684029" stroke-width="3"/>
<path d="M1111 -20.7236C1127.5 -14.8903 1157 18.8764 1143 107.276" stroke="#684029" stroke-width="3"/>
<path d="M1061.5 421.276C1089.67 320.776 1133.4 87.7764 1083 -40.2236C1020 -200.224 1006 310.276 1061.5 421.276Z" stroke="#653E27" stroke-width="3"/>
<path d="M793 454.5C786.5 459 655.5 532.5 652 435" stroke="#684029" stroke-width="3"/>
<path d="M756.472 508.6C755.42 514.937 718 618 650 574.5" stroke="#684029" stroke-width="3"/>
<path d="M630.5 536.5C623.667 680.5 595.2 980.3 536 1027.5" stroke="#653E27" stroke-width="3"/>
<path d="M768 606C761.167 750 751 991 768 1091.5" stroke="#653E27" stroke-width="3"/>
<path d="M679 619C672.167 763 643.7 1062.8 584.5 1110" stroke="#653E27" stroke-width="3"/>
<path d="M723 -30C721.833 83.1667 714 323.4 692 379C664.5 448.5 824 482.5 802 389C784.4 314.2 756.667 357.833 745 389" stroke="#653E27" stroke-width="3"/>
<path d="M771.5 383.5C765.833 403.833 750.1 438.4 732.5 414C710.5 383.5 707.5 335 739.5 325C771.5 315 863.5 321 838.5 465.5C791 483.5 741 571 732.5 604.5C724 638 707.5 955.5 732.5 1039" stroke="#653E27" stroke-width="3"/>
<path d="M646.5 -34C650 85.1667 651.2 341 628 411" stroke="#684029" stroke-width="3"/>
<path d="M839 485C776.5 533.5 779 853 805 1107" stroke="#684029" stroke-width="3"/>
<path d="M599 411C590.323 599.872 554.175 993.092 479 1055" stroke="#653E27" stroke-width="3"/>
<path d="M1254.75 568.5C1261.25 564 1392.25 490.5 1395.75 588" stroke="#684029" stroke-width="3"/>
<path d="M1291.28 514.4C1292.33 508.063 1329.75 405 1397.75 448.5" stroke="#684029" stroke-width="3"/>
<path d="M1279.75 417C1286.59 273 1296.75 32 1279.75 -68.5" stroke="#653E27" stroke-width="3"/>
<path d="M1324.75 1053C1325.92 939.833 1333.75 699.6 1355.75 644C1383.25 574.5 1223.75 540.5 1245.75 634C1263.35 708.8 1291.09 665.167 1302.75 634" stroke="#653E27" stroke-width="3"/>
<path d="M1276.25 639.5C1281.92 619.167 1297.65 584.6 1315.25 609C1337.25 639.5 1340.25 688 1308.25 698C1276.25 708 1184.25 702 1209.25 557.5C1256.75 539.5 1306.75 452 1315.25 418.5C1323.75 385 1340.25 67.5 1315.25 -16" stroke="#653E27" stroke-width="3"/>
<path d="M1208.75 538C1271.25 489.5 1268.75 170 1242.75 -84" stroke="#684029" stroke-width="3"/>
<path d="M373.5 563C401.667 582.833 455.3 648.9 444.5 754.5" stroke="#653E27" stroke-width="3"/>
<g filter="url(#filter0_d)">
<path d="M310.038 666.952C186.445 685.554 97.1384 551.33 67.9341 481.893C67.9341 481.893 -88.1795 587.639 -88.8039 588.19C-89.4284 588.741 -58.6491 783.231 -58.6491 783.231C115.744 736.72 433.631 648.35 310.038 666.952Z" fill="#FFEBDB" stroke="#FFE3CA"/>
<path d="M41.9819 709.66C9.80676 631.606 33.665 523.586 69.1668 480.636L-105.487 563.681C-55.9586 643.994 74.157 787.715 41.9819 709.66Z" fill="#E2C2A7"/>
<path d="M73.8446 421.379L-97.9521 523.194L-88.804 588.19C-27.1304 546.662 100.486 460.237 117.565 446.769C114.294 410.034 87.0553 414.536 73.8446 421.379Z" fill="#FFEBDB" stroke="#FFE3CA"/>
<path d="M25.224 524.207C39.7475 570.136 95.905 669.516 204.347 699.606" stroke="#806249"/>
<path d="M-2.33337 543.572C12.1901 589.501 68.3476 688.881 176.79 718.971" stroke="#806249"/>
<path d="M48.6851 502.608C63.2085 548.537 119.366 647.917 227.808 678.007" stroke="#806249"/>
<path d="M96.6602 559.957C57.1012 587.444 -21.164 670.538 -17.7535 783.025" stroke="#806249"/>
<path d="M116.77 590.494C77.2107 617.98 -1.05453 701.074 2.35595 813.562" stroke="#806249"/>
<path d="M139.858 616.562C100.299 644.048 22.034 727.142 25.4445 839.63" stroke="#806249"/>
<path d="M169.65 641.885C130.091 669.371 51.8258 752.465 55.2363 864.953" stroke="#806249"/>
<path d="M75.8059 527.931C36.247 555.417 -42.0182 638.512 -38.6077 750.999" stroke="#806249"/>
<path d="M21.1277 600.176C15.1693 604.049 18.645 617.927 21.1277 624.382H19.2657L21.1277 628.85C22.369 631.581 24.9262 637.788 25.2241 640.767C25.5965 644.491 23.7345 647.843 19.2657 650.077C14.797 652.311 11.073 651.567 9.211 650.077C7.34901 648.587 0.273472 650.077 -2.7057 652.311C-5.68488 654.546 -3.8229 659.387 -3.8229 661.249C-3.8229 663.111 3.62504 661.249 9.211 661.249C14.797 661.249 18.1485 668.324 17.4037 668.324C16.6589 668.324 9.9558 674.655 6.60422 676.517C3.25265 678.379 3.25265 678.379 5.11463 679.496C6.97662 680.614 9.5834 678.007 13.3074 676.517C17.0313 675.028 23.7345 668.324 30.4376 668.324C37.1408 668.324 42.3543 668.697 46.8231 668.324C51.2919 667.952 54.271 664.973 55.0158 661.249C55.7606 657.525 57.6226 657.525 59.857 655.663C62.0914 653.801 68.7945 657.525 71.4013 659.387C74.0081 661.249 83.318 661.249 86.6696 661.249C90.0212 661.249 94.1175 660.132 96.3519 657.525C98.5863 654.918 99.3311 654.173 98.9587 651.567C98.5863 648.96 95.2347 647.47 91.5107 644.119C87.7868 640.767 91.1384 635.926 91.5107 632.202C91.8831 628.478 88.904 632.202 85.18 628.85C81.456 625.499 75.8701 624.382 77.3597 621.03C78.8493 617.678 77.3597 612.837 75.8701 610.603C74.3805 608.369 69.1669 602.783 65.443 600.176C61.719 597.569 60.2294 604.645 57.6226 606.134C55.0158 607.624 41.2372 600.176 40.12 600.176C39.0028 600.176 28.5756 595.335 21.1277 600.176Z" fill="#863D14"/>
<path d="M18.1485 664.601C13.0839 657.749 3.62498 659.015 -0.471387 660.504C-2.20924 658.642 -4.19536 654.471 1.763 652.684C9.21094 650.45 11.0729 653.429 13.3073 654.174C15.5417 654.918 18.1485 652.684 25.5964 648.215C31.5548 644.64 25.8447 632.078 22.2448 626.244H25.5964C25.4723 625.871 24.6282 623.265 22.2448 615.817C16.6589 597.569 28.5756 601.666 36.7683 602.038C44.9611 602.41 60.2293 611.348 60.6017 610.603C60.9741 609.858 64.3257 603.155 66.1877 604.272C78.4768 612.093 74.7528 621.03 74.7528 623.637C74.7528 626.244 82.5732 632.202 86.6695 632.202C90.7659 632.202 89.2763 633.319 87.7867 635.926C83.6903 643.374 93.0003 648.215 96.3518 650.077C99.7034 651.939 93.0003 666.835 71.4012 656.78C54.122 648.736 52.0366 659.139 53.1538 665.345C43.5956 667.952 23.2131 671.453 18.1485 664.601Z" fill="#225C21"/>
<path d="M91.1384 654.918C81.9029 659.983 73.3874 655.291 70.2841 652.311C68.6704 652.311 65.294 651.939 64.6982 650.449C63.9534 648.588 65.4429 649.332 69.5393 648.587C73.6357 647.843 70.2841 645.608 70.2841 640.767C70.2841 635.926 68.4221 639.65 66.5602 638.533C64.6982 637.416 64.6982 638.533 62.0914 636.298C59.4846 634.064 59.4846 633.692 56.5054 633.692H50.9195C49.0575 633.692 46.8231 633.692 45.7059 630.712C44.5887 627.733 41.9819 629.968 39.7476 629.968C37.5132 629.968 36.7684 630.712 34.1616 631.457C31.5548 632.202 34.1616 633.692 34.1616 638.533C34.1616 643.374 33.4168 645.981 31.9272 648.587C30.4376 651.194 27.4585 652.311 25.2241 653.429C22.9897 654.546 22.2449 654.918 22.6173 652.311C22.9897 649.705 25.5965 649.705 27.4585 648.587C29.3205 647.47 29.3205 645.981 31.1825 643.002C33.0444 640.022 31.1825 640.767 31.1825 638.533V631.457C31.1825 627.733 33.4168 629.223 35.2788 628.478C37.1408 627.733 39.7476 628.106 40.8648 624.754C41.982 621.402 39.7476 624.009 36.7684 624.754C33.7892 625.499 34.534 623.637 35.2788 620.658C36.0236 617.679 37.8856 619.913 39.7476 620.658C41.6096 621.402 43.844 620.285 43.844 616.189C43.0992 613.955 38.6304 612.837 37.8856 611.348C37.1408 609.858 35.2788 609.486 33.4168 608.741C31.5549 607.996 28.2033 608.369 26.7137 608.741C25.2241 609.113 23.7345 608.369 24.4793 606.134C25.2241 603.9 31.5548 605.389 36.7684 606.134C41.982 606.879 44.5887 613.955 46.8231 616.934C49.0575 619.913 44.5887 621.775 43.0991 624.754C41.6095 627.733 45.3335 628.478 48.3127 629.223C51.2919 629.968 52.7814 628.85 57.2502 629.968C61.719 631.085 62.4638 633.692 65.4429 636.298C68.4221 638.905 70.2841 636.298 73.6357 636.298C76.9872 636.298 73.6357 632.574 72.1461 631.457C70.6566 630.34 68.0497 628.478 66.5602 626.616C65.0706 624.754 70.2841 622.892 72.1461 627.361C73.6357 630.936 77.7321 633.071 79.5941 633.692C81.7043 633.94 85.6269 634.809 84.4352 636.298C82.0519 639.575 84.4352 644.863 85.9248 647.098C88.904 648.836 94.1175 652.833 91.1384 654.918Z" fill="#078EC8"/>
<path d="M72.1461 651.939C76.4907 654.174 85.9992 657.451 89.2763 652.684" stroke="#76B4CF"/>
<path d="M27.086 606.134C31.3065 605.514 40.7157 606.432 44.5887 615.072" stroke="#76B4CF" stroke-width="0.5"/>
<path d="M48.3126 607.996C52.5331 609.362 61.272 612.54 62.4637 614.327C62.4637 612.838 65.4429 603.9 67.6773 607.996" stroke="#2F772E"/>
<path d="M49.4299 664.601C49.554 658.766 53.0794 648.439 66.1877 653.801" stroke="#2F772E"/>
<path d="M2.50775 658.642C6.85238 657.401 17.2547 657.153 24.1068 666.09" stroke="#2F772E"/>
<path d="M20.7552 625.871C23.4862 629.968 28.2777 639.725 25.5964 645.981" stroke="#652D0D"/>
<path d="M55.7606 607.624C56.8778 608.617 59.6335 609.56 61.719 605.389C63.8044 601.219 67.5532 603.403 69.1669 605.017" stroke="#652D0D"/>
<path d="M81.8284 636.671C81.5801 639.402 81.6049 645.683 83.6904 648.96C86.2971 653.056 74.3804 652.311 73.6356 647.098" stroke="#76B4CF"/>
</g>
<g filter="url(#filter1_d)">
<path d="M1470.28 459.73L1247.67 597.091L1246.16 597.752L1230.2 566.229C1291.67 526.595 1422.59 443.31 1454.55 427.244C1482.58 427.87 1476.72 449.162 1470.28 459.73Z" fill="#373736" stroke="black"/>
<path d="M1481.9 427.575L1238.09 581.632L1237.73 561.564L1389.2 466.081L1389.52 466.156L1481.9 427.575Z" fill="#615F5F"/>
<circle cx="1163.95" cy="620.433" r="95.6151" transform="rotate(-76.7782 1163.95 620.433)" fill="#686868"/>
<circle cx="1163.95" cy="620.434" r="79.7892" transform="rotate(-76.7782 1163.95 620.434)" fill="#AED2E2"/>
<circle cx="1126.25" cy="579.063" r="23.7389" transform="rotate(-76.7782 1126.25 579.063)" fill="#E9EFF1"/>
</g>
<g filter="url(#filter2_d)">
<path d="M215.39 -65L-79 201.96L-14.4815 254.502L266 -14.3897L215.39 -65Z" fill="#A56B36" stroke="#5D2607"/>
<path d="M243.979 -7.04932L-21.4356 245.23" stroke="#5E2607"/>
<path d="M2.51735 211.618L-15.2542 190.37" stroke="#5D2607"/>
<path d="M12.9485 200.801L-4.82306 179.552" stroke="#5D2607"/>
<path d="M23.766 187.279L9.85779 171.825" stroke="#5D2607"/>
<path d="M34.5834 176.461L27.6293 168.735" stroke="#5D2607"/>
<path d="M43.8556 168.735L23.766 147.872" stroke="#5D2607"/>
<path d="M54.673 157.917L42.3102 145.554" stroke="#5D2607"/>
<path d="M67.0359 147.872L39.9922 121.601" stroke="#5D2607"/>
<path d="M80.1713 134.737L64.7178 121.601" stroke="#5D2607"/>
<path d="M90.2161 125.465L72.4446 109.239" stroke="#5D2607"/>
<path d="M102.579 113.102L93.3068 104.602" stroke="#5D2607"/>
<path d="M111.851 104.602L93.3068 89.1489" stroke="#5D2607"/>
<path d="M121.123 96.8756L102.579 81.4221" stroke="#5D2607"/>
<path d="M130.395 87.6036L117.26 76.7861" stroke="#5D2607"/>
<path d="M139.667 79.8769L121.123 64.4233" stroke="#5D2607"/>
<path d="M148.94 70.6047L135.031 59.0145" stroke="#5D2607"/>
<path d="M158.212 62.1052L137.349 45.879" stroke="#5D2607"/>
<path d="M169.029 52.0605L152.803 39.6976" stroke="#5D2607"/>
<path d="M177.529 42.7883L152.803 25.7894" stroke="#5D2607"/>
<path d="M186.028 34.2889L171.347 24.2441" stroke="#5D2607"/>
<path d="M196.845 24.2441L175.211 9.56323" stroke="#5D2607"/>
<path d="M206.118 14.972L189.891 4.15454" stroke="#5D2607"/>
<path d="M214.617 7.24521L193.755 -6.66296" stroke="#5D2607"/>
</g>
<circle cx="1233.73" cy="125.731" r="80.3586" transform="rotate(31.9982 1233.73 125.731)" fill="#444444"/>
<circle cx="1233.81" cy="126.091" r="64.9151" transform="rotate(31.9982 1233.81 126.091)" fill="#8C8C8C"/>
<circle cx="1210.06" cy="134.578" r="39.9605" fill="#C4C4C4"/>
<path d="M1262.01 91.2535L1259.03 89.3906L1259.17 76.2433L1253.22 85.7641L1250.24 83.9012L1259.28 69.4311L1262.27 71.294L1262.12 84.4674L1268.08 74.9267L1271.05 76.7834L1262.01 91.2535Z" fill="black"/>
<path d="M1205.42 175.307C1205.77 174.744 1205.84 174.189 1205.63 173.643C1205.42 173.089 1204.9 172.324 1204.08 171.347C1203.25 170.364 1202.64 169.521 1202.24 168.82C1201.15 166.905 1201.08 165.196 1202.02 163.692C1202.51 162.91 1203.16 162.351 1203.98 162.015C1204.81 161.676 1205.74 161.591 1206.78 161.76C1207.82 161.933 1208.86 162.34 1209.88 162.982C1210.92 163.627 1211.72 164.392 1212.29 165.274C1212.87 166.15 1213.17 167.068 1213.18 168.028C1213.21 168.992 1212.95 169.908 1212.41 170.776L1209.42 168.913C1209.84 168.251 1209.95 167.607 1209.76 166.981C1209.57 166.35 1209.1 165.798 1208.35 165.326C1207.62 164.87 1206.96 164.672 1206.36 164.731C1205.76 164.783 1205.31 165.061 1204.99 165.565C1204.7 166.035 1204.69 166.576 1204.96 167.188C1205.24 167.804 1205.75 168.539 1206.5 169.393C1207.88 170.963 1208.72 172.368 1209.02 173.607C1209.32 174.847 1209.12 176.03 1208.42 177.156C1207.64 178.409 1206.55 179.096 1205.15 179.22C1203.76 179.337 1202.27 178.895 1200.66 177.893C1199.55 177.197 1198.66 176.362 1198 175.386C1197.34 174.404 1196.99 173.408 1196.95 172.397C1196.92 171.39 1197.19 170.419 1197.78 169.485L1200.77 171.354C1199.77 172.951 1200.23 174.345 1202.13 175.537C1202.84 175.98 1203.49 176.184 1204.06 176.147C1204.64 176.104 1205.09 175.824 1205.42 175.307Z" fill="black"/>
<path d="M1272.43 156.782L1278.76 160.738L1277.27 163.133L1267.95 157.315L1277 142.845L1279.98 144.707L1272.43 156.782Z" fill="black"/>
<path d="M1195.36 102.354C1194.47 103.778 1193.44 104.87 1192.27 105.629C1191.09 106.387 1189.85 106.764 1188.55 106.759C1187.25 106.759 1185.99 106.38 1184.78 105.622C1183.58 104.873 1182.69 103.916 1182.11 102.752C1181.53 101.587 1181.31 100.31 1181.46 98.9209C1181.62 97.5246 1182.13 96.1288 1182.99 94.7333L1183.44 94.0177C1184.33 92.5932 1185.36 91.5004 1186.55 90.7392C1187.74 89.9755 1188.99 89.5973 1190.28 89.6046C1191.59 89.6094 1192.84 89.9885 1194.05 90.742C1195.26 91.4954 1196.14 92.4555 1196.71 93.6223C1197.29 94.7865 1197.5 96.0713 1197.33 97.4767C1197.17 98.8795 1196.65 100.29 1195.77 101.708L1195.36 102.354ZM1192.75 99.8101C1193.7 98.2928 1194.15 96.9703 1194.1 95.8424C1194.05 94.7145 1193.52 93.8359 1192.51 93.2067C1191.51 92.5816 1190.49 92.4902 1189.46 92.9325C1188.43 93.3682 1187.45 94.336 1186.5 95.8359L1186.06 96.5415C1185.14 98.019 1184.69 99.3349 1184.73 100.489C1184.76 101.644 1185.29 102.54 1186.31 103.177C1187.31 103.802 1188.32 103.892 1189.35 103.445C1190.38 102.992 1191.36 102.016 1192.31 100.516L1192.75 99.8101Z" fill="black"/>
<path d="M1229.82 123.595L1265.34 74.7996L1236.03 127.478L1229.82 123.595Z" fill="#B91212"/>
<path d="M1234.92 129.254L1199.4 178.049L1228.71 125.371L1234.92 129.254Z" fill="#292929"/>
<circle cx="1232.29" cy="126.064" r="6.02035" transform="rotate(31.9982 1232.29 126.064)" fill="#DDDDDD"/>
</g>
<defs>
<filter id="filter0_d" x="-130.708" y="405.389" width="487.32" height="474.834" filterUnits="userSpaceOnUse" color-interpolation-filters="sRGB">
<feFlood flood-opacity="0" result="BackgroundImageFix"/>
<feColorMatrix in="SourceAlpha" type="matrix" values="0 0 0 0 0 0 0 0 0 0 0 0 0 0 0 0 0 0 127 0"/>
<feOffset dx="5" dy="5"/>
<feGaussianBlur stdDeviation="5"/>
<feColorMatrix type="matrix" values="0 0 0 0 0 0 0 0 0 0 0 0 0 0 0 0 0 0 0.25 0"/>
<feBlend mode="normal" in2="BackgroundImageFix" result="effect1_dropShadow"/>
<feBlend mode="normal" in="SourceGraphic" in2="effect1_dropShadow" result="shape"/>
</filter>
<filter id="filter1_d" x="1044" y="375.217" width="452.903" height="375.166" filterUnits="userSpaceOnUse" color-interpolation-filters="sRGB">
<feFlood flood-opacity="0" result="BackgroundImageFix"/>
<feColorMatrix in="SourceAlpha" type="matrix" values="0 0 0 0 0 0 0 0 0 0 0 0 0 0 0 0 0 0 127 0"/>
<feOffset dx="5" dy="5"/>
<feGaussianBlur stdDeviation="5"/>
<feColorMatrix type="matrix" values="0 0 0 0 0 0 0 0 0 0 0 0 0 0 0 0 0 0 0.25 0"/>
<feBlend mode="normal" in2="BackgroundImageFix" result="effect1_dropShadow"/>
<feBlend mode="normal" in="SourceGraphic" in2="effect1_dropShadow" result="shape"/>
</filter>
<filter id="filter2_d" x="-84.7668" y="-70.6903" width="366.481" height="340.859" filterUnits="userSpaceOnUse" color-interpolation-filters="sRGB">
<feFlood flood-opacity="0" result="BackgroundImageFix"/>
<feColorMatrix in="SourceAlpha" type="matrix" values="0 0 0 0 0 0 0 0 0 0 0 0 0 0 0 0 0 0 127 0"/>
<feOffset dx="5" dy="5"/>
<feGaussianBlur stdDeviation="5"/>
<feColorMatrix type="matrix" values="0 0 0 0 0 0 0 0 0 0 0 0 0 0 0 0 0 0 0.25 0"/>
<feBlend mode="normal" in2="BackgroundImageFix" result="effect1_dropShadow"/>
<feBlend mode="normal" in="SourceGraphic" in2="effect1_dropShadow" result="shape"/>
</filter>
<linearGradient id="paint0_linear" x1="1365" y1="-37.7623" x2="426.311" y2="1070.74" gradientUnits="userSpaceOnUse">
<stop stop-color="#5E2607"/>
<stop offset="1" stop-color="white" stop-opacity="0"/>
</linearGradient>
<clipPath id="clip0">
<rect width="1365" height="661" fill="white"/>
</clipPath>
</defs>
</svg>
